M48
;Layer_Color=9474304
;FILE_FORMAT=2:3
INCH,LZ
;TYPE=PLATED
T1F00S00C0.031
T2F00S00C0.035
T3F00S00C0.043
T4F00S00C0.059
T5F00S00C0.106
;TYPE=NON_PLATED
T6F00S00C0.126
%
T01
X-03075Y-0455
X005Y-046
X03075Y-0455
Y-0405
Y-0355
Y-0305
X-01725Y-0325
X-01875
X-0195Y-036
Y-037
Y-038
Y-039
X-0225
Y-038
Y-037
Y-036
X-02325Y-0325
X-02475
X-03075Y-0305
Y-0355
Y-0405
Y-0255
Y-0205
Y-0155
X-02475Y-0205
X-02325
X-0225Y-02275
Y-02375
Y-02475
Y-02575
X-0195
Y-02475
Y-02375
Y-02275
X-01875Y-0205
X-01725
X-0195Y-0125
Y-0115
X-0225
Y-0125
X03075Y-0155
Y-0205
Y-0255
Y-0105
Y-0055
Y-0005
Y0045
X02375Y0015
Y-0005
X01125
X01
X01155Y0005
X01125Y0015
X-0165
Y-0005
X-01725Y-00725
X-01875
X-0195Y-0095
Y-0105
X-0225
Y-0095
X-02325Y-00725
X-02475
X-0255Y-0005
Y0015
X-0125Y-007
X-03075Y-0055
Y-0105
Y-0005
Y0045
Y0095
Y0145
X03075
Y0095
T02
X-018Y-028
X-02
Y-027
X-022
Y-028
X-024
Y-03
X-018
X-02Y-03475
X-022
Y-04025
Y-04125
X-02
Y-04025
X-0275Y-0205
Y-0185
X-024Y-018
Y-016
X-022Y-01475
Y-01375
X-02
Y-01475
X-018Y-016
Y-018
X-0145Y-0185
Y-0205
X-02Y-0215
X-022
X01025Y-01575
X01225
X02275
X02475
X0245Y-0085
X023
X0215
Y-0065
X023
X0245
X026
X0275
X029
Y-0085
X0275
X026
X02
X0185
Y-0065
X02
X0165
X015
X0135
X012
X0105
X009
X0075
X006
Y-0085
X0075
X009
X0105
X012
X0135
X015
X0165
X-02Y-00825
X-022
T03
X-021Y-045
X01Y-044
X0125Y-0445
X017Y-044
Y-04302
Y-04203
Y-04597
X02156Y-03769
X0215Y-031
X02242Y-03141
X0195Y-031
X0175
X0155
X0135
X01258Y-03141
X016Y-0365
X019
X01944Y-03981
X0125Y-0405
X01Y-041
X-0145
Y-03975
Y-0385
Y-03725
Y-036
Y-03475
Y-0335
X-01575
X-0185Y-03475
Y-036
Y-03725
Y-0385
Y-03975
Y-041
X-0235
Y-03975
Y-0385
Y-03725
Y-036
Y-03475
X-02175Y-0335
X-02025
Y-0295
X-02175
X-0235Y-0265
X-0185
X-0145
Y-0295
X-01575
X-02625
X-0275
Y-0265
Y-0335
Y-03475
Y-036
Y-03725
Y-0385
Y-03975
Y-041
X-02625Y-0335
X-0275Y-02525
Y-024
Y-02275
X-02625Y-0215
Y-0175
X-0275Y-0145
Y-01325
Y-012
Y-01075
X-0235
Y-012
Y-01325
Y-0145
X-02175Y-01625
X-02025
X-0185Y-0145
Y-01325
Y-012
Y-01075
X-0145
Y-012
Y-01325
Y-0145
X-01575Y-0175
Y-0215
X-0145Y-02275
Y-024
Y-02525
X-0185
Y-024
Y-02275
X-02025Y-02025
X-02175
X-0235Y-02275
Y-024
Y-02525
X01258Y-02059
X0135Y-021
X01455Y-02059
X0155Y-021
X0175
X0195
X02045Y-02059
X02Y-0135
X0185
X0165
X015
X0135
X012
X0105
X009
X0075
X006
X0215
X023
X0245
X026
X0275
X029
X02242Y-02059
X0215Y-021
Y-0095
X023
X0245
X026
X0275
X029
X02
X0185
X0165
X015
X0135
X012
X0105
X009
X0075
X006
X00197Y-00256
X-00197
Y00256
X00197
X-0165Y-00475
X-0205
X-0215
X-0255
X-0235Y-0095
X-0185
X-0145
Y-008
X-0275
Y-0095
X-001Y0075
X001
Y0115
X-001
X-00049Y0135
X00049
T04
X021Y-0435
X023
X025
X02375Y-0015
Y0025
X01125
Y-0015
X-0165
Y0025
X-0255
Y-0015
T05
X-02707Y-04349
X-025Y-04497
X-02293Y-04349
X-01907
X-017Y-04497
X-01493Y-04349
X-01107
X-009Y-04497
X-00693Y-04349
X-00307
X-001Y-04497
X00107Y-04349
X00963Y-026
X02537
T06
X-02875Y-04525
X02875
X003Y-025
X-003
X-02875Y013
X02875
M30
