%FSLAX24Y24*%
%MOIN*%
G70*
G01*
G75*
G04 Layer_Color=8388736*
%ADD10R,0.1181X0.2165*%
%ADD11C,0.0300*%
%ADD12C,0.0400*%
%ADD13C,0.0500*%
%ADD14C,0.2000*%
%ADD15C,0.0100*%
%ADD16C,0.2362*%
%ADD17C,0.2362*%
%ADD18C,0.0787*%
%ADD19O,0.0984X0.0591*%
%ADD20C,0.0984*%
%ADD21C,0.0787*%
%ADD22C,0.0669*%
%ADD23R,0.0669X0.0669*%
%ADD24R,0.0669X0.0669*%
%ADD25C,0.0748*%
%ADD26C,0.0591*%
%ADD27R,0.0591X0.0591*%
%ADD28R,0.0591X0.0591*%
%ADD29C,0.0630*%
%ADD30R,0.1181X0.1181*%
%ADD31C,0.1181*%
%ADD32C,0.1181*%
%ADD33R,0.1181X0.1181*%
%ADD34C,0.1772*%
%ADD35C,0.0630*%
%ADD36R,0.0630X0.0630*%
%ADD37C,0.0748*%
%ADD38C,0.0512*%
%ADD39C,0.0500*%
%ADD40C,0.0591*%
%ADD41C,0.0700*%
%ADD42C,0.0800*%
%ADD43C,0.0600*%
%ADD44R,0.1261X0.2245*%
%ADD45C,0.2442*%
%ADD46C,0.2442*%
%ADD47C,0.0867*%
%ADD48O,0.1064X0.0671*%
%ADD49C,0.1064*%
%ADD50C,0.0867*%
%ADD51C,0.0749*%
%ADD52R,0.0749X0.0749*%
%ADD53R,0.0749X0.0749*%
%ADD54C,0.0828*%
%ADD55C,0.0671*%
%ADD56R,0.0671X0.0671*%
%ADD57R,0.0671X0.0671*%
%ADD58C,0.0710*%
%ADD59R,0.1261X0.1261*%
%ADD60C,0.1261*%
%ADD61C,0.1261*%
%ADD62R,0.1261X0.1261*%
%ADD63C,0.1852*%
%ADD64C,0.0710*%
%ADD65R,0.0710X0.0710*%
%ADD66C,0.0828*%
%ADD67C,0.0592*%
G36*
X-30000Y-47500D02*
X-31500D01*
Y15250D01*
X-30000D01*
Y-47500D01*
D02*
G37*
G36*
X31500D02*
X30000D01*
Y15250D01*
X31500D01*
Y-47500D01*
D02*
G37*
D14*
X5000Y-46000D02*
Y-42500D01*
X0Y-37500D02*
X5000Y-42500D01*
X0Y-37500D02*
Y-10000D01*
X-2250D02*
X2250D01*
X-4000Y-8250D02*
X-2250Y-10000D01*
X-4000Y-8250D02*
Y-2500D01*
X2250Y-10000D02*
X4000Y-8250D01*
Y-2500D01*
X-4000Y2500D02*
Y14000D01*
X4000Y2500D02*
Y14000D01*
D44*
X-2067Y-4250D02*
D03*
X2067D02*
D03*
X-2067Y4250D02*
D03*
X2067D02*
D03*
D45*
X-3000Y-25000D02*
D03*
X3000D02*
D03*
X28750Y-45250D02*
D03*
Y13000D02*
D03*
X-28750D02*
D03*
D46*
Y-45250D02*
D03*
D47*
X9626Y-26000D02*
D03*
X25374D02*
D03*
X21561Y-37689D02*
D03*
X19439Y-39811D02*
D03*
X21500Y-21000D02*
D03*
X19500D02*
D03*
X17500D02*
D03*
X15500D02*
D03*
X13500D02*
D03*
X15500Y-31000D02*
D03*
X17500D02*
D03*
X19500D02*
D03*
X19000Y-36500D02*
D03*
X16000D02*
D03*
X10000Y-44000D02*
D03*
Y-41000D02*
D03*
D48*
X17000Y-42031D02*
D03*
Y-43016D02*
D03*
Y-44000D02*
D03*
D49*
Y-45968D02*
D03*
X22421Y-20587D02*
D03*
X20453D02*
D03*
X14547D02*
D03*
X12579D02*
D03*
Y-31413D02*
D03*
X22421D02*
D03*
D50*
X13500Y-31000D02*
D03*
X21500D02*
D03*
D51*
X26000Y-9500D02*
D03*
X27500Y-13500D02*
D03*
X20000D02*
D03*
X13500D02*
D03*
X15000Y-9500D02*
D03*
X7500D02*
D03*
X21500D02*
D03*
X9000Y-13500D02*
D03*
X-492Y13500D02*
D03*
D52*
X26000Y-13500D02*
D03*
X27500Y-9500D02*
D03*
X20000D02*
D03*
X13500D02*
D03*
X15000Y-13500D02*
D03*
X7500D02*
D03*
X21500D02*
D03*
X9000Y-9500D02*
D03*
D53*
X492Y13500D02*
D03*
D54*
X-14500Y-8000D02*
D03*
X-27500D02*
D03*
X23000Y-9500D02*
D03*
Y-13500D02*
D03*
X-25500Y-4750D02*
D03*
X-16500D02*
D03*
X24500Y-9500D02*
D03*
Y-13500D02*
D03*
X1000Y11500D02*
D03*
Y7500D02*
D03*
X18500Y-9500D02*
D03*
Y-13500D02*
D03*
X6000D02*
D03*
Y-9500D02*
D03*
X12000D02*
D03*
Y-13500D02*
D03*
X10500Y-9500D02*
D03*
Y-13500D02*
D03*
X-1000Y7500D02*
D03*
Y11500D02*
D03*
X16500Y-13500D02*
D03*
Y-9500D02*
D03*
X29000D02*
D03*
Y-13500D02*
D03*
X12500Y-44500D02*
D03*
Y-40500D02*
D03*
X-27500Y-41000D02*
D03*
X-23500D02*
D03*
X-27500Y-39750D02*
D03*
X-23500D02*
D03*
X-27500Y-38500D02*
D03*
X-23500D02*
D03*
X-27500Y-37250D02*
D03*
X-23500D02*
D03*
X-27500Y-36000D02*
D03*
X-23500D02*
D03*
X-21750Y-33500D02*
D03*
Y-29500D02*
D03*
X-20250Y-33500D02*
D03*
Y-29500D02*
D03*
X-23500Y-34750D02*
D03*
X-27500D02*
D03*
X-26250Y-29500D02*
D03*
Y-33500D02*
D03*
X-27500D02*
D03*
Y-29500D02*
D03*
Y-26500D02*
D03*
X-23500D02*
D03*
X-27500Y-25250D02*
D03*
X-23500D02*
D03*
Y-24000D02*
D03*
X-27500D02*
D03*
X-23500Y-22750D02*
D03*
X-27500D02*
D03*
X-20250Y-20250D02*
D03*
Y-16250D02*
D03*
X-21750Y-20250D02*
D03*
Y-16250D02*
D03*
X-26250Y-17500D02*
D03*
Y-21500D02*
D03*
X-27500Y-14500D02*
D03*
X-23500D02*
D03*
Y-9500D02*
D03*
X-27500D02*
D03*
X-23500Y-10750D02*
D03*
X-27500D02*
D03*
Y-12000D02*
D03*
X-23500D02*
D03*
X-27500Y-13250D02*
D03*
X-23500D02*
D03*
X-14500Y-41000D02*
D03*
X-18500D02*
D03*
X-14500Y-39750D02*
D03*
X-18500D02*
D03*
X-14500Y-36000D02*
D03*
X-18500D02*
D03*
X-14500Y-38500D02*
D03*
X-18500D02*
D03*
X-14500Y-37250D02*
D03*
X-18500D02*
D03*
Y-34750D02*
D03*
X-14500D02*
D03*
X-15750Y-29500D02*
D03*
Y-33500D02*
D03*
X-14500D02*
D03*
Y-29500D02*
D03*
Y-26500D02*
D03*
X-18500D02*
D03*
X-14500Y-25250D02*
D03*
X-18500D02*
D03*
Y-24000D02*
D03*
X-14500D02*
D03*
X-18500Y-22750D02*
D03*
X-14500D02*
D03*
X-15750Y-17500D02*
D03*
Y-21500D02*
D03*
X-14500Y-13250D02*
D03*
X-18500D02*
D03*
X-14500Y-14500D02*
D03*
X-18500D02*
D03*
Y-10750D02*
D03*
X-14500D02*
D03*
Y-12000D02*
D03*
X-18500D02*
D03*
Y-9500D02*
D03*
X-14500D02*
D03*
X-21500Y-4750D02*
D03*
X-20500D02*
D03*
X-21000Y-45000D02*
D03*
D55*
X-23250Y-7250D02*
D03*
X-16500Y1500D02*
D03*
X-25500Y-500D02*
D03*
X11250D02*
D03*
X23750Y1500D02*
D03*
X-17250Y-32500D02*
D03*
X-23250D02*
D03*
Y-20500D02*
D03*
X-17250Y-7250D02*
D03*
Y-20500D02*
D03*
D56*
X-24750Y-7250D02*
D03*
X-18750Y-32500D02*
D03*
X-24750D02*
D03*
Y-20500D02*
D03*
X-18750Y-7250D02*
D03*
Y-20500D02*
D03*
D57*
X-16500Y-500D02*
D03*
X-25500Y1500D02*
D03*
X11250D02*
D03*
X23750Y-500D02*
D03*
D58*
X18500Y-8500D02*
D03*
X23000D02*
D03*
X18500Y-6500D02*
D03*
X23000D02*
D03*
X29000Y-8500D02*
D03*
Y-6500D02*
D03*
X21500D02*
D03*
X24500Y-8500D02*
D03*
Y-6500D02*
D03*
X16500Y-8500D02*
D03*
Y-6500D02*
D03*
X6000D02*
D03*
Y-8500D02*
D03*
X12000D02*
D03*
Y-6500D02*
D03*
X10500Y-8500D02*
D03*
Y-6500D02*
D03*
X26000D02*
D03*
Y-8500D02*
D03*
X21500D02*
D03*
X27500D02*
D03*
Y-6500D02*
D03*
X20000Y-8500D02*
D03*
Y-6500D02*
D03*
X7500D02*
D03*
Y-8500D02*
D03*
X13500D02*
D03*
Y-6500D02*
D03*
X9000Y-8500D02*
D03*
Y-6500D02*
D03*
X15000D02*
D03*
Y-8500D02*
D03*
X12250Y-15750D02*
D03*
X10250D02*
D03*
X24750D02*
D03*
X22750D02*
D03*
X-22000Y-40250D02*
D03*
X-20000D02*
D03*
Y-41250D02*
D03*
X-22000D02*
D03*
Y-34750D02*
D03*
X-20000D02*
D03*
X-22000Y-27000D02*
D03*
X-20000D02*
D03*
X-24000Y-30000D02*
D03*
Y-28000D02*
D03*
X-20000D02*
D03*
X-22000D02*
D03*
Y-21500D02*
D03*
X-20000D02*
D03*
Y-14750D02*
D03*
X-22000D02*
D03*
Y-13750D02*
D03*
X-20000D02*
D03*
X-24000Y-18000D02*
D03*
Y-16000D02*
D03*
X-27500Y-20500D02*
D03*
Y-18500D02*
D03*
X-22000Y-8250D02*
D03*
X-20000D02*
D03*
X-18000Y-30000D02*
D03*
Y-28000D02*
D03*
Y-18000D02*
D03*
Y-16000D02*
D03*
X-14500Y-20500D02*
D03*
Y-18500D02*
D03*
D59*
X23750Y-1500D02*
D03*
X-25500Y2500D02*
D03*
X-16500Y-1500D02*
D03*
X11250Y2500D02*
D03*
D60*
X23750D02*
D03*
X-25500Y-1500D02*
D03*
X-16500Y2500D02*
D03*
X11250Y-1500D02*
D03*
D61*
X25000Y-43500D02*
D03*
X23000D02*
D03*
D62*
X21000D02*
D03*
D63*
X-1000Y-44970D02*
D03*
X1067Y-43494D02*
D03*
X-3067D02*
D03*
X-17000Y-44970D02*
D03*
X-14933Y-43494D02*
D03*
X-19067D02*
D03*
X-9000Y-44970D02*
D03*
X-6933Y-43494D02*
D03*
X-11067D02*
D03*
X-27067D02*
D03*
X-22933D02*
D03*
X-25000Y-44970D02*
D03*
D64*
X-19500Y-39000D02*
D03*
Y-38000D02*
D03*
Y-37000D02*
D03*
Y-36000D02*
D03*
X-22500Y-37000D02*
D03*
Y-38000D02*
D03*
Y-39000D02*
D03*
X-19500Y-25750D02*
D03*
Y-24750D02*
D03*
Y-23750D02*
D03*
Y-22750D02*
D03*
X-22500Y-23750D02*
D03*
Y-24750D02*
D03*
Y-25750D02*
D03*
X-19500Y-12500D02*
D03*
Y-11500D02*
D03*
Y-10500D02*
D03*
Y-9500D02*
D03*
X-22500Y-10500D02*
D03*
Y-11500D02*
D03*
Y-12500D02*
D03*
D65*
Y-36000D02*
D03*
Y-22750D02*
D03*
Y-9500D02*
D03*
D66*
X1969Y2559D02*
D03*
X-1969D02*
D03*
X1969Y-2559D02*
D03*
X-1969D02*
D03*
D67*
X5000Y-46000D02*
D03*
M02*
