%FSLAX24Y24*%
%MOIN*%
G70*
G01*
G75*
G04 Layer_Physical_Order=1*
G04 Layer_Color=255*
%ADD10R,0.1181X0.2165*%
%ADD11C,0.0300*%
%ADD12C,0.0400*%
%ADD13C,0.0500*%
%ADD14C,0.2000*%
%ADD15C,0.0100*%
%ADD16C,0.2362*%
%ADD17C,0.2362*%
%ADD18C,0.0787*%
%ADD19O,0.0984X0.0591*%
%ADD20C,0.0984*%
%ADD21C,0.0787*%
%ADD22C,0.0669*%
%ADD23R,0.0669X0.0669*%
%ADD24R,0.0669X0.0669*%
%ADD25C,0.0748*%
%ADD26C,0.0591*%
%ADD27R,0.0591X0.0591*%
%ADD28R,0.0591X0.0591*%
%ADD29C,0.0630*%
%ADD30R,0.1181X0.1181*%
%ADD31C,0.1181*%
%ADD32C,0.1181*%
%ADD33R,0.1181X0.1181*%
%ADD34C,0.1772*%
%ADD35C,0.0630*%
%ADD36R,0.0630X0.0630*%
%ADD37C,0.0748*%
%ADD38C,0.0512*%
%ADD39C,0.0500*%
%ADD40C,0.0591*%
G36*
X18923Y6473D02*
X18617D01*
X18598Y6475D01*
X18578Y6476D01*
X18556Y6478D01*
X18533Y6481D01*
X18512Y6485D01*
X18509D01*
X18501Y6487D01*
X18491Y6490D01*
X18477Y6492D01*
X18462Y6497D01*
X18446Y6504D01*
X18429Y6511D01*
X18413Y6520D01*
X18411Y6522D01*
X18406Y6525D01*
X18399Y6530D01*
X18390Y6538D01*
X18380Y6548D01*
X18369Y6560D01*
X18359Y6572D01*
X18350Y6588D01*
X18349Y6589D01*
X18347Y6595D01*
X18344Y6604D01*
X18339Y6615D01*
X18335Y6631D01*
X18333Y6647D01*
X18330Y6668D01*
X18329Y6689D01*
Y6690D01*
Y6695D01*
X18330Y6702D01*
Y6712D01*
X18333Y6723D01*
X18335Y6737D01*
X18339Y6753D01*
X18343Y6769D01*
X18349Y6787D01*
X18357Y6805D01*
X18367Y6822D01*
X18377Y6841D01*
X18391Y6860D01*
X18406Y6878D01*
X18424Y6896D01*
X18444Y6912D01*
X18446Y6914D01*
X18449Y6916D01*
X18456Y6920D01*
X18466Y6925D01*
X18477Y6933D01*
X18491Y6939D01*
X18509Y6947D01*
X18528Y6954D01*
X18550Y6963D01*
X18574Y6971D01*
X18600Y6977D01*
X18630Y6984D01*
X18660Y6990D01*
X18693Y6994D01*
X18729Y6996D01*
X18767Y6997D01*
X18843D01*
X18901Y7250D01*
X19102D01*
X18923Y6473D01*
D02*
G37*
G36*
X22467Y7108D02*
X21953Y6621D01*
X22336D01*
X22303Y6473D01*
X21689D01*
X21723Y6618D01*
X22235Y7103D01*
X21813D01*
X21849Y7250D01*
X22500D01*
X22467Y7108D01*
D02*
G37*
G36*
X16701Y6664D02*
X16512D01*
X16527Y6728D01*
X16526D01*
X16524Y6727D01*
X16517Y6722D01*
X16505Y6716D01*
X16491Y6707D01*
X16475Y6698D01*
X16458Y6688D01*
X16439Y6679D01*
X16421Y6670D01*
X16419Y6669D01*
X16413Y6666D01*
X16404Y6664D01*
X16390Y6659D01*
X16375Y6655D01*
X16356Y6652D01*
X16336Y6650D01*
X16315Y6648D01*
X16302D01*
X16288Y6651D01*
X16270Y6654D01*
X16250Y6657D01*
X16230Y6665D01*
X16210Y6674D01*
X16192Y6687D01*
X16189Y6688D01*
X16184Y6694D01*
X16178Y6703D01*
X16169Y6714D01*
X16161Y6731D01*
X16154Y6750D01*
X16149Y6773D01*
X16147Y6798D01*
Y6800D01*
Y6801D01*
Y6808D01*
X16149Y6819D01*
X16150Y6833D01*
Y6834D01*
Y6835D01*
X16151Y6839D01*
Y6844D01*
X16154Y6855D01*
X16156Y6869D01*
X16244Y7250D01*
X16433D01*
X16368Y6961D01*
Y6959D01*
X16367Y6956D01*
X16366Y6949D01*
X16364Y6942D01*
X16361Y6924D01*
X16357Y6906D01*
Y6905D01*
X16356Y6902D01*
Y6897D01*
X16354Y6892D01*
X16353Y6878D01*
Y6863D01*
Y6862D01*
Y6858D01*
X16354Y6852D01*
X16356Y6844D01*
X16361Y6827D01*
X16364Y6820D01*
X16371Y6813D01*
X16372Y6812D01*
X16375Y6811D01*
X16378Y6808D01*
X16385Y6805D01*
X16394Y6802D01*
X16404Y6800D01*
X16418Y6798D01*
X16433Y6797D01*
X16442D01*
X16448Y6798D01*
X16456Y6800D01*
X16465Y6801D01*
X16486Y6807D01*
X16487D01*
X16491Y6808D01*
X16498Y6811D01*
X16505Y6815D01*
X16515Y6819D01*
X16527Y6824D01*
X16552Y6836D01*
X16647Y7250D01*
X16835D01*
X16701Y6664D01*
D02*
G37*
G36*
X12104D02*
X11915D01*
X11931Y6728D01*
X11929D01*
X11928Y6727D01*
X11920Y6722D01*
X11910Y6716D01*
X11895Y6707D01*
X11880Y6698D01*
X11862Y6688D01*
X11844Y6679D01*
X11826Y6670D01*
X11824Y6669D01*
X11819Y6666D01*
X11809Y6664D01*
X11796Y6659D01*
X11781Y6655D01*
X11764Y6652D01*
X11745Y6650D01*
X11726Y6648D01*
X11716D01*
X11706Y6650D01*
X11692Y6652D01*
X11677Y6655D01*
X11660Y6660D01*
X11644Y6666D01*
X11628Y6675D01*
X11627Y6676D01*
X11622Y6680D01*
X11615Y6685D01*
X11607Y6694D01*
X11598Y6704D01*
X11588Y6718D01*
X11580Y6734D01*
X11573Y6751D01*
X11571D01*
X11570Y6749D01*
X11566Y6746D01*
X11561Y6742D01*
X11547Y6734D01*
X11531Y6722D01*
X11512Y6711D01*
X11490Y6698D01*
X11470Y6685D01*
X11448Y6675D01*
X11447D01*
X11446Y6674D01*
X11438Y6671D01*
X11428Y6666D01*
X11414Y6661D01*
X11398Y6657D01*
X11380Y6652D01*
X11359Y6650D01*
X11340Y6648D01*
X11328D01*
X11314Y6651D01*
X11297Y6654D01*
X11278Y6657D01*
X11259Y6665D01*
X11240Y6674D01*
X11224Y6687D01*
X11222Y6688D01*
X11217Y6694D01*
X11211Y6702D01*
X11202Y6714D01*
X11194Y6730D01*
X11188Y6749D01*
X11183Y6770D01*
X11182Y6796D01*
Y6797D01*
Y6798D01*
Y6806D01*
X11183Y6817D01*
X11184Y6831D01*
Y6833D01*
Y6834D01*
X11186Y6838D01*
Y6843D01*
X11188Y6855D01*
X11192Y6869D01*
X11279Y7250D01*
X11471D01*
X11403Y6958D01*
Y6957D01*
X11401Y6953D01*
X11400Y6947D01*
X11399Y6939D01*
X11395Y6921D01*
X11391Y6901D01*
Y6900D01*
X11390Y6896D01*
X11389Y6891D01*
X11387Y6885D01*
X11386Y6869D01*
X11385Y6855D01*
Y6854D01*
Y6850D01*
X11386Y6845D01*
X11387Y6839D01*
X11391Y6825D01*
X11396Y6819D01*
X11401Y6812D01*
X11403Y6811D01*
X11405Y6810D01*
X11409Y6807D01*
X11415Y6805D01*
X11423Y6802D01*
X11433Y6800D01*
X11446Y6797D01*
X11469D01*
X11474Y6798D01*
X11489Y6801D01*
X11507Y6807D01*
X11508D01*
X11512Y6808D01*
X11517Y6811D01*
X11524Y6815D01*
X11533Y6819D01*
X11543Y6824D01*
X11556Y6830D01*
X11569Y6836D01*
X11664Y7250D01*
X11854D01*
X11787Y6958D01*
Y6957D01*
X11786Y6953D01*
X11785Y6948D01*
X11783Y6942D01*
X11782Y6934D01*
X11779Y6924D01*
X11776Y6904D01*
Y6902D01*
X11774Y6898D01*
X11773Y6893D01*
X11772Y6886D01*
X11771Y6872D01*
X11769Y6864D01*
Y6858D01*
Y6857D01*
Y6853D01*
X11771Y6846D01*
X11772Y6840D01*
X11776Y6825D01*
X11781Y6819D01*
X11786Y6812D01*
X11787Y6811D01*
X11790Y6810D01*
X11793Y6807D01*
X11800Y6805D01*
X11807Y6802D01*
X11818Y6800D01*
X11830Y6797D01*
X11854D01*
X11861Y6798D01*
X11876Y6802D01*
X11895Y6808D01*
X11896D01*
X11900Y6810D01*
X11905Y6812D01*
X11913Y6816D01*
X11922Y6820D01*
X11932Y6825D01*
X11956Y6836D01*
X12051Y7250D01*
X12239D01*
X12104Y6664D01*
D02*
G37*
G36*
X21452Y7266D02*
X21463Y7265D01*
X21475Y7264D01*
X21489Y7263D01*
X21504Y7260D01*
X21537Y7253D01*
X21570Y7241D01*
X21586Y7235D01*
X21602Y7226D01*
X21617Y7217D01*
X21631Y7206D01*
X21632Y7204D01*
X21633Y7203D01*
X21637Y7199D01*
X21642Y7194D01*
X21647Y7188D01*
X21652Y7180D01*
X21659Y7171D01*
X21665Y7161D01*
X21673Y7148D01*
X21679Y7136D01*
X21689Y7107D01*
X21698Y7072D01*
X21699Y7053D01*
X21701Y7033D01*
Y7032D01*
Y7029D01*
Y7025D01*
Y7019D01*
X21699Y7013D01*
Y7004D01*
X21697Y6985D01*
X21694Y6962D01*
X21690Y6937D01*
X21684Y6911D01*
X21675Y6885D01*
Y6883D01*
X21674Y6881D01*
X21673Y6878D01*
X21670Y6873D01*
X21664Y6859D01*
X21655Y6843D01*
X21645Y6822D01*
X21631Y6802D01*
X21616Y6780D01*
X21598Y6760D01*
X21595Y6758D01*
X21589Y6751D01*
X21579Y6742D01*
X21563Y6730D01*
X21546Y6717D01*
X21525Y6703D01*
X21501Y6690D01*
X21476Y6678D01*
X21475D01*
X21472Y6676D01*
X21468Y6675D01*
X21463Y6673D01*
X21457Y6670D01*
X21448Y6668D01*
X21429Y6661D01*
X21405Y6656D01*
X21377Y6651D01*
X21346Y6647D01*
X21313Y6646D01*
X21301D01*
X21292Y6647D01*
X21280D01*
X21268Y6650D01*
X21254Y6651D01*
X21239Y6654D01*
X21206Y6661D01*
X21173Y6673D01*
X21156Y6679D01*
X21141Y6688D01*
X21126Y6697D01*
X21112Y6708D01*
X21110Y6709D01*
X21109Y6711D01*
X21105Y6714D01*
X21100Y6720D01*
X21095Y6726D01*
X21090Y6734D01*
X21084Y6742D01*
X21076Y6753D01*
X21070Y6764D01*
X21063Y6777D01*
X21053Y6807D01*
X21044Y6840D01*
X21043Y6859D01*
X21042Y6879D01*
Y6881D01*
Y6883D01*
Y6887D01*
Y6893D01*
X21043Y6901D01*
Y6910D01*
X21046Y6930D01*
X21048Y6953D01*
X21053Y6980D01*
X21061Y7006D01*
X21070Y7034D01*
Y7036D01*
X21071Y7037D01*
X21072Y7041D01*
X21075Y7046D01*
X21081Y7060D01*
X21090Y7076D01*
X21102Y7095D01*
X21114Y7117D01*
X21131Y7137D01*
X21149Y7157D01*
X21151Y7160D01*
X21157Y7166D01*
X21169Y7175D01*
X21183Y7188D01*
X21201Y7201D01*
X21221Y7214D01*
X21244Y7228D01*
X21269Y7240D01*
X21270D01*
X21272Y7241D01*
X21275Y7242D01*
X21282Y7244D01*
X21288Y7246D01*
X21296Y7249D01*
X21315Y7254D01*
X21339Y7259D01*
X21366Y7264D01*
X21397Y7266D01*
X21430Y7268D01*
X21443D01*
X21452Y7266D01*
D02*
G37*
G36*
X17301D02*
X17312Y7265D01*
X17324Y7264D01*
X17338Y7263D01*
X17353Y7260D01*
X17386Y7253D01*
X17419Y7241D01*
X17435Y7235D01*
X17451Y7226D01*
X17466Y7217D01*
X17480Y7206D01*
X17481Y7204D01*
X17482Y7203D01*
X17486Y7199D01*
X17491Y7194D01*
X17496Y7188D01*
X17501Y7180D01*
X17508Y7171D01*
X17514Y7161D01*
X17522Y7148D01*
X17528Y7136D01*
X17538Y7107D01*
X17547Y7072D01*
X17548Y7053D01*
X17550Y7033D01*
Y7032D01*
Y7029D01*
Y7025D01*
Y7019D01*
X17548Y7013D01*
Y7004D01*
X17546Y6985D01*
X17543Y6962D01*
X17539Y6937D01*
X17533Y6911D01*
X17524Y6885D01*
Y6883D01*
X17523Y6881D01*
X17522Y6878D01*
X17519Y6873D01*
X17513Y6859D01*
X17504Y6843D01*
X17494Y6822D01*
X17480Y6802D01*
X17465Y6780D01*
X17447Y6760D01*
X17444Y6758D01*
X17438Y6751D01*
X17428Y6742D01*
X17413Y6730D01*
X17395Y6717D01*
X17375Y6703D01*
X17350Y6690D01*
X17325Y6678D01*
X17324D01*
X17321Y6676D01*
X17317Y6675D01*
X17312Y6673D01*
X17306Y6670D01*
X17297Y6668D01*
X17278Y6661D01*
X17254Y6656D01*
X17226Y6651D01*
X17196Y6647D01*
X17163Y6646D01*
X17150D01*
X17141Y6647D01*
X17130D01*
X17117Y6650D01*
X17103Y6651D01*
X17088Y6654D01*
X17055Y6661D01*
X17022Y6673D01*
X17005Y6679D01*
X16990Y6688D01*
X16975Y6697D01*
X16961Y6708D01*
X16960Y6709D01*
X16958Y6711D01*
X16954Y6714D01*
X16949Y6720D01*
X16944Y6726D01*
X16939Y6734D01*
X16933Y6742D01*
X16925Y6753D01*
X16919Y6764D01*
X16913Y6777D01*
X16902Y6807D01*
X16894Y6840D01*
X16892Y6859D01*
X16891Y6879D01*
Y6881D01*
Y6883D01*
Y6887D01*
Y6893D01*
X16892Y6901D01*
Y6910D01*
X16895Y6930D01*
X16897Y6953D01*
X16902Y6980D01*
X16910Y7006D01*
X16919Y7034D01*
Y7036D01*
X16920Y7037D01*
X16921Y7041D01*
X16924Y7046D01*
X16930Y7060D01*
X16939Y7076D01*
X16951Y7095D01*
X16963Y7117D01*
X16980Y7137D01*
X16998Y7157D01*
X17000Y7160D01*
X17006Y7166D01*
X17018Y7175D01*
X17032Y7188D01*
X17050Y7201D01*
X17070Y7214D01*
X17093Y7228D01*
X17118Y7240D01*
X17119D01*
X17121Y7241D01*
X17125Y7242D01*
X17131Y7244D01*
X17137Y7246D01*
X17145Y7249D01*
X17164Y7254D01*
X17188Y7259D01*
X17215Y7264D01*
X17246Y7266D01*
X17279Y7268D01*
X17292D01*
X17301Y7266D01*
D02*
G37*
G36*
X13356Y7265D02*
X13368Y7264D01*
X13384Y7263D01*
X13399Y7261D01*
X13417Y7258D01*
X13453Y7250D01*
X13493Y7239D01*
X13510Y7231D01*
X13529Y7222D01*
X13546Y7212D01*
X13562Y7201D01*
X13564Y7199D01*
X13566Y7198D01*
X13570Y7194D01*
X13575Y7188D01*
X13581Y7181D01*
X13588Y7174D01*
X13595Y7164D01*
X13603Y7152D01*
X13611Y7141D01*
X13618Y7127D01*
X13625Y7112D01*
X13631Y7095D01*
X13636Y7077D01*
X13640Y7060D01*
X13642Y7039D01*
X13644Y7018D01*
Y7017D01*
Y7014D01*
Y7010D01*
Y7004D01*
X13642Y6997D01*
Y6989D01*
X13640Y6970D01*
X13637Y6947D01*
X13634Y6921D01*
X13627Y6896D01*
X13618Y6871D01*
Y6869D01*
X13617Y6868D01*
X13616Y6864D01*
X13613Y6859D01*
X13607Y6846D01*
X13598Y6830D01*
X13588Y6812D01*
X13574Y6792D01*
X13559Y6772D01*
X13541Y6753D01*
X13538Y6750D01*
X13532Y6745D01*
X13522Y6736D01*
X13508Y6725D01*
X13490Y6712D01*
X13470Y6699D01*
X13447Y6687D01*
X13422Y6675D01*
X13420D01*
X13418Y6674D01*
X13414Y6673D01*
X13409Y6670D01*
X13403Y6669D01*
X13394Y6666D01*
X13375Y6660D01*
X13351Y6655D01*
X13324Y6651D01*
X13295Y6647D01*
X13263Y6646D01*
X13250D01*
X13241Y6647D01*
X13230D01*
X13217Y6648D01*
X13203Y6650D01*
X13188Y6652D01*
X13156Y6659D01*
X13123Y6669D01*
X13093Y6681D01*
X13078Y6690D01*
X13065Y6699D01*
X13064D01*
X13062Y6702D01*
X13055Y6709D01*
X13043Y6722D01*
X13031Y6739D01*
X13019Y6761D01*
X13008Y6788D01*
X13000Y6820D01*
X12999Y6838D01*
X12998Y6857D01*
Y6858D01*
Y6863D01*
Y6869D01*
X12999Y6878D01*
Y6890D01*
X13000Y6901D01*
X13005Y6926D01*
Y6928D01*
X13007Y6931D01*
X13008Y6939D01*
X13010Y6947D01*
X13013Y6957D01*
X13017Y6968D01*
X13024Y6992D01*
X13460D01*
Y6995D01*
Y6999D01*
Y7000D01*
Y7005D01*
Y7006D01*
Y7008D01*
X13458Y7015D01*
X13457Y7027D01*
X13455Y7039D01*
X13449Y7055D01*
X13442Y7071D01*
X13432Y7086D01*
X13418Y7100D01*
X13415Y7102D01*
X13410Y7105D01*
X13400Y7112D01*
X13385Y7117D01*
X13367Y7123D01*
X13344Y7129D01*
X13318Y7133D01*
X13286Y7135D01*
X13276D01*
X13263Y7133D01*
X13248Y7132D01*
X13230Y7129D01*
X13210Y7126D01*
X13189Y7121D01*
X13169Y7114D01*
X13168D01*
X13167Y7113D01*
X13160Y7110D01*
X13149Y7107D01*
X13136Y7100D01*
X13121Y7094D01*
X13104Y7086D01*
X13088Y7077D01*
X13073Y7067D01*
X13051D01*
X13087Y7218D01*
X13089Y7220D01*
X13095Y7222D01*
X13107Y7226D01*
X13121Y7232D01*
X13139Y7237D01*
X13158Y7244D01*
X13179Y7249D01*
X13202Y7254D01*
X13205D01*
X13208Y7255D01*
X13212Y7256D01*
X13225Y7258D01*
X13241Y7260D01*
X13260Y7263D01*
X13282Y7264D01*
X13306Y7266D01*
X13345D01*
X13356Y7265D01*
D02*
G37*
G36*
X15807Y7266D02*
X15819Y7265D01*
X15830Y7264D01*
X15844Y7263D01*
X15859Y7260D01*
X15892Y7253D01*
X15925Y7241D01*
X15942Y7235D01*
X15957Y7226D01*
X15972Y7217D01*
X15986Y7206D01*
X15987Y7204D01*
X15989Y7203D01*
X15993Y7199D01*
X15998Y7194D01*
X16003Y7188D01*
X16008Y7180D01*
X16014Y7171D01*
X16020Y7161D01*
X16028Y7148D01*
X16034Y7136D01*
X16045Y7107D01*
X16053Y7072D01*
X16055Y7053D01*
X16056Y7033D01*
Y7032D01*
Y7029D01*
Y7025D01*
Y7019D01*
X16055Y7013D01*
Y7004D01*
X16052Y6985D01*
X16050Y6962D01*
X16046Y6937D01*
X16040Y6911D01*
X16031Y6885D01*
Y6883D01*
X16029Y6881D01*
X16028Y6878D01*
X16026Y6873D01*
X16019Y6859D01*
X16010Y6843D01*
X16000Y6822D01*
X15986Y6802D01*
X15971Y6780D01*
X15953Y6760D01*
X15951Y6758D01*
X15944Y6751D01*
X15934Y6742D01*
X15919Y6730D01*
X15901Y6717D01*
X15881Y6703D01*
X15857Y6690D01*
X15831Y6678D01*
X15830D01*
X15828Y6676D01*
X15824Y6675D01*
X15819Y6673D01*
X15812Y6670D01*
X15803Y6668D01*
X15784Y6661D01*
X15760Y6656D01*
X15732Y6651D01*
X15702Y6647D01*
X15669Y6646D01*
X15656D01*
X15647Y6647D01*
X15636D01*
X15623Y6650D01*
X15609Y6651D01*
X15594Y6654D01*
X15561Y6661D01*
X15528Y6673D01*
X15512Y6679D01*
X15496Y6688D01*
X15481Y6697D01*
X15467Y6708D01*
X15466Y6709D01*
X15465Y6711D01*
X15461Y6714D01*
X15456Y6720D01*
X15451Y6726D01*
X15446Y6734D01*
X15439Y6742D01*
X15432Y6753D01*
X15425Y6764D01*
X15419Y6777D01*
X15409Y6807D01*
X15400Y6840D01*
X15399Y6859D01*
X15397Y6879D01*
Y6881D01*
Y6883D01*
Y6887D01*
Y6893D01*
X15399Y6901D01*
Y6910D01*
X15401Y6930D01*
X15404Y6953D01*
X15409Y6980D01*
X15416Y7006D01*
X15425Y7034D01*
Y7036D01*
X15427Y7037D01*
X15428Y7041D01*
X15430Y7046D01*
X15437Y7060D01*
X15446Y7076D01*
X15457Y7095D01*
X15470Y7117D01*
X15486Y7137D01*
X15504Y7157D01*
X15507Y7160D01*
X15513Y7166D01*
X15524Y7175D01*
X15538Y7188D01*
X15556Y7201D01*
X15576Y7214D01*
X15599Y7228D01*
X15625Y7240D01*
X15626D01*
X15627Y7241D01*
X15631Y7242D01*
X15637Y7244D01*
X15644Y7246D01*
X15651Y7249D01*
X15670Y7254D01*
X15694Y7259D01*
X15721Y7264D01*
X15753Y7266D01*
X15786Y7268D01*
X15798D01*
X15807Y7266D01*
D02*
G37*
G36*
X18142Y6438D02*
X17953D01*
X18020Y6730D01*
X18019D01*
X18018Y6728D01*
X18010Y6723D01*
X18000Y6717D01*
X17986Y6708D01*
X17970Y6698D01*
X17952Y6688D01*
X17933Y6679D01*
X17915Y6670D01*
X17913Y6669D01*
X17906Y6666D01*
X17897Y6664D01*
X17883Y6659D01*
X17868Y6655D01*
X17849Y6652D01*
X17830Y6650D01*
X17809Y6648D01*
X17796D01*
X17781Y6651D01*
X17763Y6654D01*
X17744Y6659D01*
X17722Y6665D01*
X17703Y6675D01*
X17685Y6688D01*
X17683Y6689D01*
X17678Y6695D01*
X17671Y6704D01*
X17663Y6716D01*
X17655Y6732D01*
X17647Y6751D01*
X17642Y6773D01*
X17641Y6798D01*
Y6801D01*
Y6806D01*
X17642Y6816D01*
X17644Y6830D01*
Y6831D01*
Y6834D01*
X17645Y6838D01*
Y6843D01*
X17647Y6855D01*
X17650Y6869D01*
X17739Y7250D01*
X17928D01*
X17862Y6961D01*
Y6959D01*
X17861Y6956D01*
X17859Y6949D01*
X17858Y6942D01*
X17854Y6923D01*
X17850Y6905D01*
Y6904D01*
X17849Y6901D01*
Y6896D01*
X17848Y6891D01*
X17847Y6877D01*
X17845Y6863D01*
Y6862D01*
Y6858D01*
X17847Y6852D01*
X17848Y6844D01*
X17853Y6827D01*
X17857Y6820D01*
X17863Y6813D01*
X17864Y6812D01*
X17867Y6811D01*
X17871Y6808D01*
X17878Y6805D01*
X17887Y6802D01*
X17897Y6800D01*
X17911Y6798D01*
X17928Y6797D01*
X17937D01*
X17942Y6798D01*
X17949Y6800D01*
X17958Y6801D01*
X17980Y6807D01*
X17981D01*
X17985Y6808D01*
X17991Y6811D01*
X17999Y6815D01*
X18009Y6819D01*
X18019Y6824D01*
X18045Y6836D01*
X18141Y7250D01*
X18329D01*
X18142Y6438D01*
D02*
G37*
G36*
X-30153Y-46500D02*
X-30141Y-46559D01*
X-30108Y-46608D01*
X-30059Y-46641D01*
X-30000Y-46653D01*
Y-47347D01*
X-30059Y-47359D01*
X-30108Y-47392D01*
X-30141Y-47441D01*
X-30153Y-47500D01*
X-31500D01*
Y15250D01*
X-30153D01*
Y-46500D01*
D02*
G37*
G36*
X31500Y-47500D02*
X30153D01*
X30141Y-47441D01*
X30108Y-47392D01*
X30059Y-47359D01*
X30000Y-47347D01*
Y-46653D01*
X30059Y-46641D01*
X30108Y-46608D01*
X30141Y-46559D01*
X30153Y-46500D01*
Y15250D01*
X31500D01*
Y-47500D01*
D02*
G37*
G36*
X10972Y6664D02*
X10783D01*
X10797Y6726D01*
X10795Y6725D01*
X10788Y6720D01*
X10778Y6713D01*
X10766Y6704D01*
X10750Y6695D01*
X10735Y6687D01*
X10717Y6676D01*
X10701Y6669D01*
X10698Y6668D01*
X10693Y6665D01*
X10683Y6662D01*
X10672Y6659D01*
X10656Y6655D01*
X10639Y6651D01*
X10621Y6650D01*
X10601Y6648D01*
X10592D01*
X10585Y6650D01*
X10579D01*
X10570Y6651D01*
X10550Y6655D01*
X10528Y6661D01*
X10505Y6671D01*
X10484Y6685D01*
X10474Y6693D01*
X10465Y6703D01*
X10462Y6706D01*
X10457Y6713D01*
X10450Y6726D01*
X10441Y6742D01*
X10432Y6764D01*
X10424Y6789D01*
X10419Y6819D01*
X10417Y6853D01*
Y6854D01*
Y6857D01*
Y6860D01*
Y6867D01*
X10418Y6873D01*
Y6882D01*
X10420Y6902D01*
X10423Y6926D01*
X10428Y6952D01*
X10434Y6980D01*
X10443Y7009D01*
Y7010D01*
X10445Y7013D01*
X10446Y7017D01*
X10448Y7022D01*
X10455Y7036D01*
X10462Y7053D01*
X10472Y7074D01*
X10485Y7096D01*
X10499Y7118D01*
X10516Y7140D01*
X10518Y7142D01*
X10523Y7150D01*
X10533Y7160D01*
X10546Y7173D01*
X10563Y7188D01*
X10580Y7202D01*
X10601Y7217D01*
X10622Y7230D01*
X10623D01*
X10625Y7231D01*
X10632Y7235D01*
X10645Y7240D01*
X10661Y7245D01*
X10681Y7251D01*
X10703Y7256D01*
X10729Y7260D01*
X10755Y7261D01*
X10772D01*
X10783Y7260D01*
X10797Y7259D01*
X10811Y7258D01*
X10842Y7251D01*
X10843D01*
X10848Y7249D01*
X10856Y7247D01*
X10866Y7244D01*
X10876Y7240D01*
X10889Y7233D01*
X10913Y7221D01*
X10970Y7464D01*
X11158D01*
X10972Y6664D01*
D02*
G37*
G36*
X20037Y7265D02*
X20044D01*
X20052Y7264D01*
X20071Y7260D01*
X20094Y7253D01*
X20116Y7244D01*
X20138Y7230D01*
X20149Y7222D01*
X20159Y7212D01*
Y7211D01*
X20161Y7209D01*
X20164Y7206D01*
X20166Y7202D01*
X20175Y7189D01*
X20184Y7171D01*
X20193Y7148D01*
X20202Y7122D01*
X20207Y7090D01*
X20209Y7055D01*
Y7053D01*
Y7051D01*
Y7047D01*
Y7041D01*
X20208Y7033D01*
Y7024D01*
X20206Y7004D01*
X20203Y6980D01*
X20198Y6953D01*
X20192Y6926D01*
X20183Y6898D01*
Y6897D01*
X20182Y6895D01*
X20180Y6891D01*
X20178Y6886D01*
X20171Y6872D01*
X20164Y6854D01*
X20154Y6835D01*
X20141Y6812D01*
X20126Y6791D01*
X20109Y6769D01*
Y6768D01*
X20107Y6767D01*
X20102Y6760D01*
X20091Y6750D01*
X20079Y6737D01*
X20062Y6723D01*
X20044Y6708D01*
X20024Y6694D01*
X20001Y6681D01*
X20000D01*
X19999Y6680D01*
X19995Y6679D01*
X19990Y6676D01*
X19977Y6671D01*
X19961Y6665D01*
X19940Y6659D01*
X19919Y6654D01*
X19893Y6650D01*
X19868Y6648D01*
X19852D01*
X19840Y6650D01*
X19827Y6651D01*
X19814Y6652D01*
X19786Y6659D01*
X19784D01*
X19779Y6660D01*
X19772Y6662D01*
X19763Y6666D01*
X19751Y6670D01*
X19739Y6675D01*
X19712Y6689D01*
X19654Y6438D01*
X19465D01*
X19654Y7250D01*
X19841D01*
X19827Y7189D01*
X19829Y7190D01*
X19833Y7192D01*
X19838Y7195D01*
X19844Y7199D01*
X19859Y7209D01*
X19876Y7221D01*
X19877D01*
X19880Y7223D01*
X19883Y7226D01*
X19888Y7230D01*
X19904Y7237D01*
X19921Y7246D01*
X19923D01*
X19925Y7247D01*
X19930Y7249D01*
X19937Y7251D01*
X19952Y7256D01*
X19968Y7260D01*
X19970D01*
X19972Y7261D01*
X19977Y7263D01*
X19984D01*
X19991Y7264D01*
X20001Y7265D01*
X20023Y7266D01*
X20031D01*
X20037Y7265D01*
D02*
G37*
G36*
X14059Y6664D02*
X13870D01*
X13890Y6750D01*
X13887Y6749D01*
X13881Y6744D01*
X13870Y6736D01*
X13857Y6727D01*
X13840Y6717D01*
X13823Y6707D01*
X13804Y6697D01*
X13783Y6687D01*
X13781Y6685D01*
X13774Y6683D01*
X13763Y6679D01*
X13750Y6674D01*
X13734Y6670D01*
X13715Y6666D01*
X13696Y6664D01*
X13675Y6662D01*
X13661D01*
X13654Y6664D01*
X13639D01*
X13631Y6665D01*
X13674Y6844D01*
X13691D01*
X13693Y6843D01*
X13699Y6841D01*
X13711Y6840D01*
X13726Y6838D01*
X13730D01*
X13735Y6836D01*
X13740D01*
X13755Y6835D01*
X13786D01*
X13795Y6836D01*
X13805D01*
X13817Y6838D01*
X13843Y6841D01*
X13844D01*
X13849Y6843D01*
X13856Y6844D01*
X13864Y6845D01*
X13876Y6848D01*
X13887Y6852D01*
X13914Y6859D01*
X14005Y7250D01*
X14193D01*
X14059Y6664D01*
D02*
G37*
G36*
X20852D02*
X20662D01*
X20678Y6728D01*
X20676D01*
X20675Y6727D01*
X20668Y6722D01*
X20656Y6716D01*
X20642Y6707D01*
X20626Y6698D01*
X20609Y6688D01*
X20590Y6679D01*
X20572Y6670D01*
X20570Y6669D01*
X20564Y6666D01*
X20555Y6664D01*
X20541Y6659D01*
X20525Y6655D01*
X20506Y6652D01*
X20487Y6650D01*
X20466Y6648D01*
X20453D01*
X20439Y6651D01*
X20421Y6654D01*
X20401Y6657D01*
X20381Y6665D01*
X20360Y6674D01*
X20343Y6687D01*
X20340Y6688D01*
X20335Y6694D01*
X20329Y6703D01*
X20320Y6714D01*
X20312Y6731D01*
X20305Y6750D01*
X20300Y6773D01*
X20298Y6798D01*
Y6800D01*
Y6801D01*
Y6808D01*
X20300Y6819D01*
X20301Y6833D01*
Y6834D01*
Y6835D01*
X20302Y6839D01*
Y6844D01*
X20305Y6855D01*
X20307Y6869D01*
X20395Y7250D01*
X20584D01*
X20519Y6961D01*
Y6959D01*
X20518Y6956D01*
X20517Y6949D01*
X20515Y6942D01*
X20511Y6924D01*
X20508Y6906D01*
Y6905D01*
X20506Y6902D01*
Y6897D01*
X20505Y6892D01*
X20504Y6878D01*
Y6863D01*
Y6862D01*
Y6858D01*
X20505Y6852D01*
X20506Y6844D01*
X20511Y6827D01*
X20515Y6820D01*
X20522Y6813D01*
X20523Y6812D01*
X20525Y6811D01*
X20529Y6808D01*
X20536Y6805D01*
X20544Y6802D01*
X20555Y6800D01*
X20569Y6798D01*
X20584Y6797D01*
X20593D01*
X20599Y6798D01*
X20607Y6800D01*
X20616Y6801D01*
X20637Y6807D01*
X20638D01*
X20642Y6808D01*
X20649Y6811D01*
X20656Y6815D01*
X20666Y6819D01*
X20678Y6824D01*
X20703Y6836D01*
X20798Y7250D01*
X20986D01*
X20852Y6664D01*
D02*
G37*
G36*
X12810Y7265D02*
X12823Y7264D01*
X12839Y7261D01*
X12858Y7256D01*
X12878Y7249D01*
X12899Y7240D01*
X12917Y7226D01*
X12919Y7223D01*
X12924Y7218D01*
X12930Y7209D01*
X12939Y7197D01*
X12948Y7181D01*
X12955Y7164D01*
X12960Y7143D01*
X12962Y7119D01*
Y7118D01*
Y7117D01*
Y7113D01*
Y7108D01*
X12961Y7095D01*
X12958Y7079D01*
X12955Y7060D01*
X12948Y7041D01*
X12941Y7020D01*
X12930Y7001D01*
X12929Y6999D01*
X12924Y6994D01*
X12917Y6985D01*
X12906Y6973D01*
X12892Y6961D01*
X12876Y6948D01*
X12856Y6935D01*
X12833Y6924D01*
X12831D01*
X12830Y6923D01*
X12826Y6921D01*
X12823Y6920D01*
X12810Y6915D01*
X12792Y6909D01*
X12772Y6902D01*
X12746Y6896D01*
X12720Y6891D01*
X12689Y6886D01*
X12686D01*
X12680Y6885D01*
X12674Y6883D01*
X12667Y6882D01*
X12658D01*
X12647Y6879D01*
X12635Y6878D01*
X12608Y6876D01*
X12578Y6872D01*
X12545Y6869D01*
X12509Y6867D01*
Y6864D01*
Y6862D01*
X12508Y6858D01*
Y6857D01*
X12507Y6853D01*
X12505Y6848D01*
Y6841D01*
Y6840D01*
Y6835D01*
X12507Y6829D01*
X12509Y6821D01*
X12514Y6812D01*
X12519Y6805D01*
X12528Y6797D01*
X12540Y6791D01*
X12541Y6789D01*
X12546Y6788D01*
X12554Y6786D01*
X12565Y6783D01*
X12579Y6780D01*
X12597Y6778D01*
X12617Y6775D01*
X12649D01*
X12659Y6777D01*
X12672Y6778D01*
X12687Y6779D01*
X12705Y6782D01*
X12724Y6787D01*
X12744Y6792D01*
X12746D01*
X12753Y6794D01*
X12763Y6797D01*
X12776Y6801D01*
X12788Y6805D01*
X12802Y6808D01*
X12816Y6813D01*
X12828Y6817D01*
X12844D01*
X12818Y6678D01*
X12816D01*
X12811Y6676D01*
X12804Y6674D01*
X12792Y6671D01*
X12778Y6669D01*
X12760Y6666D01*
X12740Y6662D01*
X12716Y6659D01*
X12713D01*
X12710Y6657D01*
X12705D01*
X12691Y6655D01*
X12673Y6652D01*
X12653Y6651D01*
X12630Y6648D01*
X12604Y6647D01*
X12556D01*
X12545Y6648D01*
X12532D01*
X12518Y6650D01*
X12503Y6652D01*
X12470Y6656D01*
X12436Y6662D01*
X12404Y6671D01*
X12390Y6678D01*
X12377Y6684D01*
X12376D01*
X12375Y6685D01*
X12367Y6690D01*
X12357Y6699D01*
X12344Y6711D01*
X12333Y6727D01*
X12323Y6746D01*
X12315Y6769D01*
X12314Y6782D01*
X12312Y6796D01*
Y6797D01*
Y6803D01*
X12314Y6811D01*
X12315Y6822D01*
Y6824D01*
Y6825D01*
X12316Y6833D01*
X12318Y6841D01*
X12320Y6852D01*
X12411Y7250D01*
X12597D01*
X12583Y7189D01*
X12584D01*
X12585Y7192D01*
X12589Y7194D01*
X12594Y7197D01*
X12608Y7206D01*
X12626Y7217D01*
X12627D01*
X12630Y7220D01*
X12635Y7222D01*
X12641Y7226D01*
X12655Y7233D01*
X12672Y7242D01*
X12673D01*
X12677Y7244D01*
X12682Y7246D01*
X12689Y7249D01*
X12707Y7255D01*
X12726Y7260D01*
X12727D01*
X12731Y7261D01*
X12736Y7263D01*
X12744D01*
X12754Y7264D01*
X12767Y7265D01*
X12781Y7266D01*
X12805D01*
X12810Y7265D01*
D02*
G37*
G36*
X14787Y6473D02*
X14481D01*
X14462Y6475D01*
X14442Y6476D01*
X14420Y6478D01*
X14397Y6481D01*
X14376Y6485D01*
X14373D01*
X14366Y6487D01*
X14356Y6490D01*
X14342Y6492D01*
X14326Y6497D01*
X14310Y6504D01*
X14293Y6511D01*
X14277Y6520D01*
X14276Y6522D01*
X14271Y6525D01*
X14263Y6530D01*
X14254Y6538D01*
X14244Y6548D01*
X14234Y6560D01*
X14224Y6572D01*
X14215Y6588D01*
X14213Y6589D01*
X14211Y6595D01*
X14208Y6604D01*
X14203Y6615D01*
X14199Y6631D01*
X14197Y6647D01*
X14194Y6668D01*
X14193Y6689D01*
Y6690D01*
Y6695D01*
X14194Y6702D01*
Y6712D01*
X14197Y6723D01*
X14199Y6737D01*
X14203Y6753D01*
X14207Y6769D01*
X14213Y6787D01*
X14221Y6805D01*
X14231Y6822D01*
X14241Y6841D01*
X14255Y6860D01*
X14271Y6878D01*
X14288Y6896D01*
X14309Y6912D01*
X14310Y6914D01*
X14314Y6916D01*
X14320Y6920D01*
X14330Y6925D01*
X14342Y6933D01*
X14356Y6939D01*
X14373Y6947D01*
X14392Y6954D01*
X14414Y6963D01*
X14438Y6971D01*
X14465Y6977D01*
X14494Y6984D01*
X14524Y6990D01*
X14557Y6994D01*
X14593Y6996D01*
X14631Y6997D01*
X14707D01*
X14765Y7250D01*
X14966D01*
X14787Y6473D01*
D02*
G37*
%LPC*%
G36*
X14673Y6850D02*
X14585D01*
X14578Y6849D01*
X14569Y6848D01*
X14548Y6845D01*
X14526Y6841D01*
X14501Y6835D01*
X14479Y6826D01*
X14458Y6813D01*
X14456Y6812D01*
X14451Y6806D01*
X14442Y6798D01*
X14433Y6786D01*
X14424Y6770D01*
X14415Y6753D01*
X14410Y6731D01*
X14408Y6707D01*
Y6704D01*
Y6699D01*
X14409Y6692D01*
X14411Y6681D01*
X14415Y6670D01*
X14422Y6659D01*
X14429Y6648D01*
X14441Y6640D01*
X14442Y6638D01*
X14447Y6636D01*
X14455Y6632D01*
X14465Y6628D01*
X14479Y6624D01*
X14495Y6621D01*
X14515Y6618D01*
X14538Y6617D01*
X14618D01*
X14673Y6850D01*
D02*
G37*
G36*
X18808D02*
X18721D01*
X18713Y6849D01*
X18704Y6848D01*
X18684Y6845D01*
X18661Y6841D01*
X18637Y6835D01*
X18614Y6826D01*
X18594Y6813D01*
X18591Y6812D01*
X18586Y6806D01*
X18578Y6798D01*
X18569Y6786D01*
X18560Y6770D01*
X18551Y6753D01*
X18546Y6731D01*
X18543Y6707D01*
Y6704D01*
Y6699D01*
X18545Y6692D01*
X18547Y6681D01*
X18551Y6670D01*
X18557Y6659D01*
X18565Y6648D01*
X18576Y6640D01*
X18578Y6638D01*
X18583Y6636D01*
X18590Y6632D01*
X18600Y6628D01*
X18614Y6624D01*
X18631Y6621D01*
X18651Y6618D01*
X18674Y6617D01*
X18754D01*
X18808Y6850D01*
D02*
G37*
G36*
X19914Y7128D02*
X19909D01*
X19904Y7127D01*
X19897D01*
X19890Y7126D01*
X19881Y7123D01*
X19860Y7117D01*
X19859D01*
X19855Y7114D01*
X19850Y7112D01*
X19843Y7109D01*
X19825Y7100D01*
X19805Y7090D01*
X19739Y6803D01*
X19740D01*
X19741Y6802D01*
X19745Y6801D01*
X19749Y6798D01*
X19763Y6794D01*
X19779Y6789D01*
X19781D01*
X19783Y6788D01*
X19788Y6787D01*
X19793Y6786D01*
X19807Y6784D01*
X19822Y6783D01*
X19830D01*
X19839Y6784D01*
X19849Y6786D01*
X19862Y6788D01*
X19876Y6792D01*
X19890Y6797D01*
X19904Y6803D01*
X19905Y6805D01*
X19910Y6807D01*
X19916Y6811D01*
X19925Y6817D01*
X19935Y6825D01*
X19945Y6835D01*
X19956Y6845D01*
X19966Y6858D01*
X19967Y6859D01*
X19970Y6863D01*
X19973Y6871D01*
X19978Y6879D01*
X19985Y6891D01*
X19990Y6904D01*
X19996Y6919D01*
X20001Y6937D01*
Y6939D01*
X20004Y6944D01*
X20005Y6954D01*
X20008Y6966D01*
X20010Y6980D01*
X20011Y6995D01*
X20014Y7028D01*
Y7030D01*
Y7037D01*
X20013Y7046D01*
X20011Y7057D01*
X20008Y7070D01*
X20004Y7082D01*
X19998Y7095D01*
X19990Y7105D01*
X19989Y7107D01*
X19985Y7109D01*
X19980Y7113D01*
X19971Y7117D01*
X19961Y7121D01*
X19947Y7124D01*
X19932Y7127D01*
X19914Y7128D01*
D02*
G37*
G36*
X10804Y7131D02*
X10796D01*
X10787Y7129D01*
X10776Y7128D01*
X10763Y7126D01*
X10749Y7123D01*
X10735Y7118D01*
X10721Y7112D01*
X10720Y7110D01*
X10715Y7108D01*
X10708Y7103D01*
X10700Y7098D01*
X10691Y7089D01*
X10681Y7080D01*
X10670Y7070D01*
X10661Y7057D01*
X10660Y7056D01*
X10658Y7051D01*
X10654Y7044D01*
X10649Y7036D01*
X10642Y7024D01*
X10637Y7011D01*
X10632Y6996D01*
X10627Y6981D01*
Y6978D01*
X10625Y6973D01*
X10623Y6964D01*
X10621Y6952D01*
X10618Y6938D01*
X10617Y6923D01*
X10615Y6905D01*
Y6886D01*
Y6883D01*
Y6878D01*
X10616Y6869D01*
X10617Y6858D01*
X10620Y6846D01*
X10623Y6834D01*
X10629Y6822D01*
X10636Y6812D01*
X10637Y6811D01*
X10640Y6808D01*
X10645Y6805D01*
X10653Y6800D01*
X10663Y6794D01*
X10675Y6791D01*
X10691Y6788D01*
X10710Y6787D01*
X10720D01*
X10727Y6788D01*
X10744Y6791D01*
X10764Y6797D01*
X10766D01*
X10769Y6798D01*
X10774Y6801D01*
X10781Y6803D01*
X10790Y6807D01*
X10799Y6812D01*
X10820Y6822D01*
X10889Y7117D01*
X10887D01*
X10886Y7118D01*
X10882Y7119D01*
X10877Y7121D01*
X10866Y7123D01*
X10851Y7127D01*
X10847D01*
X10842Y7128D01*
X10837D01*
X10821Y7129D01*
X10804Y7131D01*
D02*
G37*
G36*
X12696Y7143D02*
X12675D01*
X12670Y7142D01*
X12663D01*
X12654Y7141D01*
X12644Y7138D01*
X12621Y7131D01*
X12620D01*
X12616Y7128D01*
X12609Y7126D01*
X12602Y7122D01*
X12583Y7112D01*
X12562Y7098D01*
X12533Y6973D01*
X12536D01*
X12542Y6975D01*
X12551D01*
X12564Y6977D01*
X12579Y6978D01*
X12594Y6980D01*
X12628Y6985D01*
X12630D01*
X12636Y6986D01*
X12644Y6987D01*
X12654Y6989D01*
X12665Y6991D01*
X12678Y6994D01*
X12702Y7001D01*
X12703D01*
X12707Y7004D01*
X12713Y7006D01*
X12720Y7010D01*
X12736Y7020D01*
X12744Y7027D01*
X12750Y7034D01*
X12752Y7036D01*
X12753Y7038D01*
X12755Y7042D01*
X12758Y7048D01*
X12762Y7056D01*
X12764Y7066D01*
X12766Y7076D01*
X12767Y7089D01*
Y7090D01*
Y7094D01*
X12766Y7099D01*
X12764Y7105D01*
X12762Y7113D01*
X12758Y7119D01*
X12753Y7127D01*
X12745Y7132D01*
X12744D01*
X12741Y7133D01*
X12736Y7136D01*
X12729Y7137D01*
X12720Y7140D01*
X12708Y7142D01*
X12696Y7143D01*
D02*
G37*
G36*
X21406Y7140D02*
X21400D01*
X21393Y7138D01*
X21385Y7137D01*
X21374Y7136D01*
X21364Y7132D01*
X21352Y7128D01*
X21340Y7122D01*
X21339Y7121D01*
X21335Y7118D01*
X21329Y7114D01*
X21321Y7108D01*
X21313Y7102D01*
X21305Y7093D01*
X21296Y7082D01*
X21287Y7071D01*
X21286Y7070D01*
X21283Y7065D01*
X21278Y7057D01*
X21273Y7047D01*
X21268Y7036D01*
X21261Y7022D01*
X21255Y7006D01*
X21250Y6991D01*
Y6989D01*
X21247Y6984D01*
X21246Y6975D01*
X21244Y6962D01*
X21241Y6947D01*
X21240Y6929D01*
X21237Y6909D01*
Y6886D01*
Y6883D01*
Y6877D01*
X21239Y6867D01*
X21240Y6855D01*
X21244Y6843D01*
X21247Y6829D01*
X21254Y6815D01*
X21261Y6803D01*
X21263Y6802D01*
X21267Y6798D01*
X21272Y6794D01*
X21279Y6788D01*
X21291Y6783D01*
X21303Y6779D01*
X21319Y6775D01*
X21336Y6774D01*
X21343D01*
X21350Y6775D01*
X21360Y6777D01*
X21372Y6779D01*
X21383Y6783D01*
X21396Y6788D01*
X21407Y6794D01*
X21409Y6796D01*
X21412Y6798D01*
X21418Y6802D01*
X21425Y6808D01*
X21433Y6816D01*
X21442Y6825D01*
X21451Y6836D01*
X21459Y6849D01*
X21461Y6850D01*
X21463Y6854D01*
X21467Y6862D01*
X21472Y6871D01*
X21477Y6883D01*
X21484Y6897D01*
X21489Y6912D01*
X21494Y6930D01*
Y6933D01*
X21495Y6939D01*
X21497Y6948D01*
X21499Y6961D01*
X21501Y6976D01*
X21504Y6992D01*
X21505Y7010D01*
Y7029D01*
Y7030D01*
Y7032D01*
Y7039D01*
X21504Y7049D01*
X21501Y7062D01*
X21499Y7076D01*
X21494Y7090D01*
X21487Y7103D01*
X21478Y7114D01*
X21477Y7115D01*
X21473Y7118D01*
X21467Y7122D01*
X21459Y7127D01*
X21449Y7132D01*
X21437Y7136D01*
X21423Y7138D01*
X21406Y7140D01*
D02*
G37*
G36*
X13442Y6882D02*
X13188D01*
Y6881D01*
X13187Y6877D01*
Y6872D01*
X13186Y6865D01*
Y6864D01*
X13184Y6860D01*
Y6855D01*
Y6849D01*
Y6848D01*
Y6843D01*
X13186Y6835D01*
X13188Y6826D01*
X13191Y6816D01*
X13196Y6806D01*
X13202Y6796D01*
X13211Y6787D01*
X13212Y6786D01*
X13216Y6783D01*
X13221Y6779D01*
X13230Y6775D01*
X13240Y6772D01*
X13253Y6768D01*
X13268Y6765D01*
X13285Y6764D01*
X13295D01*
X13305Y6765D01*
X13319Y6768D01*
X13334Y6772D01*
X13351Y6778D01*
X13367Y6786D01*
X13382Y6796D01*
X13384Y6797D01*
X13389Y6802D01*
X13396Y6808D01*
X13404Y6819D01*
X13414Y6831D01*
X13424Y6845D01*
X13433Y6863D01*
X13442Y6882D01*
D02*
G37*
G36*
X15762Y7140D02*
X15755D01*
X15749Y7138D01*
X15740Y7137D01*
X15730Y7136D01*
X15720Y7132D01*
X15707Y7128D01*
X15696Y7122D01*
X15694Y7121D01*
X15691Y7118D01*
X15684Y7114D01*
X15677Y7108D01*
X15669Y7102D01*
X15660Y7093D01*
X15651Y7082D01*
X15642Y7071D01*
X15641Y7070D01*
X15639Y7065D01*
X15633Y7057D01*
X15628Y7047D01*
X15623Y7036D01*
X15617Y7022D01*
X15611Y7006D01*
X15606Y6991D01*
Y6989D01*
X15603Y6984D01*
X15602Y6975D01*
X15599Y6962D01*
X15597Y6947D01*
X15595Y6929D01*
X15593Y6909D01*
Y6886D01*
Y6883D01*
Y6877D01*
X15594Y6867D01*
X15595Y6855D01*
X15599Y6843D01*
X15603Y6829D01*
X15609Y6815D01*
X15617Y6803D01*
X15618Y6802D01*
X15622Y6798D01*
X15627Y6794D01*
X15635Y6788D01*
X15646Y6783D01*
X15659Y6779D01*
X15674Y6775D01*
X15692Y6774D01*
X15698D01*
X15706Y6775D01*
X15716Y6777D01*
X15727Y6779D01*
X15739Y6783D01*
X15751Y6788D01*
X15763Y6794D01*
X15764Y6796D01*
X15768Y6798D01*
X15773Y6802D01*
X15781Y6808D01*
X15788Y6816D01*
X15797Y6825D01*
X15806Y6836D01*
X15815Y6849D01*
X15816Y6850D01*
X15819Y6854D01*
X15823Y6862D01*
X15828Y6871D01*
X15833Y6883D01*
X15839Y6897D01*
X15844Y6912D01*
X15849Y6930D01*
Y6933D01*
X15850Y6939D01*
X15853Y6948D01*
X15854Y6961D01*
X15857Y6976D01*
X15859Y6992D01*
X15861Y7010D01*
Y7029D01*
Y7030D01*
Y7032D01*
Y7039D01*
X15859Y7049D01*
X15857Y7062D01*
X15854Y7076D01*
X15849Y7090D01*
X15843Y7103D01*
X15834Y7114D01*
X15833Y7115D01*
X15829Y7118D01*
X15823Y7122D01*
X15815Y7127D01*
X15805Y7132D01*
X15792Y7136D01*
X15778Y7138D01*
X15762Y7140D01*
D02*
G37*
G36*
X17255D02*
X17249D01*
X17243Y7138D01*
X17234Y7137D01*
X17224Y7136D01*
X17213Y7132D01*
X17201Y7128D01*
X17189Y7122D01*
X17188Y7121D01*
X17184Y7118D01*
X17178Y7114D01*
X17170Y7108D01*
X17163Y7102D01*
X17154Y7093D01*
X17145Y7082D01*
X17136Y7071D01*
X17135Y7070D01*
X17132Y7065D01*
X17127Y7057D01*
X17122Y7047D01*
X17117Y7036D01*
X17111Y7022D01*
X17104Y7006D01*
X17099Y6991D01*
Y6989D01*
X17097Y6984D01*
X17095Y6975D01*
X17093Y6962D01*
X17090Y6947D01*
X17089Y6929D01*
X17086Y6909D01*
Y6886D01*
Y6883D01*
Y6877D01*
X17088Y6867D01*
X17089Y6855D01*
X17093Y6843D01*
X17097Y6829D01*
X17103Y6815D01*
X17111Y6803D01*
X17112Y6802D01*
X17116Y6798D01*
X17121Y6794D01*
X17128Y6788D01*
X17140Y6783D01*
X17152Y6779D01*
X17168Y6775D01*
X17185Y6774D01*
X17192D01*
X17199Y6775D01*
X17210Y6777D01*
X17221Y6779D01*
X17232Y6783D01*
X17245Y6788D01*
X17256Y6794D01*
X17258Y6796D01*
X17262Y6798D01*
X17267Y6802D01*
X17274Y6808D01*
X17282Y6816D01*
X17291Y6825D01*
X17300Y6836D01*
X17309Y6849D01*
X17310Y6850D01*
X17312Y6854D01*
X17316Y6862D01*
X17321Y6871D01*
X17326Y6883D01*
X17333Y6897D01*
X17338Y6912D01*
X17343Y6930D01*
Y6933D01*
X17344Y6939D01*
X17347Y6948D01*
X17348Y6961D01*
X17350Y6976D01*
X17353Y6992D01*
X17354Y7010D01*
Y7029D01*
Y7030D01*
Y7032D01*
Y7039D01*
X17353Y7049D01*
X17350Y7062D01*
X17348Y7076D01*
X17343Y7090D01*
X17336Y7103D01*
X17328Y7114D01*
X17326Y7115D01*
X17322Y7118D01*
X17316Y7122D01*
X17309Y7127D01*
X17298Y7132D01*
X17286Y7136D01*
X17272Y7138D01*
X17255Y7140D01*
D02*
G37*
%LPD*%
D10*
X-2067Y-4250D02*
D03*
X2067D02*
D03*
X-2067Y4250D02*
D03*
X2067D02*
D03*
D11*
X-8000Y-38561D02*
Y-11500D01*
X-12500Y-7000D02*
X-8000Y-11500D01*
Y-38561D02*
X-3067Y-43494D01*
X1067D01*
X-9000Y-41427D02*
Y-11500D01*
X-26500Y-6000D02*
X-24500D01*
X-27500Y-9500D02*
Y-7000D01*
X-26500Y-6000D01*
X-24500D02*
X-22500Y-4000D01*
X-19500D01*
X-17500Y-6000D01*
X-14500D01*
X-9000Y-11500D01*
Y-41427D02*
X-6933Y-43494D01*
X-11067D02*
X-9000Y-41427D01*
X-14500Y-9500D02*
Y-8000D01*
X492Y12758D02*
X1000Y12250D01*
Y11500D02*
Y12250D01*
X492Y12758D02*
Y13500D01*
X-1000Y11500D02*
Y12250D01*
X-500Y12750D01*
Y13492D01*
X-492Y13500D01*
X-19067Y-43494D02*
X-14933D01*
X-27067D02*
X-22933D01*
X-18600Y-37250D02*
X-17500D01*
X-19350Y-38000D02*
X-18600Y-37250D01*
X-19500Y-38000D02*
X-19350D01*
X-14933Y-43494D02*
Y-41433D01*
X-15000Y-43500D02*
Y-43494D01*
X-14933Y-41433D02*
X-14500Y-41000D01*
X-18500Y-9500D02*
X-17500D01*
X-18500Y-22750D02*
X-17500D01*
X-19500Y-23750D02*
X-18500Y-22750D01*
X-19500Y-37000D02*
X-18500Y-36000D01*
X-18850Y-39150D02*
X-18500D01*
X-19500Y-39000D02*
X-19000D01*
X-18850Y-39150D01*
X-19000Y-24750D02*
X-18850Y-24600D01*
X-19500Y-24750D02*
X-19000D01*
X-18850Y-24600D02*
X-18500D01*
X-19500Y-26250D02*
Y-25750D01*
Y-26250D02*
X-19250Y-26500D01*
X-18500D01*
X-19250Y-13250D02*
X-18500D01*
X-19500Y-13000D02*
X-19250Y-13250D01*
X-19500Y-13000D02*
Y-12500D01*
Y-10500D02*
X-18500Y-9500D01*
Y-12000D02*
Y-10750D01*
X-18850Y-11350D02*
X-18500D01*
X-19500Y-11500D02*
X-19000D01*
X-18850Y-11350D01*
X-14500Y-41000D02*
Y-39750D01*
X-18500D02*
Y-38500D01*
X-16250Y-36000D02*
X-14500D01*
X-17500Y-37250D02*
X-16250Y-36000D01*
X-18500D02*
Y-34750D01*
X-14500D02*
Y-33500D01*
X-15750D02*
X-14500D01*
X-16500Y-29500D02*
X-15750D01*
X-17000Y-30000D02*
X-16500Y-29500D01*
X-18000Y-30000D02*
X-17000D01*
X-14500Y-29500D02*
Y-28500D01*
X-16500Y-26500D02*
X-14500Y-28500D01*
X-18500Y-26500D02*
X-16500D01*
X-18500Y-25250D02*
Y-24000D01*
X-17500Y-22750D02*
X-16250Y-24000D01*
X-14500D01*
X-17500Y-9500D02*
X-16250Y-10750D01*
X-14500D01*
Y-22750D02*
Y-22000D01*
X-15000Y-21500D02*
X-14500Y-22000D01*
X-15750Y-21500D02*
X-15000D01*
X-18500Y-14500D02*
Y-13250D01*
X-15750Y-17500D02*
X-14750D01*
X-14500Y-17750D01*
Y-18500D02*
Y-17750D01*
X-15750Y-21500D02*
Y-19250D01*
X-17000Y-18000D02*
X-15750Y-19250D01*
X-18000Y-18000D02*
X-17000D01*
X-18000Y-16000D02*
X-15000D01*
X-14500Y-15500D01*
Y-14500D01*
X-27500Y-15500D02*
Y-14500D01*
Y-15500D02*
X-27000Y-16000D01*
X-24000D01*
X-25000Y-18000D02*
X-24000D01*
X-26250Y-19250D02*
X-25000Y-18000D01*
X-26250Y-21500D02*
Y-19250D01*
X-27500Y-18500D02*
Y-17750D01*
X-27250Y-17500D01*
X-26250D01*
X-23500Y-14500D02*
Y-13250D01*
Y-10750D02*
X-23250D01*
X-23500Y-12000D02*
Y-10750D01*
X-24500Y-9500D02*
X-22500D01*
X-27000Y-21500D02*
X-26250D01*
X-27500Y-22000D02*
X-27000Y-21500D01*
X-27500Y-22750D02*
Y-22000D01*
X-23250Y-24000D02*
X-23000Y-23750D01*
X-23500Y-24000D02*
X-23250D01*
X-23000Y-23750D02*
X-22500D01*
X-24500Y-22750D02*
X-22500D01*
X-27500Y-10750D02*
X-25750D01*
X-24500Y-9500D01*
X-27500Y-24000D02*
X-25750D01*
X-24500Y-22750D01*
X-23500Y-25250D02*
Y-24000D01*
X-23000Y-10500D02*
X-22500D01*
X-23250Y-10750D02*
X-23000Y-10500D01*
X-25500Y-26500D02*
X-23500D01*
X-27500Y-28500D02*
X-25500Y-26500D01*
X-27500Y-29500D02*
Y-28500D01*
X-25000Y-30000D02*
X-24000D01*
X-25500Y-29500D02*
X-25000Y-30000D01*
X-26250Y-29500D02*
X-25500D01*
X-27500Y-33500D02*
X-26250D01*
X-27500Y-34750D02*
Y-33500D01*
X-23500Y-36000D02*
Y-34750D01*
Y-36000D02*
X-22500D01*
X-24500Y-37250D02*
X-23250D01*
X-25750Y-36000D02*
X-24500Y-37250D01*
X-27500Y-36000D02*
X-25750D01*
X-23250Y-37250D02*
X-23000Y-37000D01*
X-22500D01*
X-23000Y-38000D02*
X-22500D01*
X-23500Y-38500D02*
X-23000Y-38000D01*
X-23500Y-39750D02*
Y-38500D01*
X-27000Y-43500D02*
Y-41500D01*
X-27500Y-41000D02*
Y-39750D01*
Y-41000D02*
X-27000Y-41500D01*
D12*
X21500Y-6500D02*
X26000D01*
X23750D02*
Y-500D01*
X25250Y-8750D02*
Y-6500D01*
X22250Y-8750D02*
Y-6500D01*
X9000D02*
X13500D01*
X11250D02*
Y-500D01*
X12750Y-8750D02*
Y-6500D01*
X9750Y-8750D02*
Y-6500D01*
X21500Y-15750D02*
X22750D01*
X20750Y-15000D02*
X21500Y-15750D01*
X20750Y-15000D02*
Y-8500D01*
X18500Y-13500D02*
X23000D01*
X21500Y-9500D02*
X22250Y-8750D01*
X24500Y-9500D02*
Y-8500D01*
X23000Y-9500D02*
Y-8500D01*
X20000D02*
X21500D01*
X18500Y-9500D02*
Y-8500D01*
X9000Y-15750D02*
X10250D01*
X8250Y-15000D02*
X9000Y-15750D01*
X8250Y-15000D02*
Y-8500D01*
X6000Y-13500D02*
X10500D01*
X12000Y-9500D02*
Y-8500D01*
X12750Y-8750D02*
X13500Y-9500D01*
X10500D02*
Y-8500D01*
X7500D02*
X9000D01*
X6000Y-9500D02*
Y-8500D01*
X12250Y-15750D02*
X13500D01*
X14250Y-15000D01*
Y-8500D01*
X12000Y-13500D02*
X16500D01*
X10500Y-9500D02*
Y-8500D01*
X9000Y-9500D02*
X9750Y-8750D01*
X12000Y-9500D02*
Y-8500D01*
X13500D02*
X15000D01*
X16500Y-9500D02*
Y-8500D01*
X29000Y-9500D02*
Y-8500D01*
X26000D02*
X27500D01*
X24500Y-9500D02*
Y-8500D01*
X23000Y-9500D02*
Y-8500D01*
X25250Y-8750D02*
X26000Y-9500D01*
X24500Y-13500D02*
X29000D01*
X26750Y-15000D02*
Y-8500D01*
X26000Y-15750D02*
X26750Y-15000D01*
X24750Y-15750D02*
X26000D01*
X-23250Y-33000D02*
Y-32500D01*
Y-33000D02*
X-22750Y-33500D01*
X-21750D01*
X-20700Y-39550D02*
Y-33950D01*
Y-34750D02*
X-20000D01*
X-20250Y-33500D02*
X-19250D01*
X-18750Y-33000D01*
Y-32500D01*
X-19250Y-20500D02*
X-18750D01*
X-19500Y-20250D02*
X-19250Y-20500D01*
X-20250Y-20250D02*
X-19500D01*
X-22500D02*
X-21750D01*
X-22750Y-20500D02*
X-22500Y-20250D01*
X-23250Y-20500D02*
X-22750D01*
X-20700Y-13050D02*
Y-5700D01*
Y-7250D02*
X-18750D01*
X-20700Y-8250D02*
X-20000D01*
X-21300Y-13050D02*
Y-5700D01*
X-23250Y-7250D02*
X-21300D01*
X-22000Y-15200D02*
Y-13750D01*
Y-15200D02*
X-21750Y-15450D01*
Y-16250D02*
Y-15450D01*
X-20650Y-14400D02*
X-20000Y-13750D01*
X-20250Y-16250D02*
Y-15500D01*
X-20650Y-15100D02*
Y-14400D01*
Y-15100D02*
X-20250Y-15500D01*
X-20650Y-28350D02*
X-20250Y-28750D01*
X-20650Y-28350D02*
Y-27650D01*
X-20700Y-26300D02*
Y-20700D01*
Y-21500D02*
X-20000D01*
X-20250Y-29500D02*
Y-28750D01*
X-20650Y-27650D02*
X-20000Y-27000D01*
X-21750Y-29500D02*
Y-28700D01*
X-22000Y-28450D02*
X-21750Y-28700D01*
X-22000Y-27000D02*
X-21300Y-26300D01*
Y-20700D01*
X-20700Y-26300D02*
X-20000Y-27000D01*
X-22000Y-28450D02*
Y-27000D01*
X-20500Y-5500D02*
Y-4750D01*
X-20700Y-5700D02*
X-20500Y-5500D01*
X-21500D02*
Y-4750D01*
Y-5500D02*
X-21300Y-5700D01*
X-22000Y-13750D02*
X-21300Y-13050D01*
X-20700D02*
X-20000Y-13750D01*
Y-8250D02*
X-19500Y-8750D01*
Y-9500D02*
Y-8750D01*
X-22500Y-13250D02*
X-22000Y-13750D01*
X-22500Y-13250D02*
Y-12500D01*
X-21750Y-20250D02*
X-21300Y-20700D01*
X-20700D02*
X-20250Y-20250D01*
X-20000Y-21500D02*
X-19500Y-22000D01*
Y-22750D02*
Y-22000D01*
X-22500Y-26500D02*
X-22000Y-27000D01*
X-22500Y-26500D02*
Y-25750D01*
Y-39750D02*
Y-39000D01*
Y-39750D02*
X-22000Y-40250D01*
X-19500Y-36000D02*
Y-35250D01*
X-20000Y-34750D02*
X-19500Y-35250D01*
X-20700Y-33950D02*
X-20250Y-33500D01*
X-20700Y-39550D02*
X-20000Y-40250D01*
X-21300Y-39550D02*
Y-33950D01*
X-21750Y-33500D02*
X-21300Y-33950D01*
X-22000Y-40250D02*
X-21300Y-39550D01*
X-22000Y-41250D02*
Y-40250D01*
D13*
X22750Y500D02*
X23750Y-500D01*
X11550Y500D02*
X22750D01*
X3250Y-500D02*
X10000D01*
X10250Y500D02*
X11250Y-500D01*
X3250Y500D02*
X10250D01*
X-16500Y-4750D02*
Y-500D01*
X-25000Y500D02*
X-3250D01*
X-16500Y-500D02*
X-3250D01*
X-25500Y0D02*
X-25000Y500D01*
X-3250D02*
X-1969Y1781D01*
Y2559D01*
Y4152D01*
X-2067Y4250D02*
X-1969Y4152D01*
X-25500Y-4750D02*
Y0D01*
X1969Y-4152D02*
Y-2559D01*
Y-1781D01*
X3250Y-500D01*
X-1969Y-4152D02*
Y-2559D01*
Y-1781D01*
X-3250Y-500D02*
X-1969Y-1781D01*
X1969Y2559D02*
Y4152D01*
Y1781D02*
Y2559D01*
Y1781D02*
X3250Y500D01*
X-1969Y4152D02*
X-1098D01*
X-1000Y4250D01*
Y7500D01*
X1000Y-2250D02*
Y7500D01*
X-1000Y-4250D02*
X1000Y-2250D01*
X-2067Y-4250D02*
X-1000D01*
D14*
X0Y-37500D02*
X5000Y-42500D01*
X2250Y-10000D02*
X4000Y-8250D01*
X-4000D02*
X-2250Y-10000D01*
X4000Y2500D02*
Y14000D01*
X5000Y-46000D02*
Y-42500D01*
X-4000Y2500D02*
Y14000D01*
Y-8250D02*
Y-2500D01*
X4000Y-8250D02*
Y-2500D01*
X0Y-37500D02*
Y-10000D01*
X-2250D02*
X2250D01*
D15*
X26550Y8950D02*
X26450D01*
X26350Y8850D01*
Y8350D01*
X26650D01*
X26750Y8450D01*
Y8650D01*
X26650Y8750D01*
X26350D01*
X26150D02*
X25950D01*
X26050D01*
Y8350D01*
X26150D01*
X25550Y8250D02*
Y8350D01*
X25650D01*
X25450D01*
X25550D01*
Y8650D01*
X25450Y8750D01*
X25151Y8150D02*
Y8750D01*
Y8450D01*
X25051Y8350D01*
X24851D01*
X24751Y8450D01*
Y8750D01*
X24551Y8350D02*
Y8650D01*
X24451Y8750D01*
X24151D01*
Y8350D01*
X23951Y8150D02*
Y8750D01*
X23651D01*
X23551Y8650D01*
Y8550D01*
Y8450D01*
X23651Y8350D01*
X23951D01*
X23351Y8750D02*
Y8650D01*
X23251D01*
Y8750D01*
X23351D01*
X22451Y8350D02*
X22751D01*
X22851Y8450D01*
Y8650D01*
X22751Y8750D01*
X22451D01*
X22151D02*
X21952D01*
X21852Y8650D01*
Y8450D01*
X21952Y8350D01*
X22151D01*
X22251Y8450D01*
Y8650D01*
X22151Y8750D01*
X21652D02*
Y8350D01*
X21552D01*
X21452Y8450D01*
Y8750D01*
Y8450D01*
X21352Y8350D01*
X21252Y8450D01*
Y8750D01*
X21052D02*
X20652Y8350D01*
X20452Y8750D02*
X20252D01*
X20352D01*
Y8350D01*
X20452D01*
X19952D02*
X19752Y8750D01*
X19552Y8350D01*
X19252D02*
X19052D01*
X18953Y8450D01*
Y8750D01*
X19252D01*
X19352Y8650D01*
X19252Y8550D01*
X18953D01*
X18753Y8750D02*
X18453D01*
X18353Y8650D01*
X18453Y8550D01*
X18653D01*
X18753Y8450D01*
X18653Y8350D01*
X18353D01*
X18153Y8750D02*
X17953D01*
X18053D01*
Y8350D01*
X18153D01*
X17653Y8750D02*
X17453D01*
X17553D01*
Y8150D01*
X17653D01*
X16853Y8750D02*
X17053D01*
X17153Y8650D01*
Y8450D01*
X17053Y8350D01*
X16853D01*
X16753Y8450D01*
Y8550D01*
X17153D01*
X16553Y8350D02*
X16353Y8750D01*
X16153Y8350D01*
X15953Y8750D02*
X15554Y8350D01*
X14954Y8150D02*
Y8750D01*
X15254D01*
X15354Y8650D01*
Y8450D01*
X15254Y8350D01*
X14954D01*
X14754Y8750D02*
X14554D01*
X14654D01*
Y8350D01*
X14754D01*
X14254D02*
Y8650D01*
X14154Y8750D01*
X13854D01*
Y8850D01*
X13954Y8950D01*
X14054D01*
X13854Y8750D02*
Y8350D01*
X13654Y8450D02*
X13254D01*
X12755Y8750D02*
X12954D01*
X13054Y8650D01*
Y8450D01*
X12954Y8350D01*
X12755D01*
X12655Y8450D01*
Y8550D01*
X13054D01*
X12455Y8750D02*
X12255D01*
X12355D01*
Y8150D01*
X12455D01*
X11655Y8750D02*
X11855D01*
X11955Y8650D01*
Y8450D01*
X11855Y8350D01*
X11655D01*
X11555Y8450D01*
Y8550D01*
X11955D01*
X10955Y8350D02*
X11255D01*
X11355Y8450D01*
Y8650D01*
X11255Y8750D01*
X10955D01*
X10655Y8250D02*
Y8350D01*
X10755D01*
X10555D01*
X10655D01*
Y8650D01*
X10555Y8750D01*
X10255Y8350D02*
Y8750D01*
Y8550D01*
X10155Y8450D01*
X10055Y8350D01*
X9955D01*
X9556Y8750D02*
X9356D01*
X9256Y8650D01*
Y8450D01*
X9356Y8350D01*
X9556D01*
X9656Y8450D01*
Y8650D01*
X9556Y8750D01*
X9056D02*
Y8350D01*
X8756D01*
X8656Y8450D01*
Y8750D01*
X8456D02*
X8256D01*
X8356D01*
Y8350D01*
X8456D01*
X7556D02*
X7856D01*
X7956Y8450D01*
Y8650D01*
X7856Y8750D01*
X7556D01*
X7356D02*
X7056D01*
X6956Y8650D01*
X7056Y8550D01*
X7256D01*
X7356Y8450D01*
X7256Y8350D01*
X6956D01*
X22250Y-41000D02*
Y-40400D01*
X22550D01*
X22650Y-40500D01*
Y-40700D01*
X22550Y-40800D01*
X22250D01*
X22850Y-40400D02*
Y-41000D01*
X23050Y-40800D01*
X23250Y-41000D01*
Y-40400D01*
X23450Y-41000D02*
Y-40400D01*
X23750D01*
X23849Y-40500D01*
Y-40700D01*
X23750Y-40800D01*
X23450D01*
X23650D02*
X23849Y-41000D01*
X550Y-44650D02*
X350D01*
X250Y-44750D01*
Y-45150D01*
X350Y-45250D01*
X550D01*
X650Y-45150D01*
Y-44750D01*
X550Y-44650D01*
X850Y-44850D02*
Y-45150D01*
X950Y-45250D01*
X1250D01*
Y-44850D01*
X1550Y-44750D02*
Y-44850D01*
X1450D01*
X1650D01*
X1550D01*
Y-45150D01*
X1650Y-45250D01*
X1949Y-44950D02*
X2349D01*
X2549Y-45250D02*
Y-44650D01*
X2849D01*
X2949Y-44750D01*
Y-44950D01*
X2849Y-45050D01*
X2549D01*
X2749D02*
X2949Y-45250D01*
X-7450Y-44650D02*
X-7650D01*
X-7750Y-44750D01*
Y-45150D01*
X-7650Y-45250D01*
X-7450D01*
X-7350Y-45150D01*
Y-44750D01*
X-7450Y-44650D01*
X-7150Y-44850D02*
Y-45150D01*
X-7050Y-45250D01*
X-6750D01*
Y-44850D01*
X-6450Y-44750D02*
Y-44850D01*
X-6550D01*
X-6350D01*
X-6450D01*
Y-45150D01*
X-6350Y-45250D01*
X-6051Y-44950D02*
X-5651D01*
X-5451Y-44650D02*
Y-45250D01*
X-5051D01*
X-17750Y-41900D02*
X-17550D01*
X-17650D01*
Y-42500D01*
X-17750D01*
X-17550D01*
X-17250D02*
Y-42100D01*
X-16950D01*
X-16850Y-42200D01*
Y-42500D01*
X-16650Y-42200D02*
X-16250D01*
X-16051Y-42500D02*
Y-41900D01*
X-15751D01*
X-15651Y-42000D01*
Y-42200D01*
X-15751Y-42300D01*
X-16051D01*
X-15851D02*
X-15651Y-42500D01*
X-25750Y-41900D02*
X-25550D01*
X-25650D01*
Y-42500D01*
X-25750D01*
X-25550D01*
X-25250D02*
Y-42100D01*
X-24950D01*
X-24850Y-42200D01*
Y-42500D01*
X-24650Y-42200D02*
X-24250D01*
X-24051Y-41900D02*
Y-42500D01*
X-23651D01*
D16*
X-3000Y-25000D02*
D03*
X3000D02*
D03*
X28750Y-45250D02*
D03*
Y13000D02*
D03*
X-28750D02*
D03*
D17*
Y-45250D02*
D03*
D18*
X9626Y-26000D02*
D03*
X25374D02*
D03*
X21561Y-37689D02*
D03*
X19439Y-39811D02*
D03*
X21500Y-21000D02*
D03*
X19500D02*
D03*
X17500D02*
D03*
X15500D02*
D03*
X13500D02*
D03*
X15500Y-31000D02*
D03*
X17500D02*
D03*
X19500D02*
D03*
X19000Y-36500D02*
D03*
X16000D02*
D03*
X10000Y-44000D02*
D03*
Y-41000D02*
D03*
D19*
X17000Y-42031D02*
D03*
Y-43016D02*
D03*
Y-44000D02*
D03*
D20*
Y-45968D02*
D03*
X22421Y-20587D02*
D03*
X20453D02*
D03*
X14547D02*
D03*
X12579D02*
D03*
Y-31413D02*
D03*
X22421D02*
D03*
D21*
X13500Y-31000D02*
D03*
X21500D02*
D03*
D22*
X26000Y-9500D02*
D03*
X27500Y-13500D02*
D03*
X20000D02*
D03*
X13500D02*
D03*
X15000Y-9500D02*
D03*
X7500D02*
D03*
X21500D02*
D03*
X9000Y-13500D02*
D03*
X-492Y13500D02*
D03*
D23*
X26000Y-13500D02*
D03*
X27500Y-9500D02*
D03*
X20000D02*
D03*
X13500D02*
D03*
X15000Y-13500D02*
D03*
X7500D02*
D03*
X21500D02*
D03*
X9000Y-9500D02*
D03*
D24*
X492Y13500D02*
D03*
D25*
X-14500Y-8000D02*
D03*
X-27500D02*
D03*
X23000Y-9500D02*
D03*
Y-13500D02*
D03*
X-25500Y-4750D02*
D03*
X-16500D02*
D03*
X24500Y-9500D02*
D03*
Y-13500D02*
D03*
X1000Y11500D02*
D03*
Y7500D02*
D03*
X18500Y-9500D02*
D03*
Y-13500D02*
D03*
X6000D02*
D03*
Y-9500D02*
D03*
X12000D02*
D03*
Y-13500D02*
D03*
X10500Y-9500D02*
D03*
Y-13500D02*
D03*
X-1000Y7500D02*
D03*
Y11500D02*
D03*
X16500Y-13500D02*
D03*
Y-9500D02*
D03*
X29000D02*
D03*
Y-13500D02*
D03*
X12500Y-44500D02*
D03*
Y-40500D02*
D03*
X-27500Y-41000D02*
D03*
X-23500D02*
D03*
X-27500Y-39750D02*
D03*
X-23500D02*
D03*
X-27500Y-38500D02*
D03*
X-23500D02*
D03*
X-27500Y-37250D02*
D03*
X-23500D02*
D03*
X-27500Y-36000D02*
D03*
X-23500D02*
D03*
X-21750Y-33500D02*
D03*
Y-29500D02*
D03*
X-20250Y-33500D02*
D03*
Y-29500D02*
D03*
X-23500Y-34750D02*
D03*
X-27500D02*
D03*
X-26250Y-29500D02*
D03*
Y-33500D02*
D03*
X-27500D02*
D03*
Y-29500D02*
D03*
Y-26500D02*
D03*
X-23500D02*
D03*
X-27500Y-25250D02*
D03*
X-23500D02*
D03*
Y-24000D02*
D03*
X-27500D02*
D03*
X-23500Y-22750D02*
D03*
X-27500D02*
D03*
X-20250Y-20250D02*
D03*
Y-16250D02*
D03*
X-21750Y-20250D02*
D03*
Y-16250D02*
D03*
X-26250Y-17500D02*
D03*
Y-21500D02*
D03*
X-27500Y-14500D02*
D03*
X-23500D02*
D03*
Y-9500D02*
D03*
X-27500D02*
D03*
X-23500Y-10750D02*
D03*
X-27500D02*
D03*
Y-12000D02*
D03*
X-23500D02*
D03*
X-27500Y-13250D02*
D03*
X-23500D02*
D03*
X-14500Y-41000D02*
D03*
X-18500D02*
D03*
X-14500Y-39750D02*
D03*
X-18500D02*
D03*
X-14500Y-36000D02*
D03*
X-18500D02*
D03*
X-14500Y-38500D02*
D03*
X-18500D02*
D03*
X-14500Y-37250D02*
D03*
X-18500D02*
D03*
Y-34750D02*
D03*
X-14500D02*
D03*
X-15750Y-29500D02*
D03*
Y-33500D02*
D03*
X-14500D02*
D03*
Y-29500D02*
D03*
Y-26500D02*
D03*
X-18500D02*
D03*
X-14500Y-25250D02*
D03*
X-18500D02*
D03*
Y-24000D02*
D03*
X-14500D02*
D03*
X-18500Y-22750D02*
D03*
X-14500D02*
D03*
X-15750Y-17500D02*
D03*
Y-21500D02*
D03*
X-14500Y-13250D02*
D03*
X-18500D02*
D03*
X-14500Y-14500D02*
D03*
X-18500D02*
D03*
Y-10750D02*
D03*
X-14500D02*
D03*
Y-12000D02*
D03*
X-18500D02*
D03*
Y-9500D02*
D03*
X-14500D02*
D03*
X-21500Y-4750D02*
D03*
X-20500D02*
D03*
X-21000Y-45000D02*
D03*
D26*
X-23250Y-7250D02*
D03*
X-16500Y1500D02*
D03*
X-25500Y-500D02*
D03*
X11250D02*
D03*
X23750Y1500D02*
D03*
X-17250Y-32500D02*
D03*
X-23250D02*
D03*
Y-20500D02*
D03*
X-17250Y-7250D02*
D03*
Y-20500D02*
D03*
D27*
X-24750Y-7250D02*
D03*
X-18750Y-32500D02*
D03*
X-24750D02*
D03*
Y-20500D02*
D03*
X-18750Y-7250D02*
D03*
Y-20500D02*
D03*
D28*
X-16500Y-500D02*
D03*
X-25500Y1500D02*
D03*
X11250D02*
D03*
X23750Y-500D02*
D03*
D29*
X18500Y-8500D02*
D03*
X23000D02*
D03*
X18500Y-6500D02*
D03*
X23000D02*
D03*
X29000Y-8500D02*
D03*
Y-6500D02*
D03*
X21500D02*
D03*
X24500Y-8500D02*
D03*
Y-6500D02*
D03*
X16500Y-8500D02*
D03*
Y-6500D02*
D03*
X6000D02*
D03*
Y-8500D02*
D03*
X12000D02*
D03*
Y-6500D02*
D03*
X10500Y-8500D02*
D03*
Y-6500D02*
D03*
X26000D02*
D03*
Y-8500D02*
D03*
X21500D02*
D03*
X27500D02*
D03*
Y-6500D02*
D03*
X20000Y-8500D02*
D03*
Y-6500D02*
D03*
X7500D02*
D03*
Y-8500D02*
D03*
X13500D02*
D03*
Y-6500D02*
D03*
X9000Y-8500D02*
D03*
Y-6500D02*
D03*
X15000D02*
D03*
Y-8500D02*
D03*
X12250Y-15750D02*
D03*
X10250D02*
D03*
X24750D02*
D03*
X22750D02*
D03*
X-22000Y-40250D02*
D03*
X-20000D02*
D03*
Y-41250D02*
D03*
X-22000D02*
D03*
Y-34750D02*
D03*
X-20000D02*
D03*
X-22000Y-27000D02*
D03*
X-20000D02*
D03*
X-24000Y-30000D02*
D03*
Y-28000D02*
D03*
X-20000D02*
D03*
X-22000D02*
D03*
Y-21500D02*
D03*
X-20000D02*
D03*
Y-14750D02*
D03*
X-22000D02*
D03*
Y-13750D02*
D03*
X-20000D02*
D03*
X-24000Y-18000D02*
D03*
Y-16000D02*
D03*
X-27500Y-20500D02*
D03*
Y-18500D02*
D03*
X-22000Y-8250D02*
D03*
X-20000D02*
D03*
X-18000Y-30000D02*
D03*
Y-28000D02*
D03*
Y-18000D02*
D03*
Y-16000D02*
D03*
X-14500Y-20500D02*
D03*
Y-18500D02*
D03*
D30*
X23750Y-1500D02*
D03*
X-25500Y2500D02*
D03*
X-16500Y-1500D02*
D03*
X11250Y2500D02*
D03*
D31*
X23750D02*
D03*
X-25500Y-1500D02*
D03*
X-16500Y2500D02*
D03*
X11250Y-1500D02*
D03*
D32*
X25000Y-43500D02*
D03*
X23000D02*
D03*
D33*
X21000D02*
D03*
D34*
X-1000Y-44970D02*
D03*
X1067Y-43494D02*
D03*
X-3067D02*
D03*
X-17000Y-44970D02*
D03*
X-14933Y-43494D02*
D03*
X-19067D02*
D03*
X-9000Y-44970D02*
D03*
X-6933Y-43494D02*
D03*
X-11067D02*
D03*
X-27067D02*
D03*
X-22933D02*
D03*
X-25000Y-44970D02*
D03*
D35*
X-19500Y-39000D02*
D03*
Y-38000D02*
D03*
Y-37000D02*
D03*
Y-36000D02*
D03*
X-22500Y-37000D02*
D03*
Y-38000D02*
D03*
Y-39000D02*
D03*
X-19500Y-25750D02*
D03*
Y-24750D02*
D03*
Y-23750D02*
D03*
Y-22750D02*
D03*
X-22500Y-23750D02*
D03*
Y-24750D02*
D03*
Y-25750D02*
D03*
X-19500Y-12500D02*
D03*
Y-11500D02*
D03*
Y-10500D02*
D03*
Y-9500D02*
D03*
X-22500Y-10500D02*
D03*
Y-11500D02*
D03*
Y-12500D02*
D03*
D36*
Y-36000D02*
D03*
Y-22750D02*
D03*
Y-9500D02*
D03*
D37*
X1969Y2559D02*
D03*
X-1969D02*
D03*
X1969Y-2559D02*
D03*
X-1969D02*
D03*
D38*
X5000Y-46000D02*
D03*
D39*
X30750Y-45500D02*
D03*
Y-40500D02*
D03*
Y-35500D02*
D03*
Y-30500D02*
D03*
Y-25500D02*
D03*
Y-20500D02*
D03*
Y-15500D02*
D03*
Y-10500D02*
D03*
Y-5500D02*
D03*
Y-500D02*
D03*
Y4500D02*
D03*
Y9500D02*
D03*
Y14500D02*
D03*
X-30750Y-45500D02*
D03*
Y-40500D02*
D03*
Y-35500D02*
D03*
Y-30500D02*
D03*
Y-25500D02*
D03*
Y-20500D02*
D03*
Y-15500D02*
D03*
Y-10500D02*
D03*
Y-5500D02*
D03*
Y-500D02*
D03*
Y4500D02*
D03*
Y9500D02*
D03*
Y14500D02*
D03*
D40*
X-12500Y-7000D02*
D03*
X11550Y500D02*
D03*
X10000Y-500D02*
D03*
M02*
