%FSLAX24Y24*%
%MOIN*%
G70*
G01*
G75*
G04 Layer_Physical_Order=2*
G04 Layer_Color=16711680*
%ADD10R,0.1181X0.2165*%
%ADD11C,0.0300*%
%ADD12C,0.0400*%
%ADD13C,0.0500*%
%ADD14C,0.2000*%
%ADD15C,0.0100*%
%ADD16C,0.2362*%
%ADD17C,0.2362*%
%ADD18C,0.0787*%
%ADD19O,0.0984X0.0591*%
%ADD20C,0.0984*%
%ADD21C,0.0787*%
%ADD22C,0.0669*%
%ADD23R,0.0669X0.0669*%
%ADD24R,0.0669X0.0669*%
%ADD25C,0.0748*%
%ADD26C,0.0591*%
%ADD27R,0.0591X0.0591*%
%ADD28R,0.0591X0.0591*%
%ADD29C,0.0630*%
%ADD30R,0.1181X0.1181*%
%ADD31C,0.1181*%
%ADD32C,0.1181*%
%ADD33R,0.1181X0.1181*%
%ADD34C,0.1772*%
%ADD35C,0.0630*%
%ADD36R,0.0630X0.0630*%
%ADD37C,0.0748*%
%ADD38C,0.0512*%
%ADD39C,0.0500*%
%ADD40C,0.0591*%
%ADD41C,0.0700*%
%ADD42C,0.0800*%
%ADD43C,0.0600*%
G36*
X31500Y-47500D02*
X30153D01*
X30141Y-47441D01*
X30108Y-47392D01*
X30059Y-47359D01*
X30000Y-47347D01*
Y-46653D01*
X30059Y-46641D01*
X30108Y-46608D01*
X30141Y-46559D01*
X30153Y-46500D01*
Y15250D01*
X31500D01*
Y-47500D01*
D02*
G37*
G36*
X-30153Y-46500D02*
X-30141Y-46559D01*
X-30108Y-46608D01*
X-30059Y-46641D01*
X-30000Y-46653D01*
Y-47347D01*
X-30059Y-47359D01*
X-30108Y-47392D01*
X-30141Y-47441D01*
X-30153Y-47500D01*
X-31500D01*
Y15250D01*
X-30153D01*
Y-46500D01*
D02*
G37*
G36*
X29847Y13754D02*
X29799Y13740D01*
X29790Y13755D01*
X29659Y13909D01*
X29505Y14040D01*
X29333Y14145D01*
X29147Y14222D01*
X28951Y14269D01*
X28750Y14285D01*
X28549Y14269D01*
X28353Y14222D01*
X28167Y14145D01*
X27995Y14040D01*
X27841Y13909D01*
X27710Y13755D01*
X27605Y13583D01*
X27528Y13397D01*
X27481Y13201D01*
X27465Y13000D01*
X27481Y12799D01*
X27528Y12603D01*
X27605Y12417D01*
X27710Y12245D01*
X27841Y12091D01*
X27995Y11960D01*
X28167Y11855D01*
X28353Y11778D01*
X28549Y11731D01*
X28750Y11715D01*
X28951Y11731D01*
X29147Y11778D01*
X29333Y11855D01*
X29505Y11960D01*
X29659Y12091D01*
X29790Y12245D01*
X29799Y12260D01*
X29847Y12246D01*
Y-15750D01*
X25169D01*
X25154Y-15642D01*
X25112Y-15541D01*
X25046Y-15454D01*
X24959Y-15388D01*
X24858Y-15346D01*
X24750Y-15331D01*
X24642Y-15346D01*
X24541Y-15388D01*
X24454Y-15454D01*
X24388Y-15541D01*
X24346Y-15642D01*
X24331Y-15750D01*
X23169D01*
X23154Y-15642D01*
X23112Y-15541D01*
X23046Y-15454D01*
X22959Y-15388D01*
X22858Y-15346D01*
X22750Y-15331D01*
X22642Y-15346D01*
X22541Y-15388D01*
X22454Y-15454D01*
X22388Y-15541D01*
X22346Y-15642D01*
X22331Y-15750D01*
X12669D01*
X12654Y-15642D01*
X12612Y-15541D01*
X12546Y-15454D01*
X12459Y-15388D01*
X12358Y-15346D01*
X12250Y-15331D01*
X12142Y-15346D01*
X12041Y-15388D01*
X11954Y-15454D01*
X11888Y-15541D01*
X11846Y-15642D01*
X11831Y-15750D01*
X10669D01*
X10654Y-15642D01*
X10612Y-15541D01*
X10546Y-15454D01*
X10459Y-15388D01*
X10358Y-15346D01*
X10250Y-15331D01*
X10142Y-15346D01*
X10041Y-15388D01*
X9954Y-15454D01*
X9888Y-15541D01*
X9846Y-15642D01*
X9831Y-15750D01*
X9000D01*
X6500Y-18250D01*
Y-46500D01*
X5454D01*
Y-46000D01*
X5438Y-45883D01*
X5393Y-45773D01*
X5321Y-45679D01*
X5227Y-45607D01*
X5117Y-45562D01*
X5000Y-45546D01*
X4883Y-45562D01*
X4773Y-45607D01*
X4679Y-45679D01*
X4607Y-45773D01*
X4562Y-45883D01*
X4546Y-46000D01*
Y-46500D01*
X-28292D01*
X-28302Y-46451D01*
X-28167Y-46395D01*
X-27995Y-46290D01*
X-27841Y-46159D01*
X-27710Y-46005D01*
X-27605Y-45833D01*
X-27528Y-45647D01*
X-27481Y-45451D01*
X-27465Y-45250D01*
X-27481Y-45049D01*
X-27528Y-44853D01*
X-27605Y-44667D01*
X-27710Y-44495D01*
X-27841Y-44341D01*
X-27995Y-44210D01*
X-28167Y-44105D01*
X-28353Y-44028D01*
X-28549Y-43981D01*
X-28750Y-43965D01*
X-28951Y-43981D01*
X-29147Y-44028D01*
X-29333Y-44105D01*
X-29505Y-44210D01*
X-29659Y-44341D01*
X-29790Y-44495D01*
X-29799Y-44510D01*
X-29847Y-44496D01*
Y12246D01*
X-29799Y12260D01*
X-29790Y12245D01*
X-29659Y12091D01*
X-29505Y11960D01*
X-29333Y11855D01*
X-29147Y11778D01*
X-28951Y11731D01*
X-28750Y11715D01*
X-28549Y11731D01*
X-28353Y11778D01*
X-28167Y11855D01*
X-27995Y11960D01*
X-27841Y12091D01*
X-27710Y12245D01*
X-27605Y12417D01*
X-27528Y12603D01*
X-27481Y12799D01*
X-27465Y13000D01*
X-27481Y13201D01*
X-27528Y13397D01*
X-27605Y13583D01*
X-27710Y13755D01*
X-27841Y13909D01*
X-27995Y14040D01*
X-28167Y14145D01*
X-28353Y14222D01*
X-28549Y14269D01*
X-28750Y14285D01*
X-28951Y14269D01*
X-29147Y14222D01*
X-29333Y14145D01*
X-29505Y14040D01*
X-29659Y13909D01*
X-29790Y13755D01*
X-29799Y13740D01*
X-29847Y13754D01*
Y15097D01*
X29847D01*
Y13754D01*
D02*
G37*
%LPC*%
G36*
X-14028Y-26550D02*
X-14450D01*
Y-26972D01*
X-14376Y-26962D01*
X-14261Y-26914D01*
X-14162Y-26838D01*
X-14086Y-26739D01*
X-14038Y-26624D01*
X-14028Y-26550D01*
D02*
G37*
G36*
X-14550D02*
X-14972D01*
X-14962Y-26624D01*
X-14914Y-26739D01*
X-14838Y-26838D01*
X-14739Y-26914D01*
X-14624Y-26962D01*
X-14550Y-26972D01*
Y-26550D01*
D02*
G37*
G36*
X-27028D02*
X-27450D01*
Y-26972D01*
X-27376Y-26962D01*
X-27261Y-26914D01*
X-27162Y-26838D01*
X-27086Y-26739D01*
X-27038Y-26624D01*
X-27028Y-26550D01*
D02*
G37*
G36*
X-14550Y-26028D02*
X-14624Y-26038D01*
X-14739Y-26086D01*
X-14838Y-26162D01*
X-14914Y-26261D01*
X-14962Y-26376D01*
X-14972Y-26450D01*
X-14550D01*
Y-26028D01*
D02*
G37*
G36*
X-27450D02*
Y-26450D01*
X-27028D01*
X-27038Y-26376D01*
X-27086Y-26261D01*
X-27162Y-26162D01*
X-27261Y-26086D01*
X-27376Y-26038D01*
X-27450Y-26028D01*
D02*
G37*
G36*
X-27550D02*
X-27624Y-26038D01*
X-27739Y-26086D01*
X-27838Y-26162D01*
X-27914Y-26261D01*
X-27962Y-26376D01*
X-27972Y-26450D01*
X-27550D01*
Y-26028D01*
D02*
G37*
G36*
X-17950Y-27588D02*
Y-27950D01*
X-17588D01*
X-17596Y-27892D01*
X-17638Y-27791D01*
X-17704Y-27704D01*
X-17791Y-27638D01*
X-17892Y-27596D01*
X-17950Y-27588D01*
D02*
G37*
G36*
X-18050D02*
X-18108Y-27596D01*
X-18209Y-27638D01*
X-18296Y-27704D01*
X-18362Y-27791D01*
X-18404Y-27892D01*
X-18412Y-27950D01*
X-18050D01*
Y-27588D01*
D02*
G37*
G36*
X-19950D02*
Y-27950D01*
X-19588D01*
X-19596Y-27892D01*
X-19638Y-27791D01*
X-19704Y-27704D01*
X-19791Y-27638D01*
X-19892Y-27596D01*
X-19950Y-27588D01*
D02*
G37*
G36*
X-27550Y-26550D02*
X-27972D01*
X-27962Y-26624D01*
X-27914Y-26739D01*
X-27838Y-26838D01*
X-27739Y-26914D01*
X-27624Y-26962D01*
X-27550Y-26972D01*
Y-26550D01*
D02*
G37*
G36*
X-18500Y-26022D02*
X-18624Y-26038D01*
X-18739Y-26086D01*
X-18838Y-26162D01*
X-18914Y-26261D01*
X-18962Y-26376D01*
X-18978Y-26500D01*
X-18962Y-26624D01*
X-18914Y-26739D01*
X-18838Y-26838D01*
X-18739Y-26914D01*
X-18624Y-26962D01*
X-18500Y-26978D01*
X-18376Y-26962D01*
X-18261Y-26914D01*
X-18162Y-26838D01*
X-18086Y-26739D01*
X-18038Y-26624D01*
X-18022Y-26500D01*
X-18038Y-26376D01*
X-18086Y-26261D01*
X-18162Y-26162D01*
X-18261Y-26086D01*
X-18376Y-26038D01*
X-18500Y-26022D01*
D02*
G37*
G36*
X-20000Y-26581D02*
X-20108Y-26596D01*
X-20209Y-26638D01*
X-20296Y-26704D01*
X-20362Y-26791D01*
X-20404Y-26892D01*
X-20419Y-27000D01*
X-20404Y-27108D01*
X-20362Y-27209D01*
X-20296Y-27296D01*
X-20209Y-27362D01*
X-20108Y-27404D01*
X-20000Y-27419D01*
X-19892Y-27404D01*
X-19791Y-27362D01*
X-19704Y-27296D01*
X-19638Y-27209D01*
X-19596Y-27108D01*
X-19581Y-27000D01*
X-19596Y-26892D01*
X-19638Y-26791D01*
X-19704Y-26704D01*
X-19791Y-26638D01*
X-19892Y-26596D01*
X-20000Y-26581D01*
D02*
G37*
G36*
X-27028Y-25300D02*
X-27450D01*
Y-25722D01*
X-27376Y-25712D01*
X-27261Y-25664D01*
X-27162Y-25588D01*
X-27086Y-25489D01*
X-27038Y-25374D01*
X-27028Y-25300D01*
D02*
G37*
G36*
X-27550D02*
X-27972D01*
X-27962Y-25374D01*
X-27914Y-25489D01*
X-27838Y-25588D01*
X-27739Y-25664D01*
X-27624Y-25712D01*
X-27550Y-25722D01*
Y-25300D01*
D02*
G37*
G36*
X-18500Y-24772D02*
X-18624Y-24788D01*
X-18739Y-24836D01*
X-18838Y-24912D01*
X-18914Y-25011D01*
X-18962Y-25126D01*
X-18978Y-25250D01*
X-18962Y-25374D01*
X-18914Y-25489D01*
X-18838Y-25588D01*
X-18739Y-25664D01*
X-18624Y-25712D01*
X-18500Y-25728D01*
X-18376Y-25712D01*
X-18261Y-25664D01*
X-18162Y-25588D01*
X-18086Y-25489D01*
X-18038Y-25374D01*
X-18022Y-25250D01*
X-18038Y-25126D01*
X-18086Y-25011D01*
X-18162Y-24912D01*
X-18261Y-24836D01*
X-18376Y-24788D01*
X-18500Y-24772D01*
D02*
G37*
G36*
X-27550Y-24778D02*
X-27624Y-24788D01*
X-27739Y-24836D01*
X-27838Y-24912D01*
X-27914Y-25011D01*
X-27962Y-25126D01*
X-27972Y-25200D01*
X-27550D01*
Y-24778D01*
D02*
G37*
G36*
X-14028Y-25300D02*
X-14450D01*
Y-25722D01*
X-14376Y-25712D01*
X-14261Y-25664D01*
X-14162Y-25588D01*
X-14086Y-25489D01*
X-14038Y-25374D01*
X-14028Y-25300D01*
D02*
G37*
G36*
X-14550D02*
X-14972D01*
X-14962Y-25374D01*
X-14914Y-25489D01*
X-14838Y-25588D01*
X-14739Y-25664D01*
X-14624Y-25712D01*
X-14550Y-25722D01*
Y-25300D01*
D02*
G37*
G36*
X3000Y-23715D02*
X2799Y-23731D01*
X2603Y-23778D01*
X2417Y-23855D01*
X2245Y-23960D01*
X2091Y-24091D01*
X1960Y-24245D01*
X1855Y-24417D01*
X1778Y-24603D01*
X1731Y-24799D01*
X1715Y-25000D01*
X1731Y-25201D01*
X1778Y-25397D01*
X1855Y-25583D01*
X1960Y-25755D01*
X2091Y-25909D01*
X2245Y-26040D01*
X2417Y-26145D01*
X2603Y-26222D01*
X2799Y-26269D01*
X3000Y-26285D01*
X3201Y-26269D01*
X3397Y-26222D01*
X3583Y-26145D01*
X3755Y-26040D01*
X3909Y-25909D01*
X4040Y-25755D01*
X4145Y-25583D01*
X4222Y-25397D01*
X4269Y-25201D01*
X4285Y-25000D01*
X4269Y-24799D01*
X4222Y-24603D01*
X4145Y-24417D01*
X4040Y-24245D01*
X3909Y-24091D01*
X3755Y-23960D01*
X3583Y-23855D01*
X3397Y-23778D01*
X3201Y-23731D01*
X3000Y-23715D01*
D02*
G37*
G36*
X-3000D02*
X-3201Y-23731D01*
X-3397Y-23778D01*
X-3583Y-23855D01*
X-3755Y-23960D01*
X-3909Y-24091D01*
X-4040Y-24245D01*
X-4145Y-24417D01*
X-4222Y-24603D01*
X-4269Y-24799D01*
X-4285Y-25000D01*
X-4269Y-25201D01*
X-4222Y-25397D01*
X-4145Y-25583D01*
X-4040Y-25755D01*
X-3909Y-25909D01*
X-3755Y-26040D01*
X-3583Y-26145D01*
X-3397Y-26222D01*
X-3201Y-26269D01*
X-3000Y-26285D01*
X-2799Y-26269D01*
X-2603Y-26222D01*
X-2417Y-26145D01*
X-2245Y-26040D01*
X-2091Y-25909D01*
X-1960Y-25755D01*
X-1855Y-25583D01*
X-1778Y-25397D01*
X-1731Y-25201D01*
X-1715Y-25000D01*
X-1731Y-24799D01*
X-1778Y-24603D01*
X-1855Y-24417D01*
X-1960Y-24245D01*
X-2091Y-24091D01*
X-2245Y-23960D01*
X-2417Y-23855D01*
X-2603Y-23778D01*
X-2799Y-23731D01*
X-3000Y-23715D01*
D02*
G37*
G36*
X-14450Y-26028D02*
Y-26450D01*
X-14028D01*
X-14038Y-26376D01*
X-14086Y-26261D01*
X-14162Y-26162D01*
X-14261Y-26086D01*
X-14376Y-26038D01*
X-14450Y-26028D01*
D02*
G37*
G36*
X-23500Y-24772D02*
X-23624Y-24788D01*
X-23739Y-24836D01*
X-23838Y-24912D01*
X-23914Y-25011D01*
X-23962Y-25126D01*
X-23978Y-25250D01*
X-23962Y-25374D01*
X-23914Y-25489D01*
X-23838Y-25588D01*
X-23739Y-25664D01*
X-23624Y-25712D01*
X-23500Y-25728D01*
X-23376Y-25712D01*
X-23261Y-25664D01*
X-23162Y-25588D01*
X-23086Y-25489D01*
X-23038Y-25374D01*
X-23022Y-25250D01*
X-23038Y-25126D01*
X-23086Y-25011D01*
X-23162Y-24912D01*
X-23261Y-24836D01*
X-23376Y-24788D01*
X-23500Y-24772D01*
D02*
G37*
G36*
X-22500Y-24331D02*
X-22608Y-24346D01*
X-22709Y-24388D01*
X-22796Y-24454D01*
X-22862Y-24541D01*
X-22904Y-24642D01*
X-22919Y-24750D01*
X-22904Y-24858D01*
X-22862Y-24959D01*
X-22796Y-25046D01*
X-22709Y-25112D01*
X-22608Y-25154D01*
X-22500Y-25169D01*
X-22392Y-25154D01*
X-22291Y-25112D01*
X-22204Y-25046D01*
X-22173Y-25005D01*
X-22106D01*
X-22005Y-25106D01*
Y-25794D01*
X-22045Y-25834D01*
X-22090Y-25812D01*
X-22081Y-25750D01*
X-22096Y-25642D01*
X-22138Y-25541D01*
X-22204Y-25454D01*
X-22291Y-25388D01*
X-22392Y-25346D01*
X-22500Y-25331D01*
X-22608Y-25346D01*
X-22709Y-25388D01*
X-22796Y-25454D01*
X-22862Y-25541D01*
X-22904Y-25642D01*
X-22919Y-25750D01*
X-22904Y-25858D01*
X-22862Y-25959D01*
X-22796Y-26046D01*
X-22709Y-26112D01*
X-22608Y-26154D01*
X-22500Y-26169D01*
X-22438Y-26160D01*
X-22416Y-26205D01*
X-22456Y-26245D01*
X-23098D01*
X-23162Y-26162D01*
X-23261Y-26086D01*
X-23376Y-26038D01*
X-23500Y-26022D01*
X-23624Y-26038D01*
X-23739Y-26086D01*
X-23838Y-26162D01*
X-23914Y-26261D01*
X-23962Y-26376D01*
X-23978Y-26500D01*
X-23962Y-26624D01*
X-23914Y-26739D01*
X-23838Y-26838D01*
X-23739Y-26914D01*
X-23624Y-26962D01*
X-23500Y-26978D01*
X-23376Y-26962D01*
X-23261Y-26914D01*
X-23162Y-26838D01*
X-23098Y-26755D01*
X-22409D01*
X-22375Y-26781D01*
X-22365Y-26796D01*
X-22404Y-26892D01*
X-22419Y-27000D01*
X-22404Y-27108D01*
X-22362Y-27209D01*
X-22296Y-27296D01*
X-22209Y-27362D01*
X-22108Y-27404D01*
X-22000Y-27419D01*
X-21892Y-27404D01*
X-21791Y-27362D01*
X-21704Y-27296D01*
X-21638Y-27209D01*
X-21596Y-27108D01*
X-21581Y-27000D01*
X-21596Y-26892D01*
X-21638Y-26791D01*
X-21704Y-26704D01*
X-21791Y-26638D01*
X-21892Y-26596D01*
X-22000Y-26581D01*
X-22005Y-26582D01*
X-22027Y-26537D01*
X-21570Y-26080D01*
X-21514Y-25998D01*
X-21495Y-25900D01*
Y-25000D01*
X-21514Y-24902D01*
X-21570Y-24820D01*
X-21820Y-24570D01*
X-21902Y-24515D01*
X-22000Y-24495D01*
X-22173D01*
X-22204Y-24454D01*
X-22291Y-24388D01*
X-22392Y-24346D01*
X-22500Y-24331D01*
D02*
G37*
G36*
X-19500Y-25331D02*
X-19608Y-25346D01*
X-19709Y-25388D01*
X-19796Y-25454D01*
X-19862Y-25541D01*
X-19904Y-25642D01*
X-19919Y-25750D01*
X-19904Y-25858D01*
X-19862Y-25959D01*
X-19796Y-26046D01*
X-19709Y-26112D01*
X-19608Y-26154D01*
X-19500Y-26169D01*
X-19392Y-26154D01*
X-19291Y-26112D01*
X-19204Y-26046D01*
X-19138Y-25959D01*
X-19096Y-25858D01*
X-19081Y-25750D01*
X-19096Y-25642D01*
X-19138Y-25541D01*
X-19204Y-25454D01*
X-19291Y-25388D01*
X-19392Y-25346D01*
X-19500Y-25331D01*
D02*
G37*
G36*
X-20050Y-27588D02*
X-20108Y-27596D01*
X-20209Y-27638D01*
X-20296Y-27704D01*
X-20362Y-27791D01*
X-20404Y-27892D01*
X-20412Y-27950D01*
X-20050D01*
Y-27588D01*
D02*
G37*
G36*
X-18000Y-29581D02*
X-18108Y-29596D01*
X-18209Y-29638D01*
X-18296Y-29704D01*
X-18362Y-29791D01*
X-18404Y-29892D01*
X-18419Y-30000D01*
X-18404Y-30108D01*
X-18362Y-30209D01*
X-18296Y-30296D01*
X-18209Y-30362D01*
X-18108Y-30404D01*
X-18000Y-30419D01*
X-17892Y-30404D01*
X-17791Y-30362D01*
X-17704Y-30296D01*
X-17638Y-30209D01*
X-17596Y-30108D01*
X-17581Y-30000D01*
X-17596Y-29892D01*
X-17638Y-29791D01*
X-17704Y-29704D01*
X-17791Y-29638D01*
X-17892Y-29596D01*
X-18000Y-29581D01*
D02*
G37*
G36*
X-24000D02*
X-24108Y-29596D01*
X-24209Y-29638D01*
X-24296Y-29704D01*
X-24362Y-29791D01*
X-24404Y-29892D01*
X-24419Y-30000D01*
X-24404Y-30108D01*
X-24362Y-30209D01*
X-24296Y-30296D01*
X-24209Y-30362D01*
X-24108Y-30404D01*
X-24000Y-30419D01*
X-23892Y-30404D01*
X-23791Y-30362D01*
X-23704Y-30296D01*
X-23638Y-30209D01*
X-23596Y-30108D01*
X-23581Y-30000D01*
X-23596Y-29892D01*
X-23638Y-29791D01*
X-23704Y-29704D01*
X-23791Y-29638D01*
X-23892Y-29596D01*
X-24000Y-29581D01*
D02*
G37*
G36*
X-17200Y-32108D02*
Y-32450D01*
X-16858D01*
X-16865Y-32397D01*
X-16905Y-32301D01*
X-16968Y-32218D01*
X-17051Y-32155D01*
X-17147Y-32115D01*
X-17200Y-32108D01*
D02*
G37*
G36*
X-21750Y-29022D02*
X-21874Y-29038D01*
X-21989Y-29086D01*
X-22088Y-29162D01*
X-22164Y-29261D01*
X-22212Y-29376D01*
X-22228Y-29500D01*
X-22212Y-29624D01*
X-22164Y-29739D01*
X-22088Y-29838D01*
X-21989Y-29914D01*
X-21874Y-29962D01*
X-21750Y-29978D01*
X-21626Y-29962D01*
X-21511Y-29914D01*
X-21412Y-29838D01*
X-21336Y-29739D01*
X-21288Y-29624D01*
X-21272Y-29500D01*
X-21288Y-29376D01*
X-21336Y-29261D01*
X-21412Y-29162D01*
X-21511Y-29086D01*
X-21626Y-29038D01*
X-21750Y-29022D01*
D02*
G37*
G36*
X-26250D02*
X-26374Y-29038D01*
X-26489Y-29086D01*
X-26588Y-29162D01*
X-26664Y-29261D01*
X-26712Y-29376D01*
X-26728Y-29500D01*
X-26712Y-29624D01*
X-26664Y-29739D01*
X-26588Y-29838D01*
X-26489Y-29914D01*
X-26374Y-29962D01*
X-26250Y-29978D01*
X-26126Y-29962D01*
X-26011Y-29914D01*
X-25912Y-29838D01*
X-25836Y-29739D01*
X-25788Y-29624D01*
X-25772Y-29500D01*
X-25788Y-29376D01*
X-25836Y-29261D01*
X-25912Y-29162D01*
X-26011Y-29086D01*
X-26126Y-29038D01*
X-26250Y-29022D01*
D02*
G37*
G36*
X-27500D02*
X-27624Y-29038D01*
X-27739Y-29086D01*
X-27838Y-29162D01*
X-27914Y-29261D01*
X-27962Y-29376D01*
X-27978Y-29500D01*
X-27962Y-29624D01*
X-27914Y-29739D01*
X-27838Y-29838D01*
X-27739Y-29914D01*
X-27624Y-29962D01*
X-27500Y-29978D01*
X-27376Y-29962D01*
X-27261Y-29914D01*
X-27162Y-29838D01*
X-27086Y-29739D01*
X-27038Y-29624D01*
X-27022Y-29500D01*
X-27038Y-29376D01*
X-27086Y-29261D01*
X-27162Y-29162D01*
X-27261Y-29086D01*
X-27376Y-29038D01*
X-27500Y-29022D01*
D02*
G37*
G36*
X-16858Y-32550D02*
X-17200D01*
Y-32892D01*
X-17147Y-32885D01*
X-17051Y-32845D01*
X-16968Y-32782D01*
X-16905Y-32699D01*
X-16865Y-32603D01*
X-16858Y-32550D01*
D02*
G37*
G36*
X-17300D02*
X-17642D01*
X-17635Y-32603D01*
X-17595Y-32699D01*
X-17532Y-32782D01*
X-17449Y-32845D01*
X-17353Y-32885D01*
X-17300Y-32892D01*
Y-32550D01*
D02*
G37*
G36*
X-18355Y-32105D02*
X-19145D01*
Y-32895D01*
X-18355D01*
Y-32105D01*
D02*
G37*
G36*
X-17300Y-32108D02*
X-17353Y-32115D01*
X-17449Y-32155D01*
X-17532Y-32218D01*
X-17595Y-32301D01*
X-17635Y-32397D01*
X-17642Y-32450D01*
X-17300D01*
Y-32108D01*
D02*
G37*
G36*
X-24355Y-32105D02*
X-24700D01*
Y-32450D01*
X-24355D01*
Y-32105D01*
D02*
G37*
G36*
X-24800D02*
X-25145D01*
Y-32450D01*
X-24800D01*
Y-32105D01*
D02*
G37*
G36*
X-18050Y-28050D02*
X-18412D01*
X-18404Y-28108D01*
X-18362Y-28209D01*
X-18296Y-28296D01*
X-18209Y-28362D01*
X-18108Y-28404D01*
X-18050Y-28412D01*
Y-28050D01*
D02*
G37*
G36*
X-19588D02*
X-19950D01*
Y-28412D01*
X-19892Y-28404D01*
X-19791Y-28362D01*
X-19704Y-28296D01*
X-19638Y-28209D01*
X-19596Y-28108D01*
X-19588Y-28050D01*
D02*
G37*
G36*
X-20050D02*
X-20412D01*
X-20404Y-28108D01*
X-20362Y-28209D01*
X-20296Y-28296D01*
X-20209Y-28362D01*
X-20108Y-28404D01*
X-20050Y-28412D01*
Y-28050D01*
D02*
G37*
G36*
X-23950Y-27588D02*
Y-27950D01*
X-23588D01*
X-23596Y-27892D01*
X-23638Y-27791D01*
X-23704Y-27704D01*
X-23791Y-27638D01*
X-23892Y-27596D01*
X-23950Y-27588D01*
D02*
G37*
G36*
X-24050D02*
X-24108Y-27596D01*
X-24209Y-27638D01*
X-24296Y-27704D01*
X-24362Y-27791D01*
X-24404Y-27892D01*
X-24412Y-27950D01*
X-24050D01*
Y-27588D01*
D02*
G37*
G36*
X-17588Y-28050D02*
X-17950D01*
Y-28412D01*
X-17892Y-28404D01*
X-17791Y-28362D01*
X-17704Y-28296D01*
X-17638Y-28209D01*
X-17596Y-28108D01*
X-17588Y-28050D01*
D02*
G37*
G36*
X-14500Y-29022D02*
X-14624Y-29038D01*
X-14739Y-29086D01*
X-14838Y-29162D01*
X-14914Y-29261D01*
X-14962Y-29376D01*
X-14978Y-29500D01*
X-14962Y-29624D01*
X-14914Y-29739D01*
X-14838Y-29838D01*
X-14739Y-29914D01*
X-14624Y-29962D01*
X-14500Y-29978D01*
X-14376Y-29962D01*
X-14261Y-29914D01*
X-14162Y-29838D01*
X-14086Y-29739D01*
X-14038Y-29624D01*
X-14022Y-29500D01*
X-14038Y-29376D01*
X-14086Y-29261D01*
X-14162Y-29162D01*
X-14261Y-29086D01*
X-14376Y-29038D01*
X-14500Y-29022D01*
D02*
G37*
G36*
X-15750D02*
X-15874Y-29038D01*
X-15989Y-29086D01*
X-16088Y-29162D01*
X-16164Y-29261D01*
X-16212Y-29376D01*
X-16228Y-29500D01*
X-16212Y-29624D01*
X-16164Y-29739D01*
X-16088Y-29838D01*
X-15989Y-29914D01*
X-15874Y-29962D01*
X-15750Y-29978D01*
X-15626Y-29962D01*
X-15511Y-29914D01*
X-15412Y-29838D01*
X-15336Y-29739D01*
X-15288Y-29624D01*
X-15272Y-29500D01*
X-15288Y-29376D01*
X-15336Y-29261D01*
X-15412Y-29162D01*
X-15511Y-29086D01*
X-15626Y-29038D01*
X-15750Y-29022D01*
D02*
G37*
G36*
X-20250D02*
X-20374Y-29038D01*
X-20489Y-29086D01*
X-20588Y-29162D01*
X-20664Y-29261D01*
X-20712Y-29376D01*
X-20728Y-29500D01*
X-20712Y-29624D01*
X-20664Y-29739D01*
X-20588Y-29838D01*
X-20489Y-29914D01*
X-20374Y-29962D01*
X-20250Y-29978D01*
X-20126Y-29962D01*
X-20011Y-29914D01*
X-19912Y-29838D01*
X-19836Y-29739D01*
X-19788Y-29624D01*
X-19772Y-29500D01*
X-19788Y-29376D01*
X-19836Y-29261D01*
X-19912Y-29162D01*
X-20011Y-29086D01*
X-20126Y-29038D01*
X-20250Y-29022D01*
D02*
G37*
G36*
X-23588Y-28050D02*
X-23950D01*
Y-28412D01*
X-23892Y-28404D01*
X-23791Y-28362D01*
X-23704Y-28296D01*
X-23638Y-28209D01*
X-23596Y-28108D01*
X-23588Y-28050D01*
D02*
G37*
G36*
X-24050D02*
X-24412D01*
X-24404Y-28108D01*
X-24362Y-28209D01*
X-24296Y-28296D01*
X-24209Y-28362D01*
X-24108Y-28404D01*
X-24050Y-28412D01*
Y-28050D01*
D02*
G37*
G36*
X-22000Y-27581D02*
X-22108Y-27596D01*
X-22209Y-27638D01*
X-22296Y-27704D01*
X-22362Y-27791D01*
X-22404Y-27892D01*
X-22419Y-28000D01*
X-22404Y-28108D01*
X-22362Y-28209D01*
X-22296Y-28296D01*
X-22209Y-28362D01*
X-22108Y-28404D01*
X-22000Y-28419D01*
X-21892Y-28404D01*
X-21791Y-28362D01*
X-21704Y-28296D01*
X-21638Y-28209D01*
X-21596Y-28108D01*
X-21581Y-28000D01*
X-21596Y-27892D01*
X-21638Y-27791D01*
X-21704Y-27704D01*
X-21791Y-27638D01*
X-21892Y-27596D01*
X-22000Y-27581D01*
D02*
G37*
G36*
X-27450Y-24778D02*
Y-25200D01*
X-27028D01*
X-27038Y-25126D01*
X-27086Y-25011D01*
X-27162Y-24912D01*
X-27261Y-24836D01*
X-27376Y-24788D01*
X-27450Y-24778D01*
D02*
G37*
G36*
X-20250Y-19772D02*
X-20374Y-19788D01*
X-20489Y-19836D01*
X-20588Y-19912D01*
X-20664Y-20011D01*
X-20712Y-20126D01*
X-20728Y-20250D01*
X-20712Y-20374D01*
X-20664Y-20489D01*
X-20588Y-20588D01*
X-20489Y-20664D01*
X-20374Y-20712D01*
X-20250Y-20728D01*
X-20126Y-20712D01*
X-20011Y-20664D01*
X-19912Y-20588D01*
X-19836Y-20489D01*
X-19788Y-20374D01*
X-19772Y-20250D01*
X-19788Y-20126D01*
X-19836Y-20011D01*
X-19912Y-19912D01*
X-20011Y-19836D01*
X-20126Y-19788D01*
X-20250Y-19772D01*
D02*
G37*
G36*
X-21750D02*
X-21874Y-19788D01*
X-21989Y-19836D01*
X-22088Y-19912D01*
X-22164Y-20011D01*
X-22212Y-20126D01*
X-22228Y-20250D01*
X-22212Y-20374D01*
X-22164Y-20489D01*
X-22088Y-20588D01*
X-21989Y-20664D01*
X-21874Y-20712D01*
X-21750Y-20728D01*
X-21626Y-20712D01*
X-21511Y-20664D01*
X-21412Y-20588D01*
X-21336Y-20489D01*
X-21288Y-20374D01*
X-21272Y-20250D01*
X-21288Y-20126D01*
X-21336Y-20011D01*
X-21412Y-19912D01*
X-21511Y-19836D01*
X-21626Y-19788D01*
X-21750Y-19772D01*
D02*
G37*
G36*
X-16858Y-20550D02*
X-17200D01*
Y-20892D01*
X-17147Y-20885D01*
X-17051Y-20845D01*
X-16968Y-20782D01*
X-16905Y-20699D01*
X-16865Y-20603D01*
X-16858Y-20550D01*
D02*
G37*
G36*
X-24800Y-20105D02*
X-25145D01*
Y-20450D01*
X-24800D01*
Y-20105D01*
D02*
G37*
G36*
X-27450Y-20088D02*
Y-20450D01*
X-27088D01*
X-27096Y-20392D01*
X-27138Y-20291D01*
X-27204Y-20204D01*
X-27291Y-20138D01*
X-27392Y-20096D01*
X-27450Y-20088D01*
D02*
G37*
G36*
X-27550D02*
X-27608Y-20096D01*
X-27709Y-20138D01*
X-27796Y-20204D01*
X-27862Y-20291D01*
X-27904Y-20392D01*
X-27912Y-20450D01*
X-27550D01*
Y-20088D01*
D02*
G37*
G36*
X-24800Y-20550D02*
X-25145D01*
Y-20895D01*
X-24800D01*
Y-20550D01*
D02*
G37*
G36*
X-23250Y-20101D02*
X-23353Y-20115D01*
X-23449Y-20155D01*
X-23532Y-20218D01*
X-23595Y-20301D01*
X-23635Y-20397D01*
X-23649Y-20500D01*
X-23635Y-20603D01*
X-23595Y-20699D01*
X-23532Y-20782D01*
X-23449Y-20845D01*
X-23353Y-20885D01*
X-23250Y-20899D01*
X-23147Y-20885D01*
X-23051Y-20845D01*
X-22968Y-20782D01*
X-22905Y-20699D01*
X-22865Y-20603D01*
X-22851Y-20500D01*
X-22865Y-20397D01*
X-22905Y-20301D01*
X-22968Y-20218D01*
X-23051Y-20155D01*
X-23147Y-20115D01*
X-23250Y-20101D01*
D02*
G37*
G36*
X-14088Y-20550D02*
X-14450D01*
Y-20912D01*
X-14392Y-20904D01*
X-14291Y-20862D01*
X-14204Y-20796D01*
X-14138Y-20709D01*
X-14096Y-20608D01*
X-14088Y-20550D01*
D02*
G37*
G36*
X-17300D02*
X-17642D01*
X-17635Y-20603D01*
X-17595Y-20699D01*
X-17532Y-20782D01*
X-17449Y-20845D01*
X-17353Y-20885D01*
X-17300Y-20892D01*
Y-20550D01*
D02*
G37*
G36*
X-18355Y-20105D02*
X-19145D01*
Y-20895D01*
X-18355D01*
Y-20105D01*
D02*
G37*
G36*
X-24355Y-20550D02*
X-24700D01*
Y-20895D01*
X-24355D01*
Y-20550D01*
D02*
G37*
G36*
X-18000Y-17581D02*
X-18108Y-17596D01*
X-18209Y-17638D01*
X-18296Y-17704D01*
X-18362Y-17791D01*
X-18404Y-17892D01*
X-18419Y-18000D01*
X-18404Y-18108D01*
X-18362Y-18209D01*
X-18296Y-18296D01*
X-18209Y-18362D01*
X-18108Y-18404D01*
X-18000Y-18419D01*
X-17892Y-18404D01*
X-17791Y-18362D01*
X-17704Y-18296D01*
X-17638Y-18209D01*
X-17596Y-18108D01*
X-17581Y-18000D01*
X-17596Y-17892D01*
X-17638Y-17791D01*
X-17704Y-17704D01*
X-17791Y-17638D01*
X-17892Y-17596D01*
X-18000Y-17581D01*
D02*
G37*
G36*
X-24000D02*
X-24108Y-17596D01*
X-24209Y-17638D01*
X-24296Y-17704D01*
X-24362Y-17791D01*
X-24404Y-17892D01*
X-24419Y-18000D01*
X-24404Y-18108D01*
X-24362Y-18209D01*
X-24296Y-18296D01*
X-24209Y-18362D01*
X-24108Y-18404D01*
X-24000Y-18419D01*
X-23892Y-18404D01*
X-23791Y-18362D01*
X-23704Y-18296D01*
X-23638Y-18209D01*
X-23596Y-18108D01*
X-23581Y-18000D01*
X-23596Y-17892D01*
X-23638Y-17791D01*
X-23704Y-17704D01*
X-23791Y-17638D01*
X-23892Y-17596D01*
X-24000Y-17581D01*
D02*
G37*
G36*
X-14500Y-18081D02*
X-14608Y-18096D01*
X-14709Y-18138D01*
X-14796Y-18204D01*
X-14862Y-18291D01*
X-14904Y-18392D01*
X-14919Y-18500D01*
X-14904Y-18608D01*
X-14862Y-18709D01*
X-14796Y-18796D01*
X-14709Y-18862D01*
X-14608Y-18904D01*
X-14500Y-18919D01*
X-14392Y-18904D01*
X-14291Y-18862D01*
X-14204Y-18796D01*
X-14138Y-18709D01*
X-14096Y-18608D01*
X-14081Y-18500D01*
X-14096Y-18392D01*
X-14138Y-18291D01*
X-14204Y-18204D01*
X-14291Y-18138D01*
X-14392Y-18096D01*
X-14500Y-18081D01*
D02*
G37*
G36*
X-21750Y-15772D02*
X-21874Y-15788D01*
X-21989Y-15836D01*
X-22088Y-15912D01*
X-22164Y-16011D01*
X-22212Y-16126D01*
X-22228Y-16250D01*
X-22212Y-16374D01*
X-22164Y-16489D01*
X-22088Y-16588D01*
X-21989Y-16664D01*
X-21874Y-16712D01*
X-21750Y-16728D01*
X-21626Y-16712D01*
X-21511Y-16664D01*
X-21412Y-16588D01*
X-21336Y-16489D01*
X-21288Y-16374D01*
X-21272Y-16250D01*
X-21288Y-16126D01*
X-21336Y-16011D01*
X-21412Y-15912D01*
X-21511Y-15836D01*
X-21626Y-15788D01*
X-21750Y-15772D01*
D02*
G37*
G36*
X-15750Y-17022D02*
X-15874Y-17038D01*
X-15989Y-17086D01*
X-16088Y-17162D01*
X-16164Y-17261D01*
X-16212Y-17376D01*
X-16228Y-17500D01*
X-16212Y-17624D01*
X-16164Y-17739D01*
X-16088Y-17838D01*
X-15989Y-17914D01*
X-15874Y-17962D01*
X-15750Y-17978D01*
X-15626Y-17962D01*
X-15511Y-17914D01*
X-15412Y-17838D01*
X-15336Y-17739D01*
X-15288Y-17624D01*
X-15272Y-17500D01*
X-15288Y-17376D01*
X-15336Y-17261D01*
X-15412Y-17162D01*
X-15511Y-17086D01*
X-15626Y-17038D01*
X-15750Y-17022D01*
D02*
G37*
G36*
X-26250D02*
X-26374Y-17038D01*
X-26489Y-17086D01*
X-26588Y-17162D01*
X-26664Y-17261D01*
X-26712Y-17376D01*
X-26728Y-17500D01*
X-26712Y-17624D01*
X-26664Y-17739D01*
X-26588Y-17838D01*
X-26489Y-17914D01*
X-26374Y-17962D01*
X-26250Y-17978D01*
X-26126Y-17962D01*
X-26011Y-17914D01*
X-25912Y-17838D01*
X-25836Y-17739D01*
X-25788Y-17624D01*
X-25772Y-17500D01*
X-25788Y-17376D01*
X-25836Y-17261D01*
X-25912Y-17162D01*
X-26011Y-17086D01*
X-26126Y-17038D01*
X-26250Y-17022D01*
D02*
G37*
G36*
X-17200Y-20108D02*
Y-20450D01*
X-16858D01*
X-16865Y-20397D01*
X-16905Y-20301D01*
X-16968Y-20218D01*
X-17051Y-20155D01*
X-17147Y-20115D01*
X-17200Y-20108D01*
D02*
G37*
G36*
X-17300D02*
X-17353Y-20115D01*
X-17449Y-20155D01*
X-17532Y-20218D01*
X-17595Y-20301D01*
X-17635Y-20397D01*
X-17642Y-20450D01*
X-17300D01*
Y-20108D01*
D02*
G37*
G36*
X-24355Y-20105D02*
X-24700D01*
Y-20450D01*
X-24355D01*
Y-20105D01*
D02*
G37*
G36*
X-27500Y-18081D02*
X-27608Y-18096D01*
X-27709Y-18138D01*
X-27796Y-18204D01*
X-27862Y-18291D01*
X-27904Y-18392D01*
X-27919Y-18500D01*
X-27904Y-18608D01*
X-27862Y-18709D01*
X-27796Y-18796D01*
X-27709Y-18862D01*
X-27608Y-18904D01*
X-27500Y-18919D01*
X-27392Y-18904D01*
X-27291Y-18862D01*
X-27204Y-18796D01*
X-27138Y-18709D01*
X-27096Y-18608D01*
X-27081Y-18500D01*
X-27096Y-18392D01*
X-27138Y-18291D01*
X-27204Y-18204D01*
X-27291Y-18138D01*
X-27392Y-18096D01*
X-27500Y-18081D01*
D02*
G37*
G36*
X-14450Y-20088D02*
Y-20450D01*
X-14088D01*
X-14096Y-20392D01*
X-14138Y-20291D01*
X-14204Y-20204D01*
X-14291Y-20138D01*
X-14392Y-20096D01*
X-14450Y-20088D01*
D02*
G37*
G36*
X-14550D02*
X-14608Y-20096D01*
X-14709Y-20138D01*
X-14796Y-20204D01*
X-14862Y-20291D01*
X-14904Y-20392D01*
X-14912Y-20450D01*
X-14550D01*
Y-20088D01*
D02*
G37*
G36*
Y-20550D02*
X-14912D01*
X-14904Y-20608D01*
X-14862Y-20709D01*
X-14796Y-20796D01*
X-14709Y-20862D01*
X-14608Y-20904D01*
X-14550Y-20912D01*
Y-20550D01*
D02*
G37*
G36*
X-19500Y-23331D02*
X-19608Y-23346D01*
X-19709Y-23388D01*
X-19796Y-23454D01*
X-19862Y-23541D01*
X-19904Y-23642D01*
X-19919Y-23750D01*
X-19904Y-23858D01*
X-19862Y-23959D01*
X-19796Y-24046D01*
X-19709Y-24112D01*
X-19608Y-24154D01*
X-19500Y-24169D01*
X-19392Y-24154D01*
X-19291Y-24112D01*
X-19204Y-24046D01*
X-19138Y-23959D01*
X-19096Y-23858D01*
X-19081Y-23750D01*
X-19096Y-23642D01*
X-19138Y-23541D01*
X-19204Y-23454D01*
X-19291Y-23388D01*
X-19392Y-23346D01*
X-19500Y-23331D01*
D02*
G37*
G36*
X-22500D02*
X-22608Y-23346D01*
X-22709Y-23388D01*
X-22796Y-23454D01*
X-22862Y-23541D01*
X-22904Y-23642D01*
X-22919Y-23750D01*
X-22904Y-23858D01*
X-22862Y-23959D01*
X-22796Y-24046D01*
X-22709Y-24112D01*
X-22608Y-24154D01*
X-22500Y-24169D01*
X-22392Y-24154D01*
X-22291Y-24112D01*
X-22204Y-24046D01*
X-22138Y-23959D01*
X-22096Y-23858D01*
X-22081Y-23750D01*
X-22096Y-23642D01*
X-22138Y-23541D01*
X-22204Y-23454D01*
X-22291Y-23388D01*
X-22392Y-23346D01*
X-22500Y-23331D01*
D02*
G37*
G36*
X-14500Y-23522D02*
X-14624Y-23538D01*
X-14739Y-23586D01*
X-14838Y-23662D01*
X-14914Y-23761D01*
X-14962Y-23876D01*
X-14978Y-24000D01*
X-14962Y-24124D01*
X-14914Y-24239D01*
X-14838Y-24338D01*
X-14739Y-24414D01*
X-14624Y-24462D01*
X-14500Y-24478D01*
X-14376Y-24462D01*
X-14261Y-24414D01*
X-14162Y-24338D01*
X-14086Y-24239D01*
X-14038Y-24124D01*
X-14022Y-24000D01*
X-14038Y-23876D01*
X-14086Y-23761D01*
X-14162Y-23662D01*
X-14261Y-23586D01*
X-14376Y-23538D01*
X-14500Y-23522D01*
D02*
G37*
G36*
X-18500Y-22272D02*
X-18624Y-22288D01*
X-18739Y-22336D01*
X-18838Y-22412D01*
X-18914Y-22511D01*
X-18962Y-22626D01*
X-18978Y-22750D01*
X-18962Y-22874D01*
X-18914Y-22989D01*
X-18838Y-23088D01*
X-18739Y-23164D01*
X-18624Y-23212D01*
X-18500Y-23228D01*
X-18376Y-23212D01*
X-18261Y-23164D01*
X-18162Y-23088D01*
X-18086Y-22989D01*
X-18038Y-22874D01*
X-18022Y-22750D01*
X-18038Y-22626D01*
X-18086Y-22511D01*
X-18162Y-22412D01*
X-18261Y-22336D01*
X-18376Y-22288D01*
X-18500Y-22272D01*
D02*
G37*
G36*
X-23500D02*
X-23624Y-22288D01*
X-23739Y-22336D01*
X-23838Y-22412D01*
X-23914Y-22511D01*
X-23962Y-22626D01*
X-23978Y-22750D01*
X-23962Y-22874D01*
X-23914Y-22989D01*
X-23838Y-23088D01*
X-23739Y-23164D01*
X-23624Y-23212D01*
X-23500Y-23228D01*
X-23376Y-23212D01*
X-23261Y-23164D01*
X-23162Y-23088D01*
X-23086Y-22989D01*
X-23038Y-22874D01*
X-23022Y-22750D01*
X-23038Y-22626D01*
X-23086Y-22511D01*
X-23162Y-22412D01*
X-23261Y-22336D01*
X-23376Y-22288D01*
X-23500Y-22272D01*
D02*
G37*
G36*
X-27500D02*
X-27624Y-22288D01*
X-27739Y-22336D01*
X-27838Y-22412D01*
X-27914Y-22511D01*
X-27962Y-22626D01*
X-27978Y-22750D01*
X-27962Y-22874D01*
X-27914Y-22989D01*
X-27838Y-23088D01*
X-27739Y-23164D01*
X-27624Y-23212D01*
X-27500Y-23228D01*
X-27376Y-23212D01*
X-27261Y-23164D01*
X-27162Y-23088D01*
X-27086Y-22989D01*
X-27038Y-22874D01*
X-27022Y-22750D01*
X-27038Y-22626D01*
X-27086Y-22511D01*
X-27162Y-22412D01*
X-27261Y-22336D01*
X-27376Y-22288D01*
X-27500Y-22272D01*
D02*
G37*
G36*
X-19500Y-24331D02*
X-19608Y-24346D01*
X-19709Y-24388D01*
X-19796Y-24454D01*
X-19862Y-24541D01*
X-19904Y-24642D01*
X-19919Y-24750D01*
X-19904Y-24858D01*
X-19862Y-24959D01*
X-19796Y-25046D01*
X-19709Y-25112D01*
X-19608Y-25154D01*
X-19500Y-25169D01*
X-19392Y-25154D01*
X-19291Y-25112D01*
X-19204Y-25046D01*
X-19138Y-24959D01*
X-19096Y-24858D01*
X-19081Y-24750D01*
X-19096Y-24642D01*
X-19138Y-24541D01*
X-19204Y-24454D01*
X-19291Y-24388D01*
X-19392Y-24346D01*
X-19500Y-24331D01*
D02*
G37*
G36*
X-14450Y-24778D02*
Y-25200D01*
X-14028D01*
X-14038Y-25126D01*
X-14086Y-25011D01*
X-14162Y-24912D01*
X-14261Y-24836D01*
X-14376Y-24788D01*
X-14450Y-24778D01*
D02*
G37*
G36*
X-14550D02*
X-14624Y-24788D01*
X-14739Y-24836D01*
X-14838Y-24912D01*
X-14914Y-25011D01*
X-14962Y-25126D01*
X-14972Y-25200D01*
X-14550D01*
Y-24778D01*
D02*
G37*
G36*
X-18500Y-23522D02*
X-18624Y-23538D01*
X-18739Y-23586D01*
X-18838Y-23662D01*
X-18914Y-23761D01*
X-18962Y-23876D01*
X-18978Y-24000D01*
X-18962Y-24124D01*
X-18914Y-24239D01*
X-18838Y-24338D01*
X-18739Y-24414D01*
X-18624Y-24462D01*
X-18500Y-24478D01*
X-18376Y-24462D01*
X-18261Y-24414D01*
X-18162Y-24338D01*
X-18086Y-24239D01*
X-18038Y-24124D01*
X-18022Y-24000D01*
X-18038Y-23876D01*
X-18086Y-23761D01*
X-18162Y-23662D01*
X-18261Y-23586D01*
X-18376Y-23538D01*
X-18500Y-23522D01*
D02*
G37*
G36*
X-23500D02*
X-23624Y-23538D01*
X-23739Y-23586D01*
X-23838Y-23662D01*
X-23914Y-23761D01*
X-23962Y-23876D01*
X-23978Y-24000D01*
X-23962Y-24124D01*
X-23914Y-24239D01*
X-23838Y-24338D01*
X-23739Y-24414D01*
X-23624Y-24462D01*
X-23500Y-24478D01*
X-23376Y-24462D01*
X-23261Y-24414D01*
X-23162Y-24338D01*
X-23086Y-24239D01*
X-23038Y-24124D01*
X-23022Y-24000D01*
X-23038Y-23876D01*
X-23086Y-23761D01*
X-23162Y-23662D01*
X-23261Y-23586D01*
X-23376Y-23538D01*
X-23500Y-23522D01*
D02*
G37*
G36*
X-27500D02*
X-27624Y-23538D01*
X-27739Y-23586D01*
X-27838Y-23662D01*
X-27914Y-23761D01*
X-27962Y-23876D01*
X-27978Y-24000D01*
X-27962Y-24124D01*
X-27914Y-24239D01*
X-27838Y-24338D01*
X-27739Y-24414D01*
X-27624Y-24462D01*
X-27500Y-24478D01*
X-27376Y-24462D01*
X-27261Y-24414D01*
X-27162Y-24338D01*
X-27086Y-24239D01*
X-27038Y-24124D01*
X-27022Y-24000D01*
X-27038Y-23876D01*
X-27086Y-23761D01*
X-27162Y-23662D01*
X-27261Y-23586D01*
X-27376Y-23538D01*
X-27500Y-23522D01*
D02*
G37*
G36*
X-22050Y-21088D02*
X-22108Y-21096D01*
X-22209Y-21138D01*
X-22296Y-21204D01*
X-22362Y-21291D01*
X-22404Y-21392D01*
X-22412Y-21450D01*
X-22050D01*
Y-21088D01*
D02*
G37*
G36*
X-21588Y-21550D02*
X-21950D01*
Y-21912D01*
X-21892Y-21904D01*
X-21791Y-21862D01*
X-21704Y-21796D01*
X-21638Y-21709D01*
X-21596Y-21608D01*
X-21588Y-21550D01*
D02*
G37*
G36*
X-22050D02*
X-22412D01*
X-22404Y-21608D01*
X-22362Y-21709D01*
X-22296Y-21796D01*
X-22209Y-21862D01*
X-22108Y-21904D01*
X-22050Y-21912D01*
Y-21550D01*
D02*
G37*
G36*
X-27088Y-20550D02*
X-27450D01*
Y-20912D01*
X-27392Y-20904D01*
X-27291Y-20862D01*
X-27204Y-20796D01*
X-27138Y-20709D01*
X-27096Y-20608D01*
X-27088Y-20550D01*
D02*
G37*
G36*
X-27550D02*
X-27912D01*
X-27904Y-20608D01*
X-27862Y-20709D01*
X-27796Y-20796D01*
X-27709Y-20862D01*
X-27608Y-20904D01*
X-27550Y-20912D01*
Y-20550D01*
D02*
G37*
G36*
X-21950Y-21088D02*
Y-21450D01*
X-21588D01*
X-21596Y-21392D01*
X-21638Y-21291D01*
X-21704Y-21204D01*
X-21791Y-21138D01*
X-21892Y-21096D01*
X-21950Y-21088D01*
D02*
G37*
G36*
X-22085Y-22335D02*
X-22915D01*
Y-23165D01*
X-22085D01*
Y-22335D01*
D02*
G37*
G36*
X-19500Y-22331D02*
X-19608Y-22346D01*
X-19709Y-22388D01*
X-19796Y-22454D01*
X-19862Y-22541D01*
X-19904Y-22642D01*
X-19919Y-22750D01*
X-19904Y-22858D01*
X-19862Y-22959D01*
X-19796Y-23046D01*
X-19709Y-23112D01*
X-19608Y-23154D01*
X-19500Y-23169D01*
X-19392Y-23154D01*
X-19291Y-23112D01*
X-19204Y-23046D01*
X-19138Y-22959D01*
X-19096Y-22858D01*
X-19081Y-22750D01*
X-19096Y-22642D01*
X-19138Y-22541D01*
X-19204Y-22454D01*
X-19291Y-22388D01*
X-19392Y-22346D01*
X-19500Y-22331D01*
D02*
G37*
G36*
X-14500Y-22272D02*
X-14624Y-22288D01*
X-14739Y-22336D01*
X-14838Y-22412D01*
X-14914Y-22511D01*
X-14962Y-22626D01*
X-14978Y-22750D01*
X-14962Y-22874D01*
X-14914Y-22989D01*
X-14838Y-23088D01*
X-14739Y-23164D01*
X-14624Y-23212D01*
X-14500Y-23228D01*
X-14376Y-23212D01*
X-14261Y-23164D01*
X-14162Y-23088D01*
X-14086Y-22989D01*
X-14038Y-22874D01*
X-14022Y-22750D01*
X-14038Y-22626D01*
X-14086Y-22511D01*
X-14162Y-22412D01*
X-14261Y-22336D01*
X-14376Y-22288D01*
X-14500Y-22272D01*
D02*
G37*
G36*
X-20000Y-21081D02*
X-20108Y-21096D01*
X-20209Y-21138D01*
X-20296Y-21204D01*
X-20362Y-21291D01*
X-20404Y-21392D01*
X-20419Y-21500D01*
X-20404Y-21608D01*
X-20362Y-21709D01*
X-20296Y-21796D01*
X-20209Y-21862D01*
X-20108Y-21904D01*
X-20000Y-21919D01*
X-19892Y-21904D01*
X-19791Y-21862D01*
X-19704Y-21796D01*
X-19638Y-21709D01*
X-19596Y-21608D01*
X-19581Y-21500D01*
X-19596Y-21392D01*
X-19638Y-21291D01*
X-19704Y-21204D01*
X-19791Y-21138D01*
X-19892Y-21096D01*
X-20000Y-21081D01*
D02*
G37*
G36*
X-15750Y-21022D02*
X-15874Y-21038D01*
X-15989Y-21086D01*
X-16088Y-21162D01*
X-16164Y-21261D01*
X-16212Y-21376D01*
X-16228Y-21500D01*
X-16212Y-21624D01*
X-16164Y-21739D01*
X-16088Y-21838D01*
X-15989Y-21914D01*
X-15874Y-21962D01*
X-15750Y-21978D01*
X-15626Y-21962D01*
X-15511Y-21914D01*
X-15412Y-21838D01*
X-15336Y-21739D01*
X-15288Y-21624D01*
X-15272Y-21500D01*
X-15288Y-21376D01*
X-15336Y-21261D01*
X-15412Y-21162D01*
X-15511Y-21086D01*
X-15626Y-21038D01*
X-15750Y-21022D01*
D02*
G37*
G36*
X-26250D02*
X-26374Y-21038D01*
X-26489Y-21086D01*
X-26588Y-21162D01*
X-26664Y-21261D01*
X-26712Y-21376D01*
X-26728Y-21500D01*
X-26712Y-21624D01*
X-26664Y-21739D01*
X-26588Y-21838D01*
X-26489Y-21914D01*
X-26374Y-21962D01*
X-26250Y-21978D01*
X-26126Y-21962D01*
X-26011Y-21914D01*
X-25912Y-21838D01*
X-25836Y-21739D01*
X-25788Y-21624D01*
X-25772Y-21500D01*
X-25788Y-21376D01*
X-25836Y-21261D01*
X-25912Y-21162D01*
X-26011Y-21086D01*
X-26126Y-21038D01*
X-26250Y-21022D01*
D02*
G37*
G36*
X-23550Y-41050D02*
X-23972D01*
X-23962Y-41124D01*
X-23914Y-41239D01*
X-23838Y-41338D01*
X-23739Y-41414D01*
X-23624Y-41462D01*
X-23550Y-41472D01*
Y-41050D01*
D02*
G37*
G36*
X-14500Y-40522D02*
X-14624Y-40538D01*
X-14739Y-40586D01*
X-14838Y-40662D01*
X-14914Y-40761D01*
X-14962Y-40876D01*
X-14978Y-41000D01*
X-14962Y-41124D01*
X-14914Y-41239D01*
X-14838Y-41338D01*
X-14739Y-41414D01*
X-14624Y-41462D01*
X-14500Y-41478D01*
X-14376Y-41462D01*
X-14261Y-41414D01*
X-14162Y-41338D01*
X-14086Y-41239D01*
X-14038Y-41124D01*
X-14022Y-41000D01*
X-14038Y-40876D01*
X-14086Y-40761D01*
X-14162Y-40662D01*
X-14261Y-40586D01*
X-14376Y-40538D01*
X-14500Y-40522D01*
D02*
G37*
G36*
X-27500D02*
X-27624Y-40538D01*
X-27739Y-40586D01*
X-27838Y-40662D01*
X-27914Y-40761D01*
X-27962Y-40876D01*
X-27978Y-41000D01*
X-27962Y-41124D01*
X-27914Y-41239D01*
X-27838Y-41338D01*
X-27739Y-41414D01*
X-27624Y-41462D01*
X-27500Y-41478D01*
X-27376Y-41462D01*
X-27261Y-41414D01*
X-27162Y-41338D01*
X-27086Y-41239D01*
X-27038Y-41124D01*
X-27022Y-41000D01*
X-27038Y-40876D01*
X-27086Y-40761D01*
X-27162Y-40662D01*
X-27261Y-40586D01*
X-27376Y-40538D01*
X-27500Y-40522D01*
D02*
G37*
G36*
X-18028Y-41050D02*
X-18450D01*
Y-41472D01*
X-18376Y-41462D01*
X-18261Y-41414D01*
X-18162Y-41338D01*
X-18086Y-41239D01*
X-18038Y-41124D01*
X-18028Y-41050D01*
D02*
G37*
G36*
X-18550D02*
X-18972D01*
X-18962Y-41124D01*
X-18914Y-41239D01*
X-18838Y-41338D01*
X-18739Y-41414D01*
X-18624Y-41462D01*
X-18550Y-41472D01*
Y-41050D01*
D02*
G37*
G36*
X-23028D02*
X-23450D01*
Y-41472D01*
X-23376Y-41462D01*
X-23261Y-41414D01*
X-23162Y-41338D01*
X-23086Y-41239D01*
X-23038Y-41124D01*
X-23028Y-41050D01*
D02*
G37*
G36*
X1067Y-42503D02*
X874Y-42523D01*
X688Y-42579D01*
X517Y-42670D01*
X366Y-42794D01*
X243Y-42944D01*
X152Y-43115D01*
X95Y-43301D01*
X76Y-43494D01*
X95Y-43687D01*
X152Y-43873D01*
X243Y-44044D01*
X366Y-44195D01*
X517Y-44318D01*
X688Y-44409D01*
X874Y-44466D01*
X1067Y-44485D01*
X1260Y-44466D01*
X1446Y-44409D01*
X1617Y-44318D01*
X1767Y-44195D01*
X1891Y-44044D01*
X1982Y-43873D01*
X2038Y-43687D01*
X2058Y-43494D01*
X2038Y-43301D01*
X1982Y-43115D01*
X1891Y-42944D01*
X1767Y-42794D01*
X1617Y-42670D01*
X1446Y-42579D01*
X1260Y-42523D01*
X1067Y-42503D01*
D02*
G37*
G36*
X-3067D02*
X-3260Y-42523D01*
X-3446Y-42579D01*
X-3617Y-42670D01*
X-3767Y-42794D01*
X-3891Y-42944D01*
X-3982Y-43115D01*
X-4038Y-43301D01*
X-4058Y-43494D01*
X-4038Y-43687D01*
X-3982Y-43873D01*
X-3891Y-44044D01*
X-3767Y-44195D01*
X-3617Y-44318D01*
X-3446Y-44409D01*
X-3260Y-44466D01*
X-3067Y-44485D01*
X-2874Y-44466D01*
X-2688Y-44409D01*
X-2517Y-44318D01*
X-2366Y-44195D01*
X-2243Y-44044D01*
X-2152Y-43873D01*
X-2095Y-43687D01*
X-2076Y-43494D01*
X-2095Y-43301D01*
X-2152Y-43115D01*
X-2243Y-42944D01*
X-2366Y-42794D01*
X-2517Y-42670D01*
X-2688Y-42579D01*
X-2874Y-42523D01*
X-3067Y-42503D01*
D02*
G37*
G36*
X-6933D02*
X-7126Y-42523D01*
X-7312Y-42579D01*
X-7483Y-42670D01*
X-7634Y-42794D01*
X-7757Y-42944D01*
X-7848Y-43115D01*
X-7905Y-43301D01*
X-7924Y-43494D01*
X-7905Y-43687D01*
X-7848Y-43873D01*
X-7757Y-44044D01*
X-7634Y-44195D01*
X-7483Y-44318D01*
X-7312Y-44409D01*
X-7126Y-44466D01*
X-6933Y-44485D01*
X-6740Y-44466D01*
X-6554Y-44409D01*
X-6383Y-44318D01*
X-6233Y-44195D01*
X-6109Y-44044D01*
X-6018Y-43873D01*
X-5962Y-43687D01*
X-5942Y-43494D01*
X-5962Y-43301D01*
X-6018Y-43115D01*
X-6109Y-42944D01*
X-6233Y-42794D01*
X-6383Y-42670D01*
X-6554Y-42579D01*
X-6740Y-42523D01*
X-6933Y-42503D01*
D02*
G37*
G36*
X-19588Y-41300D02*
X-19950D01*
Y-41662D01*
X-19892Y-41654D01*
X-19791Y-41612D01*
X-19704Y-41546D01*
X-19638Y-41459D01*
X-19596Y-41358D01*
X-19588Y-41300D01*
D02*
G37*
G36*
X-20050D02*
X-20412D01*
X-20404Y-41358D01*
X-20362Y-41459D01*
X-20296Y-41546D01*
X-20209Y-41612D01*
X-20108Y-41654D01*
X-20050Y-41662D01*
Y-41300D01*
D02*
G37*
G36*
X-22000Y-40831D02*
X-22108Y-40846D01*
X-22209Y-40888D01*
X-22296Y-40954D01*
X-22362Y-41041D01*
X-22404Y-41142D01*
X-22419Y-41250D01*
X-22404Y-41358D01*
X-22362Y-41459D01*
X-22296Y-41546D01*
X-22209Y-41612D01*
X-22108Y-41654D01*
X-22000Y-41669D01*
X-21892Y-41654D01*
X-21791Y-41612D01*
X-21704Y-41546D01*
X-21638Y-41459D01*
X-21596Y-41358D01*
X-21581Y-41250D01*
X-21596Y-41142D01*
X-21638Y-41041D01*
X-21704Y-40954D01*
X-21791Y-40888D01*
X-21892Y-40846D01*
X-22000Y-40831D01*
D02*
G37*
G36*
X-27500Y-39272D02*
X-27624Y-39288D01*
X-27739Y-39336D01*
X-27838Y-39412D01*
X-27914Y-39511D01*
X-27962Y-39626D01*
X-27978Y-39750D01*
X-27962Y-39874D01*
X-27914Y-39989D01*
X-27838Y-40088D01*
X-27739Y-40164D01*
X-27624Y-40212D01*
X-27500Y-40228D01*
X-27376Y-40212D01*
X-27261Y-40164D01*
X-27162Y-40088D01*
X-27086Y-39989D01*
X-27038Y-39874D01*
X-27022Y-39750D01*
X-27038Y-39626D01*
X-27086Y-39511D01*
X-27162Y-39412D01*
X-27261Y-39336D01*
X-27376Y-39288D01*
X-27500Y-39272D01*
D02*
G37*
G36*
X-20000Y-39831D02*
X-20108Y-39846D01*
X-20209Y-39888D01*
X-20296Y-39954D01*
X-20362Y-40041D01*
X-20404Y-40142D01*
X-20419Y-40250D01*
X-20404Y-40358D01*
X-20362Y-40459D01*
X-20296Y-40546D01*
X-20209Y-40612D01*
X-20108Y-40654D01*
X-20000Y-40669D01*
X-19892Y-40654D01*
X-19791Y-40612D01*
X-19704Y-40546D01*
X-19638Y-40459D01*
X-19596Y-40358D01*
X-19581Y-40250D01*
X-19596Y-40142D01*
X-19638Y-40041D01*
X-19704Y-39954D01*
X-19791Y-39888D01*
X-19892Y-39846D01*
X-20000Y-39831D01*
D02*
G37*
G36*
X-22000D02*
X-22108Y-39846D01*
X-22209Y-39888D01*
X-22296Y-39954D01*
X-22362Y-40041D01*
X-22404Y-40142D01*
X-22419Y-40250D01*
X-22404Y-40358D01*
X-22362Y-40459D01*
X-22296Y-40546D01*
X-22209Y-40612D01*
X-22108Y-40654D01*
X-22000Y-40669D01*
X-21892Y-40654D01*
X-21791Y-40612D01*
X-21704Y-40546D01*
X-21638Y-40459D01*
X-21596Y-40358D01*
X-21581Y-40250D01*
X-21596Y-40142D01*
X-21638Y-40041D01*
X-21704Y-39954D01*
X-21791Y-39888D01*
X-21892Y-39846D01*
X-22000Y-39831D01*
D02*
G37*
G36*
X-14500Y-39272D02*
X-14624Y-39288D01*
X-14739Y-39336D01*
X-14838Y-39412D01*
X-14914Y-39511D01*
X-14962Y-39626D01*
X-14978Y-39750D01*
X-14962Y-39874D01*
X-14914Y-39989D01*
X-14838Y-40088D01*
X-14739Y-40164D01*
X-14624Y-40212D01*
X-14500Y-40228D01*
X-14376Y-40212D01*
X-14261Y-40164D01*
X-14162Y-40088D01*
X-14086Y-39989D01*
X-14038Y-39874D01*
X-14022Y-39750D01*
X-14038Y-39626D01*
X-14086Y-39511D01*
X-14162Y-39412D01*
X-14261Y-39336D01*
X-14376Y-39288D01*
X-14500Y-39272D01*
D02*
G37*
G36*
X-18500D02*
X-18624Y-39288D01*
X-18739Y-39336D01*
X-18838Y-39412D01*
X-18914Y-39511D01*
X-18962Y-39626D01*
X-18978Y-39750D01*
X-18962Y-39874D01*
X-18914Y-39989D01*
X-18838Y-40088D01*
X-18739Y-40164D01*
X-18624Y-40212D01*
X-18500Y-40228D01*
X-18376Y-40212D01*
X-18261Y-40164D01*
X-18162Y-40088D01*
X-18086Y-39989D01*
X-18038Y-39874D01*
X-18022Y-39750D01*
X-18038Y-39626D01*
X-18086Y-39511D01*
X-18162Y-39412D01*
X-18261Y-39336D01*
X-18376Y-39288D01*
X-18500Y-39272D01*
D02*
G37*
G36*
X-23500D02*
X-23624Y-39288D01*
X-23739Y-39336D01*
X-23838Y-39412D01*
X-23914Y-39511D01*
X-23962Y-39626D01*
X-23978Y-39750D01*
X-23962Y-39874D01*
X-23914Y-39989D01*
X-23838Y-40088D01*
X-23739Y-40164D01*
X-23624Y-40212D01*
X-23500Y-40228D01*
X-23376Y-40212D01*
X-23261Y-40164D01*
X-23162Y-40088D01*
X-23086Y-39989D01*
X-23038Y-39874D01*
X-23022Y-39750D01*
X-23038Y-39626D01*
X-23086Y-39511D01*
X-23162Y-39412D01*
X-23261Y-39336D01*
X-23376Y-39288D01*
X-23500Y-39272D01*
D02*
G37*
G36*
X-23550Y-40528D02*
X-23624Y-40538D01*
X-23739Y-40586D01*
X-23838Y-40662D01*
X-23914Y-40761D01*
X-23962Y-40876D01*
X-23972Y-40950D01*
X-23550D01*
Y-40528D01*
D02*
G37*
G36*
X-19950Y-40838D02*
Y-41200D01*
X-19588D01*
X-19596Y-41142D01*
X-19638Y-41041D01*
X-19704Y-40954D01*
X-19791Y-40888D01*
X-19892Y-40846D01*
X-19950Y-40838D01*
D02*
G37*
G36*
X-20050D02*
X-20108Y-40846D01*
X-20209Y-40888D01*
X-20296Y-40954D01*
X-20362Y-41041D01*
X-20404Y-41142D01*
X-20412Y-41200D01*
X-20050D01*
Y-40838D01*
D02*
G37*
G36*
X-18450Y-40528D02*
Y-40950D01*
X-18028D01*
X-18038Y-40876D01*
X-18086Y-40761D01*
X-18162Y-40662D01*
X-18261Y-40586D01*
X-18376Y-40538D01*
X-18450Y-40528D01*
D02*
G37*
G36*
X-18550D02*
X-18624Y-40538D01*
X-18739Y-40586D01*
X-18838Y-40662D01*
X-18914Y-40761D01*
X-18962Y-40876D01*
X-18972Y-40950D01*
X-18550D01*
Y-40528D01*
D02*
G37*
G36*
X-23450D02*
Y-40950D01*
X-23028D01*
X-23038Y-40876D01*
X-23086Y-40761D01*
X-23162Y-40662D01*
X-23261Y-40586D01*
X-23376Y-40538D01*
X-23450Y-40528D01*
D02*
G37*
G36*
X-11067Y-42503D02*
X-11260Y-42523D01*
X-11446Y-42579D01*
X-11617Y-42670D01*
X-11767Y-42794D01*
X-11891Y-42944D01*
X-11982Y-43115D01*
X-12038Y-43301D01*
X-12058Y-43494D01*
X-12038Y-43687D01*
X-11982Y-43873D01*
X-11891Y-44044D01*
X-11767Y-44195D01*
X-11617Y-44318D01*
X-11446Y-44409D01*
X-11260Y-44466D01*
X-11067Y-44485D01*
X-10874Y-44466D01*
X-10688Y-44409D01*
X-10517Y-44318D01*
X-10366Y-44195D01*
X-10243Y-44044D01*
X-10152Y-43873D01*
X-10095Y-43687D01*
X-10076Y-43494D01*
X-10095Y-43301D01*
X-10152Y-43115D01*
X-10243Y-42944D01*
X-10366Y-42794D01*
X-10517Y-42670D01*
X-10688Y-42579D01*
X-10874Y-42523D01*
X-11067Y-42503D01*
D02*
G37*
G36*
X-21050Y-45050D02*
X-21472D01*
X-21462Y-45124D01*
X-21414Y-45239D01*
X-21338Y-45338D01*
X-21239Y-45414D01*
X-21124Y-45462D01*
X-21050Y-45472D01*
Y-45050D01*
D02*
G37*
G36*
X-14Y-45020D02*
X-950D01*
Y-45956D01*
X-807Y-45942D01*
X-621Y-45886D01*
X-450Y-45794D01*
X-300Y-45671D01*
X-176Y-45521D01*
X-85Y-45350D01*
X-28Y-45164D01*
X-14Y-45020D01*
D02*
G37*
G36*
X-1050D02*
X-1986D01*
X-1972Y-45164D01*
X-1915Y-45350D01*
X-1824Y-45521D01*
X-1700Y-45671D01*
X-1550Y-45794D01*
X-1379Y-45886D01*
X-1193Y-45942D01*
X-1050Y-45956D01*
Y-45020D01*
D02*
G37*
G36*
X-20950Y-44528D02*
Y-44950D01*
X-20528D01*
X-20538Y-44876D01*
X-20586Y-44761D01*
X-20662Y-44662D01*
X-20761Y-44586D01*
X-20876Y-44538D01*
X-20950Y-44528D01*
D02*
G37*
G36*
X-21050D02*
X-21124Y-44538D01*
X-21239Y-44586D01*
X-21338Y-44662D01*
X-21414Y-44761D01*
X-21462Y-44876D01*
X-21472Y-44950D01*
X-21050D01*
Y-44528D01*
D02*
G37*
G36*
X-20528Y-45050D02*
X-20950D01*
Y-45472D01*
X-20876Y-45462D01*
X-20761Y-45414D01*
X-20662Y-45338D01*
X-20586Y-45239D01*
X-20538Y-45124D01*
X-20528Y-45050D01*
D02*
G37*
G36*
X-17050Y-45020D02*
X-17986D01*
X-17972Y-45164D01*
X-17915Y-45350D01*
X-17824Y-45521D01*
X-17700Y-45671D01*
X-17550Y-45794D01*
X-17379Y-45886D01*
X-17193Y-45942D01*
X-17050Y-45956D01*
Y-45020D01*
D02*
G37*
G36*
X-24014D02*
X-24950D01*
Y-45956D01*
X-24807Y-45942D01*
X-24621Y-45886D01*
X-24450Y-45794D01*
X-24300Y-45671D01*
X-24176Y-45521D01*
X-24085Y-45350D01*
X-24028Y-45164D01*
X-24014Y-45020D01*
D02*
G37*
G36*
X-25050D02*
X-25986D01*
X-25972Y-45164D01*
X-25915Y-45350D01*
X-25824Y-45521D01*
X-25700Y-45671D01*
X-25550Y-45794D01*
X-25379Y-45886D01*
X-25193Y-45942D01*
X-25050Y-45956D01*
Y-45020D01*
D02*
G37*
G36*
X-8014D02*
X-8950D01*
Y-45956D01*
X-8807Y-45942D01*
X-8621Y-45886D01*
X-8450Y-45794D01*
X-8300Y-45671D01*
X-8176Y-45521D01*
X-8085Y-45350D01*
X-8028Y-45164D01*
X-8014Y-45020D01*
D02*
G37*
G36*
X-9050D02*
X-9986D01*
X-9972Y-45164D01*
X-9915Y-45350D01*
X-9824Y-45521D01*
X-9700Y-45671D01*
X-9550Y-45794D01*
X-9379Y-45886D01*
X-9193Y-45942D01*
X-9050Y-45956D01*
Y-45020D01*
D02*
G37*
G36*
X-16014D02*
X-16950D01*
Y-45956D01*
X-16807Y-45942D01*
X-16621Y-45886D01*
X-16450Y-45794D01*
X-16300Y-45671D01*
X-16176Y-45521D01*
X-16085Y-45350D01*
X-16028Y-45164D01*
X-16014Y-45020D01*
D02*
G37*
G36*
X-27067Y-42503D02*
X-27260Y-42523D01*
X-27446Y-42579D01*
X-27617Y-42670D01*
X-27767Y-42794D01*
X-27891Y-42944D01*
X-27982Y-43115D01*
X-28038Y-43301D01*
X-28058Y-43494D01*
X-28038Y-43687D01*
X-27982Y-43873D01*
X-27891Y-44044D01*
X-27767Y-44195D01*
X-27617Y-44318D01*
X-27446Y-44409D01*
X-27260Y-44466D01*
X-27067Y-44485D01*
X-26874Y-44466D01*
X-26688Y-44409D01*
X-26517Y-44318D01*
X-26366Y-44195D01*
X-26243Y-44044D01*
X-26152Y-43873D01*
X-26095Y-43687D01*
X-26076Y-43494D01*
X-26095Y-43301D01*
X-26152Y-43115D01*
X-26243Y-42944D01*
X-26366Y-42794D01*
X-26517Y-42670D01*
X-26688Y-42579D01*
X-26874Y-42523D01*
X-27067Y-42503D01*
D02*
G37*
G36*
X-950Y-43985D02*
Y-44920D01*
X-14D01*
X-28Y-44777D01*
X-85Y-44591D01*
X-176Y-44420D01*
X-300Y-44270D01*
X-450Y-44147D01*
X-621Y-44055D01*
X-807Y-43999D01*
X-950Y-43985D01*
D02*
G37*
G36*
X-1050D02*
X-1193Y-43999D01*
X-1379Y-44055D01*
X-1550Y-44147D01*
X-1700Y-44270D01*
X-1824Y-44420D01*
X-1915Y-44591D01*
X-1972Y-44777D01*
X-1986Y-44920D01*
X-1050D01*
Y-43985D01*
D02*
G37*
G36*
X-14933Y-42503D02*
X-15126Y-42523D01*
X-15312Y-42579D01*
X-15483Y-42670D01*
X-15634Y-42794D01*
X-15757Y-42944D01*
X-15848Y-43115D01*
X-15905Y-43301D01*
X-15924Y-43494D01*
X-15905Y-43687D01*
X-15848Y-43873D01*
X-15757Y-44044D01*
X-15634Y-44195D01*
X-15483Y-44318D01*
X-15312Y-44409D01*
X-15126Y-44466D01*
X-14933Y-44485D01*
X-14740Y-44466D01*
X-14554Y-44409D01*
X-14383Y-44318D01*
X-14233Y-44195D01*
X-14109Y-44044D01*
X-14018Y-43873D01*
X-13962Y-43687D01*
X-13942Y-43494D01*
X-13962Y-43301D01*
X-14018Y-43115D01*
X-14109Y-42944D01*
X-14233Y-42794D01*
X-14383Y-42670D01*
X-14554Y-42579D01*
X-14740Y-42523D01*
X-14933Y-42503D01*
D02*
G37*
G36*
X-19067D02*
X-19260Y-42523D01*
X-19446Y-42579D01*
X-19617Y-42670D01*
X-19767Y-42794D01*
X-19891Y-42944D01*
X-19982Y-43115D01*
X-20038Y-43301D01*
X-20058Y-43494D01*
X-20038Y-43687D01*
X-19982Y-43873D01*
X-19891Y-44044D01*
X-19767Y-44195D01*
X-19617Y-44318D01*
X-19446Y-44409D01*
X-19260Y-44466D01*
X-19067Y-44485D01*
X-18874Y-44466D01*
X-18688Y-44409D01*
X-18517Y-44318D01*
X-18366Y-44195D01*
X-18243Y-44044D01*
X-18152Y-43873D01*
X-18095Y-43687D01*
X-18076Y-43494D01*
X-18095Y-43301D01*
X-18152Y-43115D01*
X-18243Y-42944D01*
X-18366Y-42794D01*
X-18517Y-42670D01*
X-18688Y-42579D01*
X-18874Y-42523D01*
X-19067Y-42503D01*
D02*
G37*
G36*
X-22933D02*
X-23126Y-42523D01*
X-23312Y-42579D01*
X-23483Y-42670D01*
X-23634Y-42794D01*
X-23757Y-42944D01*
X-23848Y-43115D01*
X-23905Y-43301D01*
X-23924Y-43494D01*
X-23905Y-43687D01*
X-23848Y-43873D01*
X-23757Y-44044D01*
X-23634Y-44195D01*
X-23483Y-44318D01*
X-23312Y-44409D01*
X-23126Y-44466D01*
X-22933Y-44485D01*
X-22740Y-44466D01*
X-22554Y-44409D01*
X-22383Y-44318D01*
X-22233Y-44195D01*
X-22109Y-44044D01*
X-22018Y-43873D01*
X-21962Y-43687D01*
X-21942Y-43494D01*
X-21962Y-43301D01*
X-22018Y-43115D01*
X-22109Y-42944D01*
X-22233Y-42794D01*
X-22383Y-42670D01*
X-22554Y-42579D01*
X-22740Y-42523D01*
X-22933Y-42503D01*
D02*
G37*
G36*
X-17050Y-43985D02*
X-17193Y-43999D01*
X-17379Y-44055D01*
X-17550Y-44147D01*
X-17700Y-44270D01*
X-17824Y-44420D01*
X-17915Y-44591D01*
X-17972Y-44777D01*
X-17986Y-44920D01*
X-17050D01*
Y-43985D01*
D02*
G37*
G36*
X-24950D02*
Y-44920D01*
X-24014D01*
X-24028Y-44777D01*
X-24085Y-44591D01*
X-24176Y-44420D01*
X-24300Y-44270D01*
X-24450Y-44147D01*
X-24621Y-44055D01*
X-24807Y-43999D01*
X-24950Y-43985D01*
D02*
G37*
G36*
X-25050D02*
X-25193Y-43999D01*
X-25379Y-44055D01*
X-25550Y-44147D01*
X-25700Y-44270D01*
X-25824Y-44420D01*
X-25915Y-44591D01*
X-25972Y-44777D01*
X-25986Y-44920D01*
X-25050D01*
Y-43985D01*
D02*
G37*
G36*
X-8950D02*
Y-44920D01*
X-8014D01*
X-8028Y-44777D01*
X-8085Y-44591D01*
X-8176Y-44420D01*
X-8300Y-44270D01*
X-8450Y-44147D01*
X-8621Y-44055D01*
X-8807Y-43999D01*
X-8950Y-43985D01*
D02*
G37*
G36*
X-9050D02*
X-9193Y-43999D01*
X-9379Y-44055D01*
X-9550Y-44147D01*
X-9700Y-44270D01*
X-9824Y-44420D01*
X-9915Y-44591D01*
X-9972Y-44777D01*
X-9986Y-44920D01*
X-9050D01*
Y-43985D01*
D02*
G37*
G36*
X-16950D02*
Y-44920D01*
X-16014D01*
X-16028Y-44777D01*
X-16085Y-44591D01*
X-16176Y-44420D01*
X-16300Y-44270D01*
X-16450Y-44147D01*
X-16621Y-44055D01*
X-16807Y-43999D01*
X-16950Y-43985D01*
D02*
G37*
G36*
X-22500Y-38581D02*
X-22608Y-38596D01*
X-22709Y-38638D01*
X-22796Y-38704D01*
X-22862Y-38791D01*
X-22904Y-38892D01*
X-22919Y-39000D01*
X-22904Y-39108D01*
X-22862Y-39209D01*
X-22796Y-39296D01*
X-22709Y-39362D01*
X-22608Y-39404D01*
X-22500Y-39419D01*
X-22392Y-39404D01*
X-22291Y-39362D01*
X-22204Y-39296D01*
X-22138Y-39209D01*
X-22096Y-39108D01*
X-22081Y-39000D01*
X-22096Y-38892D01*
X-22138Y-38791D01*
X-22204Y-38704D01*
X-22291Y-38638D01*
X-22392Y-38596D01*
X-22500Y-38581D01*
D02*
G37*
G36*
X-18500Y-34272D02*
X-18624Y-34288D01*
X-18739Y-34336D01*
X-18838Y-34412D01*
X-18914Y-34511D01*
X-18962Y-34626D01*
X-18978Y-34750D01*
X-18962Y-34874D01*
X-18914Y-34989D01*
X-18838Y-35088D01*
X-18739Y-35164D01*
X-18624Y-35212D01*
X-18500Y-35228D01*
X-18376Y-35212D01*
X-18261Y-35164D01*
X-18162Y-35088D01*
X-18086Y-34989D01*
X-18038Y-34874D01*
X-18022Y-34750D01*
X-18038Y-34626D01*
X-18086Y-34511D01*
X-18162Y-34412D01*
X-18261Y-34336D01*
X-18376Y-34288D01*
X-18500Y-34272D01*
D02*
G37*
G36*
X-23500D02*
X-23624Y-34288D01*
X-23739Y-34336D01*
X-23838Y-34412D01*
X-23914Y-34511D01*
X-23962Y-34626D01*
X-23978Y-34750D01*
X-23962Y-34874D01*
X-23914Y-34989D01*
X-23838Y-35088D01*
X-23739Y-35164D01*
X-23624Y-35212D01*
X-23500Y-35228D01*
X-23376Y-35212D01*
X-23261Y-35164D01*
X-23162Y-35088D01*
X-23086Y-34989D01*
X-23038Y-34874D01*
X-23022Y-34750D01*
X-23038Y-34626D01*
X-23086Y-34511D01*
X-23162Y-34412D01*
X-23261Y-34336D01*
X-23376Y-34288D01*
X-23500Y-34272D01*
D02*
G37*
G36*
X-27500D02*
X-27624Y-34288D01*
X-27739Y-34336D01*
X-27838Y-34412D01*
X-27914Y-34511D01*
X-27962Y-34626D01*
X-27978Y-34750D01*
X-27962Y-34874D01*
X-27914Y-34989D01*
X-27838Y-35088D01*
X-27739Y-35164D01*
X-27624Y-35212D01*
X-27500Y-35228D01*
X-27376Y-35212D01*
X-27261Y-35164D01*
X-27162Y-35088D01*
X-27086Y-34989D01*
X-27038Y-34874D01*
X-27022Y-34750D01*
X-27038Y-34626D01*
X-27086Y-34511D01*
X-27162Y-34412D01*
X-27261Y-34336D01*
X-27376Y-34288D01*
X-27500Y-34272D01*
D02*
G37*
G36*
X-22050Y-34800D02*
X-22412D01*
X-22404Y-34858D01*
X-22362Y-34959D01*
X-22296Y-35046D01*
X-22209Y-35112D01*
X-22108Y-35154D01*
X-22050Y-35162D01*
Y-34800D01*
D02*
G37*
G36*
X-20000Y-34331D02*
X-20108Y-34346D01*
X-20209Y-34388D01*
X-20296Y-34454D01*
X-20362Y-34541D01*
X-20404Y-34642D01*
X-20419Y-34750D01*
X-20404Y-34858D01*
X-20362Y-34959D01*
X-20296Y-35046D01*
X-20209Y-35112D01*
X-20108Y-35154D01*
X-20000Y-35169D01*
X-19892Y-35154D01*
X-19791Y-35112D01*
X-19704Y-35046D01*
X-19638Y-34959D01*
X-19596Y-34858D01*
X-19581Y-34750D01*
X-19596Y-34642D01*
X-19638Y-34541D01*
X-19704Y-34454D01*
X-19791Y-34388D01*
X-19892Y-34346D01*
X-20000Y-34331D01*
D02*
G37*
G36*
X-14500Y-34272D02*
X-14624Y-34288D01*
X-14739Y-34336D01*
X-14838Y-34412D01*
X-14914Y-34511D01*
X-14962Y-34626D01*
X-14978Y-34750D01*
X-14962Y-34874D01*
X-14914Y-34989D01*
X-14838Y-35088D01*
X-14739Y-35164D01*
X-14624Y-35212D01*
X-14500Y-35228D01*
X-14376Y-35212D01*
X-14261Y-35164D01*
X-14162Y-35088D01*
X-14086Y-34989D01*
X-14038Y-34874D01*
X-14022Y-34750D01*
X-14038Y-34626D01*
X-14086Y-34511D01*
X-14162Y-34412D01*
X-14261Y-34336D01*
X-14376Y-34288D01*
X-14500Y-34272D01*
D02*
G37*
G36*
X-18500Y-35522D02*
X-18624Y-35538D01*
X-18739Y-35586D01*
X-18838Y-35662D01*
X-18914Y-35761D01*
X-18962Y-35876D01*
X-18978Y-36000D01*
X-18962Y-36124D01*
X-18914Y-36239D01*
X-18838Y-36338D01*
X-18739Y-36414D01*
X-18624Y-36462D01*
X-18500Y-36478D01*
X-18376Y-36462D01*
X-18261Y-36414D01*
X-18162Y-36338D01*
X-18086Y-36239D01*
X-18038Y-36124D01*
X-18022Y-36000D01*
X-18038Y-35876D01*
X-18086Y-35761D01*
X-18162Y-35662D01*
X-18261Y-35586D01*
X-18376Y-35538D01*
X-18500Y-35522D01*
D02*
G37*
G36*
X-23500D02*
X-23624Y-35538D01*
X-23739Y-35586D01*
X-23838Y-35662D01*
X-23914Y-35761D01*
X-23962Y-35876D01*
X-23978Y-36000D01*
X-23962Y-36124D01*
X-23914Y-36239D01*
X-23838Y-36338D01*
X-23739Y-36414D01*
X-23624Y-36462D01*
X-23500Y-36478D01*
X-23376Y-36462D01*
X-23261Y-36414D01*
X-23162Y-36338D01*
X-23086Y-36239D01*
X-23038Y-36124D01*
X-23022Y-36000D01*
X-23038Y-35876D01*
X-23086Y-35761D01*
X-23162Y-35662D01*
X-23261Y-35586D01*
X-23376Y-35538D01*
X-23500Y-35522D01*
D02*
G37*
G36*
X-27500D02*
X-27624Y-35538D01*
X-27739Y-35586D01*
X-27838Y-35662D01*
X-27914Y-35761D01*
X-27962Y-35876D01*
X-27978Y-36000D01*
X-27962Y-36124D01*
X-27914Y-36239D01*
X-27838Y-36338D01*
X-27739Y-36414D01*
X-27624Y-36462D01*
X-27500Y-36478D01*
X-27376Y-36462D01*
X-27261Y-36414D01*
X-27162Y-36338D01*
X-27086Y-36239D01*
X-27038Y-36124D01*
X-27022Y-36000D01*
X-27038Y-35876D01*
X-27086Y-35761D01*
X-27162Y-35662D01*
X-27261Y-35586D01*
X-27376Y-35538D01*
X-27500Y-35522D01*
D02*
G37*
G36*
X-22085Y-35585D02*
X-22915D01*
Y-36415D01*
X-22085D01*
Y-35585D01*
D02*
G37*
G36*
X-19500Y-35581D02*
X-19608Y-35596D01*
X-19709Y-35638D01*
X-19796Y-35704D01*
X-19862Y-35791D01*
X-19904Y-35892D01*
X-19919Y-36000D01*
X-19904Y-36108D01*
X-19862Y-36209D01*
X-19796Y-36296D01*
X-19709Y-36362D01*
X-19608Y-36404D01*
X-19500Y-36419D01*
X-19392Y-36404D01*
X-19291Y-36362D01*
X-19204Y-36296D01*
X-19138Y-36209D01*
X-19096Y-36108D01*
X-19081Y-36000D01*
X-19096Y-35892D01*
X-19138Y-35791D01*
X-19204Y-35704D01*
X-19291Y-35638D01*
X-19392Y-35596D01*
X-19500Y-35581D01*
D02*
G37*
G36*
X-14500Y-35522D02*
X-14624Y-35538D01*
X-14739Y-35586D01*
X-14838Y-35662D01*
X-14914Y-35761D01*
X-14962Y-35876D01*
X-14978Y-36000D01*
X-14962Y-36124D01*
X-14914Y-36239D01*
X-14838Y-36338D01*
X-14739Y-36414D01*
X-14624Y-36462D01*
X-14500Y-36478D01*
X-14376Y-36462D01*
X-14261Y-36414D01*
X-14162Y-36338D01*
X-14086Y-36239D01*
X-14038Y-36124D01*
X-14022Y-36000D01*
X-14038Y-35876D01*
X-14086Y-35761D01*
X-14162Y-35662D01*
X-14261Y-35586D01*
X-14376Y-35538D01*
X-14500Y-35522D01*
D02*
G37*
G36*
Y-33022D02*
X-14624Y-33038D01*
X-14739Y-33086D01*
X-14838Y-33162D01*
X-14914Y-33261D01*
X-14962Y-33376D01*
X-14978Y-33500D01*
X-14962Y-33624D01*
X-14914Y-33739D01*
X-14838Y-33838D01*
X-14739Y-33914D01*
X-14624Y-33962D01*
X-14500Y-33978D01*
X-14376Y-33962D01*
X-14261Y-33914D01*
X-14162Y-33838D01*
X-14086Y-33739D01*
X-14038Y-33624D01*
X-14022Y-33500D01*
X-14038Y-33376D01*
X-14086Y-33261D01*
X-14162Y-33162D01*
X-14261Y-33086D01*
X-14376Y-33038D01*
X-14500Y-33022D01*
D02*
G37*
G36*
X-15750D02*
X-15874Y-33038D01*
X-15989Y-33086D01*
X-16088Y-33162D01*
X-16164Y-33261D01*
X-16212Y-33376D01*
X-16228Y-33500D01*
X-16212Y-33624D01*
X-16164Y-33739D01*
X-16088Y-33838D01*
X-15989Y-33914D01*
X-15874Y-33962D01*
X-15750Y-33978D01*
X-15626Y-33962D01*
X-15511Y-33914D01*
X-15412Y-33838D01*
X-15336Y-33739D01*
X-15288Y-33624D01*
X-15272Y-33500D01*
X-15288Y-33376D01*
X-15336Y-33261D01*
X-15412Y-33162D01*
X-15511Y-33086D01*
X-15626Y-33038D01*
X-15750Y-33022D01*
D02*
G37*
G36*
X-20250D02*
X-20374Y-33038D01*
X-20489Y-33086D01*
X-20588Y-33162D01*
X-20664Y-33261D01*
X-20712Y-33376D01*
X-20728Y-33500D01*
X-20712Y-33624D01*
X-20664Y-33739D01*
X-20588Y-33838D01*
X-20489Y-33914D01*
X-20374Y-33962D01*
X-20250Y-33978D01*
X-20126Y-33962D01*
X-20011Y-33914D01*
X-19912Y-33838D01*
X-19836Y-33739D01*
X-19788Y-33624D01*
X-19772Y-33500D01*
X-19788Y-33376D01*
X-19836Y-33261D01*
X-19912Y-33162D01*
X-20011Y-33086D01*
X-20126Y-33038D01*
X-20250Y-33022D01*
D02*
G37*
G36*
X-24355Y-32550D02*
X-24700D01*
Y-32895D01*
X-24355D01*
Y-32550D01*
D02*
G37*
G36*
X-24800D02*
X-25145D01*
Y-32895D01*
X-24800D01*
Y-32550D01*
D02*
G37*
G36*
X-23250Y-32101D02*
X-23353Y-32115D01*
X-23449Y-32155D01*
X-23532Y-32218D01*
X-23595Y-32301D01*
X-23635Y-32397D01*
X-23649Y-32500D01*
X-23635Y-32603D01*
X-23595Y-32699D01*
X-23532Y-32782D01*
X-23449Y-32845D01*
X-23353Y-32885D01*
X-23250Y-32899D01*
X-23147Y-32885D01*
X-23051Y-32845D01*
X-22968Y-32782D01*
X-22905Y-32699D01*
X-22865Y-32603D01*
X-22851Y-32500D01*
X-22865Y-32397D01*
X-22905Y-32301D01*
X-22968Y-32218D01*
X-23051Y-32155D01*
X-23147Y-32115D01*
X-23250Y-32101D01*
D02*
G37*
G36*
X-21950Y-34338D02*
Y-34700D01*
X-21588D01*
X-21596Y-34642D01*
X-21638Y-34541D01*
X-21704Y-34454D01*
X-21791Y-34388D01*
X-21892Y-34346D01*
X-21950Y-34338D01*
D02*
G37*
G36*
X-22050D02*
X-22108Y-34346D01*
X-22209Y-34388D01*
X-22296Y-34454D01*
X-22362Y-34541D01*
X-22404Y-34642D01*
X-22412Y-34700D01*
X-22050D01*
Y-34338D01*
D02*
G37*
G36*
X-21588Y-34800D02*
X-21950D01*
Y-35162D01*
X-21892Y-35154D01*
X-21791Y-35112D01*
X-21704Y-35046D01*
X-21638Y-34959D01*
X-21596Y-34858D01*
X-21588Y-34800D01*
D02*
G37*
G36*
X-21750Y-33022D02*
X-21874Y-33038D01*
X-21989Y-33086D01*
X-22088Y-33162D01*
X-22164Y-33261D01*
X-22212Y-33376D01*
X-22228Y-33500D01*
X-22212Y-33624D01*
X-22164Y-33739D01*
X-22088Y-33838D01*
X-21989Y-33914D01*
X-21874Y-33962D01*
X-21750Y-33978D01*
X-21626Y-33962D01*
X-21511Y-33914D01*
X-21412Y-33838D01*
X-21336Y-33739D01*
X-21288Y-33624D01*
X-21272Y-33500D01*
X-21288Y-33376D01*
X-21336Y-33261D01*
X-21412Y-33162D01*
X-21511Y-33086D01*
X-21626Y-33038D01*
X-21750Y-33022D01*
D02*
G37*
G36*
X-26250D02*
X-26374Y-33038D01*
X-26489Y-33086D01*
X-26588Y-33162D01*
X-26664Y-33261D01*
X-26712Y-33376D01*
X-26728Y-33500D01*
X-26712Y-33624D01*
X-26664Y-33739D01*
X-26588Y-33838D01*
X-26489Y-33914D01*
X-26374Y-33962D01*
X-26250Y-33978D01*
X-26126Y-33962D01*
X-26011Y-33914D01*
X-25912Y-33838D01*
X-25836Y-33739D01*
X-25788Y-33624D01*
X-25772Y-33500D01*
X-25788Y-33376D01*
X-25836Y-33261D01*
X-25912Y-33162D01*
X-26011Y-33086D01*
X-26126Y-33038D01*
X-26250Y-33022D01*
D02*
G37*
G36*
X-27500D02*
X-27624Y-33038D01*
X-27739Y-33086D01*
X-27838Y-33162D01*
X-27914Y-33261D01*
X-27962Y-33376D01*
X-27978Y-33500D01*
X-27962Y-33624D01*
X-27914Y-33739D01*
X-27838Y-33838D01*
X-27739Y-33914D01*
X-27624Y-33962D01*
X-27500Y-33978D01*
X-27376Y-33962D01*
X-27261Y-33914D01*
X-27162Y-33838D01*
X-27086Y-33739D01*
X-27038Y-33624D01*
X-27022Y-33500D01*
X-27038Y-33376D01*
X-27086Y-33261D01*
X-27162Y-33162D01*
X-27261Y-33086D01*
X-27376Y-33038D01*
X-27500Y-33022D01*
D02*
G37*
G36*
X-14450Y-36778D02*
Y-37200D01*
X-14028D01*
X-14038Y-37126D01*
X-14086Y-37011D01*
X-14162Y-36912D01*
X-14261Y-36836D01*
X-14376Y-36788D01*
X-14450Y-36778D01*
D02*
G37*
G36*
X-27450Y-38028D02*
Y-38450D01*
X-27028D01*
X-27038Y-38376D01*
X-27086Y-38261D01*
X-27162Y-38162D01*
X-27261Y-38086D01*
X-27376Y-38038D01*
X-27450Y-38028D01*
D02*
G37*
G36*
X-27550D02*
X-27624Y-38038D01*
X-27739Y-38086D01*
X-27838Y-38162D01*
X-27914Y-38261D01*
X-27962Y-38376D01*
X-27972Y-38450D01*
X-27550D01*
Y-38028D01*
D02*
G37*
G36*
X-14028Y-38550D02*
X-14450D01*
Y-38972D01*
X-14376Y-38962D01*
X-14261Y-38914D01*
X-14162Y-38838D01*
X-14086Y-38739D01*
X-14038Y-38624D01*
X-14028Y-38550D01*
D02*
G37*
G36*
X-22500Y-37581D02*
X-22608Y-37596D01*
X-22709Y-37638D01*
X-22796Y-37704D01*
X-22862Y-37791D01*
X-22904Y-37892D01*
X-22919Y-38000D01*
X-22904Y-38108D01*
X-22862Y-38209D01*
X-22796Y-38296D01*
X-22709Y-38362D01*
X-22608Y-38404D01*
X-22500Y-38419D01*
X-22392Y-38404D01*
X-22291Y-38362D01*
X-22204Y-38296D01*
X-22138Y-38209D01*
X-22096Y-38108D01*
X-22081Y-38000D01*
X-22096Y-37892D01*
X-22138Y-37791D01*
X-22204Y-37704D01*
X-22291Y-37638D01*
X-22392Y-37596D01*
X-22500Y-37581D01*
D02*
G37*
G36*
X-14450Y-38028D02*
Y-38450D01*
X-14028D01*
X-14038Y-38376D01*
X-14086Y-38261D01*
X-14162Y-38162D01*
X-14261Y-38086D01*
X-14376Y-38038D01*
X-14450Y-38028D01*
D02*
G37*
G36*
X-14550D02*
X-14624Y-38038D01*
X-14739Y-38086D01*
X-14838Y-38162D01*
X-14914Y-38261D01*
X-14962Y-38376D01*
X-14972Y-38450D01*
X-14550D01*
Y-38028D01*
D02*
G37*
G36*
X-18500Y-38022D02*
X-18624Y-38038D01*
X-18739Y-38086D01*
X-18838Y-38162D01*
X-18914Y-38261D01*
X-18962Y-38376D01*
X-18978Y-38500D01*
X-18962Y-38624D01*
X-18914Y-38739D01*
X-18838Y-38838D01*
X-18739Y-38914D01*
X-18624Y-38962D01*
X-18500Y-38978D01*
X-18376Y-38962D01*
X-18261Y-38914D01*
X-18162Y-38838D01*
X-18086Y-38739D01*
X-18038Y-38624D01*
X-18022Y-38500D01*
X-18038Y-38376D01*
X-18086Y-38261D01*
X-18162Y-38162D01*
X-18261Y-38086D01*
X-18376Y-38038D01*
X-18500Y-38022D01*
D02*
G37*
G36*
X-23500D02*
X-23624Y-38038D01*
X-23739Y-38086D01*
X-23838Y-38162D01*
X-23914Y-38261D01*
X-23962Y-38376D01*
X-23978Y-38500D01*
X-23962Y-38624D01*
X-23914Y-38739D01*
X-23838Y-38838D01*
X-23739Y-38914D01*
X-23624Y-38962D01*
X-23500Y-38978D01*
X-23376Y-38962D01*
X-23261Y-38914D01*
X-23162Y-38838D01*
X-23086Y-38739D01*
X-23038Y-38624D01*
X-23022Y-38500D01*
X-23038Y-38376D01*
X-23086Y-38261D01*
X-23162Y-38162D01*
X-23261Y-38086D01*
X-23376Y-38038D01*
X-23500Y-38022D01*
D02*
G37*
G36*
X-19500Y-38581D02*
X-19608Y-38596D01*
X-19709Y-38638D01*
X-19796Y-38704D01*
X-19862Y-38791D01*
X-19904Y-38892D01*
X-19919Y-39000D01*
X-19904Y-39108D01*
X-19862Y-39209D01*
X-19796Y-39296D01*
X-19709Y-39362D01*
X-19608Y-39404D01*
X-19500Y-39419D01*
X-19392Y-39404D01*
X-19291Y-39362D01*
X-19204Y-39296D01*
X-19138Y-39209D01*
X-19096Y-39108D01*
X-19081Y-39000D01*
X-19096Y-38892D01*
X-19138Y-38791D01*
X-19204Y-38704D01*
X-19291Y-38638D01*
X-19392Y-38596D01*
X-19500Y-38581D01*
D02*
G37*
G36*
X-14550Y-38550D02*
X-14972D01*
X-14962Y-38624D01*
X-14914Y-38739D01*
X-14838Y-38838D01*
X-14739Y-38914D01*
X-14624Y-38962D01*
X-14550Y-38972D01*
Y-38550D01*
D02*
G37*
G36*
X-27028D02*
X-27450D01*
Y-38972D01*
X-27376Y-38962D01*
X-27261Y-38914D01*
X-27162Y-38838D01*
X-27086Y-38739D01*
X-27038Y-38624D01*
X-27028Y-38550D01*
D02*
G37*
G36*
X-27550D02*
X-27972D01*
X-27962Y-38624D01*
X-27914Y-38739D01*
X-27838Y-38838D01*
X-27739Y-38914D01*
X-27624Y-38962D01*
X-27550Y-38972D01*
Y-38550D01*
D02*
G37*
G36*
X-19500Y-36581D02*
X-19608Y-36596D01*
X-19709Y-36638D01*
X-19796Y-36704D01*
X-19862Y-36791D01*
X-19904Y-36892D01*
X-19919Y-37000D01*
X-19904Y-37108D01*
X-19862Y-37209D01*
X-19796Y-37296D01*
X-19709Y-37362D01*
X-19608Y-37404D01*
X-19500Y-37419D01*
X-19392Y-37404D01*
X-19291Y-37362D01*
X-19204Y-37296D01*
X-19138Y-37209D01*
X-19096Y-37108D01*
X-19081Y-37000D01*
X-19096Y-36892D01*
X-19138Y-36791D01*
X-19204Y-36704D01*
X-19291Y-36638D01*
X-19392Y-36596D01*
X-19500Y-36581D01*
D02*
G37*
G36*
X-22500D02*
X-22608Y-36596D01*
X-22709Y-36638D01*
X-22796Y-36704D01*
X-22862Y-36791D01*
X-22904Y-36892D01*
X-22919Y-37000D01*
X-22904Y-37108D01*
X-22862Y-37209D01*
X-22796Y-37296D01*
X-22709Y-37362D01*
X-22608Y-37404D01*
X-22500Y-37419D01*
X-22392Y-37404D01*
X-22291Y-37362D01*
X-22204Y-37296D01*
X-22138Y-37209D01*
X-22096Y-37108D01*
X-22081Y-37000D01*
X-22096Y-36892D01*
X-22138Y-36791D01*
X-22204Y-36704D01*
X-22291Y-36638D01*
X-22392Y-36596D01*
X-22500Y-36581D01*
D02*
G37*
G36*
X-14028Y-37300D02*
X-14450D01*
Y-37722D01*
X-14376Y-37712D01*
X-14261Y-37664D01*
X-14162Y-37588D01*
X-14086Y-37489D01*
X-14038Y-37374D01*
X-14028Y-37300D01*
D02*
G37*
G36*
X-14550Y-36778D02*
X-14624Y-36788D01*
X-14739Y-36836D01*
X-14838Y-36912D01*
X-14914Y-37011D01*
X-14962Y-37126D01*
X-14972Y-37200D01*
X-14550D01*
Y-36778D01*
D02*
G37*
G36*
X-27450D02*
Y-37200D01*
X-27028D01*
X-27038Y-37126D01*
X-27086Y-37011D01*
X-27162Y-36912D01*
X-27261Y-36836D01*
X-27376Y-36788D01*
X-27450Y-36778D01*
D02*
G37*
G36*
X-27550D02*
X-27624Y-36788D01*
X-27739Y-36836D01*
X-27838Y-36912D01*
X-27914Y-37011D01*
X-27962Y-37126D01*
X-27972Y-37200D01*
X-27550D01*
Y-36778D01*
D02*
G37*
G36*
X-18500Y-36772D02*
X-18624Y-36788D01*
X-18739Y-36836D01*
X-18838Y-36912D01*
X-18914Y-37011D01*
X-18962Y-37126D01*
X-18978Y-37250D01*
X-18962Y-37374D01*
X-18914Y-37489D01*
X-18838Y-37588D01*
X-18739Y-37664D01*
X-18624Y-37712D01*
X-18500Y-37728D01*
X-18376Y-37712D01*
X-18261Y-37664D01*
X-18162Y-37588D01*
X-18086Y-37489D01*
X-18038Y-37374D01*
X-18022Y-37250D01*
X-18038Y-37126D01*
X-18086Y-37011D01*
X-18162Y-36912D01*
X-18261Y-36836D01*
X-18376Y-36788D01*
X-18500Y-36772D01*
D02*
G37*
G36*
X-23500D02*
X-23624Y-36788D01*
X-23739Y-36836D01*
X-23838Y-36912D01*
X-23914Y-37011D01*
X-23962Y-37126D01*
X-23978Y-37250D01*
X-23962Y-37374D01*
X-23914Y-37489D01*
X-23838Y-37588D01*
X-23739Y-37664D01*
X-23624Y-37712D01*
X-23500Y-37728D01*
X-23376Y-37712D01*
X-23261Y-37664D01*
X-23162Y-37588D01*
X-23086Y-37489D01*
X-23038Y-37374D01*
X-23022Y-37250D01*
X-23038Y-37126D01*
X-23086Y-37011D01*
X-23162Y-36912D01*
X-23261Y-36836D01*
X-23376Y-36788D01*
X-23500Y-36772D01*
D02*
G37*
G36*
X-19500Y-37581D02*
X-19608Y-37596D01*
X-19709Y-37638D01*
X-19796Y-37704D01*
X-19862Y-37791D01*
X-19904Y-37892D01*
X-19919Y-38000D01*
X-19904Y-38108D01*
X-19862Y-38209D01*
X-19796Y-38296D01*
X-19709Y-38362D01*
X-19608Y-38404D01*
X-19500Y-38419D01*
X-19392Y-38404D01*
X-19291Y-38362D01*
X-19204Y-38296D01*
X-19138Y-38209D01*
X-19096Y-38108D01*
X-19081Y-38000D01*
X-19096Y-37892D01*
X-19138Y-37791D01*
X-19204Y-37704D01*
X-19291Y-37638D01*
X-19392Y-37596D01*
X-19500Y-37581D01*
D02*
G37*
G36*
X-14550Y-37300D02*
X-14972D01*
X-14962Y-37374D01*
X-14914Y-37489D01*
X-14838Y-37588D01*
X-14739Y-37664D01*
X-14624Y-37712D01*
X-14550Y-37722D01*
Y-37300D01*
D02*
G37*
G36*
X-27028D02*
X-27450D01*
Y-37722D01*
X-27376Y-37712D01*
X-27261Y-37664D01*
X-27162Y-37588D01*
X-27086Y-37489D01*
X-27038Y-37374D01*
X-27028Y-37300D01*
D02*
G37*
G36*
X-27550D02*
X-27972D01*
X-27962Y-37374D01*
X-27914Y-37489D01*
X-27838Y-37588D01*
X-27739Y-37664D01*
X-27624Y-37712D01*
X-27550Y-37722D01*
Y-37300D01*
D02*
G37*
G36*
X-20250Y-15772D02*
X-20374Y-15788D01*
X-20489Y-15836D01*
X-20588Y-15912D01*
X-20664Y-16011D01*
X-20712Y-16126D01*
X-20728Y-16250D01*
X-20712Y-16374D01*
X-20664Y-16489D01*
X-20588Y-16588D01*
X-20489Y-16664D01*
X-20374Y-16712D01*
X-20250Y-16728D01*
X-20126Y-16712D01*
X-20011Y-16664D01*
X-19912Y-16588D01*
X-19836Y-16489D01*
X-19788Y-16374D01*
X-19772Y-16250D01*
X-19788Y-16126D01*
X-19836Y-16011D01*
X-19912Y-15912D01*
X-20011Y-15836D01*
X-20126Y-15788D01*
X-20250Y-15772D01*
D02*
G37*
G36*
X7450Y-6550D02*
X7088D01*
X7096Y-6608D01*
X7138Y-6709D01*
X7204Y-6796D01*
X7291Y-6862D01*
X7392Y-6904D01*
X7450Y-6912D01*
Y-6550D01*
D02*
G37*
G36*
X6412D02*
X6050D01*
Y-6912D01*
X6108Y-6904D01*
X6209Y-6862D01*
X6296Y-6796D01*
X6362Y-6709D01*
X6404Y-6608D01*
X6412Y-6550D01*
D02*
G37*
G36*
X5950D02*
X5588D01*
X5596Y-6608D01*
X5638Y-6709D01*
X5704Y-6796D01*
X5791Y-6862D01*
X5892Y-6904D01*
X5950Y-6912D01*
Y-6550D01*
D02*
G37*
G36*
X15412D02*
X15050D01*
Y-6912D01*
X15108Y-6904D01*
X15209Y-6862D01*
X15296Y-6796D01*
X15362Y-6709D01*
X15404Y-6608D01*
X15412Y-6550D01*
D02*
G37*
G36*
X14950D02*
X14588D01*
X14596Y-6608D01*
X14638Y-6709D01*
X14704Y-6796D01*
X14791Y-6862D01*
X14892Y-6904D01*
X14950Y-6912D01*
Y-6550D01*
D02*
G37*
G36*
X7912D02*
X7550D01*
Y-6912D01*
X7608Y-6904D01*
X7709Y-6862D01*
X7796Y-6796D01*
X7862Y-6709D01*
X7904Y-6608D01*
X7912Y-6550D01*
D02*
G37*
G36*
X21500Y-6081D02*
X21392Y-6096D01*
X21291Y-6138D01*
X21204Y-6204D01*
X21138Y-6291D01*
X21096Y-6392D01*
X21081Y-6500D01*
X21096Y-6608D01*
X21138Y-6709D01*
X21204Y-6796D01*
X21291Y-6862D01*
X21392Y-6904D01*
X21500Y-6919D01*
X21608Y-6904D01*
X21709Y-6862D01*
X21796Y-6796D01*
X21862Y-6709D01*
X21904Y-6608D01*
X21919Y-6500D01*
X21904Y-6392D01*
X21862Y-6291D01*
X21796Y-6204D01*
X21709Y-6138D01*
X21608Y-6096D01*
X21500Y-6081D01*
D02*
G37*
G36*
X13500D02*
X13392Y-6096D01*
X13291Y-6138D01*
X13204Y-6204D01*
X13138Y-6291D01*
X13096Y-6392D01*
X13081Y-6500D01*
X13096Y-6608D01*
X13138Y-6709D01*
X13204Y-6796D01*
X13291Y-6862D01*
X13392Y-6904D01*
X13500Y-6919D01*
X13608Y-6904D01*
X13709Y-6862D01*
X13796Y-6796D01*
X13862Y-6709D01*
X13904Y-6608D01*
X13919Y-6500D01*
X13904Y-6392D01*
X13862Y-6291D01*
X13796Y-6204D01*
X13709Y-6138D01*
X13608Y-6096D01*
X13500Y-6081D01*
D02*
G37*
G36*
X12000D02*
X11892Y-6096D01*
X11791Y-6138D01*
X11704Y-6204D01*
X11638Y-6291D01*
X11596Y-6392D01*
X11581Y-6500D01*
X11596Y-6608D01*
X11638Y-6709D01*
X11704Y-6796D01*
X11791Y-6862D01*
X11892Y-6904D01*
X12000Y-6919D01*
X12108Y-6904D01*
X12209Y-6862D01*
X12296Y-6796D01*
X12362Y-6709D01*
X12404Y-6608D01*
X12419Y-6500D01*
X12404Y-6392D01*
X12362Y-6291D01*
X12296Y-6204D01*
X12209Y-6138D01*
X12108Y-6096D01*
X12000Y-6081D01*
D02*
G37*
G36*
X26000D02*
X25892Y-6096D01*
X25791Y-6138D01*
X25704Y-6204D01*
X25638Y-6291D01*
X25596Y-6392D01*
X25581Y-6500D01*
X25596Y-6608D01*
X25638Y-6709D01*
X25704Y-6796D01*
X25791Y-6862D01*
X25892Y-6904D01*
X26000Y-6919D01*
X26108Y-6904D01*
X26209Y-6862D01*
X26296Y-6796D01*
X26362Y-6709D01*
X26404Y-6608D01*
X26419Y-6500D01*
X26404Y-6392D01*
X26362Y-6291D01*
X26296Y-6204D01*
X26209Y-6138D01*
X26108Y-6096D01*
X26000Y-6081D01*
D02*
G37*
G36*
X24500D02*
X24392Y-6096D01*
X24291Y-6138D01*
X24204Y-6204D01*
X24138Y-6291D01*
X24096Y-6392D01*
X24081Y-6500D01*
X24096Y-6608D01*
X24138Y-6709D01*
X24204Y-6796D01*
X24291Y-6862D01*
X24392Y-6904D01*
X24500Y-6919D01*
X24608Y-6904D01*
X24709Y-6862D01*
X24796Y-6796D01*
X24862Y-6709D01*
X24904Y-6608D01*
X24919Y-6500D01*
X24904Y-6392D01*
X24862Y-6291D01*
X24796Y-6204D01*
X24709Y-6138D01*
X24608Y-6096D01*
X24500Y-6081D01*
D02*
G37*
G36*
X23000D02*
X22892Y-6096D01*
X22791Y-6138D01*
X22704Y-6204D01*
X22638Y-6291D01*
X22596Y-6392D01*
X22581Y-6500D01*
X22596Y-6608D01*
X22638Y-6709D01*
X22704Y-6796D01*
X22791Y-6862D01*
X22892Y-6904D01*
X23000Y-6919D01*
X23108Y-6904D01*
X23209Y-6862D01*
X23296Y-6796D01*
X23362Y-6709D01*
X23404Y-6608D01*
X23419Y-6500D01*
X23404Y-6392D01*
X23362Y-6291D01*
X23296Y-6204D01*
X23209Y-6138D01*
X23108Y-6096D01*
X23000Y-6081D01*
D02*
G37*
G36*
X16450Y-6550D02*
X16088D01*
X16096Y-6608D01*
X16138Y-6709D01*
X16204Y-6796D01*
X16291Y-6862D01*
X16392Y-6904D01*
X16450Y-6912D01*
Y-6550D01*
D02*
G37*
G36*
X29412D02*
X29050D01*
Y-6912D01*
X29108Y-6904D01*
X29209Y-6862D01*
X29296Y-6796D01*
X29362Y-6709D01*
X29404Y-6608D01*
X29412Y-6550D01*
D02*
G37*
G36*
X28950D02*
X28588D01*
X28596Y-6608D01*
X28638Y-6709D01*
X28704Y-6796D01*
X28791Y-6862D01*
X28892Y-6904D01*
X28950Y-6912D01*
Y-6550D01*
D02*
G37*
G36*
X27912D02*
X27550D01*
Y-6912D01*
X27608Y-6904D01*
X27709Y-6862D01*
X27796Y-6796D01*
X27862Y-6709D01*
X27904Y-6608D01*
X27912Y-6550D01*
D02*
G37*
G36*
X7450Y-6088D02*
X7392Y-6096D01*
X7291Y-6138D01*
X7204Y-6204D01*
X7138Y-6291D01*
X7096Y-6392D01*
X7088Y-6450D01*
X7450D01*
Y-6088D01*
D02*
G37*
G36*
X6050D02*
Y-6450D01*
X6412D01*
X6404Y-6392D01*
X6362Y-6291D01*
X6296Y-6204D01*
X6209Y-6138D01*
X6108Y-6096D01*
X6050Y-6088D01*
D02*
G37*
G36*
X5950D02*
X5892Y-6096D01*
X5791Y-6138D01*
X5704Y-6204D01*
X5638Y-6291D01*
X5596Y-6392D01*
X5588Y-6450D01*
X5950D01*
Y-6088D01*
D02*
G37*
G36*
X18912Y-6550D02*
X18550D01*
Y-6912D01*
X18608Y-6904D01*
X18709Y-6862D01*
X18796Y-6796D01*
X18862Y-6709D01*
X18904Y-6608D01*
X18912Y-6550D01*
D02*
G37*
G36*
X18450D02*
X18088D01*
X18096Y-6608D01*
X18138Y-6709D01*
X18204Y-6796D01*
X18291Y-6862D01*
X18392Y-6904D01*
X18450Y-6912D01*
Y-6550D01*
D02*
G37*
G36*
X16912D02*
X16550D01*
Y-6912D01*
X16608Y-6904D01*
X16709Y-6862D01*
X16796Y-6796D01*
X16862Y-6709D01*
X16904Y-6608D01*
X16912Y-6550D01*
D02*
G37*
G36*
X27450D02*
X27088D01*
X27096Y-6608D01*
X27138Y-6709D01*
X27204Y-6796D01*
X27291Y-6862D01*
X27392Y-6904D01*
X27450Y-6912D01*
Y-6550D01*
D02*
G37*
G36*
X20412D02*
X20050D01*
Y-6912D01*
X20108Y-6904D01*
X20209Y-6862D01*
X20296Y-6796D01*
X20362Y-6709D01*
X20404Y-6608D01*
X20412Y-6550D01*
D02*
G37*
G36*
X19950D02*
X19588D01*
X19596Y-6608D01*
X19638Y-6709D01*
X19704Y-6796D01*
X19791Y-6862D01*
X19892Y-6904D01*
X19950Y-6912D01*
Y-6550D01*
D02*
G37*
G36*
X-21588Y-8300D02*
X-21950D01*
Y-8662D01*
X-21892Y-8654D01*
X-21791Y-8612D01*
X-21704Y-8546D01*
X-21638Y-8459D01*
X-21596Y-8358D01*
X-21588Y-8300D01*
D02*
G37*
G36*
X-22050D02*
X-22412D01*
X-22404Y-8358D01*
X-22362Y-8459D01*
X-22296Y-8546D01*
X-22209Y-8612D01*
X-22108Y-8654D01*
X-22050Y-8662D01*
Y-8300D01*
D02*
G37*
G36*
X-20000Y-7831D02*
X-20108Y-7846D01*
X-20209Y-7888D01*
X-20296Y-7954D01*
X-20362Y-8041D01*
X-20404Y-8142D01*
X-20419Y-8250D01*
X-20404Y-8358D01*
X-20362Y-8459D01*
X-20296Y-8546D01*
X-20209Y-8612D01*
X-20108Y-8654D01*
X-20000Y-8669D01*
X-19892Y-8654D01*
X-19791Y-8612D01*
X-19704Y-8546D01*
X-19638Y-8459D01*
X-19596Y-8358D01*
X-19581Y-8250D01*
X-19596Y-8142D01*
X-19638Y-8041D01*
X-19704Y-7954D01*
X-19791Y-7888D01*
X-19892Y-7846D01*
X-20000Y-7831D01*
D02*
G37*
G36*
X-21950Y-7838D02*
Y-8200D01*
X-21588D01*
X-21596Y-8142D01*
X-21638Y-8041D01*
X-21704Y-7954D01*
X-21791Y-7888D01*
X-21892Y-7846D01*
X-21950Y-7838D01*
D02*
G37*
G36*
X-22050D02*
X-22108Y-7846D01*
X-22209Y-7888D01*
X-22296Y-7954D01*
X-22362Y-8041D01*
X-22404Y-8142D01*
X-22412Y-8200D01*
X-22050D01*
Y-7838D01*
D02*
G37*
G36*
X-27500Y-7522D02*
X-27624Y-7538D01*
X-27739Y-7586D01*
X-27838Y-7662D01*
X-27914Y-7761D01*
X-27962Y-7876D01*
X-27978Y-8000D01*
X-27962Y-8124D01*
X-27914Y-8239D01*
X-27838Y-8338D01*
X-27739Y-8414D01*
X-27624Y-8462D01*
X-27500Y-8478D01*
X-27376Y-8462D01*
X-27261Y-8414D01*
X-27162Y-8338D01*
X-27086Y-8239D01*
X-27038Y-8124D01*
X-27022Y-8000D01*
X-27038Y-7876D01*
X-27086Y-7761D01*
X-27162Y-7662D01*
X-27261Y-7586D01*
X-27376Y-7538D01*
X-27500Y-7522D01*
D02*
G37*
G36*
X24500Y-8081D02*
X24392Y-8096D01*
X24291Y-8138D01*
X24204Y-8204D01*
X24138Y-8291D01*
X24096Y-8392D01*
X24081Y-8500D01*
X24096Y-8608D01*
X24138Y-8709D01*
X24204Y-8796D01*
X24291Y-8862D01*
X24392Y-8904D01*
X24500Y-8919D01*
X24608Y-8904D01*
X24709Y-8862D01*
X24796Y-8796D01*
X24862Y-8709D01*
X24904Y-8608D01*
X24919Y-8500D01*
X24904Y-8392D01*
X24862Y-8291D01*
X24796Y-8204D01*
X24709Y-8138D01*
X24608Y-8096D01*
X24500Y-8081D01*
D02*
G37*
G36*
X23000D02*
X22892Y-8096D01*
X22791Y-8138D01*
X22704Y-8204D01*
X22638Y-8291D01*
X22596Y-8392D01*
X22581Y-8500D01*
X22596Y-8608D01*
X22638Y-8709D01*
X22704Y-8796D01*
X22791Y-8862D01*
X22892Y-8904D01*
X23000Y-8919D01*
X23108Y-8904D01*
X23209Y-8862D01*
X23296Y-8796D01*
X23362Y-8709D01*
X23404Y-8608D01*
X23419Y-8500D01*
X23404Y-8392D01*
X23362Y-8291D01*
X23296Y-8204D01*
X23209Y-8138D01*
X23108Y-8096D01*
X23000Y-8081D01*
D02*
G37*
G36*
X21500D02*
X21392Y-8096D01*
X21291Y-8138D01*
X21204Y-8204D01*
X21138Y-8291D01*
X21096Y-8392D01*
X21081Y-8500D01*
X21096Y-8608D01*
X21138Y-8709D01*
X21204Y-8796D01*
X21291Y-8862D01*
X21392Y-8904D01*
X21500Y-8919D01*
X21608Y-8904D01*
X21709Y-8862D01*
X21796Y-8796D01*
X21862Y-8709D01*
X21904Y-8608D01*
X21919Y-8500D01*
X21904Y-8392D01*
X21862Y-8291D01*
X21796Y-8204D01*
X21709Y-8138D01*
X21608Y-8096D01*
X21500Y-8081D01*
D02*
G37*
G36*
X29000D02*
X28892Y-8096D01*
X28791Y-8138D01*
X28704Y-8204D01*
X28638Y-8291D01*
X28596Y-8392D01*
X28581Y-8500D01*
X28596Y-8608D01*
X28638Y-8709D01*
X28704Y-8796D01*
X28791Y-8862D01*
X28892Y-8904D01*
X29000Y-8919D01*
X29108Y-8904D01*
X29209Y-8862D01*
X29296Y-8796D01*
X29362Y-8709D01*
X29404Y-8608D01*
X29419Y-8500D01*
X29404Y-8392D01*
X29362Y-8291D01*
X29296Y-8204D01*
X29209Y-8138D01*
X29108Y-8096D01*
X29000Y-8081D01*
D02*
G37*
G36*
X27500D02*
X27392Y-8096D01*
X27291Y-8138D01*
X27204Y-8204D01*
X27138Y-8291D01*
X27096Y-8392D01*
X27081Y-8500D01*
X27096Y-8608D01*
X27138Y-8709D01*
X27204Y-8796D01*
X27291Y-8862D01*
X27392Y-8904D01*
X27500Y-8919D01*
X27608Y-8904D01*
X27709Y-8862D01*
X27796Y-8796D01*
X27862Y-8709D01*
X27904Y-8608D01*
X27919Y-8500D01*
X27904Y-8392D01*
X27862Y-8291D01*
X27796Y-8204D01*
X27709Y-8138D01*
X27608Y-8096D01*
X27500Y-8081D01*
D02*
G37*
G36*
X26000D02*
X25892Y-8096D01*
X25791Y-8138D01*
X25704Y-8204D01*
X25638Y-8291D01*
X25596Y-8392D01*
X25581Y-8500D01*
X25596Y-8608D01*
X25638Y-8709D01*
X25704Y-8796D01*
X25791Y-8862D01*
X25892Y-8904D01*
X26000Y-8919D01*
X26108Y-8904D01*
X26209Y-8862D01*
X26296Y-8796D01*
X26362Y-8709D01*
X26404Y-8608D01*
X26419Y-8500D01*
X26404Y-8392D01*
X26362Y-8291D01*
X26296Y-8204D01*
X26209Y-8138D01*
X26108Y-8096D01*
X26000Y-8081D01*
D02*
G37*
G36*
X-23250Y-6851D02*
X-23353Y-6865D01*
X-23449Y-6905D01*
X-23532Y-6968D01*
X-23595Y-7051D01*
X-23635Y-7147D01*
X-23649Y-7250D01*
X-23635Y-7353D01*
X-23595Y-7449D01*
X-23532Y-7532D01*
X-23449Y-7595D01*
X-23353Y-7635D01*
X-23250Y-7649D01*
X-23147Y-7635D01*
X-23051Y-7595D01*
X-22968Y-7532D01*
X-22905Y-7449D01*
X-22865Y-7353D01*
X-22851Y-7250D01*
X-22865Y-7147D01*
X-22905Y-7051D01*
X-22968Y-6968D01*
X-23051Y-6905D01*
X-23147Y-6865D01*
X-23250Y-6851D01*
D02*
G37*
G36*
X-17300Y-6858D02*
X-17353Y-6865D01*
X-17449Y-6905D01*
X-17532Y-6968D01*
X-17595Y-7051D01*
X-17635Y-7147D01*
X-17642Y-7200D01*
X-17300D01*
Y-6858D01*
D02*
G37*
G36*
X-24355Y-6855D02*
X-24700D01*
Y-7200D01*
X-24355D01*
Y-6855D01*
D02*
G37*
G36*
X-24800D02*
X-25145D01*
Y-7200D01*
X-24800D01*
Y-6855D01*
D02*
G37*
G36*
X10500Y-6081D02*
X10392Y-6096D01*
X10291Y-6138D01*
X10204Y-6204D01*
X10138Y-6291D01*
X10096Y-6392D01*
X10081Y-6500D01*
X10096Y-6608D01*
X10138Y-6709D01*
X10204Y-6796D01*
X10291Y-6862D01*
X10392Y-6904D01*
X10500Y-6919D01*
X10608Y-6904D01*
X10709Y-6862D01*
X10796Y-6796D01*
X10862Y-6709D01*
X10904Y-6608D01*
X10919Y-6500D01*
X10904Y-6392D01*
X10862Y-6291D01*
X10796Y-6204D01*
X10709Y-6138D01*
X10608Y-6096D01*
X10500Y-6081D01*
D02*
G37*
G36*
X9000D02*
X8892Y-6096D01*
X8791Y-6138D01*
X8704Y-6204D01*
X8638Y-6291D01*
X8596Y-6392D01*
X8581Y-6500D01*
X8596Y-6608D01*
X8638Y-6709D01*
X8704Y-6796D01*
X8791Y-6862D01*
X8892Y-6904D01*
X9000Y-6919D01*
X9108Y-6904D01*
X9209Y-6862D01*
X9296Y-6796D01*
X9362Y-6709D01*
X9404Y-6608D01*
X9419Y-6500D01*
X9404Y-6392D01*
X9362Y-6291D01*
X9296Y-6204D01*
X9209Y-6138D01*
X9108Y-6096D01*
X9000Y-6081D01*
D02*
G37*
G36*
X-17200Y-6858D02*
Y-7200D01*
X-16858D01*
X-16865Y-7147D01*
X-16905Y-7051D01*
X-16968Y-6968D01*
X-17051Y-6905D01*
X-17147Y-6865D01*
X-17200Y-6858D01*
D02*
G37*
G36*
X-18355Y-6855D02*
X-19145D01*
Y-7645D01*
X-18355D01*
Y-6855D01*
D02*
G37*
G36*
X-24355Y-7300D02*
X-24700D01*
Y-7645D01*
X-24355D01*
Y-7300D01*
D02*
G37*
G36*
X-24800D02*
X-25145D01*
Y-7645D01*
X-24800D01*
Y-7300D01*
D02*
G37*
G36*
X-12500Y-6601D02*
X-12603Y-6615D01*
X-12699Y-6655D01*
X-12782Y-6718D01*
X-12845Y-6801D01*
X-12885Y-6897D01*
X-12899Y-7000D01*
X-12894Y-7034D01*
X-13606Y-7745D01*
X-14098D01*
X-14162Y-7662D01*
X-14261Y-7586D01*
X-14376Y-7538D01*
X-14500Y-7522D01*
X-14624Y-7538D01*
X-14739Y-7586D01*
X-14838Y-7662D01*
X-14914Y-7761D01*
X-14962Y-7876D01*
X-14978Y-8000D01*
X-14962Y-8124D01*
X-14914Y-8239D01*
X-14838Y-8338D01*
X-14739Y-8414D01*
X-14624Y-8462D01*
X-14500Y-8478D01*
X-14376Y-8462D01*
X-14261Y-8414D01*
X-14162Y-8338D01*
X-14098Y-8255D01*
X-13500D01*
X-13402Y-8235D01*
X-13320Y-8180D01*
Y-8180D01*
X-13320D01*
D01*
D01*
D01*
D01*
D01*
D01*
X-13320D01*
D01*
X-13320D01*
Y-8180D01*
D01*
D01*
D01*
D01*
Y-8180D01*
D01*
D01*
D01*
D01*
D01*
D01*
Y-8180D01*
D01*
D01*
X-13320D01*
D01*
D01*
D01*
X-12534Y-7394D01*
X-12500Y-7399D01*
X-12397Y-7385D01*
X-12301Y-7345D01*
X-12218Y-7282D01*
X-12155Y-7199D01*
X-12115Y-7103D01*
X-12101Y-7000D01*
X-12115Y-6897D01*
X-12155Y-6801D01*
X-12218Y-6718D01*
X-12301Y-6655D01*
X-12397Y-6615D01*
X-12500Y-6601D01*
D02*
G37*
G36*
X-16858Y-7300D02*
X-17200D01*
Y-7642D01*
X-17147Y-7635D01*
X-17051Y-7595D01*
X-16968Y-7532D01*
X-16905Y-7449D01*
X-16865Y-7353D01*
X-16858Y-7300D01*
D02*
G37*
G36*
X-17300D02*
X-17642D01*
X-17635Y-7353D01*
X-17595Y-7449D01*
X-17532Y-7532D01*
X-17449Y-7595D01*
X-17353Y-7635D01*
X-17300Y-7642D01*
Y-7300D01*
D02*
G37*
G36*
X24439Y2450D02*
X23061D01*
X23069Y2365D01*
X23109Y2234D01*
X23173Y2114D01*
X23259Y2009D01*
X23365Y1923D01*
X23484Y1859D01*
X23492Y1857D01*
X23501Y1807D01*
X23468Y1782D01*
X23405Y1699D01*
X23365Y1603D01*
X23358Y1550D01*
X24142D01*
X24135Y1603D01*
X24095Y1699D01*
X24032Y1782D01*
X23999Y1807D01*
X24008Y1857D01*
X24016Y1859D01*
X24135Y1923D01*
X24241Y2009D01*
X24327Y2114D01*
X24391Y2234D01*
X24431Y2365D01*
X24439Y2450D01*
D02*
G37*
G36*
X11941D02*
X10559D01*
Y1809D01*
X10855D01*
Y1550D01*
X11645D01*
Y1809D01*
X11941D01*
Y2450D01*
D02*
G37*
G36*
X-15811D02*
X-17189D01*
X-17181Y2365D01*
X-17141Y2234D01*
X-17077Y2114D01*
X-16991Y2009D01*
X-16886Y1923D01*
X-16766Y1859D01*
X-16758Y1857D01*
X-16749Y1807D01*
X-16782Y1782D01*
X-16845Y1699D01*
X-16885Y1603D01*
X-16892Y1550D01*
X-16108D01*
X-16115Y1603D01*
X-16155Y1699D01*
X-16218Y1782D01*
X-16251Y1807D01*
X-16242Y1857D01*
X-16234Y1859D01*
X-16114Y1923D01*
X-16009Y2009D01*
X-15923Y2114D01*
X-15859Y2234D01*
X-15819Y2365D01*
X-15811Y2450D01*
D02*
G37*
G36*
X-25550Y3191D02*
X-26191D01*
Y2550D01*
X-25550D01*
Y3191D01*
D02*
G37*
G36*
X1969Y3037D02*
X1845Y3021D01*
X1729Y2973D01*
X1630Y2897D01*
X1554Y2798D01*
X1507Y2683D01*
X1490Y2559D01*
X1507Y2435D01*
X1554Y2320D01*
X1630Y2221D01*
X1729Y2145D01*
X1845Y2097D01*
X1969Y2081D01*
X2092Y2097D01*
X2208Y2145D01*
X2307Y2221D01*
X2383Y2320D01*
X2430Y2435D01*
X2447Y2559D01*
X2430Y2683D01*
X2383Y2798D01*
X2307Y2897D01*
X2208Y2973D01*
X2092Y3021D01*
X1969Y3037D01*
D02*
G37*
G36*
X-1969D02*
X-2092Y3021D01*
X-2208Y2973D01*
X-2307Y2897D01*
X-2383Y2798D01*
X-2430Y2683D01*
X-2447Y2559D01*
X-2430Y2435D01*
X-2383Y2320D01*
X-2307Y2221D01*
X-2208Y2145D01*
X-2092Y2097D01*
X-1969Y2081D01*
X-1845Y2097D01*
X-1729Y2145D01*
X-1630Y2221D01*
X-1554Y2320D01*
X-1507Y2435D01*
X-1490Y2559D01*
X-1507Y2683D01*
X-1554Y2798D01*
X-1630Y2897D01*
X-1729Y2973D01*
X-1845Y3021D01*
X-1969Y3037D01*
D02*
G37*
G36*
X-16108Y1450D02*
X-16450D01*
Y1108D01*
X-16397Y1115D01*
X-16301Y1155D01*
X-16218Y1218D01*
X-16155Y1301D01*
X-16115Y1397D01*
X-16108Y1450D01*
D02*
G37*
G36*
X-16550D02*
X-16892D01*
X-16885Y1397D01*
X-16845Y1301D01*
X-16782Y1218D01*
X-16699Y1155D01*
X-16603Y1115D01*
X-16550Y1108D01*
Y1450D01*
D02*
G37*
G36*
X11645D02*
X11300D01*
Y1105D01*
X11645D01*
Y1450D01*
D02*
G37*
G36*
X-24809Y2450D02*
X-26191D01*
Y1809D01*
X-25895D01*
Y1550D01*
X-25105D01*
Y1809D01*
X-24809D01*
Y2450D01*
D02*
G37*
G36*
X24142Y1450D02*
X23800D01*
Y1108D01*
X23853Y1115D01*
X23949Y1155D01*
X24032Y1218D01*
X24095Y1301D01*
X24135Y1397D01*
X24142Y1450D01*
D02*
G37*
G36*
X23700D02*
X23358D01*
X23365Y1397D01*
X23405Y1301D01*
X23468Y1218D01*
X23551Y1155D01*
X23647Y1115D01*
X23700Y1108D01*
Y1450D01*
D02*
G37*
G36*
X-24809Y3191D02*
X-25450D01*
Y2550D01*
X-24809D01*
Y3191D01*
D02*
G37*
G36*
X-1000Y11978D02*
X-1124Y11962D01*
X-1239Y11914D01*
X-1338Y11838D01*
X-1414Y11739D01*
X-1462Y11624D01*
X-1478Y11500D01*
X-1462Y11376D01*
X-1414Y11261D01*
X-1338Y11162D01*
X-1239Y11086D01*
X-1124Y11038D01*
X-1000Y11022D01*
X-876Y11038D01*
X-761Y11086D01*
X-662Y11162D01*
X-586Y11261D01*
X-538Y11376D01*
X-522Y11500D01*
X-538Y11624D01*
X-586Y11739D01*
X-662Y11838D01*
X-761Y11914D01*
X-876Y11962D01*
X-1000Y11978D01*
D02*
G37*
G36*
X1000Y7978D02*
X876Y7962D01*
X761Y7914D01*
X662Y7838D01*
X586Y7739D01*
X538Y7624D01*
X522Y7500D01*
X538Y7376D01*
X586Y7261D01*
X662Y7162D01*
X761Y7086D01*
X876Y7038D01*
X1000Y7022D01*
X1124Y7038D01*
X1239Y7086D01*
X1338Y7162D01*
X1414Y7261D01*
X1462Y7376D01*
X1478Y7500D01*
X1462Y7624D01*
X1414Y7739D01*
X1338Y7838D01*
X1239Y7914D01*
X1124Y7962D01*
X1000Y7978D01*
D02*
G37*
G36*
X-1000D02*
X-1124Y7962D01*
X-1239Y7914D01*
X-1338Y7838D01*
X-1414Y7739D01*
X-1462Y7624D01*
X-1478Y7500D01*
X-1462Y7376D01*
X-1414Y7261D01*
X-1338Y7162D01*
X-1239Y7086D01*
X-1124Y7038D01*
X-1000Y7022D01*
X-876Y7038D01*
X-761Y7086D01*
X-662Y7162D01*
X-586Y7261D01*
X-538Y7376D01*
X-522Y7500D01*
X-538Y7624D01*
X-586Y7739D01*
X-662Y7838D01*
X-761Y7914D01*
X-876Y7962D01*
X-1000Y7978D01*
D02*
G37*
G36*
X927Y13935D02*
X57D01*
Y13065D01*
X927D01*
Y13935D01*
D02*
G37*
G36*
X-492Y13938D02*
X-606Y13923D01*
X-711Y13880D01*
X-802Y13810D01*
X-872Y13719D01*
X-916Y13613D01*
X-931Y13500D01*
X-916Y13387D01*
X-872Y13281D01*
X-802Y13190D01*
X-711Y13120D01*
X-606Y13077D01*
X-492Y13062D01*
X-379Y13077D01*
X-273Y13120D01*
X-182Y13190D01*
X-112Y13281D01*
X-69Y13387D01*
X-54Y13500D01*
X-69Y13613D01*
X-112Y13719D01*
X-182Y13810D01*
X-273Y13880D01*
X-379Y13923D01*
X-492Y13938D01*
D02*
G37*
G36*
X1000Y11978D02*
X876Y11962D01*
X761Y11914D01*
X662Y11838D01*
X586Y11739D01*
X538Y11624D01*
X522Y11500D01*
X538Y11376D01*
X586Y11261D01*
X662Y11162D01*
X761Y11086D01*
X876Y11038D01*
X1000Y11022D01*
X1124Y11038D01*
X1239Y11086D01*
X1338Y11162D01*
X1414Y11261D01*
X1462Y11376D01*
X1478Y11500D01*
X1462Y11624D01*
X1414Y11739D01*
X1338Y11838D01*
X1239Y11914D01*
X1124Y11962D01*
X1000Y11978D01*
D02*
G37*
G36*
X11200Y3191D02*
X10559D01*
Y2550D01*
X11200D01*
Y3191D01*
D02*
G37*
G36*
X-16450Y3189D02*
Y2550D01*
X-15811D01*
X-15819Y2635D01*
X-15859Y2766D01*
X-15923Y2885D01*
X-16009Y2991D01*
X-16114Y3077D01*
X-16234Y3141D01*
X-16365Y3181D01*
X-16450Y3189D01*
D02*
G37*
G36*
X-16550D02*
X-16635Y3181D01*
X-16766Y3141D01*
X-16886Y3077D01*
X-16991Y2991D01*
X-17077Y2885D01*
X-17141Y2766D01*
X-17181Y2635D01*
X-17189Y2550D01*
X-16550D01*
Y3189D01*
D02*
G37*
G36*
X23800D02*
Y2550D01*
X24439D01*
X24431Y2635D01*
X24391Y2766D01*
X24327Y2885D01*
X24241Y2991D01*
X24135Y3077D01*
X24016Y3141D01*
X23885Y3181D01*
X23800Y3189D01*
D02*
G37*
G36*
X23700D02*
X23615Y3181D01*
X23484Y3141D01*
X23365Y3077D01*
X23259Y2991D01*
X23173Y2885D01*
X23109Y2766D01*
X23069Y2635D01*
X23061Y2550D01*
X23700D01*
Y3189D01*
D02*
G37*
G36*
X11941Y3191D02*
X11300D01*
Y2550D01*
X11941D01*
Y3191D01*
D02*
G37*
G36*
X20050Y-6088D02*
Y-6450D01*
X20412D01*
X20404Y-6392D01*
X20362Y-6291D01*
X20296Y-6204D01*
X20209Y-6138D01*
X20108Y-6096D01*
X20050Y-6088D01*
D02*
G37*
G36*
X19950D02*
X19892Y-6096D01*
X19791Y-6138D01*
X19704Y-6204D01*
X19638Y-6291D01*
X19596Y-6392D01*
X19588Y-6450D01*
X19950D01*
Y-6088D01*
D02*
G37*
G36*
X18550D02*
Y-6450D01*
X18912D01*
X18904Y-6392D01*
X18862Y-6291D01*
X18796Y-6204D01*
X18709Y-6138D01*
X18608Y-6096D01*
X18550Y-6088D01*
D02*
G37*
G36*
X28950D02*
X28892Y-6096D01*
X28791Y-6138D01*
X28704Y-6204D01*
X28638Y-6291D01*
X28596Y-6392D01*
X28588Y-6450D01*
X28950D01*
Y-6088D01*
D02*
G37*
G36*
X27550D02*
Y-6450D01*
X27912D01*
X27904Y-6392D01*
X27862Y-6291D01*
X27796Y-6204D01*
X27709Y-6138D01*
X27608Y-6096D01*
X27550Y-6088D01*
D02*
G37*
G36*
X27450D02*
X27392Y-6096D01*
X27291Y-6138D01*
X27204Y-6204D01*
X27138Y-6291D01*
X27096Y-6392D01*
X27088Y-6450D01*
X27450D01*
Y-6088D01*
D02*
G37*
G36*
X15050D02*
Y-6450D01*
X15412D01*
X15404Y-6392D01*
X15362Y-6291D01*
X15296Y-6204D01*
X15209Y-6138D01*
X15108Y-6096D01*
X15050Y-6088D01*
D02*
G37*
G36*
X14950D02*
X14892Y-6096D01*
X14791Y-6138D01*
X14704Y-6204D01*
X14638Y-6291D01*
X14596Y-6392D01*
X14588Y-6450D01*
X14950D01*
Y-6088D01*
D02*
G37*
G36*
X7550D02*
Y-6450D01*
X7912D01*
X7904Y-6392D01*
X7862Y-6291D01*
X7796Y-6204D01*
X7709Y-6138D01*
X7608Y-6096D01*
X7550Y-6088D01*
D02*
G37*
G36*
X18450D02*
X18392Y-6096D01*
X18291Y-6138D01*
X18204Y-6204D01*
X18138Y-6291D01*
X18096Y-6392D01*
X18088Y-6450D01*
X18450D01*
Y-6088D01*
D02*
G37*
G36*
X16550D02*
Y-6450D01*
X16912D01*
X16904Y-6392D01*
X16862Y-6291D01*
X16796Y-6204D01*
X16709Y-6138D01*
X16608Y-6096D01*
X16550Y-6088D01*
D02*
G37*
G36*
X16450D02*
X16392Y-6096D01*
X16291Y-6138D01*
X16204Y-6204D01*
X16138Y-6291D01*
X16096Y-6392D01*
X16088Y-6450D01*
X16450D01*
Y-6088D01*
D02*
G37*
G36*
X29050D02*
Y-6450D01*
X29412D01*
X29404Y-6392D01*
X29362Y-6291D01*
X29296Y-6204D01*
X29209Y-6138D01*
X29108Y-6096D01*
X29050Y-6088D01*
D02*
G37*
G36*
X11550Y899D02*
X11447Y885D01*
X11369Y853D01*
X11250D01*
X11250Y853D01*
X11159Y841D01*
X11073Y806D01*
X11000Y750D01*
X10126Y-124D01*
X10103Y-115D01*
X10000Y-101D01*
X9897Y-115D01*
X9801Y-155D01*
X9718Y-218D01*
X9655Y-301D01*
X9615Y-397D01*
X9601Y-500D01*
X9615Y-603D01*
X9655Y-699D01*
X9718Y-782D01*
X9801Y-845D01*
X9897Y-885D01*
X10000Y-899D01*
X10103Y-885D01*
X10181Y-853D01*
X10250D01*
X10341Y-841D01*
X10427Y-806D01*
X10500Y-750D01*
X10812Y-437D01*
X10857Y-460D01*
X10851Y-500D01*
X10865Y-603D01*
X10905Y-699D01*
X10968Y-782D01*
X11001Y-807D01*
X10992Y-857D01*
X10984Y-859D01*
X10864Y-923D01*
X10759Y-1009D01*
X10673Y-1115D01*
X10609Y-1234D01*
X10569Y-1365D01*
X10556Y-1500D01*
X10569Y-1635D01*
X10609Y-1766D01*
X10673Y-1885D01*
X10759Y-1991D01*
X10864Y-2077D01*
X10984Y-2141D01*
X11115Y-2181D01*
X11250Y-2194D01*
X11385Y-2181D01*
X11516Y-2141D01*
X11636Y-2077D01*
X11741Y-1991D01*
X11827Y-1885D01*
X11891Y-1766D01*
X11931Y-1635D01*
X11944Y-1500D01*
X11931Y-1365D01*
X11891Y-1234D01*
X11827Y-1115D01*
X11741Y-1009D01*
X11636Y-923D01*
X11516Y-859D01*
X11508Y-857D01*
X11499Y-807D01*
X11532Y-782D01*
X11595Y-699D01*
X11635Y-603D01*
X11649Y-500D01*
X11635Y-397D01*
X11595Y-301D01*
X11532Y-218D01*
X11449Y-155D01*
X11353Y-115D01*
X11250Y-101D01*
X11210Y-107D01*
X11187Y-62D01*
X11388Y139D01*
X11447Y115D01*
X11550Y101D01*
X11653Y115D01*
X11749Y155D01*
X11832Y218D01*
X11895Y301D01*
X11935Y397D01*
X11949Y500D01*
X11935Y603D01*
X11895Y699D01*
X11832Y782D01*
X11749Y845D01*
X11653Y885D01*
X11550Y899D01*
D02*
G37*
G36*
X24145Y-105D02*
X23355D01*
Y-809D01*
X23059D01*
Y-2191D01*
X24441D01*
Y-809D01*
X24145D01*
Y-105D01*
D02*
G37*
G36*
X-16105D02*
X-16895D01*
Y-809D01*
X-17191D01*
Y-2191D01*
X-15809D01*
Y-809D01*
X-16105D01*
Y-105D01*
D02*
G37*
G36*
X11200Y1450D02*
X10855D01*
Y1105D01*
X11200D01*
Y1450D01*
D02*
G37*
G36*
X-25105D02*
X-25450D01*
Y1105D01*
X-25105D01*
Y1450D01*
D02*
G37*
G36*
X-25550D02*
X-25895D01*
Y1105D01*
X-25550D01*
Y1450D01*
D02*
G37*
G36*
X-20500Y-4272D02*
X-20624Y-4288D01*
X-20739Y-4336D01*
X-20838Y-4412D01*
X-20914Y-4511D01*
X-20962Y-4626D01*
X-20975Y-4726D01*
X-21025D01*
X-21038Y-4626D01*
X-21086Y-4511D01*
X-21162Y-4412D01*
X-21261Y-4336D01*
X-21376Y-4288D01*
X-21500Y-4272D01*
X-21624Y-4288D01*
X-21739Y-4336D01*
X-21838Y-4412D01*
X-21914Y-4511D01*
X-21962Y-4626D01*
X-21978Y-4750D01*
X-21962Y-4874D01*
X-21914Y-4989D01*
X-21838Y-5088D01*
X-21739Y-5164D01*
X-21624Y-5212D01*
X-21500Y-5228D01*
X-21376Y-5212D01*
X-21261Y-5164D01*
X-21162Y-5088D01*
X-21086Y-4989D01*
X-21038Y-4874D01*
X-21025Y-4774D01*
X-20975D01*
X-20962Y-4874D01*
X-20914Y-4989D01*
X-20838Y-5088D01*
X-20739Y-5164D01*
X-20624Y-5212D01*
X-20500Y-5228D01*
X-20376Y-5212D01*
X-20261Y-5164D01*
X-20162Y-5088D01*
X-20086Y-4989D01*
X-20038Y-4874D01*
X-20022Y-4750D01*
X-20038Y-4626D01*
X-20086Y-4511D01*
X-20162Y-4412D01*
X-20261Y-4336D01*
X-20376Y-4288D01*
X-20500Y-4272D01*
D02*
G37*
G36*
X-16500D02*
X-16624Y-4288D01*
X-16739Y-4336D01*
X-16838Y-4412D01*
X-16914Y-4511D01*
X-16962Y-4626D01*
X-16978Y-4750D01*
X-16962Y-4874D01*
X-16914Y-4989D01*
X-16838Y-5088D01*
X-16739Y-5164D01*
X-16624Y-5212D01*
X-16500Y-5228D01*
X-16376Y-5212D01*
X-16261Y-5164D01*
X-16162Y-5088D01*
X-16086Y-4989D01*
X-16038Y-4874D01*
X-16022Y-4750D01*
X-16038Y-4626D01*
X-16086Y-4511D01*
X-16162Y-4412D01*
X-16261Y-4336D01*
X-16376Y-4288D01*
X-16500Y-4272D01*
D02*
G37*
G36*
X-25500D02*
X-25624Y-4288D01*
X-25739Y-4336D01*
X-25838Y-4412D01*
X-25914Y-4511D01*
X-25962Y-4626D01*
X-25978Y-4750D01*
X-25962Y-4874D01*
X-25914Y-4989D01*
X-25838Y-5088D01*
X-25739Y-5164D01*
X-25624Y-5212D01*
X-25500Y-5228D01*
X-25376Y-5212D01*
X-25261Y-5164D01*
X-25162Y-5088D01*
X-25086Y-4989D01*
X-25038Y-4874D01*
X-25022Y-4750D01*
X-25038Y-4626D01*
X-25086Y-4511D01*
X-25162Y-4412D01*
X-25261Y-4336D01*
X-25376Y-4288D01*
X-25500Y-4272D01*
D02*
G37*
G36*
Y-101D02*
X-25603Y-115D01*
X-25699Y-155D01*
X-25782Y-218D01*
X-25845Y-301D01*
X-25885Y-397D01*
X-25899Y-500D01*
X-25885Y-603D01*
X-25845Y-699D01*
X-25782Y-782D01*
X-25749Y-807D01*
X-25758Y-857D01*
X-25766Y-859D01*
X-25886Y-923D01*
X-25991Y-1009D01*
X-26077Y-1115D01*
X-26141Y-1234D01*
X-26181Y-1365D01*
X-26194Y-1500D01*
X-26181Y-1635D01*
X-26141Y-1766D01*
X-26077Y-1885D01*
X-25991Y-1991D01*
X-25886Y-2077D01*
X-25766Y-2141D01*
X-25635Y-2181D01*
X-25500Y-2194D01*
X-25365Y-2181D01*
X-25234Y-2141D01*
X-25115Y-2077D01*
X-25009Y-1991D01*
X-24923Y-1885D01*
X-24859Y-1766D01*
X-24819Y-1635D01*
X-24806Y-1500D01*
X-24819Y-1365D01*
X-24859Y-1234D01*
X-24923Y-1115D01*
X-25009Y-1009D01*
X-25115Y-923D01*
X-25234Y-859D01*
X-25242Y-857D01*
X-25251Y-807D01*
X-25218Y-782D01*
X-25155Y-699D01*
X-25115Y-603D01*
X-25101Y-500D01*
X-25115Y-397D01*
X-25155Y-301D01*
X-25218Y-218D01*
X-25301Y-155D01*
X-25397Y-115D01*
X-25500Y-101D01*
D02*
G37*
G36*
X1969Y-2081D02*
X1845Y-2097D01*
X1729Y-2145D01*
X1630Y-2221D01*
X1554Y-2320D01*
X1507Y-2435D01*
X1490Y-2559D01*
X1507Y-2683D01*
X1554Y-2798D01*
X1630Y-2897D01*
X1729Y-2973D01*
X1845Y-3021D01*
X1969Y-3037D01*
X2092Y-3021D01*
X2208Y-2973D01*
X2307Y-2897D01*
X2383Y-2798D01*
X2430Y-2683D01*
X2447Y-2559D01*
X2430Y-2435D01*
X2383Y-2320D01*
X2307Y-2221D01*
X2208Y-2145D01*
X2092Y-2097D01*
X1969Y-2081D01*
D02*
G37*
G36*
X-1969D02*
X-2092Y-2097D01*
X-2208Y-2145D01*
X-2307Y-2221D01*
X-2383Y-2320D01*
X-2430Y-2435D01*
X-2447Y-2559D01*
X-2430Y-2683D01*
X-2383Y-2798D01*
X-2307Y-2897D01*
X-2208Y-2973D01*
X-2092Y-3021D01*
X-1969Y-3037D01*
X-1845Y-3021D01*
X-1729Y-2973D01*
X-1630Y-2897D01*
X-1554Y-2798D01*
X-1507Y-2683D01*
X-1490Y-2559D01*
X-1507Y-2435D01*
X-1554Y-2320D01*
X-1630Y-2221D01*
X-1729Y-2145D01*
X-1845Y-2097D01*
X-1969Y-2081D01*
D02*
G37*
G36*
X-27550Y-12778D02*
X-27624Y-12788D01*
X-27739Y-12836D01*
X-27838Y-12912D01*
X-27914Y-13011D01*
X-27962Y-13126D01*
X-27972Y-13200D01*
X-27550D01*
Y-12778D01*
D02*
G37*
G36*
X-14028Y-13300D02*
X-14450D01*
Y-13722D01*
X-14376Y-13712D01*
X-14261Y-13664D01*
X-14162Y-13588D01*
X-14086Y-13489D01*
X-14038Y-13374D01*
X-14028Y-13300D01*
D02*
G37*
G36*
X-14550D02*
X-14972D01*
X-14962Y-13374D01*
X-14914Y-13489D01*
X-14838Y-13588D01*
X-14739Y-13664D01*
X-14624Y-13712D01*
X-14550Y-13722D01*
Y-13300D01*
D02*
G37*
G36*
X-14450Y-12778D02*
Y-13200D01*
X-14028D01*
X-14038Y-13126D01*
X-14086Y-13011D01*
X-14162Y-12912D01*
X-14261Y-12836D01*
X-14376Y-12788D01*
X-14450Y-12778D01*
D02*
G37*
G36*
X-14550D02*
X-14624Y-12788D01*
X-14739Y-12836D01*
X-14838Y-12912D01*
X-14914Y-13011D01*
X-14962Y-13126D01*
X-14972Y-13200D01*
X-14550D01*
Y-12778D01*
D02*
G37*
G36*
X-27450D02*
Y-13200D01*
X-27028D01*
X-27038Y-13126D01*
X-27086Y-13011D01*
X-27162Y-12912D01*
X-27261Y-12836D01*
X-27376Y-12788D01*
X-27450Y-12778D01*
D02*
G37*
G36*
X26435Y-13065D02*
X25565D01*
Y-13935D01*
X26435D01*
Y-13065D01*
D02*
G37*
G36*
X21935D02*
X21065D01*
Y-13935D01*
X21935D01*
Y-13065D01*
D02*
G37*
G36*
X15435D02*
X14565D01*
Y-13935D01*
X15435D01*
Y-13065D01*
D02*
G37*
G36*
X-27028Y-13300D02*
X-27450D01*
Y-13722D01*
X-27376Y-13712D01*
X-27261Y-13664D01*
X-27162Y-13588D01*
X-27086Y-13489D01*
X-27038Y-13374D01*
X-27028Y-13300D01*
D02*
G37*
G36*
X-27550D02*
X-27972D01*
X-27962Y-13374D01*
X-27914Y-13489D01*
X-27838Y-13588D01*
X-27739Y-13664D01*
X-27624Y-13712D01*
X-27550Y-13722D01*
Y-13300D01*
D02*
G37*
G36*
X-18500Y-12772D02*
X-18624Y-12788D01*
X-18739Y-12836D01*
X-18838Y-12912D01*
X-18914Y-13011D01*
X-18962Y-13126D01*
X-18978Y-13250D01*
X-18962Y-13374D01*
X-18914Y-13489D01*
X-18838Y-13588D01*
X-18739Y-13664D01*
X-18624Y-13712D01*
X-18500Y-13728D01*
X-18376Y-13712D01*
X-18261Y-13664D01*
X-18162Y-13588D01*
X-18086Y-13489D01*
X-18038Y-13374D01*
X-18022Y-13250D01*
X-18038Y-13126D01*
X-18086Y-13011D01*
X-18162Y-12912D01*
X-18261Y-12836D01*
X-18376Y-12788D01*
X-18500Y-12772D01*
D02*
G37*
G36*
X-19500Y-12081D02*
X-19608Y-12096D01*
X-19709Y-12138D01*
X-19796Y-12204D01*
X-19862Y-12291D01*
X-19904Y-12392D01*
X-19919Y-12500D01*
X-19904Y-12608D01*
X-19862Y-12709D01*
X-19796Y-12796D01*
X-19709Y-12862D01*
X-19608Y-12904D01*
X-19500Y-12919D01*
X-19392Y-12904D01*
X-19291Y-12862D01*
X-19204Y-12796D01*
X-19138Y-12709D01*
X-19096Y-12608D01*
X-19081Y-12500D01*
X-19096Y-12392D01*
X-19138Y-12291D01*
X-19204Y-12204D01*
X-19291Y-12138D01*
X-19392Y-12096D01*
X-19500Y-12081D01*
D02*
G37*
G36*
X-27450Y-11528D02*
Y-11950D01*
X-27028D01*
X-27038Y-11876D01*
X-27086Y-11761D01*
X-27162Y-11662D01*
X-27261Y-11586D01*
X-27376Y-11538D01*
X-27450Y-11528D01*
D02*
G37*
G36*
X-27550D02*
X-27624Y-11538D01*
X-27739Y-11586D01*
X-27838Y-11662D01*
X-27914Y-11761D01*
X-27962Y-11876D01*
X-27972Y-11950D01*
X-27550D01*
Y-11528D01*
D02*
G37*
G36*
X-14028Y-12050D02*
X-14450D01*
Y-12472D01*
X-14376Y-12462D01*
X-14261Y-12414D01*
X-14162Y-12338D01*
X-14086Y-12239D01*
X-14038Y-12124D01*
X-14028Y-12050D01*
D02*
G37*
G36*
X-19500Y-11081D02*
X-19608Y-11096D01*
X-19709Y-11138D01*
X-19796Y-11204D01*
X-19862Y-11291D01*
X-19904Y-11392D01*
X-19919Y-11500D01*
X-19904Y-11608D01*
X-19862Y-11709D01*
X-19796Y-11796D01*
X-19709Y-11862D01*
X-19608Y-11904D01*
X-19500Y-11919D01*
X-19392Y-11904D01*
X-19291Y-11862D01*
X-19204Y-11796D01*
X-19138Y-11709D01*
X-19096Y-11608D01*
X-19081Y-11500D01*
X-19096Y-11392D01*
X-19138Y-11291D01*
X-19204Y-11204D01*
X-19291Y-11138D01*
X-19392Y-11096D01*
X-19500Y-11081D01*
D02*
G37*
G36*
X-14450Y-11528D02*
Y-11950D01*
X-14028D01*
X-14038Y-11876D01*
X-14086Y-11761D01*
X-14162Y-11662D01*
X-14261Y-11586D01*
X-14376Y-11538D01*
X-14450Y-11528D01*
D02*
G37*
G36*
X-14550D02*
X-14624Y-11538D01*
X-14739Y-11586D01*
X-14838Y-11662D01*
X-14914Y-11761D01*
X-14962Y-11876D01*
X-14972Y-11950D01*
X-14550D01*
Y-11528D01*
D02*
G37*
G36*
X-18500Y-11522D02*
X-18624Y-11538D01*
X-18739Y-11586D01*
X-18838Y-11662D01*
X-18914Y-11761D01*
X-18962Y-11876D01*
X-18978Y-12000D01*
X-18962Y-12124D01*
X-18914Y-12239D01*
X-18838Y-12338D01*
X-18739Y-12414D01*
X-18624Y-12462D01*
X-18500Y-12478D01*
X-18376Y-12462D01*
X-18261Y-12414D01*
X-18162Y-12338D01*
X-18086Y-12239D01*
X-18038Y-12124D01*
X-18022Y-12000D01*
X-18038Y-11876D01*
X-18086Y-11761D01*
X-18162Y-11662D01*
X-18261Y-11586D01*
X-18376Y-11538D01*
X-18500Y-11522D01*
D02*
G37*
G36*
X-23500D02*
X-23624Y-11538D01*
X-23739Y-11586D01*
X-23838Y-11662D01*
X-23914Y-11761D01*
X-23962Y-11876D01*
X-23978Y-12000D01*
X-23962Y-12124D01*
X-23914Y-12239D01*
X-23838Y-12338D01*
X-23739Y-12414D01*
X-23624Y-12462D01*
X-23500Y-12478D01*
X-23376Y-12462D01*
X-23261Y-12414D01*
X-23162Y-12338D01*
X-23086Y-12239D01*
X-23038Y-12124D01*
X-23022Y-12000D01*
X-23038Y-11876D01*
X-23086Y-11761D01*
X-23162Y-11662D01*
X-23261Y-11586D01*
X-23376Y-11538D01*
X-23500Y-11522D01*
D02*
G37*
G36*
X-22500Y-11081D02*
X-22608Y-11096D01*
X-22709Y-11138D01*
X-22796Y-11204D01*
X-22862Y-11291D01*
X-22904Y-11392D01*
X-22919Y-11500D01*
X-22904Y-11608D01*
X-22862Y-11709D01*
X-22796Y-11796D01*
X-22709Y-11862D01*
X-22608Y-11904D01*
X-22500Y-11919D01*
X-22392Y-11904D01*
X-22291Y-11862D01*
X-22204Y-11796D01*
X-22173Y-11755D01*
X-22106D01*
X-22005Y-11856D01*
Y-12544D01*
X-22045Y-12584D01*
X-22090Y-12562D01*
X-22081Y-12500D01*
X-22096Y-12392D01*
X-22138Y-12291D01*
X-22204Y-12204D01*
X-22291Y-12138D01*
X-22392Y-12096D01*
X-22500Y-12081D01*
X-22608Y-12096D01*
X-22709Y-12138D01*
X-22796Y-12204D01*
X-22862Y-12291D01*
X-22904Y-12392D01*
X-22919Y-12500D01*
X-22904Y-12608D01*
X-22862Y-12709D01*
X-22796Y-12796D01*
X-22709Y-12862D01*
X-22608Y-12904D01*
X-22500Y-12919D01*
X-22438Y-12910D01*
X-22416Y-12955D01*
X-22456Y-12995D01*
X-23098D01*
X-23162Y-12912D01*
X-23261Y-12836D01*
X-23376Y-12788D01*
X-23500Y-12772D01*
X-23624Y-12788D01*
X-23739Y-12836D01*
X-23838Y-12912D01*
X-23914Y-13011D01*
X-23962Y-13126D01*
X-23978Y-13250D01*
X-23962Y-13374D01*
X-23914Y-13489D01*
X-23838Y-13588D01*
X-23739Y-13664D01*
X-23624Y-13712D01*
X-23500Y-13728D01*
X-23376Y-13712D01*
X-23261Y-13664D01*
X-23162Y-13588D01*
X-23098Y-13505D01*
X-22409D01*
X-22375Y-13531D01*
X-22365Y-13546D01*
X-22404Y-13642D01*
X-22419Y-13750D01*
X-22404Y-13858D01*
X-22362Y-13959D01*
X-22296Y-14046D01*
X-22209Y-14112D01*
X-22108Y-14154D01*
X-22000Y-14169D01*
X-21892Y-14154D01*
X-21791Y-14112D01*
X-21704Y-14046D01*
X-21638Y-13959D01*
X-21596Y-13858D01*
X-21581Y-13750D01*
X-21596Y-13642D01*
X-21638Y-13541D01*
X-21704Y-13454D01*
X-21791Y-13388D01*
X-21892Y-13346D01*
X-22000Y-13331D01*
X-22005Y-13332D01*
X-22027Y-13287D01*
X-21570Y-12830D01*
X-21514Y-12748D01*
X-21495Y-12650D01*
Y-11750D01*
X-21514Y-11652D01*
X-21570Y-11570D01*
X-21820Y-11320D01*
X-21902Y-11264D01*
X-22000Y-11245D01*
X-22173D01*
X-22204Y-11204D01*
X-22291Y-11138D01*
X-22392Y-11096D01*
X-22500Y-11081D01*
D02*
G37*
G36*
X-14550Y-12050D02*
X-14972D01*
X-14962Y-12124D01*
X-14914Y-12239D01*
X-14838Y-12338D01*
X-14739Y-12414D01*
X-14624Y-12462D01*
X-14550Y-12472D01*
Y-12050D01*
D02*
G37*
G36*
X-27028D02*
X-27450D01*
Y-12472D01*
X-27376Y-12462D01*
X-27261Y-12414D01*
X-27162Y-12338D01*
X-27086Y-12239D01*
X-27038Y-12124D01*
X-27028Y-12050D01*
D02*
G37*
G36*
X-27550D02*
X-27972D01*
X-27962Y-12124D01*
X-27914Y-12239D01*
X-27838Y-12338D01*
X-27739Y-12414D01*
X-27624Y-12462D01*
X-27550Y-12472D01*
Y-12050D01*
D02*
G37*
G36*
X-14500Y-14022D02*
X-14624Y-14038D01*
X-14739Y-14086D01*
X-14838Y-14162D01*
X-14914Y-14261D01*
X-14962Y-14376D01*
X-14978Y-14500D01*
X-14962Y-14624D01*
X-14914Y-14739D01*
X-14838Y-14838D01*
X-14739Y-14914D01*
X-14624Y-14962D01*
X-14500Y-14978D01*
X-14376Y-14962D01*
X-14261Y-14914D01*
X-14162Y-14838D01*
X-14086Y-14739D01*
X-14038Y-14624D01*
X-14022Y-14500D01*
X-14038Y-14376D01*
X-14086Y-14261D01*
X-14162Y-14162D01*
X-14261Y-14086D01*
X-14376Y-14038D01*
X-14500Y-14022D01*
D02*
G37*
G36*
X-18500D02*
X-18624Y-14038D01*
X-18739Y-14086D01*
X-18838Y-14162D01*
X-18914Y-14261D01*
X-18962Y-14376D01*
X-18978Y-14500D01*
X-18962Y-14624D01*
X-18914Y-14739D01*
X-18838Y-14838D01*
X-18739Y-14914D01*
X-18624Y-14962D01*
X-18500Y-14978D01*
X-18376Y-14962D01*
X-18261Y-14914D01*
X-18162Y-14838D01*
X-18086Y-14739D01*
X-18038Y-14624D01*
X-18022Y-14500D01*
X-18038Y-14376D01*
X-18086Y-14261D01*
X-18162Y-14162D01*
X-18261Y-14086D01*
X-18376Y-14038D01*
X-18500Y-14022D01*
D02*
G37*
G36*
X-23500D02*
X-23624Y-14038D01*
X-23739Y-14086D01*
X-23838Y-14162D01*
X-23914Y-14261D01*
X-23962Y-14376D01*
X-23978Y-14500D01*
X-23962Y-14624D01*
X-23914Y-14739D01*
X-23838Y-14838D01*
X-23739Y-14914D01*
X-23624Y-14962D01*
X-23500Y-14978D01*
X-23376Y-14962D01*
X-23261Y-14914D01*
X-23162Y-14838D01*
X-23086Y-14739D01*
X-23038Y-14624D01*
X-23022Y-14500D01*
X-23038Y-14376D01*
X-23086Y-14261D01*
X-23162Y-14162D01*
X-23261Y-14086D01*
X-23376Y-14038D01*
X-23500Y-14022D01*
D02*
G37*
G36*
X-20000Y-13331D02*
X-20108Y-13346D01*
X-20209Y-13388D01*
X-20296Y-13454D01*
X-20362Y-13541D01*
X-20404Y-13642D01*
X-20419Y-13750D01*
X-20404Y-13858D01*
X-20362Y-13959D01*
X-20296Y-14046D01*
X-20209Y-14112D01*
X-20108Y-14154D01*
X-20000Y-14169D01*
X-19892Y-14154D01*
X-19791Y-14112D01*
X-19704Y-14046D01*
X-19638Y-13959D01*
X-19596Y-13858D01*
X-19581Y-13750D01*
X-19596Y-13642D01*
X-19638Y-13541D01*
X-19704Y-13454D01*
X-19791Y-13388D01*
X-19892Y-13346D01*
X-20000Y-13331D01*
D02*
G37*
G36*
X-19950Y-14338D02*
Y-14700D01*
X-19588D01*
X-19596Y-14642D01*
X-19638Y-14541D01*
X-19704Y-14454D01*
X-19791Y-14388D01*
X-19892Y-14346D01*
X-19950Y-14338D01*
D02*
G37*
G36*
X-20050D02*
X-20108Y-14346D01*
X-20209Y-14388D01*
X-20296Y-14454D01*
X-20362Y-14541D01*
X-20404Y-14642D01*
X-20412Y-14700D01*
X-20050D01*
Y-14338D01*
D02*
G37*
G36*
X-22000Y-14331D02*
X-22108Y-14346D01*
X-22209Y-14388D01*
X-22296Y-14454D01*
X-22362Y-14541D01*
X-22404Y-14642D01*
X-22419Y-14750D01*
X-22404Y-14858D01*
X-22362Y-14959D01*
X-22296Y-15046D01*
X-22209Y-15112D01*
X-22108Y-15154D01*
X-22000Y-15169D01*
X-21892Y-15154D01*
X-21791Y-15112D01*
X-21704Y-15046D01*
X-21638Y-14959D01*
X-21596Y-14858D01*
X-21581Y-14750D01*
X-21596Y-14642D01*
X-21638Y-14541D01*
X-21704Y-14454D01*
X-21791Y-14388D01*
X-21892Y-14346D01*
X-22000Y-14331D01*
D02*
G37*
G36*
X-18000Y-15581D02*
X-18108Y-15596D01*
X-18209Y-15638D01*
X-18296Y-15704D01*
X-18362Y-15791D01*
X-18404Y-15892D01*
X-18419Y-16000D01*
X-18404Y-16108D01*
X-18362Y-16209D01*
X-18296Y-16296D01*
X-18209Y-16362D01*
X-18108Y-16404D01*
X-18000Y-16419D01*
X-17892Y-16404D01*
X-17791Y-16362D01*
X-17704Y-16296D01*
X-17638Y-16209D01*
X-17596Y-16108D01*
X-17581Y-16000D01*
X-17596Y-15892D01*
X-17638Y-15791D01*
X-17704Y-15704D01*
X-17791Y-15638D01*
X-17892Y-15596D01*
X-18000Y-15581D01*
D02*
G37*
G36*
X-24000D02*
X-24108Y-15596D01*
X-24209Y-15638D01*
X-24296Y-15704D01*
X-24362Y-15791D01*
X-24404Y-15892D01*
X-24419Y-16000D01*
X-24404Y-16108D01*
X-24362Y-16209D01*
X-24296Y-16296D01*
X-24209Y-16362D01*
X-24108Y-16404D01*
X-24000Y-16419D01*
X-23892Y-16404D01*
X-23791Y-16362D01*
X-23704Y-16296D01*
X-23638Y-16209D01*
X-23596Y-16108D01*
X-23581Y-16000D01*
X-23596Y-15892D01*
X-23638Y-15791D01*
X-23704Y-15704D01*
X-23791Y-15638D01*
X-23892Y-15596D01*
X-24000Y-15581D01*
D02*
G37*
G36*
X-27500Y-14022D02*
X-27624Y-14038D01*
X-27739Y-14086D01*
X-27838Y-14162D01*
X-27914Y-14261D01*
X-27962Y-14376D01*
X-27978Y-14500D01*
X-27962Y-14624D01*
X-27914Y-14739D01*
X-27838Y-14838D01*
X-27739Y-14914D01*
X-27624Y-14962D01*
X-27500Y-14978D01*
X-27376Y-14962D01*
X-27261Y-14914D01*
X-27162Y-14838D01*
X-27086Y-14739D01*
X-27038Y-14624D01*
X-27022Y-14500D01*
X-27038Y-14376D01*
X-27086Y-14261D01*
X-27162Y-14162D01*
X-27261Y-14086D01*
X-27376Y-14038D01*
X-27500Y-14022D01*
D02*
G37*
G36*
X-19588Y-14800D02*
X-19950D01*
Y-15162D01*
X-19892Y-15154D01*
X-19791Y-15112D01*
X-19704Y-15046D01*
X-19638Y-14959D01*
X-19596Y-14858D01*
X-19588Y-14800D01*
D02*
G37*
G36*
X-20050D02*
X-20412D01*
X-20404Y-14858D01*
X-20362Y-14959D01*
X-20296Y-15046D01*
X-20209Y-15112D01*
X-20108Y-15154D01*
X-20050Y-15162D01*
Y-14800D01*
D02*
G37*
G36*
X6000Y-13022D02*
X5876Y-13038D01*
X5761Y-13086D01*
X5662Y-13162D01*
X5586Y-13261D01*
X5538Y-13376D01*
X5522Y-13500D01*
X5538Y-13624D01*
X5586Y-13739D01*
X5662Y-13838D01*
X5761Y-13914D01*
X5876Y-13962D01*
X6000Y-13978D01*
X6124Y-13962D01*
X6239Y-13914D01*
X6338Y-13838D01*
X6414Y-13739D01*
X6462Y-13624D01*
X6478Y-13500D01*
X6462Y-13376D01*
X6414Y-13261D01*
X6338Y-13162D01*
X6239Y-13086D01*
X6124Y-13038D01*
X6000Y-13022D01*
D02*
G37*
G36*
X13500Y-13062D02*
X13387Y-13077D01*
X13281Y-13120D01*
X13190Y-13190D01*
X13120Y-13281D01*
X13077Y-13387D01*
X13062Y-13500D01*
X13077Y-13613D01*
X13120Y-13719D01*
X13190Y-13810D01*
X13281Y-13880D01*
X13387Y-13923D01*
X13500Y-13938D01*
X13613Y-13923D01*
X13719Y-13880D01*
X13810Y-13810D01*
X13880Y-13719D01*
X13923Y-13613D01*
X13938Y-13500D01*
X13923Y-13387D01*
X13880Y-13281D01*
X13810Y-13190D01*
X13719Y-13120D01*
X13613Y-13077D01*
X13500Y-13062D01*
D02*
G37*
G36*
X9000D02*
X8887Y-13077D01*
X8781Y-13120D01*
X8690Y-13190D01*
X8620Y-13281D01*
X8577Y-13387D01*
X8562Y-13500D01*
X8577Y-13613D01*
X8620Y-13719D01*
X8690Y-13810D01*
X8781Y-13880D01*
X8887Y-13923D01*
X9000Y-13938D01*
X9113Y-13923D01*
X9219Y-13880D01*
X9310Y-13810D01*
X9380Y-13719D01*
X9423Y-13613D01*
X9438Y-13500D01*
X9423Y-13387D01*
X9380Y-13281D01*
X9310Y-13190D01*
X9219Y-13120D01*
X9113Y-13077D01*
X9000Y-13062D01*
D02*
G37*
G36*
X29000Y-13022D02*
X28876Y-13038D01*
X28761Y-13086D01*
X28662Y-13162D01*
X28586Y-13261D01*
X28538Y-13376D01*
X28522Y-13500D01*
X28538Y-13624D01*
X28586Y-13739D01*
X28662Y-13838D01*
X28761Y-13914D01*
X28876Y-13962D01*
X29000Y-13978D01*
X29124Y-13962D01*
X29239Y-13914D01*
X29338Y-13838D01*
X29414Y-13739D01*
X29462Y-13624D01*
X29478Y-13500D01*
X29462Y-13376D01*
X29414Y-13261D01*
X29338Y-13162D01*
X29239Y-13086D01*
X29124Y-13038D01*
X29000Y-13022D01*
D02*
G37*
G36*
X7935Y-13065D02*
X7065D01*
Y-13935D01*
X7935D01*
Y-13065D01*
D02*
G37*
G36*
X27500Y-13062D02*
X27387Y-13077D01*
X27281Y-13120D01*
X27190Y-13190D01*
X27120Y-13281D01*
X27077Y-13387D01*
X27062Y-13500D01*
X27077Y-13613D01*
X27120Y-13719D01*
X27190Y-13810D01*
X27281Y-13880D01*
X27387Y-13923D01*
X27500Y-13938D01*
X27613Y-13923D01*
X27719Y-13880D01*
X27810Y-13810D01*
X27880Y-13719D01*
X27923Y-13613D01*
X27938Y-13500D01*
X27923Y-13387D01*
X27880Y-13281D01*
X27810Y-13190D01*
X27719Y-13120D01*
X27613Y-13077D01*
X27500Y-13062D01*
D02*
G37*
G36*
X20000D02*
X19887Y-13077D01*
X19781Y-13120D01*
X19690Y-13190D01*
X19620Y-13281D01*
X19577Y-13387D01*
X19562Y-13500D01*
X19577Y-13613D01*
X19620Y-13719D01*
X19690Y-13810D01*
X19781Y-13880D01*
X19887Y-13923D01*
X20000Y-13938D01*
X20113Y-13923D01*
X20219Y-13880D01*
X20310Y-13810D01*
X20380Y-13719D01*
X20423Y-13613D01*
X20438Y-13500D01*
X20423Y-13387D01*
X20380Y-13281D01*
X20310Y-13190D01*
X20219Y-13120D01*
X20113Y-13077D01*
X20000Y-13062D01*
D02*
G37*
G36*
X16500Y-13022D02*
X16376Y-13038D01*
X16261Y-13086D01*
X16162Y-13162D01*
X16086Y-13261D01*
X16038Y-13376D01*
X16022Y-13500D01*
X16038Y-13624D01*
X16086Y-13739D01*
X16162Y-13838D01*
X16261Y-13914D01*
X16376Y-13962D01*
X16500Y-13978D01*
X16624Y-13962D01*
X16739Y-13914D01*
X16838Y-13838D01*
X16914Y-13739D01*
X16962Y-13624D01*
X16978Y-13500D01*
X16962Y-13376D01*
X16914Y-13261D01*
X16838Y-13162D01*
X16739Y-13086D01*
X16624Y-13038D01*
X16500Y-13022D01*
D02*
G37*
G36*
X12000D02*
X11876Y-13038D01*
X11761Y-13086D01*
X11662Y-13162D01*
X11586Y-13261D01*
X11538Y-13376D01*
X11522Y-13500D01*
X11538Y-13624D01*
X11586Y-13739D01*
X11662Y-13838D01*
X11761Y-13914D01*
X11876Y-13962D01*
X12000Y-13978D01*
X12124Y-13962D01*
X12239Y-13914D01*
X12338Y-13838D01*
X12414Y-13739D01*
X12462Y-13624D01*
X12478Y-13500D01*
X12462Y-13376D01*
X12414Y-13261D01*
X12338Y-13162D01*
X12239Y-13086D01*
X12124Y-13038D01*
X12000Y-13022D01*
D02*
G37*
G36*
X10500D02*
X10376Y-13038D01*
X10261Y-13086D01*
X10162Y-13162D01*
X10086Y-13261D01*
X10038Y-13376D01*
X10022Y-13500D01*
X10038Y-13624D01*
X10086Y-13739D01*
X10162Y-13838D01*
X10261Y-13914D01*
X10376Y-13962D01*
X10500Y-13978D01*
X10624Y-13962D01*
X10739Y-13914D01*
X10838Y-13838D01*
X10914Y-13739D01*
X10962Y-13624D01*
X10978Y-13500D01*
X10962Y-13376D01*
X10914Y-13261D01*
X10838Y-13162D01*
X10739Y-13086D01*
X10624Y-13038D01*
X10500Y-13022D01*
D02*
G37*
G36*
X24500D02*
X24376Y-13038D01*
X24261Y-13086D01*
X24162Y-13162D01*
X24086Y-13261D01*
X24038Y-13376D01*
X24022Y-13500D01*
X24038Y-13624D01*
X24086Y-13739D01*
X24162Y-13838D01*
X24261Y-13914D01*
X24376Y-13962D01*
X24500Y-13978D01*
X24624Y-13962D01*
X24739Y-13914D01*
X24838Y-13838D01*
X24914Y-13739D01*
X24962Y-13624D01*
X24978Y-13500D01*
X24962Y-13376D01*
X24914Y-13261D01*
X24838Y-13162D01*
X24739Y-13086D01*
X24624Y-13038D01*
X24500Y-13022D01*
D02*
G37*
G36*
X23000D02*
X22876Y-13038D01*
X22761Y-13086D01*
X22662Y-13162D01*
X22586Y-13261D01*
X22538Y-13376D01*
X22522Y-13500D01*
X22538Y-13624D01*
X22586Y-13739D01*
X22662Y-13838D01*
X22761Y-13914D01*
X22876Y-13962D01*
X23000Y-13978D01*
X23124Y-13962D01*
X23239Y-13914D01*
X23338Y-13838D01*
X23414Y-13739D01*
X23462Y-13624D01*
X23478Y-13500D01*
X23462Y-13376D01*
X23414Y-13261D01*
X23338Y-13162D01*
X23239Y-13086D01*
X23124Y-13038D01*
X23000Y-13022D01*
D02*
G37*
G36*
X18500D02*
X18376Y-13038D01*
X18261Y-13086D01*
X18162Y-13162D01*
X18086Y-13261D01*
X18038Y-13376D01*
X18022Y-13500D01*
X18038Y-13624D01*
X18086Y-13739D01*
X18162Y-13838D01*
X18261Y-13914D01*
X18376Y-13962D01*
X18500Y-13978D01*
X18624Y-13962D01*
X18739Y-13914D01*
X18838Y-13838D01*
X18914Y-13739D01*
X18962Y-13624D01*
X18978Y-13500D01*
X18962Y-13376D01*
X18914Y-13261D01*
X18838Y-13162D01*
X18739Y-13086D01*
X18624Y-13038D01*
X18500Y-13022D01*
D02*
G37*
G36*
X7550Y-9068D02*
Y-9450D01*
X7932D01*
X7923Y-9387D01*
X7880Y-9281D01*
X7810Y-9190D01*
X7719Y-9120D01*
X7613Y-9077D01*
X7550Y-9068D01*
D02*
G37*
G36*
X7450D02*
X7387Y-9077D01*
X7281Y-9120D01*
X7190Y-9190D01*
X7120Y-9281D01*
X7077Y-9387D01*
X7068Y-9450D01*
X7450D01*
Y-9068D01*
D02*
G37*
G36*
X-22085Y-9085D02*
X-22915D01*
Y-9915D01*
X-22085D01*
Y-9085D01*
D02*
G37*
G36*
X19950Y-9065D02*
X19565D01*
Y-9450D01*
X19950D01*
Y-9065D01*
D02*
G37*
G36*
X15050Y-9068D02*
Y-9450D01*
X15432D01*
X15423Y-9387D01*
X15380Y-9281D01*
X15310Y-9190D01*
X15219Y-9120D01*
X15113Y-9077D01*
X15050Y-9068D01*
D02*
G37*
G36*
X14950D02*
X14887Y-9077D01*
X14781Y-9120D01*
X14690Y-9190D01*
X14620Y-9281D01*
X14577Y-9387D01*
X14568Y-9450D01*
X14950D01*
Y-9068D01*
D02*
G37*
G36*
X7932Y-9550D02*
X7550D01*
Y-9932D01*
X7613Y-9923D01*
X7719Y-9880D01*
X7810Y-9810D01*
X7880Y-9719D01*
X7923Y-9613D01*
X7932Y-9550D01*
D02*
G37*
G36*
X7450D02*
X7068D01*
X7077Y-9613D01*
X7120Y-9719D01*
X7190Y-9810D01*
X7281Y-9880D01*
X7387Y-9923D01*
X7450Y-9932D01*
Y-9550D01*
D02*
G37*
G36*
X27935D02*
X27550D01*
Y-9935D01*
X27935D01*
Y-9550D01*
D02*
G37*
G36*
X-19500Y-9081D02*
X-19608Y-9096D01*
X-19709Y-9138D01*
X-19796Y-9204D01*
X-19862Y-9291D01*
X-19904Y-9392D01*
X-19919Y-9500D01*
X-19904Y-9608D01*
X-19862Y-9709D01*
X-19796Y-9796D01*
X-19709Y-9862D01*
X-19608Y-9904D01*
X-19500Y-9919D01*
X-19392Y-9904D01*
X-19291Y-9862D01*
X-19204Y-9796D01*
X-19138Y-9709D01*
X-19096Y-9608D01*
X-19081Y-9500D01*
X-19096Y-9392D01*
X-19138Y-9291D01*
X-19204Y-9204D01*
X-19291Y-9138D01*
X-19392Y-9096D01*
X-19500Y-9081D01*
D02*
G37*
G36*
X15432Y-9550D02*
X15050D01*
Y-9932D01*
X15113Y-9923D01*
X15219Y-9880D01*
X15310Y-9810D01*
X15380Y-9719D01*
X15423Y-9613D01*
X15432Y-9550D01*
D02*
G37*
G36*
X14950D02*
X14568D01*
X14577Y-9613D01*
X14620Y-9719D01*
X14690Y-9810D01*
X14781Y-9880D01*
X14887Y-9923D01*
X14950Y-9932D01*
Y-9550D01*
D02*
G37*
G36*
X20435Y-9065D02*
X20050D01*
Y-9450D01*
X20435D01*
Y-9065D01*
D02*
G37*
G36*
X15000Y-8081D02*
X14892Y-8096D01*
X14791Y-8138D01*
X14704Y-8204D01*
X14638Y-8291D01*
X14596Y-8392D01*
X14581Y-8500D01*
X14596Y-8608D01*
X14638Y-8709D01*
X14704Y-8796D01*
X14791Y-8862D01*
X14892Y-8904D01*
X15000Y-8919D01*
X15108Y-8904D01*
X15209Y-8862D01*
X15296Y-8796D01*
X15362Y-8709D01*
X15404Y-8608D01*
X15419Y-8500D01*
X15404Y-8392D01*
X15362Y-8291D01*
X15296Y-8204D01*
X15209Y-8138D01*
X15108Y-8096D01*
X15000Y-8081D01*
D02*
G37*
G36*
X13500D02*
X13392Y-8096D01*
X13291Y-8138D01*
X13204Y-8204D01*
X13138Y-8291D01*
X13096Y-8392D01*
X13081Y-8500D01*
X13096Y-8608D01*
X13138Y-8709D01*
X13204Y-8796D01*
X13291Y-8862D01*
X13392Y-8904D01*
X13500Y-8919D01*
X13608Y-8904D01*
X13709Y-8862D01*
X13796Y-8796D01*
X13862Y-8709D01*
X13904Y-8608D01*
X13919Y-8500D01*
X13904Y-8392D01*
X13862Y-8291D01*
X13796Y-8204D01*
X13709Y-8138D01*
X13608Y-8096D01*
X13500Y-8081D01*
D02*
G37*
G36*
X12000D02*
X11892Y-8096D01*
X11791Y-8138D01*
X11704Y-8204D01*
X11638Y-8291D01*
X11596Y-8392D01*
X11581Y-8500D01*
X11596Y-8608D01*
X11638Y-8709D01*
X11704Y-8796D01*
X11791Y-8862D01*
X11892Y-8904D01*
X12000Y-8919D01*
X12108Y-8904D01*
X12209Y-8862D01*
X12296Y-8796D01*
X12362Y-8709D01*
X12404Y-8608D01*
X12419Y-8500D01*
X12404Y-8392D01*
X12362Y-8291D01*
X12296Y-8204D01*
X12209Y-8138D01*
X12108Y-8096D01*
X12000Y-8081D01*
D02*
G37*
G36*
X20000D02*
X19892Y-8096D01*
X19791Y-8138D01*
X19704Y-8204D01*
X19638Y-8291D01*
X19596Y-8392D01*
X19581Y-8500D01*
X19596Y-8608D01*
X19638Y-8709D01*
X19704Y-8796D01*
X19791Y-8862D01*
X19892Y-8904D01*
X20000Y-8919D01*
X20108Y-8904D01*
X20209Y-8862D01*
X20296Y-8796D01*
X20362Y-8709D01*
X20404Y-8608D01*
X20419Y-8500D01*
X20404Y-8392D01*
X20362Y-8291D01*
X20296Y-8204D01*
X20209Y-8138D01*
X20108Y-8096D01*
X20000Y-8081D01*
D02*
G37*
G36*
X18500D02*
X18392Y-8096D01*
X18291Y-8138D01*
X18204Y-8204D01*
X18138Y-8291D01*
X18096Y-8392D01*
X18081Y-8500D01*
X18096Y-8608D01*
X18138Y-8709D01*
X18204Y-8796D01*
X18291Y-8862D01*
X18392Y-8904D01*
X18500Y-8919D01*
X18608Y-8904D01*
X18709Y-8862D01*
X18796Y-8796D01*
X18862Y-8709D01*
X18904Y-8608D01*
X18919Y-8500D01*
X18904Y-8392D01*
X18862Y-8291D01*
X18796Y-8204D01*
X18709Y-8138D01*
X18608Y-8096D01*
X18500Y-8081D01*
D02*
G37*
G36*
X16500D02*
X16392Y-8096D01*
X16291Y-8138D01*
X16204Y-8204D01*
X16138Y-8291D01*
X16096Y-8392D01*
X16081Y-8500D01*
X16096Y-8608D01*
X16138Y-8709D01*
X16204Y-8796D01*
X16291Y-8862D01*
X16392Y-8904D01*
X16500Y-8919D01*
X16608Y-8904D01*
X16709Y-8862D01*
X16796Y-8796D01*
X16862Y-8709D01*
X16904Y-8608D01*
X16919Y-8500D01*
X16904Y-8392D01*
X16862Y-8291D01*
X16796Y-8204D01*
X16709Y-8138D01*
X16608Y-8096D01*
X16500Y-8081D01*
D02*
G37*
G36*
X6000D02*
X5892Y-8096D01*
X5791Y-8138D01*
X5704Y-8204D01*
X5638Y-8291D01*
X5596Y-8392D01*
X5581Y-8500D01*
X5596Y-8608D01*
X5638Y-8709D01*
X5704Y-8796D01*
X5791Y-8862D01*
X5892Y-8904D01*
X6000Y-8919D01*
X6108Y-8904D01*
X6209Y-8862D01*
X6296Y-8796D01*
X6362Y-8709D01*
X6404Y-8608D01*
X6419Y-8500D01*
X6404Y-8392D01*
X6362Y-8291D01*
X6296Y-8204D01*
X6209Y-8138D01*
X6108Y-8096D01*
X6000Y-8081D01*
D02*
G37*
G36*
X27935Y-9065D02*
X27550D01*
Y-9450D01*
X27935D01*
Y-9065D01*
D02*
G37*
G36*
X27450D02*
X27065D01*
Y-9450D01*
X27450D01*
Y-9065D01*
D02*
G37*
G36*
X10500Y-8081D02*
X10392Y-8096D01*
X10291Y-8138D01*
X10204Y-8204D01*
X10138Y-8291D01*
X10096Y-8392D01*
X10081Y-8500D01*
X10096Y-8608D01*
X10138Y-8709D01*
X10204Y-8796D01*
X10291Y-8862D01*
X10392Y-8904D01*
X10500Y-8919D01*
X10608Y-8904D01*
X10709Y-8862D01*
X10796Y-8796D01*
X10862Y-8709D01*
X10904Y-8608D01*
X10919Y-8500D01*
X10904Y-8392D01*
X10862Y-8291D01*
X10796Y-8204D01*
X10709Y-8138D01*
X10608Y-8096D01*
X10500Y-8081D01*
D02*
G37*
G36*
X9000D02*
X8892Y-8096D01*
X8791Y-8138D01*
X8704Y-8204D01*
X8638Y-8291D01*
X8596Y-8392D01*
X8581Y-8500D01*
X8596Y-8608D01*
X8638Y-8709D01*
X8704Y-8796D01*
X8791Y-8862D01*
X8892Y-8904D01*
X9000Y-8919D01*
X9108Y-8904D01*
X9209Y-8862D01*
X9296Y-8796D01*
X9362Y-8709D01*
X9404Y-8608D01*
X9419Y-8500D01*
X9404Y-8392D01*
X9362Y-8291D01*
X9296Y-8204D01*
X9209Y-8138D01*
X9108Y-8096D01*
X9000Y-8081D01*
D02*
G37*
G36*
X7500D02*
X7392Y-8096D01*
X7291Y-8138D01*
X7204Y-8204D01*
X7138Y-8291D01*
X7096Y-8392D01*
X7081Y-8500D01*
X7096Y-8608D01*
X7138Y-8709D01*
X7204Y-8796D01*
X7291Y-8862D01*
X7392Y-8904D01*
X7500Y-8919D01*
X7608Y-8904D01*
X7709Y-8862D01*
X7796Y-8796D01*
X7862Y-8709D01*
X7904Y-8608D01*
X7919Y-8500D01*
X7904Y-8392D01*
X7862Y-8291D01*
X7796Y-8204D01*
X7709Y-8138D01*
X7608Y-8096D01*
X7500Y-8081D01*
D02*
G37*
G36*
X-18500Y-9022D02*
X-18624Y-9038D01*
X-18739Y-9086D01*
X-18838Y-9162D01*
X-18914Y-9261D01*
X-18962Y-9376D01*
X-18978Y-9500D01*
X-18962Y-9624D01*
X-18914Y-9739D01*
X-18838Y-9838D01*
X-18739Y-9914D01*
X-18624Y-9962D01*
X-18500Y-9978D01*
X-18376Y-9962D01*
X-18261Y-9914D01*
X-18162Y-9838D01*
X-18086Y-9739D01*
X-18038Y-9624D01*
X-18022Y-9500D01*
X-18038Y-9376D01*
X-18086Y-9261D01*
X-18162Y-9162D01*
X-18261Y-9086D01*
X-18376Y-9038D01*
X-18500Y-9022D01*
D02*
G37*
G36*
X-23500D02*
X-23624Y-9038D01*
X-23739Y-9086D01*
X-23838Y-9162D01*
X-23914Y-9261D01*
X-23962Y-9376D01*
X-23978Y-9500D01*
X-23962Y-9624D01*
X-23914Y-9739D01*
X-23838Y-9838D01*
X-23739Y-9914D01*
X-23624Y-9962D01*
X-23500Y-9978D01*
X-23376Y-9962D01*
X-23261Y-9914D01*
X-23162Y-9838D01*
X-23086Y-9739D01*
X-23038Y-9624D01*
X-23022Y-9500D01*
X-23038Y-9376D01*
X-23086Y-9261D01*
X-23162Y-9162D01*
X-23261Y-9086D01*
X-23376Y-9038D01*
X-23500Y-9022D01*
D02*
G37*
G36*
X-27500D02*
X-27624Y-9038D01*
X-27739Y-9086D01*
X-27838Y-9162D01*
X-27914Y-9261D01*
X-27962Y-9376D01*
X-27978Y-9500D01*
X-27962Y-9624D01*
X-27914Y-9739D01*
X-27838Y-9838D01*
X-27739Y-9914D01*
X-27624Y-9962D01*
X-27500Y-9978D01*
X-27376Y-9962D01*
X-27261Y-9914D01*
X-27162Y-9838D01*
X-27086Y-9739D01*
X-27038Y-9624D01*
X-27022Y-9500D01*
X-27038Y-9376D01*
X-27086Y-9261D01*
X-27162Y-9162D01*
X-27261Y-9086D01*
X-27376Y-9038D01*
X-27500Y-9022D01*
D02*
G37*
G36*
X10500D02*
X10376Y-9038D01*
X10261Y-9086D01*
X10162Y-9162D01*
X10086Y-9261D01*
X10038Y-9376D01*
X10022Y-9500D01*
X10038Y-9624D01*
X10086Y-9739D01*
X10162Y-9838D01*
X10261Y-9914D01*
X10376Y-9962D01*
X10500Y-9978D01*
X10624Y-9962D01*
X10739Y-9914D01*
X10838Y-9838D01*
X10914Y-9739D01*
X10962Y-9624D01*
X10978Y-9500D01*
X10962Y-9376D01*
X10914Y-9261D01*
X10838Y-9162D01*
X10739Y-9086D01*
X10624Y-9038D01*
X10500Y-9022D01*
D02*
G37*
G36*
X6000D02*
X5876Y-9038D01*
X5761Y-9086D01*
X5662Y-9162D01*
X5586Y-9261D01*
X5538Y-9376D01*
X5522Y-9500D01*
X5538Y-9624D01*
X5586Y-9739D01*
X5662Y-9838D01*
X5761Y-9914D01*
X5876Y-9962D01*
X6000Y-9978D01*
X6124Y-9962D01*
X6239Y-9914D01*
X6338Y-9838D01*
X6414Y-9739D01*
X6462Y-9624D01*
X6478Y-9500D01*
X6462Y-9376D01*
X6414Y-9261D01*
X6338Y-9162D01*
X6239Y-9086D01*
X6124Y-9038D01*
X6000Y-9022D01*
D02*
G37*
G36*
X-14500D02*
X-14624Y-9038D01*
X-14739Y-9086D01*
X-14838Y-9162D01*
X-14914Y-9261D01*
X-14962Y-9376D01*
X-14978Y-9500D01*
X-14962Y-9624D01*
X-14914Y-9739D01*
X-14838Y-9838D01*
X-14739Y-9914D01*
X-14624Y-9962D01*
X-14500Y-9978D01*
X-14376Y-9962D01*
X-14261Y-9914D01*
X-14162Y-9838D01*
X-14086Y-9739D01*
X-14038Y-9624D01*
X-14022Y-9500D01*
X-14038Y-9376D01*
X-14086Y-9261D01*
X-14162Y-9162D01*
X-14261Y-9086D01*
X-14376Y-9038D01*
X-14500Y-9022D01*
D02*
G37*
G36*
X-18500Y-10272D02*
X-18624Y-10288D01*
X-18739Y-10336D01*
X-18838Y-10412D01*
X-18914Y-10511D01*
X-18962Y-10626D01*
X-18978Y-10750D01*
X-18962Y-10874D01*
X-18914Y-10989D01*
X-18838Y-11088D01*
X-18739Y-11164D01*
X-18624Y-11212D01*
X-18500Y-11228D01*
X-18376Y-11212D01*
X-18261Y-11164D01*
X-18162Y-11088D01*
X-18086Y-10989D01*
X-18038Y-10874D01*
X-18022Y-10750D01*
X-18038Y-10626D01*
X-18086Y-10511D01*
X-18162Y-10412D01*
X-18261Y-10336D01*
X-18376Y-10288D01*
X-18500Y-10272D01*
D02*
G37*
G36*
X-23500D02*
X-23624Y-10288D01*
X-23739Y-10336D01*
X-23838Y-10412D01*
X-23914Y-10511D01*
X-23962Y-10626D01*
X-23978Y-10750D01*
X-23962Y-10874D01*
X-23914Y-10989D01*
X-23838Y-11088D01*
X-23739Y-11164D01*
X-23624Y-11212D01*
X-23500Y-11228D01*
X-23376Y-11212D01*
X-23261Y-11164D01*
X-23162Y-11088D01*
X-23086Y-10989D01*
X-23038Y-10874D01*
X-23022Y-10750D01*
X-23038Y-10626D01*
X-23086Y-10511D01*
X-23162Y-10412D01*
X-23261Y-10336D01*
X-23376Y-10288D01*
X-23500Y-10272D01*
D02*
G37*
G36*
X-27500D02*
X-27624Y-10288D01*
X-27739Y-10336D01*
X-27838Y-10412D01*
X-27914Y-10511D01*
X-27962Y-10626D01*
X-27978Y-10750D01*
X-27962Y-10874D01*
X-27914Y-10989D01*
X-27838Y-11088D01*
X-27739Y-11164D01*
X-27624Y-11212D01*
X-27500Y-11228D01*
X-27376Y-11212D01*
X-27261Y-11164D01*
X-27162Y-11088D01*
X-27086Y-10989D01*
X-27038Y-10874D01*
X-27022Y-10750D01*
X-27038Y-10626D01*
X-27086Y-10511D01*
X-27162Y-10412D01*
X-27261Y-10336D01*
X-27376Y-10288D01*
X-27500Y-10272D01*
D02*
G37*
G36*
X-19500Y-10081D02*
X-19608Y-10096D01*
X-19709Y-10138D01*
X-19796Y-10204D01*
X-19862Y-10291D01*
X-19904Y-10392D01*
X-19919Y-10500D01*
X-19904Y-10608D01*
X-19862Y-10709D01*
X-19796Y-10796D01*
X-19709Y-10862D01*
X-19608Y-10904D01*
X-19500Y-10919D01*
X-19392Y-10904D01*
X-19291Y-10862D01*
X-19204Y-10796D01*
X-19138Y-10709D01*
X-19096Y-10608D01*
X-19081Y-10500D01*
X-19096Y-10392D01*
X-19138Y-10291D01*
X-19204Y-10204D01*
X-19291Y-10138D01*
X-19392Y-10096D01*
X-19500Y-10081D01*
D02*
G37*
G36*
X-22500D02*
X-22608Y-10096D01*
X-22709Y-10138D01*
X-22796Y-10204D01*
X-22862Y-10291D01*
X-22904Y-10392D01*
X-22919Y-10500D01*
X-22904Y-10608D01*
X-22862Y-10709D01*
X-22796Y-10796D01*
X-22709Y-10862D01*
X-22608Y-10904D01*
X-22500Y-10919D01*
X-22392Y-10904D01*
X-22291Y-10862D01*
X-22204Y-10796D01*
X-22138Y-10709D01*
X-22096Y-10608D01*
X-22081Y-10500D01*
X-22096Y-10392D01*
X-22138Y-10291D01*
X-22204Y-10204D01*
X-22291Y-10138D01*
X-22392Y-10096D01*
X-22500Y-10081D01*
D02*
G37*
G36*
X-14500Y-10272D02*
X-14624Y-10288D01*
X-14739Y-10336D01*
X-14838Y-10412D01*
X-14914Y-10511D01*
X-14962Y-10626D01*
X-14978Y-10750D01*
X-14962Y-10874D01*
X-14914Y-10989D01*
X-14838Y-11088D01*
X-14739Y-11164D01*
X-14624Y-11212D01*
X-14500Y-11228D01*
X-14376Y-11212D01*
X-14261Y-11164D01*
X-14162Y-11088D01*
X-14086Y-10989D01*
X-14038Y-10874D01*
X-14022Y-10750D01*
X-14038Y-10626D01*
X-14086Y-10511D01*
X-14162Y-10412D01*
X-14261Y-10336D01*
X-14376Y-10288D01*
X-14500Y-10272D01*
D02*
G37*
G36*
X12000Y-9022D02*
X11876Y-9038D01*
X11761Y-9086D01*
X11662Y-9162D01*
X11586Y-9261D01*
X11538Y-9376D01*
X11522Y-9500D01*
X11538Y-9624D01*
X11586Y-9739D01*
X11662Y-9838D01*
X11761Y-9914D01*
X11876Y-9962D01*
X12000Y-9978D01*
X12124Y-9962D01*
X12239Y-9914D01*
X12338Y-9838D01*
X12414Y-9739D01*
X12462Y-9624D01*
X12478Y-9500D01*
X12462Y-9376D01*
X12414Y-9261D01*
X12338Y-9162D01*
X12239Y-9086D01*
X12124Y-9038D01*
X12000Y-9022D01*
D02*
G37*
G36*
X13935Y-9065D02*
X13065D01*
Y-9935D01*
X13935D01*
Y-9065D01*
D02*
G37*
G36*
X9435D02*
X8565D01*
Y-9935D01*
X9435D01*
Y-9065D01*
D02*
G37*
G36*
X26000Y-9062D02*
X25887Y-9077D01*
X25781Y-9120D01*
X25690Y-9190D01*
X25620Y-9281D01*
X25577Y-9387D01*
X25562Y-9500D01*
X25577Y-9613D01*
X25620Y-9719D01*
X25690Y-9810D01*
X25781Y-9880D01*
X25887Y-9923D01*
X26000Y-9938D01*
X26113Y-9923D01*
X26219Y-9880D01*
X26310Y-9810D01*
X26380Y-9719D01*
X26423Y-9613D01*
X26438Y-9500D01*
X26423Y-9387D01*
X26380Y-9281D01*
X26310Y-9190D01*
X26219Y-9120D01*
X26113Y-9077D01*
X26000Y-9062D01*
D02*
G37*
G36*
X27450Y-9550D02*
X27065D01*
Y-9935D01*
X27450D01*
Y-9550D01*
D02*
G37*
G36*
X20435D02*
X20050D01*
Y-9935D01*
X20435D01*
Y-9550D01*
D02*
G37*
G36*
X19950D02*
X19565D01*
Y-9935D01*
X19950D01*
Y-9550D01*
D02*
G37*
G36*
X23000Y-9022D02*
X22876Y-9038D01*
X22761Y-9086D01*
X22662Y-9162D01*
X22586Y-9261D01*
X22538Y-9376D01*
X22522Y-9500D01*
X22538Y-9624D01*
X22586Y-9739D01*
X22662Y-9838D01*
X22761Y-9914D01*
X22876Y-9962D01*
X23000Y-9978D01*
X23124Y-9962D01*
X23239Y-9914D01*
X23338Y-9838D01*
X23414Y-9739D01*
X23462Y-9624D01*
X23478Y-9500D01*
X23462Y-9376D01*
X23414Y-9261D01*
X23338Y-9162D01*
X23239Y-9086D01*
X23124Y-9038D01*
X23000Y-9022D01*
D02*
G37*
G36*
X18500D02*
X18376Y-9038D01*
X18261Y-9086D01*
X18162Y-9162D01*
X18086Y-9261D01*
X18038Y-9376D01*
X18022Y-9500D01*
X18038Y-9624D01*
X18086Y-9739D01*
X18162Y-9838D01*
X18261Y-9914D01*
X18376Y-9962D01*
X18500Y-9978D01*
X18624Y-9962D01*
X18739Y-9914D01*
X18838Y-9838D01*
X18914Y-9739D01*
X18962Y-9624D01*
X18978Y-9500D01*
X18962Y-9376D01*
X18914Y-9261D01*
X18838Y-9162D01*
X18739Y-9086D01*
X18624Y-9038D01*
X18500Y-9022D01*
D02*
G37*
G36*
X16500D02*
X16376Y-9038D01*
X16261Y-9086D01*
X16162Y-9162D01*
X16086Y-9261D01*
X16038Y-9376D01*
X16022Y-9500D01*
X16038Y-9624D01*
X16086Y-9739D01*
X16162Y-9838D01*
X16261Y-9914D01*
X16376Y-9962D01*
X16500Y-9978D01*
X16624Y-9962D01*
X16739Y-9914D01*
X16838Y-9838D01*
X16914Y-9739D01*
X16962Y-9624D01*
X16978Y-9500D01*
X16962Y-9376D01*
X16914Y-9261D01*
X16838Y-9162D01*
X16739Y-9086D01*
X16624Y-9038D01*
X16500Y-9022D01*
D02*
G37*
G36*
X21500Y-9062D02*
X21387Y-9077D01*
X21281Y-9120D01*
X21190Y-9190D01*
X21120Y-9281D01*
X21077Y-9387D01*
X21062Y-9500D01*
X21077Y-9613D01*
X21120Y-9719D01*
X21190Y-9810D01*
X21281Y-9880D01*
X21387Y-9923D01*
X21500Y-9938D01*
X21613Y-9923D01*
X21719Y-9880D01*
X21810Y-9810D01*
X21880Y-9719D01*
X21923Y-9613D01*
X21938Y-9500D01*
X21923Y-9387D01*
X21880Y-9281D01*
X21810Y-9190D01*
X21719Y-9120D01*
X21613Y-9077D01*
X21500Y-9062D01*
D02*
G37*
G36*
X29000Y-9022D02*
X28876Y-9038D01*
X28761Y-9086D01*
X28662Y-9162D01*
X28586Y-9261D01*
X28538Y-9376D01*
X28522Y-9500D01*
X28538Y-9624D01*
X28586Y-9739D01*
X28662Y-9838D01*
X28761Y-9914D01*
X28876Y-9962D01*
X29000Y-9978D01*
X29124Y-9962D01*
X29239Y-9914D01*
X29338Y-9838D01*
X29414Y-9739D01*
X29462Y-9624D01*
X29478Y-9500D01*
X29462Y-9376D01*
X29414Y-9261D01*
X29338Y-9162D01*
X29239Y-9086D01*
X29124Y-9038D01*
X29000Y-9022D01*
D02*
G37*
G36*
X24500D02*
X24376Y-9038D01*
X24261Y-9086D01*
X24162Y-9162D01*
X24086Y-9261D01*
X24038Y-9376D01*
X24022Y-9500D01*
X24038Y-9624D01*
X24086Y-9739D01*
X24162Y-9838D01*
X24261Y-9914D01*
X24376Y-9962D01*
X24500Y-9978D01*
X24624Y-9962D01*
X24739Y-9914D01*
X24838Y-9838D01*
X24914Y-9739D01*
X24962Y-9624D01*
X24978Y-9500D01*
X24962Y-9376D01*
X24914Y-9261D01*
X24838Y-9162D01*
X24739Y-9086D01*
X24624Y-9038D01*
X24500Y-9022D01*
D02*
G37*
%LPD*%
D11*
X-22350Y-13250D02*
X-21750Y-12650D01*
X-22000Y-11500D02*
X-21750Y-11750D01*
X-22500Y-11500D02*
X-22000D01*
X-23500Y-13250D02*
X-22350D01*
X-21750Y-12650D02*
Y-11750D01*
Y-25900D02*
Y-25000D01*
X-23500Y-26500D02*
X-22350D01*
X-22500Y-24750D02*
X-22000D01*
X-21750Y-25000D01*
X-22350Y-26500D02*
X-21750Y-25900D01*
X-13500Y-8000D02*
X-12500Y-7000D01*
X-14500Y-8000D02*
X-13500D01*
D13*
X11250Y500D02*
X11550D01*
X10250Y-500D02*
X11250Y500D01*
X10000Y-500D02*
X10250D01*
X12992Y-21000D02*
X13500D01*
X10250Y-18258D02*
Y-15750D01*
Y-18258D02*
X12992Y-21000D01*
X14961D02*
X15500D01*
X12250Y-18289D02*
Y-15750D01*
Y-18289D02*
X14961Y-21000D01*
X19500D02*
X20039D01*
X22750Y-18289D02*
Y-15750D01*
X20039Y-21000D02*
X22750Y-18289D01*
X21500Y-21000D02*
X22008D01*
X24750Y-18258D02*
Y-15750D01*
X22008Y-21000D02*
X24750Y-18258D01*
D16*
X-3000Y-25000D02*
D03*
X3000D02*
D03*
X28750Y-45250D02*
D03*
Y13000D02*
D03*
X-28750D02*
D03*
D17*
Y-45250D02*
D03*
D18*
X9626Y-26000D02*
D03*
X25374D02*
D03*
X21561Y-37689D02*
D03*
X19439Y-39811D02*
D03*
X21500Y-21000D02*
D03*
X19500D02*
D03*
X17500D02*
D03*
X15500D02*
D03*
X13500D02*
D03*
X15500Y-31000D02*
D03*
X17500D02*
D03*
X19500D02*
D03*
X19000Y-36500D02*
D03*
X16000D02*
D03*
X10000Y-44000D02*
D03*
Y-41000D02*
D03*
D19*
X17000Y-42031D02*
D03*
Y-43016D02*
D03*
Y-44000D02*
D03*
D20*
Y-45968D02*
D03*
X22421Y-20587D02*
D03*
X20453D02*
D03*
X14547D02*
D03*
X12579D02*
D03*
Y-31413D02*
D03*
X22421D02*
D03*
D21*
X13500Y-31000D02*
D03*
X21500D02*
D03*
D22*
X26000Y-9500D02*
D03*
X27500Y-13500D02*
D03*
X20000D02*
D03*
X13500D02*
D03*
X15000Y-9500D02*
D03*
X7500D02*
D03*
X21500D02*
D03*
X9000Y-13500D02*
D03*
X-492Y13500D02*
D03*
D23*
X26000Y-13500D02*
D03*
X27500Y-9500D02*
D03*
X20000D02*
D03*
X13500D02*
D03*
X15000Y-13500D02*
D03*
X7500D02*
D03*
X21500D02*
D03*
X9000Y-9500D02*
D03*
D24*
X492Y13500D02*
D03*
D25*
X-14500Y-8000D02*
D03*
X-27500D02*
D03*
X23000Y-9500D02*
D03*
Y-13500D02*
D03*
X-25500Y-4750D02*
D03*
X-16500D02*
D03*
X24500Y-9500D02*
D03*
Y-13500D02*
D03*
X1000Y11500D02*
D03*
Y7500D02*
D03*
X18500Y-9500D02*
D03*
Y-13500D02*
D03*
X6000D02*
D03*
Y-9500D02*
D03*
X12000D02*
D03*
Y-13500D02*
D03*
X10500Y-9500D02*
D03*
Y-13500D02*
D03*
X-1000Y7500D02*
D03*
Y11500D02*
D03*
X16500Y-13500D02*
D03*
Y-9500D02*
D03*
X29000D02*
D03*
Y-13500D02*
D03*
X12500Y-44500D02*
D03*
Y-40500D02*
D03*
X-27500Y-41000D02*
D03*
X-23500D02*
D03*
X-27500Y-39750D02*
D03*
X-23500D02*
D03*
X-27500Y-38500D02*
D03*
X-23500D02*
D03*
X-27500Y-37250D02*
D03*
X-23500D02*
D03*
X-27500Y-36000D02*
D03*
X-23500D02*
D03*
X-21750Y-33500D02*
D03*
Y-29500D02*
D03*
X-20250Y-33500D02*
D03*
Y-29500D02*
D03*
X-23500Y-34750D02*
D03*
X-27500D02*
D03*
X-26250Y-29500D02*
D03*
Y-33500D02*
D03*
X-27500D02*
D03*
Y-29500D02*
D03*
Y-26500D02*
D03*
X-23500D02*
D03*
X-27500Y-25250D02*
D03*
X-23500D02*
D03*
Y-24000D02*
D03*
X-27500D02*
D03*
X-23500Y-22750D02*
D03*
X-27500D02*
D03*
X-20250Y-20250D02*
D03*
Y-16250D02*
D03*
X-21750Y-20250D02*
D03*
Y-16250D02*
D03*
X-26250Y-17500D02*
D03*
Y-21500D02*
D03*
X-27500Y-14500D02*
D03*
X-23500D02*
D03*
Y-9500D02*
D03*
X-27500D02*
D03*
X-23500Y-10750D02*
D03*
X-27500D02*
D03*
Y-12000D02*
D03*
X-23500D02*
D03*
X-27500Y-13250D02*
D03*
X-23500D02*
D03*
X-14500Y-41000D02*
D03*
X-18500D02*
D03*
X-14500Y-39750D02*
D03*
X-18500D02*
D03*
X-14500Y-36000D02*
D03*
X-18500D02*
D03*
X-14500Y-38500D02*
D03*
X-18500D02*
D03*
X-14500Y-37250D02*
D03*
X-18500D02*
D03*
Y-34750D02*
D03*
X-14500D02*
D03*
X-15750Y-29500D02*
D03*
Y-33500D02*
D03*
X-14500D02*
D03*
Y-29500D02*
D03*
Y-26500D02*
D03*
X-18500D02*
D03*
X-14500Y-25250D02*
D03*
X-18500D02*
D03*
Y-24000D02*
D03*
X-14500D02*
D03*
X-18500Y-22750D02*
D03*
X-14500D02*
D03*
X-15750Y-17500D02*
D03*
Y-21500D02*
D03*
X-14500Y-13250D02*
D03*
X-18500D02*
D03*
X-14500Y-14500D02*
D03*
X-18500D02*
D03*
Y-10750D02*
D03*
X-14500D02*
D03*
Y-12000D02*
D03*
X-18500D02*
D03*
Y-9500D02*
D03*
X-14500D02*
D03*
X-21500Y-4750D02*
D03*
X-20500D02*
D03*
X-21000Y-45000D02*
D03*
D26*
X-23250Y-7250D02*
D03*
X-16500Y1500D02*
D03*
X-25500Y-500D02*
D03*
X11250D02*
D03*
X23750Y1500D02*
D03*
X-17250Y-32500D02*
D03*
X-23250D02*
D03*
Y-20500D02*
D03*
X-17250Y-7250D02*
D03*
Y-20500D02*
D03*
D27*
X-24750Y-7250D02*
D03*
X-18750Y-32500D02*
D03*
X-24750D02*
D03*
Y-20500D02*
D03*
X-18750Y-7250D02*
D03*
Y-20500D02*
D03*
D28*
X-16500Y-500D02*
D03*
X-25500Y1500D02*
D03*
X11250D02*
D03*
X23750Y-500D02*
D03*
D29*
X18500Y-8500D02*
D03*
X23000D02*
D03*
X18500Y-6500D02*
D03*
X23000D02*
D03*
X29000Y-8500D02*
D03*
Y-6500D02*
D03*
X21500D02*
D03*
X24500Y-8500D02*
D03*
Y-6500D02*
D03*
X16500Y-8500D02*
D03*
Y-6500D02*
D03*
X6000D02*
D03*
Y-8500D02*
D03*
X12000D02*
D03*
Y-6500D02*
D03*
X10500Y-8500D02*
D03*
Y-6500D02*
D03*
X26000D02*
D03*
Y-8500D02*
D03*
X21500D02*
D03*
X27500D02*
D03*
Y-6500D02*
D03*
X20000Y-8500D02*
D03*
Y-6500D02*
D03*
X7500D02*
D03*
Y-8500D02*
D03*
X13500D02*
D03*
Y-6500D02*
D03*
X9000Y-8500D02*
D03*
Y-6500D02*
D03*
X15000D02*
D03*
Y-8500D02*
D03*
X12250Y-15750D02*
D03*
X10250D02*
D03*
X24750D02*
D03*
X22750D02*
D03*
X-22000Y-40250D02*
D03*
X-20000D02*
D03*
Y-41250D02*
D03*
X-22000D02*
D03*
Y-34750D02*
D03*
X-20000D02*
D03*
X-22000Y-27000D02*
D03*
X-20000D02*
D03*
X-24000Y-30000D02*
D03*
Y-28000D02*
D03*
X-20000D02*
D03*
X-22000D02*
D03*
Y-21500D02*
D03*
X-20000D02*
D03*
Y-14750D02*
D03*
X-22000D02*
D03*
Y-13750D02*
D03*
X-20000D02*
D03*
X-24000Y-18000D02*
D03*
Y-16000D02*
D03*
X-27500Y-20500D02*
D03*
Y-18500D02*
D03*
X-22000Y-8250D02*
D03*
X-20000D02*
D03*
X-18000Y-30000D02*
D03*
Y-28000D02*
D03*
Y-18000D02*
D03*
Y-16000D02*
D03*
X-14500Y-20500D02*
D03*
Y-18500D02*
D03*
D30*
X23750Y-1500D02*
D03*
X-25500Y2500D02*
D03*
X-16500Y-1500D02*
D03*
X11250Y2500D02*
D03*
D31*
X23750D02*
D03*
X-25500Y-1500D02*
D03*
X-16500Y2500D02*
D03*
X11250Y-1500D02*
D03*
D32*
X25000Y-43500D02*
D03*
X23000D02*
D03*
D33*
X21000D02*
D03*
D34*
X-1000Y-44970D02*
D03*
X1067Y-43494D02*
D03*
X-3067D02*
D03*
X-17000Y-44970D02*
D03*
X-14933Y-43494D02*
D03*
X-19067D02*
D03*
X-9000Y-44970D02*
D03*
X-6933Y-43494D02*
D03*
X-11067D02*
D03*
X-27067D02*
D03*
X-22933D02*
D03*
X-25000Y-44970D02*
D03*
D35*
X-19500Y-39000D02*
D03*
Y-38000D02*
D03*
Y-37000D02*
D03*
Y-36000D02*
D03*
X-22500Y-37000D02*
D03*
Y-38000D02*
D03*
Y-39000D02*
D03*
X-19500Y-25750D02*
D03*
Y-24750D02*
D03*
Y-23750D02*
D03*
Y-22750D02*
D03*
X-22500Y-23750D02*
D03*
Y-24750D02*
D03*
Y-25750D02*
D03*
X-19500Y-12500D02*
D03*
Y-11500D02*
D03*
Y-10500D02*
D03*
Y-9500D02*
D03*
X-22500Y-10500D02*
D03*
Y-11500D02*
D03*
Y-12500D02*
D03*
D36*
Y-36000D02*
D03*
Y-22750D02*
D03*
Y-9500D02*
D03*
D37*
X1969Y2559D02*
D03*
X-1969D02*
D03*
X1969Y-2559D02*
D03*
X-1969D02*
D03*
D38*
X5000Y-46000D02*
D03*
D39*
X30750Y-45500D02*
D03*
Y-40500D02*
D03*
Y-35500D02*
D03*
Y-30500D02*
D03*
Y-25500D02*
D03*
Y-20500D02*
D03*
Y-15500D02*
D03*
Y-10500D02*
D03*
Y-5500D02*
D03*
Y-500D02*
D03*
Y4500D02*
D03*
Y9500D02*
D03*
Y14500D02*
D03*
X-30750Y-45500D02*
D03*
Y-40500D02*
D03*
Y-35500D02*
D03*
Y-30500D02*
D03*
Y-25500D02*
D03*
Y-20500D02*
D03*
Y-15500D02*
D03*
Y-10500D02*
D03*
Y-5500D02*
D03*
Y-500D02*
D03*
Y4500D02*
D03*
Y9500D02*
D03*
Y14500D02*
D03*
D40*
X-12500Y-7000D02*
D03*
X11550Y500D02*
D03*
X10000Y-500D02*
D03*
D41*
X5000Y-47000D02*
Y-46000D01*
X12500Y-47000D02*
Y-44500D01*
X10000Y-47000D02*
Y-44000D01*
X17000Y-47000D02*
Y-45968D01*
X23000Y-47000D02*
Y-43500D01*
X-30250Y-47000D02*
X30500D01*
D42*
X12500Y-40500D02*
Y-39000D01*
X11750Y-38250D02*
X12500Y-39000D01*
X10000Y-41000D02*
Y-38250D01*
X5500D02*
X11750D01*
D43*
X17000Y-43016D02*
X19016D01*
X19500Y-43500D02*
X21000D01*
X19016Y-43016D02*
X19500Y-43500D01*
X17000Y-42031D02*
Y-40000D01*
X16000Y-39000D02*
X17000Y-40000D01*
X13500Y-31000D02*
X16000Y-33500D01*
X12992Y-31000D02*
X13500D01*
X12579Y-31413D02*
X12992Y-31000D01*
X16000Y-39000D02*
Y-33500D01*
X21000Y-43500D02*
Y-41371D01*
X19439Y-39811D02*
X21000Y-41371D01*
X25000Y-43500D02*
Y-41129D01*
X21561Y-37689D02*
X25000Y-41129D01*
X19439Y-37689D02*
X21561D01*
X19000Y-37250D02*
X19439Y-37689D01*
X19000Y-33500D02*
X21500Y-31000D01*
X22008D01*
X22421Y-31413D01*
X19000Y-37250D02*
Y-33500D01*
M02*
