%FSLAX23Y23*%
%MOIN*%
G70*
G01*
G75*
G04 Layer_Physical_Order=2*
G04 Layer_Color=16711680*
%ADD10R,0.050X0.035*%
%ADD11R,0.054X0.050*%
%ADD12R,0.050X0.054*%
%ADD13C,0.055*%
%ADD14R,0.025X0.070*%
%ADD15R,0.025X0.075*%
%ADD16C,0.015*%
%ADD17C,0.025*%
%ADD18C,0.030*%
%ADD19C,0.040*%
%ADD20C,0.010*%
%ADD21C,0.020*%
%ADD22C,0.050*%
%ADD23C,0.065*%
%ADD24C,0.063*%
%ADD25R,0.063X0.063*%
%ADD26C,0.035*%
%ADD27P,0.070X8X22.5*%
%ADD28R,0.059X0.059*%
%ADD29C,0.059*%
%ADD30C,0.080*%
%ADD31C,0.059*%
%ADD32R,0.065X0.065*%
%ADD33C,0.217*%
%ADD34C,0.098*%
%ADD35R,0.098X0.098*%
%ADD36R,0.050X0.050*%
%ADD37C,0.058*%
%ADD38C,0.058*%
%ADD39C,0.040*%
%ADD40C,0.060*%
D16*
X-275Y1015D02*
X120D01*
X-300Y990D02*
X-275Y1015D01*
X-385Y1080D02*
X-335Y1030D01*
X-385Y1080D02*
Y1170D01*
X-350Y1090D02*
X-300Y1040D01*
X-50D01*
X-385Y1170D02*
X-360Y1195D01*
X-300Y850D02*
Y990D01*
X225Y1120D02*
Y1160D01*
X120Y1015D02*
X225Y1120D01*
X-50Y1040D02*
X50Y1140D01*
X-335Y840D02*
Y1030D01*
X-1050Y925D02*
Y1010D01*
X225Y1160D02*
X275Y1210D01*
Y1275D01*
X-800Y775D02*
Y825D01*
X325Y575D02*
Y635D01*
X245Y715D02*
X325Y635D01*
X-25Y715D02*
X245D01*
X-725Y900D02*
Y950D01*
X-800Y825D02*
X-725Y900D01*
X-325Y575D02*
Y785D01*
X-370Y830D02*
X-325Y785D01*
X-370Y830D02*
Y990D01*
X-275Y575D02*
Y780D01*
X-335Y840D02*
X-275Y780D01*
X-225Y575D02*
Y775D01*
X-300Y850D02*
X-225Y775D01*
D17*
X-600Y1220D02*
X-545Y1275D01*
X-1075Y1125D02*
X-1000Y1050D01*
Y925D02*
Y1050D01*
X-545Y1275D02*
X-100D01*
Y1235D02*
Y1275D01*
X-45Y1330D01*
X-150Y1185D02*
X-100Y1235D01*
X-150Y1140D02*
Y1185D01*
X620Y1330D02*
X700Y1250D01*
X-45Y1330D02*
X620D01*
X700Y1250D02*
X815D01*
X915Y1050D02*
Y1150D01*
X815Y1250D02*
X915Y1150D01*
D18*
X-270Y1075D02*
X-115D01*
X-315Y1120D02*
Y1220D01*
X-397Y1238D02*
X-333D01*
X-430Y1080D02*
Y1205D01*
X-397Y1238D01*
X-333D02*
X-315Y1220D01*
Y1120D02*
X-270Y1075D01*
X-115D02*
X-50Y1140D01*
X-800Y1080D02*
Y1330D01*
D19*
X-30Y1205D02*
X30D01*
X-50Y1140D02*
Y1185D01*
X-30Y1205D01*
X30D02*
X100Y1275D01*
X300Y1150D02*
X700D01*
X425Y1075D02*
Y1150D01*
X1465Y1010D02*
X1525Y950D01*
X975D02*
X1050Y875D01*
X975Y950D02*
Y1110D01*
X1225Y975D02*
X1260Y1010D01*
X1150Y975D02*
X1225D01*
X1260Y1010D02*
X1465D01*
X1275Y-250D02*
X1300Y-225D01*
X1200Y-250D02*
X1275D01*
X1300Y-225D02*
Y-150D01*
X1200Y-350D02*
Y-250D01*
X940Y-350D02*
X1040Y-450D01*
X940Y-350D02*
Y-150D01*
X1040Y-350D02*
Y-250D01*
X480Y-350D02*
Y-250D01*
X380Y-350D02*
Y-150D01*
Y-350D02*
X480Y-450D01*
X640Y-350D02*
Y-250D01*
X740Y-225D02*
Y-150D01*
X640Y-250D02*
X715D01*
X740Y-225D01*
X-80Y-350D02*
Y-250D01*
X-180Y-350D02*
Y-150D01*
Y-350D02*
X-80Y-450D01*
X80Y-350D02*
Y-250D01*
X180Y-225D02*
Y-150D01*
X80Y-250D02*
X155D01*
X180Y-225D01*
X-640Y-350D02*
Y-250D01*
X-740Y-350D02*
Y-150D01*
Y-350D02*
X-640Y-450D01*
X-480Y-350D02*
Y-250D01*
X-380Y-225D02*
Y-150D01*
X-480Y-250D02*
X-405D01*
X-380Y-225D01*
X-1200Y-350D02*
Y-250D01*
X-1300Y-350D02*
Y-150D01*
Y-350D02*
X-1200Y-450D01*
X-1040Y-350D02*
Y-250D01*
X-940Y-225D02*
Y-150D01*
X-1040Y-250D02*
X-965D01*
X-940Y-225D01*
X-1600Y-350D02*
Y-250D01*
X-1500Y-225D02*
Y-150D01*
X-1600Y-250D02*
X-1525D01*
X-1500Y-225D01*
X1040Y250D02*
Y350D01*
X940Y150D02*
Y350D01*
X1040Y450D01*
X1200Y250D02*
Y350D01*
X1300Y150D02*
Y225D01*
X1200Y250D02*
X1275D01*
X1300Y225D01*
X480Y250D02*
Y350D01*
X380Y150D02*
Y350D01*
X480Y450D01*
X640Y250D02*
Y350D01*
X740Y150D02*
Y225D01*
X640Y250D02*
X715D01*
X740Y225D01*
X-80Y250D02*
Y350D01*
X-180Y150D02*
Y350D01*
X-80Y450D01*
X80Y250D02*
Y350D01*
X180Y150D02*
Y225D01*
X80Y250D02*
X155D01*
X180Y225D01*
X-640Y250D02*
Y350D01*
X-740Y150D02*
Y350D01*
X-640Y450D01*
X-480Y250D02*
Y350D01*
X-380Y150D02*
Y225D01*
X-480Y250D02*
X-405D01*
X-380Y225D01*
X-1200Y250D02*
Y350D01*
X-1300Y150D02*
Y350D01*
X-1200Y450D01*
X-1040Y250D02*
Y350D01*
X-940Y150D02*
Y225D01*
X-1040Y250D02*
X-965D01*
X-940Y225D01*
X-1600Y250D02*
Y350D01*
X-1500Y150D02*
Y225D01*
X-1600Y250D02*
X-1525D01*
X-1500Y225D01*
X1500Y-350D02*
Y-150D01*
Y-350D02*
X1600Y-450D01*
X1500Y150D02*
Y350D01*
X1600Y450D01*
X480Y-250D02*
X560Y-170D01*
X1040Y-250D02*
X1120Y-170D01*
X1600Y-250D02*
X1680Y-170D01*
X-80Y-250D02*
X0Y-170D01*
X-640Y-250D02*
X-560Y-170D01*
X-1200Y-250D02*
X-1120Y-170D01*
X-1200Y250D02*
X-1120Y170D01*
X-640Y250D02*
X-560Y170D01*
X-80Y250D02*
X0Y170D01*
X480Y250D02*
X560Y170D01*
X1040Y250D02*
X1120Y170D01*
X1600Y250D02*
X1680Y170D01*
X1600Y-350D02*
Y-250D01*
Y250D02*
Y350D01*
X1800Y-150D02*
Y-100D01*
X1665Y-385D02*
Y-285D01*
X1600Y-450D02*
X1665Y-385D01*
Y-285D02*
X1800Y-150D01*
X1665Y285D02*
X1800Y150D01*
X1600Y450D02*
X1665Y385D01*
Y285D02*
Y385D01*
X1800Y100D02*
Y150D01*
X-1665Y385D02*
X-1600Y450D01*
X-1665Y-385D02*
X-1600Y-450D01*
X-1835Y-100D02*
X-1665Y-270D01*
Y-385D02*
Y-270D01*
X-1835Y100D02*
X-1665Y270D01*
Y385D01*
X1200Y450D02*
X1400Y250D01*
X1040Y450D02*
X1200D01*
X1400Y150D02*
Y250D01*
X840Y150D02*
Y250D01*
X640Y450D02*
X840Y250D01*
X480Y450D02*
X640D01*
X280Y150D02*
Y250D01*
X80Y450D02*
X280Y250D01*
X-80Y450D02*
X80D01*
X-280Y150D02*
Y250D01*
X-480Y450D02*
X-280Y250D01*
X-640Y450D02*
X-480D01*
X-840Y150D02*
Y250D01*
X-1040Y450D02*
X-840Y250D01*
X-1200Y450D02*
X-1040D01*
X-840Y-250D02*
Y-150D01*
X-1200Y-450D02*
X-1040D01*
X-840Y-250D01*
X-280D02*
Y-150D01*
X-640Y-450D02*
X-480D01*
X-280Y-250D01*
X280D02*
Y-150D01*
X-80Y-450D02*
X80D01*
X280Y-250D01*
X840D02*
Y-150D01*
X480Y-450D02*
X640D01*
X840Y-250D01*
X1400D02*
Y-150D01*
X1040Y-450D02*
X1200D01*
X1400Y-250D01*
X-1400D02*
Y-150D01*
X-1600Y-450D02*
X-1400Y-250D01*
Y150D02*
Y250D01*
X-1600Y450D02*
X-1400Y250D01*
X1325Y525D02*
X1400Y450D01*
X-1120Y-170D02*
Y170D01*
X-560Y-170D02*
Y170D01*
X0Y-170D02*
Y170D01*
X560Y-170D02*
Y170D01*
X1120Y-170D02*
Y170D01*
X1680Y-170D02*
Y170D01*
X-1200Y925D02*
X-1135Y860D01*
X-1200Y550D02*
X-1135D01*
Y860D01*
Y550D02*
X-1110Y525D01*
X-840Y450D02*
Y525D01*
X280Y450D02*
Y525D01*
X-280Y450D02*
Y525D01*
X425D02*
Y570D01*
X840Y450D02*
Y525D01*
X1050D02*
Y725D01*
X-1110Y525D02*
X1325D01*
D22*
X1025Y1250D02*
Y1300D01*
X1375Y1325D02*
X1425Y1275D01*
X925Y1240D02*
Y1250D01*
Y1240D02*
X990Y1175D01*
X1050Y1325D02*
X1375D01*
X1025Y1300D02*
X1050Y1325D01*
X1325Y700D02*
X1475Y850D01*
X1325Y650D02*
Y700D01*
X1525Y650D02*
Y725D01*
X1700Y850D02*
X1800Y950D01*
X1475Y850D02*
X1700D01*
X1525Y725D02*
X1550Y750D01*
X1800D01*
X1150Y1075D02*
X1425D01*
X990Y1175D02*
X1050D01*
X1150Y1075D01*
X1250Y875D02*
X1325Y950D01*
X1050Y875D02*
X1250D01*
X1665Y585D02*
X1800Y450D01*
X1250Y625D02*
X1290Y585D01*
X1250Y625D02*
Y875D01*
X1290Y585D02*
X1665D01*
D23*
X-640Y-250D02*
D03*
X-1040D02*
D03*
X-1600Y-450D02*
D03*
X-1200D02*
D03*
X1500Y150D02*
D03*
X1600Y450D02*
D03*
X1500Y-150D02*
D03*
X-1300Y625D02*
D03*
Y925D02*
D03*
X-1200Y250D02*
D03*
X-640D02*
D03*
X-80D02*
D03*
X480D02*
D03*
X1040D02*
D03*
X1600D02*
D03*
X-1750Y975D02*
D03*
X-1200Y-250D02*
D03*
X-80D02*
D03*
X480D02*
D03*
X1040D02*
D03*
X1600D02*
D03*
X-1850Y975D02*
D03*
X-1400Y625D02*
D03*
Y925D02*
D03*
X-1500Y150D02*
D03*
X-1400D02*
D03*
Y-150D02*
D03*
X-1500D02*
D03*
X-940Y150D02*
D03*
X-840D02*
D03*
Y-150D02*
D03*
X-940D02*
D03*
X-380Y150D02*
D03*
X-280D02*
D03*
Y-150D02*
D03*
X-380D02*
D03*
X180Y150D02*
D03*
X280D02*
D03*
Y-150D02*
D03*
X180D02*
D03*
X1300Y150D02*
D03*
X1400D02*
D03*
Y-150D02*
D03*
X1300D02*
D03*
X-50Y1140D02*
D03*
X-150D02*
D03*
X50D02*
D03*
X150D02*
D03*
X1150Y1075D02*
D03*
Y975D02*
D03*
X-1750Y575D02*
D03*
X-1850D02*
D03*
X-1200Y625D02*
D03*
Y925D02*
D03*
X-1500D02*
D03*
X-1600D02*
D03*
Y625D02*
D03*
X-1500D02*
D03*
X-1200Y150D02*
D03*
Y-150D02*
D03*
X-1600Y150D02*
D03*
X-1300D02*
D03*
Y-150D02*
D03*
X-1600D02*
D03*
X480Y150D02*
D03*
Y-150D02*
D03*
X80D02*
D03*
X380D02*
D03*
Y150D02*
D03*
X80D02*
D03*
X1200Y-150D02*
D03*
X1600D02*
D03*
Y150D02*
D03*
X1200D02*
D03*
X-1600Y-250D02*
D03*
X-1040Y-450D02*
D03*
X-640D02*
D03*
X-480D02*
D03*
X-80D02*
D03*
X-480Y-250D02*
D03*
X80Y-450D02*
D03*
X480D02*
D03*
X80Y-250D02*
D03*
X640D02*
D03*
X1200D02*
D03*
Y250D02*
D03*
Y450D02*
D03*
X640Y250D02*
D03*
Y450D02*
D03*
X1040D02*
D03*
X80Y250D02*
D03*
Y450D02*
D03*
X480D02*
D03*
X-480Y250D02*
D03*
Y450D02*
D03*
X-80D02*
D03*
X-1040D02*
D03*
X-640D02*
D03*
X-1040Y250D02*
D03*
X-640Y150D02*
D03*
Y-150D02*
D03*
X-1040D02*
D03*
X-740D02*
D03*
Y150D02*
D03*
X-1040D02*
D03*
X-1600Y450D02*
D03*
X-1200D02*
D03*
X-1600Y250D02*
D03*
X-1175Y1225D02*
D03*
X-1275D02*
D03*
X-1175Y1125D02*
D03*
X-1075D02*
D03*
X-1275D02*
D03*
X-1375Y1225D02*
D03*
Y1125D02*
D03*
X-1475Y1225D02*
D03*
Y1125D02*
D03*
X0Y1275D02*
D03*
X-100D02*
D03*
X-480Y-150D02*
D03*
X-180D02*
D03*
Y150D02*
D03*
X-480D02*
D03*
X-80Y-150D02*
D03*
Y150D02*
D03*
X640Y-150D02*
D03*
X940D02*
D03*
Y150D02*
D03*
X640D02*
D03*
X1040Y-150D02*
D03*
Y150D02*
D03*
X740Y-150D02*
D03*
X840D02*
D03*
Y150D02*
D03*
X740D02*
D03*
X1040Y-450D02*
D03*
X640D02*
D03*
X1200D02*
D03*
X1600D02*
D03*
X1800Y450D02*
D03*
X1200Y-350D02*
D03*
X1600D02*
D03*
X640D02*
D03*
X1040D02*
D03*
X80D02*
D03*
X480D02*
D03*
X-480D02*
D03*
X-80D02*
D03*
X-1040D02*
D03*
X-640D02*
D03*
X-1600D02*
D03*
X-1200D02*
D03*
X-1600Y350D02*
D03*
X-1200D02*
D03*
X-1040D02*
D03*
X-640D02*
D03*
X-480D02*
D03*
X-80D02*
D03*
X80D02*
D03*
X480D02*
D03*
X640D02*
D03*
X1040D02*
D03*
X1200D02*
D03*
X1600D02*
D03*
D24*
X-1835Y100D02*
D03*
Y0D02*
D03*
X1800Y100D02*
D03*
Y0D02*
D03*
D25*
X-1835Y-100D02*
D03*
X1800D02*
D03*
D26*
X-125Y695D02*
D03*
X-75D02*
D03*
X-800Y1080D02*
D03*
Y1330D02*
D03*
X-600Y1220D02*
D03*
X-1000Y925D02*
D03*
X-430Y1080D02*
D03*
X425Y1075D02*
D03*
X-1050Y1010D02*
D03*
Y925D02*
D03*
X275Y1275D02*
D03*
X-725Y950D02*
D03*
X-325Y575D02*
D03*
X-350Y1095D02*
D03*
X-370Y990D02*
D03*
X300Y1150D02*
D03*
X-25Y715D02*
D03*
X325Y575D02*
D03*
X-275D02*
D03*
X-225D02*
D03*
X-800Y775D02*
D03*
X-360Y1195D02*
D03*
D27*
X-250Y1140D02*
D03*
D28*
X1050Y725D02*
D03*
X700Y1250D02*
D03*
X1425Y1075D02*
D03*
D29*
X1050Y875D02*
D03*
X700Y1150D02*
D03*
X1425Y1275D02*
D03*
D30*
X1125Y1250D02*
D03*
X1025D02*
D03*
X925D02*
D03*
D31*
X1325Y650D02*
D03*
X1525D02*
D03*
Y950D02*
D03*
X1325D02*
D03*
D32*
X-1075Y1225D02*
D03*
X100Y1275D02*
D03*
D33*
X1811Y-383D02*
D03*
Y1231D02*
D03*
X-1811D02*
D03*
Y-383D02*
D03*
D34*
X1800Y750D02*
D03*
D35*
Y950D02*
D03*
D36*
X1035Y1050D02*
D03*
D37*
X975Y1110D02*
D03*
D38*
X915Y1050D02*
D03*
D39*
X-840Y450D02*
D03*
X-280D02*
D03*
X280D02*
D03*
X840D02*
D03*
X1400D02*
D03*
X-1200Y550D02*
D03*
X425Y570D02*
D03*
D40*
X-1835Y0D02*
X1800D01*
M02*
