%FSLAX23Y23*%
%MOIN*%
G70*
G01*
G75*
G04 Layer_Color=65535*
%ADD10R,0.050X0.035*%
%ADD11R,0.054X0.050*%
%ADD12R,0.050X0.054*%
%ADD13C,0.055*%
%ADD14R,0.025X0.070*%
%ADD15R,0.025X0.075*%
%ADD16C,0.020*%
%ADD17C,0.015*%
%ADD18C,0.025*%
%ADD19C,0.030*%
%ADD20C,0.040*%
%ADD21C,0.010*%
%ADD22C,0.050*%
%ADD23C,0.063*%
%ADD24P,0.068X8X202.5*%
%ADD25C,0.035*%
%ADD26C,0.065*%
%ADD27P,0.070X8X292.5*%
%ADD28P,0.070X8X22.5*%
%ADD29R,0.059X0.059*%
%ADD30C,0.059*%
%ADD31C,0.080*%
%ADD32C,0.059*%
%ADD33R,0.065X0.065*%
%ADD34C,0.217*%
%ADD35C,0.098*%
%ADD36R,0.098X0.098*%
%ADD37C,0.014*%
%ADD38C,0.008*%
%ADD39C,0.008*%
%ADD40C,0.010*%
%ADD41C,0.010*%
%ADD42R,0.400X0.050*%
G36*
X-1075Y1240D02*
X-1105Y1300D01*
X-1045D01*
X-1075Y1240D01*
D02*
G37*
D21*
X868Y1096D02*
G03*
X1062Y1097I97J-46D01*
G01*
X1207Y750D02*
G03*
X1207Y750I-157J0D01*
G01*
X1240Y950D02*
G03*
X1240Y950I-65J0D01*
G01*
X824Y1150D02*
G03*
X824Y1150I-124J0D01*
G01*
X1622Y1125D02*
G03*
X1622Y1125I-197J0D01*
G01*
X1365Y670D02*
G03*
X1325Y670I-20J0D01*
G01*
X1565D02*
G03*
X1525Y670I-20J0D01*
G01*
X1485D02*
G03*
X1525Y670I20J0D01*
G01*
X860Y960D02*
G03*
X860Y960I-5J0D01*
G01*
X-395Y945D02*
G03*
X-395Y945I-5J0D01*
G01*
X-370Y615D02*
G03*
X-370Y615I-5J0D01*
G01*
X855Y805D02*
G03*
X855Y745I0J-30D01*
G01*
X-355Y755D02*
G03*
X-355Y795I0J20D01*
G01*
X-395Y805D02*
G03*
X-395Y745I0J-30D01*
G01*
X1285Y670D02*
G03*
X1325Y670I20J0D01*
G01*
X868Y1096D02*
X1060D01*
X-80Y1040D02*
X-20D01*
X-80Y1140D02*
X-20D01*
X-100Y1120D02*
X-80Y1140D01*
X-100Y1060D02*
X-80Y1040D01*
X-20D02*
X0Y1060D01*
X-20Y1140D02*
X0Y1120D01*
X-300Y1060D02*
Y1120D01*
Y1060D02*
X-280Y1040D01*
X-120Y1140D02*
X-100Y1120D01*
X-120Y1040D02*
X-100Y1060D01*
X-200D02*
X-180Y1040D01*
X-200Y1120D02*
X-180Y1140D01*
X-220D02*
X-200Y1120D01*
X-220Y1040D02*
X-200Y1060D01*
X-300Y1140D02*
X-220D01*
X-180D02*
X-120D01*
X-180Y1040D02*
X-120D01*
X-280D02*
X-220D01*
X-300Y1120D02*
Y1140D01*
X20Y1040D02*
X80D01*
X20Y1140D02*
X80D01*
Y1040D02*
X100Y1060D01*
X80Y1140D02*
X100Y1120D01*
X180Y1140D02*
X200Y1120D01*
X180Y1040D02*
X200Y1060D01*
X100D02*
X120Y1040D01*
X100Y1120D02*
X120Y1140D01*
X180D01*
X120Y1040D02*
X180D01*
X220D02*
X280D01*
X220Y1140D02*
X280D01*
Y1040D02*
X300Y1060D01*
X280Y1140D02*
X300Y1120D01*
Y1060D02*
Y1120D01*
X0D02*
X20Y1140D01*
X200Y1120D02*
X220Y1140D01*
X0Y1060D02*
X20Y1040D01*
X200Y1060D02*
X220Y1040D01*
X830Y1140D02*
Y1275D01*
Y1140D02*
X1220D01*
Y1275D01*
X1265Y630D02*
Y870D01*
X1305D01*
X1345D02*
X1505D01*
X1545D02*
X1585D01*
Y630D02*
Y870D01*
X1345Y630D02*
X1505D01*
X1545D02*
X1585D01*
X1265D02*
X1305D01*
X-1800Y875D02*
X-1700D01*
X-1800Y575D02*
X-1700D01*
X-1800D02*
Y875D01*
X-1700Y575D02*
Y875D01*
X-1800Y575D02*
Y875D01*
X-1900Y575D02*
Y875D01*
Y575D02*
X-1800D01*
X-1900Y875D02*
X-1800D01*
X-1170Y545D02*
X-1120D01*
Y905D01*
X-1170D02*
X-1120D01*
X-1680Y545D02*
X-1630D01*
X-1680D02*
Y905D01*
X-1630D01*
X-1140Y605D02*
Y845D01*
Y605D02*
X-1130D01*
Y845D01*
X-1140D02*
X-1130D01*
X-1140D02*
X-1120D01*
X-1140Y605D02*
X-1120D01*
X-1730Y120D02*
X-1710D01*
X-1730Y-120D02*
X-1710D01*
X-1720D02*
X-1710D01*
X-1720D02*
Y120D01*
X-1710D01*
Y-120D02*
Y120D01*
X-1220Y-180D02*
X-1170D01*
Y180D01*
X-1220D02*
X-1170D01*
X-1730Y-180D02*
X-1680D01*
X-1730D02*
Y180D01*
X-1680D01*
X-580Y120D02*
X-560D01*
X-580Y-120D02*
X-560D01*
X-570D02*
X-560D01*
X-570D02*
Y120D01*
X-560D01*
Y-120D02*
Y120D01*
X-70Y-180D02*
X-20D01*
Y180D01*
X-70D02*
X-20D01*
X-580Y-180D02*
X-530D01*
X-580D02*
Y180D01*
X-530D01*
X20D02*
X70D01*
X20Y-180D02*
Y180D01*
Y-180D02*
X70D01*
X530Y180D02*
X580D01*
Y-180D02*
Y180D01*
X530Y-180D02*
X580D01*
X40Y-120D02*
Y120D01*
X30D02*
X40D01*
X30Y-120D02*
Y120D01*
Y-120D02*
X40D01*
X20D02*
X40D01*
X20Y120D02*
X40D01*
X595D02*
X615D01*
X595Y-120D02*
X615D01*
X605D02*
X615D01*
X605D02*
Y120D01*
X615D01*
Y-120D02*
Y120D01*
X1105Y-180D02*
X1155D01*
Y180D01*
X1105D02*
X1155D01*
X595Y-180D02*
X645D01*
X595D02*
Y180D01*
X645D01*
X1170D02*
X1220D01*
X1170Y-180D02*
Y180D01*
Y-180D02*
X1220D01*
X1680Y180D02*
X1730D01*
Y-180D02*
Y180D01*
X1680Y-180D02*
X1730D01*
X1190Y-120D02*
Y120D01*
X1180D02*
X1190D01*
X1180Y-120D02*
Y120D01*
Y-120D02*
X1190D01*
X1170D02*
X1190D01*
X1170Y120D02*
X1190D01*
X-1600Y-325D02*
X-1300D01*
X-1600Y-225D02*
X-1300D01*
X-1600Y-325D02*
Y-225D01*
X-1300Y-325D02*
Y-225D01*
X-1600Y-450D02*
X-1300D01*
X-1600Y-350D02*
X-1300D01*
X-1600Y-450D02*
Y-350D01*
X-1300Y-450D02*
Y-350D01*
X-1025Y-325D02*
X-725D01*
X-1025Y-225D02*
X-725D01*
X-1025Y-325D02*
Y-225D01*
X-725Y-325D02*
Y-225D01*
X-1025Y-450D02*
X-725D01*
X-1025Y-350D02*
X-725D01*
X-1025Y-450D02*
Y-350D01*
X-725Y-450D02*
Y-350D01*
X-450Y-325D02*
X-150D01*
X-450Y-225D02*
X-150D01*
X-450Y-325D02*
Y-225D01*
X-150Y-325D02*
Y-225D01*
X-450Y-450D02*
X-150D01*
X-450Y-350D02*
X-150D01*
X-450Y-450D02*
Y-350D01*
X-150Y-450D02*
Y-350D01*
X150Y-325D02*
X450D01*
X150Y-225D02*
X450D01*
X150Y-325D02*
Y-225D01*
X450Y-325D02*
Y-225D01*
X150Y-450D02*
X450D01*
X150Y-350D02*
X450D01*
X150Y-450D02*
Y-350D01*
X450Y-450D02*
Y-350D01*
X725Y-325D02*
X1025D01*
X725Y-225D02*
X1025D01*
X725Y-325D02*
Y-225D01*
X1025Y-325D02*
Y-225D01*
X725Y-450D02*
X1025D01*
X725Y-350D02*
X1025D01*
X725Y-450D02*
Y-350D01*
X1025Y-450D02*
Y-350D01*
X1300Y-325D02*
X1600D01*
X1300Y-225D02*
X1600D01*
X1300Y-325D02*
Y-225D01*
X1600Y-325D02*
Y-225D01*
X1300Y-450D02*
X1600D01*
X1300Y-350D02*
X1600D01*
X1300Y-450D02*
Y-350D01*
X1600Y-450D02*
Y-350D01*
X1300Y350D02*
X1600D01*
X1300Y450D02*
X1600D01*
X1300Y350D02*
Y450D01*
X1600Y350D02*
Y450D01*
X1300Y225D02*
X1600D01*
X1300Y325D02*
X1600D01*
X1300Y225D02*
Y325D01*
X1600Y225D02*
Y325D01*
X725Y350D02*
X1025D01*
X725Y450D02*
X1025D01*
X725Y350D02*
Y450D01*
X1025Y350D02*
Y450D01*
X725Y225D02*
X1025D01*
X725Y325D02*
X1025D01*
X725Y225D02*
Y325D01*
X1025Y225D02*
Y325D01*
X150Y350D02*
X450D01*
X150Y450D02*
X450D01*
X150Y350D02*
Y450D01*
X450Y350D02*
Y450D01*
X150Y225D02*
X450D01*
X150Y325D02*
X450D01*
X150Y225D02*
Y325D01*
X450Y225D02*
Y325D01*
X-450Y350D02*
X-150D01*
X-450Y450D02*
X-150D01*
X-450Y350D02*
Y450D01*
X-150Y350D02*
Y450D01*
X-450Y225D02*
X-150D01*
X-450Y325D02*
X-150D01*
X-450Y225D02*
Y325D01*
X-150Y225D02*
Y325D01*
X-1025Y225D02*
X-725D01*
X-1025Y325D02*
X-725D01*
X-1025Y225D02*
Y325D01*
X-725Y225D02*
Y325D01*
X-1025Y350D02*
X-725D01*
X-1025Y450D02*
X-725D01*
X-1025Y350D02*
Y450D01*
X-725Y350D02*
Y450D01*
X-1155Y180D02*
X-1105D01*
X-1155Y-180D02*
Y180D01*
Y-180D02*
X-1105D01*
X-645Y180D02*
X-595D01*
Y-180D02*
Y180D01*
X-645Y-180D02*
X-595D01*
X-1135Y-120D02*
Y120D01*
X-1145D02*
X-1135D01*
X-1145Y-120D02*
Y120D01*
Y-120D02*
X-1135D01*
X-1155D02*
X-1135D01*
X-1155Y120D02*
X-1135D01*
X-1600Y225D02*
X-1300D01*
X-1600Y325D02*
X-1300D01*
X-1600Y225D02*
Y325D01*
X-1300Y225D02*
Y325D01*
X-1600Y350D02*
X-1300D01*
X-1600Y450D02*
X-1300D01*
X-1600Y350D02*
Y450D01*
X-1300Y350D02*
Y450D01*
X855Y625D02*
Y745D01*
Y805D02*
Y925D01*
X395Y625D02*
X855D01*
X395D02*
Y925D01*
X855D01*
X-1945Y0D02*
X1950D01*
X-130Y1275D02*
X-70D01*
X-130Y1175D02*
X-70D01*
X-50Y1195D01*
X-70Y1275D02*
X-50Y1255D01*
X-150D02*
X-130Y1275D01*
X-150Y1195D02*
X-130Y1175D01*
X-150Y1195D02*
Y1255D01*
X150Y1195D02*
Y1255D01*
X130Y1275D02*
X150Y1255D01*
X-50Y1195D02*
X-30Y1175D01*
X-50Y1255D02*
X-30Y1275D01*
X30D02*
X50Y1255D01*
X30Y1175D02*
X50Y1195D01*
X70Y1175D01*
X50Y1255D02*
X70Y1275D01*
Y1175D02*
X150D01*
X-30D02*
X30D01*
X-30Y1275D02*
X30D01*
X70D02*
X130D01*
X150Y1175D02*
Y1195D01*
X0Y-575D02*
Y1325D01*
X-355Y795D02*
Y925D01*
Y625D02*
Y755D01*
X355Y625D02*
Y925D01*
X-355Y625D02*
X355D01*
X-355Y925D02*
X355D01*
X-855D02*
X-395D01*
X-855Y625D02*
Y925D01*
Y625D02*
X-395D01*
Y805D02*
Y925D01*
Y625D02*
Y745D01*
X1940Y730D02*
X1950D01*
X1940Y670D02*
Y730D01*
Y670D02*
X1950D01*
X1940Y870D02*
X1950D01*
X1940D02*
Y930D01*
X1950D01*
X1615Y1040D02*
X1950D01*
X1615Y560D02*
Y1040D01*
Y560D02*
X1950D01*
Y1040D01*
X-895Y1155D02*
X-855D01*
Y1135D01*
X-862Y1128D01*
X-875D01*
X-882Y1135D01*
Y1155D01*
Y1142D02*
X-895Y1128D01*
Y1095D02*
X-855D01*
X-875Y1115D01*
Y1088D01*
X-862Y1075D02*
X-855Y1068D01*
Y1055D01*
X-862Y1048D01*
X-888D01*
X-895Y1055D01*
Y1068D01*
X-888Y1075D01*
X-862D01*
X-1598Y1167D02*
X-1590Y1175D01*
Y1192D01*
X-1598Y1200D01*
X-1632D01*
X-1640Y1192D01*
Y1175D01*
X-1632Y1167D01*
X-1590Y1125D02*
Y1142D01*
X-1598Y1150D01*
X-1632D01*
X-1640Y1142D01*
Y1125D01*
X-1632Y1117D01*
X-1598D01*
X-1590Y1125D01*
X-1640Y1100D02*
X-1590D01*
X-1640Y1067D01*
X-1590D01*
X-1640Y1050D02*
Y1033D01*
Y1042D01*
X-1590D01*
X-1598Y1050D01*
X-1005Y1285D02*
X-1045D01*
Y1265D01*
X-1038Y1258D01*
X-1012D01*
X-1005Y1265D01*
Y1285D01*
X-1045Y1245D02*
Y1232D01*
Y1238D01*
X-1005D01*
X-1012Y1245D01*
X353Y1103D02*
X360Y1110D01*
Y1123D01*
X353Y1130D01*
X327D01*
X320Y1123D01*
Y1110D01*
X327Y1103D01*
X360Y1090D02*
Y1063D01*
X353D01*
X327Y1090D01*
X320D01*
X-493Y1043D02*
X-500Y1050D01*
X-513D01*
X-520Y1043D01*
Y1017D01*
X-513Y1010D01*
X-500D01*
X-493Y1017D01*
X-453Y1050D02*
X-467Y1043D01*
X-480Y1030D01*
Y1017D01*
X-473Y1010D01*
X-460D01*
X-453Y1017D01*
Y1023D01*
X-460Y1030D01*
X-480D01*
X-360Y1030D02*
X-393D01*
X-400Y1023D01*
Y1010D01*
X-393Y1003D01*
X-360D01*
X-400Y963D02*
Y990D01*
X-373Y963D01*
X-367D01*
X-360Y970D01*
Y983D01*
X-367Y990D01*
X905Y950D02*
X872D01*
X865Y943D01*
Y930D01*
X872Y923D01*
X905D01*
X898Y910D02*
X905Y903D01*
Y890D01*
X898Y883D01*
X892D01*
X885Y890D01*
Y897D01*
Y890D01*
X878Y883D01*
X872D01*
X865Y890D01*
Y903D01*
X872Y910D01*
X910Y940D02*
Y898D01*
X918Y890D01*
X935D01*
X943Y898D01*
Y940D01*
X993D02*
X960D01*
Y915D01*
X977Y923D01*
X985D01*
X993Y915D01*
Y898D01*
X985Y890D01*
X968D01*
X960Y898D01*
X745Y1315D02*
Y1273D01*
X753Y1265D01*
X770D01*
X778Y1273D01*
Y1315D01*
X820Y1265D02*
Y1315D01*
X795Y1290D01*
X828D01*
X-1080Y630D02*
X-1030D01*
Y605D01*
X-1038Y597D01*
X-1055D01*
X-1063Y605D01*
Y630D01*
Y613D02*
X-1080Y597D01*
Y555D02*
X-1030D01*
X-1055Y580D01*
Y547D01*
X-1038Y530D02*
X-1030Y522D01*
Y505D01*
X-1038Y497D01*
X-1047D01*
X-1055Y505D01*
Y513D01*
Y505D01*
X-1063Y497D01*
X-1072D01*
X-1080Y505D01*
Y522D01*
X-1072Y530D01*
X-975Y630D02*
X-925D01*
Y605D01*
X-933Y597D01*
X-950D01*
X-958Y605D01*
Y630D01*
Y613D02*
X-975Y597D01*
Y555D02*
X-925D01*
X-950Y580D01*
Y547D01*
X-975Y497D02*
Y530D01*
X-942Y497D01*
X-933D01*
X-925Y505D01*
Y522D01*
X-933Y530D01*
X-1775Y780D02*
X-1725D01*
Y755D01*
X-1733Y747D01*
X-1750D01*
X-1758Y755D01*
Y780D01*
Y763D02*
X-1775Y747D01*
Y697D02*
Y730D01*
X-1742Y697D01*
X-1733D01*
X-1725Y705D01*
Y722D01*
X-1733Y730D01*
X-1725Y680D02*
Y647D01*
X-1733D01*
X-1767Y680D01*
X-1775D01*
X-1874Y780D02*
X-1824D01*
Y755D01*
X-1832Y747D01*
X-1849D01*
X-1857Y755D01*
Y780D01*
Y763D02*
X-1874Y747D01*
Y730D02*
Y713D01*
Y722D01*
X-1824D01*
X-1832Y730D01*
X-1874Y663D02*
X-1824D01*
X-1849Y688D01*
Y655D01*
X-705Y1010D02*
Y1050D01*
X-685D01*
X-678Y1043D01*
Y1030D01*
X-685Y1023D01*
X-705D01*
X-692D02*
X-678Y1010D01*
X-665Y1043D02*
X-658Y1050D01*
X-645D01*
X-638Y1043D01*
Y1037D01*
X-645Y1030D01*
X-652D01*
X-645D01*
X-638Y1023D01*
Y1017D01*
X-645Y1010D01*
X-658D01*
X-665Y1017D01*
X-625D02*
X-618Y1010D01*
X-605D01*
X-598Y1017D01*
Y1043D01*
X-605Y1050D01*
X-618D01*
X-625Y1043D01*
Y1037D01*
X-618Y1030D01*
X-598D01*
X-935Y1285D02*
X-895D01*
Y1265D01*
X-902Y1258D01*
X-915D01*
X-922Y1265D01*
Y1285D01*
Y1272D02*
X-935Y1258D01*
X-902Y1245D02*
X-895Y1238D01*
Y1225D01*
X-902Y1218D01*
X-908D01*
X-915Y1225D01*
Y1232D01*
Y1225D01*
X-922Y1218D01*
X-928D01*
X-935Y1225D01*
Y1238D01*
X-928Y1245D01*
X-902Y1205D02*
X-895Y1198D01*
Y1185D01*
X-902Y1178D01*
X-908D01*
X-915Y1185D01*
X-922Y1178D01*
X-928D01*
X-935Y1185D01*
Y1198D01*
X-928Y1205D01*
X-922D01*
X-915Y1198D01*
X-908Y1205D01*
X-902D01*
X-915Y1198D02*
Y1185D01*
X430Y1130D02*
X470D01*
Y1110D01*
X463Y1103D01*
X450D01*
X443Y1110D01*
Y1130D01*
Y1117D02*
X430Y1103D01*
X463Y1090D02*
X470Y1083D01*
Y1070D01*
X463Y1063D01*
X457D01*
X450Y1070D01*
Y1077D01*
Y1070D01*
X443Y1063D01*
X437D01*
X430Y1070D01*
Y1083D01*
X437Y1090D01*
X470Y1050D02*
Y1023D01*
X463D01*
X437Y1050D01*
X430D01*
X-1510Y370D02*
Y420D01*
X-1485D01*
X-1477Y412D01*
Y395D01*
X-1485Y387D01*
X-1510D01*
X-1493D02*
X-1477Y370D01*
X-1460Y412D02*
X-1452Y420D01*
X-1435D01*
X-1427Y412D01*
Y403D01*
X-1435Y395D01*
X-1443D01*
X-1435D01*
X-1427Y387D01*
Y378D01*
X-1435Y370D01*
X-1452D01*
X-1460Y378D01*
X-1410Y412D02*
X-1402Y420D01*
X-1385D01*
X-1377Y412D01*
Y403D01*
X-1385Y395D01*
X-1393D01*
X-1385D01*
X-1377Y387D01*
Y378D01*
X-1385Y370D01*
X-1402D01*
X-1410Y378D01*
X-1515Y-420D02*
Y-370D01*
X-1490D01*
X-1482Y-378D01*
Y-395D01*
X-1490Y-403D01*
X-1515D01*
X-1498D02*
X-1482Y-420D01*
X-1432D02*
X-1465D01*
X-1432Y-387D01*
Y-378D01*
X-1440Y-370D01*
X-1457D01*
X-1465Y-378D01*
X-1415D02*
X-1407Y-370D01*
X-1390D01*
X-1382Y-378D01*
Y-412D01*
X-1390Y-420D01*
X-1407D01*
X-1415Y-412D01*
Y-378D01*
X485Y1130D02*
X525D01*
Y1110D01*
X518Y1103D01*
X505D01*
X498Y1110D01*
Y1130D01*
Y1117D02*
X485Y1103D01*
X518Y1090D02*
X525Y1083D01*
Y1070D01*
X518Y1063D01*
X512D01*
X505Y1070D01*
Y1077D01*
Y1070D01*
X498Y1063D01*
X492D01*
X485Y1070D01*
Y1083D01*
X492Y1090D01*
X525Y1023D02*
X518Y1037D01*
X505Y1050D01*
X492D01*
X485Y1043D01*
Y1030D01*
X492Y1023D01*
X498D01*
X505Y1030D01*
Y1050D01*
X-1505Y245D02*
Y295D01*
X-1480D01*
X-1472Y287D01*
Y270D01*
X-1480Y262D01*
X-1505D01*
X-1488D02*
X-1472Y245D01*
X-1422D02*
X-1455D01*
X-1422Y278D01*
Y287D01*
X-1430Y295D01*
X-1447D01*
X-1455Y287D01*
X-1372Y295D02*
X-1388Y287D01*
X-1405Y270D01*
Y253D01*
X-1397Y245D01*
X-1380D01*
X-1372Y253D01*
Y262D01*
X-1380Y270D01*
X-1405D01*
X-1515Y-295D02*
Y-245D01*
X-1490D01*
X-1482Y-253D01*
Y-270D01*
X-1490Y-278D01*
X-1515D01*
X-1498D02*
X-1482Y-295D01*
X-1465D02*
X-1448D01*
X-1457D01*
Y-245D01*
X-1465Y-253D01*
X-1423D02*
X-1415Y-245D01*
X-1398D01*
X-1390Y-253D01*
Y-262D01*
X-1398Y-270D01*
X-1407D01*
X-1398D01*
X-1390Y-278D01*
Y-287D01*
X-1398Y-295D01*
X-1415D01*
X-1423Y-287D01*
X-880Y1285D02*
X-840D01*
Y1265D01*
X-847Y1258D01*
X-860D01*
X-867Y1265D01*
Y1285D01*
Y1272D02*
X-880Y1258D01*
X-847Y1245D02*
X-840Y1238D01*
Y1225D01*
X-847Y1218D01*
X-853D01*
X-860Y1225D01*
Y1232D01*
Y1225D01*
X-867Y1218D01*
X-873D01*
X-880Y1225D01*
Y1238D01*
X-873Y1245D01*
X-840Y1178D02*
Y1205D01*
X-860D01*
X-853Y1192D01*
Y1185D01*
X-860Y1178D01*
X-873D01*
X-880Y1185D01*
Y1198D01*
X-873Y1205D01*
X-935Y375D02*
Y425D01*
X-910D01*
X-902Y417D01*
Y400D01*
X-910Y392D01*
X-935D01*
X-918D02*
X-902Y375D01*
X-885Y417D02*
X-877Y425D01*
X-860D01*
X-852Y417D01*
Y408D01*
X-860Y400D01*
X-868D01*
X-860D01*
X-852Y392D01*
Y383D01*
X-860Y375D01*
X-877D01*
X-885Y383D01*
X-802Y375D02*
X-835D01*
X-802Y408D01*
Y417D01*
X-810Y425D01*
X-827D01*
X-835Y417D01*
X-945Y-420D02*
Y-370D01*
X-920D01*
X-912Y-378D01*
Y-395D01*
X-920Y-403D01*
X-945D01*
X-928D02*
X-912Y-420D01*
X-895D02*
X-878D01*
X-887D01*
Y-370D01*
X-895Y-378D01*
X-853Y-412D02*
X-845Y-420D01*
X-828D01*
X-820Y-412D01*
Y-378D01*
X-828Y-370D01*
X-845D01*
X-853Y-378D01*
Y-387D01*
X-845Y-395D01*
X-820D01*
X-155Y1275D02*
Y1315D01*
X-135D01*
X-128Y1308D01*
Y1295D01*
X-135Y1288D01*
X-155D01*
X-142D02*
X-128Y1275D01*
X-115Y1308D02*
X-108Y1315D01*
X-95D01*
X-88Y1308D01*
Y1302D01*
X-95Y1295D01*
X-102D01*
X-95D01*
X-88Y1288D01*
Y1282D01*
X-95Y1275D01*
X-108D01*
X-115Y1282D01*
X-55Y1275D02*
Y1315D01*
X-75Y1295D01*
X-48D01*
X-940Y245D02*
Y295D01*
X-915D01*
X-907Y287D01*
Y270D01*
X-915Y262D01*
X-940D01*
X-923D02*
X-907Y245D01*
X-857D02*
X-890D01*
X-857Y278D01*
Y287D01*
X-865Y295D01*
X-882D01*
X-890Y287D01*
X-807Y295D02*
X-840D01*
Y270D01*
X-823Y278D01*
X-815D01*
X-807Y270D01*
Y253D01*
X-815Y245D01*
X-832D01*
X-840Y253D01*
X-945Y-295D02*
Y-245D01*
X-920D01*
X-912Y-253D01*
Y-270D01*
X-920Y-278D01*
X-945D01*
X-928D02*
X-912Y-295D01*
X-895D02*
X-878D01*
X-887D01*
Y-245D01*
X-895Y-253D01*
X-820Y-295D02*
X-853D01*
X-820Y-262D01*
Y-253D01*
X-828Y-245D01*
X-845D01*
X-853Y-253D01*
X-1490Y695D02*
Y745D01*
X-1465D01*
X-1457Y737D01*
Y720D01*
X-1465Y712D01*
X-1490D01*
X-1473D02*
X-1457Y695D01*
X-1407Y745D02*
X-1440D01*
Y695D01*
X-1407D01*
X-1440Y720D02*
X-1423D01*
X-1390Y745D02*
Y695D01*
X-1357D01*
X-1340Y745D02*
X-1307D01*
Y737D01*
X-1340Y703D01*
Y695D01*
X-360Y375D02*
Y425D01*
X-335D01*
X-327Y417D01*
Y400D01*
X-335Y392D01*
X-360D01*
X-343D02*
X-327Y375D01*
X-310Y417D02*
X-302Y425D01*
X-285D01*
X-277Y417D01*
Y408D01*
X-285Y400D01*
X-293D01*
X-285D01*
X-277Y392D01*
Y383D01*
X-285Y375D01*
X-302D01*
X-310Y383D01*
X-260Y375D02*
X-243D01*
X-252D01*
Y425D01*
X-260Y417D01*
X-370Y-425D02*
Y-375D01*
X-345D01*
X-337Y-383D01*
Y-400D01*
X-345Y-408D01*
X-370D01*
X-353D02*
X-337Y-425D01*
X-320D02*
X-303D01*
X-312D01*
Y-375D01*
X-320Y-383D01*
X-278D02*
X-270Y-375D01*
X-253D01*
X-245Y-383D01*
Y-392D01*
X-253Y-400D01*
X-245Y-408D01*
Y-417D01*
X-253Y-425D01*
X-270D01*
X-278Y-417D01*
Y-408D01*
X-270Y-400D01*
X-278Y-392D01*
Y-383D01*
X-270Y-400D02*
X-253D01*
X-360Y250D02*
Y300D01*
X-335D01*
X-327Y292D01*
Y275D01*
X-335Y267D01*
X-360D01*
X-343D02*
X-327Y250D01*
X-277D02*
X-310D01*
X-277Y283D01*
Y292D01*
X-285Y300D01*
X-302D01*
X-310Y292D01*
X-235Y250D02*
Y300D01*
X-260Y275D01*
X-227D01*
X-350Y-295D02*
Y-245D01*
X-325D01*
X-317Y-253D01*
Y-270D01*
X-325Y-278D01*
X-350D01*
X-333D02*
X-317Y-295D01*
X-300D02*
X-283D01*
X-292D01*
Y-245D01*
X-300Y-253D01*
X-258Y-295D02*
X-242D01*
X-250D01*
Y-245D01*
X-258Y-253D01*
X-1530Y30D02*
Y80D01*
X-1505D01*
X-1497Y72D01*
Y55D01*
X-1505Y47D01*
X-1530D01*
X-1513D02*
X-1497Y30D01*
X-1447Y80D02*
X-1480D01*
Y30D01*
X-1447D01*
X-1480Y55D02*
X-1463D01*
X-1430Y80D02*
Y30D01*
X-1397D01*
X-1347Y80D02*
X-1363Y72D01*
X-1380Y55D01*
Y38D01*
X-1372Y30D01*
X-1355D01*
X-1347Y38D01*
Y47D01*
X-1355Y55D01*
X-1380D01*
X235Y375D02*
Y425D01*
X260D01*
X268Y417D01*
Y400D01*
X260Y392D01*
X235D01*
X252D02*
X268Y375D01*
X285Y417D02*
X293Y425D01*
X310D01*
X318Y417D01*
Y408D01*
X310Y400D01*
X302D01*
X310D01*
X318Y392D01*
Y383D01*
X310Y375D01*
X293D01*
X285Y383D01*
X335Y417D02*
X343Y425D01*
X360D01*
X368Y417D01*
Y383D01*
X360Y375D01*
X343D01*
X335Y383D01*
Y417D01*
X245Y-420D02*
Y-370D01*
X270D01*
X278Y-378D01*
Y-395D01*
X270Y-403D01*
X245D01*
X262D02*
X278Y-420D01*
X295D02*
X312D01*
X303D01*
Y-370D01*
X295Y-378D01*
X337Y-370D02*
X370D01*
Y-378D01*
X337Y-412D01*
Y-420D01*
X-945Y30D02*
Y80D01*
X-920D01*
X-912Y72D01*
Y55D01*
X-920Y47D01*
X-945D01*
X-928D02*
X-912Y30D01*
X-862Y80D02*
X-895D01*
Y30D01*
X-862D01*
X-895Y55D02*
X-878D01*
X-845Y80D02*
Y30D01*
X-812D01*
X-762Y80D02*
X-795D01*
Y55D01*
X-778Y63D01*
X-770D01*
X-762Y55D01*
Y38D01*
X-770Y30D01*
X-787D01*
X-795Y38D01*
X235Y250D02*
Y300D01*
X260D01*
X268Y292D01*
Y275D01*
X260Y267D01*
X235D01*
X252D02*
X268Y250D01*
X318D02*
X285D01*
X318Y283D01*
Y292D01*
X310Y300D01*
X293D01*
X285Y292D01*
X335D02*
X343Y300D01*
X360D01*
X368Y292D01*
Y283D01*
X360Y275D01*
X352D01*
X360D01*
X368Y267D01*
Y258D01*
X360Y250D01*
X343D01*
X335Y258D01*
X245Y-295D02*
Y-245D01*
X270D01*
X278Y-253D01*
Y-270D01*
X270Y-278D01*
X245D01*
X262D02*
X278Y-295D01*
X295D02*
X312D01*
X303D01*
Y-245D01*
X295Y-253D01*
X337D02*
X345Y-245D01*
X362D01*
X370Y-253D01*
Y-287D01*
X362Y-295D01*
X345D01*
X337Y-287D01*
Y-253D01*
X-370Y30D02*
Y80D01*
X-345D01*
X-337Y72D01*
Y55D01*
X-345Y47D01*
X-370D01*
X-353D02*
X-337Y30D01*
X-287Y80D02*
X-320D01*
Y30D01*
X-287D01*
X-320Y55D02*
X-303D01*
X-270Y80D02*
Y30D01*
X-237D01*
X-195D02*
Y80D01*
X-220Y55D01*
X-187D01*
X805Y380D02*
Y430D01*
X830D01*
X838Y422D01*
Y405D01*
X830Y397D01*
X805D01*
X822D02*
X838Y380D01*
X888D02*
X855D01*
X888Y413D01*
Y422D01*
X880Y430D01*
X863D01*
X855Y422D01*
X905Y388D02*
X913Y380D01*
X930D01*
X938Y388D01*
Y422D01*
X930Y430D01*
X913D01*
X905Y422D01*
Y413D01*
X913Y405D01*
X938D01*
X805Y-420D02*
Y-370D01*
X830D01*
X838Y-378D01*
Y-395D01*
X830Y-403D01*
X805D01*
X822D02*
X838Y-420D01*
X855D02*
X872D01*
X863D01*
Y-370D01*
X855Y-378D01*
X930Y-370D02*
X913Y-378D01*
X897Y-395D01*
Y-412D01*
X905Y-420D01*
X922D01*
X930Y-412D01*
Y-403D01*
X922Y-395D01*
X897D01*
X215Y30D02*
Y80D01*
X240D01*
X248Y72D01*
Y55D01*
X240Y47D01*
X215D01*
X232D02*
X248Y30D01*
X298Y80D02*
X265D01*
Y30D01*
X298D01*
X265Y55D02*
X282D01*
X315Y80D02*
Y30D01*
X348D01*
X365Y72D02*
X373Y80D01*
X390D01*
X398Y72D01*
Y63D01*
X390Y55D01*
X382D01*
X390D01*
X398Y47D01*
Y38D01*
X390Y30D01*
X373D01*
X365Y38D01*
X805Y250D02*
Y300D01*
X830D01*
X838Y292D01*
Y275D01*
X830Y267D01*
X805D01*
X822D02*
X838Y250D01*
X888D02*
X855D01*
X888Y283D01*
Y292D01*
X880Y300D01*
X863D01*
X855Y292D01*
X938Y250D02*
X905D01*
X938Y283D01*
Y292D01*
X930Y300D01*
X913D01*
X905Y292D01*
X830Y-300D02*
Y-250D01*
X855D01*
X863Y-258D01*
Y-275D01*
X855Y-283D01*
X830D01*
X847D02*
X863Y-300D01*
X880Y-292D02*
X888Y-300D01*
X905D01*
X913Y-292D01*
Y-258D01*
X905Y-250D01*
X888D01*
X880Y-258D01*
Y-267D01*
X888Y-275D01*
X913D01*
X795Y30D02*
Y80D01*
X820D01*
X828Y72D01*
Y55D01*
X820Y47D01*
X795D01*
X812D02*
X828Y30D01*
X878Y80D02*
X845D01*
Y30D01*
X878D01*
X845Y55D02*
X862D01*
X895Y80D02*
Y30D01*
X928D01*
X978D02*
X945D01*
X978Y63D01*
Y72D01*
X970Y80D01*
X953D01*
X945Y72D01*
X1385Y375D02*
Y425D01*
X1410D01*
X1418Y417D01*
Y400D01*
X1410Y392D01*
X1385D01*
X1402D02*
X1418Y375D01*
X1468D02*
X1435D01*
X1468Y408D01*
Y417D01*
X1460Y425D01*
X1443D01*
X1435Y417D01*
X1485D02*
X1493Y425D01*
X1510D01*
X1518Y417D01*
Y408D01*
X1510Y400D01*
X1518Y392D01*
Y383D01*
X1510Y375D01*
X1493D01*
X1485Y383D01*
Y392D01*
X1493Y400D01*
X1485Y408D01*
Y417D01*
X1493Y400D02*
X1510D01*
X1385Y-420D02*
Y-370D01*
X1410D01*
X1418Y-378D01*
Y-395D01*
X1410Y-403D01*
X1385D01*
X1402D02*
X1418Y-420D01*
X1435D02*
X1452D01*
X1443D01*
Y-370D01*
X1435Y-378D01*
X1510Y-370D02*
X1477D01*
Y-395D01*
X1493Y-387D01*
X1502D01*
X1510Y-395D01*
Y-412D01*
X1502Y-420D01*
X1485D01*
X1477Y-412D01*
X1370Y30D02*
Y80D01*
X1395D01*
X1403Y72D01*
Y55D01*
X1395Y47D01*
X1370D01*
X1387D02*
X1403Y30D01*
X1453Y80D02*
X1420D01*
Y30D01*
X1453D01*
X1420Y55D02*
X1437D01*
X1470Y80D02*
Y30D01*
X1503D01*
X1520D02*
X1537D01*
X1528D01*
Y80D01*
X1520Y72D01*
X1385Y250D02*
Y300D01*
X1410D01*
X1418Y292D01*
Y275D01*
X1410Y267D01*
X1385D01*
X1402D02*
X1418Y250D01*
X1468D02*
X1435D01*
X1468Y283D01*
Y292D01*
X1460Y300D01*
X1443D01*
X1435Y292D01*
X1485Y250D02*
X1502D01*
X1493D01*
Y300D01*
X1485Y292D01*
X1405Y-295D02*
Y-245D01*
X1430D01*
X1438Y-253D01*
Y-270D01*
X1430Y-278D01*
X1405D01*
X1422D02*
X1438Y-295D01*
X1455Y-253D02*
X1463Y-245D01*
X1480D01*
X1488Y-253D01*
Y-262D01*
X1480Y-270D01*
X1488Y-278D01*
Y-287D01*
X1480Y-295D01*
X1463D01*
X1455Y-287D01*
Y-278D01*
X1463Y-270D01*
X1455Y-262D01*
Y-253D01*
X1463Y-270D02*
X1480D01*
X1765Y480D02*
Y530D01*
X1790D01*
X1798Y522D01*
Y505D01*
X1790Y497D01*
X1765D01*
X1815Y530D02*
Y480D01*
X1832Y497D01*
X1848Y480D01*
Y530D01*
X1865Y480D02*
Y530D01*
X1890D01*
X1898Y522D01*
Y505D01*
X1890Y497D01*
X1865D01*
X1882D02*
X1898Y480D01*
X-1705Y375D02*
Y392D01*
X-1713Y400D01*
X-1747D01*
X-1755Y392D01*
Y375D01*
X-1747Y367D01*
X-1713D01*
X-1705Y375D01*
X-1722Y350D02*
X-1747D01*
X-1755Y342D01*
Y317D01*
X-1722D01*
X-1713Y292D02*
X-1722D01*
Y300D01*
Y283D01*
Y292D01*
X-1747D01*
X-1755Y283D01*
Y225D02*
Y258D01*
X-1722Y225D01*
X-1713D01*
X-1705Y233D01*
Y250D01*
X-1713Y258D01*
X1755Y330D02*
Y313D01*
Y322D01*
X1705D01*
Y330D01*
Y313D01*
Y288D02*
X1738D01*
Y263D01*
X1730Y255D01*
X1705D01*
Y205D02*
Y238D01*
X1738Y205D01*
X1747D01*
X1755Y213D01*
Y230D01*
X1747Y238D01*
X-1685Y-230D02*
Y-213D01*
X-1693Y-205D01*
X-1727D01*
X-1735Y-213D01*
Y-230D01*
X-1727Y-238D01*
X-1693D01*
X-1685Y-230D01*
X-1702Y-255D02*
X-1727D01*
X-1735Y-263D01*
Y-288D01*
X-1702D01*
X-1693Y-313D02*
X-1702D01*
Y-305D01*
Y-322D01*
Y-313D01*
X-1727D01*
X-1735Y-322D01*
Y-347D02*
Y-363D01*
Y-355D01*
X-1685D01*
X-1693Y-347D01*
X1755Y-210D02*
Y-227D01*
Y-218D01*
X1705D01*
Y-210D01*
Y-227D01*
Y-252D02*
X1738D01*
Y-277D01*
X1730Y-285D01*
X1705D01*
Y-302D02*
Y-318D01*
Y-310D01*
X1755D01*
X1747Y-302D01*
X1390Y600D02*
Y550D01*
X1415D01*
X1423Y558D01*
Y592D01*
X1415Y600D01*
X1390D01*
X1465Y550D02*
Y600D01*
X1440Y575D01*
X1473D01*
X1125Y1075D02*
Y1025D01*
X1150D01*
X1158Y1033D01*
Y1067D01*
X1150Y1075D01*
X1125D01*
X1175Y1067D02*
X1183Y1075D01*
X1200D01*
X1208Y1067D01*
Y1058D01*
X1200Y1050D01*
X1192D01*
X1200D01*
X1208Y1042D01*
Y1033D01*
X1200Y1025D01*
X1183D01*
X1175Y1033D01*
X608Y1307D02*
X600Y1315D01*
X583D01*
X575Y1307D01*
Y1273D01*
X583Y1265D01*
X600D01*
X608Y1273D01*
X658Y1315D02*
X625D01*
Y1290D01*
X642Y1298D01*
X650D01*
X658Y1290D01*
Y1273D01*
X650Y1265D01*
X633D01*
X625Y1273D01*
X973Y567D02*
X965Y575D01*
X948D01*
X940Y567D01*
Y533D01*
X948Y525D01*
X965D01*
X973Y533D01*
X1015Y525D02*
Y575D01*
X990Y550D01*
X1023D01*
X1623Y1297D02*
X1615Y1305D01*
X1598D01*
X1590Y1297D01*
Y1263D01*
X1598Y1255D01*
X1615D01*
X1623Y1263D01*
X1640Y1297D02*
X1648Y1305D01*
X1665D01*
X1673Y1297D01*
Y1288D01*
X1665Y1280D01*
X1657D01*
X1665D01*
X1673Y1272D01*
Y1263D01*
X1665Y1255D01*
X1648D01*
X1640Y1263D01*
X-957Y1258D02*
X-950Y1265D01*
Y1278D01*
X-957Y1285D01*
X-983D01*
X-990Y1278D01*
Y1265D01*
X-983Y1258D01*
X-990Y1218D02*
Y1245D01*
X-963Y1218D01*
X-957D01*
X-950Y1225D01*
Y1238D01*
X-957Y1245D01*
X408Y1103D02*
X415Y1110D01*
Y1123D01*
X408Y1130D01*
X382D01*
X375Y1123D01*
Y1110D01*
X382Y1103D01*
X375Y1090D02*
Y1077D01*
Y1083D01*
X415D01*
X408Y1090D01*
X-355Y595D02*
X-388D01*
X-395Y588D01*
Y575D01*
X-388Y568D01*
X-355D01*
X-395Y555D02*
Y542D01*
Y548D01*
X-355D01*
X-362Y555D01*
X100Y520D02*
X133D01*
X117D01*
Y470D01*
X150D02*
Y520D01*
X175D01*
X183Y512D01*
Y495D01*
X175Y487D01*
X150D01*
X200Y512D02*
X208Y520D01*
X225D01*
X233Y512D01*
Y503D01*
X225Y495D01*
X217D01*
X225D01*
X233Y487D01*
Y478D01*
X225Y470D01*
X208D01*
X200Y478D01*
X1820Y-30D02*
Y-63D01*
X1803Y-47D02*
X1837D01*
X1820Y30D02*
Y63D01*
X1803Y47D02*
X1837D01*
X1055Y533D02*
Y567D01*
X1038Y550D02*
X1071D01*
X695Y1327D02*
Y1294D01*
X712Y1311D02*
X679D01*
X1430Y869D02*
Y902D01*
X1413Y886D02*
X1446D01*
X1505Y825D02*
X1538D01*
X1522Y842D02*
Y808D01*
X1305Y825D02*
X1338D01*
X-1820Y-30D02*
Y-63D01*
X-1803Y-47D02*
X-1837D01*
X-1820Y30D02*
Y63D01*
X-1803Y47D02*
X-1837D01*
D37*
X-1093Y925D02*
G03*
X-1093Y925I-7J0D01*
G01*
X-1743Y-200D02*
G03*
X-1743Y-200I-7J0D01*
G01*
X-593D02*
G03*
X-593Y-200I-7J0D01*
G01*
X7D02*
G03*
X7Y-200I-7J0D01*
G01*
X582D02*
G03*
X582Y-200I-7J0D01*
G01*
X1157D02*
G03*
X1157Y-200I-7J0D01*
G01*
X-1168D02*
G03*
X-1168Y-200I-7J0D01*
G01*
D38*
X1775Y-80D02*
X1935D01*
X1775Y-320D02*
Y-80D01*
X1935Y-320D02*
Y-80D01*
X1775Y-320D02*
X1935D01*
X1775Y80D02*
X1935D01*
X1775D02*
Y320D01*
X1935Y80D02*
Y320D01*
X1775D02*
X1935D01*
X-840Y1082D02*
Y1140D01*
Y1082D02*
X-760D01*
Y1142D01*
X-633Y1125D02*
X-572D01*
Y1045D02*
Y1125D01*
X-585Y1045D02*
X-572D01*
X-728Y1125D02*
X-670D01*
X-728Y1045D02*
Y1125D01*
Y1045D02*
X-720D01*
X-452Y1125D02*
X-392D01*
Y1045D02*
Y1125D01*
X-405Y1045D02*
X-392D01*
X-548Y1125D02*
X-489D01*
X-548Y1045D02*
Y1125D01*
Y1045D02*
X-535D01*
X-250Y1242D02*
Y1303D01*
X-170D01*
Y1244D02*
Y1303D01*
X-250Y1147D02*
Y1205D01*
Y1147D02*
X-170D01*
Y1207D01*
X-270Y1147D02*
Y1208D01*
X-350Y1147D02*
X-270D01*
X-350D02*
Y1206D01*
X-270Y1245D02*
Y1303D01*
X-350D02*
X-270D01*
X-350Y1243D02*
Y1303D01*
X-450Y1242D02*
Y1303D01*
X-370D01*
Y1244D02*
Y1303D01*
X-450Y1147D02*
Y1205D01*
Y1147D02*
X-370D01*
Y1207D01*
X-470Y1147D02*
Y1208D01*
X-550Y1147D02*
X-470D01*
X-550D02*
Y1206D01*
X-470Y1245D02*
Y1303D01*
X-550D02*
X-470D01*
X-550Y1243D02*
Y1303D01*
X485Y1242D02*
Y1303D01*
X565D01*
Y1244D02*
Y1303D01*
X485Y1147D02*
Y1205D01*
Y1147D02*
X565D01*
Y1207D01*
X465Y1147D02*
Y1208D01*
X385Y1147D02*
X465D01*
X385D02*
Y1206D01*
X465Y1245D02*
Y1303D01*
X385D02*
X465D01*
X385Y1243D02*
Y1303D01*
X285Y1242D02*
Y1303D01*
X365D01*
Y1244D02*
Y1303D01*
X285Y1147D02*
Y1205D01*
Y1147D02*
X365D01*
Y1207D01*
X185Y1242D02*
Y1303D01*
X265D01*
Y1244D02*
Y1303D01*
X185Y1147D02*
Y1205D01*
Y1147D02*
X265D01*
Y1207D01*
X-990Y742D02*
Y803D01*
X-910D01*
Y744D02*
Y803D01*
X-990Y647D02*
Y705D01*
Y647D02*
X-910D01*
Y707D01*
X-1090Y742D02*
Y803D01*
X-1010D01*
Y744D02*
Y803D01*
X-1090Y647D02*
Y705D01*
Y647D02*
X-1010D01*
Y707D01*
X-1935Y-80D02*
X-1775D01*
Y-320D02*
Y-80D01*
X-1935Y-320D02*
Y-80D01*
Y-320D02*
X-1775D01*
X-1935Y80D02*
X-1775D01*
Y320D01*
X-1935Y80D02*
Y320D01*
X-1775D01*
D39*
X-730Y1150D02*
Y1300D01*
X-565D01*
Y1150D02*
Y1300D01*
X-730Y1150D02*
X-565D01*
D40*
X-1200Y1275D02*
Y1305D01*
X-1350Y1275D02*
X-1200D01*
X-1350D02*
Y1305D01*
X-875Y945D02*
Y975D01*
X-1675Y945D02*
Y1305D01*
D41*
Y945D02*
X-875D01*
X-1675Y1305D02*
X-880D01*
D42*
X1025Y1295D02*
D03*
M02*
