%FSLAX23Y23*%
%MOIN*%
G70*
G01*
G75*
G04 Layer_Color=32896*
%ADD10R,0.050X0.035*%
%ADD11R,0.054X0.050*%
%ADD12R,0.050X0.054*%
%ADD13C,0.055*%
%ADD14R,0.025X0.070*%
%ADD15R,0.025X0.075*%
%ADD16C,0.015*%
%ADD17C,0.025*%
%ADD18C,0.030*%
%ADD19C,0.040*%
%ADD20C,0.010*%
%ADD21C,0.020*%
%ADD22C,0.050*%
%ADD23C,0.065*%
%ADD24C,0.063*%
%ADD25R,0.063X0.063*%
%ADD26C,0.035*%
%ADD27P,0.070X8X22.5*%
%ADD28R,0.059X0.059*%
%ADD29C,0.059*%
%ADD30C,0.080*%
%ADD31C,0.059*%
%ADD32R,0.065X0.065*%
%ADD33C,0.217*%
%ADD34C,0.098*%
%ADD35R,0.098X0.098*%
%ADD36R,0.050X0.050*%
%ADD37C,0.058*%
%ADD38C,0.058*%
%ADD39C,0.040*%
%ADD40C,0.060*%
%ADD41C,0.014*%
%ADD42C,0.008*%
%ADD43C,0.008*%
%ADD44C,0.010*%
%ADD45C,0.010*%
%ADD46R,0.400X0.050*%
G36*
X848Y592D02*
X848Y592D01*
X849Y592D01*
X849Y592D01*
X849Y592D01*
X849Y592D01*
X849Y591D01*
Y591D01*
X849Y591D01*
X849Y591D01*
X849Y591D01*
X849Y591D01*
X848Y590D01*
X848Y590D01*
X848Y590D01*
X845D01*
Y576D01*
X845Y575D01*
X844Y574D01*
X844Y573D01*
X844Y572D01*
X843Y572D01*
X843Y571D01*
X843Y571D01*
X843Y571D01*
X842Y570D01*
X841Y570D01*
X840Y570D01*
X840Y569D01*
X839Y569D01*
X838Y569D01*
X838D01*
X837Y569D01*
X836Y569D01*
X835Y570D01*
X834Y570D01*
X832Y570D01*
X832Y571D01*
X831Y571D01*
X830Y572D01*
X830Y572D01*
X829Y572D01*
X829Y573D01*
X829Y573D01*
X828Y573D01*
X828Y573D01*
X828Y573D01*
Y570D01*
X824D01*
X824Y570D01*
X823Y570D01*
X823Y570D01*
X823Y570D01*
X823Y571D01*
X823Y571D01*
X823Y571D01*
Y571D01*
X823Y571D01*
X823Y572D01*
X823Y572D01*
X823Y572D01*
X823Y572D01*
X824Y572D01*
X824Y572D01*
X826D01*
Y592D01*
X832D01*
X833Y592D01*
X833Y592D01*
X833Y592D01*
X833Y592D01*
X833Y592D01*
X834Y592D01*
X834Y591D01*
Y591D01*
X834Y591D01*
X833Y591D01*
X833Y591D01*
X833Y591D01*
X833Y590D01*
X833Y590D01*
X832Y590D01*
X828D01*
Y576D01*
X829Y575D01*
X830Y575D01*
X831Y574D01*
X832Y573D01*
X832Y573D01*
X833Y573D01*
X834Y572D01*
X835Y572D01*
X835Y572D01*
X836Y572D01*
X837Y572D01*
X837Y571D01*
X837D01*
X838Y571D01*
X838D01*
X839Y571D01*
X839Y572D01*
X840Y572D01*
X840Y572D01*
X841Y572D01*
X841Y572D01*
X841Y573D01*
X841Y573D01*
X842Y573D01*
X842Y574D01*
X842Y574D01*
X842Y575D01*
X842Y575D01*
X842Y576D01*
Y576D01*
Y576D01*
Y592D01*
X848D01*
X848Y592D01*
D02*
G37*
G36*
X587Y881D02*
X586Y881D01*
X586Y880D01*
X585Y880D01*
X585D01*
X585Y880D01*
X584D01*
Y880D01*
Y880D01*
X585Y881D01*
X586Y881D01*
X587Y881D01*
D02*
G37*
G36*
X905Y600D02*
X905Y600D01*
X905Y600D01*
X905Y600D01*
X905Y600D01*
X906Y599D01*
X906Y599D01*
Y599D01*
Y599D01*
Y592D01*
X910D01*
X910Y592D01*
X910Y592D01*
X911Y592D01*
X911Y592D01*
X911Y592D01*
X911Y592D01*
X911Y591D01*
Y591D01*
X911Y591D01*
X911Y591D01*
X911Y591D01*
X911Y591D01*
X910Y590D01*
X910Y590D01*
X910Y590D01*
X906D01*
Y576D01*
X905Y575D01*
X905Y574D01*
X905Y573D01*
X904Y572D01*
X904Y572D01*
X904Y571D01*
X903Y571D01*
X903Y571D01*
X902Y570D01*
X901Y570D01*
X900Y570D01*
X899Y569D01*
X899Y569D01*
X898Y569D01*
X898Y569D01*
X897D01*
X896Y569D01*
X895Y569D01*
X894Y569D01*
X893Y570D01*
X892Y570D01*
X892Y570D01*
X892Y570D01*
X891D01*
X891Y570D01*
X891D01*
X890Y570D01*
X889Y571D01*
X889Y571D01*
X888Y571D01*
X888Y572D01*
X887Y572D01*
X887Y572D01*
X887Y572D01*
X887Y572D01*
X887Y572D01*
X887Y573D01*
Y573D01*
X887Y573D01*
X887Y573D01*
X887Y573D01*
X887Y573D01*
X887Y574D01*
X888Y574D01*
X888Y574D01*
X888D01*
X888Y574D01*
X888Y574D01*
X889Y574D01*
X889Y573D01*
X889Y573D01*
X890Y573D01*
X891Y573D01*
X891Y572D01*
X892Y572D01*
X892Y572D01*
X893Y572D01*
X893Y572D01*
X893D01*
X894Y572D01*
X895Y572D01*
X895Y572D01*
X896Y571D01*
X897D01*
X897Y571D01*
X897D01*
X899Y571D01*
X899Y572D01*
X900Y572D01*
X901Y572D01*
X901Y572D01*
X902Y572D01*
X902Y573D01*
X902Y573D01*
X902Y573D01*
X903Y574D01*
X903Y574D01*
X903Y575D01*
X903Y575D01*
X903Y575D01*
Y576D01*
Y576D01*
Y590D01*
X892D01*
X891Y590D01*
X891Y590D01*
X891Y590D01*
X891Y591D01*
X890Y591D01*
X890Y591D01*
X890Y591D01*
Y591D01*
X890Y592D01*
X890Y592D01*
X890Y592D01*
X891Y592D01*
X891Y592D01*
X891Y592D01*
X892Y592D01*
X903D01*
Y599D01*
X903Y599D01*
X904Y600D01*
X904Y600D01*
X904Y600D01*
X904Y600D01*
X904Y600D01*
X904Y600D01*
X905D01*
X905Y600D01*
D02*
G37*
G36*
X596Y592D02*
X596Y592D01*
X596Y592D01*
X596Y592D01*
X596Y592D01*
X596Y592D01*
X597Y591D01*
Y591D01*
X596Y591D01*
X596Y591D01*
X596Y591D01*
X596Y591D01*
X596Y590D01*
X596Y590D01*
X595Y590D01*
X593D01*
X584Y570D01*
X580D01*
X571Y590D01*
X569D01*
X568Y590D01*
X568Y590D01*
X568Y590D01*
X568Y591D01*
X567Y591D01*
X567Y591D01*
X567Y591D01*
Y591D01*
X567Y592D01*
X567Y592D01*
X568Y592D01*
X568Y592D01*
X568Y592D01*
X568Y592D01*
X569Y592D01*
X578D01*
X578Y592D01*
X578Y592D01*
X579Y592D01*
X579Y592D01*
X579Y592D01*
X579Y592D01*
X579Y591D01*
Y591D01*
X579Y591D01*
X579Y591D01*
X579Y591D01*
X579Y591D01*
X578Y590D01*
X578Y590D01*
X578Y590D01*
X574D01*
X581Y572D01*
X582D01*
X590Y590D01*
X586D01*
X586Y590D01*
X585Y590D01*
X585Y590D01*
X585Y591D01*
X585Y591D01*
X585Y591D01*
X585Y591D01*
Y591D01*
X585Y592D01*
X585Y592D01*
X585Y592D01*
X585Y592D01*
X585Y592D01*
X586Y592D01*
X586Y592D01*
X595D01*
X596Y592D01*
D02*
G37*
G36*
X405D02*
X406Y592D01*
X406Y592D01*
X406Y592D01*
X406Y592D01*
X406Y592D01*
X406Y591D01*
Y591D01*
X406Y591D01*
X406Y591D01*
X406Y591D01*
X406Y591D01*
X406Y590D01*
X405Y590D01*
X405Y590D01*
X402D01*
X394Y570D01*
X390D01*
X381Y590D01*
X379D01*
X378Y590D01*
X378Y590D01*
X377Y590D01*
X377Y591D01*
X377Y591D01*
X377Y591D01*
X377Y591D01*
Y591D01*
X377Y592D01*
X377Y592D01*
X377Y592D01*
X377Y592D01*
X378Y592D01*
X378Y592D01*
X378Y592D01*
X387D01*
X388Y592D01*
X388Y592D01*
X388Y592D01*
X388Y592D01*
X389Y592D01*
X389Y592D01*
X389Y591D01*
Y591D01*
X389Y591D01*
X389Y591D01*
X389Y591D01*
X388Y591D01*
X388Y590D01*
X388Y590D01*
X387Y590D01*
X383D01*
X391Y572D01*
X392D01*
X400Y590D01*
X396D01*
X396Y590D01*
X395Y590D01*
X395Y590D01*
X395Y591D01*
X395Y591D01*
X395Y591D01*
X395Y591D01*
Y591D01*
X395Y592D01*
X395Y592D01*
X395Y592D01*
X395Y592D01*
X395Y592D01*
X396Y592D01*
X396Y592D01*
X405D01*
X405Y592D01*
D02*
G37*
G36*
X592Y884D02*
X592Y884D01*
Y884D01*
X591Y883D01*
X590D01*
Y883D01*
X590Y884D01*
X591Y884D01*
X591D01*
X592Y885D01*
X593D01*
X592Y884D01*
D02*
G37*
G36*
X621Y592D02*
X622Y592D01*
X622Y592D01*
X622Y592D01*
X622Y592D01*
X622Y592D01*
X622Y591D01*
Y591D01*
X622Y591D01*
X622Y591D01*
X622Y591D01*
X622Y591D01*
X622Y590D01*
X621Y590D01*
X621Y590D01*
X615D01*
Y572D01*
X623D01*
X624Y572D01*
X624Y572D01*
X624Y572D01*
X624Y572D01*
X625Y572D01*
X625Y571D01*
X625Y571D01*
Y571D01*
X625Y571D01*
X624Y571D01*
X624Y570D01*
X624Y570D01*
X624Y570D01*
X624Y570D01*
X623Y570D01*
X604D01*
X604Y570D01*
X603Y570D01*
X603Y570D01*
X603Y570D01*
X603Y571D01*
X603Y571D01*
X603Y571D01*
Y571D01*
X603Y571D01*
X603Y572D01*
X603Y572D01*
X603Y572D01*
X603Y572D01*
X604Y572D01*
X604Y572D01*
X613D01*
Y592D01*
X621D01*
X621Y592D01*
D02*
G37*
G36*
X495D02*
X495Y592D01*
X495Y592D01*
X495Y592D01*
X495Y592D01*
X496Y592D01*
X496Y591D01*
Y591D01*
X496Y591D01*
X495Y591D01*
X495Y591D01*
X495Y591D01*
X495Y590D01*
X495Y590D01*
X494Y590D01*
X488D01*
Y572D01*
X496D01*
X497Y572D01*
X497Y572D01*
X497Y572D01*
X498Y572D01*
X498Y572D01*
X498Y571D01*
X498Y571D01*
Y571D01*
X498Y571D01*
X498Y571D01*
X498Y570D01*
X498Y570D01*
X497Y570D01*
X497Y570D01*
X496Y570D01*
X477D01*
X477Y570D01*
X476Y570D01*
X476Y570D01*
X476Y570D01*
X476Y571D01*
X476Y571D01*
X476Y571D01*
Y571D01*
X476Y571D01*
X476Y572D01*
X476Y572D01*
X476Y572D01*
X476Y572D01*
X477Y572D01*
X477Y572D01*
X486D01*
Y592D01*
X494D01*
X495Y592D01*
D02*
G37*
G36*
X939D02*
X939Y592D01*
X939Y592D01*
X939Y592D01*
X939Y592D01*
X939Y592D01*
X939Y591D01*
Y591D01*
X939Y591D01*
X939Y591D01*
X939Y591D01*
X939Y591D01*
X939Y590D01*
X938Y590D01*
X938Y590D01*
X932D01*
Y572D01*
X940D01*
X941Y572D01*
X941Y572D01*
X941Y572D01*
X941Y572D01*
X942Y572D01*
X942Y571D01*
X942Y571D01*
Y571D01*
X942Y571D01*
X942Y571D01*
X941Y570D01*
X941Y570D01*
X941Y570D01*
X941Y570D01*
X940Y570D01*
X921D01*
X921Y570D01*
X920Y570D01*
X920Y570D01*
X920Y570D01*
X920Y571D01*
X920Y571D01*
X920Y571D01*
Y571D01*
X920Y571D01*
X920Y572D01*
X920Y572D01*
X920Y572D01*
X920Y572D01*
X921Y572D01*
X921Y572D01*
X930D01*
Y592D01*
X938D01*
X939Y592D01*
D02*
G37*
G36*
X560Y891D02*
X560Y890D01*
Y890D01*
Y889D01*
X560Y889D01*
X559Y888D01*
X558D01*
X558Y889D01*
X557Y889D01*
Y889D01*
X558Y890D01*
X558Y891D01*
X558Y891D01*
X559D01*
X560Y891D01*
D02*
G37*
G36*
X425Y593D02*
X426Y593D01*
X426Y593D01*
X427Y593D01*
X429Y592D01*
X429Y592D01*
X430Y591D01*
X431Y591D01*
X431Y591D01*
X431Y591D01*
X432Y590D01*
X432Y590D01*
X432Y590D01*
X432Y590D01*
X432Y590D01*
X433Y589D01*
X434Y588D01*
X434Y588D01*
X434Y587D01*
X435Y586D01*
X435Y586D01*
X435Y584D01*
X436Y583D01*
X436Y583D01*
X436Y582D01*
X436Y582D01*
Y582D01*
Y582D01*
Y582D01*
X436Y581D01*
X436Y580D01*
X436Y579D01*
X435Y578D01*
X435Y577D01*
X434Y576D01*
X434Y575D01*
X434Y575D01*
X433Y574D01*
X433Y574D01*
X433Y573D01*
X433Y573D01*
X432Y573D01*
X432Y573D01*
X432Y573D01*
X431Y572D01*
X431Y572D01*
X430Y571D01*
X429Y571D01*
X428Y570D01*
X428Y570D01*
X426Y570D01*
X426Y569D01*
X425Y569D01*
X424Y569D01*
X424Y569D01*
X423Y569D01*
X423D01*
X422Y569D01*
X421Y569D01*
X419Y570D01*
X418Y570D01*
X418Y570D01*
X417Y570D01*
X417Y570D01*
X417Y570D01*
X417Y570D01*
X417D01*
X415Y571D01*
X414Y571D01*
X414Y572D01*
X413Y572D01*
X413Y572D01*
X412Y573D01*
X412Y573D01*
X412Y573D01*
X412Y573D01*
X412Y573D01*
X412Y574D01*
Y574D01*
X412Y574D01*
X412Y574D01*
X412Y574D01*
X412Y574D01*
X412Y575D01*
X412Y575D01*
X413Y575D01*
X413D01*
X413Y575D01*
X413Y575D01*
X413Y574D01*
X414Y574D01*
X414Y574D01*
X415Y573D01*
X416Y573D01*
X416Y573D01*
X417Y573D01*
X417Y572D01*
X418Y572D01*
X418Y572D01*
X418D01*
X419Y572D01*
X420Y572D01*
X421Y572D01*
X421Y571D01*
X422Y571D01*
X423Y571D01*
X423D01*
X424Y571D01*
X425Y571D01*
X426Y572D01*
X427Y572D01*
X428Y573D01*
X429Y573D01*
X429Y573D01*
X430Y573D01*
X430Y574D01*
X430Y574D01*
X430Y574D01*
X430D01*
X431Y575D01*
X432Y576D01*
X433Y577D01*
X433Y578D01*
X433Y579D01*
X433Y580D01*
X434Y580D01*
X434Y580D01*
Y581D01*
X434Y581D01*
Y581D01*
X412D01*
X412Y582D01*
X412Y583D01*
X412Y584D01*
X412Y584D01*
X412Y585D01*
X413Y586D01*
X413Y587D01*
X413Y587D01*
X414Y588D01*
X414Y588D01*
X414Y589D01*
X415Y589D01*
X415Y589D01*
X415Y589D01*
X415Y590D01*
X415Y590D01*
X416Y590D01*
X416Y591D01*
X417Y591D01*
X418Y592D01*
X419Y592D01*
X419Y592D01*
X421Y593D01*
X421Y593D01*
X422Y593D01*
X422Y593D01*
X423Y593D01*
X423Y593D01*
X424D01*
X425Y593D01*
D02*
G37*
G36*
X741D02*
X742Y593D01*
X743Y593D01*
X743Y593D01*
X745Y592D01*
X745Y592D01*
X746Y591D01*
X747Y591D01*
X747Y591D01*
X747Y590D01*
X748Y590D01*
X748Y590D01*
X748Y590D01*
X748Y590D01*
X748Y590D01*
X749Y589D01*
X750Y588D01*
X750Y588D01*
X750Y587D01*
X751Y586D01*
X751Y585D01*
X751Y584D01*
X752Y583D01*
X752Y583D01*
X752Y582D01*
X752Y582D01*
X752Y582D01*
Y581D01*
Y581D01*
Y581D01*
X752Y580D01*
X752Y579D01*
X752Y578D01*
X751Y577D01*
X751Y576D01*
X751Y575D01*
X750Y575D01*
X750Y574D01*
X750Y574D01*
X749Y573D01*
X749Y573D01*
X749Y573D01*
X749Y573D01*
X749Y573D01*
X749Y573D01*
X748Y572D01*
X747Y571D01*
X746Y571D01*
X746Y571D01*
X745Y570D01*
X744Y570D01*
X743Y570D01*
X742Y569D01*
X742Y569D01*
X741Y569D01*
X741Y569D01*
X740Y569D01*
X740D01*
X739Y569D01*
X738Y569D01*
X736Y570D01*
X735Y570D01*
X734Y570D01*
X733Y571D01*
X733Y571D01*
X732Y571D01*
X732Y571D01*
X731Y572D01*
X731Y572D01*
X731Y572D01*
X731Y572D01*
X731D01*
X730Y572D01*
X730Y573D01*
X729Y573D01*
X729Y574D01*
X728Y574D01*
X728Y574D01*
X728Y575D01*
X728Y575D01*
Y575D01*
X728Y575D01*
X728Y575D01*
X728Y575D01*
X728Y575D01*
X728Y576D01*
X729Y576D01*
X729Y576D01*
X729D01*
X729Y576D01*
X730Y576D01*
X730Y575D01*
X730Y575D01*
X731Y575D01*
X732Y574D01*
X732Y573D01*
X733Y573D01*
X734Y573D01*
X734Y572D01*
X735Y572D01*
X735Y572D01*
X735D01*
X736Y572D01*
X737Y572D01*
X737Y572D01*
X738Y571D01*
X739Y571D01*
X739Y571D01*
X741D01*
X741Y571D01*
X743Y572D01*
X744Y572D01*
X745Y573D01*
X746Y573D01*
X746Y574D01*
X747Y574D01*
X747Y574D01*
X747Y574D01*
X747D01*
X747Y575D01*
X748Y575D01*
X749Y576D01*
X749Y577D01*
X749Y579D01*
X750Y580D01*
X750Y580D01*
Y580D01*
X750Y581D01*
Y581D01*
Y581D01*
Y581D01*
X750Y582D01*
X749Y584D01*
X749Y585D01*
X748Y586D01*
X748Y587D01*
X748Y587D01*
X748Y587D01*
X747Y588D01*
X747Y588D01*
X747Y588D01*
Y588D01*
X747Y588D01*
X746Y589D01*
X746Y589D01*
X745Y590D01*
X744Y590D01*
X743Y591D01*
X742Y591D01*
X741Y591D01*
X741Y591D01*
X740Y591D01*
X740D01*
X739Y591D01*
X737Y591D01*
X736Y590D01*
X735Y590D01*
X735Y590D01*
X734Y590D01*
X734Y589D01*
X734Y589D01*
X733Y589D01*
X732Y588D01*
X732Y587D01*
X732Y587D01*
X732Y586D01*
X731Y586D01*
X731Y586D01*
Y586D01*
X731Y585D01*
X731Y585D01*
X731Y585D01*
X731Y585D01*
X731Y585D01*
X731Y585D01*
X730Y585D01*
X730D01*
X730Y585D01*
X730Y585D01*
X730Y585D01*
X730Y585D01*
X729Y585D01*
X729Y586D01*
X729Y586D01*
Y586D01*
Y586D01*
Y591D01*
X729Y591D01*
X729Y592D01*
X729Y592D01*
X730Y592D01*
X730Y592D01*
X730Y592D01*
X730Y592D01*
X730D01*
X731Y592D01*
X731Y592D01*
X731Y592D01*
X731Y592D01*
X731Y592D01*
X731Y591D01*
X731Y591D01*
Y591D01*
Y591D01*
Y590D01*
X732Y591D01*
X733Y591D01*
X733Y592D01*
X734Y592D01*
X736Y592D01*
X737Y593D01*
X737Y593D01*
X738Y593D01*
X738Y593D01*
X739Y593D01*
X739Y593D01*
X740D01*
X741Y593D01*
D02*
G37*
G36*
X682D02*
X682Y593D01*
X683Y593D01*
X684Y592D01*
X685Y592D01*
X686Y591D01*
X686Y591D01*
X687Y590D01*
X687Y590D01*
X687Y590D01*
Y592D01*
X691D01*
X691Y592D01*
X692Y592D01*
X692Y592D01*
X692Y592D01*
X692Y592D01*
X692Y592D01*
X692Y591D01*
Y591D01*
X692Y591D01*
X692Y591D01*
X692Y591D01*
X692Y591D01*
X692Y590D01*
X691Y590D01*
X691Y590D01*
X689D01*
Y572D01*
X691D01*
X691Y572D01*
X692Y572D01*
X692Y572D01*
X692Y572D01*
X692Y572D01*
X692Y571D01*
X692Y571D01*
Y571D01*
X692Y571D01*
X692Y571D01*
X692Y570D01*
X692Y570D01*
X692Y570D01*
X691Y570D01*
X691Y570D01*
X685D01*
X685Y570D01*
X684Y570D01*
X684Y570D01*
X684Y570D01*
X684Y571D01*
X684Y571D01*
X684Y571D01*
Y571D01*
X684Y571D01*
X684Y572D01*
X684Y572D01*
X684Y572D01*
X684Y572D01*
X685Y572D01*
X685Y572D01*
X687D01*
Y587D01*
X686Y587D01*
X686Y588D01*
X685Y589D01*
X685Y589D01*
X684Y590D01*
X684Y590D01*
X684Y590D01*
X684Y590D01*
X683Y590D01*
X683Y591D01*
X682Y591D01*
X682Y591D01*
X682Y591D01*
X681D01*
X681Y591D01*
X680Y591D01*
X680Y591D01*
X680Y590D01*
X679Y590D01*
X679Y590D01*
X679Y590D01*
X679Y590D01*
X679Y589D01*
X678Y589D01*
X678Y588D01*
X678Y588D01*
X678Y588D01*
X678Y587D01*
Y587D01*
Y587D01*
Y570D01*
X674D01*
X674Y570D01*
X673Y570D01*
X673Y570D01*
X673Y570D01*
X673Y571D01*
X673Y571D01*
X673Y571D01*
Y571D01*
X673Y571D01*
X673Y572D01*
X673Y572D01*
X673Y572D01*
X673Y572D01*
X674Y572D01*
X674Y572D01*
X676D01*
Y587D01*
X675Y587D01*
X675Y588D01*
X674Y589D01*
X674Y589D01*
X673Y590D01*
X673Y590D01*
X673Y590D01*
X673Y590D01*
X672Y590D01*
X672Y591D01*
X671Y591D01*
X671Y591D01*
X671Y591D01*
X671Y591D01*
X670D01*
X670Y591D01*
X669Y591D01*
X669Y591D01*
X669Y590D01*
X668Y590D01*
X668Y590D01*
X668Y590D01*
X668Y590D01*
X668Y589D01*
X667Y589D01*
X667Y589D01*
X667Y588D01*
X667Y588D01*
X667Y587D01*
Y587D01*
Y587D01*
Y570D01*
X663D01*
X662Y570D01*
X662Y570D01*
X662Y570D01*
X662Y570D01*
X662Y571D01*
X662Y571D01*
X661Y571D01*
Y571D01*
X662Y571D01*
X662Y572D01*
X662Y572D01*
X662Y572D01*
X662Y572D01*
X663Y572D01*
X663Y572D01*
X665D01*
Y587D01*
X665Y588D01*
X665Y589D01*
X665Y590D01*
X666Y590D01*
X666Y591D01*
X666Y591D01*
X667Y592D01*
X667Y592D01*
X667Y592D01*
X668Y593D01*
X668Y593D01*
X669Y593D01*
X670Y593D01*
X670Y593D01*
X670D01*
X671Y593D01*
X672Y593D01*
X672Y593D01*
X672Y593D01*
X673Y593D01*
X673Y592D01*
X673Y592D01*
X673Y592D01*
X674Y592D01*
X674Y591D01*
X675Y591D01*
X675Y591D01*
X676Y590D01*
X676Y590D01*
X676Y590D01*
X676Y590D01*
X677Y590D01*
X677Y591D01*
X677Y591D01*
X678Y592D01*
X678Y592D01*
X678Y592D01*
X678Y592D01*
X678Y592D01*
X679Y593D01*
X679Y593D01*
X680Y593D01*
X680Y593D01*
X681Y593D01*
X681Y593D01*
X681D01*
X682Y593D01*
D02*
G37*
G36*
X520D02*
X521Y593D01*
X522Y593D01*
X523Y592D01*
X524Y592D01*
X525Y592D01*
X525Y592D01*
X525Y592D01*
X525Y591D01*
X525D01*
X526Y591D01*
X526Y591D01*
X527Y590D01*
X527Y589D01*
X527Y589D01*
X528Y588D01*
X528Y588D01*
X528Y587D01*
Y587D01*
Y587D01*
X528Y586D01*
X528Y586D01*
X528Y585D01*
X527Y585D01*
X527Y585D01*
X527Y584D01*
X527Y584D01*
X527Y584D01*
X526Y584D01*
X526Y583D01*
X526Y583D01*
X525Y583D01*
X525Y582D01*
X524Y582D01*
X524Y582D01*
X524Y582D01*
X523Y582D01*
X523Y582D01*
X522Y582D01*
X521Y581D01*
X520Y581D01*
X519Y581D01*
X519D01*
X519Y581D01*
X518D01*
X517Y581D01*
X516Y581D01*
X515Y580D01*
X514Y580D01*
X513Y580D01*
X513Y580D01*
X512Y580D01*
X512Y579D01*
X512Y579D01*
X511Y578D01*
X511Y578D01*
X510Y577D01*
X510Y577D01*
X510Y577D01*
X510Y576D01*
Y576D01*
X510Y576D01*
X511Y575D01*
X511Y574D01*
X511Y574D01*
X512Y573D01*
X512Y573D01*
X512Y573D01*
X512Y573D01*
X513Y572D01*
X514Y572D01*
X515Y572D01*
X516Y572D01*
X517Y571D01*
X517D01*
X518Y571D01*
X519D01*
X520Y571D01*
X521Y571D01*
X521Y572D01*
X522Y572D01*
X523Y572D01*
X523Y572D01*
X523Y572D01*
X523Y572D01*
X524Y572D01*
X525Y573D01*
X525Y573D01*
X526Y573D01*
X526Y574D01*
X526Y574D01*
X526Y574D01*
X526Y574D01*
X527Y575D01*
X527Y575D01*
Y576D01*
X527Y576D01*
Y576D01*
Y576D01*
X527Y577D01*
X527Y577D01*
X527Y577D01*
X527Y577D01*
X527Y577D01*
X528Y577D01*
X528Y577D01*
X528D01*
X528Y577D01*
X528Y577D01*
X529Y577D01*
X529Y577D01*
X529Y577D01*
X529Y576D01*
X529Y576D01*
Y576D01*
Y576D01*
Y571D01*
X529Y571D01*
X529Y571D01*
X529Y570D01*
X529Y570D01*
X528Y570D01*
X528Y570D01*
X528Y570D01*
X528D01*
X528Y570D01*
X528Y570D01*
X527Y570D01*
X527D01*
X527Y570D01*
X527Y570D01*
X527Y571D01*
Y571D01*
X527Y571D01*
X527Y571D01*
Y572D01*
Y572D01*
Y572D01*
X526Y571D01*
X526Y571D01*
X524Y570D01*
X523Y570D01*
X521Y570D01*
X521Y569D01*
X520Y569D01*
X520Y569D01*
X519D01*
X519Y569D01*
X518D01*
X517Y569D01*
X516Y569D01*
X515Y570D01*
X514Y570D01*
X514Y570D01*
X513Y570D01*
X513Y570D01*
X512Y570D01*
X512Y571D01*
X511Y571D01*
X511Y571D01*
X511Y571D01*
X511Y571D01*
X511Y571D01*
X510Y572D01*
X510Y572D01*
X509Y573D01*
X509Y574D01*
X508Y575D01*
X508Y575D01*
X508Y576D01*
X508Y576D01*
Y576D01*
Y576D01*
X508Y577D01*
X508Y578D01*
X508Y578D01*
X509Y579D01*
X509Y579D01*
X509Y579D01*
X509Y580D01*
X509Y580D01*
X510Y580D01*
X510Y581D01*
X511Y581D01*
X512Y582D01*
X512Y582D01*
X513Y582D01*
X513Y582D01*
X513Y582D01*
X513D01*
X513Y582D01*
X514Y582D01*
X515Y583D01*
X516Y583D01*
X517Y583D01*
X518Y583D01*
X518Y583D01*
X518D01*
X519Y583D01*
X519Y583D01*
X519D01*
X520Y584D01*
X521Y584D01*
X522Y584D01*
X523Y584D01*
X523Y584D01*
X524Y584D01*
X524Y584D01*
X524Y584D01*
X524Y585D01*
X525Y585D01*
X525Y586D01*
X525Y586D01*
X526Y586D01*
X526Y587D01*
X526Y587D01*
Y587D01*
X526Y587D01*
X525Y588D01*
X525Y588D01*
X525Y589D01*
X525Y589D01*
X524Y589D01*
X524Y589D01*
X524Y589D01*
X523Y590D01*
X522Y590D01*
X522Y591D01*
X521Y591D01*
X520Y591D01*
X519Y591D01*
X519D01*
X517Y591D01*
X516Y591D01*
X515Y591D01*
X514Y590D01*
X514Y590D01*
X513Y590D01*
X513Y590D01*
X513Y590D01*
X512Y589D01*
X512Y589D01*
X512Y588D01*
X512Y588D01*
X511Y587D01*
X511Y587D01*
X511Y587D01*
Y587D01*
X511Y587D01*
X511Y586D01*
X511Y586D01*
X511Y586D01*
X511Y586D01*
X511Y586D01*
X510Y586D01*
X510D01*
X510Y586D01*
X510Y586D01*
X510Y586D01*
X510Y586D01*
X509Y586D01*
X509Y587D01*
X509Y587D01*
Y587D01*
Y587D01*
Y591D01*
X509Y591D01*
X509Y592D01*
X509Y592D01*
X510Y592D01*
X510Y592D01*
X510Y592D01*
X510Y592D01*
X510D01*
X511Y592D01*
X511Y592D01*
X511Y592D01*
X511Y592D01*
X511Y592D01*
X511Y591D01*
X511Y591D01*
Y591D01*
Y591D01*
X512Y592D01*
X514Y592D01*
X515Y593D01*
X516Y593D01*
X517Y593D01*
X518Y593D01*
X518D01*
X518Y593D01*
X519D01*
X520Y593D01*
D02*
G37*
G36*
X616Y598D02*
X613D01*
Y603D01*
X616D01*
Y598D01*
D02*
G37*
G36*
X489D02*
X486D01*
Y603D01*
X489D01*
Y598D01*
D02*
G37*
G36*
X551Y593D02*
X552Y593D01*
X553Y593D01*
X554Y593D01*
X555Y592D01*
X556Y592D01*
X556Y592D01*
X556Y592D01*
X556Y592D01*
X556Y592D01*
X557D01*
X557Y592D01*
X558Y592D01*
X559Y591D01*
X559Y591D01*
X559Y591D01*
X559Y591D01*
X559Y591D01*
X560Y591D01*
X560Y591D01*
X560Y590D01*
Y590D01*
X560Y590D01*
X560Y590D01*
X559Y590D01*
X559Y590D01*
X559Y589D01*
X559Y589D01*
X559Y589D01*
X559D01*
X558Y589D01*
X558Y589D01*
X558Y589D01*
X558Y589D01*
X558D01*
X556Y590D01*
X555Y590D01*
X553Y591D01*
X552Y591D01*
X552Y591D01*
X551Y591D01*
X551D01*
X549Y591D01*
X548Y591D01*
X548Y591D01*
X547Y590D01*
X546Y590D01*
X546Y590D01*
X546Y590D01*
X546Y590D01*
X545Y589D01*
X545Y589D01*
X544Y588D01*
X544Y588D01*
X544Y587D01*
X544Y587D01*
Y587D01*
Y586D01*
Y583D01*
X545Y583D01*
X545Y583D01*
X546Y583D01*
X547Y583D01*
X547Y584D01*
X547D01*
X548Y584D01*
X548D01*
X549Y584D01*
X550Y584D01*
X550Y584D01*
X552D01*
X553Y584D01*
X554Y584D01*
X555Y583D01*
X555Y583D01*
X556Y583D01*
X557Y583D01*
X557Y583D01*
X558Y582D01*
X558Y582D01*
X559Y582D01*
X559Y582D01*
X559Y582D01*
X559Y582D01*
X559Y581D01*
X559D01*
X560Y581D01*
X560Y581D01*
X561Y580D01*
X561Y580D01*
X562Y579D01*
X562Y578D01*
X562Y577D01*
X562Y576D01*
X562Y576D01*
Y576D01*
Y576D01*
Y576D01*
X562Y575D01*
X562Y574D01*
X562Y573D01*
X561Y572D01*
X561Y572D01*
X561Y571D01*
X560Y571D01*
X560Y571D01*
X559Y570D01*
X558Y570D01*
X557Y570D01*
X556Y569D01*
X555Y569D01*
X555Y569D01*
X555D01*
X554Y569D01*
X554D01*
X553Y569D01*
X552Y569D01*
X551Y570D01*
X550Y570D01*
X548Y570D01*
X548Y571D01*
X547Y571D01*
X546Y572D01*
X546Y572D01*
X545Y572D01*
X545Y573D01*
X544Y573D01*
X544Y573D01*
X544Y573D01*
X544Y573D01*
Y570D01*
X539D01*
X538Y570D01*
X538Y570D01*
X538Y570D01*
X538Y570D01*
X537Y571D01*
X537Y571D01*
X537Y571D01*
Y571D01*
X537Y571D01*
X538Y572D01*
X538Y572D01*
X538Y572D01*
X538Y572D01*
X538Y572D01*
X539Y572D01*
X542D01*
Y586D01*
X542Y587D01*
X542Y588D01*
X543Y589D01*
X543Y590D01*
X543Y590D01*
X544Y591D01*
X544Y591D01*
X544Y591D01*
X545Y592D01*
X546Y592D01*
X547Y593D01*
X548Y593D01*
X549Y593D01*
X549Y593D01*
X550D01*
X550Y593D01*
X550D01*
X551Y593D01*
D02*
G37*
G36*
X572Y882D02*
X573Y881D01*
X573Y880D01*
X574D01*
X575Y879D01*
X575Y879D01*
X575D01*
X576Y879D01*
X575Y878D01*
X574Y878D01*
X574D01*
X573Y878D01*
X571Y879D01*
X571Y880D01*
X570Y880D01*
X570Y881D01*
X570Y882D01*
Y882D01*
X570Y883D01*
X570D01*
X572Y882D01*
D02*
G37*
G36*
X757Y883D02*
Y882D01*
Y882D01*
Y881D01*
X757Y880D01*
X757Y879D01*
X757Y879D01*
X756Y878D01*
X755D01*
X755Y879D01*
Y879D01*
X756Y880D01*
X756Y881D01*
X757Y882D01*
X757Y882D01*
X757Y883D01*
X757D01*
Y883D01*
D02*
G37*
G36*
X818Y602D02*
X818Y602D01*
X818Y602D01*
X818Y602D01*
X818Y602D01*
X819Y602D01*
X819Y601D01*
Y601D01*
X819Y601D01*
X818Y601D01*
X818Y601D01*
X818Y601D01*
X818Y600D01*
X818Y600D01*
X817Y600D01*
X814D01*
Y572D01*
X817D01*
X818Y572D01*
X818Y572D01*
X818Y572D01*
X818Y572D01*
X818Y572D01*
X819Y571D01*
X819Y571D01*
Y571D01*
X819Y571D01*
X818Y571D01*
X818Y570D01*
X818Y570D01*
X818Y570D01*
X818Y570D01*
X817Y570D01*
X812D01*
Y574D01*
X811Y573D01*
X811Y573D01*
X810Y572D01*
X809Y571D01*
X808Y571D01*
X807Y570D01*
X807Y570D01*
X806Y570D01*
X805Y570D01*
X805Y569D01*
X804Y569D01*
X804Y569D01*
X803D01*
X803Y569D01*
X803D01*
X802Y569D01*
X801Y569D01*
X800Y570D01*
X799Y570D01*
X798Y570D01*
X797Y571D01*
X796Y571D01*
X796Y572D01*
X795Y572D01*
X795Y572D01*
X795Y572D01*
X795Y573D01*
X795Y573D01*
X795Y573D01*
X794Y573D01*
X793Y574D01*
X793Y575D01*
X793Y575D01*
X792Y576D01*
X792Y577D01*
X791Y578D01*
X791Y579D01*
X791Y579D01*
X791Y580D01*
X791Y580D01*
X791Y581D01*
Y581D01*
Y581D01*
Y581D01*
X791Y582D01*
X791Y583D01*
X791Y584D01*
X792Y585D01*
X792Y586D01*
X792Y587D01*
X793Y587D01*
X793Y588D01*
X793Y588D01*
X794Y589D01*
X794Y589D01*
X794Y589D01*
X794Y590D01*
X794Y590D01*
X794Y590D01*
X795Y590D01*
X796Y591D01*
X796Y591D01*
X797Y592D01*
X798Y592D01*
X799Y592D01*
X800Y593D01*
X801Y593D01*
X801Y593D01*
X802Y593D01*
X802Y593D01*
X803D01*
X804Y593D01*
X805Y593D01*
X806Y593D01*
X806Y592D01*
X807Y592D01*
X808Y592D01*
X809Y591D01*
X809Y591D01*
X810Y590D01*
X810Y590D01*
X811Y589D01*
X811Y589D01*
X812Y589D01*
X812Y588D01*
X812Y588D01*
X812Y588D01*
Y602D01*
X817D01*
X818Y602D01*
D02*
G37*
G36*
X880D02*
X880Y602D01*
X881Y602D01*
X881Y602D01*
X881Y602D01*
X881Y602D01*
X881Y601D01*
Y601D01*
X881Y601D01*
X881Y601D01*
X881Y601D01*
X881Y601D01*
X880Y600D01*
X880Y600D01*
X880Y600D01*
X877D01*
Y572D01*
X879D01*
X879Y572D01*
X880Y572D01*
X880Y572D01*
X880Y572D01*
X880Y572D01*
X880Y571D01*
X880Y571D01*
Y571D01*
X880Y571D01*
X880Y571D01*
X880Y570D01*
X880Y570D01*
X880Y570D01*
X879Y570D01*
X879Y570D01*
X872D01*
X872Y570D01*
X871Y570D01*
X871Y570D01*
X871Y570D01*
X871Y571D01*
X871Y571D01*
X871Y571D01*
Y571D01*
X871Y571D01*
X871Y572D01*
X871Y572D01*
X871Y572D01*
X871Y572D01*
X872Y572D01*
X872Y572D01*
X874D01*
Y586D01*
X873Y587D01*
X873Y588D01*
X872Y588D01*
X871Y589D01*
X871Y589D01*
X871Y590D01*
X870Y590D01*
X870Y590D01*
X870Y590D01*
X869Y591D01*
X868Y591D01*
X868Y591D01*
X867Y591D01*
X867Y591D01*
X866D01*
X865Y591D01*
X864Y591D01*
X863Y590D01*
X863Y590D01*
X862Y590D01*
X862Y590D01*
X862Y589D01*
X862Y589D01*
X861Y589D01*
X861Y588D01*
X860Y587D01*
X860Y587D01*
X860Y586D01*
X860Y586D01*
Y586D01*
Y585D01*
Y572D01*
X862D01*
X863Y572D01*
X863Y572D01*
X863Y572D01*
X863Y572D01*
X864Y572D01*
X864Y571D01*
X864Y571D01*
Y571D01*
X864Y571D01*
X864Y571D01*
X863Y570D01*
X863Y570D01*
X863Y570D01*
X863Y570D01*
X862Y570D01*
X855D01*
X855Y570D01*
X854Y570D01*
X854Y570D01*
X854Y570D01*
X854Y571D01*
X854Y571D01*
X854Y571D01*
Y571D01*
X854Y571D01*
X854Y572D01*
X854Y572D01*
X854Y572D01*
X854Y572D01*
X855Y572D01*
X855Y572D01*
X858D01*
Y586D01*
X858Y586D01*
X858Y587D01*
X858Y588D01*
X858Y588D01*
X859Y589D01*
X859Y589D01*
X859Y589D01*
X859Y589D01*
X859Y590D01*
X860Y591D01*
X860Y591D01*
X861Y592D01*
X861Y592D01*
X862Y592D01*
X862Y592D01*
X862Y592D01*
X863Y593D01*
X863Y593D01*
X864Y593D01*
X865Y593D01*
X865Y593D01*
X866Y593D01*
X866D01*
X867Y593D01*
X868Y593D01*
X869Y593D01*
X869Y593D01*
X870Y593D01*
X870Y592D01*
X870Y592D01*
X870Y592D01*
X871Y592D01*
X872Y591D01*
X873Y591D01*
X873Y590D01*
X874Y590D01*
X874Y589D01*
X874Y589D01*
X874Y589D01*
Y602D01*
X879D01*
X880Y602D01*
D02*
G37*
G36*
X965Y593D02*
X966Y593D01*
X966Y593D01*
X967Y593D01*
X969Y592D01*
X970Y592D01*
X971Y591D01*
X971Y591D01*
X971Y590D01*
X971Y590D01*
X972Y590D01*
X972Y590D01*
X972Y590D01*
X972Y589D01*
X973Y589D01*
X973Y588D01*
X974Y587D01*
X974Y586D01*
X975Y585D01*
X975Y583D01*
X975Y583D01*
X975Y583D01*
X975Y582D01*
Y582D01*
Y582D01*
Y582D01*
X975Y581D01*
X975Y580D01*
X974Y579D01*
X974Y577D01*
X973Y576D01*
X973Y576D01*
X973Y575D01*
X973Y575D01*
X972Y574D01*
X972Y574D01*
X972Y574D01*
X972Y574D01*
X972Y574D01*
X971Y573D01*
X971Y573D01*
X970Y572D01*
X969Y572D01*
X968Y571D01*
X967Y571D01*
X966Y571D01*
X965Y571D01*
X965Y571D01*
X964Y571D01*
X964D01*
X963Y571D01*
X962Y571D01*
X961Y571D01*
X960Y571D01*
X960Y572D01*
X959Y572D01*
X958Y572D01*
X958Y573D01*
X957Y573D01*
X956Y574D01*
X956Y574D01*
X956Y575D01*
X955Y575D01*
X955Y575D01*
X955Y575D01*
X955Y575D01*
Y569D01*
Y568D01*
X955Y568D01*
X955Y567D01*
X955Y567D01*
X955Y566D01*
X956Y566D01*
X956Y566D01*
Y566D01*
X956Y565D01*
X956Y565D01*
X957Y564D01*
X957Y564D01*
X958Y564D01*
X958Y563D01*
X958Y563D01*
X958Y563D01*
X959Y563D01*
X959Y563D01*
X960Y562D01*
X960Y562D01*
X961Y562D01*
X961Y562D01*
X968D01*
X968Y562D01*
X969Y562D01*
X969Y562D01*
X969Y562D01*
X969Y562D01*
X969Y561D01*
X969Y561D01*
Y561D01*
X969Y561D01*
X969Y561D01*
X969Y560D01*
X969Y560D01*
X969Y560D01*
X968Y560D01*
X968Y560D01*
X961D01*
X960Y560D01*
X960Y560D01*
X959Y560D01*
X959Y560D01*
X959Y561D01*
X959Y561D01*
X959D01*
X958Y561D01*
X958Y561D01*
X957Y562D01*
X956Y562D01*
X956Y562D01*
X956Y562D01*
X956Y562D01*
X955Y563D01*
X955Y563D01*
X955Y564D01*
X954Y564D01*
X954Y564D01*
X954Y565D01*
X954Y565D01*
Y565D01*
X954Y565D01*
X953Y566D01*
X953Y567D01*
X953Y567D01*
X953Y568D01*
X953Y568D01*
Y568D01*
Y569D01*
Y590D01*
X950D01*
X949Y590D01*
X949Y590D01*
X949Y590D01*
X949Y591D01*
X949Y591D01*
X949Y591D01*
X948Y591D01*
Y591D01*
X949Y592D01*
X949Y592D01*
X949Y592D01*
X949Y592D01*
X949Y592D01*
X950Y592D01*
X950Y592D01*
X955D01*
Y588D01*
X956Y589D01*
X956Y590D01*
X957Y591D01*
X958Y591D01*
X959Y592D01*
X959Y592D01*
X960Y592D01*
X961Y593D01*
X962Y593D01*
X962Y593D01*
X963Y593D01*
X963Y593D01*
X964D01*
X964Y593D01*
X964D01*
X965Y593D01*
D02*
G37*
G36*
X558Y1013D02*
X559Y1013D01*
X560Y1011D01*
X561Y1010D01*
X562Y1009D01*
Y1009D01*
X563Y1007D01*
X564Y1005D01*
X565Y1004D01*
X565Y1004D01*
X566Y1003D01*
X566Y1002D01*
Y1002D01*
X566Y1002D01*
X566D01*
X565Y1002D01*
X564Y1003D01*
X563Y1005D01*
X563Y1005D01*
X561Y1007D01*
X560Y1009D01*
X559Y1010D01*
X559Y1010D01*
X558Y1012D01*
X558Y1013D01*
Y1013D01*
X558Y1013D01*
D02*
G37*
G36*
X523Y967D02*
X525Y966D01*
X526Y966D01*
X527Y966D01*
X528Y965D01*
X530Y964D01*
X533Y962D01*
X535Y962D01*
X536Y961D01*
X537Y961D01*
X537Y961D01*
X539Y960D01*
X540Y960D01*
X541Y959D01*
X541Y959D01*
X543Y958D01*
X543Y958D01*
X543Y958D01*
X544Y957D01*
X543D01*
X542Y958D01*
X540Y958D01*
X538Y959D01*
X536Y960D01*
X534Y961D01*
X533Y961D01*
X532Y962D01*
X522Y967D01*
X523Y967D01*
D02*
G37*
G36*
X448Y1007D02*
X449Y1005D01*
X449Y1003D01*
Y1003D01*
Y1002D01*
X449Y1002D01*
X448Y1002D01*
X445D01*
X444Y1002D01*
X444Y1002D01*
Y1003D01*
X445Y1004D01*
X445Y1005D01*
X446Y1006D01*
X446Y1007D01*
X447Y1010D01*
X448Y1007D01*
D02*
G37*
G36*
X573Y945D02*
X574Y944D01*
X574Y944D01*
X575Y943D01*
X574Y943D01*
X573Y943D01*
X572Y944D01*
X571Y945D01*
X570Y945D01*
X570Y946D01*
X569Y946D01*
X569Y946D01*
X573Y945D01*
D02*
G37*
G36*
X551Y955D02*
X552Y954D01*
X553Y954D01*
X553Y954D01*
X554Y953D01*
X555Y953D01*
X558Y952D01*
X559Y951D01*
X560Y951D01*
X561Y950D01*
X561D01*
X562Y950D01*
X562Y950D01*
X567Y947D01*
X566D01*
X565Y948D01*
X563Y948D01*
X562Y949D01*
X560Y950D01*
X559Y950D01*
X557Y950D01*
X557Y951D01*
X549Y955D01*
X551Y955D01*
D02*
G37*
G36*
X484Y998D02*
X485Y998D01*
X484Y998D01*
Y998D01*
X484Y997D01*
X483Y997D01*
X483D01*
X483Y997D01*
Y997D01*
Y998D01*
X483Y998D01*
X483Y999D01*
X484D01*
X484Y998D01*
D02*
G37*
G36*
X500Y987D02*
X500Y986D01*
X500Y986D01*
Y986D01*
X499Y985D01*
X498D01*
X497Y986D01*
X497Y986D01*
Y987D01*
X497D01*
X498Y987D01*
X499D01*
X500Y987D01*
D02*
G37*
G36*
X574Y992D02*
X575Y991D01*
X576Y990D01*
X576Y990D01*
X578Y988D01*
X579Y986D01*
X580Y986D01*
X580Y985D01*
X581Y985D01*
X581Y984D01*
Y984D01*
X579Y985D01*
X578Y986D01*
X578Y986D01*
X576Y988D01*
X575Y990D01*
X574Y990D01*
X574Y991D01*
Y992D01*
X574D01*
X574Y992D01*
D02*
G37*
G36*
X497Y982D02*
X498D01*
X497Y982D01*
X497D01*
X496Y981D01*
X495D01*
X495Y982D01*
X495Y982D01*
X495D01*
X496Y982D01*
X497D01*
X497Y982D01*
D02*
G37*
G36*
X488Y996D02*
X488Y996D01*
X489Y996D01*
Y995D01*
X488Y995D01*
X488Y994D01*
X488Y994D01*
X487D01*
X487Y994D01*
X486Y995D01*
X486Y995D01*
Y995D01*
X486Y996D01*
X487Y997D01*
X487D01*
X488Y996D01*
D02*
G37*
G36*
X480Y998D02*
X480Y997D01*
X479Y997D01*
X479Y996D01*
Y996D01*
X478Y995D01*
X477Y994D01*
X477Y994D01*
X477D01*
X476Y994D01*
X475Y995D01*
Y996D01*
Y996D01*
X476Y997D01*
X477Y998D01*
X478Y998D01*
X480D01*
X480Y998D01*
D02*
G37*
G36*
X637Y606D02*
X637Y606D01*
X637Y606D01*
X637Y606D01*
X637Y605D01*
X637Y605D01*
X637Y605D01*
X638Y605D01*
X655Y568D01*
X655Y567D01*
X655Y567D01*
X655Y567D01*
Y567D01*
X655Y566D01*
X655Y566D01*
X655Y566D01*
X655Y566D01*
X655Y566D01*
X654Y566D01*
X654Y566D01*
X654D01*
X654Y566D01*
X654Y566D01*
X653Y566D01*
X653Y566D01*
X653Y567D01*
Y567D01*
X636Y604D01*
X635Y604D01*
X635Y605D01*
Y605D01*
Y605D01*
X635Y605D01*
X635Y605D01*
X636Y605D01*
X636Y606D01*
X636Y606D01*
X636Y606D01*
X636Y606D01*
X636D01*
X637Y606D01*
D02*
G37*
G36*
X512Y1101D02*
X514Y1100D01*
X515Y1100D01*
X515Y1100D01*
X517Y1098D01*
X518Y1097D01*
X518Y1096D01*
Y1095D01*
X519Y1095D01*
X519Y1094D01*
X520Y1093D01*
X522Y1093D01*
X523Y1093D01*
X523D01*
X526Y1092D01*
X528Y1091D01*
X529Y1091D01*
X529Y1090D01*
X531Y1089D01*
X532Y1087D01*
X535Y1084D01*
X538Y1080D01*
X542Y1076D01*
X546Y1071D01*
X554Y1061D01*
X558Y1057D01*
X561Y1052D01*
X565Y1047D01*
X568Y1043D01*
X571Y1040D01*
X573Y1037D01*
X574Y1036D01*
X574Y1035D01*
X577Y1032D01*
X579Y1029D01*
X581Y1026D01*
X582Y1025D01*
X582Y1024D01*
X583Y1023D01*
Y1022D01*
X583Y1022D01*
X584Y1020D01*
X586Y1018D01*
X587Y1016D01*
X589Y1014D01*
X590Y1013D01*
X592Y1011D01*
X592Y1011D01*
X595Y1007D01*
X597Y1005D01*
X599Y1003D01*
X600Y1001D01*
X601Y1001D01*
X601Y1000D01*
X602Y1000D01*
Y1000D01*
X602Y1001D01*
Y1003D01*
Y1004D01*
Y1005D01*
Y1005D01*
X602Y1009D01*
X602Y1012D01*
X604Y1018D01*
X607Y1022D01*
X610Y1026D01*
X613Y1029D01*
X616Y1031D01*
X618Y1032D01*
X618Y1033D01*
X618D01*
X623Y1034D01*
X627Y1035D01*
X629Y1036D01*
X632D01*
X637Y1035D01*
X639Y1035D01*
X641Y1034D01*
X643Y1034D01*
X644Y1033D01*
X645Y1033D01*
X645D01*
X650Y1031D01*
X651Y1033D01*
X652Y1035D01*
X653Y1036D01*
X656Y1039D01*
X657Y1040D01*
X658Y1041D01*
X659Y1042D01*
X659Y1042D01*
X662Y1045D01*
X664Y1046D01*
X666Y1047D01*
X668Y1048D01*
X670Y1049D01*
X671Y1049D01*
X672Y1049D01*
X672D01*
X674Y1050D01*
X676Y1050D01*
X679Y1053D01*
X680Y1053D01*
X681Y1054D01*
X682Y1055D01*
X682Y1055D01*
X684Y1057D01*
X685Y1058D01*
X686Y1060D01*
X686Y1061D01*
Y1062D01*
Y1063D01*
X687Y1064D01*
X688Y1066D01*
X689Y1068D01*
X690Y1069D01*
X690Y1069D01*
X691Y1071D01*
X693Y1072D01*
X693Y1073D01*
X694Y1074D01*
X696Y1075D01*
X698D01*
X698Y1074D01*
X699Y1074D01*
Y1074D01*
X699Y1073D01*
X698Y1072D01*
Y1072D01*
X698Y1071D01*
X698Y1070D01*
X698Y1069D01*
X699Y1069D01*
X701D01*
X703Y1069D01*
X704Y1069D01*
X704Y1070D01*
X705D01*
Y1071D01*
X705Y1072D01*
X705Y1073D01*
X705Y1073D01*
X706Y1074D01*
X707Y1074D01*
X708Y1074D01*
X709D01*
X710Y1075D01*
X711Y1076D01*
X711Y1076D01*
X714Y1079D01*
X717Y1077D01*
X718Y1075D01*
X719Y1074D01*
X720Y1073D01*
Y1073D01*
Y1072D01*
X720Y1071D01*
Y1068D01*
X721Y1067D01*
Y1066D01*
Y1065D01*
Y1065D01*
Y1062D01*
Y1059D01*
X720Y1057D01*
Y1055D01*
Y1053D01*
X720Y1052D01*
Y1052D01*
Y1051D01*
X720Y1046D01*
X717Y1049D01*
X716Y1051D01*
X715Y1051D01*
X714Y1052D01*
X714D01*
X713Y1051D01*
X713Y1050D01*
X713Y1049D01*
Y1048D01*
Y1048D01*
X714Y1047D01*
Y1047D01*
X714Y1046D01*
X715Y1046D01*
X715Y1046D01*
X716Y1047D01*
X716Y1047D01*
X717Y1047D01*
Y1046D01*
Y1045D01*
X716Y1044D01*
Y1043D01*
X716Y1042D01*
X715Y1041D01*
X715Y1040D01*
X714Y1040D01*
X713Y1039D01*
X713Y1039D01*
X713D01*
X712Y1038D01*
X712Y1038D01*
Y1037D01*
Y1037D01*
X712Y1037D01*
Y1036D01*
Y1036D01*
X711D01*
X711Y1036D01*
X708D01*
X708Y1036D01*
X708Y1035D01*
Y1035D01*
Y1034D01*
X707Y1032D01*
X706Y1030D01*
X705Y1028D01*
X705Y1027D01*
Y1027D01*
X702Y1022D01*
X704Y1015D01*
X706Y1009D01*
Y1015D01*
Y1019D01*
X707Y1022D01*
X707Y1025D01*
X707Y1027D01*
X708Y1029D01*
X708Y1030D01*
X709Y1031D01*
Y1031D01*
X709Y1032D01*
X709Y1033D01*
X709Y1033D01*
Y1033D01*
Y1034D01*
X709Y1035D01*
X710D01*
X711Y1034D01*
X711Y1034D01*
X712Y1033D01*
X712Y1033D01*
X713Y1031D01*
X714Y1031D01*
X715Y1030D01*
X716D01*
X718Y1030D01*
X719Y1030D01*
X719Y1029D01*
Y1029D01*
X719Y1027D01*
X720Y1026D01*
X721Y1026D01*
X721Y1025D01*
X721Y1025D01*
X721Y1024D01*
X721D01*
X720Y1024D01*
Y1022D01*
X721Y1021D01*
X721Y1020D01*
Y1020D01*
X721Y1018D01*
Y1016D01*
Y1014D01*
X721Y1014D01*
Y1013D01*
X721Y1012D01*
X721Y1011D01*
X721Y1009D01*
X721Y1008D01*
X721Y1007D01*
X722Y1006D01*
Y1005D01*
Y1004D01*
Y1004D01*
X722Y1003D01*
X722Y1003D01*
X723Y1003D01*
X725Y1004D01*
X725Y1004D01*
X725D01*
X727Y1006D01*
X729Y1007D01*
X730Y1008D01*
X730Y1008D01*
X731Y1009D01*
X733Y1010D01*
X736Y1012D01*
X737Y1013D01*
X738Y1013D01*
X739Y1014D01*
X740Y1014D01*
X747Y1019D01*
X752Y1016D01*
X754Y1014D01*
X756Y1013D01*
X757Y1012D01*
X758Y1012D01*
X759Y1011D01*
X760Y1010D01*
X762Y1008D01*
X764Y1007D01*
X765Y1006D01*
X767Y1005D01*
X768Y1004D01*
X768Y1003D01*
X772Y1001D01*
X774Y999D01*
X775Y998D01*
X776Y998D01*
X778Y996D01*
X779Y995D01*
X780Y994D01*
X780Y994D01*
X781Y993D01*
X782Y993D01*
X782Y992D01*
Y991D01*
Y991D01*
X781Y991D01*
X780Y991D01*
X779Y991D01*
X779D01*
X777Y992D01*
X777Y993D01*
X776Y993D01*
X776Y993D01*
X775Y994D01*
X774Y993D01*
X773D01*
X772Y994D01*
X772Y994D01*
Y995D01*
X771Y996D01*
X771Y997D01*
X769Y998D01*
X768Y999D01*
X767Y1000D01*
X766Y1001D01*
X765Y1001D01*
X765Y1002D01*
X763Y1003D01*
X761Y1005D01*
X760Y1006D01*
X759Y1006D01*
X758Y1007D01*
X758D01*
X757Y1007D01*
X757Y1008D01*
X756Y1008D01*
X755Y1008D01*
X754D01*
X753Y1008D01*
X753Y1009D01*
Y1009D01*
X753Y1010D01*
X752Y1011D01*
X751Y1012D01*
X750Y1013D01*
X749Y1014D01*
X747Y1015D01*
X746Y1015D01*
X746D01*
X746Y1015D01*
X745Y1015D01*
X744Y1014D01*
X742Y1013D01*
X738Y1011D01*
X734Y1008D01*
X730Y1005D01*
X727Y1003D01*
X725Y1002D01*
X724Y1001D01*
X724Y1001D01*
X723Y1000D01*
X719Y998D01*
X716Y995D01*
X713Y993D01*
X710Y991D01*
X708Y990D01*
X706Y989D01*
X705Y988D01*
X703Y987D01*
X702Y986D01*
X701Y985D01*
X700Y984D01*
X700Y983D01*
Y982D01*
X700Y980D01*
Y980D01*
X701Y978D01*
X702Y978D01*
X703Y977D01*
X703Y977D01*
X704Y976D01*
X705D01*
X705Y976D01*
X706Y977D01*
Y978D01*
X705Y978D01*
X705Y980D01*
X704Y980D01*
Y981D01*
X703Y982D01*
X703Y982D01*
Y983D01*
X703D01*
X708Y979D01*
X713Y976D01*
X716Y973D01*
X720Y970D01*
X722Y968D01*
X725Y967D01*
X726Y965D01*
X728Y964D01*
X729Y963D01*
X730Y962D01*
X731Y962D01*
X732Y961D01*
X731Y960D01*
X730Y959D01*
X729Y958D01*
X729Y957D01*
X727Y955D01*
X718Y961D01*
X712Y966D01*
X709Y968D01*
X707Y970D01*
X705Y971D01*
X703Y973D01*
X702Y973D01*
X702Y974D01*
X699Y975D01*
X697Y977D01*
X696Y978D01*
X694Y978D01*
X693Y978D01*
X693D01*
X692Y978D01*
X691Y977D01*
X689Y976D01*
X688Y975D01*
X688Y975D01*
X686Y974D01*
X684Y973D01*
X683Y972D01*
X683Y971D01*
X681Y970D01*
X680Y970D01*
X678D01*
X677Y970D01*
X675Y969D01*
X673Y967D01*
X672Y967D01*
X672Y967D01*
X670Y966D01*
X669Y965D01*
X667Y964D01*
X666Y964D01*
X665Y963D01*
X664D01*
X663Y963D01*
X661Y962D01*
X659Y961D01*
X658Y960D01*
X658Y960D01*
X657Y959D01*
X656Y958D01*
X655Y957D01*
X654Y957D01*
X654Y956D01*
Y956D01*
X655Y955D01*
X656Y954D01*
X658Y953D01*
X660Y951D01*
X662Y950D01*
X664Y949D01*
X665Y948D01*
X666Y947D01*
X670Y944D01*
X675Y941D01*
X678Y939D01*
X681Y937D01*
X682Y936D01*
X684Y935D01*
X684Y934D01*
X685Y934D01*
X687Y933D01*
X688Y932D01*
X689Y931D01*
X690D01*
X691Y932D01*
X692Y932D01*
X695Y934D01*
X697Y935D01*
X698Y936D01*
X699Y936D01*
X699Y937D01*
X701Y938D01*
X703Y940D01*
X705Y941D01*
X705Y942D01*
X706Y942D01*
X706Y942D01*
X707D01*
X708Y942D01*
X709Y943D01*
X710Y944D01*
X710Y945D01*
X711D01*
X713Y947D01*
X715Y949D01*
X717Y950D01*
X717Y950D01*
X717D01*
X720Y952D01*
X721Y952D01*
X721D01*
Y952D01*
X721Y951D01*
X720Y950D01*
X718Y949D01*
X718Y949D01*
X718Y948D01*
X715Y946D01*
X713Y944D01*
X712Y943D01*
X712Y943D01*
X711Y942D01*
X709Y941D01*
X706Y939D01*
X705Y938D01*
X703Y937D01*
X702Y936D01*
X702Y936D01*
X694Y930D01*
X698Y924D01*
X701Y921D01*
X703Y918D01*
X705Y917D01*
X705Y917D01*
X705D01*
X707Y916D01*
X709Y915D01*
X712Y914D01*
X715Y913D01*
X718Y912D01*
X721Y911D01*
X722Y910D01*
X722Y910D01*
X723D01*
X726Y909D01*
X729Y907D01*
X731Y907D01*
X732Y906D01*
X733Y906D01*
X733Y905D01*
X734Y905D01*
X734Y905D01*
X735Y904D01*
X736Y903D01*
X737Y903D01*
X741Y901D01*
X745Y899D01*
X748Y898D01*
X751Y897D01*
X753Y896D01*
X753Y896D01*
X754Y895D01*
X754D01*
X758Y894D01*
X761Y893D01*
X766Y891D01*
X771Y890D01*
X774Y889D01*
X777Y888D01*
X778Y887D01*
X779Y887D01*
X780D01*
X781Y887D01*
X784Y886D01*
X786Y885D01*
X789Y884D01*
X795Y882D01*
X801Y880D01*
X807Y877D01*
X810Y876D01*
X812Y875D01*
X814Y875D01*
X816Y874D01*
X816Y874D01*
X817D01*
X824Y871D01*
X830Y869D01*
X835Y867D01*
X840Y865D01*
X844Y863D01*
X848Y862D01*
X851Y860D01*
X853Y859D01*
X856Y858D01*
X857Y858D01*
X859Y857D01*
X860Y856D01*
X861Y856D01*
X862Y856D01*
X864Y855D01*
X866Y854D01*
X867Y853D01*
X868Y852D01*
X869Y851D01*
X869Y851D01*
X870Y849D01*
Y847D01*
X869Y846D01*
Y846D01*
X868Y845D01*
X868Y844D01*
X867Y844D01*
X867D01*
X866Y843D01*
X866Y843D01*
Y842D01*
Y842D01*
Y840D01*
X865Y839D01*
Y838D01*
Y837D01*
X865Y836D01*
X865Y836D01*
X864Y836D01*
X864Y837D01*
X862D01*
X862Y838D01*
Y838D01*
X862Y840D01*
X863Y842D01*
X863Y842D01*
Y843D01*
X864Y844D01*
X864Y846D01*
X865Y847D01*
X865Y848D01*
X865Y849D01*
Y850D01*
X865Y851D01*
X864Y852D01*
X863Y852D01*
X862Y853D01*
X856Y855D01*
X850Y858D01*
X844Y860D01*
X840Y862D01*
X836Y863D01*
X832Y864D01*
X831Y865D01*
X830Y865D01*
X830Y865D01*
X830D01*
X828Y866D01*
X825Y867D01*
X823Y868D01*
X820Y870D01*
X817Y871D01*
X815Y871D01*
X813Y872D01*
X812Y872D01*
X808Y874D01*
X804Y876D01*
X800Y877D01*
X797Y879D01*
X795Y879D01*
X793Y880D01*
X793Y880D01*
X792D01*
X789Y881D01*
X787Y882D01*
X786Y882D01*
X784D01*
X784Y882D01*
X783Y881D01*
X783Y881D01*
X783Y880D01*
X784Y880D01*
X784Y879D01*
X784Y878D01*
X785Y875D01*
X784Y873D01*
Y873D01*
Y872D01*
X784Y871D01*
X783Y869D01*
X783Y868D01*
X783Y867D01*
X782Y866D01*
X782Y865D01*
X780Y865D01*
X777D01*
X776Y866D01*
X776Y867D01*
Y868D01*
Y868D01*
X776Y871D01*
X777Y874D01*
X777Y875D01*
Y876D01*
X777Y876D01*
Y877D01*
X778Y882D01*
X766Y887D01*
X762Y888D01*
X758Y890D01*
X756Y891D01*
X754Y892D01*
X753Y892D01*
X752Y893D01*
X752Y893D01*
X750Y894D01*
X749Y894D01*
X749Y895D01*
X748D01*
X746Y895D01*
X745Y895D01*
X743Y896D01*
X739Y898D01*
X735Y900D01*
X731Y902D01*
X727Y903D01*
X726Y904D01*
X725Y905D01*
X724Y905D01*
X724D01*
X721Y906D01*
X718Y907D01*
X713Y909D01*
X710Y911D01*
X708Y912D01*
X706Y912D01*
X705Y913D01*
X704D01*
X704Y912D01*
X704Y911D01*
X703Y910D01*
X703Y908D01*
Y906D01*
Y904D01*
Y903D01*
Y903D01*
Y893D01*
X715Y889D01*
X719Y887D01*
X723Y886D01*
X726Y885D01*
X729Y883D01*
X731Y883D01*
X733Y882D01*
X733Y882D01*
X734D01*
X736Y881D01*
X738Y880D01*
X739Y879D01*
X740Y879D01*
X740Y879D01*
X741Y878D01*
X739D01*
X737Y879D01*
X736Y879D01*
X734Y880D01*
X734Y880D01*
X733D01*
X730Y882D01*
X726Y883D01*
X724Y884D01*
X721Y885D01*
X718Y886D01*
X717Y887D01*
X713Y888D01*
X711Y888D01*
X709Y889D01*
X709Y889D01*
X708D01*
X705Y890D01*
X702Y891D01*
X701D01*
X698Y890D01*
X697Y889D01*
X696Y889D01*
Y888D01*
Y888D01*
X697Y887D01*
X698Y884D01*
X700Y881D01*
X702Y878D01*
X704Y874D01*
X706Y871D01*
X707Y870D01*
X708Y869D01*
X708Y869D01*
X708Y869D01*
X711Y866D01*
X713Y863D01*
X715Y860D01*
X717Y858D01*
X719Y854D01*
X722Y851D01*
X723Y850D01*
X724Y848D01*
X725Y848D01*
X725Y848D01*
X726Y847D01*
X727Y846D01*
X730Y844D01*
X733Y840D01*
X736Y837D01*
X739Y834D01*
X741Y831D01*
X742Y829D01*
X743Y829D01*
X744Y828D01*
X744Y828D01*
X747Y825D01*
X749Y822D01*
X751Y819D01*
X753Y817D01*
X754Y815D01*
X755Y814D01*
X757Y811D01*
X758Y810D01*
X758Y809D01*
Y809D01*
X758Y809D01*
X757Y808D01*
X757Y809D01*
X757Y809D01*
X755Y811D01*
X754Y813D01*
X752Y815D01*
X750Y817D01*
X748Y819D01*
X747Y820D01*
X747Y821D01*
X743Y825D01*
X740Y829D01*
X737Y832D01*
X735Y835D01*
X733Y837D01*
X732Y838D01*
X731Y839D01*
X731Y839D01*
X730Y841D01*
X729Y842D01*
X728Y843D01*
X728Y843D01*
X726Y844D01*
X726Y845D01*
X725Y845D01*
X725D01*
X724Y845D01*
X721D01*
X720Y845D01*
X718Y845D01*
X717D01*
X716Y846D01*
X716D01*
X713Y846D01*
X710Y847D01*
X708Y847D01*
X705Y847D01*
X704Y847D01*
X703Y848D01*
X702D01*
X700Y848D01*
X698Y848D01*
X697Y849D01*
X697Y849D01*
X696Y849D01*
Y850D01*
X696Y850D01*
X697Y851D01*
X698Y850D01*
X698D01*
X703Y849D01*
X707Y848D01*
X710Y848D01*
X713Y847D01*
X715D01*
X717Y847D01*
X718D01*
X719Y847D01*
Y848D01*
X718Y850D01*
X717Y851D01*
X717Y852D01*
X716Y853D01*
X715Y854D01*
X715Y855D01*
X713Y856D01*
X712Y858D01*
X711Y859D01*
X711Y859D01*
X710Y860D01*
Y860D01*
X710Y861D01*
X709Y862D01*
X707Y864D01*
X706Y866D01*
X705Y867D01*
X705Y868D01*
X705Y868D01*
X701Y872D01*
X699Y876D01*
X697Y879D01*
X695Y881D01*
X694Y882D01*
X693Y883D01*
X693Y883D01*
X691Y885D01*
X689Y886D01*
X689Y886D01*
X689D01*
X688Y886D01*
X686D01*
X683Y886D01*
X679Y886D01*
X675Y887D01*
X671Y887D01*
X667Y888D01*
X666Y888D01*
X665Y888D01*
X664D01*
X660Y889D01*
X662Y886D01*
X664Y884D01*
X665Y883D01*
X666Y882D01*
Y882D01*
X666Y881D01*
X666Y881D01*
X666D01*
X665Y881D01*
X665Y881D01*
X665Y882D01*
X663Y883D01*
X662Y883D01*
X660D01*
Y884D01*
Y884D01*
X660Y886D01*
X660Y887D01*
X659Y887D01*
Y887D01*
X659D01*
X659Y887D01*
X658Y887D01*
X658Y885D01*
X657Y885D01*
Y885D01*
X657Y883D01*
X655Y882D01*
X654Y881D01*
X654D01*
X653Y881D01*
X652Y880D01*
X651Y880D01*
Y879D01*
Y879D01*
Y878D01*
Y878D01*
X652Y878D01*
X652D01*
X654Y879D01*
X655Y878D01*
X656Y877D01*
X657Y876D01*
X658Y875D01*
X659Y874D01*
X660Y873D01*
X660Y872D01*
X661Y871D01*
X661Y871D01*
X662Y870D01*
X663D01*
Y871D01*
X662Y872D01*
X662Y872D01*
X662Y873D01*
X661Y874D01*
Y874D01*
Y875D01*
X662D01*
X662Y874D01*
X663Y874D01*
X663Y874D01*
X663Y873D01*
X664Y873D01*
X666D01*
Y872D01*
X666Y871D01*
Y871D01*
X666Y870D01*
X666Y870D01*
X667Y869D01*
X668D01*
X669Y869D01*
X669Y870D01*
Y870D01*
X669D01*
X670Y870D01*
X670Y870D01*
X671Y869D01*
X671Y868D01*
X672D01*
X672Y868D01*
X673Y867D01*
X674Y867D01*
X674Y866D01*
X675Y865D01*
X676Y863D01*
X677Y862D01*
X678Y862D01*
X678Y861D01*
Y861D01*
X678Y860D01*
X674D01*
X672Y861D01*
X670Y861D01*
X668D01*
X666Y862D01*
X666Y863D01*
X665Y864D01*
Y864D01*
Y867D01*
X664Y864D01*
X664Y863D01*
X663Y863D01*
X663Y862D01*
X662Y863D01*
X661Y863D01*
X659Y863D01*
X659D01*
X656Y864D01*
X654Y864D01*
X652D01*
X651Y864D01*
X650Y863D01*
X650Y862D01*
Y862D01*
Y861D01*
X650Y859D01*
X651Y859D01*
X651Y859D01*
X652Y858D01*
X653Y857D01*
X653Y856D01*
Y856D01*
X653Y854D01*
X652Y853D01*
X652Y852D01*
X652Y852D01*
X651Y851D01*
X650Y849D01*
X650Y848D01*
X649Y847D01*
Y847D01*
X649Y844D01*
X648Y842D01*
Y840D01*
X648Y839D01*
Y839D01*
Y839D01*
X647Y835D01*
X647Y831D01*
X646Y829D01*
X646Y828D01*
X645Y827D01*
X645Y827D01*
X645Y826D01*
X644Y827D01*
X644Y827D01*
X644Y829D01*
X644Y831D01*
Y832D01*
Y832D01*
Y834D01*
Y835D01*
Y836D01*
Y836D01*
Y837D01*
X644Y837D01*
X643Y837D01*
X643Y836D01*
X642Y835D01*
X642Y834D01*
Y834D01*
X642Y832D01*
X641Y831D01*
X641Y831D01*
Y830D01*
X640Y829D01*
X639Y829D01*
X639Y828D01*
X638Y828D01*
X637Y827D01*
X637Y828D01*
Y828D01*
Y830D01*
X638Y832D01*
X638Y834D01*
X638Y835D01*
X639Y836D01*
Y836D01*
X640Y839D01*
X640Y841D01*
X641Y843D01*
X641Y845D01*
X641Y846D01*
Y847D01*
Y847D01*
Y849D01*
X642Y850D01*
Y850D01*
X642Y851D01*
X642Y852D01*
X643D01*
X644Y851D01*
X644Y851D01*
X645Y850D01*
X646Y850D01*
X646Y850D01*
X646D01*
X647Y850D01*
X647Y850D01*
X647Y851D01*
X647Y851D01*
X646Y852D01*
X645Y853D01*
X644Y853D01*
X643Y854D01*
X642Y855D01*
X642Y856D01*
Y857D01*
X642Y859D01*
X642Y860D01*
Y860D01*
X643Y861D01*
X644Y861D01*
X645Y861D01*
X646D01*
X647Y861D01*
X648Y862D01*
Y863D01*
Y864D01*
X647Y865D01*
X646Y866D01*
X646Y866D01*
X645Y867D01*
X643Y867D01*
X640Y868D01*
X639Y868D01*
X638Y869D01*
X637Y869D01*
X637D01*
X634Y871D01*
X630Y872D01*
X629Y873D01*
X628Y873D01*
X628Y874D01*
X627D01*
X626Y875D01*
X624Y876D01*
X623Y877D01*
X623Y877D01*
X622Y878D01*
Y878D01*
Y879D01*
X623Y879D01*
X624Y880D01*
X627Y881D01*
X630Y881D01*
X632Y881D01*
X634Y882D01*
X637D01*
X640Y882D01*
X642D01*
X645Y882D01*
X646Y883D01*
X647Y883D01*
X648D01*
X649Y883D01*
X649D01*
X651Y884D01*
X652Y886D01*
X652Y887D01*
Y888D01*
Y889D01*
Y890D01*
X652Y891D01*
X651Y892D01*
X651D01*
X650Y892D01*
X648Y893D01*
X647Y893D01*
X647D01*
X646Y894D01*
X644Y895D01*
X643D01*
X642Y895D01*
X641Y896D01*
X639Y897D01*
X639Y897D01*
X638Y898D01*
X638Y899D01*
X638Y900D01*
Y900D01*
X638Y901D01*
X638Y901D01*
Y902D01*
Y902D01*
X637D01*
X636Y902D01*
X635Y902D01*
X635Y901D01*
X634Y901D01*
X633Y900D01*
X633Y900D01*
X632D01*
X631Y899D01*
X631Y900D01*
Y900D01*
Y901D01*
Y901D01*
X631Y902D01*
X630Y902D01*
X629Y903D01*
X628Y903D01*
X626Y904D01*
X624D01*
Y903D01*
X625Y902D01*
X625Y901D01*
X626Y900D01*
X626Y899D01*
X626Y898D01*
X627Y897D01*
Y897D01*
X626Y896D01*
X626Y895D01*
X626Y895D01*
X626Y895D01*
X624Y894D01*
X623Y894D01*
X622Y893D01*
X622D01*
X619Y893D01*
X618Y893D01*
X618D01*
X622Y895D01*
X622Y896D01*
X623Y896D01*
X624Y897D01*
X625Y897D01*
X625Y898D01*
Y898D01*
Y898D01*
X625D01*
X623Y898D01*
X622Y898D01*
X622Y897D01*
X622Y897D01*
X620Y896D01*
X620D01*
X619Y896D01*
X618Y897D01*
X618Y898D01*
X618Y900D01*
X617Y901D01*
Y903D01*
Y904D01*
Y904D01*
Y906D01*
X617Y907D01*
Y908D01*
Y908D01*
X616Y909D01*
X616Y909D01*
X615D01*
X614Y910D01*
X614D01*
X614Y910D01*
Y910D01*
Y910D01*
Y911D01*
Y911D01*
X613Y912D01*
X612Y913D01*
X612Y913D01*
X609Y914D01*
X607Y916D01*
X605Y918D01*
X604Y918D01*
X604D01*
X602Y920D01*
X601Y921D01*
X600Y921D01*
X600D01*
X599Y922D01*
X598Y921D01*
X597Y921D01*
X597D01*
X595Y920D01*
X594Y920D01*
X593Y918D01*
X593Y918D01*
Y917D01*
X593Y916D01*
X592Y916D01*
X592Y916D01*
X591Y915D01*
X590Y914D01*
X588Y913D01*
X588Y913D01*
X586Y911D01*
X584Y910D01*
X582Y909D01*
X582Y908D01*
X578Y906D01*
X581Y904D01*
X583Y903D01*
X584Y902D01*
X585D01*
X586Y902D01*
X587Y901D01*
X587Y901D01*
X588Y900D01*
X589Y899D01*
X593Y896D01*
X594Y895D01*
X595Y895D01*
X596Y894D01*
X597Y894D01*
X604Y888D01*
X599Y887D01*
X598Y886D01*
X597Y886D01*
X595Y886D01*
X594D01*
X596Y887D01*
X598Y888D01*
X598Y888D01*
X599Y888D01*
X598Y889D01*
X598Y889D01*
X596Y891D01*
X594Y892D01*
X594Y892D01*
X594D01*
X590Y895D01*
X588Y896D01*
X586Y897D01*
X586Y897D01*
X585Y898D01*
X585Y898D01*
X584Y898D01*
X583Y899D01*
X582Y900D01*
X580Y902D01*
X579Y902D01*
X579D01*
X574Y905D01*
X568Y902D01*
X563Y899D01*
X560Y897D01*
X559Y896D01*
X558Y896D01*
X558Y895D01*
X558D01*
X556Y895D01*
X555Y894D01*
X554Y894D01*
X554Y894D01*
Y895D01*
X554Y895D01*
X556Y896D01*
X558Y898D01*
X560Y899D01*
X563Y901D01*
X565Y902D01*
X566Y903D01*
X567Y903D01*
X567D01*
X574Y908D01*
X578Y910D01*
X581Y912D01*
X584Y914D01*
X586Y915D01*
X587Y916D01*
X587Y917D01*
X591Y919D01*
X593Y921D01*
X595Y923D01*
X596Y924D01*
X597Y925D01*
X597Y926D01*
X598Y926D01*
X598D01*
X600Y925D01*
X602Y923D01*
X602Y923D01*
X602Y922D01*
X604Y921D01*
X606Y920D01*
X607Y919D01*
X608Y918D01*
X609Y918D01*
X610D01*
X610Y919D01*
X609Y920D01*
X608Y921D01*
X607Y921D01*
X607Y922D01*
X606Y922D01*
Y923D01*
X607Y924D01*
X607Y924D01*
X608Y925D01*
X608Y925D01*
Y926D01*
X608Y926D01*
X607Y927D01*
X606Y927D01*
X604Y927D01*
X598D01*
X597Y928D01*
X596Y928D01*
X595D01*
X594Y929D01*
X593Y930D01*
X591Y932D01*
X591Y932D01*
X588Y936D01*
X585Y938D01*
X583Y939D01*
X582Y940D01*
X582D01*
X581Y941D01*
X580Y941D01*
X579Y941D01*
X582D01*
X583Y941D01*
X584D01*
X584Y941D01*
Y942D01*
Y942D01*
Y942D01*
X584Y943D01*
X584Y944D01*
X583Y948D01*
X583Y950D01*
X582Y951D01*
X582Y952D01*
Y952D01*
X581Y961D01*
X575Y963D01*
X571Y965D01*
X568Y966D01*
X567Y966D01*
X566Y966D01*
X565Y967D01*
X565D01*
X563Y967D01*
X561Y968D01*
X556Y970D01*
X554Y971D01*
X552Y972D01*
X550Y972D01*
X550Y972D01*
X547Y974D01*
X544Y975D01*
X542Y975D01*
X540Y976D01*
X539Y976D01*
X539Y976D01*
X538D01*
X537Y977D01*
X535Y977D01*
X534Y978D01*
X533Y978D01*
X531Y979D01*
X528Y981D01*
X526Y982D01*
X524Y982D01*
X521Y983D01*
X519Y984D01*
X518Y984D01*
X516D01*
Y984D01*
Y983D01*
X517Y981D01*
X517Y979D01*
X517Y978D01*
Y978D01*
X518Y974D01*
X519Y971D01*
X519Y970D01*
X520Y969D01*
X520Y969D01*
Y968D01*
X521Y968D01*
Y967D01*
X520D01*
X519Y968D01*
X519Y968D01*
X519D01*
X517Y969D01*
X516Y971D01*
X515Y973D01*
X514Y976D01*
X513Y978D01*
X512Y981D01*
X512Y982D01*
X511Y983D01*
X511Y985D01*
X510Y987D01*
X510Y988D01*
X509Y989D01*
X508Y990D01*
X508Y991D01*
X507Y992D01*
X506Y992D01*
X504Y993D01*
X502Y994D01*
X501Y994D01*
X501D01*
X499Y995D01*
X498Y995D01*
X497Y996D01*
X496Y996D01*
X495Y996D01*
X495Y997D01*
X494Y997D01*
X494Y998D01*
X492D01*
X491Y998D01*
X488Y999D01*
X487Y1000D01*
X485Y1000D01*
X485Y1001D01*
X484D01*
X482Y1002D01*
X481Y1002D01*
X479Y1003D01*
X479Y1003D01*
X478Y1003D01*
X477D01*
X477Y1003D01*
Y1003D01*
X477Y1002D01*
Y1002D01*
X478Y1001D01*
Y1000D01*
X477D01*
X476Y1001D01*
X476Y1001D01*
X475Y1002D01*
Y1002D01*
Y1003D01*
X475Y1003D01*
X475Y1004D01*
X473Y1005D01*
X472Y1006D01*
X472Y1006D01*
X471Y1006D01*
X468D01*
Y1006D01*
X468Y1005D01*
X467Y1005D01*
X467D01*
X466Y1005D01*
X465Y1006D01*
Y1006D01*
Y1006D01*
Y1007D01*
X465Y1008D01*
X464Y1008D01*
X464Y1009D01*
X463Y1009D01*
X461Y1010D01*
X459Y1011D01*
X457Y1012D01*
X455Y1013D01*
X453Y1014D01*
X452Y1014D01*
X451Y1014D01*
X450Y1015D01*
X448Y1016D01*
X447Y1016D01*
X447D01*
X446Y1016D01*
X446D01*
X445Y1016D01*
Y1015D01*
X445Y1014D01*
Y1014D01*
X446Y1012D01*
Y1012D01*
Y1011D01*
X445D01*
X445Y1012D01*
X444Y1012D01*
X443Y1013D01*
X442Y1012D01*
X442D01*
X441Y1012D01*
X440D01*
Y1012D01*
X440Y1013D01*
X441Y1014D01*
Y1014D01*
X441Y1015D01*
X442Y1017D01*
X442Y1018D01*
Y1019D01*
X442Y1019D01*
X443Y1019D01*
X444D01*
X446Y1019D01*
X448Y1018D01*
X451Y1017D01*
X454Y1016D01*
X460Y1014D01*
X466Y1011D01*
X469Y1010D01*
X471Y1010D01*
X473Y1009D01*
X475Y1008D01*
X476Y1008D01*
X476Y1007D01*
X483Y1005D01*
X488Y1003D01*
X493Y1001D01*
X497Y999D01*
X500Y998D01*
X503Y996D01*
X506Y995D01*
X508Y994D01*
X510Y993D01*
X512Y992D01*
X513Y992D01*
X514Y991D01*
X515Y991D01*
X515Y990D01*
X517Y989D01*
X519Y988D01*
X523Y986D01*
X525Y985D01*
X527Y985D01*
X528Y984D01*
X528D01*
X532Y983D01*
X536Y982D01*
X540Y980D01*
X543Y979D01*
X547Y978D01*
X549Y977D01*
X551Y976D01*
X551Y976D01*
X552D01*
X557Y974D01*
X562Y972D01*
X566Y970D01*
X570Y969D01*
X573Y968D01*
X576Y967D01*
X578Y967D01*
X581Y966D01*
X582Y966D01*
X584Y966D01*
X586Y965D01*
X587D01*
X589Y966D01*
X590Y966D01*
X591Y967D01*
X591D01*
Y967D01*
X590Y968D01*
X589Y971D01*
X588Y972D01*
X587Y973D01*
X587Y974D01*
X586Y974D01*
X582Y981D01*
X588Y974D01*
X594Y968D01*
X605D01*
X607Y968D01*
X609Y969D01*
X610Y969D01*
X610Y970D01*
X611Y970D01*
X611Y970D01*
X611Y971D01*
Y971D01*
X612Y970D01*
Y970D01*
X612Y969D01*
X613Y969D01*
X614D01*
X615Y969D01*
X616Y969D01*
X617D01*
X617Y970D01*
Y970D01*
Y970D01*
Y970D01*
X616Y971D01*
X616Y971D01*
X615D01*
X614Y971D01*
X614D01*
X613Y971D01*
Y972D01*
X613Y973D01*
X613Y974D01*
X614Y974D01*
X614Y974D01*
X612D01*
X611Y975D01*
X610Y975D01*
X610Y976D01*
X609Y977D01*
X609Y978D01*
X609Y980D01*
Y980D01*
X608Y983D01*
X607Y986D01*
X605Y990D01*
X603Y993D01*
X601Y995D01*
X599Y997D01*
X598Y998D01*
X598Y999D01*
X596Y1001D01*
X594Y1002D01*
X591Y1006D01*
X589Y1008D01*
X588Y1010D01*
X587Y1010D01*
X587Y1011D01*
X585Y1013D01*
X583Y1015D01*
X582Y1017D01*
X581Y1018D01*
X580Y1018D01*
X579Y1019D01*
X579Y1019D01*
X578Y1019D01*
X576Y1020D01*
X573D01*
X571Y1020D01*
X561D01*
X558Y1020D01*
X556Y1021D01*
X554D01*
X553Y1021D01*
X552Y1021D01*
X552D01*
X550Y1022D01*
X549Y1024D01*
X548Y1026D01*
Y1026D01*
Y1026D01*
X548Y1029D01*
X562Y1029D01*
X572D01*
X573Y1029D01*
X574D01*
X575Y1029D01*
X576D01*
X576Y1030D01*
X575Y1030D01*
X573Y1033D01*
X571Y1036D01*
X568Y1040D01*
X565Y1044D01*
X562Y1047D01*
X561Y1048D01*
X560Y1049D01*
X560Y1049D01*
X560Y1050D01*
X557Y1053D01*
X555Y1055D01*
X554Y1056D01*
X553Y1058D01*
X552Y1059D01*
X551Y1059D01*
X551Y1060D01*
X548Y1064D01*
X545Y1067D01*
X543Y1070D01*
X541Y1073D01*
X539Y1075D01*
X537Y1077D01*
X534Y1081D01*
X532Y1083D01*
X531Y1085D01*
X530Y1085D01*
X530Y1085D01*
X528Y1087D01*
X527Y1088D01*
X525Y1089D01*
X523Y1090D01*
X520D01*
X519Y1089D01*
X518Y1089D01*
X518Y1089D01*
X516Y1089D01*
X515D01*
X514Y1089D01*
X511D01*
X509Y1089D01*
X506Y1088D01*
X505Y1087D01*
X504Y1086D01*
X503Y1086D01*
X503Y1086D01*
Y1085D01*
X503Y1084D01*
X504Y1083D01*
X505Y1083D01*
X504Y1083D01*
X503Y1084D01*
X501Y1085D01*
X501Y1085D01*
X501D01*
X499Y1087D01*
X498Y1089D01*
X497Y1090D01*
X496Y1091D01*
X495Y1093D01*
Y1095D01*
X495Y1097D01*
X496Y1098D01*
X497Y1099D01*
X497Y1099D01*
X498Y1100D01*
X499Y1100D01*
X501Y1101D01*
X503Y1100D01*
X503Y1100D01*
X503D01*
X506Y1100D01*
X507D01*
X508Y1100D01*
X508Y1100D01*
X509Y1101D01*
X510Y1102D01*
X511D01*
X512Y1101D01*
D02*
G37*
G36*
X710Y593D02*
X711Y593D01*
X711Y593D01*
X712Y593D01*
X714Y592D01*
X714Y592D01*
X715Y591D01*
X715Y591D01*
X716Y591D01*
X716Y590D01*
X717Y590D01*
X717Y590D01*
X717Y590D01*
X717Y590D01*
X717Y590D01*
X718Y589D01*
X719Y588D01*
X719Y587D01*
X719Y587D01*
X720Y586D01*
X720Y585D01*
X720Y584D01*
X721Y583D01*
X721Y583D01*
X721Y582D01*
X721Y582D01*
X721Y582D01*
Y581D01*
Y581D01*
Y581D01*
X721Y580D01*
X721Y579D01*
X721Y579D01*
X720Y578D01*
X720Y576D01*
X719Y575D01*
X719Y575D01*
X718Y574D01*
X718Y574D01*
X718Y573D01*
X718Y573D01*
X718Y573D01*
X717Y573D01*
X717Y573D01*
X717Y572D01*
X716Y572D01*
X715Y571D01*
X715Y571D01*
X714Y570D01*
X713Y570D01*
X712Y570D01*
X711Y569D01*
X711Y569D01*
X710Y569D01*
X710Y569D01*
X709Y569D01*
X709D01*
X708Y569D01*
X707Y569D01*
X706Y570D01*
X705Y570D01*
X704Y570D01*
X703Y571D01*
X702Y571D01*
X702Y572D01*
X701Y572D01*
X701Y572D01*
X701Y572D01*
X700Y573D01*
X700Y573D01*
X700Y573D01*
X700Y573D01*
X699Y574D01*
X699Y575D01*
X698Y575D01*
X698Y576D01*
X698Y577D01*
X697Y578D01*
X697Y579D01*
X697Y579D01*
X697Y580D01*
X697Y580D01*
X697Y581D01*
Y581D01*
Y581D01*
Y581D01*
X697Y582D01*
X697Y583D01*
X697Y584D01*
X697Y585D01*
X698Y586D01*
X698Y587D01*
X699Y588D01*
X699Y588D01*
X699Y589D01*
X700Y589D01*
X700Y589D01*
X700Y589D01*
X700Y590D01*
X700Y590D01*
X701Y590D01*
X702Y591D01*
X702Y591D01*
X703Y592D01*
X704Y592D01*
X704Y592D01*
X706Y593D01*
X706Y593D01*
X707Y593D01*
X707Y593D01*
X708Y593D01*
X708Y593D01*
X709D01*
X710Y593D01*
D02*
G37*
G36*
X463Y602D02*
X463Y602D01*
X464Y602D01*
X464Y602D01*
X464Y602D01*
X464Y602D01*
X464Y601D01*
Y601D01*
X464Y601D01*
X464Y601D01*
X464Y601D01*
X464Y601D01*
X463Y600D01*
X463Y600D01*
X463Y600D01*
X456D01*
Y572D01*
X465D01*
X465Y572D01*
X466Y572D01*
X466Y572D01*
X466Y572D01*
X466Y572D01*
X466Y571D01*
X466Y571D01*
Y571D01*
X466Y571D01*
X466Y571D01*
X466Y570D01*
X466Y570D01*
X465Y570D01*
X465Y570D01*
X465Y570D01*
X446D01*
X445Y570D01*
X445Y570D01*
X444Y570D01*
X444Y570D01*
X444Y571D01*
X444Y571D01*
X444Y571D01*
Y571D01*
X444Y571D01*
X444Y572D01*
X444Y572D01*
X444Y572D01*
X445Y572D01*
X445Y572D01*
X445Y572D01*
X454D01*
Y602D01*
X462D01*
X463Y602D01*
D02*
G37*
G36*
X773Y576D02*
X774Y576D01*
X774Y576D01*
X774Y576D01*
X775Y575D01*
X775Y575D01*
X775Y575D01*
X775Y575D01*
X775Y575D01*
X776Y574D01*
X776Y574D01*
X776Y574D01*
X776Y573D01*
X776Y573D01*
Y573D01*
Y573D01*
X776Y572D01*
X776Y572D01*
X776Y571D01*
X776Y571D01*
X775Y571D01*
X775Y570D01*
X775Y570D01*
X775Y570D01*
X775Y570D01*
X774Y570D01*
X774Y569D01*
X773Y569D01*
X773Y569D01*
X773Y569D01*
X772D01*
X771Y569D01*
X771Y569D01*
X770Y569D01*
X770Y570D01*
X770Y570D01*
X769Y570D01*
X769Y570D01*
X769Y570D01*
X769Y571D01*
X769Y571D01*
X768Y571D01*
X768Y572D01*
X768Y572D01*
X768Y572D01*
Y573D01*
Y573D01*
X768Y573D01*
X768Y574D01*
X768Y574D01*
X769Y574D01*
X769Y575D01*
X769Y575D01*
X769Y575D01*
X769Y575D01*
X770Y575D01*
X770Y576D01*
X770Y576D01*
X771Y576D01*
X771Y576D01*
X771Y576D01*
X773D01*
X773Y576D01*
D02*
G37*
G36*
X615Y892D02*
X612Y890D01*
X610Y889D01*
X609Y889D01*
X609Y889D01*
X608D01*
Y890D01*
X609Y890D01*
X609Y891D01*
X610Y891D01*
X611Y892D01*
X613Y892D01*
X614D01*
X615Y892D01*
D02*
G37*
G36*
X609Y913D02*
X609Y913D01*
X610Y913D01*
Y912D01*
X609Y912D01*
X609Y911D01*
X609Y911D01*
X608D01*
X608Y911D01*
X607Y912D01*
Y912D01*
Y912D01*
X607Y913D01*
X608Y914D01*
X608D01*
X609Y913D01*
D02*
G37*
G36*
X720Y1042D02*
X720Y1041D01*
X721Y1040D01*
X720Y1038D01*
X720Y1037D01*
X719Y1036D01*
Y1036D01*
X719Y1035D01*
X718Y1034D01*
X717Y1033D01*
X716Y1032D01*
X715D01*
X714Y1032D01*
X714Y1033D01*
X714Y1034D01*
Y1034D01*
X715Y1036D01*
X716Y1037D01*
X716Y1039D01*
X716Y1039D01*
X717Y1041D01*
X718Y1042D01*
X718Y1042D01*
X719D01*
X720Y1042D01*
D02*
G37*
G36*
X608Y910D02*
Y909D01*
Y909D01*
Y909D01*
X608Y908D01*
X607Y908D01*
X607Y907D01*
X606Y908D01*
X606Y908D01*
X606Y908D01*
Y909D01*
X607Y909D01*
X607Y910D01*
X608D01*
X608Y910D01*
D02*
G37*
G36*
X638Y896D02*
X639Y896D01*
X639Y895D01*
X639Y895D01*
X640Y894D01*
X640Y894D01*
Y893D01*
X640D01*
X639Y894D01*
X639D01*
X638Y894D01*
X637Y893D01*
X637Y893D01*
Y892D01*
X636Y891D01*
X635Y889D01*
X635Y888D01*
X634Y888D01*
X634Y887D01*
X633Y887D01*
X631Y887D01*
X630Y887D01*
X630Y887D01*
X629Y889D01*
X629Y889D01*
X628Y890D01*
Y890D01*
Y891D01*
Y891D01*
X629Y891D01*
X629Y890D01*
X629Y890D01*
X630Y889D01*
X631Y889D01*
X633D01*
X634Y890D01*
X634Y890D01*
X634Y891D01*
Y891D01*
X634Y892D01*
X634Y892D01*
X632Y893D01*
X630Y892D01*
X629D01*
X629Y893D01*
X628Y893D01*
Y894D01*
Y894D01*
X629Y895D01*
X630Y896D01*
X630Y896D01*
X632D01*
X633Y896D01*
X633Y895D01*
Y895D01*
X634Y894D01*
X634Y894D01*
X634Y894D01*
X634Y894D01*
X635Y894D01*
X635Y895D01*
X636Y895D01*
X637Y896D01*
X637Y896D01*
X638Y896D01*
X638Y896D01*
D02*
G37*
G36*
X603Y909D02*
Y909D01*
Y908D01*
Y908D01*
X602Y907D01*
X602Y907D01*
X601Y907D01*
X601D01*
X600Y907D01*
X600Y908D01*
X600Y908D01*
X601Y909D01*
X601D01*
X602Y910D01*
X602D01*
X603Y909D01*
D02*
G37*
G36*
X594Y743D02*
X595Y742D01*
X596Y742D01*
X597Y742D01*
X598Y741D01*
X598Y741D01*
X599Y741D01*
X599Y741D01*
X599Y740D01*
X600Y739D01*
X600Y739D01*
X601Y738D01*
X601Y737D01*
X601Y737D01*
Y736D01*
Y736D01*
X601Y736D01*
X601Y735D01*
X600Y734D01*
X599Y733D01*
X598Y733D01*
X597Y732D01*
X596Y732D01*
X596Y732D01*
X593D01*
X602Y691D01*
X604D01*
X605Y690D01*
X606Y690D01*
X607Y690D01*
X608Y689D01*
X608Y689D01*
X609Y689D01*
X609Y689D01*
X609Y688D01*
X610Y688D01*
X610Y687D01*
X611Y686D01*
X611Y686D01*
X611Y685D01*
X611Y684D01*
Y684D01*
Y684D01*
X611Y683D01*
X610Y682D01*
X610Y681D01*
X609Y680D01*
X608Y680D01*
X607Y680D01*
X607Y680D01*
X598D01*
X560Y726D01*
X568Y691D01*
X571D01*
X573Y690D01*
X574Y690D01*
X575Y690D01*
X576Y689D01*
X577Y689D01*
X578Y689D01*
X578Y688D01*
X578Y688D01*
X579Y687D01*
X579Y687D01*
X579Y685D01*
X579Y685D01*
X580Y684D01*
Y684D01*
Y684D01*
X579Y683D01*
X579Y683D01*
X579Y682D01*
X578Y681D01*
X577Y680D01*
X575Y680D01*
X575Y680D01*
X574Y680D01*
X557D01*
X556Y680D01*
X555Y680D01*
X554Y680D01*
X553Y681D01*
X553Y681D01*
X552Y681D01*
X552Y682D01*
X552Y682D01*
X551Y682D01*
X551Y683D01*
X550Y684D01*
X550Y685D01*
X550Y685D01*
X550Y686D01*
Y686D01*
Y686D01*
X550Y687D01*
X550Y688D01*
X551Y689D01*
X551Y689D01*
X552Y690D01*
X553Y690D01*
X554Y690D01*
X555Y691D01*
X558D01*
X549Y732D01*
X547D01*
X546Y732D01*
X545Y732D01*
X544Y733D01*
X544Y733D01*
X543Y734D01*
X543Y734D01*
X543Y734D01*
X542Y734D01*
X542Y735D01*
X541Y736D01*
X541Y736D01*
X541Y737D01*
X541Y738D01*
X541Y738D01*
Y738D01*
Y738D01*
X541Y739D01*
X541Y740D01*
X542Y741D01*
X543Y742D01*
X544Y742D01*
X545Y742D01*
X546Y743D01*
X547Y743D01*
X559D01*
X588Y706D01*
X582Y732D01*
X579D01*
X578Y732D01*
X577Y732D01*
X576Y733D01*
X575Y733D01*
X574Y733D01*
X574Y734D01*
X573Y734D01*
X573Y734D01*
X572Y734D01*
X572Y735D01*
X571Y736D01*
X571Y737D01*
X571Y737D01*
X571Y738D01*
Y738D01*
Y738D01*
X571Y739D01*
X571Y740D01*
X572Y741D01*
X573Y742D01*
X574Y742D01*
X575Y742D01*
X576Y743D01*
X577Y743D01*
X593D01*
X594Y743D01*
D02*
G37*
G36*
X809Y540D02*
X809Y540D01*
X809D01*
X810Y540D01*
X810Y540D01*
X810Y540D01*
X810Y540D01*
X810Y539D01*
Y539D01*
Y539D01*
X810Y539D01*
X810Y539D01*
Y538D01*
X810Y538D01*
X810Y538D01*
X810Y538D01*
X809D01*
X809Y538D01*
X807D01*
X796Y510D01*
X793D01*
X783Y538D01*
X781D01*
X781Y538D01*
X781D01*
X780Y538D01*
X780Y538D01*
X780Y538D01*
Y538D01*
X780Y539D01*
X780Y539D01*
Y539D01*
Y539D01*
Y539D01*
X780Y539D01*
X780Y540D01*
X780Y540D01*
X780Y540D01*
X780Y540D01*
X780Y540D01*
X781D01*
X781Y540D01*
X781Y540D01*
X789D01*
X790Y540D01*
X790Y540D01*
X790D01*
X790Y540D01*
X790Y540D01*
X790Y540D01*
X790Y540D01*
X790Y539D01*
X790Y539D01*
Y539D01*
Y539D01*
X790Y539D01*
X790Y539D01*
Y538D01*
X790Y538D01*
X790Y538D01*
X790Y538D01*
X790D01*
X790Y538D01*
X785D01*
X795Y512D01*
X795D01*
X805Y538D01*
X801D01*
X800Y538D01*
X800D01*
X800Y538D01*
X800Y538D01*
X800Y538D01*
Y538D01*
X800Y539D01*
X799Y539D01*
Y539D01*
Y539D01*
Y539D01*
X799Y539D01*
X800Y540D01*
X800Y540D01*
X800Y540D01*
X800Y540D01*
X800Y540D01*
X800D01*
X800Y540D01*
X801Y540D01*
X809D01*
X809Y540D01*
D02*
G37*
G36*
X852Y743D02*
X853Y742D01*
X854Y742D01*
X855Y742D01*
X855Y742D01*
X856Y741D01*
X856Y741D01*
X856Y741D01*
X857Y740D01*
X858Y739D01*
X858Y738D01*
X859Y738D01*
X859Y737D01*
X859Y737D01*
Y736D01*
Y736D01*
Y735D01*
X859Y735D01*
X859Y734D01*
X858Y734D01*
X858Y733D01*
X858Y733D01*
X857Y733D01*
X856Y732D01*
X855Y732D01*
X854Y732D01*
X853Y732D01*
X851D01*
X860Y691D01*
X861Y690D01*
X862Y690D01*
X863Y690D01*
X864Y689D01*
X865Y689D01*
X865Y689D01*
X865Y689D01*
X866Y688D01*
X866Y688D01*
X867Y687D01*
X867Y686D01*
X868Y686D01*
X868Y685D01*
X868Y684D01*
Y684D01*
Y684D01*
Y683D01*
X868Y683D01*
X867Y682D01*
X867Y681D01*
X867Y681D01*
X866Y681D01*
X865Y680D01*
X864Y680D01*
X863Y680D01*
X845D01*
X845Y680D01*
X844Y680D01*
X843Y681D01*
X842Y681D01*
X842Y681D01*
X842Y681D01*
X842D01*
X840Y682D01*
X840Y683D01*
X839Y684D01*
X839Y685D01*
X838Y686D01*
X838Y686D01*
Y686D01*
Y686D01*
Y687D01*
X839Y688D01*
X839Y689D01*
X839Y689D01*
X840Y689D01*
X840D01*
X841Y690D01*
X842Y690D01*
X842Y691D01*
X849D01*
X844Y717D01*
X839Y695D01*
X829D01*
X808Y726D01*
X816Y691D01*
X820D01*
X820Y690D01*
X821Y690D01*
X822Y690D01*
X823Y689D01*
X823Y689D01*
X823Y689D01*
X824Y689D01*
X825Y688D01*
X825Y687D01*
X826Y686D01*
X826Y686D01*
X827Y685D01*
X827Y684D01*
Y684D01*
Y684D01*
Y683D01*
X826Y683D01*
X826Y682D01*
X826Y681D01*
X825Y681D01*
X824Y680D01*
X823Y680D01*
X823Y680D01*
X805D01*
X804Y680D01*
X803Y680D01*
X802Y680D01*
X801Y681D01*
X801Y681D01*
X801Y681D01*
X800Y681D01*
X800D01*
X799Y682D01*
X798Y683D01*
X798Y684D01*
X798Y685D01*
X797Y686D01*
X797Y686D01*
Y686D01*
Y686D01*
Y687D01*
X797Y688D01*
X798Y689D01*
X798Y689D01*
X798Y689D01*
X798D01*
X799Y690D01*
X800Y690D01*
X801Y690D01*
X802Y690D01*
X803Y691D01*
X805D01*
X796Y732D01*
X795Y732D01*
X794Y732D01*
X793Y733D01*
X792Y733D01*
X792Y734D01*
X791Y734D01*
X791Y734D01*
X791Y734D01*
X790Y735D01*
X789Y736D01*
X789Y736D01*
X789Y737D01*
X788Y738D01*
X788Y738D01*
Y738D01*
Y738D01*
Y739D01*
X788Y740D01*
X789Y741D01*
X789Y741D01*
X789Y742D01*
X790D01*
X790Y742D01*
X791Y742D01*
X792Y743D01*
X793Y743D01*
X809D01*
X830Y711D01*
X837Y743D01*
X851D01*
X852Y743D01*
D02*
G37*
G36*
X461Y719D02*
X461Y718D01*
Y718D01*
Y717D01*
X461Y717D01*
X460Y716D01*
X460Y716D01*
X460Y716D01*
X460Y715D01*
X459Y715D01*
X458Y715D01*
X458D01*
X457Y715D01*
X457Y715D01*
X456Y716D01*
X456Y716D01*
X455Y717D01*
X455Y717D01*
X454Y718D01*
X454Y718D01*
Y719D01*
X445Y744D01*
X459D01*
X461Y719D01*
D02*
G37*
G36*
X438D02*
X439Y718D01*
Y718D01*
Y717D01*
X438Y717D01*
X438Y716D01*
X438Y716D01*
X438Y716D01*
X437Y715D01*
X437Y715D01*
X436Y715D01*
X436D01*
X435Y715D01*
X434Y715D01*
X434Y716D01*
X434Y716D01*
X433Y717D01*
X432Y717D01*
X432Y718D01*
X432Y718D01*
Y719D01*
X423Y744D01*
X437D01*
X438Y719D01*
D02*
G37*
G36*
X803Y658D02*
X804Y658D01*
X805Y658D01*
X805Y657D01*
X806Y657D01*
X807Y656D01*
X808Y656D01*
X808Y655D01*
X808Y655D01*
X808Y655D01*
Y657D01*
X812D01*
X813Y657D01*
X813Y657D01*
X813Y657D01*
X813Y657D01*
X813Y657D01*
X813Y657D01*
X813Y656D01*
Y656D01*
X813Y656D01*
X813Y656D01*
X813Y656D01*
X813Y656D01*
X813Y655D01*
X812Y655D01*
X812Y655D01*
X810D01*
Y637D01*
X812D01*
X813Y637D01*
X813Y637D01*
X813Y637D01*
X813Y637D01*
X813Y637D01*
X813Y636D01*
X813Y636D01*
Y636D01*
X813Y636D01*
X813Y636D01*
X813Y635D01*
X813Y635D01*
X813Y635D01*
X812Y635D01*
X812Y635D01*
X806D01*
X806Y635D01*
X805Y635D01*
X805Y635D01*
X805Y635D01*
X805Y636D01*
X805Y636D01*
X805Y636D01*
Y636D01*
X805Y636D01*
X805Y637D01*
X805Y637D01*
X805Y637D01*
X805Y637D01*
X806Y637D01*
X806Y637D01*
X808D01*
Y652D01*
X807Y652D01*
X807Y653D01*
X806Y654D01*
X806Y654D01*
X805Y655D01*
X805Y655D01*
X805Y655D01*
X805Y655D01*
X804Y655D01*
X804Y656D01*
X803Y656D01*
X803Y656D01*
X803Y656D01*
X802D01*
X802Y656D01*
X802Y656D01*
X801Y656D01*
X801Y655D01*
X801Y655D01*
X800Y655D01*
X800Y655D01*
X800Y655D01*
X800Y654D01*
X800Y654D01*
X799Y653D01*
X799Y653D01*
X799Y653D01*
X799Y652D01*
Y652D01*
Y652D01*
Y635D01*
X795D01*
X795Y635D01*
X794Y635D01*
X794Y635D01*
X794Y635D01*
X794Y636D01*
X794Y636D01*
X794Y636D01*
Y636D01*
X794Y636D01*
X794Y637D01*
X794Y637D01*
X794Y637D01*
X794Y637D01*
X795Y637D01*
X795Y637D01*
X797D01*
Y652D01*
X796Y652D01*
X796Y653D01*
X795Y654D01*
X795Y654D01*
X795Y655D01*
X794Y655D01*
X794Y655D01*
X794Y655D01*
X794Y655D01*
X793Y656D01*
X793Y656D01*
X792Y656D01*
X792Y656D01*
X792Y656D01*
X791D01*
X791Y656D01*
X791Y656D01*
X790Y656D01*
X790Y655D01*
X790Y655D01*
X789Y655D01*
X789Y655D01*
X789Y655D01*
X789Y654D01*
X789Y654D01*
X788Y654D01*
X788Y653D01*
X788Y653D01*
X788Y652D01*
Y652D01*
Y652D01*
Y635D01*
X784D01*
X784Y635D01*
X783Y635D01*
X783Y635D01*
X783Y635D01*
X783Y636D01*
X783Y636D01*
X783Y636D01*
Y636D01*
X783Y636D01*
X783Y637D01*
X783Y637D01*
X783Y637D01*
X783Y637D01*
X784Y637D01*
X784Y637D01*
X786D01*
Y652D01*
X786Y653D01*
X786Y654D01*
X786Y655D01*
X787Y655D01*
X787Y656D01*
X787Y656D01*
X788Y657D01*
X788Y657D01*
X788Y657D01*
X789Y658D01*
X790Y658D01*
X790Y658D01*
X791Y658D01*
X791Y658D01*
X792D01*
X792Y658D01*
X793Y658D01*
X793Y658D01*
X794Y658D01*
X794Y658D01*
X794Y657D01*
X795Y657D01*
X795Y657D01*
X795Y657D01*
X796Y656D01*
X796Y656D01*
X797Y656D01*
X797Y655D01*
X797Y655D01*
X797Y655D01*
X797Y655D01*
X798Y655D01*
X798Y656D01*
X799Y656D01*
X799Y657D01*
X799Y657D01*
X799Y657D01*
X800Y657D01*
X800Y657D01*
X800Y658D01*
X801Y658D01*
X801Y658D01*
X802Y658D01*
X802Y658D01*
X802Y658D01*
X803D01*
X803Y658D01*
D02*
G37*
G36*
X514D02*
X515Y658D01*
X516Y658D01*
X517Y658D01*
X518Y657D01*
X518Y657D01*
X519Y657D01*
X519Y657D01*
X519Y657D01*
X519Y657D01*
X519D01*
X520Y657D01*
X521Y657D01*
X521Y656D01*
X522Y656D01*
X522Y656D01*
X522Y656D01*
X522Y656D01*
X522Y656D01*
X522Y656D01*
X522Y655D01*
Y655D01*
X522Y655D01*
X522Y655D01*
X522Y655D01*
X522Y655D01*
X522Y654D01*
X522Y654D01*
X521Y654D01*
X521D01*
X521Y654D01*
X521Y654D01*
X520Y654D01*
X520Y654D01*
X520D01*
X519Y655D01*
X517Y655D01*
X516Y656D01*
X515Y656D01*
X514Y656D01*
X514Y656D01*
X513D01*
X512Y656D01*
X511Y656D01*
X510Y656D01*
X509Y655D01*
X509Y655D01*
X509Y655D01*
X508Y655D01*
X508Y655D01*
X508Y654D01*
X507Y654D01*
X507Y653D01*
X507Y653D01*
X507Y652D01*
X507Y652D01*
Y652D01*
Y651D01*
Y648D01*
X507Y648D01*
X508Y648D01*
X509Y648D01*
X509Y648D01*
X510Y649D01*
X510D01*
X510Y649D01*
X510D01*
X512Y649D01*
X512Y649D01*
X513Y649D01*
X515D01*
X516Y649D01*
X516Y649D01*
X517Y648D01*
X518Y648D01*
X519Y648D01*
X519Y648D01*
X520Y648D01*
X520Y647D01*
X521Y647D01*
X521Y647D01*
X522Y647D01*
X522Y647D01*
X522Y647D01*
X522Y646D01*
X522D01*
X523Y646D01*
X523Y646D01*
X523Y645D01*
X524Y645D01*
X524Y644D01*
X525Y643D01*
X525Y642D01*
X525Y641D01*
X525Y641D01*
Y641D01*
Y641D01*
Y641D01*
X525Y640D01*
X525Y639D01*
X524Y638D01*
X524Y637D01*
X523Y637D01*
X523Y636D01*
X523Y636D01*
X523Y636D01*
X522Y635D01*
X521Y635D01*
X520Y635D01*
X519Y634D01*
X518Y634D01*
X518Y634D01*
X517D01*
X517Y634D01*
X517D01*
X516Y634D01*
X515Y634D01*
X514Y635D01*
X513Y635D01*
X511Y635D01*
X510Y636D01*
X510Y636D01*
X509Y637D01*
X508Y637D01*
X508Y637D01*
X507Y638D01*
X507Y638D01*
X507Y638D01*
X507Y638D01*
X507Y638D01*
Y635D01*
X501D01*
X501Y635D01*
X501Y635D01*
X500Y635D01*
X500Y635D01*
X500Y636D01*
X500Y636D01*
X500Y636D01*
Y636D01*
X500Y636D01*
X500Y637D01*
X500Y637D01*
X500Y637D01*
X501Y637D01*
X501Y637D01*
X501Y637D01*
X504D01*
Y651D01*
X504Y652D01*
X505Y653D01*
X505Y654D01*
X506Y655D01*
X506Y655D01*
X506Y656D01*
X507Y656D01*
X507Y656D01*
X508Y657D01*
X509Y657D01*
X510Y658D01*
X511Y658D01*
X512Y658D01*
X512Y658D01*
X512D01*
X513Y658D01*
X513D01*
X514Y658D01*
D02*
G37*
G36*
X714Y742D02*
X715Y742D01*
X716Y742D01*
X717Y742D01*
X718Y742D01*
X718Y741D01*
X718Y741D01*
X718Y741D01*
X719Y740D01*
X719Y740D01*
X719Y739D01*
X720Y738D01*
X720Y738D01*
Y737D01*
Y737D01*
X720Y736D01*
X719Y736D01*
X719Y735D01*
X719Y734D01*
X718Y733D01*
X716Y733D01*
X715Y732D01*
X714Y732D01*
X714Y732D01*
X712D01*
X718Y703D01*
X719Y700D01*
X719Y698D01*
X720Y697D01*
X721Y695D01*
X722Y694D01*
X722Y693D01*
X723Y692D01*
X724Y691D01*
X725Y690D01*
X725Y690D01*
X726Y689D01*
X727Y689D01*
X727Y689D01*
X727Y689D01*
X728D01*
X727Y690D01*
X727Y691D01*
X727Y692D01*
X727Y693D01*
X727Y693D01*
Y693D01*
Y694D01*
X727Y695D01*
X727Y695D01*
X728Y697D01*
X728Y697D01*
X729Y698D01*
X731Y698D01*
X731Y698D01*
X732Y699D01*
X732D01*
X733Y698D01*
X734Y698D01*
X735Y698D01*
X735Y698D01*
X736Y697D01*
X736Y697D01*
X736Y697D01*
X736Y697D01*
X737Y696D01*
X737Y695D01*
X738Y693D01*
X738Y693D01*
X738Y692D01*
X738Y691D01*
Y691D01*
X740Y685D01*
X740Y684D01*
X740Y683D01*
Y683D01*
Y683D01*
X740Y682D01*
X739Y681D01*
X739Y681D01*
X738Y680D01*
X737Y680D01*
X737Y680D01*
X736Y680D01*
X736D01*
X735Y679D01*
X733Y679D01*
X732Y679D01*
X731Y678D01*
X730D01*
X729Y678D01*
X729D01*
X727Y678D01*
X726Y679D01*
X723Y679D01*
X721Y680D01*
X719Y682D01*
X717Y684D01*
X715Y686D01*
X714Y688D01*
X712Y690D01*
X711Y692D01*
X710Y694D01*
X709Y696D01*
X709Y698D01*
X708Y699D01*
X708Y700D01*
X708Y701D01*
Y701D01*
Y701D01*
X701Y732D01*
X687D01*
X696Y691D01*
X697D01*
X698Y690D01*
X699Y690D01*
X700Y690D01*
X701Y690D01*
X701Y689D01*
X702Y689D01*
X702Y689D01*
X702Y689D01*
X703Y688D01*
X703Y687D01*
X703Y687D01*
X703Y686D01*
X703Y686D01*
Y685D01*
Y685D01*
X703Y684D01*
X703Y683D01*
X703Y683D01*
X703Y682D01*
X702Y682D01*
X702Y681D01*
X702Y681D01*
X702Y681D01*
X701Y681D01*
X700Y680D01*
X699Y680D01*
X698Y680D01*
X697D01*
X696Y680D01*
X685D01*
X683Y680D01*
X682Y680D01*
X681Y681D01*
X681Y681D01*
X680Y681D01*
X680Y681D01*
X680D01*
X679Y682D01*
X679Y682D01*
X678Y683D01*
X678Y684D01*
X678Y684D01*
X678Y685D01*
Y685D01*
Y685D01*
X678Y686D01*
X678Y687D01*
X679Y688D01*
X679Y688D01*
X680Y689D01*
X681Y690D01*
X683Y690D01*
X684Y690D01*
X684Y691D01*
X685D01*
X676Y732D01*
X674Y732D01*
X673Y732D01*
X672Y733D01*
X671Y733D01*
X671Y733D01*
X670Y733D01*
X670Y733D01*
X670D01*
X669Y734D01*
X669Y735D01*
X668Y735D01*
X668Y736D01*
X668Y736D01*
X668Y737D01*
Y737D01*
Y737D01*
X668Y738D01*
X668Y739D01*
X669Y740D01*
X669Y740D01*
X669Y741D01*
X670Y741D01*
X670Y741D01*
X670D01*
X671Y742D01*
X672Y742D01*
X673Y742D01*
X674Y743D01*
X675D01*
X676Y743D01*
X713D01*
X714Y742D01*
D02*
G37*
G36*
X511D02*
X513Y742D01*
X515Y742D01*
X517Y741D01*
X519Y741D01*
X520Y740D01*
X522Y740D01*
X523Y739D01*
X524Y739D01*
X525Y738D01*
X525Y738D01*
X526Y738D01*
X526Y737D01*
X526Y737D01*
X526Y737D01*
X527Y736D01*
X528Y735D01*
X529Y734D01*
X530Y733D01*
X531Y730D01*
X531Y728D01*
X532Y726D01*
X532Y725D01*
X532Y725D01*
X532Y724D01*
Y724D01*
Y723D01*
Y723D01*
X532Y721D01*
X532Y720D01*
X531Y718D01*
X530Y717D01*
X530Y716D01*
X529Y714D01*
X528Y713D01*
X527Y713D01*
X525Y712D01*
X524Y711D01*
X523Y711D01*
X523Y710D01*
X522Y710D01*
X521Y710D01*
X521Y710D01*
X521D01*
X522Y708D01*
X524Y707D01*
X525Y706D01*
X526Y705D01*
X527Y704D01*
X527Y703D01*
X528Y702D01*
X528Y702D01*
X529Y700D01*
X530Y699D01*
X532Y697D01*
X533Y695D01*
X534Y693D01*
X535Y692D01*
X536Y691D01*
X536Y691D01*
X536Y691D01*
X536Y691D01*
X541D01*
X542Y690D01*
X542Y690D01*
X543Y690D01*
X544Y689D01*
X545Y688D01*
X546Y687D01*
X546Y686D01*
X546Y685D01*
Y685D01*
Y685D01*
X546Y684D01*
X545Y683D01*
X545Y682D01*
X545Y682D01*
Y682D01*
X544Y681D01*
X543Y680D01*
X542Y680D01*
X542Y680D01*
X542D01*
X541Y680D01*
X540D01*
X538Y680D01*
X535D01*
X533Y680D01*
X532Y680D01*
X532Y681D01*
X531Y681D01*
X531Y681D01*
X530Y681D01*
X530Y682D01*
X529Y683D01*
X528Y684D01*
X527Y685D01*
X526Y686D01*
X526Y687D01*
X526Y687D01*
X524Y690D01*
X522Y692D01*
X521Y694D01*
X519Y696D01*
X518Y698D01*
X517Y699D01*
X516Y700D01*
X516Y701D01*
X515Y702D01*
X514Y703D01*
X514Y704D01*
X514Y704D01*
X513Y704D01*
X513Y705D01*
X513Y705D01*
X512Y706D01*
X511Y706D01*
X510Y707D01*
X509Y707D01*
X508Y708D01*
X508Y708D01*
X504D01*
X508Y691D01*
X510D01*
X512Y690D01*
X513Y690D01*
X513Y690D01*
X514Y690D01*
X515Y689D01*
X515Y689D01*
X515Y689D01*
X515Y689D01*
X516Y688D01*
X516Y688D01*
X517Y687D01*
X517Y686D01*
X517Y686D01*
Y685D01*
Y685D01*
X517Y684D01*
X517Y683D01*
X516Y683D01*
X516Y682D01*
X516Y682D01*
X516Y681D01*
X515Y681D01*
X515Y681D01*
X514Y681D01*
X513Y680D01*
X511Y680D01*
X510D01*
X509Y680D01*
X497D01*
X496Y680D01*
X495Y680D01*
X494Y681D01*
X493Y681D01*
X492Y681D01*
X492Y681D01*
X492D01*
X492Y682D01*
X491Y682D01*
X491Y683D01*
X490Y684D01*
X490Y684D01*
X490Y685D01*
Y685D01*
Y685D01*
X490Y686D01*
X491Y687D01*
X491Y688D01*
X491Y688D01*
X492Y689D01*
X494Y690D01*
X495Y690D01*
X496Y690D01*
X497Y691D01*
X497D01*
X488Y732D01*
X487Y732D01*
X485Y732D01*
X484Y733D01*
X484Y733D01*
X483Y733D01*
X483Y733D01*
X482Y733D01*
X482D01*
X482Y734D01*
X481Y735D01*
X481Y735D01*
X481Y736D01*
X481Y736D01*
X480Y737D01*
Y737D01*
Y737D01*
X481Y738D01*
X481Y739D01*
X481Y740D01*
X481Y740D01*
X482Y741D01*
X482Y741D01*
X482Y741D01*
X482D01*
X483Y742D01*
X484Y742D01*
X486Y743D01*
X488D01*
X488Y743D01*
X509D01*
X511Y742D01*
D02*
G37*
G36*
X761Y744D02*
X764Y743D01*
X767Y743D01*
X769Y742D01*
X771Y741D01*
X772Y741D01*
X773Y740D01*
X773Y740D01*
X774Y739D01*
X774Y739D01*
X775Y739D01*
X775Y739D01*
X778Y737D01*
X781Y734D01*
X784Y731D01*
X786Y729D01*
X787Y728D01*
X788Y727D01*
X788Y726D01*
X789Y725D01*
X789Y724D01*
X790Y724D01*
X790Y723D01*
X790Y723D01*
X791Y721D01*
X792Y720D01*
X793Y716D01*
X794Y713D01*
X795Y710D01*
X795Y708D01*
X795Y707D01*
X795Y706D01*
Y705D01*
X795Y704D01*
Y704D01*
Y703D01*
Y703D01*
X795Y701D01*
X795Y699D01*
X795Y698D01*
X794Y696D01*
X794Y694D01*
X793Y693D01*
X793Y691D01*
X792Y690D01*
X791Y689D01*
X791Y688D01*
X790Y687D01*
X790Y687D01*
X789Y686D01*
X789Y686D01*
X789Y685D01*
X789Y685D01*
X787Y684D01*
X786Y683D01*
X785Y682D01*
X783Y681D01*
X782Y681D01*
X780Y680D01*
X778Y679D01*
X776Y679D01*
X775Y679D01*
X774Y679D01*
X773Y678D01*
X773Y678D01*
X772D01*
X769Y678D01*
X767Y679D01*
X765Y679D01*
X763Y680D01*
X761Y680D01*
X760Y681D01*
X759Y681D01*
X759Y681D01*
X759Y681D01*
X759D01*
X756Y683D01*
X754Y684D01*
X752Y686D01*
X750Y687D01*
X749Y688D01*
X748Y689D01*
X747Y690D01*
X747Y690D01*
X745Y692D01*
X743Y694D01*
X742Y696D01*
X740Y699D01*
X739Y700D01*
X739Y701D01*
X738Y702D01*
X738Y702D01*
X738Y703D01*
X738Y703D01*
Y703D01*
X737Y706D01*
X736Y709D01*
X735Y712D01*
X735Y714D01*
X735Y715D01*
Y717D01*
X734Y717D01*
X734Y718D01*
Y719D01*
Y719D01*
Y719D01*
Y720D01*
X734Y722D01*
X735Y723D01*
X735Y725D01*
X735Y727D01*
X736Y730D01*
X737Y731D01*
X738Y732D01*
X738Y734D01*
X739Y734D01*
X740Y735D01*
X740Y736D01*
X741Y737D01*
X741Y737D01*
X741Y737D01*
X741Y737D01*
X742Y739D01*
X744Y740D01*
X745Y741D01*
X747Y741D01*
X748Y742D01*
X749Y743D01*
X752Y743D01*
X753Y744D01*
X754Y744D01*
X755Y744D01*
X756Y744D01*
X757Y744D01*
X759D01*
X761Y744D01*
D02*
G37*
G36*
X606Y516D02*
X606Y516D01*
X607Y516D01*
X607Y516D01*
X607Y515D01*
X608Y515D01*
X608Y515D01*
X608Y515D01*
X608Y515D01*
X608Y514D01*
X608Y514D01*
X609Y514D01*
X609Y513D01*
X609Y513D01*
Y513D01*
Y513D01*
X609Y512D01*
X609Y512D01*
X608Y511D01*
X608Y511D01*
X608Y511D01*
X608Y510D01*
X608Y510D01*
X608Y510D01*
X607Y510D01*
X607Y510D01*
X606Y509D01*
X606Y509D01*
X606Y509D01*
X605Y509D01*
X604D01*
X604Y509D01*
X603Y509D01*
X603Y509D01*
X603Y510D01*
X602Y510D01*
X602Y510D01*
X602Y510D01*
X602Y510D01*
X601Y511D01*
X601Y511D01*
X601Y511D01*
X601Y512D01*
X601Y512D01*
X601Y512D01*
Y513D01*
Y513D01*
X601Y513D01*
X601Y514D01*
X601Y514D01*
X601Y514D01*
X601Y515D01*
X602Y515D01*
X602Y515D01*
X602Y515D01*
X602Y515D01*
X603Y516D01*
X603Y516D01*
X603Y516D01*
X604Y516D01*
X604Y516D01*
X605D01*
X606Y516D01*
D02*
G37*
G36*
X701D02*
X701Y516D01*
X702Y516D01*
X702Y516D01*
X702Y515D01*
X703Y515D01*
X703Y515D01*
X703Y515D01*
X703Y515D01*
X703Y514D01*
X704Y514D01*
X704Y514D01*
X704Y513D01*
X704Y513D01*
Y513D01*
Y513D01*
X704Y512D01*
X704Y512D01*
X704Y511D01*
X703Y511D01*
X703Y511D01*
X703Y510D01*
X703Y510D01*
X703Y510D01*
X702Y510D01*
X702Y510D01*
X702Y509D01*
X701Y509D01*
X701Y509D01*
X701Y509D01*
X699D01*
X699Y509D01*
X698Y509D01*
X698Y509D01*
X698Y510D01*
X697Y510D01*
X697Y510D01*
X697Y510D01*
X697Y510D01*
X697Y511D01*
X696Y511D01*
X696Y511D01*
X696Y512D01*
X696Y512D01*
X696Y512D01*
Y513D01*
Y513D01*
X696Y513D01*
X696Y514D01*
X696Y514D01*
X696Y514D01*
X697Y515D01*
X697Y515D01*
X697Y515D01*
X697Y515D01*
X697Y515D01*
X698Y516D01*
X698Y516D01*
X699Y516D01*
X699Y516D01*
X699Y516D01*
X700D01*
X701Y516D01*
D02*
G37*
G36*
X905Y719D02*
X905Y718D01*
Y718D01*
Y717D01*
X905Y717D01*
X905Y716D01*
X905Y716D01*
X904Y716D01*
X904Y715D01*
X903Y715D01*
X903Y715D01*
X902D01*
X901Y715D01*
X901Y715D01*
X900Y716D01*
X900Y716D01*
X899Y717D01*
X899Y717D01*
X898Y718D01*
X898Y718D01*
Y719D01*
X889Y744D01*
X903D01*
X905Y719D01*
D02*
G37*
G36*
X656Y743D02*
X657Y742D01*
X658Y742D01*
X659Y742D01*
X659Y742D01*
X660Y741D01*
X660Y741D01*
X660Y741D01*
X661Y740D01*
X662Y739D01*
X662Y738D01*
X663Y738D01*
X663Y737D01*
X663Y737D01*
Y736D01*
Y736D01*
Y735D01*
X663Y735D01*
X663Y734D01*
X662Y734D01*
X662Y733D01*
X662Y733D01*
X661Y733D01*
X660Y732D01*
X659Y732D01*
X658Y732D01*
X657Y732D01*
X655D01*
X664Y691D01*
X665D01*
X666Y690D01*
X667Y690D01*
X668Y690D01*
X668Y690D01*
X668Y689D01*
X669Y689D01*
X669Y689D01*
X670Y688D01*
X671Y687D01*
X671Y686D01*
X672Y686D01*
X672Y685D01*
X672Y684D01*
Y684D01*
Y684D01*
Y683D01*
X672Y683D01*
X671Y682D01*
X671Y681D01*
X671Y681D01*
X670Y681D01*
X670Y680D01*
X668Y680D01*
X667Y680D01*
X652D01*
X651Y680D01*
X650Y680D01*
X649Y681D01*
X648Y681D01*
X648Y681D01*
X648Y681D01*
X648D01*
X647Y682D01*
X646Y683D01*
X646Y684D01*
X645Y685D01*
X645Y686D01*
X645Y686D01*
Y686D01*
Y686D01*
Y687D01*
X645Y688D01*
X645Y689D01*
X646Y689D01*
X646Y689D01*
X646D01*
X647Y690D01*
X648Y690D01*
X649Y691D01*
X653D01*
X650Y706D01*
X628D01*
X631Y691D01*
X633D01*
X633Y690D01*
X634Y690D01*
X635Y690D01*
X636Y689D01*
X636Y689D01*
X636Y689D01*
X636Y689D01*
X638Y688D01*
X638Y687D01*
X639Y686D01*
X639Y686D01*
X639Y685D01*
X640Y684D01*
Y684D01*
Y684D01*
Y683D01*
X639Y683D01*
X639Y682D01*
X639Y681D01*
X638Y681D01*
X637Y680D01*
X636Y680D01*
X636Y680D01*
X620D01*
X619Y680D01*
X618Y680D01*
X617Y680D01*
X617Y681D01*
X616Y681D01*
X616Y681D01*
X616Y681D01*
X615D01*
X614Y682D01*
X614Y683D01*
X613Y684D01*
X613Y685D01*
X612Y686D01*
X612Y686D01*
Y686D01*
Y686D01*
X612Y687D01*
X612Y688D01*
X613Y689D01*
X614Y689D01*
X614Y690D01*
X614D01*
X614Y690D01*
X615Y690D01*
X616Y690D01*
X617Y690D01*
X618Y691D01*
X620D01*
X611Y732D01*
X610Y732D01*
X609Y732D01*
X608Y733D01*
X607Y733D01*
X607Y734D01*
X606Y734D01*
X606Y734D01*
X606Y734D01*
X605Y735D01*
X604Y736D01*
X604Y736D01*
X604Y737D01*
X603Y738D01*
X603Y738D01*
Y738D01*
Y738D01*
Y739D01*
X604Y740D01*
X604Y741D01*
X604Y741D01*
X605Y742D01*
X605D01*
X605Y742D01*
X606Y742D01*
X607Y743D01*
X608Y743D01*
X624D01*
X625Y743D01*
X625Y742D01*
X627Y742D01*
X627Y742D01*
X627Y741D01*
X628Y741D01*
X628Y741D01*
X629Y740D01*
X629Y739D01*
X630Y738D01*
X630Y738D01*
X631Y737D01*
X631Y737D01*
Y736D01*
Y736D01*
Y735D01*
X631Y735D01*
X630Y734D01*
X630Y734D01*
X630Y733D01*
X630Y733D01*
X629Y732D01*
X627Y732D01*
X627Y732D01*
X622D01*
X625Y717D01*
X648D01*
X645Y732D01*
X643D01*
X642Y732D01*
X641Y732D01*
X640Y733D01*
X639Y733D01*
X639Y733D01*
X639Y733D01*
X639D01*
X638Y734D01*
X637Y735D01*
X636Y736D01*
X636Y737D01*
X636Y738D01*
X636Y738D01*
Y738D01*
Y738D01*
Y739D01*
X636Y740D01*
X636Y741D01*
X637Y741D01*
X637Y742D01*
X637D01*
X638Y742D01*
X639Y743D01*
X640Y743D01*
X655D01*
X656Y743D01*
D02*
G37*
G36*
X715Y834D02*
X715Y834D01*
X716Y833D01*
X716Y833D01*
X717Y831D01*
X718Y830D01*
X718Y830D01*
Y829D01*
X718Y829D01*
X717D01*
X717Y830D01*
X716Y830D01*
X715Y832D01*
X714Y833D01*
X714Y834D01*
X714Y834D01*
X714Y835D01*
X714D01*
X715Y834D01*
D02*
G37*
G36*
X745Y810D02*
Y810D01*
Y809D01*
Y809D01*
X745Y807D01*
X745Y807D01*
Y806D01*
Y806D01*
X744Y805D01*
X743D01*
X742Y806D01*
X742Y807D01*
Y808D01*
Y808D01*
X742Y810D01*
X743Y810D01*
X744Y811D01*
X744D01*
X745Y810D01*
D02*
G37*
G36*
X883Y719D02*
X883Y718D01*
Y718D01*
Y717D01*
X883Y717D01*
X883Y716D01*
X882Y716D01*
X882Y716D01*
X882Y715D01*
X881Y715D01*
X881Y715D01*
X880D01*
X879Y715D01*
X879Y715D01*
X878Y716D01*
X878Y716D01*
X877Y717D01*
X877Y717D01*
X876Y718D01*
X876Y718D01*
Y719D01*
X867Y744D01*
X881D01*
X883Y719D01*
D02*
G37*
G36*
X765Y533D02*
X766Y533D01*
X766Y533D01*
X767Y533D01*
X769Y532D01*
X769Y532D01*
X770Y531D01*
X770Y531D01*
X771Y531D01*
X771Y531D01*
X772Y530D01*
X772Y530D01*
X772Y530D01*
X772Y530D01*
X772Y530D01*
X773Y529D01*
X773Y528D01*
X774Y528D01*
X774Y527D01*
X775Y526D01*
X775Y526D01*
X775Y524D01*
X776Y523D01*
X776Y523D01*
X776Y522D01*
X776Y522D01*
Y522D01*
Y522D01*
Y522D01*
X776Y521D01*
X776Y520D01*
X775Y519D01*
X775Y518D01*
X775Y517D01*
X774Y516D01*
X774Y515D01*
X774Y515D01*
X773Y514D01*
X773Y514D01*
X773Y513D01*
X772Y513D01*
X772Y513D01*
X772Y513D01*
X772Y513D01*
X771Y512D01*
X771Y512D01*
X770Y511D01*
X769Y511D01*
X768Y510D01*
X768Y510D01*
X766Y510D01*
X765Y509D01*
X765Y509D01*
X764Y509D01*
X764Y509D01*
X763Y509D01*
X763D01*
X762Y509D01*
X760Y509D01*
X759Y510D01*
X758Y510D01*
X758Y510D01*
X757Y510D01*
X757Y510D01*
X757Y510D01*
X756Y510D01*
X756D01*
X755Y511D01*
X754Y511D01*
X754Y512D01*
X753Y512D01*
X753Y512D01*
X752Y513D01*
X752Y513D01*
X752Y513D01*
X752Y513D01*
X752Y513D01*
X752Y514D01*
Y514D01*
X752Y514D01*
X752Y514D01*
X752Y514D01*
X752Y514D01*
X752Y515D01*
X752Y515D01*
X753Y515D01*
X753D01*
X753Y515D01*
X753Y515D01*
X753Y514D01*
X753Y514D01*
X754Y514D01*
X755Y513D01*
X756Y513D01*
X756Y513D01*
X757Y513D01*
X757Y512D01*
X758Y512D01*
X758Y512D01*
X758D01*
X759Y512D01*
X760Y512D01*
X761Y512D01*
X761Y511D01*
X762Y511D01*
X762Y511D01*
X763D01*
X764Y511D01*
X764Y511D01*
X766Y512D01*
X767Y512D01*
X768Y513D01*
X769Y513D01*
X769Y513D01*
X770Y513D01*
X770Y514D01*
X770Y514D01*
X770Y514D01*
X770D01*
X771Y515D01*
X772Y516D01*
X773Y517D01*
X773Y518D01*
X773Y519D01*
X773Y520D01*
X773Y520D01*
X774Y520D01*
Y521D01*
X774Y521D01*
Y521D01*
X752D01*
X752Y522D01*
X752Y523D01*
X752Y524D01*
X752Y524D01*
X752Y525D01*
X753Y526D01*
X753Y527D01*
X753Y527D01*
X754Y528D01*
X754Y528D01*
X754Y529D01*
X754Y529D01*
X755Y529D01*
X755Y529D01*
X755Y530D01*
X755Y530D01*
X756Y530D01*
X756Y531D01*
X757Y531D01*
X758Y532D01*
X759Y532D01*
X759Y532D01*
X761Y533D01*
X761Y533D01*
X762Y533D01*
X762Y533D01*
X763Y533D01*
X763Y533D01*
X764D01*
X765Y533D01*
D02*
G37*
G36*
X574Y543D02*
X574Y543D01*
X576Y543D01*
X577Y542D01*
X578Y542D01*
X579Y541D01*
X579Y540D01*
X580Y540D01*
X580Y540D01*
X580Y540D01*
X580Y539D01*
X581Y538D01*
X581Y537D01*
X582Y536D01*
X582Y535D01*
X583Y533D01*
X583Y532D01*
X583Y531D01*
X583Y531D01*
X583Y530D01*
X583Y530D01*
Y529D01*
Y529D01*
Y529D01*
Y523D01*
Y522D01*
X583Y521D01*
X583Y521D01*
X583Y520D01*
X583Y519D01*
X582Y519D01*
X582Y518D01*
Y518D01*
X582Y517D01*
X582Y516D01*
X582Y516D01*
X581Y515D01*
X581Y515D01*
X581Y515D01*
X581Y515D01*
X581Y514D01*
X581Y514D01*
X580Y513D01*
X580Y513D01*
X580Y512D01*
X580Y512D01*
X580Y512D01*
X579Y512D01*
X579Y512D01*
X579Y511D01*
X578Y511D01*
X578Y511D01*
X577Y510D01*
X577Y510D01*
X577Y510D01*
X577Y510D01*
X576Y510D01*
X575Y510D01*
X575Y509D01*
X574Y509D01*
X574Y509D01*
X573Y509D01*
X573D01*
X572Y509D01*
X572Y509D01*
X570Y510D01*
X569Y510D01*
X568Y511D01*
X567Y511D01*
X567Y512D01*
X567Y512D01*
X566Y512D01*
Y512D01*
X566Y513D01*
X565Y514D01*
X565Y515D01*
X564Y516D01*
X564Y517D01*
X564Y518D01*
X563Y519D01*
X563Y520D01*
X563Y521D01*
X563Y522D01*
X563Y522D01*
X563Y523D01*
Y523D01*
Y523D01*
Y523D01*
Y529D01*
Y530D01*
X563Y531D01*
X563Y532D01*
X563Y533D01*
X563Y533D01*
X564Y534D01*
X564Y534D01*
Y534D01*
X564Y535D01*
X564Y536D01*
X564Y536D01*
X565Y537D01*
X565Y537D01*
X565Y537D01*
X565Y537D01*
X565Y538D01*
X566Y539D01*
X566Y539D01*
X566Y540D01*
X566Y540D01*
X567Y540D01*
X567Y540D01*
X567Y540D01*
X567Y541D01*
X568Y541D01*
X568Y542D01*
X569Y542D01*
X569Y542D01*
X569Y542D01*
X569Y542D01*
X570Y542D01*
X570Y543D01*
X571Y543D01*
X571Y543D01*
X572Y543D01*
X572Y543D01*
X573Y543D01*
X573D01*
X574Y543D01*
D02*
G37*
G36*
X725Y533D02*
X725Y533D01*
X726Y533D01*
X727Y532D01*
X727Y532D01*
X728Y532D01*
X728Y532D01*
X728Y532D01*
X728Y532D01*
X729Y531D01*
X730Y531D01*
X731Y530D01*
X732Y529D01*
X733Y528D01*
X733Y528D01*
X733Y527D01*
X734Y527D01*
X734Y527D01*
X734Y527D01*
X734Y527D01*
Y532D01*
X740D01*
X741Y532D01*
X741Y532D01*
X741Y532D01*
X741Y532D01*
X742Y532D01*
X742Y532D01*
X742Y531D01*
Y531D01*
X742Y531D01*
X742Y531D01*
X742Y531D01*
X741Y531D01*
X741Y530D01*
X741Y530D01*
X740Y530D01*
X736D01*
Y512D01*
X742D01*
X742Y512D01*
X742Y512D01*
X743Y512D01*
X743Y512D01*
X743Y512D01*
X743Y511D01*
X743Y511D01*
Y511D01*
X743Y511D01*
X743Y511D01*
X743Y510D01*
X743Y510D01*
X742Y510D01*
X742Y510D01*
X742Y510D01*
X725D01*
X724Y510D01*
X724Y510D01*
X724Y510D01*
X723Y510D01*
X723Y511D01*
X723Y511D01*
X723Y511D01*
Y511D01*
X723Y511D01*
X723Y512D01*
X723Y512D01*
X723Y512D01*
X724Y512D01*
X724Y512D01*
X724Y512D01*
X734D01*
Y524D01*
X733Y525D01*
X732Y526D01*
X732Y526D01*
X731Y527D01*
X730Y527D01*
X730Y528D01*
X729Y528D01*
X729Y528D01*
X728Y529D01*
X728Y529D01*
X727Y530D01*
X727Y530D01*
X727Y530D01*
X726Y530D01*
X725Y530D01*
X725Y531D01*
X724Y531D01*
X724Y531D01*
X724D01*
X723Y531D01*
X723Y531D01*
X723Y530D01*
X723Y530D01*
X722Y530D01*
X721Y530D01*
X721Y529D01*
X721Y529D01*
X721Y529D01*
X721Y529D01*
X720Y529D01*
X720Y529D01*
X720D01*
X720Y528D01*
X720D01*
X720Y529D01*
X719Y529D01*
X719Y529D01*
X719Y529D01*
X719Y529D01*
X719Y529D01*
X719Y530D01*
Y530D01*
X719Y530D01*
X719Y530D01*
X719Y531D01*
X720Y531D01*
X720Y531D01*
X720Y531D01*
X720Y532D01*
X720Y532D01*
X721Y532D01*
X722Y532D01*
X722Y533D01*
X723Y533D01*
X723Y533D01*
X724Y533D01*
X724D01*
X725Y533D01*
D02*
G37*
G36*
X688Y859D02*
X689Y859D01*
X689Y858D01*
Y858D01*
X689Y857D01*
X688D01*
X688Y857D01*
X688D01*
X687Y858D01*
X686Y858D01*
Y859D01*
X687Y859D01*
X687Y859D01*
X688D01*
X688Y859D01*
D02*
G37*
G36*
X487Y665D02*
X487Y665D01*
X487Y665D01*
X487Y665D01*
X488Y665D01*
X488Y664D01*
X488Y664D01*
Y664D01*
Y664D01*
Y657D01*
X492D01*
X492Y657D01*
X493Y657D01*
X493Y657D01*
X493Y657D01*
X493Y657D01*
X493Y657D01*
X493Y656D01*
Y656D01*
X493Y656D01*
X493Y656D01*
X493Y656D01*
X493Y656D01*
X492Y655D01*
X492Y655D01*
X492Y655D01*
X488D01*
Y641D01*
X488Y640D01*
X487Y639D01*
X487Y638D01*
X487Y637D01*
X486Y637D01*
X486Y636D01*
X486Y636D01*
X485Y636D01*
X485Y635D01*
X484Y635D01*
X483Y635D01*
X482Y634D01*
X481Y634D01*
X480Y634D01*
X480Y634D01*
X479D01*
X478Y634D01*
X477Y634D01*
X476Y634D01*
X475Y635D01*
X475Y635D01*
X474Y635D01*
X474Y635D01*
X473D01*
X473Y635D01*
X473D01*
X472Y635D01*
X471Y636D01*
X471Y636D01*
X470Y636D01*
X470Y637D01*
X469Y637D01*
X469Y637D01*
X469Y637D01*
X469Y637D01*
X469Y637D01*
X469Y638D01*
Y638D01*
X469Y638D01*
X469Y638D01*
X469Y638D01*
X469Y638D01*
X470Y639D01*
X470Y639D01*
X470Y639D01*
X470D01*
X470Y639D01*
X471Y639D01*
X471Y639D01*
X471Y638D01*
X471Y638D01*
X472Y638D01*
X473Y638D01*
X473Y637D01*
X474Y637D01*
X474Y637D01*
X475Y637D01*
X475Y637D01*
X475D01*
X476Y637D01*
X477Y637D01*
X477Y637D01*
X478Y636D01*
X479D01*
X479Y636D01*
X480D01*
X481Y636D01*
X482Y637D01*
X482Y637D01*
X483Y637D01*
X483Y637D01*
X484Y637D01*
X484Y638D01*
X484Y638D01*
X485Y638D01*
X485Y639D01*
X485Y639D01*
X485Y640D01*
X485Y640D01*
X486Y640D01*
Y641D01*
Y641D01*
Y655D01*
X474D01*
X473Y655D01*
X473Y655D01*
X473Y655D01*
X473Y656D01*
X472Y656D01*
X472Y656D01*
X472Y656D01*
Y656D01*
X472Y657D01*
X472Y657D01*
X473Y657D01*
X473Y657D01*
X473Y657D01*
X473Y657D01*
X474Y657D01*
X486D01*
Y664D01*
X486Y664D01*
X486Y665D01*
X486Y665D01*
X486Y665D01*
X486Y665D01*
X486Y665D01*
X487Y665D01*
X487D01*
X487Y665D01*
D02*
G37*
G36*
X638Y543D02*
X639Y543D01*
X640Y543D01*
X640Y543D01*
X641Y542D01*
X641Y542D01*
X642Y542D01*
X642Y542D01*
X643Y541D01*
X643Y541D01*
X644Y540D01*
X645Y540D01*
X645Y539D01*
X645Y539D01*
X645Y539D01*
X645Y539D01*
X646Y538D01*
X646Y537D01*
X646Y537D01*
X647Y536D01*
X647Y536D01*
X647Y536D01*
Y535D01*
Y535D01*
X647Y535D01*
X647Y535D01*
X647Y535D01*
X647Y535D01*
X646Y534D01*
X646Y534D01*
X646Y534D01*
X646D01*
X646Y534D01*
X645Y534D01*
X645Y534D01*
X645Y535D01*
X645Y535D01*
X645Y535D01*
X645Y535D01*
Y535D01*
X644Y536D01*
X644Y537D01*
X644Y538D01*
X643Y538D01*
X643Y539D01*
X642Y539D01*
X642Y539D01*
X642Y539D01*
X641Y540D01*
X640Y540D01*
X639Y541D01*
X639Y541D01*
X638Y541D01*
X637Y541D01*
X637D01*
X636Y541D01*
X635Y541D01*
X634Y540D01*
X633Y540D01*
X632Y540D01*
X632Y539D01*
X632Y539D01*
X631Y539D01*
X631Y538D01*
X630Y537D01*
X630Y536D01*
X629Y536D01*
X629Y535D01*
X629Y534D01*
X629Y534D01*
Y534D01*
Y534D01*
X629Y533D01*
X629Y532D01*
X629Y532D01*
X629Y532D01*
X630Y532D01*
Y532D01*
X630Y531D01*
X630Y531D01*
X630Y530D01*
X631Y530D01*
X631Y530D01*
X631Y530D01*
X631Y529D01*
X632Y529D01*
X632Y528D01*
X633Y528D01*
X633Y527D01*
X634Y526D01*
X635Y526D01*
X635Y525D01*
X635Y525D01*
X635Y525D01*
X637Y523D01*
X640Y521D01*
X642Y519D01*
X643Y518D01*
X644Y517D01*
X645Y516D01*
X645Y515D01*
X646Y515D01*
X647Y514D01*
X647Y514D01*
X648Y513D01*
X648Y513D01*
X648Y513D01*
Y510D01*
X627D01*
Y513D01*
X627Y513D01*
X627Y514D01*
X627Y514D01*
X627Y514D01*
X627Y514D01*
X628Y514D01*
X628Y514D01*
X628D01*
X628Y514D01*
X628Y514D01*
X629Y514D01*
X629Y514D01*
X629Y514D01*
X629Y513D01*
X629Y513D01*
Y513D01*
Y513D01*
Y512D01*
X646D01*
Y512D01*
X645Y513D01*
X644Y514D01*
X642Y516D01*
X640Y518D01*
X638Y520D01*
X637Y521D01*
X636Y521D01*
X635Y522D01*
X635Y523D01*
X634Y523D01*
X634Y524D01*
X633Y524D01*
X633Y524D01*
X632Y525D01*
X631Y526D01*
X631Y527D01*
X630Y527D01*
X630Y528D01*
X629Y528D01*
X629Y528D01*
X629Y528D01*
X629Y529D01*
X628Y530D01*
X628Y530D01*
X628Y530D01*
X628Y531D01*
X628Y531D01*
X627Y531D01*
Y531D01*
X627Y532D01*
X627Y533D01*
X627Y533D01*
X627Y533D01*
Y534D01*
Y534D01*
Y534D01*
X627Y535D01*
X627Y535D01*
X627Y536D01*
X628Y537D01*
X628Y538D01*
X629Y539D01*
X629Y540D01*
X630Y540D01*
X630Y540D01*
X630Y540D01*
X630Y540D01*
X630Y541D01*
X631Y541D01*
X632Y542D01*
X632Y542D01*
X633Y542D01*
X635Y543D01*
X635Y543D01*
X636Y543D01*
X636D01*
X636Y543D01*
X637D01*
X638Y543D01*
D02*
G37*
G36*
X869Y667D02*
X870Y667D01*
X870Y667D01*
X870Y667D01*
X870Y667D01*
X870Y667D01*
X870Y666D01*
Y666D01*
X870Y666D01*
X870Y666D01*
X870Y666D01*
X870Y666D01*
X870Y665D01*
X869Y665D01*
X869Y665D01*
X863D01*
Y637D01*
X871D01*
X872Y637D01*
X872Y637D01*
X872Y637D01*
X872Y637D01*
X872Y637D01*
X873Y636D01*
X873Y636D01*
Y636D01*
X873Y636D01*
X872Y636D01*
X872Y635D01*
X872Y635D01*
X872Y635D01*
X872Y635D01*
X871Y635D01*
X852D01*
X852Y635D01*
X851Y635D01*
X851Y635D01*
X851Y635D01*
X851Y636D01*
X851Y636D01*
X851Y636D01*
Y636D01*
X851Y636D01*
X851Y637D01*
X851Y637D01*
X851Y637D01*
X851Y637D01*
X852Y637D01*
X852Y637D01*
X860D01*
Y667D01*
X869D01*
X869Y667D01*
D02*
G37*
G36*
X609Y658D02*
X610Y658D01*
X611Y658D01*
X612Y658D01*
X613Y657D01*
X614Y657D01*
X615Y656D01*
X615Y656D01*
X616Y656D01*
X616Y656D01*
X616Y655D01*
X617Y655D01*
X617Y655D01*
X617Y655D01*
X617Y655D01*
X618Y654D01*
X618Y653D01*
X619Y653D01*
X619Y652D01*
X619Y651D01*
X620Y651D01*
X620Y649D01*
X620Y648D01*
X620Y648D01*
X620Y647D01*
X620Y647D01*
Y647D01*
Y647D01*
Y647D01*
X620Y646D01*
X620Y645D01*
X620Y644D01*
X620Y643D01*
X619Y642D01*
X619Y641D01*
X619Y640D01*
X618Y640D01*
X618Y639D01*
X618Y639D01*
X617Y638D01*
X617Y638D01*
X617Y638D01*
X617Y638D01*
X617Y638D01*
X616Y637D01*
X615Y637D01*
X615Y636D01*
X614Y636D01*
X613Y635D01*
X612Y635D01*
X611Y635D01*
X610Y634D01*
X609Y634D01*
X609Y634D01*
X608Y634D01*
X608Y634D01*
X607D01*
X606Y634D01*
X605Y634D01*
X604Y635D01*
X603Y635D01*
X602Y635D01*
X602Y635D01*
X601Y635D01*
X601Y635D01*
X601Y635D01*
X601D01*
X600Y636D01*
X599Y636D01*
X598Y637D01*
X598Y637D01*
X597Y637D01*
X597Y638D01*
X597Y638D01*
X597Y638D01*
X596Y638D01*
X596Y638D01*
X596Y639D01*
Y639D01*
X596Y639D01*
X596Y639D01*
X596Y639D01*
X597Y639D01*
X597Y640D01*
X597Y640D01*
X597Y640D01*
X597D01*
X598Y640D01*
X598Y640D01*
X598Y639D01*
X598Y639D01*
X599Y639D01*
X599Y638D01*
X600Y638D01*
X601Y638D01*
X602Y638D01*
X602Y637D01*
X602Y637D01*
X602Y637D01*
X602D01*
X603Y637D01*
X604Y637D01*
X605Y637D01*
X606Y636D01*
X607Y636D01*
X607Y636D01*
X607D01*
X608Y636D01*
X609Y636D01*
X610Y637D01*
X612Y637D01*
X613Y638D01*
X614Y638D01*
X614Y638D01*
X614Y638D01*
X615Y639D01*
X615Y639D01*
X615Y639D01*
X615D01*
X616Y640D01*
X617Y641D01*
X617Y642D01*
X618Y643D01*
X618Y644D01*
X618Y645D01*
X618Y645D01*
X618Y645D01*
Y646D01*
X618Y646D01*
Y646D01*
X596D01*
X596Y647D01*
X596Y648D01*
X596Y649D01*
X597Y649D01*
X597Y650D01*
X597Y651D01*
X598Y652D01*
X598Y652D01*
X598Y653D01*
X599Y653D01*
X599Y654D01*
X599Y654D01*
X599Y654D01*
X599Y654D01*
X600Y655D01*
X600Y655D01*
X600Y655D01*
X601Y656D01*
X602Y656D01*
X602Y657D01*
X603Y657D01*
X604Y657D01*
X605Y658D01*
X606Y658D01*
X606Y658D01*
X607Y658D01*
X607Y658D01*
X608Y658D01*
X608D01*
X609Y658D01*
D02*
G37*
G36*
X557Y657D02*
X557Y657D01*
X558Y657D01*
X558Y657D01*
X558Y657D01*
X558Y657D01*
X558Y656D01*
Y656D01*
X558Y656D01*
X558Y656D01*
X558Y656D01*
X558Y656D01*
X557Y655D01*
X557Y655D01*
X557Y655D01*
X554D01*
Y641D01*
X553Y640D01*
X553Y639D01*
X553Y638D01*
X553Y637D01*
X552Y637D01*
X552Y636D01*
X552Y636D01*
X552Y636D01*
X551Y635D01*
X550Y635D01*
X549Y635D01*
X548Y634D01*
X548Y634D01*
X547Y634D01*
X547D01*
X546Y634D01*
X545Y634D01*
X544Y635D01*
X543Y635D01*
X541Y635D01*
X541Y636D01*
X540Y636D01*
X539Y637D01*
X539Y637D01*
X538Y637D01*
X538Y638D01*
X538Y638D01*
X537Y638D01*
X537Y638D01*
X537Y638D01*
Y635D01*
X533D01*
X533Y635D01*
X532Y635D01*
X532Y635D01*
X532Y635D01*
X532Y636D01*
X532Y636D01*
X532Y636D01*
Y636D01*
X532Y636D01*
X532Y637D01*
X532Y637D01*
X532Y637D01*
X532Y637D01*
X533Y637D01*
X533Y637D01*
X535D01*
Y657D01*
X541D01*
X542Y657D01*
X542Y657D01*
X542Y657D01*
X542Y657D01*
X542Y657D01*
X542Y657D01*
X543Y656D01*
Y656D01*
X542Y656D01*
X542Y656D01*
X542Y656D01*
X542Y656D01*
X542Y655D01*
X542Y655D01*
X541Y655D01*
X537D01*
Y641D01*
X538Y640D01*
X539Y640D01*
X540Y639D01*
X541Y638D01*
X541Y638D01*
X542Y638D01*
X543Y637D01*
X544Y637D01*
X544Y637D01*
X545Y637D01*
X545Y637D01*
X546Y636D01*
X546D01*
X547Y636D01*
X547D01*
X548Y636D01*
X548Y637D01*
X549Y637D01*
X549Y637D01*
X550Y637D01*
X550Y637D01*
X550Y638D01*
X550Y638D01*
X551Y638D01*
X551Y639D01*
X551Y639D01*
X551Y640D01*
X551Y640D01*
X551Y641D01*
Y641D01*
Y641D01*
Y657D01*
X557D01*
X557Y657D01*
D02*
G37*
G36*
X670Y878D02*
X672Y877D01*
X672Y876D01*
X673Y875D01*
Y875D01*
Y875D01*
X672D01*
X671Y875D01*
X670Y875D01*
X670Y876D01*
X670Y876D01*
X669Y877D01*
Y877D01*
Y878D01*
Y878D01*
X670D01*
X670Y878D01*
D02*
G37*
G36*
X894Y658D02*
X895Y658D01*
X896Y658D01*
X897Y658D01*
X898Y657D01*
X899Y657D01*
X900Y656D01*
X900Y656D01*
X901Y656D01*
X901Y655D01*
X901Y655D01*
X902Y655D01*
X902Y655D01*
X902Y655D01*
X902Y655D01*
X903Y654D01*
X903Y653D01*
X904Y652D01*
X904Y652D01*
X904Y651D01*
X905Y650D01*
X905Y649D01*
X905Y648D01*
X905Y648D01*
X905Y647D01*
X905Y647D01*
X905Y647D01*
Y646D01*
Y646D01*
Y646D01*
X905Y645D01*
X905Y644D01*
X905Y644D01*
X905Y643D01*
X904Y641D01*
X904Y640D01*
X903Y640D01*
X903Y639D01*
X903Y639D01*
X902Y638D01*
X902Y638D01*
X902Y638D01*
X902Y638D01*
X902Y638D01*
X901Y637D01*
X901Y637D01*
X900Y636D01*
X899Y636D01*
X898Y635D01*
X898Y635D01*
X896Y635D01*
X896Y634D01*
X895Y634D01*
X895Y634D01*
X894Y634D01*
X894Y634D01*
X893D01*
X892Y634D01*
X892Y634D01*
X891Y635D01*
X890Y635D01*
X888Y635D01*
X887Y636D01*
X887Y636D01*
X886Y637D01*
X886Y637D01*
X885Y637D01*
X885Y637D01*
X885Y638D01*
X885Y638D01*
X885Y638D01*
X884Y638D01*
X884Y639D01*
X883Y640D01*
X883Y640D01*
X882Y641D01*
X882Y642D01*
X882Y643D01*
X882Y644D01*
X881Y644D01*
X881Y645D01*
X881Y645D01*
X881Y646D01*
Y646D01*
Y646D01*
Y646D01*
X881Y647D01*
X881Y648D01*
X882Y649D01*
X882Y650D01*
X882Y651D01*
X883Y652D01*
X883Y653D01*
X884Y653D01*
X884Y654D01*
X884Y654D01*
X884Y654D01*
X885Y654D01*
X885Y655D01*
X885Y655D01*
X885Y655D01*
X886Y656D01*
X887Y656D01*
X888Y657D01*
X888Y657D01*
X889Y657D01*
X890Y658D01*
X891Y658D01*
X892Y658D01*
X892Y658D01*
X892Y658D01*
X893Y658D01*
X893D01*
X894Y658D01*
D02*
G37*
G36*
X450D02*
X451Y658D01*
X452Y658D01*
X453Y658D01*
X454Y657D01*
X455Y657D01*
X456Y656D01*
X456Y656D01*
X457Y656D01*
X457Y655D01*
X457Y655D01*
X458Y655D01*
X458Y655D01*
X458Y655D01*
X458Y655D01*
X459Y654D01*
X459Y653D01*
X460Y652D01*
X460Y652D01*
X460Y651D01*
X461Y650D01*
X461Y649D01*
X461Y648D01*
X461Y648D01*
X461Y647D01*
X461Y647D01*
X462Y647D01*
Y646D01*
Y646D01*
Y646D01*
X461Y645D01*
X461Y644D01*
X461Y644D01*
X461Y643D01*
X460Y641D01*
X460Y640D01*
X459Y640D01*
X459Y639D01*
X459Y639D01*
X459Y638D01*
X458Y638D01*
X458Y638D01*
X458Y638D01*
X458Y638D01*
X457Y637D01*
X457Y637D01*
X456Y636D01*
X455Y636D01*
X454Y635D01*
X454Y635D01*
X452Y635D01*
X452Y634D01*
X451Y634D01*
X451Y634D01*
X450Y634D01*
X450Y634D01*
X449D01*
X448Y634D01*
X448Y634D01*
X447Y635D01*
X446Y635D01*
X445Y635D01*
X443Y636D01*
X443Y636D01*
X442Y637D01*
X442Y637D01*
X442Y637D01*
X441Y637D01*
X441Y638D01*
X441Y638D01*
X441Y638D01*
X440Y638D01*
X440Y639D01*
X439Y640D01*
X439Y640D01*
X438Y641D01*
X438Y642D01*
X438Y643D01*
X438Y644D01*
X437Y644D01*
X437Y645D01*
X437Y645D01*
X437Y646D01*
Y646D01*
Y646D01*
Y646D01*
X437Y647D01*
X437Y648D01*
X438Y649D01*
X438Y650D01*
X438Y651D01*
X439Y652D01*
X439Y653D01*
X440Y653D01*
X440Y654D01*
X440Y654D01*
X441Y654D01*
X441Y654D01*
X441Y655D01*
X441Y655D01*
X442Y655D01*
X442Y656D01*
X443Y656D01*
X444Y657D01*
X444Y657D01*
X445Y657D01*
X446Y658D01*
X447Y658D01*
X448Y658D01*
X448Y658D01*
X449Y658D01*
X449Y658D01*
X449D01*
X450Y658D01*
D02*
G37*
G36*
X933Y598D02*
X930D01*
Y603D01*
X933D01*
Y598D01*
D02*
G37*
G36*
X713Y665D02*
X713Y665D01*
X713Y665D01*
X713Y665D01*
X714Y665D01*
X714Y664D01*
X714Y664D01*
Y664D01*
X714Y664D01*
X713Y664D01*
X713Y663D01*
X713Y663D01*
X713Y663D01*
X713Y663D01*
X712Y663D01*
X706D01*
X715Y637D01*
X717D01*
X717Y637D01*
X718Y637D01*
X718Y637D01*
X718Y637D01*
X718Y637D01*
X718Y636D01*
X718Y636D01*
Y636D01*
X718Y636D01*
X718Y636D01*
X718Y635D01*
X718Y635D01*
X717Y635D01*
X717Y635D01*
X717Y635D01*
X709D01*
X709Y635D01*
X708Y635D01*
X708Y635D01*
X708Y635D01*
X708Y636D01*
X708Y636D01*
X708Y636D01*
Y636D01*
X708Y636D01*
X708Y637D01*
X708Y637D01*
X708Y637D01*
X708Y637D01*
X709Y637D01*
X709Y637D01*
X713D01*
X710Y645D01*
X696D01*
X693Y637D01*
X697D01*
X698Y637D01*
X698Y637D01*
X698Y637D01*
X698Y637D01*
X698Y637D01*
X698Y636D01*
X698Y636D01*
Y636D01*
X698Y636D01*
X698Y636D01*
X698Y635D01*
X698Y635D01*
X698Y635D01*
X697Y635D01*
X697Y635D01*
X689D01*
X689Y635D01*
X689Y635D01*
X688Y635D01*
X688Y635D01*
X688Y636D01*
X688Y636D01*
X688Y636D01*
Y636D01*
X688Y636D01*
X688Y637D01*
X688Y637D01*
X688Y637D01*
X689Y637D01*
X689Y637D01*
X689Y637D01*
X691D01*
X701Y665D01*
X712D01*
X713Y665D01*
D02*
G37*
G36*
X576Y658D02*
X577Y658D01*
X577Y658D01*
X578Y658D01*
X578Y658D01*
X579Y657D01*
X579Y657D01*
X579Y657D01*
X580Y657D01*
X581Y656D01*
X581Y656D01*
X582Y655D01*
X582Y655D01*
X583Y655D01*
X583Y654D01*
X583Y654D01*
Y657D01*
X587D01*
X588Y657D01*
X588Y657D01*
X588Y657D01*
X588Y657D01*
X589Y657D01*
X589Y657D01*
X589Y656D01*
Y656D01*
X589Y656D01*
X588Y656D01*
X588Y656D01*
X588Y656D01*
X588Y655D01*
X588Y655D01*
X587Y655D01*
X585D01*
Y637D01*
X588D01*
X588Y637D01*
X589Y637D01*
X589Y637D01*
X589Y637D01*
X589Y637D01*
X589Y636D01*
X589Y636D01*
Y636D01*
X589Y636D01*
X589Y636D01*
X589Y635D01*
X589Y635D01*
X589Y635D01*
X588Y635D01*
X588Y635D01*
X581D01*
X580Y635D01*
X580Y635D01*
X580Y635D01*
X580Y635D01*
X579Y636D01*
X579Y636D01*
X579Y636D01*
Y636D01*
X579Y636D01*
X580Y637D01*
X580Y637D01*
X580Y637D01*
X580Y637D01*
X580Y637D01*
X581Y637D01*
X583D01*
Y651D01*
X582Y652D01*
X581Y653D01*
X581Y654D01*
X580Y654D01*
X579Y655D01*
X579Y655D01*
X579Y655D01*
X579Y655D01*
X578Y655D01*
X578Y656D01*
X577Y656D01*
X576Y656D01*
X576Y656D01*
X575Y656D01*
X575D01*
X574Y656D01*
X573Y656D01*
X572Y655D01*
X572Y655D01*
X571Y655D01*
X571Y655D01*
X571Y654D01*
X571Y654D01*
X570Y654D01*
X570Y653D01*
X569Y652D01*
X569Y652D01*
X569Y651D01*
X569Y651D01*
Y651D01*
Y651D01*
Y637D01*
X571D01*
X571Y637D01*
X572Y637D01*
X572Y637D01*
X572Y637D01*
X572Y637D01*
X572Y636D01*
X572Y636D01*
Y636D01*
X572Y636D01*
X572Y636D01*
X572Y635D01*
X572Y635D01*
X571Y635D01*
X571Y635D01*
X571Y635D01*
X565D01*
X564Y635D01*
X564Y635D01*
X564Y635D01*
X564Y635D01*
X563Y636D01*
X563Y636D01*
X563Y636D01*
Y636D01*
X563Y636D01*
X564Y637D01*
X564Y637D01*
X564Y637D01*
X564Y637D01*
X564Y637D01*
X565Y637D01*
X567D01*
Y651D01*
X567Y651D01*
X567Y652D01*
X567Y653D01*
X567Y653D01*
X567Y654D01*
X568Y654D01*
X568Y654D01*
X568Y654D01*
X568Y655D01*
X569Y656D01*
X569Y656D01*
X570Y656D01*
X570Y657D01*
X570Y657D01*
X570Y657D01*
X570Y657D01*
X571Y657D01*
X572Y658D01*
X573Y658D01*
X573Y658D01*
X574Y658D01*
X575Y658D01*
X575D01*
X576Y658D01*
D02*
G37*
G36*
X411Y658D02*
X411Y658D01*
X412Y658D01*
X413Y657D01*
X413Y657D01*
X414Y657D01*
X414Y657D01*
X414Y657D01*
X414Y657D01*
X415Y656D01*
X416Y656D01*
X417Y655D01*
X418Y654D01*
X419Y653D01*
X419Y653D01*
X420Y652D01*
X420Y652D01*
X420Y652D01*
X420Y652D01*
X420Y652D01*
Y657D01*
X426D01*
X427Y657D01*
X427Y657D01*
X428Y657D01*
X428Y657D01*
X428Y657D01*
X428Y657D01*
X428Y656D01*
Y656D01*
X428Y656D01*
X428Y656D01*
X428Y656D01*
X428Y656D01*
X427Y655D01*
X427Y655D01*
X427Y655D01*
X422D01*
Y637D01*
X428D01*
X428Y637D01*
X429Y637D01*
X429Y637D01*
X429Y637D01*
X429Y637D01*
X429Y636D01*
X429Y636D01*
Y636D01*
X429Y636D01*
X429Y636D01*
X429Y635D01*
X429Y635D01*
X428Y635D01*
X428Y635D01*
X428Y635D01*
X411D01*
X410Y635D01*
X410Y635D01*
X410Y635D01*
X410Y635D01*
X409Y636D01*
X409Y636D01*
X409Y636D01*
Y636D01*
X409Y636D01*
X409Y637D01*
X410Y637D01*
X410Y637D01*
X410Y637D01*
X410Y637D01*
X411Y637D01*
X420D01*
Y649D01*
X419Y650D01*
X419Y651D01*
X418Y651D01*
X417Y652D01*
X416Y652D01*
X416Y653D01*
X415Y653D01*
X415Y653D01*
X414Y654D01*
X414Y654D01*
X414Y655D01*
X413Y655D01*
X413Y655D01*
X412Y655D01*
X411Y655D01*
X411Y656D01*
X411Y656D01*
X410Y656D01*
X410D01*
X409Y656D01*
X409Y656D01*
X409Y655D01*
X409Y655D01*
X408Y655D01*
X408Y655D01*
X407Y654D01*
X407Y654D01*
X407Y654D01*
X407Y654D01*
X407Y654D01*
X406Y654D01*
X406D01*
X406Y653D01*
X406D01*
X406Y654D01*
X405Y654D01*
X405Y654D01*
X405Y654D01*
X405Y654D01*
X405Y654D01*
X405Y655D01*
Y655D01*
X405Y655D01*
X405Y655D01*
X405Y656D01*
X406Y656D01*
X406Y656D01*
X406Y656D01*
X406Y657D01*
X406Y657D01*
X407Y657D01*
X408Y657D01*
X408Y658D01*
X409Y658D01*
X409Y658D01*
X410Y658D01*
X410D01*
X411Y658D01*
D02*
G37*
G36*
X757Y874D02*
X757Y874D01*
X758Y874D01*
Y873D01*
X758Y873D01*
Y872D01*
X758Y872D01*
X758D01*
X757Y872D01*
X756Y873D01*
X755Y873D01*
X754Y874D01*
X754Y874D01*
Y874D01*
X754Y875D01*
X755D01*
X757Y874D01*
D02*
G37*
G36*
X677Y665D02*
X677Y665D01*
X678Y665D01*
X678Y665D01*
X678Y665D01*
X678Y664D01*
X678Y664D01*
Y664D01*
Y664D01*
Y657D01*
X682D01*
X682Y657D01*
X683Y657D01*
X683Y657D01*
X683Y657D01*
X683Y657D01*
X683Y657D01*
X683Y656D01*
Y656D01*
X683Y656D01*
X683Y656D01*
X683Y656D01*
X683Y656D01*
X683Y655D01*
X682Y655D01*
X682Y655D01*
X678D01*
Y641D01*
X678Y640D01*
X678Y639D01*
X677Y638D01*
X677Y637D01*
X676Y637D01*
X676Y636D01*
X676Y636D01*
X676Y636D01*
X675Y635D01*
X674Y635D01*
X673Y635D01*
X672Y634D01*
X671Y634D01*
X670Y634D01*
X670Y634D01*
X670D01*
X669Y634D01*
X668Y634D01*
X666Y634D01*
X666Y635D01*
X665Y635D01*
X664Y635D01*
X664Y635D01*
X664D01*
X664Y635D01*
X664D01*
X662Y635D01*
X662Y636D01*
X661Y636D01*
X660Y636D01*
X660Y637D01*
X660Y637D01*
X660Y637D01*
X660Y637D01*
X659Y637D01*
X659Y637D01*
X659Y638D01*
Y638D01*
X659Y638D01*
X659Y638D01*
X659Y638D01*
X660Y638D01*
X660Y639D01*
X660Y639D01*
X660Y639D01*
X660D01*
X661Y639D01*
X661Y639D01*
X661Y639D01*
X661Y638D01*
X662Y638D01*
X662Y638D01*
X663Y638D01*
X664Y637D01*
X664Y637D01*
X665Y637D01*
X665Y637D01*
X665Y637D01*
X665D01*
X666Y637D01*
X667Y637D01*
X668Y637D01*
X668Y636D01*
X669D01*
X669Y636D01*
X670D01*
X671Y636D01*
X672Y637D01*
X673Y637D01*
X673Y637D01*
X674Y637D01*
X674Y637D01*
X674Y638D01*
X674Y638D01*
X675Y638D01*
X675Y639D01*
X675Y639D01*
X676Y640D01*
X676Y640D01*
X676Y640D01*
Y641D01*
Y641D01*
Y655D01*
X664D01*
X664Y655D01*
X663Y655D01*
X663Y655D01*
X663Y656D01*
X663Y656D01*
X663Y656D01*
X663Y656D01*
Y656D01*
X663Y657D01*
X663Y657D01*
X663Y657D01*
X663Y657D01*
X663Y657D01*
X664Y657D01*
X664Y657D01*
X676D01*
Y664D01*
X676Y664D01*
X676Y665D01*
X676Y665D01*
X676Y665D01*
X676Y665D01*
X677Y665D01*
X677Y665D01*
X677D01*
X677Y665D01*
D02*
G37*
G36*
X768Y658D02*
X769Y658D01*
X770Y658D01*
X770Y658D01*
X772Y657D01*
X773Y657D01*
X773Y656D01*
X774Y656D01*
X774Y656D01*
X775Y656D01*
X775Y655D01*
X775Y655D01*
X775Y655D01*
X775Y655D01*
X775Y655D01*
X776Y654D01*
X777Y653D01*
X777Y653D01*
X777Y652D01*
X778Y651D01*
X778Y651D01*
X779Y649D01*
X779Y648D01*
X779Y648D01*
X779Y647D01*
X779Y647D01*
Y647D01*
Y647D01*
Y647D01*
X779Y646D01*
X779Y645D01*
X779Y644D01*
X778Y643D01*
X778Y642D01*
X777Y641D01*
X777Y640D01*
X777Y640D01*
X776Y639D01*
X776Y639D01*
X776Y638D01*
X776Y638D01*
X775Y638D01*
X775Y638D01*
X775Y638D01*
X775Y637D01*
X774Y637D01*
X773Y636D01*
X772Y636D01*
X771Y635D01*
X771Y635D01*
X769Y635D01*
X769Y634D01*
X768Y634D01*
X767Y634D01*
X767Y634D01*
X767Y634D01*
X766D01*
X765Y634D01*
X764Y634D01*
X763Y635D01*
X762Y635D01*
X761Y635D01*
X760Y635D01*
X760Y635D01*
X760Y635D01*
X760Y635D01*
X760D01*
X758Y636D01*
X758Y636D01*
X757Y637D01*
X756Y637D01*
X756Y637D01*
X755Y638D01*
X755Y638D01*
X755Y638D01*
X755Y638D01*
X755Y638D01*
X755Y639D01*
Y639D01*
X755Y639D01*
X755Y639D01*
X755Y639D01*
X755Y639D01*
X755Y640D01*
X756Y640D01*
X756Y640D01*
X756D01*
X756Y640D01*
X756Y640D01*
X757Y639D01*
X757Y639D01*
X757Y639D01*
X758Y638D01*
X759Y638D01*
X759Y638D01*
X760Y638D01*
X761Y637D01*
X761Y637D01*
X761Y637D01*
X761D01*
X762Y637D01*
X763Y637D01*
X764Y637D01*
X765Y636D01*
X765Y636D01*
X766Y636D01*
X766D01*
X767Y636D01*
X768Y636D01*
X769Y637D01*
X770Y637D01*
X771Y638D01*
X772Y638D01*
X773Y638D01*
X773Y638D01*
X773Y639D01*
X773Y639D01*
X773Y639D01*
X773D01*
X774Y640D01*
X775Y641D01*
X776Y642D01*
X776Y643D01*
X776Y644D01*
X777Y645D01*
X777Y645D01*
X777Y645D01*
Y646D01*
X777Y646D01*
Y646D01*
X755D01*
X755Y647D01*
X755Y648D01*
X755Y649D01*
X755Y649D01*
X756Y650D01*
X756Y651D01*
X756Y652D01*
X756Y652D01*
X757Y653D01*
X757Y653D01*
X757Y654D01*
X758Y654D01*
X758Y654D01*
X758Y654D01*
X758Y655D01*
X758Y655D01*
X759Y655D01*
X760Y656D01*
X760Y656D01*
X761Y657D01*
X762Y657D01*
X762Y657D01*
X764Y658D01*
X764Y658D01*
X765Y658D01*
X765Y658D01*
X766Y658D01*
X766Y658D01*
X767D01*
X768Y658D01*
D02*
G37*
G36*
X842Y657D02*
X843Y657D01*
X843Y657D01*
X843Y657D01*
X843Y657D01*
X843Y657D01*
X843Y656D01*
Y656D01*
X843Y656D01*
X843Y656D01*
X843Y656D01*
X843Y656D01*
X843Y655D01*
X842Y655D01*
X842Y655D01*
X839D01*
Y641D01*
X839Y640D01*
X839Y639D01*
X838Y638D01*
X838Y637D01*
X838Y637D01*
X837Y636D01*
X837Y636D01*
X837Y636D01*
X836Y635D01*
X835Y635D01*
X835Y635D01*
X834Y634D01*
X833Y634D01*
X833Y634D01*
X832D01*
X831Y634D01*
X830Y634D01*
X829Y635D01*
X828Y635D01*
X827Y635D01*
X826Y636D01*
X825Y636D01*
X825Y637D01*
X824Y637D01*
X824Y637D01*
X823Y638D01*
X823Y638D01*
X823Y638D01*
X823Y638D01*
X822Y638D01*
Y635D01*
X818D01*
X818Y635D01*
X818Y635D01*
X817Y635D01*
X817Y635D01*
X817Y636D01*
X817Y636D01*
X817Y636D01*
Y636D01*
X817Y636D01*
X817Y637D01*
X817Y637D01*
X817Y637D01*
X818Y637D01*
X818Y637D01*
X818Y637D01*
X820D01*
Y657D01*
X826D01*
X827Y657D01*
X827Y657D01*
X828Y657D01*
X828Y657D01*
X828Y657D01*
X828Y657D01*
X828Y656D01*
Y656D01*
X828Y656D01*
X828Y656D01*
X828Y656D01*
X828Y656D01*
X827Y655D01*
X827Y655D01*
X827Y655D01*
X822D01*
Y641D01*
X823Y640D01*
X824Y640D01*
X825Y639D01*
X826Y638D01*
X827Y638D01*
X828Y638D01*
X828Y637D01*
X829Y637D01*
X830Y637D01*
X830Y637D01*
X831Y637D01*
X831Y636D01*
X832D01*
X832Y636D01*
X832D01*
X833Y636D01*
X834Y637D01*
X834Y637D01*
X835Y637D01*
X835Y637D01*
X835Y637D01*
X835Y638D01*
X836Y638D01*
X836Y638D01*
X836Y639D01*
X837Y639D01*
X837Y640D01*
X837Y640D01*
X837Y641D01*
Y641D01*
Y641D01*
Y657D01*
X842D01*
X842Y657D01*
D02*
G37*
G36*
X675Y873D02*
X676Y872D01*
X676Y871D01*
X677Y871D01*
X677Y870D01*
X676Y870D01*
X676Y871D01*
X675Y871D01*
X674Y872D01*
X674Y872D01*
X674Y873D01*
Y873D01*
X674D01*
X675Y873D01*
D02*
G37*
G36*
X744Y803D02*
X745Y803D01*
X745Y801D01*
X745Y801D01*
X746Y799D01*
X746Y797D01*
Y796D01*
Y795D01*
X746Y794D01*
X745Y792D01*
X745Y792D01*
X744Y791D01*
X743Y791D01*
X741D01*
X740Y791D01*
X740Y791D01*
X738Y793D01*
X738Y794D01*
X737Y795D01*
Y795D01*
X738Y797D01*
X739Y799D01*
X740Y800D01*
X740Y801D01*
X741Y802D01*
X742Y803D01*
X743Y804D01*
X743D01*
X744Y803D01*
D02*
G37*
G36*
X939Y665D02*
X939Y665D01*
X939D01*
X940Y665D01*
X940Y665D01*
X940Y665D01*
X940Y665D01*
X940Y664D01*
Y664D01*
Y664D01*
X940Y664D01*
X940Y664D01*
Y663D01*
X940Y663D01*
X940Y663D01*
X940Y663D01*
X939D01*
X939Y663D01*
X937D01*
X926Y635D01*
X923D01*
X913Y663D01*
X911D01*
X911Y663D01*
X911D01*
X910Y663D01*
X910Y663D01*
X910Y663D01*
Y663D01*
X910Y664D01*
X910Y664D01*
Y664D01*
Y664D01*
Y664D01*
X910Y664D01*
X910Y665D01*
X910Y665D01*
X910Y665D01*
X910Y665D01*
X910Y665D01*
X911D01*
X911Y665D01*
X911Y665D01*
X919D01*
X920Y665D01*
X920Y665D01*
X920D01*
X920Y665D01*
X920Y665D01*
X920Y665D01*
X920Y665D01*
X920Y664D01*
X920Y664D01*
Y664D01*
Y664D01*
X920Y664D01*
X920Y664D01*
Y663D01*
X920Y663D01*
X920Y663D01*
X920Y663D01*
X920D01*
X920Y663D01*
X915D01*
X925Y637D01*
X925D01*
X935Y663D01*
X931D01*
X930Y663D01*
X930D01*
X930Y663D01*
X930Y663D01*
X930Y663D01*
Y663D01*
X930Y664D01*
X929Y664D01*
Y664D01*
Y664D01*
Y664D01*
X929Y664D01*
X930Y665D01*
X930Y665D01*
X930Y665D01*
X930Y665D01*
X930Y665D01*
X930D01*
X930Y665D01*
X931Y665D01*
X939D01*
X939Y665D01*
D02*
G37*
G36*
X645Y665D02*
X646Y665D01*
X646Y665D01*
X646Y665D01*
X646Y665D01*
X646Y664D01*
X646Y664D01*
Y664D01*
Y664D01*
Y657D01*
X650D01*
X651Y657D01*
X651Y657D01*
X651Y657D01*
X651Y657D01*
X652Y657D01*
X652Y657D01*
X652Y656D01*
Y656D01*
X652Y656D01*
X651Y656D01*
X651Y656D01*
X651Y656D01*
X651Y655D01*
X651Y655D01*
X650Y655D01*
X646D01*
Y641D01*
X646Y640D01*
X646Y639D01*
X646Y638D01*
X645Y637D01*
X645Y637D01*
X644Y636D01*
X644Y636D01*
X644Y636D01*
X643Y635D01*
X642Y635D01*
X641Y635D01*
X640Y634D01*
X639Y634D01*
X639Y634D01*
X638Y634D01*
X638D01*
X637Y634D01*
X636Y634D01*
X635Y634D01*
X634Y635D01*
X633Y635D01*
X632Y635D01*
X632Y635D01*
X632D01*
X632Y635D01*
X632D01*
X631Y635D01*
X630Y636D01*
X629Y636D01*
X629Y636D01*
X628Y637D01*
X628Y637D01*
X628Y637D01*
X628Y637D01*
X628Y637D01*
X628Y637D01*
X627Y638D01*
Y638D01*
X628Y638D01*
X628Y638D01*
X628Y638D01*
X628Y638D01*
X628Y639D01*
X628Y639D01*
X628Y639D01*
X629D01*
X629Y639D01*
X629Y639D01*
X629Y639D01*
X629Y638D01*
X630Y638D01*
X631Y638D01*
X631Y638D01*
X632Y637D01*
X633Y637D01*
X633Y637D01*
X633Y637D01*
X633Y637D01*
X633D01*
X634Y637D01*
X635Y637D01*
X636Y637D01*
X637Y636D01*
X637D01*
X638Y636D01*
X638D01*
X639Y636D01*
X640Y637D01*
X641Y637D01*
X641Y637D01*
X642Y637D01*
X642Y637D01*
X643Y638D01*
X643Y638D01*
X643Y638D01*
X643Y639D01*
X644Y639D01*
X644Y640D01*
X644Y640D01*
X644Y640D01*
Y641D01*
Y641D01*
Y655D01*
X632D01*
X632Y655D01*
X631Y655D01*
X631Y655D01*
X631Y656D01*
X631Y656D01*
X631Y656D01*
X631Y656D01*
Y656D01*
X631Y657D01*
X631Y657D01*
X631Y657D01*
X631Y657D01*
X631Y657D01*
X632Y657D01*
X632Y657D01*
X644D01*
Y664D01*
X644Y664D01*
X644Y665D01*
X644Y665D01*
X644Y665D01*
X645Y665D01*
X645Y665D01*
X645Y665D01*
X645D01*
X645Y665D01*
D02*
G37*
%LPC*%
G36*
X603Y965D02*
X598D01*
X596Y965D01*
X593D01*
X592Y964D01*
X592Y964D01*
Y964D01*
Y963D01*
X592Y962D01*
X593Y961D01*
X593Y961D01*
X596Y959D01*
X598Y958D01*
X600Y956D01*
X602Y955D01*
X603Y955D01*
X604Y954D01*
X605Y954D01*
X605D01*
X607Y954D01*
X610Y954D01*
X614Y953D01*
X618Y953D01*
X621D01*
X624Y953D01*
X636D01*
X636Y953D01*
X637Y954D01*
X637Y954D01*
Y955D01*
X636Y956D01*
X635Y958D01*
X633Y960D01*
X632Y961D01*
X631Y961D01*
X630Y962D01*
X630D01*
X628Y962D01*
X626Y963D01*
X621Y964D01*
X618Y964D01*
X616D01*
X615Y964D01*
X614D01*
X610Y965D01*
X606D01*
X603Y965D01*
D02*
G37*
G36*
X710Y976D02*
X709D01*
X709Y976D01*
Y975D01*
X709Y975D01*
Y975D01*
X710Y974D01*
X710Y974D01*
X711Y973D01*
X711D01*
X712Y973D01*
X712D01*
X712Y974D01*
Y974D01*
X711Y976D01*
X710Y976D01*
D02*
G37*
G36*
X623Y975D02*
X623D01*
X622Y975D01*
X622Y975D01*
Y974D01*
Y974D01*
Y974D01*
X622Y973D01*
X622Y973D01*
X622D01*
X623Y973D01*
X623Y974D01*
X624Y974D01*
Y974D01*
X623Y975D01*
X623Y975D01*
D02*
G37*
G36*
X674Y985D02*
X673D01*
X673Y984D01*
X672Y984D01*
Y984D01*
X673Y983D01*
X673Y982D01*
X675Y981D01*
X676Y980D01*
X677Y979D01*
X677D01*
X679Y978D01*
X680Y978D01*
X683Y977D01*
X685D01*
X686Y978D01*
X686Y978D01*
X686Y978D01*
X685Y979D01*
X683Y980D01*
X682Y981D01*
X681Y982D01*
X681D01*
X678Y983D01*
X676Y984D01*
X674Y985D01*
D02*
G37*
G36*
X674Y994D02*
X674Y994D01*
Y993D01*
Y992D01*
Y991D01*
X674Y990D01*
X674Y989D01*
X676Y987D01*
X678Y986D01*
X679Y986D01*
X679Y985D01*
X681Y984D01*
X683Y983D01*
X684Y982D01*
X685Y982D01*
X686Y981D01*
X686Y981D01*
X687Y980D01*
X689Y980D01*
X690D01*
X691Y980D01*
X692Y980D01*
X692Y981D01*
X692Y982D01*
X690Y983D01*
X689Y985D01*
X687Y986D01*
X685Y988D01*
X683Y989D01*
X682Y990D01*
X681Y990D01*
X679Y991D01*
X677Y992D01*
X676Y993D01*
X675Y994D01*
X674Y994D01*
X674Y994D01*
D02*
G37*
G36*
X621Y969D02*
X619D01*
X619Y969D01*
X619Y969D01*
Y968D01*
X619Y968D01*
X619Y968D01*
X621Y967D01*
X623Y967D01*
X623Y966D01*
X623D01*
X627Y966D01*
X630Y964D01*
X631Y963D01*
X633Y963D01*
X633Y962D01*
X634D01*
X635Y962D01*
X637Y961D01*
X638Y961D01*
X639D01*
X639Y961D01*
X638Y962D01*
X636Y962D01*
X635Y963D01*
X634Y964D01*
X632Y964D01*
X631Y965D01*
X631D01*
X628Y966D01*
X626Y967D01*
X624Y968D01*
X622Y969D01*
X621Y969D01*
X621Y969D01*
D02*
G37*
G36*
X588Y958D02*
X587Y958D01*
X586Y958D01*
X586Y957D01*
X585Y957D01*
Y956D01*
X585Y955D01*
Y954D01*
X585Y950D01*
X586Y949D01*
Y948D01*
X586Y947D01*
Y947D01*
X586Y944D01*
X587Y942D01*
X587Y941D01*
X588Y939D01*
X589Y938D01*
X589Y937D01*
X589Y937D01*
Y937D01*
X591Y935D01*
X592Y934D01*
X593Y933D01*
X593Y933D01*
X594Y932D01*
X595Y932D01*
X597Y931D01*
X599Y931D01*
X600Y931D01*
X600D01*
X605Y930D01*
X604Y934D01*
X604Y935D01*
X603Y937D01*
X603Y941D01*
X602Y943D01*
Y944D01*
X602Y945D01*
Y945D01*
X602Y947D01*
X602Y949D01*
X601Y950D01*
X601Y951D01*
X600Y952D01*
Y952D01*
X599Y954D01*
X597Y955D01*
X595Y956D01*
X595Y956D01*
X595D01*
X592Y958D01*
X590Y958D01*
X588Y958D01*
D02*
G37*
G36*
X647Y908D02*
X646D01*
X646Y908D01*
X646Y907D01*
X647Y906D01*
X647Y906D01*
X648Y906D01*
X648Y905D01*
X648D01*
Y906D01*
X648Y906D01*
Y906D01*
Y907D01*
X648Y908D01*
X647Y908D01*
X647Y908D01*
D02*
G37*
G36*
X686Y921D02*
X684D01*
X683Y921D01*
X682Y920D01*
X682Y920D01*
Y920D01*
Y918D01*
Y917D01*
Y916D01*
Y915D01*
Y915D01*
X682Y911D01*
X683Y908D01*
Y906D01*
Y905D01*
Y905D01*
Y904D01*
Y902D01*
X683Y900D01*
X683Y899D01*
X684Y899D01*
X685Y898D01*
X686Y897D01*
X687Y896D01*
X687Y896D01*
X690Y894D01*
X693Y893D01*
X694Y892D01*
X694Y892D01*
X696D01*
X697Y892D01*
X698Y893D01*
X698Y893D01*
X699Y894D01*
X700Y895D01*
X700Y898D01*
X701Y899D01*
Y900D01*
Y901D01*
Y902D01*
Y904D01*
X700Y906D01*
X700Y908D01*
X700Y910D01*
X699Y911D01*
X699Y912D01*
X699Y912D01*
Y912D01*
X697Y914D01*
X696Y916D01*
X695Y917D01*
X694Y917D01*
X692Y918D01*
X691Y919D01*
X688D01*
X687Y919D01*
Y920D01*
X686Y920D01*
X686Y921D01*
D02*
G37*
G36*
X680Y914D02*
X680D01*
X679Y914D01*
Y913D01*
X680Y912D01*
Y912D01*
X680Y912D01*
Y911D01*
X680Y912D01*
X681Y913D01*
Y913D01*
Y914D01*
Y914D01*
X680Y914D01*
D02*
G37*
G36*
X642Y912D02*
X641D01*
X641Y912D01*
X640Y911D01*
Y911D01*
Y911D01*
Y910D01*
X640Y908D01*
X640Y907D01*
Y907D01*
X639Y906D01*
X639Y906D01*
Y906D01*
X641Y907D01*
X642Y908D01*
X643Y909D01*
X644Y909D01*
X644D01*
X644Y909D01*
Y910D01*
X644Y910D01*
X644Y910D01*
X643Y911D01*
X643Y912D01*
X642Y912D01*
X642Y912D01*
D02*
G37*
G36*
X670Y868D02*
X669D01*
Y867D01*
X670Y866D01*
X670Y865D01*
X670Y865D01*
X672Y864D01*
X673Y863D01*
X673D01*
Y864D01*
X673Y865D01*
X672Y866D01*
X672Y866D01*
X670Y867D01*
X670Y868D01*
D02*
G37*
G36*
X783Y878D02*
X783D01*
X782Y878D01*
X781Y877D01*
Y877D01*
Y877D01*
Y876D01*
X782Y876D01*
X782D01*
X783Y876D01*
X783Y876D01*
X784Y877D01*
X783Y877D01*
X783Y878D01*
D02*
G37*
G36*
X660Y915D02*
X660D01*
X659Y914D01*
X659Y914D01*
X658Y914D01*
X658Y913D01*
X658Y912D01*
X658Y911D01*
X659Y910D01*
X659Y909D01*
X661Y907D01*
X662Y906D01*
X663Y905D01*
X664Y904D01*
X665Y903D01*
X665Y903D01*
X665Y901D01*
Y901D01*
X665D01*
X664Y900D01*
X662Y899D01*
X662Y898D01*
X661Y897D01*
X660Y896D01*
X658Y895D01*
X657Y895D01*
X655D01*
X655Y894D01*
X654Y894D01*
Y894D01*
X655Y893D01*
X656Y892D01*
X657Y892D01*
X657D01*
X663Y891D01*
X665Y890D01*
X668Y890D01*
X670Y889D01*
X671D01*
X673Y889D01*
X673D01*
X676Y889D01*
X678Y888D01*
X686D01*
X688Y889D01*
X689D01*
X690Y889D01*
X690Y889D01*
X691Y890D01*
Y890D01*
X690Y891D01*
X689Y892D01*
X687Y894D01*
X686Y895D01*
X685Y895D01*
X685D01*
X681Y897D01*
X678Y899D01*
X676Y899D01*
X675Y899D01*
X674D01*
X672Y899D01*
X671Y900D01*
X670Y900D01*
X669Y901D01*
X669Y901D01*
Y901D01*
X668Y902D01*
X668Y903D01*
X667Y903D01*
X667D01*
X666Y904D01*
X666Y905D01*
X665Y906D01*
Y906D01*
X665Y907D01*
X664Y909D01*
X663Y911D01*
X662Y911D01*
Y912D01*
X662Y914D01*
X661Y914D01*
X660Y915D01*
D02*
G37*
G36*
X648Y855D02*
X646D01*
X645Y855D01*
X645Y855D01*
X645Y855D01*
X646Y854D01*
X646Y854D01*
X647D01*
X648Y854D01*
X648D01*
X649Y854D01*
Y854D01*
X648Y855D01*
X648Y855D01*
D02*
G37*
G36*
X616Y919D02*
X615Y919D01*
X615Y918D01*
Y918D01*
X615Y917D01*
Y917D01*
X615Y917D01*
X614D01*
X614Y917D01*
X614Y917D01*
X613Y918D01*
X612Y918D01*
X612D01*
Y918D01*
X612Y918D01*
Y917D01*
X613Y916D01*
X613Y916D01*
X614Y914D01*
X615Y913D01*
X617Y912D01*
X618Y911D01*
X619Y910D01*
X619D01*
X620Y910D01*
X620Y911D01*
X620Y911D01*
Y912D01*
Y913D01*
X620Y914D01*
X620Y914D01*
X621D01*
X621Y914D01*
X621Y915D01*
X620Y916D01*
X620Y916D01*
X619Y917D01*
X618Y918D01*
X617D01*
X617Y917D01*
X616Y918D01*
Y918D01*
X616Y919D01*
X616Y919D01*
D02*
G37*
G36*
X647Y956D02*
X643D01*
X642Y956D01*
X642Y955D01*
Y955D01*
X642Y955D01*
X643Y954D01*
Y952D01*
Y952D01*
Y951D01*
X643Y950D01*
X644Y950D01*
X645Y949D01*
X645Y948D01*
X646Y947D01*
X648Y946D01*
X650Y944D01*
X652Y944D01*
X653Y943D01*
X653Y942D01*
X654Y942D01*
X658Y939D01*
X661Y937D01*
X664Y935D01*
X667Y933D01*
X669Y931D01*
X671Y930D01*
X672Y930D01*
X672Y929D01*
X676Y927D01*
X679Y925D01*
X681Y925D01*
X682Y924D01*
X682Y924D01*
X683D01*
X685Y923D01*
X686Y923D01*
X687D01*
X688Y923D01*
X689Y924D01*
X689Y924D01*
Y925D01*
X689Y926D01*
X687Y928D01*
X686Y929D01*
X683Y931D01*
X681Y933D01*
X675Y938D01*
X670Y942D01*
X667Y944D01*
X664Y946D01*
X662Y947D01*
X661Y948D01*
X660Y949D01*
X659Y949D01*
X657Y950D01*
X655Y952D01*
X654Y953D01*
X653Y953D01*
X653Y954D01*
X652Y954D01*
X652Y954D01*
X651Y955D01*
X651Y955D01*
X649Y956D01*
X647Y956D01*
D02*
G37*
G36*
X649Y925D02*
X649Y924D01*
X648Y924D01*
X648Y923D01*
Y923D01*
Y923D01*
Y922D01*
X649D01*
X649Y923D01*
X650Y923D01*
Y924D01*
X649Y924D01*
Y925D01*
D02*
G37*
G36*
X618Y929D02*
X617Y928D01*
X616D01*
X616Y928D01*
X617Y928D01*
X618D01*
X619Y928D01*
X619D01*
X619Y928D01*
X618Y929D01*
D02*
G37*
G36*
X611Y926D02*
X611D01*
X611Y926D01*
Y925D01*
X611Y924D01*
X611Y925D01*
X612Y925D01*
X611Y926D01*
Y926D01*
Y926D01*
D02*
G37*
G36*
X636Y919D02*
X634D01*
X635Y919D01*
X635Y918D01*
X636Y918D01*
X636D01*
X637Y918D01*
X637D01*
Y918D01*
Y918D01*
X636Y919D01*
D02*
G37*
G36*
X642Y921D02*
X642D01*
X642Y921D01*
X642Y920D01*
X642Y920D01*
X642Y919D01*
X644Y918D01*
X645Y918D01*
X646Y918D01*
X647Y917D01*
X647Y917D01*
X648Y917D01*
X648D01*
X647Y917D01*
X647Y918D01*
X646Y918D01*
X645Y920D01*
X643Y921D01*
X642Y921D01*
D02*
G37*
G36*
X667Y923D02*
X666D01*
X666Y922D01*
X665Y922D01*
Y922D01*
Y922D01*
X665Y921D01*
X666Y921D01*
X666Y921D01*
X667Y921D01*
X667Y922D01*
Y922D01*
X667Y922D01*
Y922D01*
Y923D01*
D02*
G37*
G36*
X613Y922D02*
X613D01*
X611Y921D01*
X611Y921D01*
X610Y921D01*
Y920D01*
X611Y920D01*
X611Y919D01*
X612D01*
X614Y920D01*
X614Y920D01*
X615Y920D01*
Y921D01*
X614Y921D01*
X614Y921D01*
X613Y922D01*
D02*
G37*
G36*
X501Y1097D02*
X499D01*
Y1097D01*
X500Y1096D01*
X500Y1096D01*
X501Y1096D01*
X501D01*
X502Y1095D01*
X502D01*
Y1096D01*
Y1096D01*
X501Y1097D01*
D02*
G37*
G36*
X513Y1098D02*
X513D01*
X511Y1097D01*
X511Y1097D01*
X510Y1096D01*
X510Y1095D01*
X509Y1094D01*
X510Y1093D01*
X510Y1093D01*
X512D01*
X512Y1093D01*
X512D01*
X513Y1094D01*
X514Y1094D01*
X515Y1095D01*
Y1095D01*
Y1096D01*
X514Y1097D01*
X514Y1097D01*
Y1098D01*
X513Y1098D01*
D02*
G37*
G36*
X551Y582D02*
X551D01*
X549Y582D01*
X549D01*
X548Y582D01*
X548Y581D01*
X547D01*
X547Y581D01*
X547D01*
X546Y581D01*
X545Y581D01*
X545Y581D01*
X544Y581D01*
X544Y581D01*
X544Y581D01*
X544D01*
Y576D01*
X545Y575D01*
X546Y574D01*
X547Y574D01*
X547Y573D01*
X548Y573D01*
X549Y573D01*
X549Y573D01*
X549Y572D01*
X550Y572D01*
X551Y572D01*
X552Y572D01*
X552Y571D01*
X553Y571D01*
X554Y571D01*
X554D01*
X555Y571D01*
X556Y572D01*
X557Y572D01*
X558Y572D01*
X558Y572D01*
X558Y572D01*
X559Y573D01*
X559Y573D01*
X559Y573D01*
X560Y574D01*
X560Y574D01*
X560Y575D01*
X560Y575D01*
X560Y576D01*
Y576D01*
Y576D01*
X560Y577D01*
X560Y577D01*
X560Y578D01*
X559Y579D01*
X559Y579D01*
X558Y579D01*
X558Y580D01*
X558Y580D01*
X557Y580D01*
X556Y581D01*
X555Y581D01*
X553Y581D01*
X552Y582D01*
X552Y582D01*
X552D01*
X551Y582D01*
D02*
G37*
G36*
X803Y591D02*
X803D01*
X802Y591D01*
X801Y591D01*
X800Y591D01*
X799Y590D01*
X798Y590D01*
X797Y589D01*
X797Y589D01*
X796Y588D01*
X796Y588D01*
X796Y588D01*
X796Y588D01*
X796Y588D01*
X795Y587D01*
X795Y586D01*
X794Y586D01*
X794Y585D01*
X794Y584D01*
X793Y583D01*
X793Y582D01*
Y582D01*
X793Y582D01*
Y581D01*
Y581D01*
Y581D01*
X793Y580D01*
X793Y580D01*
X794Y578D01*
X794Y577D01*
X795Y576D01*
X795Y575D01*
X796Y575D01*
X796Y574D01*
X796Y574D01*
X796Y574D01*
X796Y574D01*
X797Y574D01*
X797Y573D01*
X798Y573D01*
X799Y572D01*
X800Y572D01*
X801Y572D01*
X802Y571D01*
X802D01*
X802Y571D01*
X803D01*
X803Y571D01*
X804Y571D01*
X805Y572D01*
X806Y572D01*
X807Y573D01*
X808Y573D01*
X809Y574D01*
X809Y574D01*
X809Y574D01*
X809Y574D01*
X809Y574D01*
X810Y575D01*
X810Y575D01*
X811Y576D01*
X811Y578D01*
X812Y579D01*
X812Y580D01*
X812Y580D01*
Y580D01*
X812Y581D01*
Y581D01*
Y581D01*
Y581D01*
X812Y582D01*
X812Y583D01*
X812Y584D01*
X811Y585D01*
X811Y586D01*
X810Y587D01*
X810Y588D01*
X809Y588D01*
X809Y588D01*
X809Y588D01*
X809Y588D01*
X809Y589D01*
X808Y589D01*
X808Y589D01*
X807Y590D01*
X806Y590D01*
X805Y591D01*
X804Y591D01*
X804Y591D01*
X803D01*
X803Y591D01*
D02*
G37*
G36*
X709D02*
X709D01*
X708Y591D01*
X707Y591D01*
X706Y591D01*
X705Y590D01*
X704Y590D01*
X703Y589D01*
X702Y589D01*
X702Y588D01*
X702Y588D01*
X702Y588D01*
X702Y588D01*
X701Y588D01*
X701Y587D01*
X700Y586D01*
X700Y586D01*
X700Y585D01*
X699Y584D01*
X699Y583D01*
X699Y582D01*
Y582D01*
X699Y582D01*
Y581D01*
Y581D01*
Y581D01*
X699Y580D01*
X699Y580D01*
X699Y578D01*
X700Y577D01*
X700Y576D01*
X701Y575D01*
X701Y575D01*
X701Y575D01*
X702Y574D01*
X702Y574D01*
X702Y574D01*
X702Y574D01*
X703Y573D01*
X704Y573D01*
X704Y573D01*
X705Y572D01*
X706Y572D01*
X707Y572D01*
X708Y571D01*
X708Y571D01*
X708Y571D01*
X709D01*
X710Y571D01*
X710Y571D01*
X712Y572D01*
X713Y572D01*
X714Y573D01*
X715Y573D01*
X715Y574D01*
X715Y574D01*
X716Y574D01*
X716Y574D01*
X716Y574D01*
X716Y574D01*
X716Y575D01*
X717Y575D01*
X717Y576D01*
X717Y577D01*
X718Y578D01*
X718Y579D01*
X719Y580D01*
X719Y580D01*
X719Y580D01*
X719Y581D01*
Y581D01*
Y581D01*
Y581D01*
X719Y582D01*
X719Y583D01*
X718Y584D01*
X718Y585D01*
X717Y586D01*
X717Y587D01*
X716Y588D01*
X716Y588D01*
X716Y588D01*
X716Y588D01*
X716Y588D01*
X715Y589D01*
X715Y589D01*
X714Y589D01*
X714Y590D01*
X712Y590D01*
X711Y591D01*
X710Y591D01*
X710Y591D01*
X709D01*
X709Y591D01*
D02*
G37*
G36*
X501Y1092D02*
X500Y1092D01*
X500D01*
X499Y1091D01*
X498Y1091D01*
X498Y1090D01*
X498Y1090D01*
X500D01*
X501Y1090D01*
X501Y1091D01*
X502Y1091D01*
X501Y1092D01*
X501Y1092D01*
D02*
G37*
G36*
X697Y1062D02*
X695Y1061D01*
X694Y1061D01*
X693D01*
X693Y1061D01*
X692D01*
X692Y1061D01*
Y1061D01*
Y1060D01*
Y1060D01*
X692Y1060D01*
X692Y1059D01*
X693D01*
X695Y1060D01*
X696Y1061D01*
X697Y1061D01*
X697Y1062D01*
X697Y1062D01*
D02*
G37*
G36*
X712Y1062D02*
X711D01*
X711Y1061D01*
X710Y1060D01*
X710Y1059D01*
Y1058D01*
Y1058D01*
Y1057D01*
Y1056D01*
X710Y1055D01*
X711Y1054D01*
X711Y1055D01*
X712Y1056D01*
X713Y1057D01*
X713Y1057D01*
X713Y1059D01*
Y1060D01*
X713Y1060D01*
Y1061D01*
X712Y1061D01*
X712Y1062D01*
D02*
G37*
G36*
X716Y1072D02*
X716D01*
X715Y1071D01*
X715Y1070D01*
X714Y1070D01*
X713Y1068D01*
X713Y1067D01*
Y1066D01*
X714Y1068D01*
X715Y1069D01*
X716Y1070D01*
Y1071D01*
Y1072D01*
D02*
G37*
G36*
X707Y1073D02*
X707Y1073D01*
X706Y1073D01*
X706Y1073D01*
Y1072D01*
X706Y1072D01*
X706Y1071D01*
X706Y1071D01*
X707Y1071D01*
X707Y1072D01*
X708Y1072D01*
Y1072D01*
Y1073D01*
X707Y1073D01*
D02*
G37*
G36*
X712Y1072D02*
X712D01*
X712Y1072D01*
X711Y1072D01*
Y1071D01*
X710Y1070D01*
X710Y1070D01*
X710Y1069D01*
X711D01*
X711Y1070D01*
X712Y1070D01*
X712Y1071D01*
X712Y1072D01*
Y1072D01*
Y1072D01*
D02*
G37*
G36*
X964Y591D02*
X963D01*
X963Y591D01*
X961Y591D01*
X960Y590D01*
X959Y590D01*
X959Y589D01*
X958Y589D01*
X958Y588D01*
X958Y588D01*
Y588D01*
X957Y588D01*
X957Y587D01*
X956Y586D01*
X956Y585D01*
X955Y584D01*
X955Y583D01*
X955Y583D01*
Y582D01*
X955Y582D01*
Y582D01*
Y582D01*
Y582D01*
Y581D01*
X955Y580D01*
X955Y579D01*
X956Y578D01*
X956Y577D01*
X957Y576D01*
X957Y576D01*
X958Y575D01*
X958Y575D01*
X958Y575D01*
X958Y575D01*
X959Y574D01*
X960Y574D01*
X961Y573D01*
X962Y573D01*
X963Y573D01*
X963Y573D01*
X963D01*
X964Y573D01*
X964D01*
X965Y573D01*
X965Y573D01*
X967Y573D01*
X968Y574D01*
X969Y574D01*
X969Y575D01*
X970Y575D01*
X970Y575D01*
X970Y575D01*
X970D01*
X971Y576D01*
X971Y576D01*
X972Y577D01*
X972Y579D01*
X972Y580D01*
X973Y580D01*
X973Y581D01*
Y581D01*
X973Y581D01*
Y582D01*
Y582D01*
Y582D01*
X973Y583D01*
X973Y583D01*
X972Y584D01*
X972Y586D01*
X972Y586D01*
X971Y587D01*
X971Y588D01*
X970Y588D01*
X970Y588D01*
Y588D01*
X970Y589D01*
X969Y589D01*
X968Y590D01*
X967Y590D01*
X966Y591D01*
X965Y591D01*
X965Y591D01*
X964Y591D01*
D02*
G37*
G36*
X761Y734D02*
X760D01*
X758Y734D01*
X756Y733D01*
X754Y732D01*
X752Y731D01*
X751Y731D01*
X750Y730D01*
X750Y729D01*
X749Y729D01*
X748Y727D01*
X747Y725D01*
X746Y723D01*
X746Y721D01*
X745Y720D01*
X745Y718D01*
X745Y718D01*
Y717D01*
Y717D01*
Y717D01*
X745Y714D01*
X746Y712D01*
X746Y710D01*
X747Y708D01*
X748Y706D01*
X748Y705D01*
X748Y704D01*
X748Y704D01*
X749Y704D01*
X749Y703D01*
Y703D01*
X750Y701D01*
X752Y699D01*
X753Y697D01*
X755Y696D01*
X756Y694D01*
X757Y693D01*
X758Y693D01*
X758Y693D01*
X758D01*
X760Y691D01*
X762Y691D01*
X764Y690D01*
X766Y689D01*
X768Y689D01*
X769Y689D01*
X769Y689D01*
X770D01*
X772Y689D01*
X774Y690D01*
X776Y690D01*
X777Y691D01*
X778Y692D01*
X779Y693D01*
X780Y693D01*
X780Y693D01*
X782Y695D01*
X783Y697D01*
X783Y699D01*
X784Y701D01*
X784Y703D01*
X784Y704D01*
X784Y705D01*
Y705D01*
Y706D01*
Y706D01*
X784Y708D01*
X784Y711D01*
X783Y713D01*
X783Y715D01*
X782Y717D01*
X782Y718D01*
X781Y718D01*
X781Y719D01*
X781Y719D01*
X781Y719D01*
Y719D01*
X779Y722D01*
X778Y724D01*
X776Y726D01*
X775Y727D01*
X773Y728D01*
X772Y729D01*
X772Y730D01*
X772Y730D01*
X771D01*
X769Y731D01*
X767Y732D01*
X765Y733D01*
X764Y733D01*
X762Y734D01*
X761Y734D01*
D02*
G37*
G36*
X767Y656D02*
X767D01*
X765Y656D01*
X764Y656D01*
X763Y655D01*
X762Y655D01*
X761Y654D01*
X761Y654D01*
X761Y654D01*
X760Y654D01*
X760Y654D01*
X760D01*
X759Y653D01*
X759Y652D01*
X758Y651D01*
X758Y650D01*
X757Y649D01*
X757Y648D01*
X757Y648D01*
Y648D01*
X757Y648D01*
Y648D01*
X777D01*
X776Y649D01*
X776Y650D01*
X775Y651D01*
X775Y652D01*
X774Y653D01*
X774Y653D01*
X774Y654D01*
X773Y654D01*
X772Y654D01*
X771Y655D01*
X770Y655D01*
X769Y656D01*
X768Y656D01*
X768Y656D01*
X767D01*
X767Y656D01*
D02*
G37*
G36*
X512Y732D02*
X499D01*
X502Y718D01*
X513D01*
X515Y718D01*
X516Y719D01*
X517Y719D01*
X518Y719D01*
X519Y719D01*
X519Y719D01*
X519D01*
X520Y720D01*
X521Y720D01*
X521Y721D01*
X521Y722D01*
X521Y723D01*
X522Y723D01*
Y723D01*
Y724D01*
X521Y725D01*
X521Y726D01*
X521Y728D01*
X520Y728D01*
X519Y729D01*
X518Y730D01*
X517Y731D01*
X516Y731D01*
X514Y732D01*
X513Y732D01*
X512Y732D01*
X512Y732D01*
D02*
G37*
G36*
X764Y531D02*
X764D01*
X762Y531D01*
X761Y531D01*
X760Y530D01*
X759Y530D01*
X758Y529D01*
X758Y529D01*
X757Y529D01*
X757Y529D01*
X757Y529D01*
X757D01*
X756Y528D01*
X755Y527D01*
X755Y526D01*
X754Y525D01*
X754Y524D01*
X754Y523D01*
X754Y523D01*
Y523D01*
X754Y523D01*
Y523D01*
X774D01*
X773Y524D01*
X773Y525D01*
X772Y526D01*
X772Y527D01*
X771Y528D01*
X771Y528D01*
X770Y529D01*
X770Y529D01*
X769Y529D01*
X768Y530D01*
X767Y530D01*
X766Y531D01*
X765Y531D01*
X765Y531D01*
X764D01*
X764Y531D01*
D02*
G37*
G36*
X573Y541D02*
X573D01*
X572Y541D01*
X572Y541D01*
X571Y541D01*
X571Y541D01*
X570Y540D01*
X570Y540D01*
X570Y540D01*
X570Y540D01*
X569Y540D01*
X569Y539D01*
X568Y539D01*
X568Y539D01*
X568Y539D01*
Y538D01*
X568Y538D01*
X567Y537D01*
X567Y536D01*
X567Y536D01*
X566Y535D01*
X566Y535D01*
X566Y534D01*
X566Y534D01*
Y534D01*
X566Y533D01*
X566Y532D01*
X565Y531D01*
X565Y530D01*
X565Y530D01*
X565Y529D01*
Y529D01*
Y529D01*
Y529D01*
Y529D01*
Y524D01*
X565Y522D01*
X566Y520D01*
X566Y519D01*
X566Y518D01*
X566Y517D01*
X567Y517D01*
X567Y516D01*
X567Y516D01*
X567Y515D01*
X567Y515D01*
X567Y515D01*
Y515D01*
X568Y514D01*
X568Y514D01*
X569Y513D01*
X569Y513D01*
X570Y513D01*
X570Y512D01*
X571Y512D01*
X572Y512D01*
X572Y511D01*
X573Y511D01*
X573D01*
X574Y511D01*
X574Y512D01*
X575Y512D01*
X575Y512D01*
X576Y512D01*
X576Y512D01*
X576Y512D01*
X576Y512D01*
X577Y513D01*
X578Y513D01*
X578Y514D01*
X578Y514D01*
Y514D01*
X578Y514D01*
X579Y515D01*
X579Y516D01*
X579Y516D01*
X580Y517D01*
X580Y518D01*
X580Y518D01*
X580Y518D01*
X580Y519D01*
X580Y520D01*
X581Y521D01*
X581Y522D01*
X581Y523D01*
X581Y523D01*
Y524D01*
Y524D01*
Y524D01*
Y524D01*
Y529D01*
X581Y530D01*
X581Y532D01*
X580Y533D01*
X580Y535D01*
X580Y535D01*
X579Y536D01*
X579Y536D01*
X579Y537D01*
X579Y537D01*
X579Y537D01*
X579Y537D01*
Y537D01*
X578Y538D01*
X578Y538D01*
X578Y539D01*
X577Y539D01*
X577Y540D01*
X576Y540D01*
X575Y541D01*
X574Y541D01*
X574Y541D01*
X573Y541D01*
D02*
G37*
G36*
X609Y656D02*
X608D01*
X607Y656D01*
X606Y656D01*
X605Y655D01*
X604Y655D01*
X603Y654D01*
X602Y654D01*
X602Y654D01*
X602Y654D01*
X602Y654D01*
X602D01*
X601Y653D01*
X600Y652D01*
X600Y651D01*
X599Y650D01*
X599Y649D01*
X599Y648D01*
X598Y648D01*
Y648D01*
X598Y648D01*
Y648D01*
X618D01*
X618Y649D01*
X617Y650D01*
X617Y651D01*
X616Y652D01*
X616Y653D01*
X615Y653D01*
X615Y654D01*
X615Y654D01*
X614Y654D01*
X613Y655D01*
X612Y655D01*
X611Y656D01*
X610Y656D01*
X609Y656D01*
X609D01*
X609Y656D01*
D02*
G37*
G36*
X450D02*
X449D01*
X449Y656D01*
X448Y656D01*
X447Y656D01*
X445Y655D01*
X444Y655D01*
X444Y654D01*
X443Y654D01*
X443Y653D01*
X443Y653D01*
X442Y653D01*
X442Y653D01*
X442Y653D01*
X441Y652D01*
X441Y651D01*
X441Y651D01*
X440Y650D01*
X440Y649D01*
X440Y648D01*
X440Y647D01*
Y647D01*
X439Y647D01*
Y646D01*
Y646D01*
Y646D01*
X440Y645D01*
X440Y645D01*
X440Y643D01*
X440Y642D01*
X441Y641D01*
X441Y640D01*
X442Y640D01*
X442Y640D01*
X442Y639D01*
X442Y639D01*
X442Y639D01*
X443Y639D01*
X444Y638D01*
X444Y638D01*
X445Y638D01*
X446Y637D01*
X447Y637D01*
X448Y637D01*
X448Y636D01*
X449Y636D01*
X449Y636D01*
X449D01*
X450Y636D01*
X451Y636D01*
X452Y637D01*
X453Y637D01*
X455Y638D01*
X455Y638D01*
X456Y639D01*
X456Y639D01*
X456Y639D01*
X456Y639D01*
X456Y639D01*
X456Y639D01*
X457Y640D01*
X457Y640D01*
X458Y641D01*
X458Y642D01*
X459Y643D01*
X459Y644D01*
X459Y645D01*
X459Y645D01*
X459Y645D01*
X459Y646D01*
Y646D01*
Y646D01*
Y646D01*
X459Y647D01*
X459Y648D01*
X459Y649D01*
X458Y650D01*
X458Y651D01*
X457Y652D01*
X457Y653D01*
X457Y653D01*
X457Y653D01*
X457Y653D01*
X456Y653D01*
X456Y654D01*
X455Y654D01*
X455Y654D01*
X454Y655D01*
X453Y655D01*
X452Y656D01*
X451Y656D01*
X450Y656D01*
X450D01*
X450Y656D01*
D02*
G37*
G36*
X424Y591D02*
X424D01*
X422Y591D01*
X421Y591D01*
X420Y590D01*
X419Y590D01*
X418Y589D01*
X418Y589D01*
X418Y589D01*
X417Y589D01*
X417Y589D01*
X417D01*
X416Y588D01*
X416Y587D01*
X415Y586D01*
X415Y585D01*
X414Y584D01*
X414Y583D01*
X414Y583D01*
Y583D01*
X414Y583D01*
Y583D01*
X434D01*
X433Y584D01*
X433Y585D01*
X432Y586D01*
X432Y587D01*
X431Y588D01*
X431Y588D01*
X430Y589D01*
X430Y589D01*
X429Y589D01*
X428Y590D01*
X427Y590D01*
X426Y591D01*
X425Y591D01*
X425Y591D01*
X424D01*
X424Y591D01*
D02*
G37*
G36*
X514Y647D02*
X513D01*
X512Y647D01*
X511D01*
X511Y647D01*
X510Y646D01*
X510D01*
X510Y646D01*
X510D01*
X509Y646D01*
X508Y646D01*
X508Y646D01*
X507Y646D01*
X507Y646D01*
X507Y646D01*
X507D01*
Y641D01*
X507Y640D01*
X508Y639D01*
X509Y639D01*
X510Y638D01*
X511Y638D01*
X511Y638D01*
X511Y638D01*
X512Y637D01*
X512Y637D01*
X513Y637D01*
X514Y637D01*
X515Y636D01*
X516Y636D01*
X516Y636D01*
X517D01*
X518Y636D01*
X519Y637D01*
X520Y637D01*
X520Y637D01*
X521Y637D01*
X521Y637D01*
X521Y638D01*
X521Y638D01*
X522Y638D01*
X522Y639D01*
X522Y639D01*
X523Y640D01*
X523Y640D01*
X523Y641D01*
Y641D01*
Y641D01*
X523Y642D01*
X522Y642D01*
X522Y643D01*
X522Y644D01*
X521Y644D01*
X521Y644D01*
X521Y645D01*
X521Y645D01*
X520Y645D01*
X519Y646D01*
X517Y646D01*
X516Y646D01*
X515Y647D01*
X515Y647D01*
X514D01*
X514Y647D01*
D02*
G37*
G36*
X703Y663D02*
X703D01*
X697Y647D01*
X709D01*
X703Y663D01*
D02*
G37*
G36*
X894Y656D02*
X893D01*
X893Y656D01*
X892Y656D01*
X891Y656D01*
X889Y655D01*
X888Y655D01*
X887Y654D01*
X887Y654D01*
X887Y653D01*
X886Y653D01*
X886Y653D01*
X886Y653D01*
X886Y653D01*
X885Y652D01*
X885Y651D01*
X885Y651D01*
X884Y650D01*
X884Y649D01*
X884Y648D01*
X883Y647D01*
Y647D01*
X883Y647D01*
Y646D01*
Y646D01*
Y646D01*
X883Y645D01*
X883Y645D01*
X884Y643D01*
X884Y642D01*
X885Y641D01*
X885Y640D01*
X886Y640D01*
X886Y640D01*
X886Y639D01*
X886Y639D01*
X886Y639D01*
X887Y639D01*
X887Y638D01*
X888Y638D01*
X889Y638D01*
X890Y637D01*
X891Y637D01*
X892Y637D01*
X892Y636D01*
X893Y636D01*
X893Y636D01*
X893D01*
X894Y636D01*
X895Y636D01*
X896Y637D01*
X897Y637D01*
X898Y638D01*
X899Y638D01*
X900Y639D01*
X900Y639D01*
X900Y639D01*
X900Y639D01*
X900Y639D01*
X900Y639D01*
X901Y640D01*
X901Y640D01*
X902Y641D01*
X902Y642D01*
X903Y643D01*
X903Y644D01*
X903Y645D01*
X903Y645D01*
X903Y645D01*
X903Y646D01*
Y646D01*
Y646D01*
Y646D01*
X903Y647D01*
X903Y648D01*
X903Y649D01*
X902Y650D01*
X902Y651D01*
X901Y652D01*
X901Y653D01*
X901Y653D01*
X901Y653D01*
X900Y653D01*
X900Y653D01*
X900Y654D01*
X899Y654D01*
X899Y654D01*
X898Y655D01*
X897Y655D01*
X896Y656D01*
X895Y656D01*
X894Y656D01*
X894D01*
X894Y656D01*
D02*
G37*
G36*
X644Y1008D02*
X638D01*
X640Y1007D01*
X642Y1007D01*
X644Y1006D01*
X644Y1006D01*
X645Y1006D01*
X646Y1005D01*
X646Y1004D01*
Y1002D01*
Y1002D01*
X646Y1001D01*
X645Y1000D01*
X645Y999D01*
X644D01*
X643Y999D01*
X642D01*
X642Y999D01*
X642Y1000D01*
X642Y1001D01*
X642Y1001D01*
X642Y1002D01*
X643Y1002D01*
X644Y1003D01*
Y1004D01*
Y1004D01*
X643Y1004D01*
X643D01*
X643Y1004D01*
X642D01*
X641Y1004D01*
Y1005D01*
X641Y1005D01*
X640D01*
X640Y1005D01*
X640Y1005D01*
X639Y1004D01*
X638D01*
X638Y1005D01*
Y1005D01*
X637Y1006D01*
X637D01*
Y1005D01*
Y1005D01*
X637Y1003D01*
X638Y1003D01*
X639D01*
X640Y1003D01*
X641D01*
Y1003D01*
Y1002D01*
X641Y1002D01*
X640Y1000D01*
X639Y1000D01*
Y1000D01*
X639Y999D01*
X638Y998D01*
Y998D01*
X639Y998D01*
X641D01*
X641Y998D01*
Y998D01*
X641Y997D01*
X641Y996D01*
X640Y996D01*
X640Y995D01*
Y994D01*
X640Y994D01*
Y994D01*
X640Y994D01*
X641D01*
X642Y994D01*
X642Y995D01*
X642Y996D01*
X643Y997D01*
X644Y998D01*
X645Y999D01*
X645Y999D01*
X646D01*
X646Y999D01*
X646Y998D01*
Y998D01*
Y997D01*
Y997D01*
X647D01*
X647Y997D01*
X647Y997D01*
X648Y999D01*
Y1001D01*
Y1002D01*
Y1003D01*
X648Y1004D01*
X647Y1005D01*
X646Y1006D01*
X646Y1007D01*
X646D01*
X644Y1008D01*
D02*
G37*
G36*
X628Y1001D02*
X627D01*
X627Y1001D01*
X626Y1001D01*
X627Y1000D01*
Y1000D01*
X627Y999D01*
X628Y999D01*
X628Y999D01*
X629D01*
X629Y999D01*
Y999D01*
Y1000D01*
Y1000D01*
X629Y1001D01*
X628Y1001D01*
D02*
G37*
G36*
X698Y1022D02*
X697Y1021D01*
X697Y1020D01*
X697Y1019D01*
Y1019D01*
Y1018D01*
Y1018D01*
Y1018D01*
X697D01*
X698Y1018D01*
X698Y1019D01*
Y1019D01*
Y1020D01*
Y1021D01*
X698Y1021D01*
Y1022D01*
D02*
G37*
G36*
X572Y1025D02*
X571D01*
X571Y1025D01*
X570Y1024D01*
Y1024D01*
Y1024D01*
X570Y1023D01*
X571Y1023D01*
X571D01*
X572Y1023D01*
X572Y1023D01*
X573Y1024D01*
X572Y1024D01*
X572Y1025D01*
D02*
G37*
G36*
X662Y1025D02*
X661Y1024D01*
X660D01*
Y1024D01*
X661Y1023D01*
X662Y1022D01*
X662Y1022D01*
X663Y1021D01*
X664Y1021D01*
X665Y1021D01*
X665D01*
Y1021D01*
Y1022D01*
X666Y1022D01*
X669D01*
X667Y1023D01*
X666Y1023D01*
X665Y1024D01*
X664Y1024D01*
X662D01*
X662Y1025D01*
D02*
G37*
G36*
X680Y1019D02*
Y1019D01*
X680Y1018D01*
X680Y1018D01*
Y1017D01*
X681Y1016D01*
X682Y1015D01*
X683Y1015D01*
X684Y1014D01*
X687Y1013D01*
X690Y1011D01*
X694Y1009D01*
X697Y1006D01*
X699Y1004D01*
X701Y1002D01*
X702Y1001D01*
X703Y1001D01*
X704Y1000D01*
X704Y1000D01*
X705Y999D01*
X706Y998D01*
X708Y997D01*
X709Y996D01*
X709Y996D01*
X710Y996D01*
Y997D01*
X709Y998D01*
X708Y999D01*
X706Y1001D01*
X704Y1003D01*
X702Y1005D01*
X700Y1006D01*
X699Y1008D01*
X698Y1008D01*
X697Y1009D01*
X697Y1010D01*
X696Y1012D01*
Y1013D01*
Y1013D01*
X697Y1014D01*
Y1015D01*
Y1015D01*
X696D01*
X695Y1014D01*
X695Y1014D01*
X694Y1014D01*
X693Y1013D01*
X693Y1013D01*
X692D01*
X690Y1013D01*
X689Y1014D01*
X687Y1015D01*
X686Y1015D01*
X686D01*
X684Y1017D01*
X682Y1018D01*
X681Y1018D01*
X681Y1019D01*
X680Y1019D01*
D02*
G37*
G36*
X624Y988D02*
X624D01*
X624Y987D01*
Y986D01*
X624Y986D01*
Y986D01*
X624Y986D01*
X625Y986D01*
Y987D01*
Y987D01*
X624Y988D01*
D02*
G37*
G36*
X675Y1001D02*
X675D01*
X674Y1001D01*
X674Y1000D01*
Y999D01*
Y998D01*
X674Y997D01*
X674Y996D01*
X675Y995D01*
X675D01*
X676Y995D01*
X678Y994D01*
X681Y993D01*
X682Y992D01*
X684Y991D01*
X685Y990D01*
X685Y990D01*
X689Y988D01*
X692Y986D01*
X694Y986D01*
X696Y985D01*
X697D01*
X697Y986D01*
X698Y986D01*
Y986D01*
X697Y987D01*
X696Y989D01*
X694Y990D01*
X693Y990D01*
X693Y991D01*
X689Y994D01*
X685Y996D01*
X683Y997D01*
X682Y998D01*
X682Y998D01*
X681D01*
X679Y999D01*
X678Y1000D01*
X677Y1000D01*
X676Y1001D01*
X675Y1001D01*
D02*
G37*
G36*
X678Y1008D02*
X678D01*
X677Y1008D01*
X676Y1007D01*
X675Y1007D01*
Y1006D01*
X675Y1005D01*
Y1005D01*
Y1004D01*
X675Y1004D01*
X676Y1003D01*
X678Y1003D01*
X679Y1002D01*
X681Y1001D01*
X682Y1000D01*
X683Y1000D01*
X683Y999D01*
X686Y998D01*
X689Y996D01*
X691Y995D01*
X692Y994D01*
X693Y993D01*
X695Y992D01*
X695Y992D01*
X695Y991D01*
X697Y990D01*
X698Y990D01*
X698D01*
X700Y989D01*
X701Y989D01*
X702D01*
X702Y989D01*
X703Y990D01*
Y990D01*
X702Y991D01*
X701Y993D01*
X699Y994D01*
X697Y996D01*
X695Y998D01*
X693Y999D01*
X692Y1000D01*
X692Y1000D01*
X688Y1003D01*
X685Y1005D01*
X682Y1006D01*
X680Y1007D01*
X679Y1008D01*
X678Y1008D01*
D02*
G37*
G36*
X681Y1013D02*
X680D01*
X679Y1012D01*
Y1012D01*
X680Y1011D01*
X680Y1010D01*
X682Y1009D01*
X685Y1007D01*
X685Y1007D01*
X686Y1007D01*
X690Y1004D01*
X694Y1002D01*
X695Y1001D01*
X697Y1000D01*
X697Y999D01*
X698Y999D01*
X700Y997D01*
X701Y996D01*
X703Y995D01*
X703Y994D01*
X704Y993D01*
Y993D01*
X705Y992D01*
X705Y992D01*
X706D01*
X707Y992D01*
X707Y993D01*
X708Y993D01*
X707Y994D01*
X706Y995D01*
X705Y996D01*
X704Y997D01*
X703Y998D01*
X702Y999D01*
X701Y1000D01*
X701Y1000D01*
X696Y1004D01*
X693Y1006D01*
X692Y1007D01*
X690Y1008D01*
X689Y1009D01*
X688Y1010D01*
X688D01*
X686Y1010D01*
X685Y1011D01*
X684Y1012D01*
X684D01*
X682Y1012D01*
X681Y1013D01*
D02*
G37*
G36*
X636Y995D02*
Y995D01*
Y994D01*
Y994D01*
Y993D01*
Y993D01*
X636Y991D01*
X636Y990D01*
X635Y989D01*
Y989D01*
X635Y988D01*
X634Y987D01*
Y986D01*
Y986D01*
X634Y985D01*
X634Y984D01*
X634Y984D01*
X633D01*
X633Y984D01*
X632Y984D01*
Y985D01*
X632Y985D01*
X631Y986D01*
X631Y985D01*
X630Y985D01*
X630Y984D01*
X630Y984D01*
Y984D01*
X631Y983D01*
X632Y982D01*
X634Y982D01*
X634D01*
X635Y982D01*
X636Y983D01*
X637Y983D01*
Y983D01*
Y985D01*
X637Y986D01*
Y986D01*
X638Y987D01*
X638Y988D01*
X638D01*
X638Y989D01*
Y990D01*
X638Y990D01*
Y990D01*
X638Y991D01*
Y992D01*
Y992D01*
X638Y992D01*
X639Y991D01*
X639Y991D01*
X639Y991D01*
X640Y990D01*
X641Y990D01*
X641Y990D01*
X641Y991D01*
X640Y991D01*
X639Y992D01*
X639Y993D01*
X637Y994D01*
X636Y995D01*
X636Y995D01*
D02*
G37*
G36*
X706Y1050D02*
X705D01*
X704Y1049D01*
Y1049D01*
X705Y1049D01*
X705Y1049D01*
X705Y1048D01*
X705Y1048D01*
X706D01*
X707Y1048D01*
Y1049D01*
X706Y1049D01*
X706Y1050D01*
D02*
G37*
G36*
X680Y1048D02*
X680D01*
X680Y1047D01*
X679Y1047D01*
Y1047D01*
Y1046D01*
X680Y1046D01*
X680Y1045D01*
X680Y1045D01*
X681D01*
X681Y1045D01*
Y1046D01*
Y1046D01*
Y1046D01*
X681Y1047D01*
X680Y1048D01*
D02*
G37*
G36*
X699Y1047D02*
X698D01*
Y1047D01*
X699Y1046D01*
X700Y1046D01*
X700Y1045D01*
X701Y1045D01*
X703D01*
Y1045D01*
Y1045D01*
X703Y1045D01*
X701Y1046D01*
X701Y1047D01*
X701D01*
X699Y1047D01*
D02*
G37*
G36*
X717Y1058D02*
X717D01*
X716Y1057D01*
X715Y1057D01*
Y1057D01*
X715Y1055D01*
X715Y1054D01*
X716Y1053D01*
Y1053D01*
X716Y1053D01*
X716D01*
X717Y1053D01*
X717Y1054D01*
X717Y1055D01*
Y1055D01*
X718Y1057D01*
X717Y1057D01*
X717Y1058D01*
Y1058D01*
D02*
G37*
G36*
X686Y1055D02*
X686D01*
X685Y1055D01*
X685Y1054D01*
X685Y1054D01*
X683Y1053D01*
X683Y1052D01*
X683Y1052D01*
Y1051D01*
X684Y1051D01*
X685Y1051D01*
X685Y1052D01*
X686Y1052D01*
X686Y1054D01*
X686Y1055D01*
Y1055D01*
Y1055D01*
D02*
G37*
G36*
X691Y1054D02*
X690Y1054D01*
X690Y1053D01*
X689Y1052D01*
X689Y1052D01*
X688Y1051D01*
X688Y1050D01*
Y1050D01*
X688Y1050D01*
X689D01*
X690Y1050D01*
X691Y1051D01*
X691Y1052D01*
Y1053D01*
X691Y1054D01*
D02*
G37*
G36*
X704Y1037D02*
X704Y1036D01*
X703Y1036D01*
Y1036D01*
X702Y1035D01*
X700D01*
X700Y1035D01*
X698Y1036D01*
X698Y1036D01*
X697D01*
Y1036D01*
X698Y1035D01*
X699Y1034D01*
X699Y1033D01*
X701Y1033D01*
X702D01*
X702Y1033D01*
X703D01*
X704Y1034D01*
X704Y1035D01*
X704Y1036D01*
Y1036D01*
X704Y1037D01*
D02*
G37*
G36*
X667Y1032D02*
X667D01*
X666Y1032D01*
X666Y1031D01*
X666Y1031D01*
Y1031D01*
X666Y1030D01*
Y1030D01*
X666D01*
X667Y1030D01*
X667Y1030D01*
X668Y1031D01*
Y1031D01*
X667Y1032D01*
D02*
G37*
G36*
X688Y1028D02*
X685D01*
X683Y1027D01*
X684Y1026D01*
X685Y1026D01*
X686D01*
X687Y1026D01*
X687Y1026D01*
X688Y1025D01*
Y1025D01*
X688Y1024D01*
X689Y1024D01*
X689Y1024D01*
X689D01*
X690Y1024D01*
X691Y1025D01*
X691Y1026D01*
Y1026D01*
X691Y1026D01*
X690Y1027D01*
X689Y1028D01*
X688Y1028D01*
D02*
G37*
G36*
X711Y1046D02*
X710D01*
X710Y1045D01*
Y1045D01*
X710Y1045D01*
X711Y1044D01*
X712Y1044D01*
X712D01*
X713Y1043D01*
X713Y1043D01*
X713D01*
Y1043D01*
X713Y1044D01*
X713Y1044D01*
X713Y1045D01*
X712Y1045D01*
X711Y1046D01*
D02*
G37*
G36*
X697Y1044D02*
X695D01*
X695Y1044D01*
Y1043D01*
Y1043D01*
X695Y1042D01*
X696Y1041D01*
X697Y1041D01*
X697Y1041D01*
X699Y1041D01*
X700D01*
X700Y1041D01*
X701D01*
X701Y1041D01*
X701Y1042D01*
X700Y1042D01*
X699Y1043D01*
X698Y1043D01*
X697Y1044D01*
D02*
G37*
%LPD*%
G36*
X651Y952D02*
X651Y952D01*
X652Y951D01*
Y950D01*
Y950D01*
X651Y949D01*
X651Y949D01*
X651Y949D01*
X650D01*
X650Y949D01*
X649Y950D01*
Y950D01*
Y952D01*
X650Y952D01*
X650Y953D01*
X650D01*
X651Y952D01*
D02*
G37*
D20*
X1900Y990D02*
G03*
X1900Y950I0J-20D01*
G01*
Y910D02*
G03*
X1900Y950I0J20D01*
G01*
Y710D02*
G03*
X1900Y750I0J20D01*
G01*
Y790D02*
G03*
X1900Y750I0J-20D01*
G01*
X-115Y725D02*
Y758D01*
Y742D01*
X-165D01*
Y775D02*
X-115D01*
Y800D01*
X-123Y808D01*
X-140D01*
X-148Y800D01*
Y775D01*
X-165Y825D02*
Y842D01*
Y833D01*
X-115D01*
X-123Y825D01*
X-45Y725D02*
Y758D01*
Y742D01*
X-95D01*
Y775D02*
X-45D01*
Y800D01*
X-53Y808D01*
X-70D01*
X-78Y800D01*
Y775D01*
X-95Y858D02*
Y825D01*
X-62Y858D01*
X-53D01*
X-45Y850D01*
Y833D01*
X-53Y825D01*
X1635Y910D02*
X1585D01*
Y885D01*
X1593Y877D01*
X1610D01*
X1618Y885D01*
Y910D01*
X1585Y860D02*
X1635D01*
X1618Y843D01*
X1635Y827D01*
X1585D01*
X1635Y810D02*
X1585D01*
Y785D01*
X1593Y777D01*
X1610D01*
X1618Y785D01*
Y810D01*
Y793D02*
X1635Y777D01*
X1720Y985D02*
Y968D01*
Y977D01*
X1670D01*
X1678Y985D01*
X1720Y910D02*
Y943D01*
X1687Y910D01*
X1678D01*
X1670Y918D01*
Y935D01*
X1678Y943D01*
X1695Y893D02*
Y860D01*
X1720Y810D02*
Y843D01*
X1687Y810D01*
X1678D01*
X1670Y818D01*
Y835D01*
X1678Y843D01*
X1720Y768D02*
X1670D01*
X1695Y793D01*
Y760D01*
X1670Y743D02*
X1703D01*
X1720Y727D01*
X1703Y710D01*
X1670D01*
X-145Y1300D02*
Y1267D01*
X-162Y1250D01*
X-178Y1267D01*
Y1300D01*
X-195Y1275D02*
X-228D01*
X-212Y1292D02*
Y1258D01*
X30Y1360D02*
X13D01*
X22D01*
Y1310D01*
X30D01*
X13D01*
X-12D02*
Y1343D01*
X-37D01*
X-45Y1335D01*
Y1310D01*
X232Y1297D02*
X240Y1305D01*
X257D01*
X265Y1297D01*
Y1263D01*
X257Y1255D01*
X240D01*
X232Y1263D01*
Y1280D01*
X248D01*
X215Y1255D02*
Y1305D01*
X182Y1255D01*
Y1305D01*
X165D02*
Y1255D01*
X140D01*
X132Y1263D01*
Y1297D01*
X140Y1305D01*
X165D01*
X-1417Y990D02*
Y979D01*
X-1428Y968D01*
X-1438D01*
X-1444Y974D01*
Y984D01*
X-1433Y995D01*
X-1433Y1006D01*
X-1438Y1011D01*
X-1449D01*
X-1460Y1000D01*
Y990D01*
X-1385Y1022D02*
Y1011D01*
X-1396Y1000D01*
X-1407D01*
X-1428Y1022D01*
Y1032D01*
X-1417Y1043D01*
X-1407D01*
X-1370Y1027D02*
X-1401Y1059D01*
X-1380Y1080D01*
X-1318Y993D02*
X-1297Y1014D01*
X-1308Y1004D01*
X-1339Y1036D01*
X-1286Y1025D02*
X-1297Y1078D01*
X-1265Y1046D02*
X-1318Y1057D01*
X-1028Y1287D02*
Y1297D01*
X-1039Y1308D01*
X-1050D01*
X-1055Y1302D01*
Y1292D01*
X-1050Y1287D01*
X-1055Y1292D01*
X-1066Y1292D01*
X-1071Y1287D01*
Y1276D01*
X-1060Y1265D01*
X-1050D01*
X-1087Y1292D02*
X-1082Y1297D01*
X-1087Y1302D01*
X-1092Y1297D01*
X-1087Y1292D01*
Y1345D02*
Y1355D01*
X-1097Y1366D01*
X-1108D01*
X-1113Y1361D01*
Y1350D01*
X-1108Y1345D01*
X-1113Y1350D01*
X-1124Y1350D01*
X-1129Y1345D01*
Y1334D01*
X-1119Y1324D01*
X-1108D01*
X-1118Y1292D02*
X-1139Y1271D01*
X-1161D01*
X-1161Y1292D01*
X-1139Y1313D01*
X-1182Y1292D02*
X-1192Y1302D01*
X-1187Y1297D01*
X-1166Y1318D01*
X-1161Y1313D01*
X-1208Y1318D02*
X-1187Y1340D01*
X-1203Y1355D01*
X-1214D01*
X-1230Y1340D01*
X-1260Y1265D02*
X-1228Y1297D01*
X-1244Y1313D01*
X-1255D01*
X-1265Y1302D01*
X-1265Y1292D01*
X-1249Y1276D01*
X-1260Y1286D02*
X-1281Y1286D01*
X-1260Y1329D02*
X-1313Y1318D01*
X-1281Y1350D02*
X-1292Y1297D01*
X-1340Y1298D02*
X-1329D01*
X-1318Y1287D01*
Y1277D01*
X-1324Y1271D01*
X-1334D01*
X-1345Y1282D01*
X-1356Y1282D01*
X-1361Y1277D01*
Y1266D01*
X-1350Y1255D01*
X-1340D01*
X-1345Y1314D02*
X-1377Y1282D01*
X-1393Y1298D01*
Y1308D01*
X-1372Y1330D01*
X-1361D01*
X-1345Y1314D01*
X-1409D02*
X-1387Y1335D01*
Y1356D01*
X-1409Y1356D01*
X-1430Y1335D01*
X-1414Y1351D01*
X-1393Y1330D01*
X-1440Y1298D02*
X-1429D01*
X-1418Y1287D01*
Y1277D01*
X-1440Y1255D01*
X-1450D01*
X-1461Y1266D01*
Y1277D01*
X-1450Y1287D01*
X-1440Y1277D01*
X-1477Y1282D02*
X-1445Y1314D01*
X-1498Y1303D01*
X-1466Y1335D01*
X-1477Y1345D02*
X-1509Y1314D01*
X-1525Y1330D01*
Y1340D01*
X-1503Y1361D01*
X-1493D01*
X-1477Y1345D01*
X-1133Y978D02*
X-1123D01*
X-1112Y989D01*
Y1000D01*
X-1118Y1005D01*
X-1128D01*
X-1133Y1000D01*
X-1128Y1005D01*
X-1128Y1016D01*
X-1133Y1021D01*
X-1144D01*
X-1155Y1010D01*
Y1000D01*
X-1128Y1037D02*
X-1123Y1032D01*
X-1118Y1037D01*
X-1123Y1042D01*
X-1128Y1037D01*
X-1075D02*
X-1065D01*
X-1054Y1047D01*
Y1058D01*
X-1059Y1063D01*
X-1070D01*
X-1075Y1058D01*
X-1070Y1063D01*
X-1070Y1074D01*
X-1075Y1079D01*
X-1086D01*
X-1096Y1069D01*
Y1058D01*
X-1512Y1000D02*
Y989D01*
X-1523Y978D01*
X-1533D01*
X-1555Y1000D01*
Y1010D01*
X-1544Y1021D01*
X-1533D01*
X-1523Y1010D01*
X-1533Y1000D01*
X-1528Y1037D02*
X-1496Y1005D01*
X-1507Y1058D01*
X-1475Y1026D01*
X-1465Y1037D02*
X-1496Y1069D01*
X-1480Y1085D01*
X-1470D01*
X-1449Y1063D01*
Y1053D01*
X-1465Y1037D01*
M02*
