%FSLAX23Y23*%
%MOIN*%
G70*
G01*
G75*
G04 Layer_Color=8388736*
%ADD10R,0.050X0.035*%
%ADD11R,0.054X0.050*%
%ADD12R,0.050X0.054*%
%ADD13C,0.055*%
%ADD14R,0.025X0.070*%
%ADD15R,0.025X0.075*%
%ADD16C,0.020*%
%ADD17C,0.015*%
%ADD18C,0.025*%
%ADD19C,0.030*%
%ADD20C,0.040*%
%ADD21C,0.010*%
%ADD22C,0.050*%
%ADD23C,0.063*%
%ADD24P,0.068X8X202.5*%
%ADD25C,0.035*%
%ADD26C,0.065*%
%ADD27P,0.070X8X292.5*%
%ADD28P,0.070X8X22.5*%
%ADD29R,0.059X0.059*%
%ADD30C,0.059*%
%ADD31C,0.080*%
%ADD32C,0.059*%
%ADD33R,0.065X0.065*%
%ADD34C,0.217*%
%ADD35C,0.098*%
%ADD36R,0.098X0.098*%
%ADD37C,0.014*%
%ADD38C,0.008*%
%ADD39C,0.008*%
%ADD40C,0.010*%
%ADD41C,0.010*%
%ADD42R,0.400X0.050*%
%ADD43R,0.058X0.043*%
%ADD44R,0.062X0.058*%
%ADD45R,0.058X0.062*%
%ADD46C,0.063*%
%ADD47R,0.033X0.078*%
%ADD48R,0.033X0.083*%
%ADD49C,0.071*%
%ADD50P,0.077X8X202.5*%
%ADD51C,0.043*%
%ADD52C,0.073*%
%ADD53P,0.079X8X292.5*%
%ADD54P,0.079X8X22.5*%
%ADD55R,0.067X0.067*%
%ADD56C,0.067*%
%ADD57C,0.088*%
%ADD58C,0.067*%
%ADD59R,0.073X0.073*%
%ADD60C,0.225*%
%ADD61C,0.106*%
%ADD62R,0.106X0.106*%
D43*
X-690Y1265D02*
D03*
Y1185D02*
D03*
X-605Y1225D02*
D03*
D44*
X-800Y1120D02*
D03*
Y1200D02*
D03*
X-210Y1265D02*
D03*
Y1185D02*
D03*
X-310D02*
D03*
Y1265D02*
D03*
X-410Y1185D02*
D03*
Y1265D02*
D03*
X-510D02*
D03*
Y1185D02*
D03*
X525D02*
D03*
Y1265D02*
D03*
X425D02*
D03*
Y1185D02*
D03*
X325D02*
D03*
Y1265D02*
D03*
X225Y1185D02*
D03*
Y1265D02*
D03*
X-950Y685D02*
D03*
Y765D02*
D03*
X-1050Y685D02*
D03*
Y765D02*
D03*
D45*
X-690Y1085D02*
D03*
X-610D02*
D03*
X-510D02*
D03*
X-430D02*
D03*
D46*
X50Y500D02*
D03*
D47*
X425Y585D02*
D03*
Y965D02*
D03*
X825D02*
D03*
X775D02*
D03*
Y585D02*
D03*
X825D02*
D03*
X525Y965D02*
D03*
X475D02*
D03*
Y585D02*
D03*
X525D02*
D03*
X725Y965D02*
D03*
X675D02*
D03*
X625D02*
D03*
X575D02*
D03*
Y585D02*
D03*
X625D02*
D03*
X675D02*
D03*
X725D02*
D03*
X-425Y965D02*
D03*
X-475D02*
D03*
X-525D02*
D03*
X-575D02*
D03*
X-625D02*
D03*
X-675D02*
D03*
X-725D02*
D03*
X-775D02*
D03*
X-825D02*
D03*
Y585D02*
D03*
X-775D02*
D03*
X-725D02*
D03*
X-425D02*
D03*
X-475D02*
D03*
X-525D02*
D03*
X-575D02*
D03*
X-625D02*
D03*
X-675D02*
D03*
D48*
X-325D02*
D03*
X-275D02*
D03*
X-225D02*
D03*
X25D02*
D03*
X75D02*
D03*
X125D02*
D03*
X175D02*
D03*
X225D02*
D03*
X275D02*
D03*
X325D02*
D03*
Y965D02*
D03*
X275D02*
D03*
X225D02*
D03*
X175D02*
D03*
X125D02*
D03*
X75D02*
D03*
X25D02*
D03*
X-25D02*
D03*
X-75D02*
D03*
X-125D02*
D03*
X-175D02*
D03*
X-225D02*
D03*
X-275D02*
D03*
X-325D02*
D03*
X-175Y585D02*
D03*
X-125D02*
D03*
X-75D02*
D03*
X-25D02*
D03*
D49*
X905Y1050D02*
D03*
X965Y990D02*
D03*
D50*
X1025Y1050D02*
D03*
D51*
X-125Y645D02*
D03*
X-75D02*
D03*
D52*
X1825Y-250D02*
D03*
Y250D02*
D03*
X-50Y1090D02*
D03*
X-150D02*
D03*
X50D02*
D03*
X150D02*
D03*
X1175Y950D02*
D03*
X1075D02*
D03*
X-1750Y925D02*
D03*
Y525D02*
D03*
X-1850D02*
D03*
Y925D02*
D03*
X-1200Y575D02*
D03*
X-1300D02*
D03*
X-1200Y875D02*
D03*
X-1300D02*
D03*
X-1400D02*
D03*
X-1500D02*
D03*
X-1600D02*
D03*
Y575D02*
D03*
X-1500D02*
D03*
X-1400D02*
D03*
X-1550Y150D02*
D03*
X-1250D02*
D03*
Y-150D02*
D03*
X-1650Y150D02*
D03*
X-1450D02*
D03*
X-1350D02*
D03*
Y-150D02*
D03*
X-1450D02*
D03*
X-1550D02*
D03*
X-1650D02*
D03*
X-100Y150D02*
D03*
Y-150D02*
D03*
X-500Y150D02*
D03*
X-400D02*
D03*
X-300D02*
D03*
X-200D02*
D03*
Y-150D02*
D03*
X-300D02*
D03*
X-400D02*
D03*
X-500D02*
D03*
X500Y150D02*
D03*
Y-150D02*
D03*
X100D02*
D03*
X200D02*
D03*
X300D02*
D03*
X400D02*
D03*
Y150D02*
D03*
X300D02*
D03*
X200D02*
D03*
X100D02*
D03*
X1075D02*
D03*
Y-150D02*
D03*
X675Y150D02*
D03*
X775D02*
D03*
X875D02*
D03*
X975D02*
D03*
Y-150D02*
D03*
X875D02*
D03*
X775D02*
D03*
X675D02*
D03*
X1550Y150D02*
D03*
X1250Y-150D02*
D03*
X1350D02*
D03*
X1450D02*
D03*
X1550D02*
D03*
X1650D02*
D03*
Y150D02*
D03*
X1450D02*
D03*
X1350D02*
D03*
X1250D02*
D03*
X-1250Y-275D02*
D03*
X-1650D02*
D03*
Y-400D02*
D03*
X-1250D02*
D03*
X-1075Y-275D02*
D03*
X-675D02*
D03*
X-1075Y-400D02*
D03*
X-675D02*
D03*
X-500Y-275D02*
D03*
X-100D02*
D03*
X-500Y-400D02*
D03*
X-100D02*
D03*
X100Y-275D02*
D03*
X500D02*
D03*
X100Y-400D02*
D03*
X500D02*
D03*
X675Y-275D02*
D03*
X1075D02*
D03*
X675Y-400D02*
D03*
X1075D02*
D03*
X1250Y-275D02*
D03*
X1650D02*
D03*
X1250Y-400D02*
D03*
X1650D02*
D03*
X1250Y400D02*
D03*
X1650D02*
D03*
Y275D02*
D03*
X1250D02*
D03*
X675Y400D02*
D03*
X1075D02*
D03*
X675Y275D02*
D03*
X1075D02*
D03*
X100Y400D02*
D03*
X500D02*
D03*
X100Y275D02*
D03*
X500D02*
D03*
X-500Y400D02*
D03*
X-100D02*
D03*
X-500Y275D02*
D03*
X-100D02*
D03*
X-1075D02*
D03*
X-675D02*
D03*
X-1075Y400D02*
D03*
X-675D02*
D03*
Y150D02*
D03*
Y-150D02*
D03*
X-1075D02*
D03*
X-975D02*
D03*
X-875D02*
D03*
X-775D02*
D03*
Y150D02*
D03*
X-875D02*
D03*
X-975D02*
D03*
X-1075D02*
D03*
X-1650Y275D02*
D03*
X-1250D02*
D03*
X-1650Y400D02*
D03*
X-1250D02*
D03*
X-1175Y1175D02*
D03*
X-1275D02*
D03*
X-1175Y1075D02*
D03*
X-1075D02*
D03*
X-1275D02*
D03*
X-1375Y1175D02*
D03*
Y1075D02*
D03*
X-1475Y1175D02*
D03*
Y1075D02*
D03*
X0Y1225D02*
D03*
X-100D02*
D03*
X-1825Y250D02*
D03*
Y-250D02*
D03*
D53*
X1825Y-150D02*
D03*
Y150D02*
D03*
X-1825D02*
D03*
Y-150D02*
D03*
D54*
X-250Y1090D02*
D03*
D55*
X1050Y675D02*
D03*
X700Y1200D02*
D03*
X1425Y1025D02*
D03*
D56*
X1050Y825D02*
D03*
X700Y1100D02*
D03*
X1425Y1225D02*
D03*
D57*
X1125Y1200D02*
D03*
X1025D02*
D03*
X925D02*
D03*
D58*
X1325Y600D02*
D03*
X1525D02*
D03*
Y900D02*
D03*
X1325D02*
D03*
D59*
X-1075Y1175D02*
D03*
X100Y1225D02*
D03*
D60*
X1811Y-433D02*
D03*
Y1181D02*
D03*
X-1811D02*
D03*
Y-433D02*
D03*
D61*
X1800Y700D02*
D03*
D62*
Y900D02*
D03*
M02*
