M48
;Layer_Color=9474304
;FILE_FORMAT=2:3
INCH,LZ
;TYPE=PLATED
T1F00S00C0.020
T2F00S00C0.031
T3F00S00C0.039
T4F00S00C0.059
T5F00S00C0.118
%
T01
X00325Y00525
X00425Y01025
X003Y011
X00275Y01225
X-0036Y01145
X-0035Y01045
X-0043Y0103
X-0037Y0094
X-00725Y009
X-008Y0103
Y0128
X-006Y0117
X-008Y00725
X-01Y00875
X-0105
Y0096
X-0113Y0055
X-00325Y00525
X-00275
X-00225
X-00125Y00645
X-00075
X-00025Y00665
T02
X-0145Y-0015
X-0155
X-0165
Y-00275
Y-004
X-0125
Y-00275
Y-0015
X-0135
X-01075
X-00975
X-00875
X-00775
X-00675
Y-00275
Y-004
X-005
Y-00275
Y-0015
X-004
X-003
X-002
X-001
Y-00275
Y-004
X001
Y-00275
Y-0015
X-01075Y-00275
Y-004
X002Y-0015
X003
X004
X005
Y-00275
Y-004
X00675
Y-00275
Y-0015
X00775
X00875
X00975
X01075
Y-00275
Y-004
X0125
Y-00275
Y-0015
X0135
X0145
X0155
X0165
Y-00275
Y-004
Y0015
X0155
X0145
X0135
X0125
Y00275
Y004
X01075
Y00275
Y0015
X00975
X00875
X00775
X00675
Y00275
Y004
X005
Y00275
Y0015
X004
X003
X002
X0105Y00675
Y00825
X01075Y0095
X01175
X01325Y009
X01525
X01425Y01025
Y01225
X01025Y0105
X00905
X00965Y0099
X007Y011
Y012
X01325Y006
X01525
X0165Y004
Y00275
X001
Y0015
X-001
X-002
X-003
X-004
X-005
Y00275
Y004
X-00675
Y00275
Y0015
X-00775
X-00875
X-00975
X-01075
Y00275
Y004
X-0125
Y00275
Y0015
X-0135
X-013Y00575
X-012
Y00875
X-013
X-001Y004
Y00275
X001Y004
X-014Y00575
X-015
X-016
X-0175Y00525
X-0185
X-0165Y004
Y00275
Y0015
X-0155
X-0145
X-014Y00875
X-015
X-016
X-0175Y00925
X-0185
T03
X-01825Y-0015
Y-0025
X01825
Y-0015
Y0015
Y0025
X01125Y012
X01025
X00925
X001Y01225
X0
X-001
X-0005Y0109
X-0015
X-0025
X0005
X0015
X-01075Y01075
X-01175
Y01175
X-01275
Y01075
X-01375
Y01175
X-01075
X-01475
Y01075
X-01825Y0025
Y0015
T04
X018Y007
Y009
T05
X-01811Y-00433
X01811
Y01181
X-01811
M30
