%FSLAX23Y23*%
%MOIN*%
G70*
G01*
G75*
G04 Layer_Color=32896*
%ADD10R,0.050X0.035*%
%ADD11R,0.054X0.050*%
%ADD12R,0.050X0.054*%
%ADD13C,0.055*%
%ADD14R,0.025X0.070*%
%ADD15R,0.025X0.075*%
%ADD16C,0.020*%
%ADD17C,0.015*%
%ADD18C,0.025*%
%ADD19C,0.030*%
%ADD20C,0.040*%
%ADD21C,0.010*%
%ADD22C,0.050*%
%ADD23C,0.063*%
%ADD24P,0.068X8X202.5*%
%ADD25C,0.035*%
%ADD26C,0.065*%
%ADD27P,0.070X8X292.5*%
%ADD28P,0.070X8X22.5*%
%ADD29R,0.059X0.059*%
%ADD30C,0.059*%
%ADD31C,0.080*%
%ADD32C,0.059*%
%ADD33R,0.065X0.065*%
%ADD34C,0.217*%
%ADD35C,0.098*%
%ADD36R,0.098X0.098*%
%ADD37C,0.014*%
%ADD38C,0.008*%
%ADD39C,0.008*%
%ADD40C,0.010*%
%ADD41C,0.010*%
%ADD42R,0.400X0.050*%
G36*
X848Y542D02*
X848Y542D01*
X849Y542D01*
X849Y542D01*
X849Y542D01*
X849Y542D01*
X849Y541D01*
Y541D01*
X849Y541D01*
X849Y541D01*
X849Y541D01*
X849Y541D01*
X848Y540D01*
X848Y540D01*
X848Y540D01*
X845D01*
Y526D01*
X845Y525D01*
X844Y524D01*
X844Y523D01*
X844Y522D01*
X843Y522D01*
X843Y521D01*
X843Y521D01*
X843Y521D01*
X842Y520D01*
X841Y520D01*
X840Y520D01*
X840Y519D01*
X839Y519D01*
X838Y519D01*
X838D01*
X837Y519D01*
X836Y519D01*
X835Y520D01*
X834Y520D01*
X832Y520D01*
X832Y521D01*
X831Y521D01*
X830Y522D01*
X830Y522D01*
X829Y522D01*
X829Y523D01*
X829Y523D01*
X828Y523D01*
X828Y523D01*
X828Y523D01*
Y520D01*
X824D01*
X824Y520D01*
X823Y520D01*
X823Y520D01*
X823Y520D01*
X823Y521D01*
X823Y521D01*
X823Y521D01*
Y521D01*
X823Y521D01*
X823Y522D01*
X823Y522D01*
X823Y522D01*
X823Y522D01*
X824Y522D01*
X824Y522D01*
X826D01*
Y542D01*
X832D01*
X833Y542D01*
X833Y542D01*
X833Y542D01*
X833Y542D01*
X833Y542D01*
X834Y542D01*
X834Y541D01*
Y541D01*
X834Y541D01*
X833Y541D01*
X833Y541D01*
X833Y541D01*
X833Y540D01*
X833Y540D01*
X832Y540D01*
X828D01*
Y526D01*
X829Y525D01*
X830Y525D01*
X831Y524D01*
X832Y523D01*
X832Y523D01*
X833Y523D01*
X834Y522D01*
X835Y522D01*
X835Y522D01*
X836Y522D01*
X837Y522D01*
X837Y521D01*
X837D01*
X838Y521D01*
X838D01*
X839Y521D01*
X839Y522D01*
X840Y522D01*
X840Y522D01*
X841Y522D01*
X841Y522D01*
X841Y523D01*
X841Y523D01*
X842Y523D01*
X842Y524D01*
X842Y524D01*
X842Y525D01*
X842Y525D01*
X842Y526D01*
Y526D01*
Y526D01*
Y542D01*
X848D01*
X848Y542D01*
D02*
G37*
G36*
X587Y831D02*
X586Y831D01*
X586Y830D01*
X585Y830D01*
X585D01*
X585Y830D01*
X584D01*
Y830D01*
Y830D01*
X585Y831D01*
X586Y831D01*
X587Y831D01*
D02*
G37*
G36*
X905Y550D02*
X905Y550D01*
X905Y550D01*
X905Y550D01*
X905Y550D01*
X906Y549D01*
X906Y549D01*
Y549D01*
Y549D01*
Y542D01*
X910D01*
X910Y542D01*
X910Y542D01*
X911Y542D01*
X911Y542D01*
X911Y542D01*
X911Y542D01*
X911Y541D01*
Y541D01*
X911Y541D01*
X911Y541D01*
X911Y541D01*
X911Y541D01*
X910Y540D01*
X910Y540D01*
X910Y540D01*
X906D01*
Y526D01*
X905Y525D01*
X905Y524D01*
X905Y523D01*
X904Y522D01*
X904Y522D01*
X904Y521D01*
X903Y521D01*
X903Y521D01*
X902Y520D01*
X901Y520D01*
X900Y520D01*
X899Y519D01*
X899Y519D01*
X898Y519D01*
X898Y519D01*
X897D01*
X896Y519D01*
X895Y519D01*
X894Y519D01*
X893Y520D01*
X892Y520D01*
X892Y520D01*
X892Y520D01*
X891D01*
X891Y520D01*
X891D01*
X890Y520D01*
X889Y521D01*
X889Y521D01*
X888Y521D01*
X888Y522D01*
X887Y522D01*
X887Y522D01*
X887Y522D01*
X887Y522D01*
X887Y522D01*
X887Y523D01*
Y523D01*
X887Y523D01*
X887Y523D01*
X887Y523D01*
X887Y523D01*
X887Y524D01*
X888Y524D01*
X888Y524D01*
X888D01*
X888Y524D01*
X888Y524D01*
X889Y524D01*
X889Y523D01*
X889Y523D01*
X890Y523D01*
X891Y523D01*
X891Y522D01*
X892Y522D01*
X892Y522D01*
X893Y522D01*
X893Y522D01*
X893D01*
X894Y522D01*
X895Y522D01*
X895Y522D01*
X896Y521D01*
X897D01*
X897Y521D01*
X897D01*
X899Y521D01*
X899Y522D01*
X900Y522D01*
X901Y522D01*
X901Y522D01*
X902Y522D01*
X902Y523D01*
X902Y523D01*
X902Y523D01*
X903Y524D01*
X903Y524D01*
X903Y525D01*
X903Y525D01*
X903Y525D01*
Y526D01*
Y526D01*
Y540D01*
X892D01*
X891Y540D01*
X891Y540D01*
X891Y540D01*
X891Y541D01*
X890Y541D01*
X890Y541D01*
X890Y541D01*
Y541D01*
X890Y542D01*
X890Y542D01*
X890Y542D01*
X891Y542D01*
X891Y542D01*
X891Y542D01*
X892Y542D01*
X903D01*
Y549D01*
X903Y549D01*
X904Y550D01*
X904Y550D01*
X904Y550D01*
X904Y550D01*
X904Y550D01*
X904Y550D01*
X905D01*
X905Y550D01*
D02*
G37*
G36*
X596Y542D02*
X596Y542D01*
X596Y542D01*
X596Y542D01*
X596Y542D01*
X596Y542D01*
X597Y541D01*
Y541D01*
X596Y541D01*
X596Y541D01*
X596Y541D01*
X596Y541D01*
X596Y540D01*
X596Y540D01*
X595Y540D01*
X593D01*
X584Y520D01*
X580D01*
X571Y540D01*
X569D01*
X568Y540D01*
X568Y540D01*
X568Y540D01*
X568Y541D01*
X567Y541D01*
X567Y541D01*
X567Y541D01*
Y541D01*
X567Y542D01*
X567Y542D01*
X568Y542D01*
X568Y542D01*
X568Y542D01*
X568Y542D01*
X569Y542D01*
X578D01*
X578Y542D01*
X578Y542D01*
X579Y542D01*
X579Y542D01*
X579Y542D01*
X579Y542D01*
X579Y541D01*
Y541D01*
X579Y541D01*
X579Y541D01*
X579Y541D01*
X579Y541D01*
X578Y540D01*
X578Y540D01*
X578Y540D01*
X574D01*
X581Y522D01*
X582D01*
X590Y540D01*
X586D01*
X586Y540D01*
X585Y540D01*
X585Y540D01*
X585Y541D01*
X585Y541D01*
X585Y541D01*
X585Y541D01*
Y541D01*
X585Y542D01*
X585Y542D01*
X585Y542D01*
X585Y542D01*
X585Y542D01*
X586Y542D01*
X586Y542D01*
X595D01*
X596Y542D01*
D02*
G37*
G36*
X405D02*
X406Y542D01*
X406Y542D01*
X406Y542D01*
X406Y542D01*
X406Y542D01*
X406Y541D01*
Y541D01*
X406Y541D01*
X406Y541D01*
X406Y541D01*
X406Y541D01*
X406Y540D01*
X405Y540D01*
X405Y540D01*
X402D01*
X394Y520D01*
X390D01*
X381Y540D01*
X379D01*
X378Y540D01*
X378Y540D01*
X377Y540D01*
X377Y541D01*
X377Y541D01*
X377Y541D01*
X377Y541D01*
Y541D01*
X377Y542D01*
X377Y542D01*
X377Y542D01*
X377Y542D01*
X378Y542D01*
X378Y542D01*
X378Y542D01*
X387D01*
X388Y542D01*
X388Y542D01*
X388Y542D01*
X388Y542D01*
X389Y542D01*
X389Y542D01*
X389Y541D01*
Y541D01*
X389Y541D01*
X389Y541D01*
X389Y541D01*
X388Y541D01*
X388Y540D01*
X388Y540D01*
X387Y540D01*
X383D01*
X391Y522D01*
X392D01*
X400Y540D01*
X396D01*
X396Y540D01*
X395Y540D01*
X395Y540D01*
X395Y541D01*
X395Y541D01*
X395Y541D01*
X395Y541D01*
Y541D01*
X395Y542D01*
X395Y542D01*
X395Y542D01*
X395Y542D01*
X395Y542D01*
X396Y542D01*
X396Y542D01*
X405D01*
X405Y542D01*
D02*
G37*
G36*
X592Y834D02*
X592Y834D01*
Y834D01*
X591Y833D01*
X590D01*
Y833D01*
X590Y834D01*
X591Y834D01*
X591D01*
X592Y835D01*
X593D01*
X592Y834D01*
D02*
G37*
G36*
X621Y542D02*
X622Y542D01*
X622Y542D01*
X622Y542D01*
X622Y542D01*
X622Y542D01*
X622Y541D01*
Y541D01*
X622Y541D01*
X622Y541D01*
X622Y541D01*
X622Y541D01*
X622Y540D01*
X621Y540D01*
X621Y540D01*
X615D01*
Y522D01*
X623D01*
X624Y522D01*
X624Y522D01*
X624Y522D01*
X624Y522D01*
X625Y522D01*
X625Y521D01*
X625Y521D01*
Y521D01*
X625Y521D01*
X624Y521D01*
X624Y520D01*
X624Y520D01*
X624Y520D01*
X624Y520D01*
X623Y520D01*
X604D01*
X604Y520D01*
X603Y520D01*
X603Y520D01*
X603Y520D01*
X603Y521D01*
X603Y521D01*
X603Y521D01*
Y521D01*
X603Y521D01*
X603Y522D01*
X603Y522D01*
X603Y522D01*
X603Y522D01*
X604Y522D01*
X604Y522D01*
X613D01*
Y542D01*
X621D01*
X621Y542D01*
D02*
G37*
G36*
X495D02*
X495Y542D01*
X495Y542D01*
X495Y542D01*
X495Y542D01*
X496Y542D01*
X496Y541D01*
Y541D01*
X496Y541D01*
X495Y541D01*
X495Y541D01*
X495Y541D01*
X495Y540D01*
X495Y540D01*
X494Y540D01*
X488D01*
Y522D01*
X496D01*
X497Y522D01*
X497Y522D01*
X497Y522D01*
X498Y522D01*
X498Y522D01*
X498Y521D01*
X498Y521D01*
Y521D01*
X498Y521D01*
X498Y521D01*
X498Y520D01*
X498Y520D01*
X497Y520D01*
X497Y520D01*
X496Y520D01*
X477D01*
X477Y520D01*
X476Y520D01*
X476Y520D01*
X476Y520D01*
X476Y521D01*
X476Y521D01*
X476Y521D01*
Y521D01*
X476Y521D01*
X476Y522D01*
X476Y522D01*
X476Y522D01*
X476Y522D01*
X477Y522D01*
X477Y522D01*
X486D01*
Y542D01*
X494D01*
X495Y542D01*
D02*
G37*
G36*
X939D02*
X939Y542D01*
X939Y542D01*
X939Y542D01*
X939Y542D01*
X939Y542D01*
X939Y541D01*
Y541D01*
X939Y541D01*
X939Y541D01*
X939Y541D01*
X939Y541D01*
X939Y540D01*
X938Y540D01*
X938Y540D01*
X932D01*
Y522D01*
X940D01*
X941Y522D01*
X941Y522D01*
X941Y522D01*
X941Y522D01*
X942Y522D01*
X942Y521D01*
X942Y521D01*
Y521D01*
X942Y521D01*
X942Y521D01*
X941Y520D01*
X941Y520D01*
X941Y520D01*
X941Y520D01*
X940Y520D01*
X921D01*
X921Y520D01*
X920Y520D01*
X920Y520D01*
X920Y520D01*
X920Y521D01*
X920Y521D01*
X920Y521D01*
Y521D01*
X920Y521D01*
X920Y522D01*
X920Y522D01*
X920Y522D01*
X920Y522D01*
X921Y522D01*
X921Y522D01*
X930D01*
Y542D01*
X938D01*
X939Y542D01*
D02*
G37*
G36*
X560Y841D02*
X560Y840D01*
Y840D01*
Y839D01*
X560Y839D01*
X559Y838D01*
X558D01*
X558Y839D01*
X557Y839D01*
Y839D01*
X558Y840D01*
X558Y841D01*
X558Y841D01*
X559D01*
X560Y841D01*
D02*
G37*
G36*
X425Y543D02*
X426Y543D01*
X426Y543D01*
X427Y543D01*
X429Y542D01*
X429Y542D01*
X430Y541D01*
X431Y541D01*
X431Y541D01*
X431Y541D01*
X432Y540D01*
X432Y540D01*
X432Y540D01*
X432Y540D01*
X432Y540D01*
X433Y539D01*
X434Y538D01*
X434Y538D01*
X434Y537D01*
X435Y536D01*
X435Y536D01*
X435Y534D01*
X436Y533D01*
X436Y533D01*
X436Y532D01*
X436Y532D01*
Y532D01*
Y532D01*
Y532D01*
X436Y531D01*
X436Y530D01*
X436Y529D01*
X435Y528D01*
X435Y527D01*
X434Y526D01*
X434Y525D01*
X434Y525D01*
X433Y524D01*
X433Y524D01*
X433Y523D01*
X433Y523D01*
X432Y523D01*
X432Y523D01*
X432Y523D01*
X431Y522D01*
X431Y522D01*
X430Y521D01*
X429Y521D01*
X428Y520D01*
X428Y520D01*
X426Y520D01*
X426Y519D01*
X425Y519D01*
X424Y519D01*
X424Y519D01*
X423Y519D01*
X423D01*
X422Y519D01*
X421Y519D01*
X419Y520D01*
X418Y520D01*
X418Y520D01*
X417Y520D01*
X417Y520D01*
X417Y520D01*
X417Y520D01*
X417D01*
X415Y521D01*
X414Y521D01*
X414Y522D01*
X413Y522D01*
X413Y522D01*
X412Y523D01*
X412Y523D01*
X412Y523D01*
X412Y523D01*
X412Y523D01*
X412Y524D01*
Y524D01*
X412Y524D01*
X412Y524D01*
X412Y524D01*
X412Y524D01*
X412Y525D01*
X412Y525D01*
X413Y525D01*
X413D01*
X413Y525D01*
X413Y525D01*
X413Y524D01*
X414Y524D01*
X414Y524D01*
X415Y523D01*
X416Y523D01*
X416Y523D01*
X417Y523D01*
X417Y522D01*
X418Y522D01*
X418Y522D01*
X418D01*
X419Y522D01*
X420Y522D01*
X421Y522D01*
X421Y521D01*
X422Y521D01*
X423Y521D01*
X423D01*
X424Y521D01*
X425Y521D01*
X426Y522D01*
X427Y522D01*
X428Y523D01*
X429Y523D01*
X429Y523D01*
X430Y523D01*
X430Y524D01*
X430Y524D01*
X430Y524D01*
X430D01*
X431Y525D01*
X432Y526D01*
X433Y527D01*
X433Y528D01*
X433Y529D01*
X433Y530D01*
X434Y530D01*
X434Y530D01*
Y531D01*
X434Y531D01*
Y531D01*
X412D01*
X412Y532D01*
X412Y533D01*
X412Y534D01*
X412Y534D01*
X412Y535D01*
X413Y536D01*
X413Y537D01*
X413Y537D01*
X414Y538D01*
X414Y538D01*
X414Y539D01*
X415Y539D01*
X415Y539D01*
X415Y539D01*
X415Y540D01*
X415Y540D01*
X416Y540D01*
X416Y541D01*
X417Y541D01*
X418Y542D01*
X419Y542D01*
X419Y542D01*
X421Y543D01*
X421Y543D01*
X422Y543D01*
X422Y543D01*
X423Y543D01*
X423Y543D01*
X424D01*
X425Y543D01*
D02*
G37*
G36*
X741D02*
X742Y543D01*
X743Y543D01*
X743Y543D01*
X745Y542D01*
X745Y542D01*
X746Y541D01*
X747Y541D01*
X747Y541D01*
X747Y540D01*
X748Y540D01*
X748Y540D01*
X748Y540D01*
X748Y540D01*
X748Y540D01*
X749Y539D01*
X750Y538D01*
X750Y538D01*
X750Y537D01*
X751Y536D01*
X751Y535D01*
X751Y534D01*
X752Y533D01*
X752Y533D01*
X752Y532D01*
X752Y532D01*
X752Y532D01*
Y531D01*
Y531D01*
Y531D01*
X752Y530D01*
X752Y529D01*
X752Y528D01*
X751Y527D01*
X751Y526D01*
X751Y525D01*
X750Y525D01*
X750Y524D01*
X750Y524D01*
X749Y523D01*
X749Y523D01*
X749Y523D01*
X749Y523D01*
X749Y523D01*
X749Y523D01*
X748Y522D01*
X747Y521D01*
X746Y521D01*
X746Y521D01*
X745Y520D01*
X744Y520D01*
X743Y520D01*
X742Y519D01*
X742Y519D01*
X741Y519D01*
X741Y519D01*
X740Y519D01*
X740D01*
X739Y519D01*
X738Y519D01*
X736Y520D01*
X735Y520D01*
X734Y520D01*
X733Y521D01*
X733Y521D01*
X732Y521D01*
X732Y521D01*
X731Y522D01*
X731Y522D01*
X731Y522D01*
X731Y522D01*
X731D01*
X730Y522D01*
X730Y523D01*
X729Y523D01*
X729Y524D01*
X728Y524D01*
X728Y524D01*
X728Y525D01*
X728Y525D01*
Y525D01*
X728Y525D01*
X728Y525D01*
X728Y525D01*
X728Y525D01*
X728Y526D01*
X729Y526D01*
X729Y526D01*
X729D01*
X729Y526D01*
X730Y526D01*
X730Y525D01*
X730Y525D01*
X731Y525D01*
X732Y524D01*
X732Y523D01*
X733Y523D01*
X734Y523D01*
X734Y522D01*
X735Y522D01*
X735Y522D01*
X735D01*
X736Y522D01*
X737Y522D01*
X737Y522D01*
X738Y521D01*
X739Y521D01*
X739Y521D01*
X741D01*
X741Y521D01*
X743Y522D01*
X744Y522D01*
X745Y523D01*
X746Y523D01*
X746Y524D01*
X747Y524D01*
X747Y524D01*
X747Y524D01*
X747D01*
X747Y525D01*
X748Y525D01*
X749Y526D01*
X749Y527D01*
X749Y529D01*
X750Y530D01*
X750Y530D01*
Y530D01*
X750Y531D01*
Y531D01*
Y531D01*
Y531D01*
X750Y532D01*
X749Y534D01*
X749Y535D01*
X748Y536D01*
X748Y537D01*
X748Y537D01*
X748Y537D01*
X747Y538D01*
X747Y538D01*
X747Y538D01*
Y538D01*
X747Y538D01*
X746Y539D01*
X746Y539D01*
X745Y540D01*
X744Y540D01*
X743Y541D01*
X742Y541D01*
X741Y541D01*
X741Y541D01*
X740Y541D01*
X740D01*
X739Y541D01*
X737Y541D01*
X736Y540D01*
X735Y540D01*
X735Y540D01*
X734Y540D01*
X734Y539D01*
X734Y539D01*
X733Y539D01*
X732Y538D01*
X732Y537D01*
X732Y537D01*
X732Y536D01*
X731Y536D01*
X731Y536D01*
Y536D01*
X731Y535D01*
X731Y535D01*
X731Y535D01*
X731Y535D01*
X731Y535D01*
X731Y535D01*
X730Y535D01*
X730D01*
X730Y535D01*
X730Y535D01*
X730Y535D01*
X730Y535D01*
X729Y535D01*
X729Y536D01*
X729Y536D01*
Y536D01*
Y536D01*
Y541D01*
X729Y541D01*
X729Y542D01*
X729Y542D01*
X730Y542D01*
X730Y542D01*
X730Y542D01*
X730Y542D01*
X730D01*
X731Y542D01*
X731Y542D01*
X731Y542D01*
X731Y542D01*
X731Y542D01*
X731Y541D01*
X731Y541D01*
Y541D01*
Y541D01*
Y540D01*
X732Y541D01*
X733Y541D01*
X733Y542D01*
X734Y542D01*
X736Y542D01*
X737Y543D01*
X737Y543D01*
X738Y543D01*
X738Y543D01*
X739Y543D01*
X739Y543D01*
X740D01*
X741Y543D01*
D02*
G37*
G36*
X682D02*
X682Y543D01*
X683Y543D01*
X684Y542D01*
X685Y542D01*
X686Y541D01*
X686Y541D01*
X687Y540D01*
X687Y540D01*
X687Y540D01*
Y542D01*
X691D01*
X691Y542D01*
X692Y542D01*
X692Y542D01*
X692Y542D01*
X692Y542D01*
X692Y542D01*
X692Y541D01*
Y541D01*
X692Y541D01*
X692Y541D01*
X692Y541D01*
X692Y541D01*
X692Y540D01*
X691Y540D01*
X691Y540D01*
X689D01*
Y522D01*
X691D01*
X691Y522D01*
X692Y522D01*
X692Y522D01*
X692Y522D01*
X692Y522D01*
X692Y521D01*
X692Y521D01*
Y521D01*
X692Y521D01*
X692Y521D01*
X692Y520D01*
X692Y520D01*
X692Y520D01*
X691Y520D01*
X691Y520D01*
X685D01*
X685Y520D01*
X684Y520D01*
X684Y520D01*
X684Y520D01*
X684Y521D01*
X684Y521D01*
X684Y521D01*
Y521D01*
X684Y521D01*
X684Y522D01*
X684Y522D01*
X684Y522D01*
X684Y522D01*
X685Y522D01*
X685Y522D01*
X687D01*
Y537D01*
X686Y537D01*
X686Y538D01*
X685Y539D01*
X685Y539D01*
X684Y540D01*
X684Y540D01*
X684Y540D01*
X684Y540D01*
X683Y540D01*
X683Y541D01*
X682Y541D01*
X682Y541D01*
X682Y541D01*
X681D01*
X681Y541D01*
X680Y541D01*
X680Y541D01*
X680Y540D01*
X679Y540D01*
X679Y540D01*
X679Y540D01*
X679Y540D01*
X679Y539D01*
X678Y539D01*
X678Y538D01*
X678Y538D01*
X678Y538D01*
X678Y537D01*
Y537D01*
Y537D01*
Y520D01*
X674D01*
X674Y520D01*
X673Y520D01*
X673Y520D01*
X673Y520D01*
X673Y521D01*
X673Y521D01*
X673Y521D01*
Y521D01*
X673Y521D01*
X673Y522D01*
X673Y522D01*
X673Y522D01*
X673Y522D01*
X674Y522D01*
X674Y522D01*
X676D01*
Y537D01*
X675Y537D01*
X675Y538D01*
X674Y539D01*
X674Y539D01*
X673Y540D01*
X673Y540D01*
X673Y540D01*
X673Y540D01*
X672Y540D01*
X672Y541D01*
X671Y541D01*
X671Y541D01*
X671Y541D01*
X671Y541D01*
X670D01*
X670Y541D01*
X669Y541D01*
X669Y541D01*
X669Y540D01*
X668Y540D01*
X668Y540D01*
X668Y540D01*
X668Y540D01*
X668Y539D01*
X667Y539D01*
X667Y539D01*
X667Y538D01*
X667Y538D01*
X667Y537D01*
Y537D01*
Y537D01*
Y520D01*
X663D01*
X662Y520D01*
X662Y520D01*
X662Y520D01*
X662Y520D01*
X662Y521D01*
X662Y521D01*
X661Y521D01*
Y521D01*
X662Y521D01*
X662Y522D01*
X662Y522D01*
X662Y522D01*
X662Y522D01*
X663Y522D01*
X663Y522D01*
X665D01*
Y537D01*
X665Y538D01*
X665Y539D01*
X665Y540D01*
X666Y540D01*
X666Y541D01*
X666Y541D01*
X667Y542D01*
X667Y542D01*
X667Y542D01*
X668Y543D01*
X668Y543D01*
X669Y543D01*
X670Y543D01*
X670Y543D01*
X670D01*
X671Y543D01*
X672Y543D01*
X672Y543D01*
X672Y543D01*
X673Y543D01*
X673Y542D01*
X673Y542D01*
X673Y542D01*
X674Y542D01*
X674Y541D01*
X675Y541D01*
X675Y541D01*
X676Y540D01*
X676Y540D01*
X676Y540D01*
X676Y540D01*
X677Y540D01*
X677Y541D01*
X677Y541D01*
X678Y542D01*
X678Y542D01*
X678Y542D01*
X678Y542D01*
X678Y542D01*
X679Y543D01*
X679Y543D01*
X680Y543D01*
X680Y543D01*
X681Y543D01*
X681Y543D01*
X681D01*
X682Y543D01*
D02*
G37*
G36*
X520D02*
X521Y543D01*
X522Y543D01*
X523Y542D01*
X524Y542D01*
X525Y542D01*
X525Y542D01*
X525Y542D01*
X525Y541D01*
X525D01*
X526Y541D01*
X526Y541D01*
X527Y540D01*
X527Y539D01*
X527Y539D01*
X528Y538D01*
X528Y538D01*
X528Y537D01*
Y537D01*
Y537D01*
X528Y536D01*
X528Y536D01*
X528Y535D01*
X527Y535D01*
X527Y535D01*
X527Y534D01*
X527Y534D01*
X527Y534D01*
X526Y534D01*
X526Y533D01*
X526Y533D01*
X525Y533D01*
X525Y532D01*
X524Y532D01*
X524Y532D01*
X524Y532D01*
X523Y532D01*
X523Y532D01*
X522Y532D01*
X521Y531D01*
X520Y531D01*
X519Y531D01*
X519D01*
X519Y531D01*
X518D01*
X517Y531D01*
X516Y531D01*
X515Y530D01*
X514Y530D01*
X513Y530D01*
X513Y530D01*
X512Y530D01*
X512Y529D01*
X512Y529D01*
X511Y528D01*
X511Y528D01*
X510Y527D01*
X510Y527D01*
X510Y527D01*
X510Y526D01*
Y526D01*
X510Y526D01*
X511Y525D01*
X511Y524D01*
X511Y524D01*
X512Y523D01*
X512Y523D01*
X512Y523D01*
X512Y523D01*
X513Y522D01*
X514Y522D01*
X515Y522D01*
X516Y522D01*
X517Y521D01*
X517D01*
X518Y521D01*
X519D01*
X520Y521D01*
X521Y521D01*
X521Y522D01*
X522Y522D01*
X523Y522D01*
X523Y522D01*
X523Y522D01*
X523Y522D01*
X524Y522D01*
X525Y523D01*
X525Y523D01*
X526Y523D01*
X526Y524D01*
X526Y524D01*
X526Y524D01*
X526Y524D01*
X527Y525D01*
X527Y525D01*
Y526D01*
X527Y526D01*
Y526D01*
Y526D01*
X527Y527D01*
X527Y527D01*
X527Y527D01*
X527Y527D01*
X527Y527D01*
X528Y527D01*
X528Y527D01*
X528D01*
X528Y527D01*
X528Y527D01*
X529Y527D01*
X529Y527D01*
X529Y527D01*
X529Y526D01*
X529Y526D01*
Y526D01*
Y526D01*
Y521D01*
X529Y521D01*
X529Y521D01*
X529Y520D01*
X529Y520D01*
X528Y520D01*
X528Y520D01*
X528Y520D01*
X528D01*
X528Y520D01*
X528Y520D01*
X527Y520D01*
X527D01*
X527Y520D01*
X527Y520D01*
X527Y521D01*
Y521D01*
X527Y521D01*
X527Y521D01*
Y522D01*
Y522D01*
Y522D01*
X526Y521D01*
X526Y521D01*
X524Y520D01*
X523Y520D01*
X521Y520D01*
X521Y519D01*
X520Y519D01*
X520Y519D01*
X519D01*
X519Y519D01*
X518D01*
X517Y519D01*
X516Y519D01*
X515Y520D01*
X514Y520D01*
X514Y520D01*
X513Y520D01*
X513Y520D01*
X512Y520D01*
X512Y521D01*
X511Y521D01*
X511Y521D01*
X511Y521D01*
X511Y521D01*
X511Y521D01*
X510Y522D01*
X510Y522D01*
X509Y523D01*
X509Y524D01*
X508Y525D01*
X508Y525D01*
X508Y526D01*
X508Y526D01*
Y526D01*
Y526D01*
X508Y527D01*
X508Y528D01*
X508Y528D01*
X509Y529D01*
X509Y529D01*
X509Y529D01*
X509Y530D01*
X509Y530D01*
X510Y530D01*
X510Y531D01*
X511Y531D01*
X512Y532D01*
X512Y532D01*
X513Y532D01*
X513Y532D01*
X513Y532D01*
X513D01*
X513Y532D01*
X514Y532D01*
X515Y533D01*
X516Y533D01*
X517Y533D01*
X518Y533D01*
X518Y533D01*
X518D01*
X519Y533D01*
X519Y533D01*
X519D01*
X520Y534D01*
X521Y534D01*
X522Y534D01*
X523Y534D01*
X523Y534D01*
X524Y534D01*
X524Y534D01*
X524Y534D01*
X524Y535D01*
X525Y535D01*
X525Y536D01*
X525Y536D01*
X526Y536D01*
X526Y537D01*
X526Y537D01*
Y537D01*
X526Y537D01*
X525Y538D01*
X525Y538D01*
X525Y539D01*
X525Y539D01*
X524Y539D01*
X524Y539D01*
X524Y539D01*
X523Y540D01*
X522Y540D01*
X522Y541D01*
X521Y541D01*
X520Y541D01*
X519Y541D01*
X519D01*
X517Y541D01*
X516Y541D01*
X515Y541D01*
X514Y540D01*
X514Y540D01*
X513Y540D01*
X513Y540D01*
X513Y540D01*
X512Y539D01*
X512Y539D01*
X512Y538D01*
X512Y538D01*
X511Y537D01*
X511Y537D01*
X511Y537D01*
Y537D01*
X511Y537D01*
X511Y536D01*
X511Y536D01*
X511Y536D01*
X511Y536D01*
X511Y536D01*
X510Y536D01*
X510D01*
X510Y536D01*
X510Y536D01*
X510Y536D01*
X510Y536D01*
X509Y536D01*
X509Y537D01*
X509Y537D01*
Y537D01*
Y537D01*
Y541D01*
X509Y541D01*
X509Y542D01*
X509Y542D01*
X510Y542D01*
X510Y542D01*
X510Y542D01*
X510Y542D01*
X510D01*
X511Y542D01*
X511Y542D01*
X511Y542D01*
X511Y542D01*
X511Y542D01*
X511Y541D01*
X511Y541D01*
Y541D01*
Y541D01*
X512Y542D01*
X514Y542D01*
X515Y543D01*
X516Y543D01*
X517Y543D01*
X518Y543D01*
X518D01*
X518Y543D01*
X519D01*
X520Y543D01*
D02*
G37*
G36*
X616Y548D02*
X613D01*
Y553D01*
X616D01*
Y548D01*
D02*
G37*
G36*
X489D02*
X486D01*
Y553D01*
X489D01*
Y548D01*
D02*
G37*
G36*
X551Y543D02*
X552Y543D01*
X553Y543D01*
X554Y543D01*
X555Y542D01*
X556Y542D01*
X556Y542D01*
X556Y542D01*
X556Y542D01*
X556Y542D01*
X557D01*
X557Y542D01*
X558Y542D01*
X559Y541D01*
X559Y541D01*
X559Y541D01*
X559Y541D01*
X559Y541D01*
X560Y541D01*
X560Y541D01*
X560Y540D01*
Y540D01*
X560Y540D01*
X560Y540D01*
X559Y540D01*
X559Y540D01*
X559Y539D01*
X559Y539D01*
X559Y539D01*
X559D01*
X558Y539D01*
X558Y539D01*
X558Y539D01*
X558Y539D01*
X558D01*
X556Y540D01*
X555Y540D01*
X553Y541D01*
X552Y541D01*
X552Y541D01*
X551Y541D01*
X551D01*
X549Y541D01*
X548Y541D01*
X548Y541D01*
X547Y540D01*
X546Y540D01*
X546Y540D01*
X546Y540D01*
X546Y540D01*
X545Y539D01*
X545Y539D01*
X544Y538D01*
X544Y538D01*
X544Y537D01*
X544Y537D01*
Y537D01*
Y536D01*
Y533D01*
X545Y533D01*
X545Y533D01*
X546Y533D01*
X547Y533D01*
X547Y534D01*
X547D01*
X548Y534D01*
X548D01*
X549Y534D01*
X550Y534D01*
X550Y534D01*
X552D01*
X553Y534D01*
X554Y534D01*
X555Y533D01*
X555Y533D01*
X556Y533D01*
X557Y533D01*
X557Y533D01*
X558Y532D01*
X558Y532D01*
X559Y532D01*
X559Y532D01*
X559Y532D01*
X559Y532D01*
X559Y531D01*
X559D01*
X560Y531D01*
X560Y531D01*
X561Y530D01*
X561Y530D01*
X562Y529D01*
X562Y528D01*
X562Y527D01*
X562Y526D01*
X562Y526D01*
Y526D01*
Y526D01*
Y526D01*
X562Y525D01*
X562Y524D01*
X562Y523D01*
X561Y522D01*
X561Y522D01*
X561Y521D01*
X560Y521D01*
X560Y521D01*
X559Y520D01*
X558Y520D01*
X557Y520D01*
X556Y519D01*
X555Y519D01*
X555Y519D01*
X555D01*
X554Y519D01*
X554D01*
X553Y519D01*
X552Y519D01*
X551Y520D01*
X550Y520D01*
X548Y520D01*
X548Y521D01*
X547Y521D01*
X546Y522D01*
X546Y522D01*
X545Y522D01*
X545Y523D01*
X544Y523D01*
X544Y523D01*
X544Y523D01*
X544Y523D01*
Y520D01*
X539D01*
X538Y520D01*
X538Y520D01*
X538Y520D01*
X538Y520D01*
X537Y521D01*
X537Y521D01*
X537Y521D01*
Y521D01*
X537Y521D01*
X538Y522D01*
X538Y522D01*
X538Y522D01*
X538Y522D01*
X538Y522D01*
X539Y522D01*
X542D01*
Y536D01*
X542Y537D01*
X542Y538D01*
X543Y539D01*
X543Y540D01*
X543Y540D01*
X544Y541D01*
X544Y541D01*
X544Y541D01*
X545Y542D01*
X546Y542D01*
X547Y543D01*
X548Y543D01*
X549Y543D01*
X549Y543D01*
X550D01*
X550Y543D01*
X550D01*
X551Y543D01*
D02*
G37*
G36*
X572Y832D02*
X573Y831D01*
X573Y830D01*
X574D01*
X575Y829D01*
X575Y829D01*
X575D01*
X576Y829D01*
X575Y828D01*
X574Y828D01*
X574D01*
X573Y828D01*
X571Y829D01*
X571Y830D01*
X570Y830D01*
X570Y831D01*
X570Y832D01*
Y832D01*
X570Y833D01*
X570D01*
X572Y832D01*
D02*
G37*
G36*
X757Y833D02*
Y832D01*
Y832D01*
Y831D01*
X757Y830D01*
X757Y829D01*
X757Y829D01*
X756Y828D01*
X755D01*
X755Y829D01*
Y829D01*
X756Y830D01*
X756Y831D01*
X757Y832D01*
X757Y832D01*
X757Y833D01*
X757D01*
Y833D01*
D02*
G37*
G36*
X818Y552D02*
X818Y552D01*
X818Y552D01*
X818Y552D01*
X818Y552D01*
X819Y552D01*
X819Y551D01*
Y551D01*
X819Y551D01*
X818Y551D01*
X818Y551D01*
X818Y551D01*
X818Y550D01*
X818Y550D01*
X817Y550D01*
X814D01*
Y522D01*
X817D01*
X818Y522D01*
X818Y522D01*
X818Y522D01*
X818Y522D01*
X818Y522D01*
X819Y521D01*
X819Y521D01*
Y521D01*
X819Y521D01*
X818Y521D01*
X818Y520D01*
X818Y520D01*
X818Y520D01*
X818Y520D01*
X817Y520D01*
X812D01*
Y524D01*
X811Y523D01*
X811Y523D01*
X810Y522D01*
X809Y521D01*
X808Y521D01*
X807Y520D01*
X807Y520D01*
X806Y520D01*
X805Y520D01*
X805Y519D01*
X804Y519D01*
X804Y519D01*
X803D01*
X803Y519D01*
X803D01*
X802Y519D01*
X801Y519D01*
X800Y520D01*
X799Y520D01*
X798Y520D01*
X797Y521D01*
X796Y521D01*
X796Y522D01*
X795Y522D01*
X795Y522D01*
X795Y522D01*
X795Y523D01*
X795Y523D01*
X795Y523D01*
X794Y523D01*
X793Y524D01*
X793Y525D01*
X793Y525D01*
X792Y526D01*
X792Y527D01*
X791Y528D01*
X791Y529D01*
X791Y529D01*
X791Y530D01*
X791Y530D01*
X791Y531D01*
Y531D01*
Y531D01*
Y531D01*
X791Y532D01*
X791Y533D01*
X791Y534D01*
X792Y535D01*
X792Y536D01*
X792Y537D01*
X793Y537D01*
X793Y538D01*
X793Y538D01*
X794Y539D01*
X794Y539D01*
X794Y539D01*
X794Y540D01*
X794Y540D01*
X794Y540D01*
X795Y540D01*
X796Y541D01*
X796Y541D01*
X797Y542D01*
X798Y542D01*
X799Y542D01*
X800Y543D01*
X801Y543D01*
X801Y543D01*
X802Y543D01*
X802Y543D01*
X803D01*
X804Y543D01*
X805Y543D01*
X806Y543D01*
X806Y542D01*
X807Y542D01*
X808Y542D01*
X809Y541D01*
X809Y541D01*
X810Y540D01*
X810Y540D01*
X811Y539D01*
X811Y539D01*
X812Y539D01*
X812Y538D01*
X812Y538D01*
X812Y538D01*
Y552D01*
X817D01*
X818Y552D01*
D02*
G37*
G36*
X880D02*
X880Y552D01*
X881Y552D01*
X881Y552D01*
X881Y552D01*
X881Y552D01*
X881Y551D01*
Y551D01*
X881Y551D01*
X881Y551D01*
X881Y551D01*
X881Y551D01*
X880Y550D01*
X880Y550D01*
X880Y550D01*
X877D01*
Y522D01*
X879D01*
X879Y522D01*
X880Y522D01*
X880Y522D01*
X880Y522D01*
X880Y522D01*
X880Y521D01*
X880Y521D01*
Y521D01*
X880Y521D01*
X880Y521D01*
X880Y520D01*
X880Y520D01*
X880Y520D01*
X879Y520D01*
X879Y520D01*
X872D01*
X872Y520D01*
X871Y520D01*
X871Y520D01*
X871Y520D01*
X871Y521D01*
X871Y521D01*
X871Y521D01*
Y521D01*
X871Y521D01*
X871Y522D01*
X871Y522D01*
X871Y522D01*
X871Y522D01*
X872Y522D01*
X872Y522D01*
X874D01*
Y536D01*
X873Y537D01*
X873Y538D01*
X872Y538D01*
X871Y539D01*
X871Y539D01*
X871Y540D01*
X870Y540D01*
X870Y540D01*
X870Y540D01*
X869Y541D01*
X868Y541D01*
X868Y541D01*
X867Y541D01*
X867Y541D01*
X866D01*
X865Y541D01*
X864Y541D01*
X863Y540D01*
X863Y540D01*
X862Y540D01*
X862Y540D01*
X862Y539D01*
X862Y539D01*
X861Y539D01*
X861Y538D01*
X860Y537D01*
X860Y537D01*
X860Y536D01*
X860Y536D01*
Y536D01*
Y535D01*
Y522D01*
X862D01*
X863Y522D01*
X863Y522D01*
X863Y522D01*
X863Y522D01*
X864Y522D01*
X864Y521D01*
X864Y521D01*
Y521D01*
X864Y521D01*
X864Y521D01*
X863Y520D01*
X863Y520D01*
X863Y520D01*
X863Y520D01*
X862Y520D01*
X855D01*
X855Y520D01*
X854Y520D01*
X854Y520D01*
X854Y520D01*
X854Y521D01*
X854Y521D01*
X854Y521D01*
Y521D01*
X854Y521D01*
X854Y522D01*
X854Y522D01*
X854Y522D01*
X854Y522D01*
X855Y522D01*
X855Y522D01*
X858D01*
Y536D01*
X858Y536D01*
X858Y537D01*
X858Y538D01*
X858Y538D01*
X859Y539D01*
X859Y539D01*
X859Y539D01*
X859Y539D01*
X859Y540D01*
X860Y541D01*
X860Y541D01*
X861Y542D01*
X861Y542D01*
X862Y542D01*
X862Y542D01*
X862Y542D01*
X863Y543D01*
X863Y543D01*
X864Y543D01*
X865Y543D01*
X865Y543D01*
X866Y543D01*
X866D01*
X867Y543D01*
X868Y543D01*
X869Y543D01*
X869Y543D01*
X870Y543D01*
X870Y542D01*
X870Y542D01*
X870Y542D01*
X871Y542D01*
X872Y541D01*
X873Y541D01*
X873Y540D01*
X874Y540D01*
X874Y539D01*
X874Y539D01*
X874Y539D01*
Y552D01*
X879D01*
X880Y552D01*
D02*
G37*
G36*
X965Y543D02*
X966Y543D01*
X966Y543D01*
X967Y543D01*
X969Y542D01*
X970Y542D01*
X971Y541D01*
X971Y541D01*
X971Y540D01*
X971Y540D01*
X972Y540D01*
X972Y540D01*
X972Y540D01*
X972Y539D01*
X973Y539D01*
X973Y538D01*
X974Y537D01*
X974Y536D01*
X975Y535D01*
X975Y533D01*
X975Y533D01*
X975Y533D01*
X975Y532D01*
Y532D01*
Y532D01*
Y532D01*
X975Y531D01*
X975Y530D01*
X974Y529D01*
X974Y527D01*
X973Y526D01*
X973Y526D01*
X973Y525D01*
X973Y525D01*
X972Y524D01*
X972Y524D01*
X972Y524D01*
X972Y524D01*
X972Y524D01*
X971Y523D01*
X971Y523D01*
X970Y522D01*
X969Y522D01*
X968Y521D01*
X967Y521D01*
X966Y521D01*
X965Y521D01*
X965Y521D01*
X964Y521D01*
X964D01*
X963Y521D01*
X962Y521D01*
X961Y521D01*
X960Y521D01*
X960Y522D01*
X959Y522D01*
X958Y522D01*
X958Y523D01*
X957Y523D01*
X956Y524D01*
X956Y524D01*
X956Y525D01*
X955Y525D01*
X955Y525D01*
X955Y525D01*
X955Y525D01*
Y519D01*
Y518D01*
X955Y518D01*
X955Y517D01*
X955Y517D01*
X955Y516D01*
X956Y516D01*
X956Y516D01*
Y516D01*
X956Y515D01*
X956Y515D01*
X957Y514D01*
X957Y514D01*
X958Y514D01*
X958Y513D01*
X958Y513D01*
X958Y513D01*
X959Y513D01*
X959Y513D01*
X960Y512D01*
X960Y512D01*
X961Y512D01*
X961Y512D01*
X968D01*
X968Y512D01*
X969Y512D01*
X969Y512D01*
X969Y512D01*
X969Y512D01*
X969Y511D01*
X969Y511D01*
Y511D01*
X969Y511D01*
X969Y511D01*
X969Y510D01*
X969Y510D01*
X969Y510D01*
X968Y510D01*
X968Y510D01*
X961D01*
X960Y510D01*
X960Y510D01*
X959Y510D01*
X959Y510D01*
X959Y511D01*
X959Y511D01*
X959D01*
X958Y511D01*
X958Y511D01*
X957Y512D01*
X956Y512D01*
X956Y512D01*
X956Y512D01*
X956Y512D01*
X955Y513D01*
X955Y513D01*
X955Y514D01*
X954Y514D01*
X954Y514D01*
X954Y515D01*
X954Y515D01*
Y515D01*
X954Y515D01*
X953Y516D01*
X953Y517D01*
X953Y517D01*
X953Y518D01*
X953Y518D01*
Y518D01*
Y519D01*
Y540D01*
X950D01*
X949Y540D01*
X949Y540D01*
X949Y540D01*
X949Y541D01*
X949Y541D01*
X949Y541D01*
X948Y541D01*
Y541D01*
X949Y542D01*
X949Y542D01*
X949Y542D01*
X949Y542D01*
X949Y542D01*
X950Y542D01*
X950Y542D01*
X955D01*
Y538D01*
X956Y539D01*
X956Y540D01*
X957Y541D01*
X958Y541D01*
X959Y542D01*
X959Y542D01*
X960Y542D01*
X961Y543D01*
X962Y543D01*
X962Y543D01*
X963Y543D01*
X963Y543D01*
X964D01*
X964Y543D01*
X964D01*
X965Y543D01*
D02*
G37*
G36*
X558Y963D02*
X559Y963D01*
X560Y961D01*
X561Y960D01*
X562Y959D01*
Y959D01*
X563Y957D01*
X564Y955D01*
X565Y954D01*
X565Y954D01*
X566Y953D01*
X566Y952D01*
Y952D01*
X566Y952D01*
X566D01*
X565Y952D01*
X564Y953D01*
X563Y955D01*
X563Y955D01*
X561Y957D01*
X560Y959D01*
X559Y960D01*
X559Y960D01*
X558Y962D01*
X558Y963D01*
Y963D01*
X558Y963D01*
D02*
G37*
G36*
X523Y917D02*
X525Y916D01*
X526Y916D01*
X527Y916D01*
X528Y915D01*
X530Y914D01*
X533Y912D01*
X535Y912D01*
X536Y911D01*
X537Y911D01*
X537Y911D01*
X539Y910D01*
X540Y910D01*
X541Y909D01*
X541Y909D01*
X543Y908D01*
X543Y908D01*
X543Y908D01*
X544Y907D01*
X543D01*
X542Y908D01*
X540Y908D01*
X538Y909D01*
X536Y910D01*
X534Y911D01*
X533Y911D01*
X532Y912D01*
X522Y917D01*
X523Y917D01*
D02*
G37*
G36*
X448Y957D02*
X449Y955D01*
X449Y953D01*
Y953D01*
Y952D01*
X449Y952D01*
X448Y952D01*
X445D01*
X444Y952D01*
X444Y952D01*
Y953D01*
X445Y954D01*
X445Y955D01*
X446Y956D01*
X446Y957D01*
X447Y960D01*
X448Y957D01*
D02*
G37*
G36*
X573Y895D02*
X574Y894D01*
X574Y894D01*
X575Y893D01*
X574Y893D01*
X573Y893D01*
X572Y894D01*
X571Y895D01*
X570Y895D01*
X570Y896D01*
X569Y896D01*
X569Y896D01*
X573Y895D01*
D02*
G37*
G36*
X551Y905D02*
X552Y904D01*
X553Y904D01*
X553Y904D01*
X554Y903D01*
X555Y903D01*
X558Y902D01*
X559Y901D01*
X560Y901D01*
X561Y900D01*
X561D01*
X562Y900D01*
X562Y900D01*
X567Y897D01*
X566D01*
X565Y898D01*
X563Y898D01*
X562Y899D01*
X560Y900D01*
X559Y900D01*
X557Y900D01*
X557Y901D01*
X549Y905D01*
X551Y905D01*
D02*
G37*
G36*
X484Y948D02*
X485Y948D01*
X484Y948D01*
Y948D01*
X484Y947D01*
X483Y947D01*
X483D01*
X483Y947D01*
Y947D01*
Y948D01*
X483Y948D01*
X483Y949D01*
X484D01*
X484Y948D01*
D02*
G37*
G36*
X500Y937D02*
X500Y936D01*
X500Y936D01*
Y936D01*
X499Y935D01*
X498D01*
X497Y936D01*
X497Y936D01*
Y937D01*
X497D01*
X498Y937D01*
X499D01*
X500Y937D01*
D02*
G37*
G36*
X574Y942D02*
X575Y941D01*
X576Y940D01*
X576Y940D01*
X578Y938D01*
X579Y936D01*
X580Y936D01*
X580Y935D01*
X581Y935D01*
X581Y934D01*
Y934D01*
X579Y935D01*
X578Y936D01*
X578Y936D01*
X576Y938D01*
X575Y940D01*
X574Y940D01*
X574Y941D01*
Y942D01*
X574D01*
X574Y942D01*
D02*
G37*
G36*
X497Y932D02*
X498D01*
X497Y932D01*
X497D01*
X496Y931D01*
X495D01*
X495Y932D01*
X495Y932D01*
X495D01*
X496Y932D01*
X497D01*
X497Y932D01*
D02*
G37*
G36*
X488Y946D02*
X488Y946D01*
X489Y946D01*
Y945D01*
X488Y945D01*
X488Y944D01*
X488Y944D01*
X487D01*
X487Y944D01*
X486Y945D01*
X486Y945D01*
Y945D01*
X486Y946D01*
X487Y947D01*
X487D01*
X488Y946D01*
D02*
G37*
G36*
X480Y948D02*
X480Y947D01*
X479Y947D01*
X479Y946D01*
Y946D01*
X478Y945D01*
X477Y944D01*
X477Y944D01*
X477D01*
X476Y944D01*
X475Y945D01*
Y946D01*
Y946D01*
X476Y947D01*
X477Y948D01*
X478Y948D01*
X480D01*
X480Y948D01*
D02*
G37*
G36*
X637Y556D02*
X637Y556D01*
X637Y556D01*
X637Y556D01*
X637Y555D01*
X637Y555D01*
X637Y555D01*
X638Y555D01*
X655Y518D01*
X655Y517D01*
X655Y517D01*
X655Y517D01*
Y517D01*
X655Y516D01*
X655Y516D01*
X655Y516D01*
X655Y516D01*
X655Y516D01*
X654Y516D01*
X654Y516D01*
X654D01*
X654Y516D01*
X654Y516D01*
X653Y516D01*
X653Y516D01*
X653Y517D01*
Y517D01*
X636Y554D01*
X635Y554D01*
X635Y555D01*
Y555D01*
Y555D01*
X635Y555D01*
X635Y555D01*
X636Y555D01*
X636Y556D01*
X636Y556D01*
X636Y556D01*
X636Y556D01*
X636D01*
X637Y556D01*
D02*
G37*
G36*
X512Y1051D02*
X514Y1050D01*
X515Y1050D01*
X515Y1050D01*
X517Y1048D01*
X518Y1047D01*
X518Y1046D01*
Y1045D01*
X519Y1045D01*
X519Y1044D01*
X520Y1043D01*
X522Y1043D01*
X523Y1043D01*
X523D01*
X526Y1042D01*
X528Y1041D01*
X529Y1041D01*
X529Y1040D01*
X531Y1039D01*
X532Y1037D01*
X535Y1034D01*
X538Y1030D01*
X542Y1026D01*
X546Y1021D01*
X554Y1011D01*
X558Y1007D01*
X561Y1002D01*
X565Y997D01*
X568Y993D01*
X571Y990D01*
X573Y987D01*
X574Y986D01*
X574Y985D01*
X577Y982D01*
X579Y979D01*
X581Y976D01*
X582Y975D01*
X582Y974D01*
X583Y973D01*
Y972D01*
X583Y972D01*
X584Y970D01*
X586Y968D01*
X587Y966D01*
X589Y964D01*
X590Y963D01*
X592Y961D01*
X592Y961D01*
X595Y957D01*
X597Y955D01*
X599Y953D01*
X600Y951D01*
X601Y951D01*
X601Y950D01*
X602Y950D01*
Y950D01*
X602Y951D01*
Y953D01*
Y954D01*
Y955D01*
Y955D01*
X602Y959D01*
X602Y962D01*
X604Y968D01*
X607Y972D01*
X610Y976D01*
X613Y979D01*
X616Y981D01*
X618Y982D01*
X618Y983D01*
X618D01*
X623Y984D01*
X627Y985D01*
X629Y986D01*
X632D01*
X637Y985D01*
X639Y985D01*
X641Y984D01*
X643Y984D01*
X644Y983D01*
X645Y983D01*
X645D01*
X650Y981D01*
X651Y983D01*
X652Y985D01*
X653Y986D01*
X656Y989D01*
X657Y990D01*
X658Y991D01*
X659Y992D01*
X659Y992D01*
X662Y995D01*
X664Y996D01*
X666Y997D01*
X668Y998D01*
X670Y999D01*
X671Y999D01*
X672Y999D01*
X672D01*
X674Y1000D01*
X676Y1000D01*
X679Y1003D01*
X680Y1003D01*
X681Y1004D01*
X682Y1005D01*
X682Y1005D01*
X684Y1007D01*
X685Y1008D01*
X686Y1010D01*
X686Y1011D01*
Y1012D01*
Y1013D01*
X687Y1014D01*
X688Y1016D01*
X689Y1018D01*
X690Y1019D01*
X690Y1019D01*
X691Y1021D01*
X693Y1022D01*
X693Y1023D01*
X694Y1024D01*
X696Y1025D01*
X698D01*
X698Y1024D01*
X699Y1024D01*
Y1024D01*
X699Y1023D01*
X698Y1022D01*
Y1022D01*
X698Y1021D01*
X698Y1020D01*
X698Y1019D01*
X699Y1019D01*
X701D01*
X703Y1019D01*
X704Y1019D01*
X704Y1020D01*
X705D01*
Y1021D01*
X705Y1022D01*
X705Y1023D01*
X705Y1023D01*
X706Y1024D01*
X707Y1024D01*
X708Y1024D01*
X709D01*
X710Y1025D01*
X711Y1026D01*
X711Y1026D01*
X714Y1029D01*
X717Y1027D01*
X718Y1025D01*
X719Y1024D01*
X720Y1023D01*
Y1023D01*
Y1022D01*
X720Y1021D01*
Y1018D01*
X721Y1017D01*
Y1016D01*
Y1015D01*
Y1015D01*
Y1012D01*
Y1009D01*
X720Y1007D01*
Y1005D01*
Y1003D01*
X720Y1002D01*
Y1002D01*
Y1001D01*
X720Y996D01*
X717Y999D01*
X716Y1001D01*
X715Y1001D01*
X714Y1002D01*
X714D01*
X713Y1001D01*
X713Y1000D01*
X713Y999D01*
Y998D01*
Y998D01*
X714Y997D01*
Y997D01*
X714Y996D01*
X715Y996D01*
X715Y996D01*
X716Y997D01*
X716Y997D01*
X717Y997D01*
Y996D01*
Y995D01*
X716Y994D01*
Y993D01*
X716Y992D01*
X715Y991D01*
X715Y990D01*
X714Y990D01*
X713Y989D01*
X713Y989D01*
X713D01*
X712Y988D01*
X712Y988D01*
Y987D01*
Y987D01*
X712Y987D01*
Y986D01*
Y986D01*
X711D01*
X711Y986D01*
X708D01*
X708Y986D01*
X708Y985D01*
Y985D01*
Y984D01*
X707Y982D01*
X706Y979D01*
X705Y978D01*
X705Y977D01*
Y977D01*
X702Y972D01*
X704Y965D01*
X706Y959D01*
Y965D01*
Y969D01*
X707Y972D01*
X707Y975D01*
X707Y977D01*
X708Y979D01*
X708Y980D01*
X709Y981D01*
Y981D01*
X709Y982D01*
X709Y983D01*
X709Y983D01*
Y983D01*
Y984D01*
X709Y985D01*
X710D01*
X711Y984D01*
X711Y984D01*
X712Y983D01*
X712Y983D01*
X713Y981D01*
X714Y981D01*
X715Y980D01*
X716D01*
X718Y980D01*
X719Y979D01*
X719Y979D01*
Y979D01*
X719Y977D01*
X720Y976D01*
X721Y976D01*
X721Y975D01*
X721Y975D01*
X721Y974D01*
X721D01*
X720Y974D01*
Y972D01*
X721Y971D01*
X721Y970D01*
Y970D01*
X721Y968D01*
Y966D01*
Y964D01*
X721Y964D01*
Y963D01*
X721Y962D01*
X721Y961D01*
X721Y959D01*
X721Y958D01*
X721Y957D01*
X722Y956D01*
Y955D01*
Y954D01*
Y954D01*
X722Y953D01*
X722Y953D01*
X723Y953D01*
X725Y954D01*
X725Y954D01*
X725D01*
X727Y956D01*
X729Y957D01*
X730Y958D01*
X730Y958D01*
X731Y959D01*
X733Y960D01*
X736Y962D01*
X737Y963D01*
X738Y963D01*
X739Y964D01*
X740Y964D01*
X747Y969D01*
X752Y966D01*
X754Y964D01*
X756Y963D01*
X757Y962D01*
X758Y962D01*
X759Y961D01*
X760Y960D01*
X762Y958D01*
X764Y957D01*
X765Y956D01*
X767Y955D01*
X768Y954D01*
X768Y953D01*
X772Y951D01*
X774Y949D01*
X775Y948D01*
X776Y948D01*
X778Y946D01*
X779Y945D01*
X780Y944D01*
X780Y944D01*
X781Y943D01*
X782Y943D01*
X782Y942D01*
Y941D01*
Y941D01*
X781Y941D01*
X780Y941D01*
X779Y941D01*
X779D01*
X777Y942D01*
X777Y943D01*
X776Y943D01*
X776Y943D01*
X775Y944D01*
X774Y943D01*
X773D01*
X772Y944D01*
X772Y944D01*
Y945D01*
X771Y946D01*
X771Y947D01*
X769Y948D01*
X768Y949D01*
X767Y950D01*
X766Y951D01*
X765Y951D01*
X765Y952D01*
X763Y953D01*
X761Y955D01*
X760Y956D01*
X759Y956D01*
X758Y957D01*
X758D01*
X757Y957D01*
X757Y958D01*
X756Y958D01*
X755Y958D01*
X754D01*
X753Y958D01*
X753Y959D01*
Y959D01*
X753Y960D01*
X752Y961D01*
X751Y962D01*
X750Y963D01*
X749Y964D01*
X747Y965D01*
X746Y965D01*
X746D01*
X746Y965D01*
X745Y965D01*
X744Y964D01*
X742Y963D01*
X738Y961D01*
X734Y958D01*
X730Y955D01*
X727Y953D01*
X725Y952D01*
X724Y951D01*
X724Y951D01*
X723Y950D01*
X719Y948D01*
X716Y945D01*
X713Y943D01*
X710Y941D01*
X708Y940D01*
X706Y939D01*
X705Y938D01*
X703Y937D01*
X702Y936D01*
X701Y935D01*
X700Y934D01*
X700Y933D01*
Y932D01*
X700Y930D01*
Y930D01*
X701Y928D01*
X702Y928D01*
X703Y927D01*
X703Y927D01*
X704Y926D01*
X705D01*
X705Y926D01*
X706Y927D01*
Y928D01*
X705Y928D01*
X705Y930D01*
X704Y930D01*
Y931D01*
X703Y932D01*
X703Y932D01*
Y933D01*
X703D01*
X708Y929D01*
X713Y926D01*
X716Y923D01*
X720Y920D01*
X722Y918D01*
X725Y917D01*
X726Y915D01*
X728Y914D01*
X729Y913D01*
X730Y912D01*
X731Y912D01*
X732Y911D01*
X731Y910D01*
X730Y909D01*
X729Y908D01*
X729Y907D01*
X727Y905D01*
X718Y911D01*
X712Y916D01*
X709Y918D01*
X707Y920D01*
X705Y921D01*
X703Y923D01*
X702Y923D01*
X702Y924D01*
X699Y925D01*
X697Y927D01*
X696Y928D01*
X694Y928D01*
X693Y928D01*
X693D01*
X692Y928D01*
X691Y927D01*
X689Y926D01*
X688Y925D01*
X688Y925D01*
X686Y924D01*
X684Y923D01*
X683Y922D01*
X683Y921D01*
X681Y920D01*
X680Y920D01*
X678D01*
X677Y920D01*
X675Y919D01*
X673Y917D01*
X672Y917D01*
X672Y917D01*
X670Y916D01*
X669Y915D01*
X667Y914D01*
X666Y914D01*
X665Y913D01*
X664D01*
X663Y913D01*
X661Y912D01*
X659Y911D01*
X658Y910D01*
X658Y910D01*
X657Y909D01*
X656Y908D01*
X655Y907D01*
X654Y907D01*
X654Y906D01*
Y906D01*
X655Y905D01*
X656Y904D01*
X658Y903D01*
X660Y901D01*
X662Y900D01*
X664Y899D01*
X665Y898D01*
X666Y897D01*
X670Y894D01*
X675Y891D01*
X678Y889D01*
X681Y887D01*
X682Y886D01*
X684Y885D01*
X684Y884D01*
X685Y884D01*
X687Y883D01*
X688Y882D01*
X689Y881D01*
X690D01*
X691Y882D01*
X692Y882D01*
X695Y884D01*
X697Y885D01*
X698Y886D01*
X699Y886D01*
X699Y887D01*
X701Y888D01*
X703Y890D01*
X705Y891D01*
X705Y892D01*
X706Y892D01*
X706Y892D01*
X707D01*
X708Y892D01*
X709Y893D01*
X710Y894D01*
X710Y895D01*
X711D01*
X713Y897D01*
X715Y899D01*
X717Y900D01*
X717Y900D01*
X717D01*
X720Y902D01*
X721Y902D01*
X721D01*
Y902D01*
X721Y901D01*
X720Y900D01*
X718Y899D01*
X718Y899D01*
X718Y898D01*
X715Y896D01*
X713Y894D01*
X712Y893D01*
X712Y893D01*
X711Y892D01*
X709Y891D01*
X706Y889D01*
X705Y888D01*
X703Y887D01*
X702Y886D01*
X702Y886D01*
X694Y880D01*
X698Y874D01*
X701Y871D01*
X703Y868D01*
X705Y867D01*
X705Y867D01*
X705D01*
X707Y866D01*
X709Y865D01*
X712Y864D01*
X715Y863D01*
X718Y862D01*
X721Y861D01*
X722Y860D01*
X722Y860D01*
X723D01*
X726Y859D01*
X729Y857D01*
X731Y857D01*
X732Y856D01*
X733Y856D01*
X733Y855D01*
X734Y855D01*
X734Y855D01*
X735Y854D01*
X736Y853D01*
X737Y853D01*
X741Y851D01*
X745Y849D01*
X748Y848D01*
X751Y847D01*
X753Y846D01*
X753Y846D01*
X754Y845D01*
X754D01*
X758Y844D01*
X761Y843D01*
X766Y841D01*
X771Y840D01*
X774Y839D01*
X777Y838D01*
X778Y837D01*
X779Y837D01*
X780D01*
X781Y837D01*
X784Y836D01*
X786Y835D01*
X789Y834D01*
X795Y832D01*
X801Y830D01*
X807Y827D01*
X810Y826D01*
X812Y825D01*
X814Y825D01*
X816Y824D01*
X816Y824D01*
X817D01*
X824Y821D01*
X830Y819D01*
X835Y817D01*
X840Y815D01*
X844Y813D01*
X848Y812D01*
X851Y810D01*
X853Y809D01*
X856Y808D01*
X857Y808D01*
X859Y807D01*
X860Y806D01*
X861Y806D01*
X862Y806D01*
X864Y805D01*
X866Y804D01*
X867Y803D01*
X868Y802D01*
X869Y801D01*
X869Y801D01*
X870Y799D01*
Y797D01*
X869Y796D01*
Y796D01*
X868Y795D01*
X868Y794D01*
X867Y794D01*
X867D01*
X866Y793D01*
X866Y793D01*
Y792D01*
Y792D01*
Y790D01*
X865Y789D01*
Y788D01*
Y787D01*
X865Y786D01*
X865Y786D01*
X864Y786D01*
X864Y787D01*
X862D01*
X862Y788D01*
Y788D01*
X862Y790D01*
X863Y792D01*
X863Y792D01*
Y793D01*
X864Y794D01*
X864Y796D01*
X865Y797D01*
X865Y798D01*
X865Y799D01*
Y800D01*
X865Y801D01*
X864Y802D01*
X863Y802D01*
X862Y803D01*
X856Y805D01*
X850Y808D01*
X844Y810D01*
X840Y812D01*
X836Y813D01*
X832Y814D01*
X831Y815D01*
X830Y815D01*
X830Y815D01*
X830D01*
X828Y816D01*
X825Y817D01*
X823Y818D01*
X820Y820D01*
X817Y821D01*
X815Y821D01*
X813Y822D01*
X812Y822D01*
X808Y824D01*
X804Y826D01*
X800Y827D01*
X797Y829D01*
X795Y829D01*
X793Y830D01*
X793Y830D01*
X792D01*
X789Y831D01*
X787Y832D01*
X786Y832D01*
X784D01*
X784Y832D01*
X783Y831D01*
X783Y831D01*
X783Y830D01*
X784Y830D01*
X784Y829D01*
X784Y828D01*
X785Y825D01*
X784Y823D01*
Y823D01*
Y822D01*
X784Y821D01*
X783Y819D01*
X783Y818D01*
X783Y817D01*
X782Y816D01*
X782Y815D01*
X780Y815D01*
X777D01*
X776Y816D01*
X776Y817D01*
Y818D01*
Y818D01*
X776Y821D01*
X777Y824D01*
X777Y825D01*
Y826D01*
X777Y826D01*
Y827D01*
X778Y832D01*
X766Y837D01*
X762Y838D01*
X758Y840D01*
X756Y841D01*
X754Y842D01*
X753Y842D01*
X752Y843D01*
X752Y843D01*
X750Y844D01*
X749Y844D01*
X749Y845D01*
X748D01*
X746Y845D01*
X745Y845D01*
X743Y846D01*
X739Y848D01*
X735Y850D01*
X731Y852D01*
X727Y853D01*
X726Y854D01*
X725Y855D01*
X724Y855D01*
X724D01*
X721Y856D01*
X718Y857D01*
X713Y859D01*
X710Y861D01*
X708Y862D01*
X706Y862D01*
X705Y863D01*
X704D01*
X704Y862D01*
X704Y861D01*
X703Y860D01*
X703Y858D01*
Y856D01*
Y854D01*
Y853D01*
Y853D01*
Y843D01*
X715Y839D01*
X719Y837D01*
X723Y836D01*
X726Y835D01*
X729Y833D01*
X731Y833D01*
X733Y832D01*
X733Y832D01*
X734D01*
X736Y831D01*
X738Y830D01*
X739Y829D01*
X740Y829D01*
X740Y829D01*
X741Y828D01*
X739D01*
X737Y829D01*
X736Y829D01*
X734Y830D01*
X734Y830D01*
X733D01*
X730Y832D01*
X726Y833D01*
X724Y834D01*
X721Y835D01*
X718Y836D01*
X717Y837D01*
X713Y838D01*
X711Y838D01*
X709Y839D01*
X709Y839D01*
X708D01*
X705Y840D01*
X702Y841D01*
X701D01*
X698Y840D01*
X697Y839D01*
X696Y839D01*
Y838D01*
Y838D01*
X697Y837D01*
X698Y834D01*
X700Y831D01*
X702Y828D01*
X704Y824D01*
X706Y821D01*
X707Y820D01*
X708Y819D01*
X708Y819D01*
X708Y819D01*
X711Y816D01*
X713Y813D01*
X715Y810D01*
X717Y808D01*
X719Y804D01*
X722Y801D01*
X723Y800D01*
X724Y798D01*
X725Y798D01*
X725Y798D01*
X726Y797D01*
X727Y796D01*
X730Y794D01*
X733Y790D01*
X736Y787D01*
X739Y784D01*
X741Y781D01*
X742Y779D01*
X743Y779D01*
X744Y778D01*
X744Y778D01*
X747Y775D01*
X749Y772D01*
X751Y769D01*
X753Y767D01*
X754Y765D01*
X755Y764D01*
X757Y761D01*
X758Y760D01*
X758Y759D01*
Y759D01*
X758Y759D01*
X757Y758D01*
X757Y759D01*
X757Y759D01*
X755Y761D01*
X754Y763D01*
X752Y765D01*
X750Y767D01*
X748Y769D01*
X747Y770D01*
X747Y771D01*
X743Y775D01*
X740Y779D01*
X737Y782D01*
X735Y785D01*
X733Y787D01*
X732Y788D01*
X731Y789D01*
X731Y789D01*
X730Y791D01*
X729Y792D01*
X728Y793D01*
X728Y793D01*
X726Y794D01*
X726Y795D01*
X725Y795D01*
X725D01*
X724Y795D01*
X721D01*
X720Y795D01*
X718Y795D01*
X717D01*
X716Y796D01*
X716D01*
X713Y796D01*
X710Y797D01*
X708Y797D01*
X705Y797D01*
X704Y797D01*
X703Y798D01*
X702D01*
X700Y798D01*
X698Y798D01*
X697Y799D01*
X697Y799D01*
X696Y799D01*
Y800D01*
X696Y800D01*
X697Y801D01*
X698Y800D01*
X698D01*
X703Y799D01*
X707Y798D01*
X710Y798D01*
X713Y797D01*
X715D01*
X717Y797D01*
X718D01*
X719Y797D01*
Y798D01*
X718Y800D01*
X717Y801D01*
X717Y802D01*
X716Y803D01*
X715Y804D01*
X715Y805D01*
X713Y806D01*
X712Y808D01*
X711Y809D01*
X711Y809D01*
X710Y810D01*
Y810D01*
X710Y811D01*
X709Y812D01*
X707Y814D01*
X706Y816D01*
X705Y817D01*
X705Y818D01*
X705Y818D01*
X701Y822D01*
X699Y826D01*
X697Y829D01*
X695Y831D01*
X694Y832D01*
X693Y833D01*
X693Y833D01*
X691Y835D01*
X689Y836D01*
X689Y836D01*
X689D01*
X688Y836D01*
X686D01*
X683Y836D01*
X679Y836D01*
X675Y837D01*
X671Y837D01*
X667Y838D01*
X666Y838D01*
X665Y838D01*
X664D01*
X660Y839D01*
X662Y836D01*
X664Y834D01*
X665Y833D01*
X666Y832D01*
Y832D01*
X666Y831D01*
X666Y831D01*
X666D01*
X665Y831D01*
X665Y831D01*
X665Y832D01*
X663Y833D01*
X662Y833D01*
X660D01*
Y834D01*
Y834D01*
X660Y836D01*
X660Y837D01*
X659Y837D01*
Y837D01*
X659D01*
X659Y837D01*
X658Y837D01*
X658Y835D01*
X657Y835D01*
Y835D01*
X657Y833D01*
X655Y832D01*
X654Y831D01*
X654D01*
X653Y831D01*
X652Y830D01*
X651Y830D01*
Y829D01*
Y829D01*
Y828D01*
Y828D01*
X652Y828D01*
X652D01*
X654Y829D01*
X655Y828D01*
X656Y827D01*
X657Y826D01*
X658Y825D01*
X659Y824D01*
X660Y823D01*
X660Y822D01*
X661Y821D01*
X661Y821D01*
X662Y820D01*
X663D01*
Y821D01*
X662Y822D01*
X662Y822D01*
X662Y823D01*
X661Y824D01*
Y824D01*
Y825D01*
X662D01*
X662Y824D01*
X663Y824D01*
X663Y824D01*
X663Y823D01*
X664Y823D01*
X666D01*
Y822D01*
X666Y821D01*
Y821D01*
X666Y820D01*
X666Y820D01*
X667Y819D01*
X668D01*
X669Y819D01*
X669Y820D01*
Y820D01*
X669D01*
X670Y820D01*
X670Y820D01*
X671Y819D01*
X671Y818D01*
X672D01*
X672Y818D01*
X673Y817D01*
X674Y817D01*
X674Y816D01*
X675Y815D01*
X676Y813D01*
X677Y812D01*
X678Y812D01*
X678Y811D01*
Y811D01*
X678Y810D01*
X674D01*
X672Y811D01*
X670Y811D01*
X668D01*
X666Y812D01*
X666Y813D01*
X665Y814D01*
Y814D01*
Y817D01*
X664Y814D01*
X664Y813D01*
X663Y813D01*
X663Y812D01*
X662Y813D01*
X661Y813D01*
X659Y813D01*
X659D01*
X656Y814D01*
X654Y814D01*
X652D01*
X651Y814D01*
X650Y813D01*
X650Y812D01*
Y812D01*
Y811D01*
X650Y809D01*
X651Y809D01*
X651Y809D01*
X652Y808D01*
X653Y807D01*
X653Y806D01*
Y806D01*
X653Y804D01*
X652Y803D01*
X652Y802D01*
X652Y802D01*
X651Y801D01*
X650Y799D01*
X650Y798D01*
X649Y797D01*
Y797D01*
X649Y794D01*
X648Y792D01*
Y790D01*
X648Y789D01*
Y789D01*
Y789D01*
X647Y785D01*
X647Y781D01*
X646Y779D01*
X646Y778D01*
X645Y777D01*
X645Y777D01*
X645Y776D01*
X644Y777D01*
X644Y777D01*
X644Y779D01*
X644Y781D01*
Y782D01*
Y782D01*
Y784D01*
Y785D01*
Y786D01*
Y786D01*
Y787D01*
X644Y787D01*
X643Y787D01*
X643Y786D01*
X642Y785D01*
X642Y784D01*
Y784D01*
X642Y782D01*
X641Y781D01*
X641Y781D01*
Y780D01*
X640Y779D01*
X639Y779D01*
X639Y778D01*
X638Y778D01*
X637Y777D01*
X637Y778D01*
Y778D01*
Y780D01*
X638Y782D01*
X638Y784D01*
X638Y785D01*
X639Y786D01*
Y786D01*
X640Y789D01*
X640Y791D01*
X641Y793D01*
X641Y795D01*
X641Y796D01*
Y797D01*
Y797D01*
Y799D01*
X642Y800D01*
Y800D01*
X642Y801D01*
X642Y802D01*
X643D01*
X644Y801D01*
X644Y801D01*
X645Y800D01*
X646Y800D01*
X646Y800D01*
X646D01*
X647Y800D01*
X647Y800D01*
X647Y801D01*
X647Y801D01*
X646Y802D01*
X645Y803D01*
X644Y803D01*
X643Y804D01*
X642Y805D01*
X642Y806D01*
Y807D01*
X642Y809D01*
X642Y810D01*
Y810D01*
X643Y811D01*
X644Y811D01*
X645Y811D01*
X646D01*
X647Y811D01*
X648Y812D01*
Y813D01*
Y814D01*
X647Y815D01*
X646Y816D01*
X646Y816D01*
X645Y817D01*
X643Y817D01*
X640Y818D01*
X639Y818D01*
X638Y819D01*
X637Y819D01*
X637D01*
X634Y821D01*
X630Y822D01*
X629Y823D01*
X628Y823D01*
X628Y824D01*
X627D01*
X626Y825D01*
X624Y826D01*
X623Y827D01*
X623Y827D01*
X622Y828D01*
Y828D01*
Y829D01*
X623Y829D01*
X624Y830D01*
X627Y831D01*
X630Y831D01*
X632Y831D01*
X634Y832D01*
X637D01*
X640Y832D01*
X642D01*
X645Y832D01*
X646Y833D01*
X647Y833D01*
X648D01*
X649Y833D01*
X649D01*
X651Y834D01*
X652Y836D01*
X652Y837D01*
Y838D01*
Y839D01*
Y840D01*
X652Y841D01*
X651Y842D01*
X651D01*
X650Y842D01*
X648Y843D01*
X647Y843D01*
X647D01*
X646Y844D01*
X644Y845D01*
X643D01*
X642Y845D01*
X641Y846D01*
X639Y847D01*
X639Y847D01*
X638Y848D01*
X638Y849D01*
X638Y850D01*
Y850D01*
X638Y851D01*
X638Y851D01*
Y852D01*
Y852D01*
X637D01*
X636Y852D01*
X635Y852D01*
X635Y851D01*
X634Y851D01*
X633Y850D01*
X633Y850D01*
X632D01*
X631Y849D01*
X631Y850D01*
Y850D01*
Y851D01*
Y851D01*
X631Y852D01*
X630Y852D01*
X629Y853D01*
X628Y853D01*
X626Y854D01*
X624D01*
Y853D01*
X625Y852D01*
X625Y851D01*
X626Y850D01*
X626Y849D01*
X626Y848D01*
X627Y847D01*
Y847D01*
X626Y846D01*
X626Y845D01*
X626Y845D01*
X626Y845D01*
X624Y844D01*
X623Y844D01*
X622Y843D01*
X622D01*
X619Y843D01*
X618Y843D01*
X618D01*
X622Y845D01*
X622Y846D01*
X623Y846D01*
X624Y847D01*
X625Y847D01*
X625Y848D01*
Y848D01*
Y848D01*
X625D01*
X623Y848D01*
X622Y848D01*
X622Y847D01*
X622Y847D01*
X620Y846D01*
X620D01*
X619Y846D01*
X618Y847D01*
X618Y848D01*
X618Y850D01*
X617Y851D01*
Y853D01*
Y854D01*
Y854D01*
Y856D01*
X617Y857D01*
Y858D01*
Y858D01*
X616Y859D01*
X616Y859D01*
X615D01*
X614Y860D01*
X614D01*
X614Y860D01*
Y860D01*
Y860D01*
Y861D01*
Y861D01*
X613Y862D01*
X612Y863D01*
X612Y863D01*
X609Y864D01*
X607Y866D01*
X605Y868D01*
X604Y868D01*
X604D01*
X602Y870D01*
X601Y871D01*
X600Y871D01*
X600D01*
X599Y872D01*
X598Y871D01*
X597Y871D01*
X597D01*
X595Y870D01*
X594Y870D01*
X593Y868D01*
X593Y868D01*
Y867D01*
X593Y866D01*
X592Y866D01*
X592Y866D01*
X591Y865D01*
X590Y864D01*
X588Y863D01*
X588Y863D01*
X586Y861D01*
X584Y860D01*
X582Y859D01*
X582Y858D01*
X578Y856D01*
X581Y854D01*
X583Y853D01*
X584Y852D01*
X585D01*
X586Y852D01*
X587Y851D01*
X587Y851D01*
X588Y850D01*
X589Y849D01*
X593Y846D01*
X594Y845D01*
X595Y845D01*
X596Y844D01*
X597Y844D01*
X604Y838D01*
X599Y837D01*
X598Y836D01*
X597Y836D01*
X595Y836D01*
X594D01*
X596Y837D01*
X598Y838D01*
X598Y838D01*
X599Y838D01*
X598Y839D01*
X598Y839D01*
X596Y841D01*
X594Y842D01*
X594Y842D01*
X594D01*
X590Y845D01*
X588Y846D01*
X586Y847D01*
X586Y847D01*
X585Y848D01*
X585Y848D01*
X584Y848D01*
X583Y849D01*
X582Y850D01*
X580Y852D01*
X579Y852D01*
X579D01*
X574Y855D01*
X568Y852D01*
X563Y849D01*
X560Y847D01*
X559Y846D01*
X558Y846D01*
X558Y845D01*
X558D01*
X556Y845D01*
X555Y844D01*
X554Y844D01*
X554Y844D01*
Y845D01*
X554Y845D01*
X556Y846D01*
X558Y848D01*
X560Y849D01*
X563Y851D01*
X565Y852D01*
X566Y853D01*
X567Y853D01*
X567D01*
X574Y858D01*
X578Y860D01*
X581Y862D01*
X584Y864D01*
X586Y865D01*
X587Y866D01*
X587Y867D01*
X591Y869D01*
X593Y871D01*
X595Y873D01*
X596Y874D01*
X597Y875D01*
X597Y876D01*
X598Y876D01*
X598D01*
X600Y875D01*
X602Y873D01*
X602Y873D01*
X602Y872D01*
X604Y871D01*
X606Y870D01*
X607Y869D01*
X608Y868D01*
X609Y868D01*
X610D01*
X610Y869D01*
X609Y870D01*
X608Y871D01*
X607Y871D01*
X607Y872D01*
X606Y872D01*
Y873D01*
X607Y874D01*
X607Y874D01*
X608Y875D01*
X608Y875D01*
Y876D01*
X608Y876D01*
X607Y877D01*
X606Y877D01*
X604Y877D01*
X598D01*
X597Y878D01*
X596Y878D01*
X595D01*
X594Y879D01*
X593Y880D01*
X591Y882D01*
X591Y882D01*
X588Y886D01*
X585Y888D01*
X583Y889D01*
X582Y890D01*
X582D01*
X581Y891D01*
X580Y891D01*
X579Y891D01*
X582D01*
X583Y891D01*
X584D01*
X584Y891D01*
Y892D01*
Y892D01*
Y892D01*
X584Y893D01*
X584Y894D01*
X583Y898D01*
X583Y900D01*
X582Y901D01*
X582Y902D01*
Y902D01*
X581Y911D01*
X575Y913D01*
X571Y915D01*
X568Y916D01*
X567Y916D01*
X566Y916D01*
X565Y917D01*
X565D01*
X563Y917D01*
X561Y918D01*
X556Y920D01*
X554Y921D01*
X552Y922D01*
X550Y922D01*
X550Y922D01*
X547Y924D01*
X544Y925D01*
X542Y925D01*
X540Y926D01*
X539Y926D01*
X539Y926D01*
X538D01*
X537Y927D01*
X535Y927D01*
X534Y928D01*
X533Y928D01*
X531Y929D01*
X528Y931D01*
X526Y932D01*
X524Y932D01*
X521Y933D01*
X519Y934D01*
X518Y934D01*
X516D01*
Y934D01*
Y933D01*
X517Y931D01*
X517Y929D01*
X517Y928D01*
Y928D01*
X518Y924D01*
X519Y921D01*
X519Y920D01*
X520Y919D01*
X520Y919D01*
Y918D01*
X521Y918D01*
Y917D01*
X520D01*
X519Y918D01*
X519Y918D01*
X519D01*
X517Y919D01*
X516Y921D01*
X515Y923D01*
X514Y926D01*
X513Y928D01*
X512Y931D01*
X512Y932D01*
X511Y933D01*
X511Y935D01*
X510Y937D01*
X510Y938D01*
X509Y939D01*
X508Y940D01*
X508Y941D01*
X507Y942D01*
X506Y942D01*
X504Y943D01*
X502Y944D01*
X501Y944D01*
X501D01*
X499Y945D01*
X498Y945D01*
X497Y946D01*
X496Y946D01*
X495Y946D01*
X495Y947D01*
X494Y947D01*
X494Y948D01*
X492D01*
X491Y948D01*
X488Y949D01*
X487Y950D01*
X485Y950D01*
X485Y951D01*
X484D01*
X482Y952D01*
X481Y952D01*
X479Y953D01*
X479Y953D01*
X478Y953D01*
X477D01*
X477Y953D01*
Y953D01*
X477Y952D01*
Y952D01*
X478Y951D01*
Y950D01*
X477D01*
X476Y951D01*
X476Y951D01*
X475Y952D01*
Y952D01*
Y953D01*
X475Y953D01*
X475Y954D01*
X473Y955D01*
X472Y956D01*
X472Y956D01*
X471Y956D01*
X468D01*
Y956D01*
X468Y955D01*
X467Y955D01*
X467D01*
X466Y955D01*
X465Y956D01*
Y956D01*
Y956D01*
Y957D01*
X465Y958D01*
X464Y958D01*
X464Y959D01*
X463Y959D01*
X461Y960D01*
X459Y961D01*
X457Y962D01*
X455Y963D01*
X453Y964D01*
X452Y964D01*
X451Y964D01*
X450Y965D01*
X448Y966D01*
X447Y966D01*
X447D01*
X446Y966D01*
X446D01*
X445Y966D01*
Y965D01*
X445Y964D01*
Y964D01*
X446Y962D01*
Y962D01*
Y961D01*
X445D01*
X445Y962D01*
X444Y962D01*
X443Y963D01*
X442Y962D01*
X442D01*
X441Y962D01*
X440D01*
Y962D01*
X440Y963D01*
X441Y964D01*
Y964D01*
X441Y965D01*
X442Y967D01*
X442Y968D01*
Y969D01*
X442Y969D01*
X443Y969D01*
X444D01*
X446Y969D01*
X448Y968D01*
X451Y967D01*
X454Y966D01*
X460Y964D01*
X466Y961D01*
X469Y960D01*
X471Y960D01*
X473Y959D01*
X475Y958D01*
X476Y958D01*
X476Y957D01*
X483Y955D01*
X488Y953D01*
X493Y951D01*
X497Y949D01*
X500Y948D01*
X503Y946D01*
X506Y945D01*
X508Y944D01*
X510Y943D01*
X512Y942D01*
X513Y942D01*
X514Y941D01*
X515Y941D01*
X515Y940D01*
X517Y939D01*
X519Y938D01*
X523Y936D01*
X525Y935D01*
X527Y935D01*
X528Y934D01*
X528D01*
X532Y933D01*
X536Y932D01*
X540Y930D01*
X543Y929D01*
X547Y928D01*
X549Y927D01*
X551Y926D01*
X551Y926D01*
X552D01*
X557Y924D01*
X562Y922D01*
X566Y920D01*
X570Y919D01*
X573Y918D01*
X576Y917D01*
X578Y917D01*
X581Y916D01*
X582Y916D01*
X584Y916D01*
X586Y915D01*
X587D01*
X589Y916D01*
X590Y916D01*
X591Y917D01*
X591D01*
Y917D01*
X590Y918D01*
X589Y921D01*
X588Y922D01*
X587Y923D01*
X587Y924D01*
X586Y924D01*
X582Y931D01*
X588Y924D01*
X594Y918D01*
X605D01*
X607Y918D01*
X609Y919D01*
X610Y919D01*
X610Y920D01*
X611Y920D01*
X611Y920D01*
X611Y921D01*
Y921D01*
X612Y920D01*
Y920D01*
X612Y919D01*
X613Y919D01*
X614D01*
X615Y919D01*
X616Y919D01*
X617D01*
X617Y920D01*
Y920D01*
Y920D01*
Y920D01*
X616Y921D01*
X616Y921D01*
X615D01*
X614Y921D01*
X614D01*
X613Y921D01*
Y922D01*
X613Y923D01*
X613Y924D01*
X614Y924D01*
X614Y924D01*
X612D01*
X611Y925D01*
X610Y925D01*
X610Y926D01*
X609Y927D01*
X609Y928D01*
X609Y930D01*
Y930D01*
X608Y933D01*
X607Y936D01*
X605Y940D01*
X603Y943D01*
X601Y945D01*
X599Y947D01*
X598Y948D01*
X598Y949D01*
X596Y951D01*
X594Y952D01*
X591Y956D01*
X589Y958D01*
X588Y960D01*
X587Y960D01*
X587Y961D01*
X585Y963D01*
X583Y965D01*
X582Y967D01*
X581Y968D01*
X580Y968D01*
X579Y969D01*
X579Y969D01*
X578Y969D01*
X576Y970D01*
X573D01*
X571Y970D01*
X561D01*
X558Y970D01*
X556Y971D01*
X554D01*
X553Y971D01*
X552Y971D01*
X552D01*
X550Y972D01*
X549Y974D01*
X548Y976D01*
Y976D01*
Y976D01*
X548Y979D01*
X562Y979D01*
X572D01*
X573Y979D01*
X574D01*
X575Y979D01*
X576D01*
X576Y980D01*
X575Y980D01*
X573Y983D01*
X571Y986D01*
X568Y990D01*
X565Y994D01*
X562Y997D01*
X561Y998D01*
X560Y999D01*
X560Y999D01*
X560Y1000D01*
X557Y1003D01*
X555Y1005D01*
X554Y1006D01*
X553Y1008D01*
X552Y1009D01*
X551Y1009D01*
X551Y1010D01*
X548Y1014D01*
X545Y1017D01*
X543Y1020D01*
X541Y1023D01*
X539Y1025D01*
X537Y1027D01*
X534Y1031D01*
X532Y1033D01*
X531Y1035D01*
X530Y1035D01*
X530Y1035D01*
X528Y1037D01*
X527Y1038D01*
X525Y1039D01*
X523Y1040D01*
X520D01*
X519Y1039D01*
X518Y1039D01*
X518Y1039D01*
X516Y1039D01*
X515D01*
X514Y1039D01*
X511D01*
X509Y1039D01*
X506Y1038D01*
X505Y1037D01*
X504Y1036D01*
X503Y1036D01*
X503Y1036D01*
Y1035D01*
X503Y1034D01*
X504Y1033D01*
X505Y1033D01*
X504Y1033D01*
X503Y1034D01*
X501Y1035D01*
X501Y1035D01*
X501D01*
X499Y1037D01*
X498Y1039D01*
X497Y1040D01*
X496Y1041D01*
X495Y1043D01*
Y1045D01*
X495Y1047D01*
X496Y1048D01*
X497Y1049D01*
X497Y1049D01*
X498Y1050D01*
X499Y1050D01*
X501Y1051D01*
X503Y1050D01*
X503Y1050D01*
X503D01*
X506Y1050D01*
X507D01*
X508Y1050D01*
X508Y1050D01*
X509Y1051D01*
X510Y1052D01*
X511D01*
X512Y1051D01*
D02*
G37*
G36*
X710Y543D02*
X711Y543D01*
X711Y543D01*
X712Y543D01*
X714Y542D01*
X714Y542D01*
X715Y541D01*
X715Y541D01*
X716Y541D01*
X716Y540D01*
X717Y540D01*
X717Y540D01*
X717Y540D01*
X717Y540D01*
X717Y540D01*
X718Y539D01*
X719Y538D01*
X719Y537D01*
X719Y537D01*
X720Y536D01*
X720Y535D01*
X720Y534D01*
X721Y533D01*
X721Y533D01*
X721Y532D01*
X721Y532D01*
X721Y532D01*
Y531D01*
Y531D01*
Y531D01*
X721Y530D01*
X721Y529D01*
X721Y529D01*
X720Y528D01*
X720Y526D01*
X719Y525D01*
X719Y525D01*
X718Y524D01*
X718Y524D01*
X718Y523D01*
X718Y523D01*
X718Y523D01*
X717Y523D01*
X717Y523D01*
X717Y522D01*
X716Y522D01*
X715Y521D01*
X715Y521D01*
X714Y520D01*
X713Y520D01*
X712Y520D01*
X711Y519D01*
X711Y519D01*
X710Y519D01*
X710Y519D01*
X709Y519D01*
X709D01*
X708Y519D01*
X707Y519D01*
X706Y520D01*
X705Y520D01*
X704Y520D01*
X703Y521D01*
X702Y521D01*
X702Y522D01*
X701Y522D01*
X701Y522D01*
X701Y522D01*
X700Y523D01*
X700Y523D01*
X700Y523D01*
X700Y523D01*
X699Y524D01*
X699Y525D01*
X698Y525D01*
X698Y526D01*
X698Y527D01*
X697Y528D01*
X697Y529D01*
X697Y529D01*
X697Y530D01*
X697Y530D01*
X697Y531D01*
Y531D01*
Y531D01*
Y531D01*
X697Y532D01*
X697Y533D01*
X697Y534D01*
X697Y535D01*
X698Y536D01*
X698Y537D01*
X699Y538D01*
X699Y538D01*
X699Y539D01*
X700Y539D01*
X700Y539D01*
X700Y539D01*
X700Y540D01*
X700Y540D01*
X701Y540D01*
X702Y541D01*
X702Y541D01*
X703Y542D01*
X704Y542D01*
X704Y542D01*
X706Y543D01*
X706Y543D01*
X707Y543D01*
X707Y543D01*
X708Y543D01*
X708Y543D01*
X709D01*
X710Y543D01*
D02*
G37*
G36*
X463Y552D02*
X463Y552D01*
X464Y552D01*
X464Y552D01*
X464Y552D01*
X464Y552D01*
X464Y551D01*
Y551D01*
X464Y551D01*
X464Y551D01*
X464Y551D01*
X464Y551D01*
X463Y550D01*
X463Y550D01*
X463Y550D01*
X456D01*
Y522D01*
X465D01*
X465Y522D01*
X466Y522D01*
X466Y522D01*
X466Y522D01*
X466Y522D01*
X466Y521D01*
X466Y521D01*
Y521D01*
X466Y521D01*
X466Y521D01*
X466Y520D01*
X466Y520D01*
X465Y520D01*
X465Y520D01*
X465Y520D01*
X446D01*
X445Y520D01*
X445Y520D01*
X444Y520D01*
X444Y520D01*
X444Y521D01*
X444Y521D01*
X444Y521D01*
Y521D01*
X444Y521D01*
X444Y522D01*
X444Y522D01*
X444Y522D01*
X445Y522D01*
X445Y522D01*
X445Y522D01*
X454D01*
Y552D01*
X462D01*
X463Y552D01*
D02*
G37*
G36*
X773Y526D02*
X774Y526D01*
X774Y526D01*
X774Y526D01*
X775Y525D01*
X775Y525D01*
X775Y525D01*
X775Y525D01*
X775Y525D01*
X776Y524D01*
X776Y524D01*
X776Y524D01*
X776Y523D01*
X776Y523D01*
Y523D01*
Y523D01*
X776Y522D01*
X776Y522D01*
X776Y521D01*
X776Y521D01*
X775Y521D01*
X775Y520D01*
X775Y520D01*
X775Y520D01*
X775Y520D01*
X774Y520D01*
X774Y519D01*
X773Y519D01*
X773Y519D01*
X773Y519D01*
X772D01*
X771Y519D01*
X771Y519D01*
X770Y519D01*
X770Y520D01*
X770Y520D01*
X769Y520D01*
X769Y520D01*
X769Y520D01*
X769Y521D01*
X769Y521D01*
X768Y521D01*
X768Y522D01*
X768Y522D01*
X768Y522D01*
Y523D01*
Y523D01*
X768Y523D01*
X768Y524D01*
X768Y524D01*
X769Y524D01*
X769Y525D01*
X769Y525D01*
X769Y525D01*
X769Y525D01*
X770Y525D01*
X770Y526D01*
X770Y526D01*
X771Y526D01*
X771Y526D01*
X771Y526D01*
X773D01*
X773Y526D01*
D02*
G37*
G36*
X615Y842D02*
X612Y840D01*
X610Y839D01*
X609Y839D01*
X609Y839D01*
X608D01*
Y840D01*
X609Y840D01*
X609Y841D01*
X610Y841D01*
X611Y842D01*
X613Y842D01*
X614D01*
X615Y842D01*
D02*
G37*
G36*
X609Y863D02*
X609Y863D01*
X610Y863D01*
Y862D01*
X609Y862D01*
X609Y861D01*
X609Y861D01*
X608D01*
X608Y861D01*
X607Y862D01*
Y862D01*
Y862D01*
X607Y863D01*
X608Y864D01*
X608D01*
X609Y863D01*
D02*
G37*
G36*
X720Y992D02*
X720Y991D01*
X721Y990D01*
X720Y988D01*
X720Y987D01*
X719Y986D01*
Y986D01*
X719Y985D01*
X718Y984D01*
X717Y983D01*
X716Y982D01*
X715D01*
X714Y982D01*
X714Y983D01*
X714Y984D01*
Y984D01*
X715Y986D01*
X716Y987D01*
X716Y989D01*
X716Y989D01*
X717Y991D01*
X718Y992D01*
X718Y992D01*
X719D01*
X720Y992D01*
D02*
G37*
G36*
X608Y860D02*
Y859D01*
Y859D01*
Y859D01*
X608Y858D01*
X607Y858D01*
X607Y857D01*
X606Y858D01*
X606Y858D01*
X606Y858D01*
Y859D01*
X607Y859D01*
X607Y860D01*
X608D01*
X608Y860D01*
D02*
G37*
G36*
X638Y846D02*
X639Y846D01*
X639Y845D01*
X639Y845D01*
X640Y844D01*
X640Y844D01*
Y843D01*
X640D01*
X639Y844D01*
X639D01*
X638Y844D01*
X637Y843D01*
X637Y843D01*
Y842D01*
X636Y841D01*
X635Y839D01*
X635Y838D01*
X634Y838D01*
X634Y837D01*
X633Y837D01*
X631Y837D01*
X630Y837D01*
X630Y837D01*
X629Y839D01*
X629Y839D01*
X628Y840D01*
Y840D01*
Y841D01*
Y841D01*
X629Y841D01*
X629Y840D01*
X629Y840D01*
X630Y839D01*
X631Y839D01*
X633D01*
X634Y840D01*
X634Y840D01*
X634Y841D01*
Y841D01*
X634Y842D01*
X634Y842D01*
X632Y843D01*
X630Y842D01*
X629D01*
X629Y843D01*
X628Y843D01*
Y844D01*
Y844D01*
X629Y845D01*
X630Y846D01*
X630Y846D01*
X632D01*
X633Y846D01*
X633Y845D01*
Y845D01*
X634Y844D01*
X634Y844D01*
X634Y844D01*
X634Y844D01*
X635Y844D01*
X635Y845D01*
X636Y845D01*
X637Y846D01*
X637Y846D01*
X638Y846D01*
X638Y846D01*
D02*
G37*
G36*
X603Y859D02*
Y859D01*
Y858D01*
Y858D01*
X602Y857D01*
X602Y857D01*
X601Y857D01*
X601D01*
X600Y857D01*
X600Y858D01*
X600Y858D01*
X601Y859D01*
X601D01*
X602Y860D01*
X602D01*
X603Y859D01*
D02*
G37*
G36*
X594Y693D02*
X595Y692D01*
X596Y692D01*
X597Y692D01*
X598Y691D01*
X598Y691D01*
X599Y691D01*
X599Y691D01*
X599Y690D01*
X600Y689D01*
X600Y689D01*
X601Y688D01*
X601Y687D01*
X601Y687D01*
Y686D01*
Y686D01*
X601Y686D01*
X601Y685D01*
X600Y684D01*
X599Y683D01*
X598Y683D01*
X597Y682D01*
X596Y682D01*
X596Y682D01*
X593D01*
X602Y641D01*
X604D01*
X605Y640D01*
X606Y640D01*
X607Y640D01*
X608Y639D01*
X608Y639D01*
X609Y639D01*
X609Y639D01*
X609Y638D01*
X610Y638D01*
X610Y637D01*
X611Y636D01*
X611Y636D01*
X611Y635D01*
X611Y634D01*
Y634D01*
Y634D01*
X611Y633D01*
X610Y632D01*
X610Y631D01*
X609Y630D01*
X608Y630D01*
X607Y630D01*
X607Y630D01*
X598D01*
X560Y676D01*
X568Y641D01*
X571D01*
X573Y640D01*
X574Y640D01*
X575Y640D01*
X576Y639D01*
X577Y639D01*
X578Y639D01*
X578Y638D01*
X578Y638D01*
X579Y637D01*
X579Y637D01*
X579Y635D01*
X579Y635D01*
X580Y634D01*
Y634D01*
Y634D01*
X579Y633D01*
X579Y633D01*
X579Y632D01*
X578Y631D01*
X577Y630D01*
X575Y630D01*
X575Y630D01*
X574Y630D01*
X557D01*
X556Y630D01*
X555Y630D01*
X554Y630D01*
X553Y631D01*
X553Y631D01*
X552Y631D01*
X552Y632D01*
X552Y632D01*
X551Y632D01*
X551Y633D01*
X550Y634D01*
X550Y635D01*
X550Y635D01*
X550Y636D01*
Y636D01*
Y636D01*
X550Y637D01*
X550Y638D01*
X551Y639D01*
X551Y639D01*
X552Y640D01*
X553Y640D01*
X554Y640D01*
X555Y641D01*
X558D01*
X549Y682D01*
X547D01*
X546Y682D01*
X545Y682D01*
X544Y683D01*
X544Y683D01*
X543Y684D01*
X543Y684D01*
X543Y684D01*
X542Y684D01*
X542Y685D01*
X541Y686D01*
X541Y686D01*
X541Y687D01*
X541Y688D01*
X541Y688D01*
Y688D01*
Y688D01*
X541Y689D01*
X541Y690D01*
X542Y691D01*
X543Y692D01*
X544Y692D01*
X545Y692D01*
X546Y693D01*
X547Y693D01*
X559D01*
X588Y656D01*
X582Y682D01*
X579D01*
X578Y682D01*
X577Y682D01*
X576Y683D01*
X575Y683D01*
X574Y683D01*
X574Y684D01*
X573Y684D01*
X573Y684D01*
X572Y684D01*
X572Y685D01*
X571Y686D01*
X571Y687D01*
X571Y687D01*
X571Y688D01*
Y688D01*
Y688D01*
X571Y689D01*
X571Y690D01*
X572Y691D01*
X573Y692D01*
X574Y692D01*
X575Y692D01*
X576Y693D01*
X577Y693D01*
X593D01*
X594Y693D01*
D02*
G37*
G36*
X809Y490D02*
X809Y490D01*
X809D01*
X810Y490D01*
X810Y490D01*
X810Y490D01*
X810Y490D01*
X810Y489D01*
Y489D01*
Y489D01*
X810Y489D01*
X810Y489D01*
Y488D01*
X810Y488D01*
X810Y488D01*
X810Y488D01*
X809D01*
X809Y488D01*
X807D01*
X796Y460D01*
X793D01*
X783Y488D01*
X781D01*
X781Y488D01*
X781D01*
X780Y488D01*
X780Y488D01*
X780Y488D01*
Y488D01*
X780Y489D01*
X780Y489D01*
Y489D01*
Y489D01*
Y489D01*
X780Y489D01*
X780Y490D01*
X780Y490D01*
X780Y490D01*
X780Y490D01*
X780Y490D01*
X781D01*
X781Y490D01*
X781Y490D01*
X789D01*
X790Y490D01*
X790Y490D01*
X790D01*
X790Y490D01*
X790Y490D01*
X790Y490D01*
X790Y490D01*
X790Y489D01*
X790Y489D01*
Y489D01*
Y489D01*
X790Y489D01*
X790Y489D01*
Y488D01*
X790Y488D01*
X790Y488D01*
X790Y488D01*
X790D01*
X790Y488D01*
X785D01*
X795Y462D01*
X795D01*
X805Y488D01*
X801D01*
X800Y488D01*
X800D01*
X800Y488D01*
X800Y488D01*
X800Y488D01*
Y488D01*
X800Y489D01*
X799Y489D01*
Y489D01*
Y489D01*
Y489D01*
X799Y489D01*
X800Y490D01*
X800Y490D01*
X800Y490D01*
X800Y490D01*
X800Y490D01*
X800D01*
X800Y490D01*
X801Y490D01*
X809D01*
X809Y490D01*
D02*
G37*
G36*
X852Y693D02*
X853Y692D01*
X854Y692D01*
X855Y692D01*
X855Y692D01*
X856Y691D01*
X856Y691D01*
X856Y691D01*
X857Y690D01*
X858Y689D01*
X858Y688D01*
X859Y688D01*
X859Y687D01*
X859Y687D01*
Y686D01*
Y686D01*
Y685D01*
X859Y685D01*
X859Y684D01*
X858Y684D01*
X858Y683D01*
X858Y683D01*
X857Y683D01*
X856Y682D01*
X855Y682D01*
X854Y682D01*
X853Y682D01*
X851D01*
X860Y641D01*
X861Y640D01*
X862Y640D01*
X863Y640D01*
X864Y639D01*
X865Y639D01*
X865Y639D01*
X865Y639D01*
X866Y638D01*
X866Y638D01*
X867Y637D01*
X867Y636D01*
X868Y636D01*
X868Y635D01*
X868Y634D01*
Y634D01*
Y634D01*
Y633D01*
X868Y633D01*
X867Y632D01*
X867Y631D01*
X867Y631D01*
X866Y631D01*
X865Y630D01*
X864Y630D01*
X863Y630D01*
X845D01*
X845Y630D01*
X844Y630D01*
X843Y631D01*
X842Y631D01*
X842Y631D01*
X842Y631D01*
X842D01*
X840Y632D01*
X840Y633D01*
X839Y634D01*
X839Y635D01*
X838Y636D01*
X838Y636D01*
Y636D01*
Y636D01*
Y637D01*
X839Y638D01*
X839Y639D01*
X839Y639D01*
X840Y639D01*
X840D01*
X841Y640D01*
X842Y640D01*
X842Y641D01*
X849D01*
X844Y667D01*
X839Y645D01*
X829D01*
X808Y676D01*
X816Y641D01*
X820D01*
X820Y640D01*
X821Y640D01*
X822Y640D01*
X823Y639D01*
X823Y639D01*
X823Y639D01*
X824Y639D01*
X825Y638D01*
X825Y637D01*
X826Y636D01*
X826Y636D01*
X827Y635D01*
X827Y634D01*
Y634D01*
Y634D01*
Y633D01*
X826Y633D01*
X826Y632D01*
X826Y631D01*
X825Y631D01*
X824Y630D01*
X823Y630D01*
X823Y630D01*
X805D01*
X804Y630D01*
X803Y630D01*
X802Y630D01*
X801Y631D01*
X801Y631D01*
X801Y631D01*
X800Y631D01*
X800D01*
X799Y632D01*
X798Y633D01*
X798Y634D01*
X798Y635D01*
X797Y636D01*
X797Y636D01*
Y636D01*
Y636D01*
Y637D01*
X797Y638D01*
X798Y639D01*
X798Y639D01*
X798Y639D01*
X798D01*
X799Y640D01*
X800Y640D01*
X801Y640D01*
X802Y640D01*
X803Y641D01*
X805D01*
X796Y682D01*
X795Y682D01*
X794Y682D01*
X793Y683D01*
X792Y683D01*
X792Y684D01*
X791Y684D01*
X791Y684D01*
X791Y684D01*
X790Y685D01*
X789Y686D01*
X789Y686D01*
X789Y687D01*
X788Y688D01*
X788Y688D01*
Y688D01*
Y688D01*
Y689D01*
X788Y690D01*
X789Y691D01*
X789Y691D01*
X789Y692D01*
X790D01*
X790Y692D01*
X791Y692D01*
X792Y693D01*
X793Y693D01*
X809D01*
X830Y661D01*
X837Y693D01*
X851D01*
X852Y693D01*
D02*
G37*
G36*
X461Y669D02*
X461Y668D01*
Y668D01*
Y667D01*
X461Y667D01*
X460Y666D01*
X460Y666D01*
X460Y666D01*
X460Y665D01*
X459Y665D01*
X458Y665D01*
X458D01*
X457Y665D01*
X457Y665D01*
X456Y666D01*
X456Y666D01*
X455Y667D01*
X455Y667D01*
X454Y668D01*
X454Y668D01*
Y669D01*
X445Y694D01*
X459D01*
X461Y669D01*
D02*
G37*
G36*
X438D02*
X439Y668D01*
Y668D01*
Y667D01*
X438Y667D01*
X438Y666D01*
X438Y666D01*
X438Y666D01*
X437Y665D01*
X437Y665D01*
X436Y665D01*
X436D01*
X435Y665D01*
X434Y665D01*
X434Y666D01*
X434Y666D01*
X433Y667D01*
X432Y667D01*
X432Y668D01*
X432Y668D01*
Y669D01*
X423Y694D01*
X437D01*
X438Y669D01*
D02*
G37*
G36*
X803Y608D02*
X804Y608D01*
X805Y608D01*
X805Y607D01*
X806Y607D01*
X807Y606D01*
X808Y606D01*
X808Y605D01*
X808Y605D01*
X808Y605D01*
Y607D01*
X812D01*
X813Y607D01*
X813Y607D01*
X813Y607D01*
X813Y607D01*
X813Y607D01*
X813Y607D01*
X813Y606D01*
Y606D01*
X813Y606D01*
X813Y606D01*
X813Y606D01*
X813Y606D01*
X813Y605D01*
X812Y605D01*
X812Y605D01*
X810D01*
Y587D01*
X812D01*
X813Y587D01*
X813Y587D01*
X813Y587D01*
X813Y587D01*
X813Y587D01*
X813Y586D01*
X813Y586D01*
Y586D01*
X813Y586D01*
X813Y586D01*
X813Y585D01*
X813Y585D01*
X813Y585D01*
X812Y585D01*
X812Y585D01*
X806D01*
X806Y585D01*
X805Y585D01*
X805Y585D01*
X805Y585D01*
X805Y586D01*
X805Y586D01*
X805Y586D01*
Y586D01*
X805Y586D01*
X805Y587D01*
X805Y587D01*
X805Y587D01*
X805Y587D01*
X806Y587D01*
X806Y587D01*
X808D01*
Y602D01*
X807Y602D01*
X807Y603D01*
X806Y604D01*
X806Y604D01*
X805Y605D01*
X805Y605D01*
X805Y605D01*
X805Y605D01*
X804Y605D01*
X804Y606D01*
X803Y606D01*
X803Y606D01*
X803Y606D01*
X802D01*
X802Y606D01*
X802Y606D01*
X801Y606D01*
X801Y605D01*
X801Y605D01*
X800Y605D01*
X800Y605D01*
X800Y605D01*
X800Y604D01*
X800Y604D01*
X799Y603D01*
X799Y603D01*
X799Y603D01*
X799Y602D01*
Y602D01*
Y602D01*
Y585D01*
X795D01*
X795Y585D01*
X794Y585D01*
X794Y585D01*
X794Y585D01*
X794Y586D01*
X794Y586D01*
X794Y586D01*
Y586D01*
X794Y586D01*
X794Y587D01*
X794Y587D01*
X794Y587D01*
X794Y587D01*
X795Y587D01*
X795Y587D01*
X797D01*
Y602D01*
X796Y602D01*
X796Y603D01*
X795Y604D01*
X795Y604D01*
X795Y605D01*
X794Y605D01*
X794Y605D01*
X794Y605D01*
X794Y605D01*
X793Y606D01*
X793Y606D01*
X792Y606D01*
X792Y606D01*
X792Y606D01*
X791D01*
X791Y606D01*
X791Y606D01*
X790Y606D01*
X790Y605D01*
X790Y605D01*
X789Y605D01*
X789Y605D01*
X789Y605D01*
X789Y604D01*
X789Y604D01*
X788Y604D01*
X788Y603D01*
X788Y603D01*
X788Y602D01*
Y602D01*
Y602D01*
Y585D01*
X784D01*
X784Y585D01*
X783Y585D01*
X783Y585D01*
X783Y585D01*
X783Y586D01*
X783Y586D01*
X783Y586D01*
Y586D01*
X783Y586D01*
X783Y587D01*
X783Y587D01*
X783Y587D01*
X783Y587D01*
X784Y587D01*
X784Y587D01*
X786D01*
Y602D01*
X786Y603D01*
X786Y604D01*
X786Y605D01*
X787Y605D01*
X787Y606D01*
X787Y606D01*
X788Y607D01*
X788Y607D01*
X788Y607D01*
X789Y608D01*
X790Y608D01*
X790Y608D01*
X791Y608D01*
X791Y608D01*
X792D01*
X792Y608D01*
X793Y608D01*
X793Y608D01*
X794Y608D01*
X794Y608D01*
X794Y607D01*
X795Y607D01*
X795Y607D01*
X795Y607D01*
X796Y606D01*
X796Y606D01*
X797Y606D01*
X797Y605D01*
X797Y605D01*
X797Y605D01*
X797Y605D01*
X798Y605D01*
X798Y606D01*
X799Y606D01*
X799Y607D01*
X799Y607D01*
X799Y607D01*
X800Y607D01*
X800Y607D01*
X800Y608D01*
X801Y608D01*
X801Y608D01*
X802Y608D01*
X802Y608D01*
X802Y608D01*
X803D01*
X803Y608D01*
D02*
G37*
G36*
X514D02*
X515Y608D01*
X516Y608D01*
X517Y608D01*
X518Y607D01*
X518Y607D01*
X519Y607D01*
X519Y607D01*
X519Y607D01*
X519Y607D01*
X519D01*
X520Y607D01*
X521Y607D01*
X521Y606D01*
X522Y606D01*
X522Y606D01*
X522Y606D01*
X522Y606D01*
X522Y606D01*
X522Y606D01*
X522Y605D01*
Y605D01*
X522Y605D01*
X522Y605D01*
X522Y605D01*
X522Y605D01*
X522Y604D01*
X522Y604D01*
X521Y604D01*
X521D01*
X521Y604D01*
X521Y604D01*
X520Y604D01*
X520Y604D01*
X520D01*
X519Y605D01*
X517Y605D01*
X516Y606D01*
X515Y606D01*
X514Y606D01*
X514Y606D01*
X513D01*
X512Y606D01*
X511Y606D01*
X510Y606D01*
X509Y605D01*
X509Y605D01*
X509Y605D01*
X508Y605D01*
X508Y605D01*
X508Y604D01*
X507Y604D01*
X507Y603D01*
X507Y603D01*
X507Y602D01*
X507Y602D01*
Y602D01*
Y601D01*
Y598D01*
X507Y598D01*
X508Y598D01*
X509Y598D01*
X509Y598D01*
X510Y599D01*
X510D01*
X510Y599D01*
X510D01*
X512Y599D01*
X512Y599D01*
X513Y599D01*
X515D01*
X516Y599D01*
X516Y599D01*
X517Y598D01*
X518Y598D01*
X519Y598D01*
X519Y598D01*
X520Y598D01*
X520Y597D01*
X521Y597D01*
X521Y597D01*
X522Y597D01*
X522Y597D01*
X522Y597D01*
X522Y596D01*
X522D01*
X523Y596D01*
X523Y596D01*
X523Y595D01*
X524Y595D01*
X524Y594D01*
X525Y593D01*
X525Y592D01*
X525Y591D01*
X525Y591D01*
Y591D01*
Y591D01*
Y591D01*
X525Y590D01*
X525Y589D01*
X524Y588D01*
X524Y587D01*
X523Y587D01*
X523Y586D01*
X523Y586D01*
X523Y586D01*
X522Y585D01*
X521Y585D01*
X520Y585D01*
X519Y584D01*
X518Y584D01*
X518Y584D01*
X517D01*
X517Y584D01*
X517D01*
X516Y584D01*
X515Y584D01*
X514Y585D01*
X513Y585D01*
X511Y585D01*
X510Y586D01*
X510Y586D01*
X509Y587D01*
X508Y587D01*
X508Y587D01*
X507Y588D01*
X507Y588D01*
X507Y588D01*
X507Y588D01*
X507Y588D01*
Y585D01*
X501D01*
X501Y585D01*
X501Y585D01*
X500Y585D01*
X500Y585D01*
X500Y586D01*
X500Y586D01*
X500Y586D01*
Y586D01*
X500Y586D01*
X500Y587D01*
X500Y587D01*
X500Y587D01*
X501Y587D01*
X501Y587D01*
X501Y587D01*
X504D01*
Y601D01*
X504Y602D01*
X505Y603D01*
X505Y604D01*
X506Y605D01*
X506Y605D01*
X506Y606D01*
X507Y606D01*
X507Y606D01*
X508Y607D01*
X509Y607D01*
X510Y608D01*
X511Y608D01*
X512Y608D01*
X512Y608D01*
X512D01*
X513Y608D01*
X513D01*
X514Y608D01*
D02*
G37*
G36*
X714Y692D02*
X715Y692D01*
X716Y692D01*
X717Y692D01*
X718Y692D01*
X718Y691D01*
X718Y691D01*
X718Y691D01*
X719Y690D01*
X719Y690D01*
X719Y689D01*
X720Y688D01*
X720Y688D01*
Y687D01*
Y687D01*
X720Y686D01*
X719Y686D01*
X719Y685D01*
X719Y684D01*
X718Y683D01*
X716Y683D01*
X715Y682D01*
X714Y682D01*
X714Y682D01*
X712D01*
X718Y653D01*
X719Y650D01*
X719Y648D01*
X720Y647D01*
X721Y645D01*
X722Y644D01*
X722Y643D01*
X723Y642D01*
X724Y641D01*
X725Y640D01*
X725Y640D01*
X726Y639D01*
X727Y639D01*
X727Y639D01*
X727Y639D01*
X728D01*
X727Y640D01*
X727Y641D01*
X727Y642D01*
X727Y643D01*
X727Y643D01*
Y643D01*
Y644D01*
X727Y645D01*
X727Y645D01*
X728Y647D01*
X728Y647D01*
X729Y648D01*
X731Y648D01*
X731Y648D01*
X732Y649D01*
X732D01*
X733Y648D01*
X734Y648D01*
X735Y648D01*
X735Y648D01*
X736Y647D01*
X736Y647D01*
X736Y647D01*
X736Y647D01*
X737Y646D01*
X737Y645D01*
X738Y643D01*
X738Y643D01*
X738Y642D01*
X738Y641D01*
Y641D01*
X740Y635D01*
X740Y634D01*
X740Y633D01*
Y633D01*
Y633D01*
X740Y632D01*
X739Y631D01*
X739Y631D01*
X738Y630D01*
X737Y630D01*
X737Y630D01*
X736Y630D01*
X736D01*
X735Y629D01*
X733Y629D01*
X732Y629D01*
X731Y628D01*
X730D01*
X729Y628D01*
X729D01*
X727Y628D01*
X726Y629D01*
X723Y629D01*
X721Y630D01*
X719Y632D01*
X717Y634D01*
X715Y636D01*
X714Y638D01*
X712Y640D01*
X711Y642D01*
X710Y644D01*
X709Y646D01*
X709Y648D01*
X708Y649D01*
X708Y650D01*
X708Y651D01*
Y651D01*
Y651D01*
X701Y682D01*
X687D01*
X696Y641D01*
X697D01*
X698Y640D01*
X699Y640D01*
X700Y640D01*
X701Y640D01*
X701Y639D01*
X702Y639D01*
X702Y639D01*
X702Y639D01*
X703Y638D01*
X703Y637D01*
X703Y637D01*
X703Y636D01*
X703Y636D01*
Y635D01*
Y635D01*
X703Y634D01*
X703Y633D01*
X703Y633D01*
X703Y632D01*
X702Y632D01*
X702Y631D01*
X702Y631D01*
X702Y631D01*
X701Y631D01*
X700Y630D01*
X699Y630D01*
X698Y630D01*
X697D01*
X696Y630D01*
X685D01*
X683Y630D01*
X682Y630D01*
X681Y631D01*
X681Y631D01*
X680Y631D01*
X680Y631D01*
X680D01*
X679Y632D01*
X679Y632D01*
X678Y633D01*
X678Y634D01*
X678Y634D01*
X678Y635D01*
Y635D01*
Y635D01*
X678Y636D01*
X678Y637D01*
X679Y638D01*
X679Y638D01*
X680Y639D01*
X681Y640D01*
X683Y640D01*
X684Y640D01*
X684Y641D01*
X685D01*
X676Y682D01*
X674Y682D01*
X673Y682D01*
X672Y683D01*
X671Y683D01*
X671Y683D01*
X670Y683D01*
X670Y683D01*
X670D01*
X669Y684D01*
X669Y685D01*
X668Y685D01*
X668Y686D01*
X668Y686D01*
X668Y687D01*
Y687D01*
Y687D01*
X668Y688D01*
X668Y689D01*
X669Y690D01*
X669Y690D01*
X669Y691D01*
X670Y691D01*
X670Y691D01*
X670D01*
X671Y692D01*
X672Y692D01*
X673Y692D01*
X674Y693D01*
X675D01*
X676Y693D01*
X713D01*
X714Y692D01*
D02*
G37*
G36*
X511D02*
X513Y692D01*
X515Y692D01*
X517Y691D01*
X519Y691D01*
X520Y690D01*
X522Y690D01*
X523Y689D01*
X524Y689D01*
X525Y688D01*
X525Y688D01*
X526Y688D01*
X526Y687D01*
X526Y687D01*
X526Y687D01*
X527Y686D01*
X528Y685D01*
X529Y684D01*
X530Y683D01*
X531Y680D01*
X531Y678D01*
X532Y676D01*
X532Y675D01*
X532Y675D01*
X532Y674D01*
Y674D01*
Y673D01*
Y673D01*
X532Y671D01*
X532Y670D01*
X531Y668D01*
X530Y667D01*
X530Y666D01*
X529Y664D01*
X528Y663D01*
X527Y663D01*
X525Y662D01*
X524Y661D01*
X523Y661D01*
X523Y660D01*
X522Y660D01*
X521Y660D01*
X521Y660D01*
X521D01*
X522Y658D01*
X524Y657D01*
X525Y656D01*
X526Y655D01*
X527Y654D01*
X527Y653D01*
X528Y652D01*
X528Y652D01*
X529Y650D01*
X530Y649D01*
X532Y647D01*
X533Y645D01*
X534Y643D01*
X535Y642D01*
X536Y641D01*
X536Y641D01*
X536Y641D01*
X536Y641D01*
X541D01*
X542Y640D01*
X542Y640D01*
X543Y640D01*
X544Y639D01*
X545Y638D01*
X546Y637D01*
X546Y636D01*
X546Y635D01*
Y635D01*
Y635D01*
X546Y634D01*
X545Y633D01*
X545Y632D01*
X545Y632D01*
Y632D01*
X544Y631D01*
X543Y630D01*
X542Y630D01*
X542Y630D01*
X542D01*
X541Y630D01*
X540D01*
X538Y630D01*
X535D01*
X533Y630D01*
X532Y630D01*
X532Y631D01*
X531Y631D01*
X531Y631D01*
X530Y631D01*
X530Y632D01*
X529Y633D01*
X528Y634D01*
X527Y635D01*
X526Y636D01*
X526Y637D01*
X526Y637D01*
X524Y640D01*
X522Y642D01*
X521Y644D01*
X519Y646D01*
X518Y648D01*
X517Y649D01*
X516Y650D01*
X516Y651D01*
X515Y652D01*
X514Y653D01*
X514Y654D01*
X514Y654D01*
X513Y654D01*
X513Y655D01*
X513Y655D01*
X512Y656D01*
X511Y656D01*
X510Y657D01*
X509Y657D01*
X508Y658D01*
X508Y658D01*
X504D01*
X508Y641D01*
X510D01*
X512Y640D01*
X513Y640D01*
X513Y640D01*
X514Y640D01*
X515Y639D01*
X515Y639D01*
X515Y639D01*
X515Y639D01*
X516Y638D01*
X516Y638D01*
X517Y637D01*
X517Y636D01*
X517Y636D01*
Y635D01*
Y635D01*
X517Y634D01*
X517Y633D01*
X516Y633D01*
X516Y632D01*
X516Y632D01*
X516Y631D01*
X515Y631D01*
X515Y631D01*
X514Y631D01*
X513Y630D01*
X511Y630D01*
X510D01*
X509Y630D01*
X497D01*
X496Y630D01*
X495Y630D01*
X494Y631D01*
X493Y631D01*
X492Y631D01*
X492Y631D01*
X492D01*
X492Y632D01*
X491Y632D01*
X491Y633D01*
X490Y634D01*
X490Y634D01*
X490Y635D01*
Y635D01*
Y635D01*
X490Y636D01*
X491Y637D01*
X491Y638D01*
X491Y638D01*
X492Y639D01*
X494Y640D01*
X495Y640D01*
X496Y640D01*
X497Y641D01*
X497D01*
X488Y682D01*
X487Y682D01*
X485Y682D01*
X484Y683D01*
X484Y683D01*
X483Y683D01*
X483Y683D01*
X482Y683D01*
X482D01*
X482Y684D01*
X481Y685D01*
X481Y685D01*
X481Y686D01*
X481Y686D01*
X480Y687D01*
Y687D01*
Y687D01*
X481Y688D01*
X481Y689D01*
X481Y690D01*
X481Y690D01*
X482Y691D01*
X482Y691D01*
X482Y691D01*
X482D01*
X483Y692D01*
X484Y692D01*
X486Y693D01*
X488D01*
X488Y693D01*
X509D01*
X511Y692D01*
D02*
G37*
G36*
X761Y694D02*
X764Y693D01*
X767Y693D01*
X769Y692D01*
X771Y691D01*
X772Y691D01*
X773Y690D01*
X773Y690D01*
X774Y689D01*
X774Y689D01*
X775Y689D01*
X775Y689D01*
X778Y687D01*
X781Y684D01*
X784Y681D01*
X786Y679D01*
X787Y678D01*
X788Y677D01*
X788Y676D01*
X789Y675D01*
X789Y674D01*
X790Y674D01*
X790Y673D01*
X790Y673D01*
X791Y671D01*
X792Y670D01*
X793Y666D01*
X794Y663D01*
X795Y660D01*
X795Y658D01*
X795Y657D01*
X795Y656D01*
Y655D01*
X795Y654D01*
Y654D01*
Y653D01*
Y653D01*
X795Y651D01*
X795Y649D01*
X795Y648D01*
X794Y646D01*
X794Y644D01*
X793Y643D01*
X793Y641D01*
X792Y640D01*
X791Y639D01*
X791Y638D01*
X790Y637D01*
X790Y637D01*
X789Y636D01*
X789Y636D01*
X789Y635D01*
X789Y635D01*
X787Y634D01*
X786Y633D01*
X785Y632D01*
X783Y631D01*
X782Y631D01*
X780Y630D01*
X778Y629D01*
X776Y629D01*
X775Y629D01*
X774Y629D01*
X773Y628D01*
X773Y628D01*
X772D01*
X769Y628D01*
X767Y629D01*
X765Y629D01*
X763Y630D01*
X761Y630D01*
X760Y631D01*
X759Y631D01*
X759Y631D01*
X759Y631D01*
X759D01*
X756Y633D01*
X754Y634D01*
X752Y636D01*
X750Y637D01*
X749Y638D01*
X748Y639D01*
X747Y640D01*
X747Y640D01*
X745Y642D01*
X743Y644D01*
X742Y646D01*
X740Y649D01*
X739Y650D01*
X739Y651D01*
X738Y652D01*
X738Y652D01*
X738Y653D01*
X738Y653D01*
Y653D01*
X737Y656D01*
X736Y659D01*
X735Y662D01*
X735Y664D01*
X735Y665D01*
Y667D01*
X734Y667D01*
X734Y668D01*
Y669D01*
Y669D01*
Y669D01*
Y670D01*
X734Y672D01*
X735Y673D01*
X735Y675D01*
X735Y677D01*
X736Y680D01*
X737Y681D01*
X738Y682D01*
X738Y684D01*
X739Y684D01*
X740Y685D01*
X740Y686D01*
X741Y687D01*
X741Y687D01*
X741Y687D01*
X741Y687D01*
X742Y689D01*
X744Y690D01*
X745Y691D01*
X747Y691D01*
X748Y692D01*
X749Y693D01*
X752Y693D01*
X753Y694D01*
X754Y694D01*
X755Y694D01*
X756Y694D01*
X757Y694D01*
X759D01*
X761Y694D01*
D02*
G37*
G36*
X606Y466D02*
X606Y466D01*
X607Y466D01*
X607Y466D01*
X607Y465D01*
X608Y465D01*
X608Y465D01*
X608Y465D01*
X608Y465D01*
X608Y464D01*
X608Y464D01*
X609Y464D01*
X609Y463D01*
X609Y463D01*
Y463D01*
Y463D01*
X609Y462D01*
X609Y462D01*
X608Y461D01*
X608Y461D01*
X608Y461D01*
X608Y460D01*
X608Y460D01*
X608Y460D01*
X607Y460D01*
X607Y460D01*
X606Y459D01*
X606Y459D01*
X606Y459D01*
X605Y459D01*
X604D01*
X604Y459D01*
X603Y459D01*
X603Y459D01*
X603Y460D01*
X602Y460D01*
X602Y460D01*
X602Y460D01*
X602Y460D01*
X601Y461D01*
X601Y461D01*
X601Y461D01*
X601Y462D01*
X601Y462D01*
X601Y462D01*
Y463D01*
Y463D01*
X601Y463D01*
X601Y464D01*
X601Y464D01*
X601Y464D01*
X601Y465D01*
X602Y465D01*
X602Y465D01*
X602Y465D01*
X602Y465D01*
X603Y466D01*
X603Y466D01*
X603Y466D01*
X604Y466D01*
X604Y466D01*
X605D01*
X606Y466D01*
D02*
G37*
G36*
X701D02*
X701Y466D01*
X702Y466D01*
X702Y466D01*
X702Y465D01*
X703Y465D01*
X703Y465D01*
X703Y465D01*
X703Y465D01*
X703Y464D01*
X704Y464D01*
X704Y464D01*
X704Y463D01*
X704Y463D01*
Y463D01*
Y463D01*
X704Y462D01*
X704Y462D01*
X704Y461D01*
X703Y461D01*
X703Y461D01*
X703Y460D01*
X703Y460D01*
X703Y460D01*
X702Y460D01*
X702Y460D01*
X702Y459D01*
X701Y459D01*
X701Y459D01*
X701Y459D01*
X699D01*
X699Y459D01*
X698Y459D01*
X698Y459D01*
X698Y460D01*
X697Y460D01*
X697Y460D01*
X697Y460D01*
X697Y460D01*
X697Y461D01*
X696Y461D01*
X696Y461D01*
X696Y462D01*
X696Y462D01*
X696Y462D01*
Y463D01*
Y463D01*
X696Y463D01*
X696Y464D01*
X696Y464D01*
X696Y464D01*
X697Y465D01*
X697Y465D01*
X697Y465D01*
X697Y465D01*
X697Y465D01*
X698Y466D01*
X698Y466D01*
X699Y466D01*
X699Y466D01*
X699Y466D01*
X700D01*
X701Y466D01*
D02*
G37*
G36*
X905Y669D02*
X905Y668D01*
Y668D01*
Y667D01*
X905Y667D01*
X905Y666D01*
X905Y666D01*
X904Y666D01*
X904Y665D01*
X903Y665D01*
X903Y665D01*
X902D01*
X901Y665D01*
X901Y665D01*
X900Y666D01*
X900Y666D01*
X899Y667D01*
X899Y667D01*
X898Y668D01*
X898Y668D01*
Y669D01*
X889Y694D01*
X903D01*
X905Y669D01*
D02*
G37*
G36*
X656Y693D02*
X657Y692D01*
X658Y692D01*
X659Y692D01*
X659Y692D01*
X660Y691D01*
X660Y691D01*
X660Y691D01*
X661Y690D01*
X662Y689D01*
X662Y688D01*
X663Y688D01*
X663Y687D01*
X663Y687D01*
Y686D01*
Y686D01*
Y685D01*
X663Y685D01*
X663Y684D01*
X662Y684D01*
X662Y683D01*
X662Y683D01*
X661Y683D01*
X660Y682D01*
X659Y682D01*
X658Y682D01*
X657Y682D01*
X655D01*
X664Y641D01*
X665D01*
X666Y640D01*
X667Y640D01*
X668Y640D01*
X668Y640D01*
X668Y639D01*
X669Y639D01*
X669Y639D01*
X670Y638D01*
X671Y637D01*
X671Y636D01*
X672Y636D01*
X672Y635D01*
X672Y634D01*
Y634D01*
Y634D01*
Y633D01*
X672Y633D01*
X671Y632D01*
X671Y631D01*
X671Y631D01*
X670Y631D01*
X670Y630D01*
X668Y630D01*
X667Y630D01*
X652D01*
X651Y630D01*
X650Y630D01*
X649Y631D01*
X648Y631D01*
X648Y631D01*
X648Y631D01*
X648D01*
X647Y632D01*
X646Y633D01*
X646Y634D01*
X645Y635D01*
X645Y636D01*
X645Y636D01*
Y636D01*
Y636D01*
Y637D01*
X645Y638D01*
X645Y639D01*
X646Y639D01*
X646Y639D01*
X646D01*
X647Y640D01*
X648Y640D01*
X649Y641D01*
X653D01*
X650Y656D01*
X628D01*
X631Y641D01*
X633D01*
X633Y640D01*
X634Y640D01*
X635Y640D01*
X636Y639D01*
X636Y639D01*
X636Y639D01*
X636Y639D01*
X638Y638D01*
X638Y637D01*
X639Y636D01*
X639Y636D01*
X639Y635D01*
X640Y634D01*
Y634D01*
Y634D01*
Y633D01*
X639Y633D01*
X639Y632D01*
X639Y631D01*
X638Y631D01*
X637Y630D01*
X636Y630D01*
X636Y630D01*
X620D01*
X619Y630D01*
X618Y630D01*
X617Y630D01*
X617Y631D01*
X616Y631D01*
X616Y631D01*
X616Y631D01*
X615D01*
X614Y632D01*
X614Y633D01*
X613Y634D01*
X613Y635D01*
X612Y636D01*
X612Y636D01*
Y636D01*
Y636D01*
X612Y637D01*
X612Y638D01*
X613Y639D01*
X614Y639D01*
X614Y640D01*
X614D01*
X614Y640D01*
X615Y640D01*
X616Y640D01*
X617Y640D01*
X618Y641D01*
X620D01*
X611Y682D01*
X610Y682D01*
X609Y682D01*
X608Y683D01*
X607Y683D01*
X607Y684D01*
X606Y684D01*
X606Y684D01*
X606Y684D01*
X605Y685D01*
X604Y686D01*
X604Y686D01*
X604Y687D01*
X603Y688D01*
X603Y688D01*
Y688D01*
Y688D01*
Y689D01*
X604Y690D01*
X604Y691D01*
X604Y691D01*
X605Y692D01*
X605D01*
X605Y692D01*
X606Y692D01*
X607Y693D01*
X608Y693D01*
X624D01*
X625Y693D01*
X625Y692D01*
X627Y692D01*
X627Y692D01*
X627Y691D01*
X628Y691D01*
X628Y691D01*
X629Y690D01*
X629Y689D01*
X630Y688D01*
X630Y688D01*
X631Y687D01*
X631Y687D01*
Y686D01*
Y686D01*
Y685D01*
X631Y685D01*
X630Y684D01*
X630Y684D01*
X630Y683D01*
X630Y683D01*
X629Y682D01*
X627Y682D01*
X627Y682D01*
X622D01*
X625Y667D01*
X648D01*
X645Y682D01*
X643D01*
X642Y682D01*
X641Y682D01*
X640Y683D01*
X639Y683D01*
X639Y683D01*
X639Y683D01*
X639D01*
X638Y684D01*
X637Y685D01*
X636Y686D01*
X636Y687D01*
X636Y688D01*
X636Y688D01*
Y688D01*
Y688D01*
Y689D01*
X636Y690D01*
X636Y691D01*
X637Y691D01*
X637Y692D01*
X637D01*
X638Y692D01*
X639Y693D01*
X640Y693D01*
X655D01*
X656Y693D01*
D02*
G37*
G36*
X715Y784D02*
X715Y784D01*
X716Y783D01*
X716Y783D01*
X717Y781D01*
X718Y780D01*
X718Y780D01*
Y779D01*
X718Y779D01*
X717D01*
X717Y780D01*
X716Y780D01*
X715Y782D01*
X714Y783D01*
X714Y784D01*
X714Y784D01*
X714Y785D01*
X714D01*
X715Y784D01*
D02*
G37*
G36*
X745Y760D02*
Y760D01*
Y759D01*
Y759D01*
X745Y757D01*
X745Y757D01*
Y756D01*
Y756D01*
X744Y755D01*
X743D01*
X742Y756D01*
X742Y757D01*
Y758D01*
Y758D01*
X742Y760D01*
X743Y760D01*
X744Y761D01*
X744D01*
X745Y760D01*
D02*
G37*
G36*
X883Y669D02*
X883Y668D01*
Y668D01*
Y667D01*
X883Y667D01*
X883Y666D01*
X882Y666D01*
X882Y666D01*
X882Y665D01*
X881Y665D01*
X881Y665D01*
X880D01*
X879Y665D01*
X879Y665D01*
X878Y666D01*
X878Y666D01*
X877Y667D01*
X877Y667D01*
X876Y668D01*
X876Y668D01*
Y669D01*
X867Y694D01*
X881D01*
X883Y669D01*
D02*
G37*
G36*
X765Y483D02*
X766Y483D01*
X766Y483D01*
X767Y483D01*
X769Y482D01*
X769Y482D01*
X770Y481D01*
X770Y481D01*
X771Y481D01*
X771Y481D01*
X772Y480D01*
X772Y480D01*
X772Y480D01*
X772Y480D01*
X772Y480D01*
X773Y479D01*
X773Y478D01*
X774Y478D01*
X774Y477D01*
X775Y476D01*
X775Y476D01*
X775Y474D01*
X776Y473D01*
X776Y473D01*
X776Y472D01*
X776Y472D01*
Y472D01*
Y472D01*
Y472D01*
X776Y471D01*
X776Y470D01*
X775Y469D01*
X775Y468D01*
X775Y467D01*
X774Y466D01*
X774Y465D01*
X774Y465D01*
X773Y464D01*
X773Y464D01*
X773Y463D01*
X772Y463D01*
X772Y463D01*
X772Y463D01*
X772Y463D01*
X771Y462D01*
X771Y462D01*
X770Y461D01*
X769Y461D01*
X768Y460D01*
X768Y460D01*
X766Y460D01*
X765Y459D01*
X765Y459D01*
X764Y459D01*
X764Y459D01*
X763Y459D01*
X763D01*
X762Y459D01*
X760Y459D01*
X759Y460D01*
X758Y460D01*
X758Y460D01*
X757Y460D01*
X757Y460D01*
X757Y460D01*
X756Y460D01*
X756D01*
X755Y461D01*
X754Y461D01*
X754Y462D01*
X753Y462D01*
X753Y462D01*
X752Y463D01*
X752Y463D01*
X752Y463D01*
X752Y463D01*
X752Y463D01*
X752Y464D01*
Y464D01*
X752Y464D01*
X752Y464D01*
X752Y464D01*
X752Y464D01*
X752Y465D01*
X752Y465D01*
X753Y465D01*
X753D01*
X753Y465D01*
X753Y465D01*
X753Y464D01*
X753Y464D01*
X754Y464D01*
X755Y463D01*
X756Y463D01*
X756Y463D01*
X757Y463D01*
X757Y462D01*
X758Y462D01*
X758Y462D01*
X758D01*
X759Y462D01*
X760Y462D01*
X761Y462D01*
X761Y461D01*
X762Y461D01*
X762Y461D01*
X763D01*
X764Y461D01*
X764Y461D01*
X766Y462D01*
X767Y462D01*
X768Y463D01*
X769Y463D01*
X769Y463D01*
X770Y463D01*
X770Y464D01*
X770Y464D01*
X770Y464D01*
X770D01*
X771Y465D01*
X772Y466D01*
X773Y467D01*
X773Y468D01*
X773Y469D01*
X773Y470D01*
X773Y470D01*
X774Y470D01*
Y471D01*
X774Y471D01*
Y471D01*
X752D01*
X752Y472D01*
X752Y473D01*
X752Y474D01*
X752Y474D01*
X752Y475D01*
X753Y476D01*
X753Y477D01*
X753Y477D01*
X754Y478D01*
X754Y478D01*
X754Y479D01*
X754Y479D01*
X755Y479D01*
X755Y479D01*
X755Y480D01*
X755Y480D01*
X756Y480D01*
X756Y481D01*
X757Y481D01*
X758Y482D01*
X759Y482D01*
X759Y482D01*
X761Y483D01*
X761Y483D01*
X762Y483D01*
X762Y483D01*
X763Y483D01*
X763Y483D01*
X764D01*
X765Y483D01*
D02*
G37*
G36*
X574Y493D02*
X574Y493D01*
X576Y493D01*
X577Y492D01*
X578Y492D01*
X579Y491D01*
X579Y490D01*
X580Y490D01*
X580Y490D01*
X580Y490D01*
X580Y489D01*
X581Y488D01*
X581Y487D01*
X582Y486D01*
X582Y485D01*
X583Y483D01*
X583Y482D01*
X583Y481D01*
X583Y481D01*
X583Y480D01*
X583Y480D01*
Y479D01*
Y479D01*
Y479D01*
Y473D01*
Y472D01*
X583Y471D01*
X583Y471D01*
X583Y470D01*
X583Y469D01*
X582Y469D01*
X582Y468D01*
Y468D01*
X582Y467D01*
X582Y466D01*
X582Y466D01*
X581Y465D01*
X581Y465D01*
X581Y465D01*
X581Y465D01*
X581Y464D01*
X581Y464D01*
X580Y463D01*
X580Y463D01*
X580Y462D01*
X580Y462D01*
X580Y462D01*
X579Y462D01*
X579Y462D01*
X579Y461D01*
X578Y461D01*
X578Y461D01*
X577Y460D01*
X577Y460D01*
X577Y460D01*
X577Y460D01*
X576Y460D01*
X575Y460D01*
X575Y459D01*
X574Y459D01*
X574Y459D01*
X573Y459D01*
X573D01*
X572Y459D01*
X572Y459D01*
X570Y460D01*
X569Y460D01*
X568Y461D01*
X567Y461D01*
X567Y462D01*
X567Y462D01*
X566Y462D01*
Y462D01*
X566Y463D01*
X565Y464D01*
X565Y465D01*
X564Y466D01*
X564Y467D01*
X564Y468D01*
X563Y469D01*
X563Y470D01*
X563Y471D01*
X563Y472D01*
X563Y472D01*
X563Y473D01*
Y473D01*
Y473D01*
Y473D01*
Y479D01*
Y480D01*
X563Y481D01*
X563Y482D01*
X563Y483D01*
X563Y483D01*
X564Y484D01*
X564Y484D01*
Y484D01*
X564Y485D01*
X564Y486D01*
X564Y486D01*
X565Y487D01*
X565Y487D01*
X565Y487D01*
X565Y487D01*
X565Y488D01*
X566Y489D01*
X566Y489D01*
X566Y490D01*
X566Y490D01*
X567Y490D01*
X567Y490D01*
X567Y490D01*
X567Y491D01*
X568Y491D01*
X568Y492D01*
X569Y492D01*
X569Y492D01*
X569Y492D01*
X569Y492D01*
X570Y492D01*
X570Y493D01*
X571Y493D01*
X571Y493D01*
X572Y493D01*
X572Y493D01*
X573Y493D01*
X573D01*
X574Y493D01*
D02*
G37*
G36*
X725Y483D02*
X725Y483D01*
X726Y483D01*
X727Y482D01*
X727Y482D01*
X728Y482D01*
X728Y482D01*
X728Y482D01*
X728Y482D01*
X729Y481D01*
X730Y481D01*
X731Y480D01*
X732Y479D01*
X733Y478D01*
X733Y478D01*
X733Y477D01*
X734Y477D01*
X734Y477D01*
X734Y477D01*
X734Y477D01*
Y482D01*
X740D01*
X741Y482D01*
X741Y482D01*
X741Y482D01*
X741Y482D01*
X742Y482D01*
X742Y482D01*
X742Y481D01*
Y481D01*
X742Y481D01*
X742Y481D01*
X742Y481D01*
X741Y481D01*
X741Y480D01*
X741Y480D01*
X740Y480D01*
X736D01*
Y462D01*
X742D01*
X742Y462D01*
X742Y462D01*
X743Y462D01*
X743Y462D01*
X743Y462D01*
X743Y461D01*
X743Y461D01*
Y461D01*
X743Y461D01*
X743Y461D01*
X743Y460D01*
X743Y460D01*
X742Y460D01*
X742Y460D01*
X742Y460D01*
X725D01*
X724Y460D01*
X724Y460D01*
X724Y460D01*
X723Y460D01*
X723Y461D01*
X723Y461D01*
X723Y461D01*
Y461D01*
X723Y461D01*
X723Y462D01*
X723Y462D01*
X723Y462D01*
X724Y462D01*
X724Y462D01*
X724Y462D01*
X734D01*
Y474D01*
X733Y475D01*
X732Y476D01*
X732Y476D01*
X731Y477D01*
X730Y477D01*
X730Y478D01*
X729Y478D01*
X729Y478D01*
X728Y479D01*
X728Y479D01*
X727Y480D01*
X727Y480D01*
X727Y480D01*
X726Y480D01*
X725Y480D01*
X725Y481D01*
X724Y481D01*
X724Y481D01*
X724D01*
X723Y481D01*
X723Y481D01*
X723Y480D01*
X723Y480D01*
X722Y480D01*
X721Y480D01*
X721Y479D01*
X721Y479D01*
X721Y479D01*
X721Y479D01*
X720Y479D01*
X720Y479D01*
X720D01*
X720Y478D01*
X720D01*
X720Y479D01*
X719Y479D01*
X719Y479D01*
X719Y479D01*
X719Y479D01*
X719Y479D01*
X719Y480D01*
Y480D01*
X719Y480D01*
X719Y480D01*
X719Y481D01*
X720Y481D01*
X720Y481D01*
X720Y481D01*
X720Y482D01*
X720Y482D01*
X721Y482D01*
X722Y482D01*
X722Y483D01*
X723Y483D01*
X723Y483D01*
X724Y483D01*
X724D01*
X725Y483D01*
D02*
G37*
G36*
X688Y809D02*
X689Y809D01*
X689Y808D01*
Y808D01*
X689Y807D01*
X688D01*
X688Y807D01*
X688D01*
X687Y808D01*
X686Y808D01*
Y809D01*
X687Y809D01*
X687Y809D01*
X688D01*
X688Y809D01*
D02*
G37*
G36*
X487Y615D02*
X487Y615D01*
X487Y615D01*
X487Y615D01*
X488Y615D01*
X488Y614D01*
X488Y614D01*
Y614D01*
Y614D01*
Y607D01*
X492D01*
X492Y607D01*
X493Y607D01*
X493Y607D01*
X493Y607D01*
X493Y607D01*
X493Y607D01*
X493Y606D01*
Y606D01*
X493Y606D01*
X493Y606D01*
X493Y606D01*
X493Y606D01*
X492Y605D01*
X492Y605D01*
X492Y605D01*
X488D01*
Y591D01*
X488Y590D01*
X487Y589D01*
X487Y588D01*
X487Y587D01*
X486Y587D01*
X486Y586D01*
X486Y586D01*
X485Y586D01*
X485Y585D01*
X484Y585D01*
X483Y585D01*
X482Y584D01*
X481Y584D01*
X480Y584D01*
X480Y584D01*
X479D01*
X478Y584D01*
X477Y584D01*
X476Y584D01*
X475Y585D01*
X475Y585D01*
X474Y585D01*
X474Y585D01*
X473D01*
X473Y585D01*
X473D01*
X472Y585D01*
X471Y586D01*
X471Y586D01*
X470Y586D01*
X470Y587D01*
X469Y587D01*
X469Y587D01*
X469Y587D01*
X469Y587D01*
X469Y587D01*
X469Y588D01*
Y588D01*
X469Y588D01*
X469Y588D01*
X469Y588D01*
X469Y588D01*
X470Y589D01*
X470Y589D01*
X470Y589D01*
X470D01*
X470Y589D01*
X471Y589D01*
X471Y589D01*
X471Y588D01*
X471Y588D01*
X472Y588D01*
X473Y588D01*
X473Y587D01*
X474Y587D01*
X474Y587D01*
X475Y587D01*
X475Y587D01*
X475D01*
X476Y587D01*
X477Y587D01*
X477Y587D01*
X478Y586D01*
X479D01*
X479Y586D01*
X480D01*
X481Y586D01*
X482Y587D01*
X482Y587D01*
X483Y587D01*
X483Y587D01*
X484Y587D01*
X484Y588D01*
X484Y588D01*
X485Y588D01*
X485Y589D01*
X485Y589D01*
X485Y590D01*
X485Y590D01*
X486Y590D01*
Y591D01*
Y591D01*
Y605D01*
X474D01*
X473Y605D01*
X473Y605D01*
X473Y605D01*
X473Y606D01*
X472Y606D01*
X472Y606D01*
X472Y606D01*
Y606D01*
X472Y607D01*
X472Y607D01*
X473Y607D01*
X473Y607D01*
X473Y607D01*
X473Y607D01*
X474Y607D01*
X486D01*
Y614D01*
X486Y614D01*
X486Y615D01*
X486Y615D01*
X486Y615D01*
X486Y615D01*
X486Y615D01*
X487Y615D01*
X487D01*
X487Y615D01*
D02*
G37*
G36*
X645Y490D02*
X646Y489D01*
X646Y489D01*
X646Y489D01*
X646Y489D01*
X646Y489D01*
X646Y489D01*
X646Y489D01*
Y488D01*
X646Y488D01*
X646Y488D01*
X646Y488D01*
X646Y488D01*
X646Y488D01*
X646Y487D01*
X645Y487D01*
X645D01*
X645Y487D01*
X645Y488D01*
X645D01*
X638Y490D01*
Y462D01*
X645D01*
X645Y462D01*
X646Y462D01*
X646Y462D01*
X646Y462D01*
X646Y462D01*
X646Y461D01*
X646Y461D01*
Y461D01*
X646Y461D01*
X646Y461D01*
X646Y460D01*
X646Y460D01*
X646Y460D01*
X645Y460D01*
X645Y460D01*
X628D01*
X627Y460D01*
X627Y460D01*
X627Y460D01*
X627Y460D01*
X627Y461D01*
X627Y461D01*
X626Y461D01*
Y461D01*
X627Y461D01*
X627Y462D01*
X627Y462D01*
X627Y462D01*
X627Y462D01*
X628Y462D01*
X628Y462D01*
X635D01*
Y493D01*
X645Y490D01*
D02*
G37*
G36*
X869Y617D02*
X870Y617D01*
X870Y617D01*
X870Y617D01*
X870Y617D01*
X870Y617D01*
X870Y616D01*
Y616D01*
X870Y616D01*
X870Y616D01*
X870Y616D01*
X870Y616D01*
X870Y615D01*
X869Y615D01*
X869Y615D01*
X863D01*
Y587D01*
X871D01*
X872Y587D01*
X872Y587D01*
X872Y587D01*
X872Y587D01*
X872Y587D01*
X873Y586D01*
X873Y586D01*
Y586D01*
X873Y586D01*
X872Y586D01*
X872Y585D01*
X872Y585D01*
X872Y585D01*
X872Y585D01*
X871Y585D01*
X852D01*
X852Y585D01*
X851Y585D01*
X851Y585D01*
X851Y585D01*
X851Y586D01*
X851Y586D01*
X851Y586D01*
Y586D01*
X851Y586D01*
X851Y587D01*
X851Y587D01*
X851Y587D01*
X851Y587D01*
X852Y587D01*
X852Y587D01*
X860D01*
Y617D01*
X869D01*
X869Y617D01*
D02*
G37*
G36*
X609Y608D02*
X610Y608D01*
X611Y608D01*
X612Y608D01*
X613Y607D01*
X614Y607D01*
X615Y606D01*
X615Y606D01*
X616Y606D01*
X616Y606D01*
X616Y605D01*
X617Y605D01*
X617Y605D01*
X617Y605D01*
X617Y605D01*
X618Y604D01*
X618Y603D01*
X619Y603D01*
X619Y602D01*
X619Y601D01*
X620Y601D01*
X620Y599D01*
X620Y598D01*
X620Y598D01*
X620Y597D01*
X620Y597D01*
Y597D01*
Y597D01*
Y597D01*
X620Y596D01*
X620Y595D01*
X620Y594D01*
X620Y593D01*
X619Y592D01*
X619Y591D01*
X619Y590D01*
X618Y590D01*
X618Y589D01*
X618Y589D01*
X617Y588D01*
X617Y588D01*
X617Y588D01*
X617Y588D01*
X617Y588D01*
X616Y587D01*
X615Y587D01*
X615Y586D01*
X614Y586D01*
X613Y585D01*
X612Y585D01*
X611Y585D01*
X610Y584D01*
X609Y584D01*
X609Y584D01*
X608Y584D01*
X608Y584D01*
X607D01*
X606Y584D01*
X605Y584D01*
X604Y585D01*
X603Y585D01*
X602Y585D01*
X602Y585D01*
X601Y585D01*
X601Y585D01*
X601Y585D01*
X601D01*
X600Y586D01*
X599Y586D01*
X598Y587D01*
X598Y587D01*
X597Y587D01*
X597Y588D01*
X597Y588D01*
X597Y588D01*
X596Y588D01*
X596Y588D01*
X596Y589D01*
Y589D01*
X596Y589D01*
X596Y589D01*
X596Y589D01*
X597Y589D01*
X597Y590D01*
X597Y590D01*
X597Y590D01*
X597D01*
X598Y590D01*
X598Y590D01*
X598Y589D01*
X598Y589D01*
X599Y589D01*
X599Y588D01*
X600Y588D01*
X601Y588D01*
X602Y588D01*
X602Y587D01*
X602Y587D01*
X602Y587D01*
X602D01*
X603Y587D01*
X604Y587D01*
X605Y587D01*
X606Y586D01*
X607Y586D01*
X607Y586D01*
X607D01*
X608Y586D01*
X609Y586D01*
X610Y587D01*
X612Y587D01*
X613Y588D01*
X614Y588D01*
X614Y588D01*
X614Y588D01*
X615Y589D01*
X615Y589D01*
X615Y589D01*
X615D01*
X616Y590D01*
X617Y591D01*
X617Y592D01*
X618Y593D01*
X618Y594D01*
X618Y595D01*
X618Y595D01*
X618Y595D01*
Y596D01*
X618Y596D01*
Y596D01*
X596D01*
X596Y597D01*
X596Y598D01*
X596Y599D01*
X597Y599D01*
X597Y600D01*
X597Y601D01*
X598Y602D01*
X598Y602D01*
X598Y603D01*
X599Y603D01*
X599Y604D01*
X599Y604D01*
X599Y604D01*
X599Y604D01*
X600Y605D01*
X600Y605D01*
X600Y605D01*
X601Y606D01*
X602Y606D01*
X602Y607D01*
X603Y607D01*
X604Y607D01*
X605Y608D01*
X606Y608D01*
X606Y608D01*
X607Y608D01*
X607Y608D01*
X608Y608D01*
X608D01*
X609Y608D01*
D02*
G37*
G36*
X557Y607D02*
X557Y607D01*
X558Y607D01*
X558Y607D01*
X558Y607D01*
X558Y607D01*
X558Y606D01*
Y606D01*
X558Y606D01*
X558Y606D01*
X558Y606D01*
X558Y606D01*
X557Y605D01*
X557Y605D01*
X557Y605D01*
X554D01*
Y591D01*
X553Y590D01*
X553Y589D01*
X553Y588D01*
X553Y587D01*
X552Y587D01*
X552Y586D01*
X552Y586D01*
X552Y586D01*
X551Y585D01*
X550Y585D01*
X549Y585D01*
X548Y584D01*
X548Y584D01*
X547Y584D01*
X547D01*
X546Y584D01*
X545Y584D01*
X544Y585D01*
X543Y585D01*
X541Y585D01*
X541Y586D01*
X540Y586D01*
X539Y587D01*
X539Y587D01*
X538Y587D01*
X538Y588D01*
X538Y588D01*
X537Y588D01*
X537Y588D01*
X537Y588D01*
Y585D01*
X533D01*
X533Y585D01*
X532Y585D01*
X532Y585D01*
X532Y585D01*
X532Y586D01*
X532Y586D01*
X532Y586D01*
Y586D01*
X532Y586D01*
X532Y587D01*
X532Y587D01*
X532Y587D01*
X532Y587D01*
X533Y587D01*
X533Y587D01*
X535D01*
Y607D01*
X541D01*
X542Y607D01*
X542Y607D01*
X542Y607D01*
X542Y607D01*
X542Y607D01*
X542Y607D01*
X543Y606D01*
Y606D01*
X542Y606D01*
X542Y606D01*
X542Y606D01*
X542Y606D01*
X542Y605D01*
X542Y605D01*
X541Y605D01*
X537D01*
Y591D01*
X538Y590D01*
X539Y590D01*
X540Y589D01*
X541Y588D01*
X541Y588D01*
X542Y588D01*
X543Y587D01*
X544Y587D01*
X544Y587D01*
X545Y587D01*
X545Y587D01*
X546Y586D01*
X546D01*
X547Y586D01*
X547D01*
X548Y586D01*
X548Y587D01*
X549Y587D01*
X549Y587D01*
X550Y587D01*
X550Y587D01*
X550Y588D01*
X550Y588D01*
X551Y588D01*
X551Y589D01*
X551Y589D01*
X551Y590D01*
X551Y590D01*
X551Y591D01*
Y591D01*
Y591D01*
Y607D01*
X557D01*
X557Y607D01*
D02*
G37*
G36*
X670Y828D02*
X672Y827D01*
X672Y826D01*
X673Y825D01*
Y825D01*
Y825D01*
X672D01*
X671Y825D01*
X670Y825D01*
X670Y826D01*
X670Y826D01*
X669Y827D01*
Y827D01*
Y828D01*
Y828D01*
X670D01*
X670Y828D01*
D02*
G37*
G36*
X894Y608D02*
X895Y608D01*
X896Y608D01*
X897Y608D01*
X898Y607D01*
X899Y607D01*
X900Y606D01*
X900Y606D01*
X901Y606D01*
X901Y605D01*
X901Y605D01*
X902Y605D01*
X902Y605D01*
X902Y605D01*
X902Y605D01*
X903Y604D01*
X903Y603D01*
X904Y602D01*
X904Y602D01*
X904Y601D01*
X905Y600D01*
X905Y599D01*
X905Y598D01*
X905Y598D01*
X905Y597D01*
X905Y597D01*
X905Y597D01*
Y596D01*
Y596D01*
Y596D01*
X905Y595D01*
X905Y594D01*
X905Y594D01*
X905Y593D01*
X904Y591D01*
X904Y590D01*
X903Y590D01*
X903Y589D01*
X903Y589D01*
X902Y588D01*
X902Y588D01*
X902Y588D01*
X902Y588D01*
X902Y588D01*
X901Y587D01*
X901Y587D01*
X900Y586D01*
X899Y586D01*
X898Y585D01*
X898Y585D01*
X896Y585D01*
X896Y584D01*
X895Y584D01*
X895Y584D01*
X894Y584D01*
X894Y584D01*
X893D01*
X892Y584D01*
X892Y584D01*
X891Y585D01*
X890Y585D01*
X888Y585D01*
X887Y586D01*
X887Y586D01*
X886Y587D01*
X886Y587D01*
X885Y587D01*
X885Y587D01*
X885Y588D01*
X885Y588D01*
X885Y588D01*
X884Y588D01*
X884Y589D01*
X883Y590D01*
X883Y590D01*
X882Y591D01*
X882Y592D01*
X882Y593D01*
X882Y594D01*
X881Y594D01*
X881Y595D01*
X881Y595D01*
X881Y596D01*
Y596D01*
Y596D01*
Y596D01*
X881Y597D01*
X881Y598D01*
X882Y599D01*
X882Y600D01*
X882Y601D01*
X883Y602D01*
X883Y603D01*
X884Y603D01*
X884Y604D01*
X884Y604D01*
X884Y604D01*
X885Y604D01*
X885Y605D01*
X885Y605D01*
X885Y605D01*
X886Y606D01*
X887Y606D01*
X888Y607D01*
X888Y607D01*
X889Y607D01*
X890Y608D01*
X891Y608D01*
X892Y608D01*
X892Y608D01*
X892Y608D01*
X893Y608D01*
X893D01*
X894Y608D01*
D02*
G37*
G36*
X450D02*
X451Y608D01*
X452Y608D01*
X453Y608D01*
X454Y607D01*
X455Y607D01*
X456Y606D01*
X456Y606D01*
X457Y606D01*
X457Y605D01*
X457Y605D01*
X458Y605D01*
X458Y605D01*
X458Y605D01*
X458Y605D01*
X459Y604D01*
X459Y603D01*
X460Y602D01*
X460Y602D01*
X460Y601D01*
X461Y600D01*
X461Y599D01*
X461Y598D01*
X461Y598D01*
X461Y597D01*
X461Y597D01*
X462Y597D01*
Y596D01*
Y596D01*
Y596D01*
X461Y595D01*
X461Y594D01*
X461Y594D01*
X461Y593D01*
X460Y591D01*
X460Y590D01*
X459Y590D01*
X459Y589D01*
X459Y589D01*
X459Y588D01*
X458Y588D01*
X458Y588D01*
X458Y588D01*
X458Y588D01*
X457Y587D01*
X457Y587D01*
X456Y586D01*
X455Y586D01*
X454Y585D01*
X454Y585D01*
X452Y585D01*
X452Y584D01*
X451Y584D01*
X451Y584D01*
X450Y584D01*
X450Y584D01*
X449D01*
X448Y584D01*
X448Y584D01*
X447Y585D01*
X446Y585D01*
X445Y585D01*
X443Y586D01*
X443Y586D01*
X442Y587D01*
X442Y587D01*
X442Y587D01*
X441Y587D01*
X441Y588D01*
X441Y588D01*
X441Y588D01*
X440Y588D01*
X440Y589D01*
X439Y590D01*
X439Y590D01*
X438Y591D01*
X438Y592D01*
X438Y593D01*
X438Y594D01*
X437Y594D01*
X437Y595D01*
X437Y595D01*
X437Y596D01*
Y596D01*
Y596D01*
Y596D01*
X437Y597D01*
X437Y598D01*
X438Y599D01*
X438Y600D01*
X438Y601D01*
X439Y602D01*
X439Y603D01*
X440Y603D01*
X440Y604D01*
X440Y604D01*
X441Y604D01*
X441Y604D01*
X441Y605D01*
X441Y605D01*
X442Y605D01*
X442Y606D01*
X443Y606D01*
X444Y607D01*
X444Y607D01*
X445Y607D01*
X446Y608D01*
X447Y608D01*
X448Y608D01*
X448Y608D01*
X449Y608D01*
X449Y608D01*
X449D01*
X450Y608D01*
D02*
G37*
G36*
X933Y548D02*
X930D01*
Y553D01*
X933D01*
Y548D01*
D02*
G37*
G36*
X713Y615D02*
X713Y615D01*
X713Y615D01*
X713Y615D01*
X714Y615D01*
X714Y614D01*
X714Y614D01*
Y614D01*
X714Y614D01*
X713Y614D01*
X713Y613D01*
X713Y613D01*
X713Y613D01*
X713Y613D01*
X712Y613D01*
X706D01*
X715Y587D01*
X717D01*
X717Y587D01*
X718Y587D01*
X718Y587D01*
X718Y587D01*
X718Y587D01*
X718Y586D01*
X718Y586D01*
Y586D01*
X718Y586D01*
X718Y586D01*
X718Y585D01*
X718Y585D01*
X717Y585D01*
X717Y585D01*
X717Y585D01*
X709D01*
X709Y585D01*
X708Y585D01*
X708Y585D01*
X708Y585D01*
X708Y586D01*
X708Y586D01*
X708Y586D01*
Y586D01*
X708Y586D01*
X708Y587D01*
X708Y587D01*
X708Y587D01*
X708Y587D01*
X709Y587D01*
X709Y587D01*
X713D01*
X710Y595D01*
X696D01*
X693Y587D01*
X697D01*
X698Y587D01*
X698Y587D01*
X698Y587D01*
X698Y587D01*
X698Y587D01*
X698Y586D01*
X698Y586D01*
Y586D01*
X698Y586D01*
X698Y586D01*
X698Y585D01*
X698Y585D01*
X698Y585D01*
X697Y585D01*
X697Y585D01*
X689D01*
X689Y585D01*
X689Y585D01*
X688Y585D01*
X688Y585D01*
X688Y586D01*
X688Y586D01*
X688Y586D01*
Y586D01*
X688Y586D01*
X688Y587D01*
X688Y587D01*
X688Y587D01*
X689Y587D01*
X689Y587D01*
X689Y587D01*
X691D01*
X701Y615D01*
X712D01*
X713Y615D01*
D02*
G37*
G36*
X576Y608D02*
X577Y608D01*
X577Y608D01*
X578Y608D01*
X578Y608D01*
X579Y607D01*
X579Y607D01*
X579Y607D01*
X580Y607D01*
X581Y606D01*
X581Y606D01*
X582Y605D01*
X582Y605D01*
X583Y605D01*
X583Y604D01*
X583Y604D01*
Y607D01*
X587D01*
X588Y607D01*
X588Y607D01*
X588Y607D01*
X588Y607D01*
X589Y607D01*
X589Y607D01*
X589Y606D01*
Y606D01*
X589Y606D01*
X588Y606D01*
X588Y606D01*
X588Y606D01*
X588Y605D01*
X588Y605D01*
X587Y605D01*
X585D01*
Y587D01*
X588D01*
X588Y587D01*
X589Y587D01*
X589Y587D01*
X589Y587D01*
X589Y587D01*
X589Y586D01*
X589Y586D01*
Y586D01*
X589Y586D01*
X589Y586D01*
X589Y585D01*
X589Y585D01*
X589Y585D01*
X588Y585D01*
X588Y585D01*
X581D01*
X580Y585D01*
X580Y585D01*
X580Y585D01*
X580Y585D01*
X579Y586D01*
X579Y586D01*
X579Y586D01*
Y586D01*
X579Y586D01*
X580Y587D01*
X580Y587D01*
X580Y587D01*
X580Y587D01*
X580Y587D01*
X581Y587D01*
X583D01*
Y601D01*
X582Y602D01*
X581Y603D01*
X581Y604D01*
X580Y604D01*
X579Y605D01*
X579Y605D01*
X579Y605D01*
X579Y605D01*
X578Y605D01*
X578Y606D01*
X577Y606D01*
X576Y606D01*
X576Y606D01*
X575Y606D01*
X575D01*
X574Y606D01*
X573Y606D01*
X572Y605D01*
X572Y605D01*
X571Y605D01*
X571Y605D01*
X571Y604D01*
X571Y604D01*
X570Y604D01*
X570Y603D01*
X569Y602D01*
X569Y602D01*
X569Y601D01*
X569Y601D01*
Y601D01*
Y601D01*
Y587D01*
X571D01*
X571Y587D01*
X572Y587D01*
X572Y587D01*
X572Y587D01*
X572Y587D01*
X572Y586D01*
X572Y586D01*
Y586D01*
X572Y586D01*
X572Y586D01*
X572Y585D01*
X572Y585D01*
X571Y585D01*
X571Y585D01*
X571Y585D01*
X565D01*
X564Y585D01*
X564Y585D01*
X564Y585D01*
X564Y585D01*
X563Y586D01*
X563Y586D01*
X563Y586D01*
Y586D01*
X563Y586D01*
X564Y587D01*
X564Y587D01*
X564Y587D01*
X564Y587D01*
X564Y587D01*
X565Y587D01*
X567D01*
Y601D01*
X567Y601D01*
X567Y602D01*
X567Y603D01*
X567Y603D01*
X567Y604D01*
X568Y604D01*
X568Y604D01*
X568Y604D01*
X568Y605D01*
X569Y606D01*
X569Y606D01*
X570Y606D01*
X570Y607D01*
X570Y607D01*
X570Y607D01*
X570Y607D01*
X571Y607D01*
X572Y608D01*
X573Y608D01*
X573Y608D01*
X574Y608D01*
X575Y608D01*
X575D01*
X576Y608D01*
D02*
G37*
G36*
X411Y608D02*
X411Y608D01*
X412Y608D01*
X413Y607D01*
X413Y607D01*
X414Y607D01*
X414Y607D01*
X414Y607D01*
X414Y607D01*
X415Y606D01*
X416Y606D01*
X417Y605D01*
X418Y604D01*
X419Y603D01*
X419Y603D01*
X420Y602D01*
X420Y602D01*
X420Y602D01*
X420Y602D01*
X420Y602D01*
Y607D01*
X426D01*
X427Y607D01*
X427Y607D01*
X428Y607D01*
X428Y607D01*
X428Y607D01*
X428Y607D01*
X428Y606D01*
Y606D01*
X428Y606D01*
X428Y606D01*
X428Y606D01*
X428Y606D01*
X427Y605D01*
X427Y605D01*
X427Y605D01*
X422D01*
Y587D01*
X428D01*
X428Y587D01*
X429Y587D01*
X429Y587D01*
X429Y587D01*
X429Y587D01*
X429Y586D01*
X429Y586D01*
Y586D01*
X429Y586D01*
X429Y586D01*
X429Y585D01*
X429Y585D01*
X428Y585D01*
X428Y585D01*
X428Y585D01*
X411D01*
X410Y585D01*
X410Y585D01*
X410Y585D01*
X410Y585D01*
X409Y586D01*
X409Y586D01*
X409Y586D01*
Y586D01*
X409Y586D01*
X409Y587D01*
X410Y587D01*
X410Y587D01*
X410Y587D01*
X410Y587D01*
X411Y587D01*
X420D01*
Y599D01*
X419Y600D01*
X419Y601D01*
X418Y601D01*
X417Y602D01*
X416Y602D01*
X416Y603D01*
X415Y603D01*
X415Y603D01*
X414Y604D01*
X414Y604D01*
X414Y605D01*
X413Y605D01*
X413Y605D01*
X412Y605D01*
X411Y605D01*
X411Y606D01*
X411Y606D01*
X410Y606D01*
X410D01*
X409Y606D01*
X409Y606D01*
X409Y605D01*
X409Y605D01*
X408Y605D01*
X408Y605D01*
X407Y604D01*
X407Y604D01*
X407Y604D01*
X407Y604D01*
X407Y604D01*
X406Y604D01*
X406D01*
X406Y603D01*
X406D01*
X406Y604D01*
X405Y604D01*
X405Y604D01*
X405Y604D01*
X405Y604D01*
X405Y604D01*
X405Y605D01*
Y605D01*
X405Y605D01*
X405Y605D01*
X405Y606D01*
X406Y606D01*
X406Y606D01*
X406Y606D01*
X406Y607D01*
X406Y607D01*
X407Y607D01*
X408Y607D01*
X408Y608D01*
X409Y608D01*
X409Y608D01*
X410Y608D01*
X410D01*
X411Y608D01*
D02*
G37*
G36*
X757Y824D02*
X757Y824D01*
X758Y824D01*
Y823D01*
X758Y823D01*
Y822D01*
X758Y822D01*
X758D01*
X757Y822D01*
X756Y823D01*
X755Y823D01*
X754Y824D01*
X754Y824D01*
Y824D01*
X754Y825D01*
X755D01*
X757Y824D01*
D02*
G37*
G36*
X677Y615D02*
X677Y615D01*
X678Y615D01*
X678Y615D01*
X678Y615D01*
X678Y614D01*
X678Y614D01*
Y614D01*
Y614D01*
Y607D01*
X682D01*
X682Y607D01*
X683Y607D01*
X683Y607D01*
X683Y607D01*
X683Y607D01*
X683Y607D01*
X683Y606D01*
Y606D01*
X683Y606D01*
X683Y606D01*
X683Y606D01*
X683Y606D01*
X683Y605D01*
X682Y605D01*
X682Y605D01*
X678D01*
Y591D01*
X678Y590D01*
X678Y589D01*
X677Y588D01*
X677Y587D01*
X676Y587D01*
X676Y586D01*
X676Y586D01*
X676Y586D01*
X675Y585D01*
X674Y585D01*
X673Y585D01*
X672Y584D01*
X671Y584D01*
X670Y584D01*
X670Y584D01*
X670D01*
X669Y584D01*
X668Y584D01*
X666Y584D01*
X666Y585D01*
X665Y585D01*
X664Y585D01*
X664Y585D01*
X664D01*
X664Y585D01*
X664D01*
X662Y585D01*
X662Y586D01*
X661Y586D01*
X660Y586D01*
X660Y587D01*
X660Y587D01*
X660Y587D01*
X660Y587D01*
X659Y587D01*
X659Y587D01*
X659Y588D01*
Y588D01*
X659Y588D01*
X659Y588D01*
X659Y588D01*
X660Y588D01*
X660Y589D01*
X660Y589D01*
X660Y589D01*
X660D01*
X661Y589D01*
X661Y589D01*
X661Y589D01*
X661Y588D01*
X662Y588D01*
X662Y588D01*
X663Y588D01*
X664Y587D01*
X664Y587D01*
X665Y587D01*
X665Y587D01*
X665Y587D01*
X665D01*
X666Y587D01*
X667Y587D01*
X668Y587D01*
X668Y586D01*
X669D01*
X669Y586D01*
X670D01*
X671Y586D01*
X672Y587D01*
X673Y587D01*
X673Y587D01*
X674Y587D01*
X674Y587D01*
X674Y588D01*
X674Y588D01*
X675Y588D01*
X675Y589D01*
X675Y589D01*
X676Y590D01*
X676Y590D01*
X676Y590D01*
Y591D01*
Y591D01*
Y605D01*
X664D01*
X664Y605D01*
X663Y605D01*
X663Y605D01*
X663Y606D01*
X663Y606D01*
X663Y606D01*
X663Y606D01*
Y606D01*
X663Y607D01*
X663Y607D01*
X663Y607D01*
X663Y607D01*
X663Y607D01*
X664Y607D01*
X664Y607D01*
X676D01*
Y614D01*
X676Y614D01*
X676Y615D01*
X676Y615D01*
X676Y615D01*
X676Y615D01*
X677Y615D01*
X677Y615D01*
X677D01*
X677Y615D01*
D02*
G37*
G36*
X768Y608D02*
X769Y608D01*
X770Y608D01*
X770Y608D01*
X772Y607D01*
X773Y607D01*
X773Y606D01*
X774Y606D01*
X774Y606D01*
X775Y606D01*
X775Y605D01*
X775Y605D01*
X775Y605D01*
X775Y605D01*
X775Y605D01*
X776Y604D01*
X777Y603D01*
X777Y603D01*
X777Y602D01*
X778Y601D01*
X778Y601D01*
X779Y599D01*
X779Y598D01*
X779Y598D01*
X779Y597D01*
X779Y597D01*
Y597D01*
Y597D01*
Y597D01*
X779Y596D01*
X779Y595D01*
X779Y594D01*
X778Y593D01*
X778Y592D01*
X777Y591D01*
X777Y590D01*
X777Y590D01*
X776Y589D01*
X776Y589D01*
X776Y588D01*
X776Y588D01*
X775Y588D01*
X775Y588D01*
X775Y588D01*
X775Y587D01*
X774Y587D01*
X773Y586D01*
X772Y586D01*
X771Y585D01*
X771Y585D01*
X769Y585D01*
X769Y584D01*
X768Y584D01*
X767Y584D01*
X767Y584D01*
X767Y584D01*
X766D01*
X765Y584D01*
X764Y584D01*
X763Y585D01*
X762Y585D01*
X761Y585D01*
X760Y585D01*
X760Y585D01*
X760Y585D01*
X760Y585D01*
X760D01*
X758Y586D01*
X758Y586D01*
X757Y587D01*
X756Y587D01*
X756Y587D01*
X755Y588D01*
X755Y588D01*
X755Y588D01*
X755Y588D01*
X755Y588D01*
X755Y589D01*
Y589D01*
X755Y589D01*
X755Y589D01*
X755Y589D01*
X755Y589D01*
X755Y590D01*
X756Y590D01*
X756Y590D01*
X756D01*
X756Y590D01*
X756Y590D01*
X757Y589D01*
X757Y589D01*
X757Y589D01*
X758Y588D01*
X759Y588D01*
X759Y588D01*
X760Y588D01*
X761Y587D01*
X761Y587D01*
X761Y587D01*
X761D01*
X762Y587D01*
X763Y587D01*
X764Y587D01*
X765Y586D01*
X765Y586D01*
X766Y586D01*
X766D01*
X767Y586D01*
X768Y586D01*
X769Y587D01*
X770Y587D01*
X771Y588D01*
X772Y588D01*
X773Y588D01*
X773Y588D01*
X773Y589D01*
X773Y589D01*
X773Y589D01*
X773D01*
X774Y590D01*
X775Y591D01*
X776Y592D01*
X776Y593D01*
X776Y594D01*
X777Y595D01*
X777Y595D01*
X777Y595D01*
Y596D01*
X777Y596D01*
Y596D01*
X755D01*
X755Y597D01*
X755Y598D01*
X755Y599D01*
X755Y599D01*
X756Y600D01*
X756Y601D01*
X756Y602D01*
X756Y602D01*
X757Y603D01*
X757Y603D01*
X757Y604D01*
X758Y604D01*
X758Y604D01*
X758Y604D01*
X758Y605D01*
X758Y605D01*
X759Y605D01*
X760Y606D01*
X760Y606D01*
X761Y607D01*
X762Y607D01*
X762Y607D01*
X764Y608D01*
X764Y608D01*
X765Y608D01*
X765Y608D01*
X766Y608D01*
X766Y608D01*
X767D01*
X768Y608D01*
D02*
G37*
G36*
X842Y607D02*
X843Y607D01*
X843Y607D01*
X843Y607D01*
X843Y607D01*
X843Y607D01*
X843Y606D01*
Y606D01*
X843Y606D01*
X843Y606D01*
X843Y606D01*
X843Y606D01*
X843Y605D01*
X842Y605D01*
X842Y605D01*
X839D01*
Y591D01*
X839Y590D01*
X839Y589D01*
X838Y588D01*
X838Y587D01*
X838Y587D01*
X837Y586D01*
X837Y586D01*
X837Y586D01*
X836Y585D01*
X835Y585D01*
X835Y585D01*
X834Y584D01*
X833Y584D01*
X833Y584D01*
X832D01*
X831Y584D01*
X830Y584D01*
X829Y585D01*
X828Y585D01*
X827Y585D01*
X826Y586D01*
X825Y586D01*
X825Y587D01*
X824Y587D01*
X824Y587D01*
X823Y588D01*
X823Y588D01*
X823Y588D01*
X823Y588D01*
X822Y588D01*
Y585D01*
X818D01*
X818Y585D01*
X818Y585D01*
X817Y585D01*
X817Y585D01*
X817Y586D01*
X817Y586D01*
X817Y586D01*
Y586D01*
X817Y586D01*
X817Y587D01*
X817Y587D01*
X817Y587D01*
X818Y587D01*
X818Y587D01*
X818Y587D01*
X820D01*
Y607D01*
X826D01*
X827Y607D01*
X827Y607D01*
X828Y607D01*
X828Y607D01*
X828Y607D01*
X828Y607D01*
X828Y606D01*
Y606D01*
X828Y606D01*
X828Y606D01*
X828Y606D01*
X828Y606D01*
X827Y605D01*
X827Y605D01*
X827Y605D01*
X822D01*
Y591D01*
X823Y590D01*
X824Y590D01*
X825Y589D01*
X826Y588D01*
X827Y588D01*
X828Y588D01*
X828Y587D01*
X829Y587D01*
X830Y587D01*
X830Y587D01*
X831Y587D01*
X831Y586D01*
X832D01*
X832Y586D01*
X832D01*
X833Y586D01*
X834Y587D01*
X834Y587D01*
X835Y587D01*
X835Y587D01*
X835Y587D01*
X835Y588D01*
X836Y588D01*
X836Y588D01*
X836Y589D01*
X837Y589D01*
X837Y590D01*
X837Y590D01*
X837Y591D01*
Y591D01*
Y591D01*
Y607D01*
X842D01*
X842Y607D01*
D02*
G37*
G36*
X675Y823D02*
X676Y822D01*
X676Y821D01*
X677Y821D01*
X677Y820D01*
X676Y820D01*
X676Y821D01*
X675Y821D01*
X674Y822D01*
X674Y822D01*
X674Y823D01*
Y823D01*
X674D01*
X675Y823D01*
D02*
G37*
G36*
X744Y753D02*
X745Y753D01*
X745Y751D01*
X745Y751D01*
X746Y749D01*
X746Y747D01*
Y746D01*
Y745D01*
X746Y744D01*
X745Y742D01*
X745Y742D01*
X744Y741D01*
X743Y741D01*
X741D01*
X740Y741D01*
X740Y741D01*
X738Y743D01*
X738Y744D01*
X737Y745D01*
Y745D01*
X738Y747D01*
X739Y749D01*
X740Y750D01*
X740Y751D01*
X741Y752D01*
X742Y753D01*
X743Y754D01*
X743D01*
X744Y753D01*
D02*
G37*
G36*
X939Y615D02*
X939Y615D01*
X939D01*
X940Y615D01*
X940Y615D01*
X940Y615D01*
X940Y615D01*
X940Y614D01*
Y614D01*
Y614D01*
X940Y614D01*
X940Y614D01*
Y613D01*
X940Y613D01*
X940Y613D01*
X940Y613D01*
X939D01*
X939Y613D01*
X937D01*
X926Y585D01*
X923D01*
X913Y613D01*
X911D01*
X911Y613D01*
X911D01*
X910Y613D01*
X910Y613D01*
X910Y613D01*
Y613D01*
X910Y614D01*
X910Y614D01*
Y614D01*
Y614D01*
Y614D01*
X910Y614D01*
X910Y615D01*
X910Y615D01*
X910Y615D01*
X910Y615D01*
X910Y615D01*
X911D01*
X911Y615D01*
X911Y615D01*
X919D01*
X920Y615D01*
X920Y615D01*
X920D01*
X920Y615D01*
X920Y615D01*
X920Y615D01*
X920Y615D01*
X920Y614D01*
X920Y614D01*
Y614D01*
Y614D01*
X920Y614D01*
X920Y614D01*
Y613D01*
X920Y613D01*
X920Y613D01*
X920Y613D01*
X920D01*
X920Y613D01*
X915D01*
X925Y587D01*
X925D01*
X935Y613D01*
X931D01*
X930Y613D01*
X930D01*
X930Y613D01*
X930Y613D01*
X930Y613D01*
Y613D01*
X930Y614D01*
X929Y614D01*
Y614D01*
Y614D01*
Y614D01*
X929Y614D01*
X930Y615D01*
X930Y615D01*
X930Y615D01*
X930Y615D01*
X930Y615D01*
X930D01*
X930Y615D01*
X931Y615D01*
X939D01*
X939Y615D01*
D02*
G37*
G36*
X645Y615D02*
X646Y615D01*
X646Y615D01*
X646Y615D01*
X646Y615D01*
X646Y614D01*
X646Y614D01*
Y614D01*
Y614D01*
Y607D01*
X650D01*
X651Y607D01*
X651Y607D01*
X651Y607D01*
X651Y607D01*
X652Y607D01*
X652Y607D01*
X652Y606D01*
Y606D01*
X652Y606D01*
X651Y606D01*
X651Y606D01*
X651Y606D01*
X651Y605D01*
X651Y605D01*
X650Y605D01*
X646D01*
Y591D01*
X646Y590D01*
X646Y589D01*
X646Y588D01*
X645Y587D01*
X645Y587D01*
X644Y586D01*
X644Y586D01*
X644Y586D01*
X643Y585D01*
X642Y585D01*
X641Y585D01*
X640Y584D01*
X639Y584D01*
X639Y584D01*
X638Y584D01*
X638D01*
X637Y584D01*
X636Y584D01*
X635Y584D01*
X634Y585D01*
X633Y585D01*
X632Y585D01*
X632Y585D01*
X632D01*
X632Y585D01*
X632D01*
X631Y585D01*
X630Y586D01*
X629Y586D01*
X629Y586D01*
X628Y587D01*
X628Y587D01*
X628Y587D01*
X628Y587D01*
X628Y587D01*
X628Y587D01*
X627Y588D01*
Y588D01*
X628Y588D01*
X628Y588D01*
X628Y588D01*
X628Y588D01*
X628Y589D01*
X628Y589D01*
X628Y589D01*
X629D01*
X629Y589D01*
X629Y589D01*
X629Y589D01*
X629Y588D01*
X630Y588D01*
X631Y588D01*
X631Y588D01*
X632Y587D01*
X633Y587D01*
X633Y587D01*
X633Y587D01*
X633Y587D01*
X633D01*
X634Y587D01*
X635Y587D01*
X636Y587D01*
X637Y586D01*
X637D01*
X638Y586D01*
X638D01*
X639Y586D01*
X640Y587D01*
X641Y587D01*
X641Y587D01*
X642Y587D01*
X642Y587D01*
X643Y588D01*
X643Y588D01*
X643Y588D01*
X643Y589D01*
X644Y589D01*
X644Y590D01*
X644Y590D01*
X644Y590D01*
Y591D01*
Y591D01*
Y605D01*
X632D01*
X632Y605D01*
X631Y605D01*
X631Y605D01*
X631Y606D01*
X631Y606D01*
X631Y606D01*
X631Y606D01*
Y606D01*
X631Y607D01*
X631Y607D01*
X631Y607D01*
X631Y607D01*
X631Y607D01*
X632Y607D01*
X632Y607D01*
X644D01*
Y614D01*
X644Y614D01*
X644Y615D01*
X644Y615D01*
X644Y615D01*
X645Y615D01*
X645Y615D01*
X645Y615D01*
X645D01*
X645Y615D01*
D02*
G37*
%LPC*%
G36*
X603Y915D02*
X598D01*
X596Y915D01*
X593D01*
X592Y914D01*
X592Y914D01*
Y914D01*
Y913D01*
X592Y912D01*
X593Y911D01*
X593Y911D01*
X596Y909D01*
X598Y908D01*
X600Y906D01*
X602Y905D01*
X603Y905D01*
X604Y904D01*
X605Y904D01*
X605D01*
X607Y904D01*
X610Y904D01*
X614Y903D01*
X618Y903D01*
X621D01*
X624Y903D01*
X636D01*
X636Y903D01*
X637Y904D01*
X637Y904D01*
Y905D01*
X636Y906D01*
X635Y908D01*
X633Y910D01*
X632Y911D01*
X631Y911D01*
X630Y912D01*
X630D01*
X628Y912D01*
X626Y913D01*
X621Y914D01*
X618Y914D01*
X616D01*
X615Y914D01*
X614D01*
X610Y915D01*
X606D01*
X603Y915D01*
D02*
G37*
G36*
X710Y926D02*
X709D01*
X709Y926D01*
Y925D01*
X709Y925D01*
Y925D01*
X710Y924D01*
X710Y924D01*
X711Y923D01*
X711D01*
X712Y923D01*
X712D01*
X712Y924D01*
Y924D01*
X711Y926D01*
X710Y926D01*
D02*
G37*
G36*
X623Y925D02*
X623D01*
X622Y925D01*
X622Y925D01*
Y924D01*
Y924D01*
Y924D01*
X622Y923D01*
X622Y923D01*
X622D01*
X623Y923D01*
X623Y924D01*
X624Y924D01*
Y924D01*
X623Y925D01*
X623Y925D01*
D02*
G37*
G36*
X674Y935D02*
X673D01*
X673Y934D01*
X672Y934D01*
Y934D01*
X673Y933D01*
X673Y932D01*
X675Y931D01*
X676Y930D01*
X677Y929D01*
X677D01*
X679Y928D01*
X680Y928D01*
X683Y927D01*
X685D01*
X686Y928D01*
X686Y928D01*
X686Y928D01*
X685Y929D01*
X683Y930D01*
X682Y931D01*
X681Y932D01*
X681D01*
X678Y933D01*
X676Y934D01*
X674Y935D01*
D02*
G37*
G36*
X674Y944D02*
X674Y944D01*
Y943D01*
Y942D01*
Y941D01*
X674Y940D01*
X674Y939D01*
X676Y937D01*
X678Y936D01*
X679Y936D01*
X679Y935D01*
X681Y934D01*
X683Y933D01*
X684Y932D01*
X685Y932D01*
X686Y931D01*
X686Y931D01*
X687Y930D01*
X689Y930D01*
X690D01*
X691Y930D01*
X692Y930D01*
X692Y931D01*
X692Y932D01*
X690Y933D01*
X689Y935D01*
X687Y936D01*
X685Y938D01*
X683Y939D01*
X682Y940D01*
X681Y940D01*
X679Y941D01*
X677Y942D01*
X676Y943D01*
X675Y944D01*
X674Y944D01*
X674Y944D01*
D02*
G37*
G36*
X621Y919D02*
X619D01*
X619Y919D01*
X619Y919D01*
Y918D01*
X619Y918D01*
X619Y918D01*
X621Y917D01*
X623Y917D01*
X623Y916D01*
X623D01*
X627Y916D01*
X630Y914D01*
X631Y913D01*
X633Y913D01*
X633Y912D01*
X634D01*
X635Y912D01*
X637Y911D01*
X638Y911D01*
X639D01*
X639Y911D01*
X638Y912D01*
X636Y912D01*
X635Y913D01*
X634Y914D01*
X632Y914D01*
X631Y915D01*
X631D01*
X628Y916D01*
X626Y917D01*
X624Y918D01*
X622Y919D01*
X621Y919D01*
X621Y919D01*
D02*
G37*
G36*
X588Y908D02*
X587Y908D01*
X586Y908D01*
X586Y907D01*
X585Y907D01*
Y906D01*
X585Y905D01*
Y904D01*
X585Y900D01*
X586Y899D01*
Y898D01*
X586Y897D01*
Y897D01*
X586Y894D01*
X587Y892D01*
X587Y891D01*
X588Y889D01*
X589Y888D01*
X589Y887D01*
X589Y887D01*
Y887D01*
X591Y885D01*
X592Y884D01*
X593Y883D01*
X593Y883D01*
X594Y882D01*
X595Y882D01*
X597Y881D01*
X599Y881D01*
X600Y881D01*
X600D01*
X605Y880D01*
X604Y884D01*
X604Y885D01*
X603Y887D01*
X603Y891D01*
X602Y893D01*
Y894D01*
X602Y895D01*
Y895D01*
X602Y897D01*
X602Y899D01*
X601Y900D01*
X601Y901D01*
X600Y902D01*
Y902D01*
X599Y904D01*
X597Y905D01*
X595Y906D01*
X595Y906D01*
X595D01*
X592Y908D01*
X590Y908D01*
X588Y908D01*
D02*
G37*
G36*
X647Y858D02*
X646D01*
X646Y858D01*
X646Y857D01*
X647Y857D01*
X647Y856D01*
X648Y856D01*
X648Y855D01*
X648D01*
Y856D01*
X648Y856D01*
Y857D01*
Y857D01*
X648Y858D01*
X647Y858D01*
X647Y858D01*
D02*
G37*
G36*
X686Y871D02*
X684D01*
X683Y871D01*
X682Y870D01*
X682Y870D01*
Y870D01*
Y868D01*
Y867D01*
Y866D01*
Y865D01*
Y865D01*
X682Y861D01*
X683Y858D01*
Y856D01*
Y855D01*
Y855D01*
Y854D01*
Y852D01*
X683Y850D01*
X683Y849D01*
X684Y849D01*
X685Y848D01*
X686Y847D01*
X687Y846D01*
X687Y846D01*
X690Y844D01*
X693Y843D01*
X694Y842D01*
X694Y842D01*
X696D01*
X697Y842D01*
X698Y843D01*
X698Y843D01*
X699Y844D01*
X700Y845D01*
X700Y848D01*
X701Y849D01*
Y850D01*
Y851D01*
Y852D01*
Y854D01*
X700Y856D01*
X700Y858D01*
X700Y860D01*
X699Y861D01*
X699Y862D01*
X699Y862D01*
Y862D01*
X697Y864D01*
X696Y866D01*
X695Y867D01*
X694Y867D01*
X692Y868D01*
X691Y869D01*
X688D01*
X687Y869D01*
Y870D01*
X686Y870D01*
X686Y871D01*
D02*
G37*
G36*
X680Y864D02*
X680D01*
X679Y864D01*
Y863D01*
X680Y862D01*
Y862D01*
X680Y862D01*
Y861D01*
X680Y862D01*
X681Y863D01*
Y863D01*
Y864D01*
Y864D01*
X680Y864D01*
D02*
G37*
G36*
X642Y862D02*
X641D01*
X641Y862D01*
X640Y861D01*
Y861D01*
Y861D01*
Y860D01*
X640Y858D01*
X640Y857D01*
Y857D01*
X639Y856D01*
X639Y856D01*
Y856D01*
X641Y857D01*
X642Y858D01*
X643Y859D01*
X644Y859D01*
X644D01*
X644Y859D01*
Y860D01*
X644Y860D01*
X644Y860D01*
X643Y861D01*
X643Y862D01*
X642Y862D01*
X642Y862D01*
D02*
G37*
G36*
X670Y818D02*
X669D01*
Y817D01*
X670Y816D01*
X670Y815D01*
X670Y815D01*
X672Y814D01*
X673Y813D01*
X673D01*
Y814D01*
X673Y815D01*
X672Y816D01*
X672Y816D01*
X670Y817D01*
X670Y818D01*
D02*
G37*
G36*
X783Y828D02*
X783D01*
X782Y828D01*
X781Y827D01*
Y827D01*
Y827D01*
Y826D01*
X782Y826D01*
X782D01*
X783Y826D01*
X783Y826D01*
X784Y827D01*
X783Y827D01*
X783Y828D01*
D02*
G37*
G36*
X660Y865D02*
X660D01*
X659Y864D01*
X659Y864D01*
X658Y864D01*
X658Y863D01*
X658Y862D01*
X658Y861D01*
X659Y860D01*
X659Y859D01*
X661Y857D01*
X662Y856D01*
X663Y855D01*
X664Y854D01*
X665Y853D01*
X665Y853D01*
X665Y851D01*
Y851D01*
X665D01*
X664Y850D01*
X662Y849D01*
X662Y848D01*
X661Y847D01*
X660Y846D01*
X658Y845D01*
X657Y845D01*
X655D01*
X655Y844D01*
X654Y844D01*
Y844D01*
X655Y843D01*
X656Y842D01*
X657Y842D01*
X657D01*
X663Y841D01*
X665Y840D01*
X668Y840D01*
X670Y839D01*
X671D01*
X673Y839D01*
X673D01*
X676Y839D01*
X678Y838D01*
X686D01*
X688Y839D01*
X689D01*
X690Y839D01*
X690Y839D01*
X691Y840D01*
Y840D01*
X690Y841D01*
X689Y842D01*
X687Y844D01*
X686Y845D01*
X685Y845D01*
X685D01*
X681Y847D01*
X678Y849D01*
X676Y849D01*
X675Y849D01*
X674D01*
X672Y849D01*
X671Y850D01*
X670Y850D01*
X669Y851D01*
X669Y851D01*
Y851D01*
X668Y852D01*
X668Y853D01*
X667Y853D01*
X667D01*
X666Y854D01*
X666Y855D01*
X665Y856D01*
Y856D01*
X665Y857D01*
X664Y859D01*
X663Y861D01*
X662Y861D01*
Y862D01*
X662Y864D01*
X661Y864D01*
X660Y865D01*
D02*
G37*
G36*
X648Y805D02*
X646D01*
X645Y805D01*
X645Y805D01*
X645Y805D01*
X646Y804D01*
X646Y804D01*
X647D01*
X648Y804D01*
X648D01*
X649Y804D01*
Y804D01*
X648Y805D01*
X648Y805D01*
D02*
G37*
G36*
X616Y869D02*
X615Y869D01*
X615Y868D01*
Y868D01*
X615Y867D01*
Y867D01*
X615Y867D01*
X614D01*
X614Y867D01*
X614Y867D01*
X613Y868D01*
X612Y868D01*
X612D01*
Y868D01*
X612Y868D01*
Y867D01*
X613Y866D01*
X613Y866D01*
X614Y864D01*
X615Y863D01*
X617Y862D01*
X618Y861D01*
X619Y860D01*
X619D01*
X620Y860D01*
X620Y861D01*
X620Y861D01*
Y862D01*
Y863D01*
X620Y864D01*
X620Y864D01*
X621D01*
X621Y864D01*
X621Y865D01*
X620Y866D01*
X620Y866D01*
X619Y867D01*
X618Y868D01*
X617D01*
X617Y867D01*
X616Y868D01*
Y868D01*
X616Y869D01*
X616Y869D01*
D02*
G37*
G36*
X647Y906D02*
X643D01*
X642Y906D01*
X642Y905D01*
Y905D01*
X642Y905D01*
X643Y904D01*
Y902D01*
Y902D01*
Y901D01*
X643Y900D01*
X644Y900D01*
X645Y899D01*
X645Y898D01*
X646Y897D01*
X648Y896D01*
X650Y894D01*
X652Y894D01*
X653Y893D01*
X653Y892D01*
X654Y892D01*
X658Y889D01*
X661Y887D01*
X664Y885D01*
X667Y883D01*
X669Y881D01*
X671Y880D01*
X672Y880D01*
X672Y879D01*
X676Y877D01*
X679Y875D01*
X681Y875D01*
X682Y874D01*
X682Y874D01*
X683D01*
X685Y873D01*
X686Y873D01*
X687D01*
X688Y873D01*
X689Y874D01*
X689Y874D01*
Y875D01*
X689Y876D01*
X687Y878D01*
X686Y879D01*
X683Y881D01*
X681Y883D01*
X675Y888D01*
X670Y892D01*
X667Y894D01*
X664Y896D01*
X662Y897D01*
X661Y898D01*
X660Y899D01*
X659Y899D01*
X657Y900D01*
X655Y902D01*
X654Y903D01*
X653Y903D01*
X653Y904D01*
X652Y904D01*
X652Y904D01*
X651Y905D01*
X651Y905D01*
X649Y906D01*
X647Y906D01*
D02*
G37*
G36*
X649Y875D02*
X649Y874D01*
X648Y874D01*
X648Y873D01*
Y873D01*
Y873D01*
Y872D01*
X649D01*
X649Y873D01*
X650Y873D01*
Y874D01*
X649Y874D01*
Y875D01*
D02*
G37*
G36*
X618Y879D02*
X617Y878D01*
X616D01*
X616Y878D01*
X617Y878D01*
X618D01*
X619Y878D01*
X619D01*
X619Y878D01*
X618Y879D01*
D02*
G37*
G36*
X611Y876D02*
X611D01*
X611Y876D01*
Y875D01*
X611Y874D01*
X611Y875D01*
X612Y875D01*
X611Y876D01*
Y876D01*
Y876D01*
D02*
G37*
G36*
X636Y869D02*
X634D01*
X635Y869D01*
X635Y868D01*
X636Y868D01*
X636D01*
X637Y868D01*
X637D01*
Y868D01*
Y868D01*
X636Y869D01*
D02*
G37*
G36*
X642Y871D02*
X642D01*
X642Y871D01*
X642Y870D01*
X642Y870D01*
X642Y869D01*
X644Y868D01*
X645Y868D01*
X646Y868D01*
X647Y867D01*
X647Y867D01*
X648Y867D01*
X648D01*
X647Y867D01*
X647Y868D01*
X646Y868D01*
X645Y870D01*
X643Y871D01*
X642Y871D01*
D02*
G37*
G36*
X667Y873D02*
X666D01*
X666Y872D01*
X665Y872D01*
Y872D01*
Y872D01*
X665Y871D01*
X666Y871D01*
X666Y871D01*
X667Y871D01*
X667Y872D01*
Y872D01*
X667Y872D01*
Y872D01*
Y873D01*
D02*
G37*
G36*
X613Y872D02*
X613D01*
X611Y871D01*
X611Y871D01*
X610Y871D01*
Y870D01*
X611Y870D01*
X611Y869D01*
X612D01*
X614Y870D01*
X614Y870D01*
X615Y870D01*
Y871D01*
X614Y871D01*
X614Y871D01*
X613Y872D01*
D02*
G37*
G36*
X501Y1047D02*
X499D01*
Y1047D01*
X500Y1046D01*
X500Y1046D01*
X501Y1046D01*
X501D01*
X502Y1045D01*
X502D01*
Y1046D01*
Y1046D01*
X501Y1047D01*
D02*
G37*
G36*
X513Y1048D02*
X513D01*
X511Y1047D01*
X511Y1047D01*
X510Y1046D01*
X510Y1045D01*
X509Y1044D01*
X510Y1043D01*
X510Y1043D01*
X512D01*
X512Y1043D01*
X512D01*
X513Y1044D01*
X514Y1044D01*
X515Y1045D01*
Y1045D01*
Y1046D01*
X514Y1047D01*
X514Y1047D01*
Y1048D01*
X513Y1048D01*
D02*
G37*
G36*
X551Y532D02*
X551D01*
X549Y532D01*
X549D01*
X548Y532D01*
X548Y531D01*
X547D01*
X547Y531D01*
X547D01*
X546Y531D01*
X545Y531D01*
X545Y531D01*
X544Y531D01*
X544Y531D01*
X544Y531D01*
X544D01*
Y526D01*
X545Y525D01*
X546Y524D01*
X547Y524D01*
X547Y523D01*
X548Y523D01*
X549Y523D01*
X549Y523D01*
X549Y522D01*
X550Y522D01*
X551Y522D01*
X552Y522D01*
X552Y521D01*
X553Y521D01*
X554Y521D01*
X554D01*
X555Y521D01*
X556Y522D01*
X557Y522D01*
X558Y522D01*
X558Y522D01*
X558Y522D01*
X559Y523D01*
X559Y523D01*
X559Y523D01*
X560Y524D01*
X560Y524D01*
X560Y525D01*
X560Y525D01*
X560Y526D01*
Y526D01*
Y526D01*
X560Y527D01*
X560Y527D01*
X560Y528D01*
X559Y529D01*
X559Y529D01*
X558Y529D01*
X558Y530D01*
X558Y530D01*
X557Y530D01*
X556Y531D01*
X555Y531D01*
X553Y531D01*
X552Y532D01*
X552Y532D01*
X552D01*
X551Y532D01*
D02*
G37*
G36*
X803Y541D02*
X803D01*
X802Y541D01*
X801Y541D01*
X800Y541D01*
X799Y540D01*
X798Y540D01*
X797Y539D01*
X797Y539D01*
X796Y538D01*
X796Y538D01*
X796Y538D01*
X796Y538D01*
X796Y538D01*
X795Y537D01*
X795Y536D01*
X794Y536D01*
X794Y535D01*
X794Y534D01*
X793Y533D01*
X793Y532D01*
Y532D01*
X793Y532D01*
Y531D01*
Y531D01*
Y531D01*
X793Y530D01*
X793Y530D01*
X794Y528D01*
X794Y527D01*
X795Y526D01*
X795Y525D01*
X796Y525D01*
X796Y524D01*
X796Y524D01*
X796Y524D01*
X796Y524D01*
X797Y524D01*
X797Y523D01*
X798Y523D01*
X799Y522D01*
X800Y522D01*
X801Y522D01*
X802Y521D01*
X802D01*
X802Y521D01*
X803D01*
X803Y521D01*
X804Y521D01*
X805Y522D01*
X806Y522D01*
X807Y523D01*
X808Y523D01*
X809Y524D01*
X809Y524D01*
X809Y524D01*
X809Y524D01*
X809Y524D01*
X810Y525D01*
X810Y525D01*
X811Y526D01*
X811Y528D01*
X812Y529D01*
X812Y530D01*
X812Y530D01*
Y530D01*
X812Y531D01*
Y531D01*
Y531D01*
Y531D01*
X812Y532D01*
X812Y533D01*
X812Y534D01*
X811Y535D01*
X811Y536D01*
X810Y537D01*
X810Y538D01*
X809Y538D01*
X809Y538D01*
X809Y538D01*
X809Y538D01*
X809Y539D01*
X808Y539D01*
X808Y539D01*
X807Y540D01*
X806Y540D01*
X805Y541D01*
X804Y541D01*
X804Y541D01*
X803D01*
X803Y541D01*
D02*
G37*
G36*
X709D02*
X709D01*
X708Y541D01*
X707Y541D01*
X706Y541D01*
X705Y540D01*
X704Y540D01*
X703Y539D01*
X702Y539D01*
X702Y538D01*
X702Y538D01*
X702Y538D01*
X702Y538D01*
X701Y538D01*
X701Y537D01*
X700Y536D01*
X700Y536D01*
X700Y535D01*
X699Y534D01*
X699Y533D01*
X699Y532D01*
Y532D01*
X699Y532D01*
Y531D01*
Y531D01*
Y531D01*
X699Y530D01*
X699Y530D01*
X699Y528D01*
X700Y527D01*
X700Y526D01*
X701Y525D01*
X701Y525D01*
X701Y525D01*
X702Y524D01*
X702Y524D01*
X702Y524D01*
X702Y524D01*
X703Y523D01*
X704Y523D01*
X704Y523D01*
X705Y522D01*
X706Y522D01*
X707Y522D01*
X708Y521D01*
X708Y521D01*
X708Y521D01*
X709D01*
X710Y521D01*
X710Y521D01*
X712Y522D01*
X713Y522D01*
X714Y523D01*
X715Y523D01*
X715Y524D01*
X715Y524D01*
X716Y524D01*
X716Y524D01*
X716Y524D01*
X716Y524D01*
X716Y525D01*
X717Y525D01*
X717Y526D01*
X717Y527D01*
X718Y528D01*
X718Y529D01*
X719Y530D01*
X719Y530D01*
X719Y530D01*
X719Y531D01*
Y531D01*
Y531D01*
Y531D01*
X719Y532D01*
X719Y533D01*
X718Y534D01*
X718Y535D01*
X717Y536D01*
X717Y537D01*
X716Y538D01*
X716Y538D01*
X716Y538D01*
X716Y538D01*
X716Y538D01*
X715Y539D01*
X715Y539D01*
X714Y539D01*
X714Y540D01*
X712Y540D01*
X711Y541D01*
X710Y541D01*
X710Y541D01*
X709D01*
X709Y541D01*
D02*
G37*
G36*
X501Y1042D02*
X500Y1042D01*
X500D01*
X499Y1041D01*
X498Y1041D01*
X498Y1040D01*
X498Y1040D01*
X500D01*
X501Y1040D01*
X501Y1041D01*
X502Y1041D01*
X501Y1042D01*
X501Y1042D01*
D02*
G37*
G36*
X697Y1012D02*
X695Y1011D01*
X694Y1011D01*
X693D01*
X693Y1011D01*
X692D01*
X692Y1011D01*
Y1011D01*
Y1010D01*
Y1010D01*
X692Y1010D01*
X692Y1009D01*
X693D01*
X695Y1010D01*
X696Y1011D01*
X697Y1011D01*
X697Y1012D01*
X697Y1012D01*
D02*
G37*
G36*
X712Y1012D02*
X711D01*
X711Y1011D01*
X710Y1010D01*
X710Y1009D01*
Y1008D01*
Y1008D01*
Y1007D01*
Y1006D01*
X710Y1005D01*
X711Y1004D01*
X711Y1005D01*
X712Y1006D01*
X713Y1007D01*
X713Y1007D01*
X713Y1009D01*
Y1010D01*
X713Y1010D01*
Y1011D01*
X712Y1011D01*
X712Y1012D01*
D02*
G37*
G36*
X716Y1022D02*
X716D01*
X715Y1021D01*
X715Y1020D01*
X714Y1020D01*
X713Y1018D01*
X713Y1017D01*
Y1016D01*
X714Y1018D01*
X715Y1019D01*
X716Y1020D01*
Y1021D01*
Y1022D01*
D02*
G37*
G36*
X707Y1023D02*
X707Y1023D01*
X706Y1023D01*
X706Y1023D01*
Y1022D01*
X706Y1022D01*
X706Y1021D01*
X706Y1021D01*
X707Y1021D01*
X707Y1022D01*
X708Y1022D01*
Y1022D01*
Y1023D01*
X707Y1023D01*
D02*
G37*
G36*
X712Y1022D02*
X712D01*
X712Y1022D01*
X711Y1022D01*
Y1021D01*
X710Y1020D01*
X710Y1020D01*
X710Y1019D01*
X711D01*
X711Y1020D01*
X712Y1020D01*
X712Y1021D01*
X712Y1022D01*
Y1022D01*
Y1022D01*
D02*
G37*
G36*
X964Y541D02*
X963D01*
X963Y541D01*
X961Y541D01*
X960Y540D01*
X959Y540D01*
X959Y539D01*
X958Y539D01*
X958Y538D01*
X958Y538D01*
Y538D01*
X957Y538D01*
X957Y537D01*
X956Y536D01*
X956Y535D01*
X955Y534D01*
X955Y533D01*
X955Y533D01*
Y532D01*
X955Y532D01*
Y532D01*
Y532D01*
Y532D01*
Y531D01*
X955Y530D01*
X955Y529D01*
X956Y528D01*
X956Y527D01*
X957Y526D01*
X957Y526D01*
X958Y525D01*
X958Y525D01*
X958Y525D01*
X958Y525D01*
X959Y524D01*
X960Y524D01*
X961Y523D01*
X962Y523D01*
X963Y523D01*
X963Y523D01*
X963D01*
X964Y523D01*
X964D01*
X965Y523D01*
X965Y523D01*
X967Y523D01*
X968Y524D01*
X969Y524D01*
X969Y525D01*
X970Y525D01*
X970Y525D01*
X970Y525D01*
X970D01*
X971Y526D01*
X971Y526D01*
X972Y527D01*
X972Y529D01*
X972Y530D01*
X973Y530D01*
X973Y531D01*
Y531D01*
X973Y531D01*
Y532D01*
Y532D01*
Y532D01*
X973Y533D01*
X973Y533D01*
X972Y534D01*
X972Y536D01*
X972Y536D01*
X971Y537D01*
X971Y538D01*
X970Y538D01*
X970Y538D01*
Y538D01*
X970Y539D01*
X969Y539D01*
X968Y540D01*
X967Y540D01*
X966Y541D01*
X965Y541D01*
X965Y541D01*
X964Y541D01*
D02*
G37*
G36*
X761Y684D02*
X760D01*
X758Y684D01*
X756Y683D01*
X754Y682D01*
X752Y681D01*
X751Y681D01*
X750Y680D01*
X750Y679D01*
X749Y679D01*
X748Y677D01*
X747Y675D01*
X746Y673D01*
X746Y671D01*
X745Y670D01*
X745Y668D01*
X745Y668D01*
Y667D01*
Y667D01*
Y667D01*
X745Y664D01*
X746Y662D01*
X746Y660D01*
X747Y658D01*
X748Y656D01*
X748Y655D01*
X748Y654D01*
X748Y654D01*
X749Y654D01*
X749Y653D01*
Y653D01*
X750Y651D01*
X752Y649D01*
X753Y647D01*
X755Y646D01*
X756Y644D01*
X757Y643D01*
X758Y643D01*
X758Y643D01*
X758D01*
X760Y641D01*
X762Y641D01*
X764Y640D01*
X766Y639D01*
X768Y639D01*
X769Y639D01*
X769Y639D01*
X770D01*
X772Y639D01*
X774Y640D01*
X776Y640D01*
X777Y641D01*
X778Y642D01*
X779Y643D01*
X780Y643D01*
X780Y643D01*
X782Y645D01*
X783Y647D01*
X783Y649D01*
X784Y651D01*
X784Y653D01*
X784Y654D01*
X784Y655D01*
Y655D01*
Y656D01*
Y656D01*
X784Y658D01*
X784Y661D01*
X783Y663D01*
X783Y665D01*
X782Y667D01*
X782Y668D01*
X781Y668D01*
X781Y669D01*
X781Y669D01*
X781Y669D01*
Y669D01*
X779Y672D01*
X778Y674D01*
X776Y676D01*
X775Y677D01*
X773Y678D01*
X772Y679D01*
X772Y680D01*
X772Y680D01*
X771D01*
X769Y681D01*
X767Y682D01*
X765Y683D01*
X764Y683D01*
X762Y684D01*
X761Y684D01*
D02*
G37*
G36*
X767Y606D02*
X767D01*
X765Y606D01*
X764Y606D01*
X763Y605D01*
X762Y605D01*
X761Y604D01*
X761Y604D01*
X761Y604D01*
X760Y604D01*
X760Y604D01*
X760D01*
X759Y603D01*
X759Y602D01*
X758Y601D01*
X758Y600D01*
X757Y599D01*
X757Y598D01*
X757Y598D01*
Y598D01*
X757Y598D01*
Y598D01*
X777D01*
X776Y599D01*
X776Y600D01*
X775Y601D01*
X775Y602D01*
X774Y603D01*
X774Y603D01*
X774Y604D01*
X773Y604D01*
X772Y604D01*
X771Y605D01*
X770Y605D01*
X769Y606D01*
X768Y606D01*
X768Y606D01*
X767D01*
X767Y606D01*
D02*
G37*
G36*
X512Y682D02*
X499D01*
X502Y668D01*
X513D01*
X515Y668D01*
X516Y669D01*
X517Y669D01*
X518Y669D01*
X519Y669D01*
X519Y669D01*
X519D01*
X520Y670D01*
X521Y670D01*
X521Y671D01*
X521Y672D01*
X521Y673D01*
X522Y673D01*
Y673D01*
Y674D01*
X521Y675D01*
X521Y676D01*
X521Y678D01*
X520Y678D01*
X519Y679D01*
X518Y680D01*
X517Y681D01*
X516Y681D01*
X514Y682D01*
X513Y682D01*
X512Y682D01*
X512Y682D01*
D02*
G37*
G36*
X764Y481D02*
X764D01*
X762Y481D01*
X761Y481D01*
X760Y480D01*
X759Y480D01*
X758Y479D01*
X758Y479D01*
X757Y479D01*
X757Y479D01*
X757Y479D01*
X757D01*
X756Y478D01*
X755Y477D01*
X755Y476D01*
X754Y475D01*
X754Y474D01*
X754Y473D01*
X754Y473D01*
Y473D01*
X754Y473D01*
Y473D01*
X774D01*
X773Y474D01*
X773Y475D01*
X772Y476D01*
X772Y477D01*
X771Y478D01*
X771Y478D01*
X770Y479D01*
X770Y479D01*
X769Y479D01*
X768Y480D01*
X767Y480D01*
X766Y481D01*
X765Y481D01*
X765Y481D01*
X764D01*
X764Y481D01*
D02*
G37*
G36*
X573Y491D02*
X573D01*
X572Y491D01*
X572Y491D01*
X571Y491D01*
X571Y491D01*
X570Y490D01*
X570Y490D01*
X570Y490D01*
X570Y490D01*
X569Y490D01*
X569Y489D01*
X568Y489D01*
X568Y489D01*
X568Y489D01*
Y488D01*
X568Y488D01*
X567Y487D01*
X567Y486D01*
X567Y486D01*
X566Y485D01*
X566Y485D01*
X566Y484D01*
X566Y484D01*
Y484D01*
X566Y483D01*
X566Y482D01*
X565Y481D01*
X565Y480D01*
X565Y480D01*
X565Y479D01*
Y479D01*
Y479D01*
Y479D01*
Y479D01*
Y474D01*
X565Y472D01*
X566Y470D01*
X566Y469D01*
X566Y468D01*
X566Y467D01*
X567Y467D01*
X567Y466D01*
X567Y466D01*
X567Y465D01*
X567Y465D01*
X567Y465D01*
Y465D01*
X568Y464D01*
X568Y464D01*
X569Y463D01*
X569Y463D01*
X570Y463D01*
X570Y462D01*
X571Y462D01*
X572Y462D01*
X572Y461D01*
X573Y461D01*
X573D01*
X574Y461D01*
X574Y462D01*
X575Y462D01*
X575Y462D01*
X576Y462D01*
X576Y462D01*
X576Y462D01*
X576Y462D01*
X577Y463D01*
X578Y463D01*
X578Y464D01*
X578Y464D01*
Y464D01*
X578Y464D01*
X579Y465D01*
X579Y466D01*
X579Y466D01*
X580Y467D01*
X580Y468D01*
X580Y468D01*
X580Y468D01*
X580Y469D01*
X580Y470D01*
X581Y471D01*
X581Y472D01*
X581Y473D01*
X581Y473D01*
Y474D01*
Y474D01*
Y474D01*
Y474D01*
Y479D01*
X581Y480D01*
X581Y482D01*
X580Y483D01*
X580Y485D01*
X580Y485D01*
X579Y486D01*
X579Y486D01*
X579Y487D01*
X579Y487D01*
X579Y487D01*
X579Y487D01*
Y487D01*
X578Y488D01*
X578Y488D01*
X578Y489D01*
X577Y489D01*
X577Y490D01*
X576Y490D01*
X575Y491D01*
X574Y491D01*
X574Y491D01*
X573Y491D01*
D02*
G37*
G36*
X609Y606D02*
X608D01*
X607Y606D01*
X606Y606D01*
X605Y605D01*
X604Y605D01*
X603Y604D01*
X602Y604D01*
X602Y604D01*
X602Y604D01*
X602Y604D01*
X602D01*
X601Y603D01*
X600Y602D01*
X600Y601D01*
X599Y600D01*
X599Y599D01*
X599Y598D01*
X598Y598D01*
Y598D01*
X598Y598D01*
Y598D01*
X618D01*
X618Y599D01*
X617Y600D01*
X617Y601D01*
X616Y602D01*
X616Y603D01*
X615Y603D01*
X615Y604D01*
X615Y604D01*
X614Y604D01*
X613Y605D01*
X612Y605D01*
X611Y606D01*
X610Y606D01*
X609Y606D01*
X609D01*
X609Y606D01*
D02*
G37*
G36*
X450D02*
X449D01*
X449Y606D01*
X448Y606D01*
X447Y606D01*
X445Y605D01*
X444Y605D01*
X444Y604D01*
X443Y604D01*
X443Y603D01*
X443Y603D01*
X442Y603D01*
X442Y603D01*
X442Y603D01*
X441Y602D01*
X441Y601D01*
X441Y601D01*
X440Y600D01*
X440Y599D01*
X440Y598D01*
X440Y597D01*
Y597D01*
X439Y597D01*
Y596D01*
Y596D01*
Y596D01*
X440Y595D01*
X440Y595D01*
X440Y593D01*
X440Y592D01*
X441Y591D01*
X441Y590D01*
X442Y590D01*
X442Y590D01*
X442Y589D01*
X442Y589D01*
X442Y589D01*
X443Y589D01*
X444Y588D01*
X444Y588D01*
X445Y588D01*
X446Y587D01*
X447Y587D01*
X448Y587D01*
X448Y586D01*
X449Y586D01*
X449Y586D01*
X449D01*
X450Y586D01*
X451Y586D01*
X452Y587D01*
X453Y587D01*
X455Y588D01*
X455Y588D01*
X456Y589D01*
X456Y589D01*
X456Y589D01*
X456Y589D01*
X456Y589D01*
X456Y589D01*
X457Y590D01*
X457Y590D01*
X458Y591D01*
X458Y592D01*
X459Y593D01*
X459Y594D01*
X459Y595D01*
X459Y595D01*
X459Y595D01*
X459Y596D01*
Y596D01*
Y596D01*
Y596D01*
X459Y597D01*
X459Y598D01*
X459Y599D01*
X458Y600D01*
X458Y601D01*
X457Y602D01*
X457Y603D01*
X457Y603D01*
X457Y603D01*
X457Y603D01*
X456Y603D01*
X456Y604D01*
X455Y604D01*
X455Y604D01*
X454Y605D01*
X453Y605D01*
X452Y606D01*
X451Y606D01*
X450Y606D01*
X450D01*
X450Y606D01*
D02*
G37*
G36*
X424Y541D02*
X424D01*
X422Y541D01*
X421Y541D01*
X420Y540D01*
X419Y540D01*
X418Y539D01*
X418Y539D01*
X418Y539D01*
X417Y539D01*
X417Y539D01*
X417D01*
X416Y538D01*
X416Y537D01*
X415Y536D01*
X415Y535D01*
X414Y534D01*
X414Y533D01*
X414Y533D01*
Y533D01*
X414Y533D01*
Y533D01*
X434D01*
X433Y534D01*
X433Y535D01*
X432Y536D01*
X432Y537D01*
X431Y538D01*
X431Y538D01*
X430Y539D01*
X430Y539D01*
X429Y539D01*
X428Y540D01*
X427Y540D01*
X426Y541D01*
X425Y541D01*
X425Y541D01*
X424D01*
X424Y541D01*
D02*
G37*
G36*
X514Y597D02*
X513D01*
X512Y597D01*
X511D01*
X511Y597D01*
X510Y596D01*
X510D01*
X510Y596D01*
X510D01*
X509Y596D01*
X508Y596D01*
X508Y596D01*
X507Y596D01*
X507Y596D01*
X507Y596D01*
X507D01*
Y591D01*
X507Y590D01*
X508Y589D01*
X509Y589D01*
X510Y588D01*
X511Y588D01*
X511Y588D01*
X511Y588D01*
X512Y587D01*
X512Y587D01*
X513Y587D01*
X514Y587D01*
X515Y586D01*
X516Y586D01*
X516Y586D01*
X517D01*
X518Y586D01*
X519Y587D01*
X520Y587D01*
X520Y587D01*
X521Y587D01*
X521Y587D01*
X521Y588D01*
X521Y588D01*
X522Y588D01*
X522Y589D01*
X522Y589D01*
X523Y590D01*
X523Y590D01*
X523Y591D01*
Y591D01*
Y591D01*
X523Y592D01*
X522Y592D01*
X522Y593D01*
X522Y594D01*
X521Y594D01*
X521Y594D01*
X521Y595D01*
X521Y595D01*
X520Y595D01*
X519Y596D01*
X517Y596D01*
X516Y596D01*
X515Y597D01*
X515Y597D01*
X514D01*
X514Y597D01*
D02*
G37*
G36*
X703Y613D02*
X703D01*
X697Y597D01*
X709D01*
X703Y613D01*
D02*
G37*
G36*
X894Y606D02*
X893D01*
X893Y606D01*
X892Y606D01*
X891Y606D01*
X889Y605D01*
X888Y605D01*
X887Y604D01*
X887Y604D01*
X887Y603D01*
X886Y603D01*
X886Y603D01*
X886Y603D01*
X886Y603D01*
X885Y602D01*
X885Y601D01*
X885Y601D01*
X884Y600D01*
X884Y599D01*
X884Y598D01*
X883Y597D01*
Y597D01*
X883Y597D01*
Y596D01*
Y596D01*
Y596D01*
X883Y595D01*
X883Y595D01*
X884Y593D01*
X884Y592D01*
X885Y591D01*
X885Y590D01*
X886Y590D01*
X886Y590D01*
X886Y589D01*
X886Y589D01*
X886Y589D01*
X887Y589D01*
X887Y588D01*
X888Y588D01*
X889Y588D01*
X890Y587D01*
X891Y587D01*
X892Y587D01*
X892Y586D01*
X893Y586D01*
X893Y586D01*
X893D01*
X894Y586D01*
X895Y586D01*
X896Y587D01*
X897Y587D01*
X898Y588D01*
X899Y588D01*
X900Y589D01*
X900Y589D01*
X900Y589D01*
X900Y589D01*
X900Y589D01*
X900Y589D01*
X901Y590D01*
X901Y590D01*
X902Y591D01*
X902Y592D01*
X903Y593D01*
X903Y594D01*
X903Y595D01*
X903Y595D01*
X903Y595D01*
X903Y596D01*
Y596D01*
Y596D01*
Y596D01*
X903Y597D01*
X903Y598D01*
X903Y599D01*
X902Y600D01*
X902Y601D01*
X901Y602D01*
X901Y603D01*
X901Y603D01*
X901Y603D01*
X900Y603D01*
X900Y603D01*
X900Y604D01*
X899Y604D01*
X899Y604D01*
X898Y605D01*
X897Y605D01*
X896Y606D01*
X895Y606D01*
X894Y606D01*
X894D01*
X894Y606D01*
D02*
G37*
G36*
X644Y958D02*
X638D01*
X640Y957D01*
X642Y957D01*
X644Y956D01*
X644Y956D01*
X645Y956D01*
X646Y955D01*
X646Y954D01*
Y952D01*
Y952D01*
X646Y951D01*
X645Y950D01*
X645Y949D01*
X644D01*
X643Y949D01*
X642D01*
X642Y949D01*
X642Y950D01*
X642Y951D01*
X642Y951D01*
X642Y952D01*
X643Y952D01*
X644Y953D01*
Y954D01*
Y954D01*
X643Y954D01*
X643D01*
X643Y954D01*
X642D01*
X641Y954D01*
Y955D01*
X641Y955D01*
X640D01*
X640Y955D01*
X640Y955D01*
X639Y954D01*
X638D01*
X638Y955D01*
Y955D01*
X637Y956D01*
X637D01*
Y955D01*
Y955D01*
X637Y953D01*
X638Y953D01*
X639D01*
X640Y953D01*
X641D01*
Y953D01*
Y952D01*
X641Y952D01*
X640Y950D01*
X639Y950D01*
Y950D01*
X639Y949D01*
X638Y948D01*
Y948D01*
X639Y948D01*
X641D01*
X641Y948D01*
Y948D01*
X641Y947D01*
X641Y946D01*
X640Y946D01*
X640Y945D01*
Y944D01*
X640Y944D01*
Y944D01*
X640Y944D01*
X641D01*
X642Y944D01*
X642Y945D01*
X642Y946D01*
X643Y947D01*
X644Y948D01*
X645Y949D01*
X645Y949D01*
X646D01*
X646Y949D01*
X646Y948D01*
Y948D01*
Y947D01*
Y947D01*
X647D01*
X647Y947D01*
X647Y947D01*
X648Y949D01*
Y951D01*
Y952D01*
Y953D01*
X648Y954D01*
X647Y955D01*
X646Y956D01*
X646Y957D01*
X646D01*
X644Y958D01*
D02*
G37*
G36*
X628Y951D02*
X627D01*
X627Y951D01*
X626Y951D01*
X627Y950D01*
Y950D01*
X627Y949D01*
X628Y949D01*
X628Y949D01*
X629D01*
X629Y949D01*
Y949D01*
Y950D01*
Y950D01*
X629Y951D01*
X628Y951D01*
D02*
G37*
G36*
X698Y972D02*
X697Y971D01*
X697Y970D01*
X697Y969D01*
Y969D01*
Y968D01*
Y968D01*
Y968D01*
X697D01*
X698Y968D01*
X698Y969D01*
Y969D01*
Y970D01*
Y971D01*
X698Y971D01*
Y972D01*
D02*
G37*
G36*
X572Y975D02*
X571D01*
X571Y975D01*
X570Y974D01*
Y974D01*
Y974D01*
X570Y973D01*
X571Y973D01*
X571D01*
X572Y973D01*
X572Y973D01*
X573Y974D01*
X572Y974D01*
X572Y975D01*
D02*
G37*
G36*
X662Y975D02*
X661Y974D01*
X660D01*
Y974D01*
X661Y973D01*
X662Y972D01*
X662Y972D01*
X663Y971D01*
X664Y971D01*
X665Y971D01*
X665D01*
Y971D01*
Y972D01*
X666Y972D01*
X669D01*
X667Y973D01*
X666Y973D01*
X665Y974D01*
X664Y974D01*
X662D01*
X662Y975D01*
D02*
G37*
G36*
X680Y969D02*
Y969D01*
X680Y968D01*
X680Y968D01*
Y967D01*
X681Y966D01*
X682Y965D01*
X683Y965D01*
X684Y964D01*
X687Y963D01*
X690Y961D01*
X694Y959D01*
X697Y956D01*
X699Y954D01*
X701Y952D01*
X702Y951D01*
X703Y951D01*
X704Y950D01*
X704Y950D01*
X705Y949D01*
X706Y948D01*
X708Y947D01*
X709Y946D01*
X709Y946D01*
X710Y946D01*
Y947D01*
X709Y948D01*
X708Y949D01*
X706Y951D01*
X704Y953D01*
X702Y955D01*
X700Y956D01*
X699Y958D01*
X698Y958D01*
X697Y959D01*
X697Y960D01*
X696Y962D01*
Y963D01*
Y963D01*
X697Y964D01*
Y965D01*
Y965D01*
X696D01*
X695Y964D01*
X695Y964D01*
X694Y964D01*
X693Y963D01*
X693Y963D01*
X692D01*
X690Y963D01*
X689Y964D01*
X687Y965D01*
X686Y965D01*
X686D01*
X684Y967D01*
X682Y968D01*
X681Y968D01*
X681Y969D01*
X680Y969D01*
D02*
G37*
G36*
X624Y938D02*
X624D01*
X624Y937D01*
Y936D01*
X624Y936D01*
Y936D01*
X624Y936D01*
X625Y936D01*
Y937D01*
Y937D01*
X624Y938D01*
D02*
G37*
G36*
X675Y951D02*
X675D01*
X674Y951D01*
X674Y950D01*
Y949D01*
Y948D01*
X674Y947D01*
X674Y946D01*
X675Y945D01*
X675D01*
X676Y945D01*
X678Y944D01*
X681Y943D01*
X682Y942D01*
X684Y941D01*
X685Y940D01*
X685Y940D01*
X689Y938D01*
X692Y936D01*
X694Y936D01*
X696Y935D01*
X697D01*
X697Y936D01*
X698Y936D01*
Y936D01*
X697Y937D01*
X696Y939D01*
X694Y940D01*
X693Y940D01*
X693Y941D01*
X689Y944D01*
X685Y946D01*
X683Y947D01*
X682Y948D01*
X682Y948D01*
X681D01*
X679Y949D01*
X678Y950D01*
X677Y950D01*
X676Y951D01*
X675Y951D01*
D02*
G37*
G36*
X678Y958D02*
X678D01*
X677Y958D01*
X676Y957D01*
X675Y957D01*
Y956D01*
X675Y955D01*
Y955D01*
Y954D01*
X675Y954D01*
X676Y953D01*
X678Y953D01*
X679Y952D01*
X681Y951D01*
X682Y950D01*
X683Y950D01*
X683Y949D01*
X686Y948D01*
X689Y946D01*
X691Y945D01*
X692Y944D01*
X693Y943D01*
X695Y942D01*
X695Y942D01*
X695Y941D01*
X697Y940D01*
X698Y940D01*
X698D01*
X700Y939D01*
X701Y939D01*
X702D01*
X702Y939D01*
X703Y940D01*
Y940D01*
X702Y941D01*
X701Y943D01*
X699Y944D01*
X697Y946D01*
X695Y948D01*
X693Y949D01*
X692Y950D01*
X692Y950D01*
X688Y953D01*
X685Y955D01*
X682Y956D01*
X680Y957D01*
X679Y958D01*
X678Y958D01*
D02*
G37*
G36*
X681Y963D02*
X680D01*
X679Y962D01*
Y962D01*
X680Y961D01*
X680Y960D01*
X682Y959D01*
X685Y957D01*
X685Y957D01*
X686Y957D01*
X690Y954D01*
X694Y952D01*
X695Y951D01*
X697Y950D01*
X697Y949D01*
X698Y949D01*
X700Y947D01*
X701Y946D01*
X703Y945D01*
X703Y944D01*
X704Y943D01*
Y943D01*
X705Y942D01*
X705Y942D01*
X706D01*
X707Y942D01*
X707Y943D01*
X708Y943D01*
X707Y944D01*
X706Y945D01*
X705Y946D01*
X704Y947D01*
X703Y948D01*
X702Y949D01*
X701Y950D01*
X701Y950D01*
X696Y954D01*
X693Y956D01*
X692Y957D01*
X690Y958D01*
X689Y959D01*
X688Y960D01*
X688D01*
X686Y960D01*
X685Y961D01*
X684Y962D01*
X684D01*
X682Y962D01*
X681Y963D01*
D02*
G37*
G36*
X636Y945D02*
Y945D01*
Y944D01*
Y944D01*
Y943D01*
Y943D01*
X636Y941D01*
X636Y940D01*
X635Y939D01*
Y939D01*
X635Y938D01*
X634Y937D01*
Y936D01*
Y936D01*
X634Y935D01*
X634Y934D01*
X634Y934D01*
X633D01*
X633Y934D01*
X632Y934D01*
Y935D01*
X632Y935D01*
X631Y936D01*
X631Y935D01*
X630Y935D01*
X630Y934D01*
X630Y934D01*
Y934D01*
X631Y933D01*
X632Y932D01*
X634Y932D01*
X634D01*
X635Y932D01*
X636Y933D01*
X637Y933D01*
Y933D01*
Y935D01*
X637Y936D01*
Y936D01*
X638Y937D01*
X638Y938D01*
X638D01*
X638Y939D01*
Y940D01*
X638Y940D01*
Y940D01*
X638Y941D01*
Y942D01*
Y942D01*
X638Y942D01*
X639Y941D01*
X639Y941D01*
X639Y941D01*
X640Y940D01*
X641Y940D01*
X641Y940D01*
X641Y941D01*
X640Y941D01*
X639Y942D01*
X639Y943D01*
X637Y944D01*
X636Y945D01*
X636Y945D01*
D02*
G37*
G36*
X706Y1000D02*
X705D01*
X704Y999D01*
Y999D01*
X705Y999D01*
X705Y999D01*
X705Y998D01*
X705Y998D01*
X706D01*
X707Y998D01*
Y999D01*
X706Y999D01*
X706Y1000D01*
D02*
G37*
G36*
X680Y998D02*
X680D01*
X680Y997D01*
X679Y997D01*
Y997D01*
Y996D01*
X680Y996D01*
X680Y995D01*
X680Y995D01*
X681D01*
X681Y995D01*
Y996D01*
Y996D01*
Y996D01*
X681Y997D01*
X680Y998D01*
D02*
G37*
G36*
X699Y997D02*
X698D01*
Y997D01*
X699Y996D01*
X700Y996D01*
X700Y995D01*
X701Y995D01*
X703D01*
Y995D01*
Y995D01*
X703Y995D01*
X701Y996D01*
X701Y997D01*
X701D01*
X699Y997D01*
D02*
G37*
G36*
X717Y1008D02*
X717D01*
X716Y1007D01*
X715Y1007D01*
Y1007D01*
X715Y1005D01*
X715Y1004D01*
X716Y1003D01*
Y1003D01*
X716Y1003D01*
X716D01*
X717Y1003D01*
X717Y1004D01*
X717Y1005D01*
Y1005D01*
X718Y1007D01*
X717Y1007D01*
X717Y1008D01*
Y1008D01*
D02*
G37*
G36*
X686Y1005D02*
X686D01*
X685Y1005D01*
X685Y1004D01*
X685Y1004D01*
X683Y1003D01*
X683Y1002D01*
X683Y1002D01*
Y1001D01*
X684Y1001D01*
X685Y1001D01*
X685Y1002D01*
X686Y1002D01*
X686Y1004D01*
X686Y1005D01*
Y1005D01*
Y1005D01*
D02*
G37*
G36*
X691Y1004D02*
X690Y1004D01*
X690Y1003D01*
X689Y1002D01*
X689Y1002D01*
X688Y1001D01*
X688Y1000D01*
Y1000D01*
X688Y1000D01*
X689D01*
X690Y1000D01*
X691Y1001D01*
X691Y1002D01*
Y1003D01*
X691Y1004D01*
D02*
G37*
G36*
X704Y987D02*
X704Y986D01*
X703Y986D01*
Y986D01*
X702Y985D01*
X700D01*
X700Y985D01*
X698Y986D01*
X698Y986D01*
X697D01*
Y986D01*
X698Y985D01*
X699Y984D01*
X699Y983D01*
X701Y983D01*
X702D01*
X702Y983D01*
X703D01*
X704Y984D01*
X704Y985D01*
X704Y986D01*
Y986D01*
X704Y987D01*
D02*
G37*
G36*
X667Y982D02*
X667D01*
X666Y982D01*
X666Y981D01*
X666Y981D01*
Y981D01*
X666Y980D01*
Y980D01*
X666D01*
X667Y980D01*
X667Y980D01*
X668Y981D01*
Y981D01*
X667Y982D01*
D02*
G37*
G36*
X688Y978D02*
X685D01*
X683Y977D01*
X684Y976D01*
X685Y976D01*
X686D01*
X687Y976D01*
X687Y976D01*
X688Y975D01*
Y975D01*
X688Y974D01*
X689Y974D01*
X689Y974D01*
X689D01*
X690Y974D01*
X691Y975D01*
X691Y976D01*
Y976D01*
X691Y976D01*
X690Y977D01*
X689Y978D01*
X688Y978D01*
D02*
G37*
G36*
X711Y996D02*
X710D01*
X710Y995D01*
Y995D01*
X710Y995D01*
X711Y994D01*
X712Y994D01*
X712D01*
X713Y993D01*
X713Y993D01*
X713D01*
Y993D01*
X713Y994D01*
X713Y994D01*
X713Y995D01*
X712Y995D01*
X711Y996D01*
D02*
G37*
G36*
X697Y994D02*
X695D01*
X695Y994D01*
Y993D01*
Y993D01*
X695Y992D01*
X696Y991D01*
X697Y991D01*
X697Y991D01*
X699Y991D01*
X700D01*
X700Y991D01*
X701D01*
X701Y991D01*
X701Y992D01*
X700Y992D01*
X699Y993D01*
X698Y993D01*
X697Y994D01*
D02*
G37*
%LPD*%
G36*
X651Y902D02*
X651Y902D01*
X652Y901D01*
Y900D01*
Y900D01*
X651Y899D01*
X651Y899D01*
X651Y899D01*
X650D01*
X650Y899D01*
X649Y900D01*
Y900D01*
Y902D01*
X650Y902D01*
X650Y903D01*
X650D01*
X651Y902D01*
D02*
G37*
D21*
X1900Y940D02*
G03*
X1900Y900I0J-20D01*
G01*
Y860D02*
G03*
X1900Y900I0J20D01*
G01*
Y660D02*
G03*
X1900Y700I0J20D01*
G01*
Y740D02*
G03*
X1900Y700I0J-20D01*
G01*
X-115Y675D02*
Y708D01*
Y692D01*
X-165D01*
Y725D02*
X-115D01*
Y750D01*
X-123Y758D01*
X-140D01*
X-148Y750D01*
Y725D01*
X-165Y775D02*
Y792D01*
Y783D01*
X-115D01*
X-123Y775D01*
X-45Y675D02*
Y708D01*
Y692D01*
X-95D01*
Y725D02*
X-45D01*
Y750D01*
X-53Y758D01*
X-70D01*
X-78Y750D01*
Y725D01*
X-95Y808D02*
Y775D01*
X-62Y808D01*
X-53D01*
X-45Y800D01*
Y783D01*
X-53Y775D01*
X1635Y860D02*
X1585D01*
Y835D01*
X1593Y827D01*
X1610D01*
X1618Y835D01*
Y860D01*
X1585Y810D02*
X1635D01*
X1618Y793D01*
X1635Y777D01*
X1585D01*
X1635Y760D02*
X1585D01*
Y735D01*
X1593Y727D01*
X1610D01*
X1618Y735D01*
Y760D01*
Y743D02*
X1635Y727D01*
X1720Y935D02*
Y918D01*
Y927D01*
X1670D01*
X1678Y935D01*
X1720Y860D02*
Y893D01*
X1687Y860D01*
X1678D01*
X1670Y868D01*
Y885D01*
X1678Y893D01*
X1695Y843D02*
Y810D01*
X1720Y760D02*
Y793D01*
X1687Y760D01*
X1678D01*
X1670Y768D01*
Y785D01*
X1678Y793D01*
X1720Y718D02*
X1670D01*
X1695Y743D01*
Y710D01*
X1670Y693D02*
X1703D01*
X1720Y677D01*
X1703Y660D01*
X1670D01*
X1875Y100D02*
X1858D01*
X1867D01*
Y50D01*
X1875D01*
X1858D01*
X1833D02*
Y83D01*
X1808D01*
X1800Y75D01*
Y50D01*
X1783D02*
X1767D01*
X1775D01*
Y100D01*
X1783Y92D01*
X1875Y-50D02*
X1858D01*
X1867D01*
Y-100D01*
X1875D01*
X1858D01*
X1833D02*
Y-67D01*
X1808D01*
X1800Y-75D01*
Y-100D01*
X1750D02*
X1783D01*
X1750Y-67D01*
Y-58D01*
X1758Y-50D01*
X1775D01*
X1783Y-58D01*
X-1770Y100D02*
X-1753D01*
X-1745Y92D01*
Y58D01*
X-1753Y50D01*
X-1770D01*
X-1778Y58D01*
Y92D01*
X-1770Y100D01*
X-1795Y83D02*
Y58D01*
X-1803Y50D01*
X-1828D01*
Y83D01*
X-1853Y92D02*
Y83D01*
X-1845D01*
X-1862D01*
X-1853D01*
Y58D01*
X-1862Y50D01*
X-1887D02*
X-1903D01*
X-1895D01*
Y100D01*
X-1887Y92D01*
X-1770Y-45D02*
X-1753D01*
X-1745Y-53D01*
Y-87D01*
X-1753Y-95D01*
X-1770D01*
X-1778Y-87D01*
Y-53D01*
X-1770Y-45D01*
X-1795Y-62D02*
Y-87D01*
X-1803Y-95D01*
X-1828D01*
Y-62D01*
X-1853Y-53D02*
Y-62D01*
X-1845D01*
X-1862D01*
X-1853D01*
Y-87D01*
X-1862Y-95D01*
X-1920D02*
X-1887D01*
X-1920Y-62D01*
Y-53D01*
X-1912Y-45D01*
X-1895D01*
X-1887Y-53D01*
X-65Y1185D02*
Y1152D01*
X-82Y1135D01*
X-98Y1152D01*
Y1185D01*
X-115Y1160D02*
X-148D01*
X-132Y1177D02*
Y1143D01*
X30Y1310D02*
X13D01*
X22D01*
Y1260D01*
X30D01*
X13D01*
X-12D02*
Y1293D01*
X-37D01*
X-45Y1285D01*
Y1260D01*
X137Y1177D02*
X145Y1185D01*
X162D01*
X170Y1177D01*
Y1143D01*
X162Y1135D01*
X145D01*
X137Y1143D01*
Y1160D01*
X153D01*
X120Y1135D02*
Y1185D01*
X87Y1135D01*
Y1185D01*
X70D02*
Y1135D01*
X45D01*
X37Y1143D01*
Y1177D01*
X45Y1185D01*
X70D01*
X-1417Y940D02*
Y929D01*
X-1428Y918D01*
X-1438D01*
X-1444Y924D01*
Y934D01*
X-1433Y945D01*
X-1433Y956D01*
X-1438Y961D01*
X-1449D01*
X-1460Y950D01*
Y940D01*
X-1385Y972D02*
Y961D01*
X-1396Y950D01*
X-1407D01*
X-1428Y972D01*
Y982D01*
X-1417Y993D01*
X-1407D01*
X-1370Y977D02*
X-1401Y1009D01*
X-1380Y1030D01*
X-1318Y943D02*
X-1297Y964D01*
X-1308Y954D01*
X-1339Y986D01*
X-1286Y975D02*
X-1297Y1028D01*
X-1265Y996D02*
X-1318Y1007D01*
X-1028Y1237D02*
Y1247D01*
X-1039Y1258D01*
X-1050D01*
X-1055Y1252D01*
Y1242D01*
X-1050Y1237D01*
X-1055Y1242D01*
X-1066Y1242D01*
X-1071Y1237D01*
Y1226D01*
X-1060Y1215D01*
X-1050D01*
X-1087Y1242D02*
X-1082Y1247D01*
X-1087Y1252D01*
X-1092Y1247D01*
X-1087Y1242D01*
Y1295D02*
Y1305D01*
X-1097Y1316D01*
X-1108D01*
X-1113Y1311D01*
Y1300D01*
X-1108Y1295D01*
X-1113Y1300D01*
X-1124Y1300D01*
X-1129Y1295D01*
Y1284D01*
X-1119Y1274D01*
X-1108D01*
X-1118Y1242D02*
X-1139Y1221D01*
X-1161D01*
X-1161Y1242D01*
X-1139Y1263D01*
X-1182Y1242D02*
X-1192Y1252D01*
X-1187Y1247D01*
X-1166Y1268D01*
X-1161Y1263D01*
X-1208Y1268D02*
X-1187Y1290D01*
X-1203Y1305D01*
X-1214D01*
X-1230Y1290D01*
X-1260Y1215D02*
X-1228Y1247D01*
X-1244Y1263D01*
X-1255D01*
X-1265Y1252D01*
X-1265Y1242D01*
X-1249Y1226D01*
X-1260Y1236D02*
X-1281Y1236D01*
X-1260Y1279D02*
X-1313Y1268D01*
X-1281Y1300D02*
X-1292Y1247D01*
X-1340Y1248D02*
X-1329D01*
X-1318Y1237D01*
Y1227D01*
X-1324Y1221D01*
X-1334D01*
X-1345Y1232D01*
X-1356Y1232D01*
X-1361Y1227D01*
Y1216D01*
X-1350Y1205D01*
X-1340D01*
X-1345Y1264D02*
X-1377Y1232D01*
X-1393Y1248D01*
Y1258D01*
X-1372Y1280D01*
X-1361D01*
X-1345Y1264D01*
X-1409D02*
X-1387Y1285D01*
Y1306D01*
X-1409Y1306D01*
X-1430Y1285D01*
X-1414Y1301D01*
X-1393Y1280D01*
X-1440Y1248D02*
X-1429D01*
X-1418Y1237D01*
Y1227D01*
X-1440Y1205D01*
X-1450D01*
X-1461Y1216D01*
Y1227D01*
X-1450Y1237D01*
X-1440Y1227D01*
X-1477Y1232D02*
X-1445Y1264D01*
X-1498Y1253D01*
X-1466Y1285D01*
X-1477Y1295D02*
X-1509Y1264D01*
X-1525Y1280D01*
Y1290D01*
X-1503Y1311D01*
X-1493D01*
X-1477Y1295D01*
X-1133Y928D02*
X-1123D01*
X-1112Y939D01*
Y950D01*
X-1118Y955D01*
X-1128D01*
X-1133Y950D01*
X-1128Y955D01*
X-1128Y966D01*
X-1133Y971D01*
X-1144D01*
X-1155Y960D01*
Y950D01*
X-1128Y987D02*
X-1123Y982D01*
X-1118Y987D01*
X-1123Y992D01*
X-1128Y987D01*
X-1075D02*
X-1065D01*
X-1054Y997D01*
Y1008D01*
X-1059Y1013D01*
X-1070D01*
X-1075Y1008D01*
X-1070Y1013D01*
X-1070Y1024D01*
X-1075Y1029D01*
X-1086D01*
X-1096Y1019D01*
Y1008D01*
X-1512Y950D02*
Y939D01*
X-1523Y928D01*
X-1533D01*
X-1555Y950D01*
Y960D01*
X-1544Y971D01*
X-1533D01*
X-1523Y960D01*
X-1533Y950D01*
X-1528Y987D02*
X-1496Y955D01*
X-1507Y1008D01*
X-1475Y976D01*
X-1465Y987D02*
X-1496Y1019D01*
X-1480Y1035D01*
X-1470D01*
X-1449Y1013D01*
Y1003D01*
X-1465Y987D01*
M02*
