M48
;Layer_Color=9474304
;FILE_FORMAT=2:3
INCH,LZ
;TYPE=PLATED
T1F00S00C0.020
T2F00S00C0.031
T3F00S00C0.039
T4F00S00C0.059
T5F00S00C0.118
%
T01
X0028Y0045
X00325Y00575
X00425Y0057
Y01075
X003Y0115
X00275Y01275
X0084Y0045
X014
X-0028
X-00275Y00575
X-00325
X-00225
X-00125Y00695
X-00075
X-00025Y00715
X-0037Y0099
X-0035Y01095
X-0043Y0108
X-0036Y01195
X-006Y0122
X-008Y0133
Y0108
X-00725Y0095
X-008Y00775
X-01Y00925
X-0105
Y0101
X-012Y0055
X-0084Y0045
T02
X-014Y-0015
X-015
X-016
Y-0025
Y-0035
Y-0045
X-012
Y-0035
Y-0025
Y-0015
X-013
X-0104
Y-0025
Y-0035
Y-0045
X-0094Y-0015
X-0084
X-0074
X-0064
Y-0025
Y-0035
Y-0045
X-0048
Y-0035
Y-0025
Y-0015
X-0038
X-0028
X-0018
X-0008
Y-0025
Y-0035
Y-0045
X0008
Y-0035
Y-0025
Y-0015
X0018
X0028
X0038
X0048
Y-0025
Y-0035
Y-0045
X0064
Y-0035
Y-0025
Y-0015
X0074
X0084
X0094
X0104
Y-0025
Y-0035
Y-0045
X012
Y-0035
Y-0025
Y-0015
X013
X014
X015
X016
Y-0025
Y-0035
Y-0045
Y0015
X015
X014
X013
X012
Y0025
Y0035
Y0045
X0104
Y0035
Y0025
Y0015
X0094
X0084
X0074
X0064
Y0025
Y0035
Y0045
X0048
Y0035
Y0025
Y0015
X0038
X0028
X0018
X0105Y00725
Y00875
X01035Y0105
X00975Y0111
X00915Y0105
X0115Y01075
Y00975
X01325Y0095
X01525
X01425Y01075
Y01275
X01325Y0065
X01525
X016Y0045
Y0035
Y0025
X007Y0115
Y0125
X0008Y0045
Y0035
Y0025
Y0015
X-0008
Y0025
Y0035
Y0045
X-0048
Y0035
Y0025
Y0015
X-0038
X-0028
X-0018
X-0064
Y0025
Y0035
Y0045
X-0104
Y0035
Y0025
Y0015
X-0094
X-0084
X-0074
X-012
Y0025
Y0035
Y0045
Y00625
X-013
Y00925
X-012
X-013Y0015
X-014
X-015
X-016
Y0025
Y0035
Y0045
Y00625
X-015
X-014
Y00925
X-015
X-016
X-0175Y00975
X-0185
Y00575
X-0175
T03
X-01835Y0
Y-001
X018
Y0
Y001
Y0045
X01125Y0125
X01025
X00925
X001Y01275
X0
X-001
X-0005Y0114
X-0015
X-0025
X0005
X0015
X-01075Y01125
X-01175
Y01225
X-01275
Y01125
X-01375
Y01225
X-01075
X-01475
Y01125
X-01835Y001
T04
X018Y0075
Y0095
T05
X-01811Y-00383
X01811
Y01231
X-01811
M30
