%FSLAX23Y23*%
%MOIN*%
G70*
G01*
G75*
G04 Layer_Color=16711935*
%ADD10R,0.050X0.035*%
%ADD11R,0.054X0.050*%
%ADD12R,0.050X0.054*%
%ADD13C,0.055*%
%ADD14R,0.025X0.070*%
%ADD15R,0.025X0.075*%
%ADD16C,0.015*%
%ADD17C,0.025*%
%ADD18C,0.030*%
%ADD19C,0.040*%
%ADD20C,0.010*%
%ADD21C,0.020*%
%ADD22C,0.050*%
%ADD23C,0.065*%
%ADD24C,0.063*%
%ADD25R,0.063X0.063*%
%ADD26C,0.035*%
%ADD27P,0.070X8X22.5*%
%ADD28R,0.059X0.059*%
%ADD29C,0.059*%
%ADD30C,0.080*%
%ADD31C,0.059*%
%ADD32R,0.065X0.065*%
%ADD33C,0.217*%
%ADD34C,0.098*%
%ADD35R,0.098X0.098*%
%ADD36R,0.050X0.050*%
%ADD37C,0.058*%
%ADD38C,0.058*%
%ADD39C,0.040*%
%ADD40C,0.060*%
%ADD41C,0.014*%
%ADD42C,0.008*%
%ADD43C,0.008*%
%ADD44C,0.010*%
%ADD45C,0.010*%
%ADD46R,0.400X0.050*%
%ADD47R,0.058X0.043*%
%ADD48R,0.062X0.058*%
%ADD49R,0.058X0.062*%
%ADD50C,0.063*%
%ADD51R,0.033X0.078*%
%ADD52R,0.033X0.083*%
%ADD53C,0.073*%
%ADD54C,0.071*%
%ADD55R,0.071X0.071*%
%ADD56C,0.043*%
%ADD57P,0.079X8X22.5*%
%ADD58R,0.067X0.067*%
%ADD59C,0.067*%
%ADD60C,0.088*%
%ADD61C,0.067*%
%ADD62R,0.073X0.073*%
%ADD63C,0.225*%
%ADD64C,0.106*%
%ADD65R,0.106X0.106*%
%ADD66R,0.058X0.058*%
%ADD67C,0.066*%
%ADD68C,0.066*%
D53*
X-640Y-250D02*
D03*
X-1040D02*
D03*
X-1600Y-450D02*
D03*
X-1200D02*
D03*
X1500Y150D02*
D03*
X1600Y450D02*
D03*
X1500Y-150D02*
D03*
X-1300Y625D02*
D03*
Y925D02*
D03*
X-1200Y250D02*
D03*
X-640D02*
D03*
X-80D02*
D03*
X480D02*
D03*
X1040D02*
D03*
X1600D02*
D03*
X-1750Y975D02*
D03*
X-1200Y-250D02*
D03*
X-80D02*
D03*
X480D02*
D03*
X1040D02*
D03*
X1600D02*
D03*
X-1850Y975D02*
D03*
X-1400Y625D02*
D03*
Y925D02*
D03*
X-1500Y150D02*
D03*
X-1400D02*
D03*
Y-150D02*
D03*
X-1500D02*
D03*
X-940Y150D02*
D03*
X-840D02*
D03*
Y-150D02*
D03*
X-940D02*
D03*
X-380Y150D02*
D03*
X-280D02*
D03*
Y-150D02*
D03*
X-380D02*
D03*
X180Y150D02*
D03*
X280D02*
D03*
Y-150D02*
D03*
X180D02*
D03*
X1300Y150D02*
D03*
X1400D02*
D03*
Y-150D02*
D03*
X1300D02*
D03*
X-50Y1140D02*
D03*
X-150D02*
D03*
X50D02*
D03*
X150D02*
D03*
X1150Y1075D02*
D03*
Y975D02*
D03*
X-1750Y575D02*
D03*
X-1850D02*
D03*
X-1200Y625D02*
D03*
Y925D02*
D03*
X-1500D02*
D03*
X-1600D02*
D03*
Y625D02*
D03*
X-1500D02*
D03*
X-1200Y150D02*
D03*
Y-150D02*
D03*
X-1600Y150D02*
D03*
X-1300D02*
D03*
Y-150D02*
D03*
X-1600D02*
D03*
X480Y150D02*
D03*
Y-150D02*
D03*
X80D02*
D03*
X380D02*
D03*
Y150D02*
D03*
X80D02*
D03*
X1200Y-150D02*
D03*
X1600D02*
D03*
Y150D02*
D03*
X1200D02*
D03*
X-1600Y-250D02*
D03*
X-1040Y-450D02*
D03*
X-640D02*
D03*
X-480D02*
D03*
X-80D02*
D03*
X-480Y-250D02*
D03*
X80Y-450D02*
D03*
X480D02*
D03*
X80Y-250D02*
D03*
X640D02*
D03*
X1200D02*
D03*
Y250D02*
D03*
Y450D02*
D03*
X640Y250D02*
D03*
Y450D02*
D03*
X1040D02*
D03*
X80Y250D02*
D03*
Y450D02*
D03*
X480D02*
D03*
X-480Y250D02*
D03*
Y450D02*
D03*
X-80D02*
D03*
X-1040D02*
D03*
X-640D02*
D03*
X-1040Y250D02*
D03*
X-640Y150D02*
D03*
Y-150D02*
D03*
X-1040D02*
D03*
X-740D02*
D03*
Y150D02*
D03*
X-1040D02*
D03*
X-1600Y450D02*
D03*
X-1200D02*
D03*
X-1600Y250D02*
D03*
X-1175Y1225D02*
D03*
X-1275D02*
D03*
X-1175Y1125D02*
D03*
X-1075D02*
D03*
X-1275D02*
D03*
X-1375Y1225D02*
D03*
Y1125D02*
D03*
X-1475Y1225D02*
D03*
Y1125D02*
D03*
X0Y1275D02*
D03*
X-100D02*
D03*
X-480Y-150D02*
D03*
X-180D02*
D03*
Y150D02*
D03*
X-480D02*
D03*
X-80Y-150D02*
D03*
Y150D02*
D03*
X640Y-150D02*
D03*
X940D02*
D03*
Y150D02*
D03*
X640D02*
D03*
X1040Y-150D02*
D03*
Y150D02*
D03*
X740Y-150D02*
D03*
X840D02*
D03*
Y150D02*
D03*
X740D02*
D03*
X1040Y-450D02*
D03*
X640D02*
D03*
X1200D02*
D03*
X1600D02*
D03*
X1800Y450D02*
D03*
X1200Y-350D02*
D03*
X1600D02*
D03*
X640D02*
D03*
X1040D02*
D03*
X80D02*
D03*
X480D02*
D03*
X-480D02*
D03*
X-80D02*
D03*
X-1040D02*
D03*
X-640D02*
D03*
X-1600D02*
D03*
X-1200D02*
D03*
X-1600Y350D02*
D03*
X-1200D02*
D03*
X-1040D02*
D03*
X-640D02*
D03*
X-480D02*
D03*
X-80D02*
D03*
X80D02*
D03*
X480D02*
D03*
X640D02*
D03*
X1040D02*
D03*
X1200D02*
D03*
X1600D02*
D03*
D54*
X-1835Y100D02*
D03*
Y0D02*
D03*
X1800Y100D02*
D03*
Y0D02*
D03*
D55*
X-1835Y-100D02*
D03*
X1800D02*
D03*
D56*
X-125Y695D02*
D03*
X-75D02*
D03*
D57*
X-250Y1140D02*
D03*
D58*
X1050Y725D02*
D03*
X700Y1250D02*
D03*
X1425Y1075D02*
D03*
D59*
X1050Y875D02*
D03*
X700Y1150D02*
D03*
X1425Y1275D02*
D03*
D60*
X1125Y1250D02*
D03*
X1025D02*
D03*
X925D02*
D03*
D61*
X1325Y650D02*
D03*
X1525D02*
D03*
Y950D02*
D03*
X1325D02*
D03*
D62*
X-1075Y1225D02*
D03*
X100Y1275D02*
D03*
D63*
X1811Y-383D02*
D03*
Y1231D02*
D03*
X-1811D02*
D03*
Y-383D02*
D03*
D64*
X1800Y750D02*
D03*
D65*
Y950D02*
D03*
D66*
X1035Y1050D02*
D03*
D67*
X975Y1110D02*
D03*
D68*
X915Y1050D02*
D03*
M02*
