%FSLAX23Y23*%
%MOIN*%
G70*
G01*
G75*
G04 Layer_Physical_Order=1*
G04 Layer_Color=255*
%ADD10R,0.050X0.035*%
%ADD11R,0.054X0.050*%
%ADD12R,0.050X0.054*%
%ADD13C,0.055*%
%ADD14R,0.025X0.070*%
%ADD15R,0.025X0.075*%
%ADD16C,0.015*%
%ADD17C,0.025*%
%ADD18C,0.030*%
%ADD19C,0.040*%
%ADD20C,0.010*%
%ADD21C,0.020*%
%ADD22C,0.050*%
%ADD23C,0.065*%
%ADD24C,0.063*%
%ADD25R,0.063X0.063*%
%ADD26C,0.035*%
%ADD27P,0.070X8X22.5*%
%ADD28R,0.059X0.059*%
%ADD29C,0.059*%
%ADD30C,0.080*%
%ADD31C,0.059*%
%ADD32R,0.065X0.065*%
%ADD33C,0.217*%
%ADD34C,0.098*%
%ADD35R,0.098X0.098*%
%ADD36R,0.050X0.050*%
%ADD37C,0.058*%
%ADD38C,0.058*%
%ADD39C,0.040*%
D10*
X-690Y1315D02*
D03*
Y1235D02*
D03*
X-605Y1275D02*
D03*
D11*
X-800Y1170D02*
D03*
Y1250D02*
D03*
X-210Y1315D02*
D03*
Y1235D02*
D03*
X-310D02*
D03*
Y1315D02*
D03*
X-410Y1235D02*
D03*
Y1315D02*
D03*
X-510D02*
D03*
Y1235D02*
D03*
X525D02*
D03*
Y1315D02*
D03*
X425D02*
D03*
Y1235D02*
D03*
X325D02*
D03*
Y1315D02*
D03*
X225Y1235D02*
D03*
Y1315D02*
D03*
X-950Y735D02*
D03*
Y815D02*
D03*
X-1050Y735D02*
D03*
Y815D02*
D03*
D12*
X-690Y1135D02*
D03*
X-610D02*
D03*
X-510D02*
D03*
X-430D02*
D03*
D13*
X50Y550D02*
D03*
D14*
X425Y635D02*
D03*
Y1015D02*
D03*
X825D02*
D03*
X775D02*
D03*
Y635D02*
D03*
X825D02*
D03*
X525Y1015D02*
D03*
X475D02*
D03*
Y635D02*
D03*
X525D02*
D03*
X725Y1015D02*
D03*
X675D02*
D03*
X625D02*
D03*
X575D02*
D03*
Y635D02*
D03*
X625D02*
D03*
X675D02*
D03*
X725D02*
D03*
X-425Y1015D02*
D03*
X-475D02*
D03*
X-525D02*
D03*
X-575D02*
D03*
X-625D02*
D03*
X-675D02*
D03*
X-725D02*
D03*
X-775D02*
D03*
X-825D02*
D03*
Y635D02*
D03*
X-775D02*
D03*
X-725D02*
D03*
X-425D02*
D03*
X-475D02*
D03*
X-525D02*
D03*
X-575D02*
D03*
X-625D02*
D03*
X-675D02*
D03*
D15*
X-325D02*
D03*
X-275D02*
D03*
X-225D02*
D03*
X25D02*
D03*
X75D02*
D03*
X125D02*
D03*
X175D02*
D03*
X225D02*
D03*
X275D02*
D03*
X325D02*
D03*
Y1015D02*
D03*
X275D02*
D03*
X225D02*
D03*
X175D02*
D03*
X125D02*
D03*
X75D02*
D03*
X25D02*
D03*
X-25D02*
D03*
X-75D02*
D03*
X-125D02*
D03*
X-175D02*
D03*
X-225D02*
D03*
X-275D02*
D03*
X-325D02*
D03*
X-175Y635D02*
D03*
X-125D02*
D03*
X-75D02*
D03*
X-25D02*
D03*
D16*
X-1120Y1280D02*
X-990D01*
X-880Y1170D01*
X-800D01*
X-760Y1250D02*
X-735Y1275D01*
X-800Y1250D02*
X-760D01*
X-1175Y1225D02*
X-1120Y1280D01*
X-60Y1215D02*
X0Y1275D01*
X-145Y1215D02*
X-60D01*
X-165Y1235D02*
X-145Y1215D01*
X-210Y1235D02*
X-165D01*
X-370Y990D02*
Y1045D01*
X-385Y1060D02*
Y1170D01*
X-610Y1135D02*
X-510D01*
X-385Y1140D02*
X-250D01*
X-560Y1135D02*
Y1170D01*
X-385Y1060D02*
X-370Y1045D01*
X-510Y1235D02*
X-310D01*
X-360Y1195D02*
Y1235D01*
X-325Y1015D02*
Y1065D01*
X-350Y1090D02*
X-325Y1065D01*
X-400Y1185D02*
X-385Y1170D01*
X475Y1015D02*
Y1090D01*
X275Y1015D02*
Y1090D01*
X455Y1110D02*
X475Y1090D01*
X295Y1110D02*
X455D01*
X275Y1090D02*
X295Y1110D01*
X-950Y815D02*
Y860D01*
X-1140Y1000D02*
X-1115Y975D01*
X-995D01*
X-990Y1010D02*
X-820Y840D01*
X-1110Y1025D02*
X-1095Y1010D01*
X-1050Y815D02*
Y925D01*
X-735Y1275D02*
X-605D01*
X-975Y1075D02*
X-800Y900D01*
X-675D01*
X-580Y805D01*
X-990Y1050D02*
X-810Y870D01*
X-690D01*
X-600Y780D01*
X-820Y840D02*
X-705D01*
X-620Y755D01*
X-830Y810D02*
X-720D01*
X-640Y730D01*
X-800Y775D02*
X-750D01*
X-680Y705D01*
X-560Y1170D02*
X-545Y1185D01*
X-400D01*
X-1200Y1075D02*
X-975D01*
X-1275Y1225D02*
X-1225Y1175D01*
Y1100D02*
Y1175D01*
Y1100D02*
X-1200Y1075D01*
X-1375Y1225D02*
X-1325Y1175D01*
X100Y1190D02*
X150Y1140D01*
X-180Y1190D02*
X100D01*
X-200Y1170D02*
X-180Y1190D01*
X-200Y1095D02*
Y1170D01*
X-210Y1085D02*
X-200Y1095D01*
X-260Y1085D02*
X-210D01*
X-275Y1070D02*
X-260Y1085D01*
X-275Y1015D02*
Y1070D01*
X275Y635D02*
Y690D01*
X285Y700D01*
X225D02*
X255Y730D01*
X225Y635D02*
Y700D01*
X175Y645D02*
Y710D01*
X225Y760D01*
X125Y720D02*
X195Y790D01*
X125Y650D02*
Y720D01*
X75Y635D02*
Y730D01*
X165Y820D01*
X-225Y970D02*
Y1015D01*
X-410Y955D02*
X-240D01*
X-425Y970D02*
X-410Y955D01*
X-240D02*
X-225Y970D01*
X-425D02*
Y1015D01*
X-475Y960D02*
Y1015D01*
X-445Y930D02*
X-205D01*
X-475Y960D02*
X-445Y930D01*
X-205D02*
X-175Y960D01*
Y1015D01*
X-525Y950D02*
X-480Y905D01*
X-170D02*
X-125Y950D01*
X-480Y905D02*
X-170D01*
X-525Y950D02*
Y1015D01*
X-125Y950D02*
Y1015D01*
X-135Y880D02*
X-75Y940D01*
Y1015D01*
X-100Y855D02*
X-25Y930D01*
Y1015D01*
X-65Y830D02*
X25Y920D01*
Y1015D01*
X95Y940D02*
X155D01*
X175Y960D01*
Y1015D01*
X-40Y805D02*
X95Y940D01*
X110Y915D02*
X180D01*
X225Y960D01*
X-25Y780D02*
X110Y915D01*
X225Y960D02*
Y1015D01*
X125Y890D02*
X255D01*
X325Y960D02*
Y1015D01*
X255Y890D02*
X325Y960D01*
X-10Y755D02*
X125Y890D01*
X-310Y1315D02*
X-210D01*
X525Y950D02*
Y1015D01*
X575Y950D02*
Y1015D01*
X625Y950D02*
Y1015D01*
X675Y950D02*
Y1015D01*
X725Y950D02*
Y1015D01*
X165Y820D02*
X345D01*
X195Y790D02*
X355D01*
X225Y760D02*
X365D01*
X255Y730D02*
X375D01*
X285Y700D02*
X385D01*
X435Y750D01*
X525D01*
X725Y950D01*
X375Y730D02*
X425Y780D01*
X505D01*
X675Y950D01*
X365Y760D02*
X415Y810D01*
X485D01*
X625Y950D01*
X355Y790D02*
X405Y840D01*
X465D01*
X575Y950D01*
X345Y820D02*
X395Y870D01*
X445D01*
X525Y950D01*
X325Y575D02*
Y635D01*
X-325Y575D02*
Y635D01*
X-275Y575D02*
Y635D01*
X-225Y575D02*
Y635D01*
X-40Y730D02*
X-25Y715D01*
Y585D02*
X10Y550D01*
X50D01*
X-25Y585D02*
Y635D01*
X-125D02*
Y695D01*
X-75Y635D02*
Y695D01*
X-175Y635D02*
Y690D01*
X-190Y705D02*
X-175Y690D01*
X-575Y950D02*
X-505Y880D01*
X-575Y950D02*
Y1015D01*
X-505Y880D02*
X-135D01*
X-625Y950D02*
X-530Y855D01*
X-625Y950D02*
Y1015D01*
X-530Y855D02*
X-100D01*
X-675Y950D02*
X-555Y830D01*
X-675Y950D02*
Y1015D01*
X-555Y830D02*
X-65D01*
X-680Y705D02*
X-190D01*
X-580Y805D02*
X-40D01*
X-600Y780D02*
X-25D01*
X-620Y755D02*
X-10D01*
X-640Y730D02*
X-40D01*
X-725Y950D02*
Y1015D01*
X-1275Y1085D02*
X-1240Y1050D01*
X-1275Y1085D02*
Y1125D01*
X-1240Y1050D02*
X-990D01*
X-1325Y1090D02*
X-1260Y1025D01*
X-1325Y1090D02*
Y1175D01*
X-1095Y1010D02*
X-990D01*
X-1260Y1025D02*
X-1110D01*
X-1375Y1085D02*
X-1290Y1000D01*
X-1375Y1085D02*
Y1125D01*
X-950Y860D02*
X-915Y895D01*
X-995Y975D02*
X-830Y810D01*
X-1290Y1000D02*
X-1140D01*
D17*
X-975Y1175D02*
X-920Y1120D01*
X-1075Y1125D02*
Y1225D01*
X-745Y1120D02*
X-730Y1135D01*
X-1075Y1175D02*
X-975D01*
X-920Y1120D02*
X-745D01*
X-730Y1135D02*
X-690D01*
X-750Y1315D02*
X-410D01*
X-835Y1330D02*
X-765D01*
X-1475Y1125D02*
Y1275D01*
X225Y1235D02*
X425D01*
Y950D02*
Y1075D01*
X225Y1125D02*
Y1150D01*
X-1475Y1275D02*
X-1435Y1315D01*
X-850D01*
X-835Y1330D01*
X-765D02*
X-750Y1315D01*
X-825Y1055D02*
X-800Y1080D01*
X-825Y1015D02*
Y1055D01*
X-690Y1150D02*
Y1235D01*
Y1190D02*
X-630D01*
X-600Y1220D01*
X-1050Y735D02*
X-950D01*
X-1000D02*
Y925D01*
X-430Y1080D02*
Y1135D01*
X315Y1315D02*
X525D01*
X275Y1275D02*
X315Y1315D01*
X575Y635D02*
Y695D01*
X630Y750D01*
X625Y635D02*
Y685D01*
X650Y710D01*
X675Y575D02*
X735Y515D01*
X725Y600D02*
Y660D01*
X1145Y605D02*
X1235Y515D01*
X630Y750D02*
X885D01*
X25Y635D02*
Y735D01*
X145Y855D01*
X-90Y1080D02*
X60D01*
X75Y1065D01*
X-150Y1140D02*
X-90Y1080D01*
X75Y1015D02*
Y1065D01*
X125D02*
X140Y1080D01*
X125Y1015D02*
Y1065D01*
X140Y1080D02*
X180D01*
X225Y1125D01*
X-100Y1275D02*
X-45Y1330D01*
X155D01*
X170Y1315D01*
X225D01*
X-700Y550D02*
X-675Y575D01*
X330Y855D02*
X425Y950D01*
X145Y855D02*
X330D01*
X985Y650D02*
X1165D01*
X885Y750D02*
X985Y650D01*
X860Y710D02*
X965Y605D01*
X650Y710D02*
X860D01*
X965Y605D02*
X1145D01*
X-755Y715D02*
X-725Y685D01*
Y635D02*
Y685D01*
X-840Y715D02*
X-755D01*
X-640Y150D02*
X-580Y210D01*
Y495D01*
X-575Y500D01*
Y660D01*
X-1200Y150D02*
X-1140Y210D01*
X-80Y150D02*
X-20Y210D01*
X480Y150D02*
X540Y210D01*
X1040Y150D02*
X1100Y210D01*
X1600Y150D02*
X1660Y210D01*
Y480D01*
X1625Y515D02*
X1660Y480D01*
X1235Y515D02*
X1625D01*
X1065D02*
X1100Y480D01*
Y210D02*
Y480D01*
X540Y210D02*
Y480D01*
X475Y545D02*
X540Y480D01*
X475Y545D02*
Y660D01*
X-640Y-150D02*
X-540Y-50D01*
X480Y-150D02*
X580Y-50D01*
X1040Y-150D02*
X1140Y-50D01*
X1600Y-150D02*
X1700Y-50D01*
X-1200Y-150D02*
X-1100Y-50D01*
Y480D01*
X-1070Y510D01*
X-675D01*
X-625Y560D01*
Y660D01*
X-1140Y500D02*
X-1090Y550D01*
X-1140Y210D02*
Y500D01*
X-1090Y550D02*
X-700D01*
X-675Y575D02*
Y660D01*
X-60Y515D02*
X-20Y475D01*
Y210D02*
Y475D01*
X-155Y515D02*
X-60D01*
X-80Y-150D02*
X20Y-50D01*
Y490D01*
X-540Y480D02*
X-525Y495D01*
X-540Y-50D02*
Y480D01*
X-525Y495D02*
Y660D01*
X525Y560D02*
X580Y505D01*
X525Y560D02*
Y660D01*
X580Y-50D02*
Y505D01*
X735Y515D02*
X1065D01*
X675Y575D02*
Y660D01*
X1140Y-50D02*
Y500D01*
X1700Y-50D02*
Y500D01*
X-425Y600D02*
X-360Y535D01*
X-425Y600D02*
Y660D01*
X-475Y575D02*
X-395Y495D01*
X-175D02*
X-155Y515D01*
X-395Y495D02*
X-175D01*
X-475Y575D02*
Y660D01*
X-195Y535D02*
X-175Y555D01*
X-45D02*
X20Y490D01*
X-175Y555D02*
X-45D01*
X-360Y535D02*
X-195D01*
X1085Y555D02*
X1140Y500D01*
X770Y555D02*
X1085D01*
X725Y600D02*
X770Y555D01*
X1645D02*
X1700Y500D01*
X1260Y555D02*
X1645D01*
X1165Y650D02*
X1260Y555D01*
X-825Y600D02*
Y635D01*
X-835Y590D02*
X-825Y600D01*
X-1120Y590D02*
X-835D01*
X-1160Y550D02*
X-1120Y590D01*
X-1200Y550D02*
X-1160D01*
X-1200Y625D02*
X-1150D01*
X-920Y635D02*
X-840Y715D01*
X-1140Y635D02*
X-920D01*
X-1150Y625D02*
X-1140Y635D01*
X425Y570D02*
Y635D01*
D18*
X-800Y1080D02*
X-430D01*
X-1895Y-40D02*
X-1835Y-100D01*
X-1895Y-40D02*
Y455D01*
X-1850Y500D01*
X-1835Y100D02*
Y415D01*
X-1750Y500D01*
X-1850Y700D02*
X-1750Y800D01*
X-1450D01*
X-1400Y850D01*
Y925D01*
X-1850Y500D02*
Y700D01*
X-1400Y625D02*
Y700D01*
X-1450Y750D02*
X-1400Y700D01*
X-1700Y750D02*
X-1450D01*
X-1750Y700D02*
X-1700Y750D01*
X-1750Y500D02*
Y700D01*
D19*
X225Y1150D02*
X300D01*
X225D02*
Y1235D01*
X100Y1275D02*
X140Y1235D01*
X225D01*
X1050Y775D02*
X1245Y970D01*
X1050Y725D02*
Y775D01*
X1125Y1250D02*
X1195D01*
X1245Y1200D01*
Y970D02*
Y1200D01*
X1035Y1050D02*
Y1085D01*
X1125Y1175D02*
Y1250D01*
X1035Y1085D02*
X1125Y1175D01*
X80Y-150D02*
Y150D01*
X-480Y-150D02*
Y150D01*
X-1040Y-150D02*
Y150D01*
X-1600Y-150D02*
Y150D01*
X640Y-150D02*
Y150D01*
X1200Y-150D02*
Y150D01*
X-1040D02*
X-840Y350D01*
Y450D01*
X-280Y350D02*
Y450D01*
X-480Y150D02*
X-280Y350D01*
X280D02*
Y450D01*
X80Y150D02*
X280Y350D01*
X840D02*
Y450D01*
X640Y150D02*
X840Y350D01*
X1400D02*
Y450D01*
X1200Y150D02*
X1400Y350D01*
X-1800Y1025D02*
X-1775Y1050D01*
X-1425D02*
X-1300Y925D01*
X-1775Y1050D02*
X-1425D01*
X-1625Y540D02*
X-1330D01*
X-1725Y440D02*
X-1625Y540D01*
X-1725Y50D02*
Y440D01*
X-1775Y0D02*
X-1725Y50D01*
X-1835Y0D02*
X-1775D01*
X-1800Y975D02*
Y1025D01*
X-1330Y540D02*
X-1300Y570D01*
X-1850Y975D02*
X-1750D01*
X-1300Y570D02*
Y925D01*
X-1600Y150D02*
X-1200Y550D01*
D20*
X-605Y1275D02*
X-350D01*
X-310Y1315D01*
X-150Y1140D02*
Y1150D01*
D21*
X100Y1265D02*
Y1275D01*
X525Y1170D02*
Y1235D01*
Y1170D02*
X605Y1090D01*
X835D01*
X860Y1065D01*
Y1020D02*
Y1065D01*
Y1020D02*
X905Y975D01*
X1150D01*
D22*
X1325Y1175D02*
X1425Y1275D01*
X1325Y950D02*
Y1175D01*
X700Y1150D02*
X790D01*
X815Y1175D01*
X995D01*
X1025Y1205D01*
Y1250D01*
D23*
X-640Y-250D02*
D03*
X-1040D02*
D03*
X-1600Y-450D02*
D03*
X-1200D02*
D03*
X1500Y150D02*
D03*
X1600Y450D02*
D03*
X1500Y-150D02*
D03*
X-1300Y625D02*
D03*
Y925D02*
D03*
X-1200Y250D02*
D03*
X-640D02*
D03*
X-80D02*
D03*
X480D02*
D03*
X1040D02*
D03*
X1600D02*
D03*
X-1750Y975D02*
D03*
X-1200Y-250D02*
D03*
X-80D02*
D03*
X480D02*
D03*
X1040D02*
D03*
X1600D02*
D03*
X-1850Y975D02*
D03*
X-1400Y625D02*
D03*
Y925D02*
D03*
X-1500Y150D02*
D03*
X-1400D02*
D03*
Y-150D02*
D03*
X-1500D02*
D03*
X-940Y150D02*
D03*
X-840D02*
D03*
Y-150D02*
D03*
X-940D02*
D03*
X-380Y150D02*
D03*
X-280D02*
D03*
Y-150D02*
D03*
X-380D02*
D03*
X180Y150D02*
D03*
X280D02*
D03*
Y-150D02*
D03*
X180D02*
D03*
X1300Y150D02*
D03*
X1400D02*
D03*
Y-150D02*
D03*
X1300D02*
D03*
X-50Y1140D02*
D03*
X-150D02*
D03*
X50D02*
D03*
X150D02*
D03*
X1150Y1075D02*
D03*
Y975D02*
D03*
X-1750Y575D02*
D03*
X-1850D02*
D03*
X-1200Y625D02*
D03*
Y925D02*
D03*
X-1500D02*
D03*
X-1600D02*
D03*
Y625D02*
D03*
X-1500D02*
D03*
X-1200Y150D02*
D03*
Y-150D02*
D03*
X-1600Y150D02*
D03*
X-1300D02*
D03*
Y-150D02*
D03*
X-1600D02*
D03*
X480Y150D02*
D03*
Y-150D02*
D03*
X80D02*
D03*
X380D02*
D03*
Y150D02*
D03*
X80D02*
D03*
X1200Y-150D02*
D03*
X1600D02*
D03*
Y150D02*
D03*
X1200D02*
D03*
X-1600Y-250D02*
D03*
X-1040Y-450D02*
D03*
X-640D02*
D03*
X-480D02*
D03*
X-80D02*
D03*
X-480Y-250D02*
D03*
X80Y-450D02*
D03*
X480D02*
D03*
X80Y-250D02*
D03*
X640D02*
D03*
X1200D02*
D03*
Y250D02*
D03*
Y450D02*
D03*
X640Y250D02*
D03*
Y450D02*
D03*
X1040D02*
D03*
X80Y250D02*
D03*
Y450D02*
D03*
X480D02*
D03*
X-480Y250D02*
D03*
Y450D02*
D03*
X-80D02*
D03*
X-1040D02*
D03*
X-640D02*
D03*
X-1040Y250D02*
D03*
X-640Y150D02*
D03*
Y-150D02*
D03*
X-1040D02*
D03*
X-740D02*
D03*
Y150D02*
D03*
X-1040D02*
D03*
X-1600Y450D02*
D03*
X-1200D02*
D03*
X-1600Y250D02*
D03*
X-1175Y1225D02*
D03*
X-1275D02*
D03*
X-1175Y1125D02*
D03*
X-1075D02*
D03*
X-1275D02*
D03*
X-1375Y1225D02*
D03*
Y1125D02*
D03*
X-1475Y1225D02*
D03*
Y1125D02*
D03*
X0Y1275D02*
D03*
X-100D02*
D03*
X-480Y-150D02*
D03*
X-180D02*
D03*
Y150D02*
D03*
X-480D02*
D03*
X-80Y-150D02*
D03*
Y150D02*
D03*
X640Y-150D02*
D03*
X940D02*
D03*
Y150D02*
D03*
X640D02*
D03*
X1040Y-150D02*
D03*
Y150D02*
D03*
X740Y-150D02*
D03*
X840D02*
D03*
Y150D02*
D03*
X740D02*
D03*
X1040Y-450D02*
D03*
X640D02*
D03*
X1200D02*
D03*
X1600D02*
D03*
X1800Y450D02*
D03*
X1200Y-350D02*
D03*
X1600D02*
D03*
X640D02*
D03*
X1040D02*
D03*
X80D02*
D03*
X480D02*
D03*
X-480D02*
D03*
X-80D02*
D03*
X-1040D02*
D03*
X-640D02*
D03*
X-1600D02*
D03*
X-1200D02*
D03*
X-1600Y350D02*
D03*
X-1200D02*
D03*
X-1040D02*
D03*
X-640D02*
D03*
X-480D02*
D03*
X-80D02*
D03*
X80D02*
D03*
X480D02*
D03*
X640D02*
D03*
X1040D02*
D03*
X1200D02*
D03*
X1600D02*
D03*
D24*
X-1835Y100D02*
D03*
Y0D02*
D03*
X1800Y100D02*
D03*
Y0D02*
D03*
D25*
X-1835Y-100D02*
D03*
X1800D02*
D03*
D26*
X-125Y695D02*
D03*
X-75D02*
D03*
X-800Y1080D02*
D03*
Y1330D02*
D03*
X-600Y1220D02*
D03*
X-1000Y925D02*
D03*
X-430Y1080D02*
D03*
X425Y1075D02*
D03*
X-1050Y1010D02*
D03*
Y925D02*
D03*
X275Y1275D02*
D03*
X-725Y950D02*
D03*
X-325Y575D02*
D03*
X-350Y1095D02*
D03*
X-370Y990D02*
D03*
X300Y1150D02*
D03*
X-25Y715D02*
D03*
X325Y575D02*
D03*
X-275D02*
D03*
X-225D02*
D03*
X-800Y775D02*
D03*
X-360Y1195D02*
D03*
D27*
X-250Y1140D02*
D03*
D28*
X1050Y725D02*
D03*
X700Y1250D02*
D03*
X1425Y1075D02*
D03*
D29*
X1050Y875D02*
D03*
X700Y1150D02*
D03*
X1425Y1275D02*
D03*
D30*
X1125Y1250D02*
D03*
X1025D02*
D03*
X925D02*
D03*
D31*
X1325Y650D02*
D03*
X1525D02*
D03*
Y950D02*
D03*
X1325D02*
D03*
D32*
X-1075Y1225D02*
D03*
X100Y1275D02*
D03*
D33*
X1811Y-383D02*
D03*
Y1231D02*
D03*
X-1811D02*
D03*
Y-383D02*
D03*
D34*
X1800Y750D02*
D03*
D35*
Y950D02*
D03*
D36*
X1035Y1050D02*
D03*
D37*
X975Y1110D02*
D03*
D38*
X915Y1050D02*
D03*
D39*
X-840Y450D02*
D03*
X-280D02*
D03*
X280D02*
D03*
X840D02*
D03*
X1400D02*
D03*
X-1200Y550D02*
D03*
X425Y570D02*
D03*
M02*
