M48
;Layer_Color=9474304
;FILE_FORMAT=2:3
INCH,LZ
;TYPE=PLATED
T1F00S00C0.020
T2F00S00C0.031
T3F00S00C0.039
T4F00S00C0.059
T5F00S00C0.118
%
T01
X-02429Y-0045
Y-0067
X-0135Y-0077
X-01295Y-0083
X-00375Y-00465
X00075Y-0039
X00245Y-0046
X0029
X00335
X00775Y-00485
Y-0052
Y-00555
Y-0059
Y-00625
Y-0066
Y-00695
Y-0073
Y-00765
Y-008
Y-00835
Y-0087
Y-00415
Y-00385
Y-00315
Y-00285
Y-00215
Y-00185
Y-00115
Y-00085
Y-00015
Y00015
Y00085
Y00115
Y00185
Y00215
Y00285
Y00315
Y00385
Y00415
Y00485
Y0052
Y00555
Y0059
Y00625
Y0066
Y00695
Y0073
Y00765
Y008
Y00835
Y0087
X0101Y0007
X011
X00355Y00255
X00295
X00245
X0029Y0031
X0005Y00465
X-001
X-0025
X00075Y-00255
X-0055Y002
X-00885Y0024
X-00985Y00425
X-0135Y0045
X-01425
X-0135Y0035
Y-0025
X-02429Y-00219
T02
X-0055Y-0055
X-0065
X-00525Y-0074
X-00465Y-008
X-00525Y-0086
X-009Y-00625
Y-00475
X-012Y-005
Y-006
Y-007
Y-008
X-015
Y-007
Y-006
Y-005
Y-004
X-012
X-002Y0005
X-001
X00125Y-001
X-0025Y0065
Y0085
X-0055
Y0065
X-0085Y0055
Y0075
X-012Y007
Y006
Y005
Y004
Y002
Y001
Y0
Y-001
Y-002
X-015
Y-001
Y0
Y001
Y002
Y004
Y005
Y006
Y007
Y008
X-012
T03
X-02Y-00775
X-021
X-019
X-009Y-008
X-008
X-007
X-002Y-0075
X-001
X0
X001
X002
Y-0065
X001
X0
X-001
X-002
X00675
X007Y-0045
X0085
X00942Y-00539
X01178
X01325Y-0049
Y-0041
Y-0019
Y-0011
Y0011
Y0019
Y0041
Y0049
X01178Y00539
Y00361
Y00239
Y00061
Y-00061
Y-00239
Y-00361
X00942
X0085Y-0035
Y-0025
Y-0015
Y-0005
Y0005
Y0015
Y0025
Y0035
Y0045
X007
Y0035
Y0025
Y0015
Y0005
Y-0005
Y-0015
Y-0025
Y-0035
X00942Y-00239
Y-00061
Y00061
Y00239
Y00361
Y00539
X-00375Y0025
Y0015
Y0005
Y-0005
Y-0015
Y-0025
X-01015Y-001
Y0
Y001
X-019Y00825
X-02
X-021
T04
X0Y00775
X002
X-01838Y00564
Y-00014
X-0209
X-02342
Y00564
X-0209
T05
X-02362Y-00807
X00536Y-00808
X0126Y-00807
Y00807
X00536Y00806
X-02362Y00807
M30
