%FSLAX23Y23*%
%MOIN*%
G70*
G01*
G75*
G04 Layer_Color=8388736*
%ADD10R,0.079X0.114*%
%ADD11R,0.025X0.075*%
%ADD12R,0.050X0.054*%
%ADD13R,0.054X0.050*%
%ADD14R,0.070X0.025*%
%ADD15C,0.020*%
%ADD16C,0.015*%
%ADD17C,0.025*%
%ADD18C,0.050*%
%ADD19C,0.030*%
%ADD20C,0.058*%
%ADD21C,0.058*%
%ADD22R,0.050X0.050*%
%ADD23C,0.065*%
%ADD24C,0.063*%
%ADD25P,0.068X8X112.5*%
%ADD26R,0.063X0.063*%
%ADD27R,0.063X0.063*%
%ADD28C,0.217*%
%ADD29C,0.217*%
%ADD30R,0.065X0.065*%
%ADD31C,0.118*%
%ADD32C,0.080*%
%ADD33R,0.059X0.059*%
%ADD34C,0.059*%
%ADD35R,0.059X0.059*%
%ADD36R,0.065X0.065*%
%ADD37C,0.059*%
%ADD38C,0.098*%
%ADD39R,0.098X0.098*%
%ADD40C,0.040*%
%ADD41C,0.035*%
%ADD42C,0.020*%
%ADD43C,0.010*%
%ADD44C,0.014*%
%ADD45C,0.010*%
%ADD46C,0.010*%
%ADD47C,0.008*%
%ADD48R,0.400X0.050*%
%ADD49R,0.087X0.122*%
%ADD50R,0.033X0.083*%
%ADD51R,0.058X0.062*%
%ADD52R,0.062X0.058*%
%ADD53R,0.078X0.033*%
%ADD54C,0.066*%
%ADD55C,0.066*%
%ADD56R,0.058X0.058*%
%ADD57C,0.073*%
%ADD58C,0.071*%
%ADD59P,0.077X8X112.5*%
%ADD60R,0.071X0.071*%
%ADD61R,0.071X0.071*%
%ADD62C,0.225*%
%ADD63C,0.225*%
%ADD64R,0.073X0.073*%
%ADD65C,0.126*%
%ADD66C,0.088*%
%ADD67R,0.067X0.067*%
%ADD68C,0.067*%
%ADD69R,0.067X0.067*%
%ADD70R,0.073X0.073*%
%ADD71C,0.067*%
%ADD72C,0.106*%
%ADD73R,0.106X0.106*%
D49*
X-2165Y-580D02*
D03*
Y-320D02*
D03*
X-2303D02*
D03*
Y-580D02*
D03*
X-2429Y-320D02*
D03*
Y-580D02*
D03*
D50*
X25Y-190D02*
D03*
X-25D02*
D03*
X-75D02*
D03*
X-125D02*
D03*
X-175D02*
D03*
X-225D02*
D03*
X-75Y190D02*
D03*
X-25D02*
D03*
X25D02*
D03*
X75D02*
D03*
X175Y-190D02*
D03*
X225D02*
D03*
X275D02*
D03*
X325D02*
D03*
X-275D02*
D03*
X75D02*
D03*
X375D02*
D03*
Y190D02*
D03*
X325D02*
D03*
X275D02*
D03*
X225D02*
D03*
X175D02*
D03*
X125D02*
D03*
X-225D02*
D03*
X-275D02*
D03*
X125Y-190D02*
D03*
X-125Y190D02*
D03*
X-175D02*
D03*
D51*
X-440Y400D02*
D03*
X-360D02*
D03*
Y500D02*
D03*
X-440D02*
D03*
X590Y-350D02*
D03*
X510D02*
D03*
Y-250D02*
D03*
X590D02*
D03*
X510Y-150D02*
D03*
X590D02*
D03*
X510Y-50D02*
D03*
X590D02*
D03*
Y50D02*
D03*
X510D02*
D03*
Y350D02*
D03*
X590D02*
D03*
X510Y250D02*
D03*
X590D02*
D03*
X510Y150D02*
D03*
X590D02*
D03*
X240Y500D02*
D03*
X160D02*
D03*
X240Y400D02*
D03*
X160D02*
D03*
Y310D02*
D03*
X240D02*
D03*
D52*
X-250Y415D02*
D03*
Y335D02*
D03*
X-150Y415D02*
D03*
Y335D02*
D03*
X-50D02*
D03*
Y415D02*
D03*
X50Y335D02*
D03*
Y415D02*
D03*
X350Y320D02*
D03*
Y400D02*
D03*
X125Y-310D02*
D03*
Y-390D02*
D03*
X225Y-310D02*
D03*
Y-390D02*
D03*
X325Y-310D02*
D03*
Y-390D02*
D03*
D53*
X-485Y-200D02*
D03*
Y-150D02*
D03*
Y-100D02*
D03*
Y-50D02*
D03*
Y0D02*
D03*
Y50D02*
D03*
Y100D02*
D03*
Y150D02*
D03*
Y200D02*
D03*
X-865D02*
D03*
Y50D02*
D03*
Y0D02*
D03*
Y150D02*
D03*
Y100D02*
D03*
Y-100D02*
D03*
Y-50D02*
D03*
Y-150D02*
D03*
Y-200D02*
D03*
D54*
X-525Y-740D02*
D03*
D55*
X-465Y-800D02*
D03*
D56*
X-525Y-860D02*
D03*
D57*
X675Y-650D02*
D03*
X-1200Y0D02*
D03*
X-1500D02*
D03*
X-1200Y-700D02*
D03*
X-1500D02*
D03*
X-1200Y700D02*
D03*
X-1500D02*
D03*
X850Y150D02*
D03*
Y250D02*
D03*
Y350D02*
D03*
Y450D02*
D03*
Y50D02*
D03*
Y-50D02*
D03*
Y-150D02*
D03*
Y-350D02*
D03*
Y-250D02*
D03*
X700Y150D02*
D03*
Y250D02*
D03*
Y350D02*
D03*
Y450D02*
D03*
Y50D02*
D03*
Y-50D02*
D03*
Y-150D02*
D03*
Y-350D02*
D03*
Y-250D02*
D03*
X-1200Y-500D02*
D03*
X-1500D02*
D03*
Y-400D02*
D03*
Y-600D02*
D03*
X-1200D02*
D03*
Y-100D02*
D03*
X-1500D02*
D03*
Y200D02*
D03*
X-1200Y500D02*
D03*
X-1500D02*
D03*
Y800D02*
D03*
X200Y-650D02*
D03*
Y-750D02*
D03*
X100Y-650D02*
D03*
Y-750D02*
D03*
X0Y-650D02*
D03*
Y-750D02*
D03*
X-100Y-650D02*
D03*
Y-750D02*
D03*
X-200Y-650D02*
D03*
X-375Y-50D02*
D03*
Y-150D02*
D03*
Y50D02*
D03*
Y150D02*
D03*
Y250D02*
D03*
X125Y-100D02*
D03*
X-100Y50D02*
D03*
X-200D02*
D03*
X-1500Y600D02*
D03*
X-1200D02*
D03*
Y800D02*
D03*
X-1500Y100D02*
D03*
X-1200D02*
D03*
Y200D02*
D03*
Y-400D02*
D03*
X-1500Y400D02*
D03*
X-1200D02*
D03*
X-1500Y-200D02*
D03*
X-1200D02*
D03*
X-1500Y-800D02*
D03*
X-1200D02*
D03*
D58*
X1325Y490D02*
D03*
Y190D02*
D03*
Y-110D02*
D03*
Y-410D02*
D03*
X942Y361D02*
D03*
Y539D02*
D03*
X1178D02*
D03*
Y361D02*
D03*
Y61D02*
D03*
Y239D02*
D03*
X942D02*
D03*
Y61D02*
D03*
Y-239D02*
D03*
Y-61D02*
D03*
X1178D02*
D03*
Y-239D02*
D03*
Y-539D02*
D03*
Y-361D02*
D03*
X942D02*
D03*
Y-539D02*
D03*
X-1900Y-775D02*
D03*
X-2000D02*
D03*
X-1900Y825D02*
D03*
X-2000D02*
D03*
X-1015Y-100D02*
D03*
Y0D02*
D03*
D59*
X1325Y410D02*
D03*
Y110D02*
D03*
Y-190D02*
D03*
Y-490D02*
D03*
D60*
X-2100Y-775D02*
D03*
Y825D02*
D03*
D61*
X-1015Y100D02*
D03*
D62*
X1260Y-807D02*
D03*
Y807D02*
D03*
X-2362D02*
D03*
Y-807D02*
D03*
D63*
X536Y806D02*
D03*
Y-808D02*
D03*
D64*
X850Y-450D02*
D03*
X700D02*
D03*
X-375Y-250D02*
D03*
D65*
X-2342Y564D02*
D03*
Y-14D02*
D03*
X-1838D02*
D03*
Y564D02*
D03*
X-2090Y-14D02*
D03*
Y564D02*
D03*
D66*
X-900Y-800D02*
D03*
X-700D02*
D03*
X-800D02*
D03*
D67*
X-900Y-625D02*
D03*
X-850Y750D02*
D03*
D68*
X-900Y-475D02*
D03*
X-650Y-550D02*
D03*
X-850Y550D02*
D03*
D69*
X-550Y-550D02*
D03*
D70*
X-200Y-750D02*
D03*
D71*
X-550Y850D02*
D03*
X-250Y650D02*
D03*
Y850D02*
D03*
X-550Y650D02*
D03*
D72*
X200Y775D02*
D03*
D73*
X0D02*
D03*
M02*
