%FSLAX23Y23*%
%MOIN*%
G70*
G01*
G75*
G04 Layer_Color=32896*
%ADD10R,0.079X0.114*%
%ADD11R,0.025X0.075*%
%ADD12R,0.050X0.054*%
%ADD13R,0.054X0.050*%
%ADD14R,0.070X0.025*%
%ADD15C,0.020*%
%ADD16C,0.015*%
%ADD17C,0.025*%
%ADD18C,0.050*%
%ADD19C,0.030*%
%ADD20C,0.058*%
%ADD21C,0.058*%
%ADD22R,0.050X0.050*%
%ADD23C,0.065*%
%ADD24C,0.063*%
%ADD25P,0.068X8X112.5*%
%ADD26R,0.063X0.063*%
%ADD27R,0.063X0.063*%
%ADD28C,0.217*%
%ADD29C,0.217*%
%ADD30R,0.065X0.065*%
%ADD31C,0.118*%
%ADD32C,0.080*%
%ADD33R,0.059X0.059*%
%ADD34C,0.059*%
%ADD35R,0.059X0.059*%
%ADD36R,0.065X0.065*%
%ADD37C,0.059*%
%ADD38C,0.098*%
%ADD39R,0.098X0.098*%
%ADD40C,0.040*%
%ADD41C,0.035*%
%ADD42C,0.020*%
%ADD43C,0.010*%
%ADD44C,0.014*%
%ADD45C,0.010*%
%ADD46C,0.010*%
%ADD47C,0.008*%
%ADD48R,0.400X0.050*%
G36*
X-1857Y-563D02*
X-1857Y-563D01*
X-1857Y-563D01*
X-1857Y-563D01*
X-1857Y-563D01*
X-1856Y-563D01*
X-1856Y-564D01*
Y-564D01*
X-1856Y-564D01*
X-1857Y-564D01*
X-1857Y-564D01*
X-1857Y-564D01*
X-1857Y-565D01*
X-1857Y-565D01*
X-1858Y-565D01*
X-1861D01*
Y-593D01*
X-1858D01*
X-1857Y-593D01*
X-1857Y-593D01*
X-1857Y-593D01*
X-1857Y-593D01*
X-1857Y-593D01*
X-1856Y-594D01*
X-1856Y-594D01*
Y-594D01*
X-1856Y-594D01*
X-1857Y-594D01*
X-1857Y-595D01*
X-1857Y-595D01*
X-1857Y-595D01*
X-1857Y-595D01*
X-1858Y-595D01*
X-1863D01*
Y-591D01*
X-1864Y-592D01*
X-1864Y-592D01*
X-1865Y-593D01*
X-1866Y-594D01*
X-1867Y-594D01*
X-1868Y-595D01*
X-1868Y-595D01*
X-1869Y-595D01*
X-1870Y-595D01*
X-1870Y-596D01*
X-1871Y-596D01*
X-1871Y-596D01*
X-1872D01*
X-1872Y-596D01*
X-1872D01*
X-1873Y-596D01*
X-1874Y-596D01*
X-1875Y-595D01*
X-1876Y-595D01*
X-1877Y-595D01*
X-1878Y-594D01*
X-1879Y-594D01*
X-1879Y-593D01*
X-1880Y-593D01*
X-1880Y-593D01*
X-1880Y-593D01*
X-1880Y-592D01*
X-1880Y-592D01*
X-1880Y-592D01*
X-1881Y-592D01*
X-1882Y-591D01*
X-1882Y-590D01*
X-1882Y-590D01*
X-1883Y-589D01*
X-1883Y-588D01*
X-1884Y-587D01*
X-1884Y-586D01*
X-1884Y-586D01*
X-1884Y-585D01*
X-1884Y-585D01*
X-1884Y-584D01*
Y-584D01*
Y-584D01*
Y-584D01*
X-1884Y-583D01*
X-1884Y-582D01*
X-1884Y-581D01*
X-1883Y-580D01*
X-1883Y-579D01*
X-1883Y-578D01*
X-1882Y-578D01*
X-1882Y-577D01*
X-1882Y-577D01*
X-1881Y-576D01*
X-1881Y-576D01*
X-1881Y-576D01*
X-1881Y-575D01*
X-1881Y-575D01*
X-1881Y-575D01*
X-1880Y-575D01*
X-1879Y-574D01*
X-1879Y-574D01*
X-1878Y-573D01*
X-1877Y-573D01*
X-1876Y-573D01*
X-1875Y-572D01*
X-1874Y-572D01*
X-1874Y-572D01*
X-1873Y-572D01*
X-1873Y-572D01*
X-1872D01*
X-1871Y-572D01*
X-1870Y-572D01*
X-1869Y-572D01*
X-1869Y-573D01*
X-1868Y-573D01*
X-1867Y-573D01*
X-1866Y-574D01*
X-1866Y-574D01*
X-1865Y-575D01*
X-1865Y-575D01*
X-1864Y-576D01*
X-1864Y-576D01*
X-1863Y-576D01*
X-1863Y-577D01*
X-1863Y-577D01*
X-1863Y-577D01*
Y-563D01*
X-1858D01*
X-1857Y-563D01*
D02*
G37*
G36*
X-2079Y-573D02*
X-2079Y-573D01*
X-2079Y-573D01*
X-2079Y-573D01*
X-2079Y-573D01*
X-2079Y-573D01*
X-2078Y-574D01*
Y-574D01*
X-2079Y-574D01*
X-2079Y-574D01*
X-2079Y-574D01*
X-2079Y-574D01*
X-2079Y-575D01*
X-2079Y-575D01*
X-2080Y-575D01*
X-2082D01*
X-2091Y-595D01*
X-2095D01*
X-2104Y-575D01*
X-2106D01*
X-2107Y-575D01*
X-2107Y-575D01*
X-2107Y-575D01*
X-2107Y-574D01*
X-2108Y-574D01*
X-2108Y-574D01*
X-2108Y-574D01*
Y-574D01*
X-2108Y-573D01*
X-2108Y-573D01*
X-2107Y-573D01*
X-2107Y-573D01*
X-2107Y-573D01*
X-2107Y-573D01*
X-2106Y-573D01*
X-2097D01*
X-2097Y-573D01*
X-2097Y-573D01*
X-2096Y-573D01*
X-2096Y-573D01*
X-2096Y-573D01*
X-2096Y-573D01*
X-2096Y-574D01*
Y-574D01*
X-2096Y-574D01*
X-2096Y-574D01*
X-2096Y-574D01*
X-2096Y-574D01*
X-2097Y-575D01*
X-2097Y-575D01*
X-2097Y-575D01*
X-2101D01*
X-2094Y-593D01*
X-2093D01*
X-2085Y-575D01*
X-2089D01*
X-2089Y-575D01*
X-2090Y-575D01*
X-2090Y-575D01*
X-2090Y-574D01*
X-2090Y-574D01*
X-2090Y-574D01*
X-2090Y-574D01*
Y-574D01*
X-2090Y-573D01*
X-2090Y-573D01*
X-2090Y-573D01*
X-2090Y-573D01*
X-2090Y-573D01*
X-2089Y-573D01*
X-2089Y-573D01*
X-2080D01*
X-2079Y-573D01*
D02*
G37*
G36*
X-1795Y-563D02*
X-1795Y-563D01*
X-1794Y-563D01*
X-1794Y-563D01*
X-1794Y-563D01*
X-1794Y-563D01*
X-1794Y-564D01*
Y-564D01*
X-1794Y-564D01*
X-1794Y-564D01*
X-1794Y-564D01*
X-1794Y-564D01*
X-1795Y-565D01*
X-1795Y-565D01*
X-1795Y-565D01*
X-1798D01*
Y-593D01*
X-1796D01*
X-1796Y-593D01*
X-1795Y-593D01*
X-1795Y-593D01*
X-1795Y-593D01*
X-1795Y-593D01*
X-1795Y-594D01*
X-1795Y-594D01*
Y-594D01*
X-1795Y-594D01*
X-1795Y-594D01*
X-1795Y-595D01*
X-1795Y-595D01*
X-1795Y-595D01*
X-1796Y-595D01*
X-1796Y-595D01*
X-1803D01*
X-1803Y-595D01*
X-1804Y-595D01*
X-1804Y-595D01*
X-1804Y-595D01*
X-1804Y-594D01*
X-1804Y-594D01*
X-1804Y-594D01*
Y-594D01*
X-1804Y-594D01*
X-1804Y-593D01*
X-1804Y-593D01*
X-1804Y-593D01*
X-1804Y-593D01*
X-1803Y-593D01*
X-1803Y-593D01*
X-1801D01*
Y-579D01*
X-1802Y-578D01*
X-1802Y-577D01*
X-1803Y-577D01*
X-1804Y-576D01*
X-1804Y-576D01*
X-1804Y-575D01*
X-1805Y-575D01*
X-1805Y-575D01*
X-1805Y-575D01*
X-1806Y-574D01*
X-1807Y-574D01*
X-1807Y-574D01*
X-1808Y-574D01*
X-1808Y-574D01*
X-1809D01*
X-1810Y-574D01*
X-1811Y-574D01*
X-1812Y-575D01*
X-1812Y-575D01*
X-1813Y-575D01*
X-1813Y-575D01*
X-1813Y-576D01*
X-1813Y-576D01*
X-1814Y-576D01*
X-1814Y-577D01*
X-1815Y-578D01*
X-1815Y-578D01*
X-1815Y-579D01*
X-1815Y-579D01*
Y-579D01*
Y-580D01*
Y-593D01*
X-1813D01*
X-1812Y-593D01*
X-1812Y-593D01*
X-1812Y-593D01*
X-1812Y-593D01*
X-1811Y-593D01*
X-1811Y-594D01*
X-1811Y-594D01*
Y-594D01*
X-1811Y-594D01*
X-1811Y-594D01*
X-1812Y-595D01*
X-1812Y-595D01*
X-1812Y-595D01*
X-1812Y-595D01*
X-1813Y-595D01*
X-1820D01*
X-1820Y-595D01*
X-1821Y-595D01*
X-1821Y-595D01*
X-1821Y-595D01*
X-1821Y-594D01*
X-1821Y-594D01*
X-1821Y-594D01*
Y-594D01*
X-1821Y-594D01*
X-1821Y-593D01*
X-1821Y-593D01*
X-1821Y-593D01*
X-1821Y-593D01*
X-1820Y-593D01*
X-1820Y-593D01*
X-1817D01*
Y-579D01*
X-1817Y-579D01*
X-1817Y-578D01*
X-1817Y-577D01*
X-1817Y-577D01*
X-1816Y-576D01*
X-1816Y-576D01*
X-1816Y-576D01*
X-1816Y-576D01*
X-1816Y-575D01*
X-1815Y-574D01*
X-1815Y-574D01*
X-1814Y-573D01*
X-1814Y-573D01*
X-1813Y-573D01*
X-1813Y-573D01*
X-1813Y-573D01*
X-1812Y-572D01*
X-1812Y-572D01*
X-1811Y-572D01*
X-1810Y-572D01*
X-1810Y-572D01*
X-1809Y-572D01*
X-1809D01*
X-1808Y-572D01*
X-1807Y-572D01*
X-1806Y-572D01*
X-1806Y-572D01*
X-1805Y-572D01*
X-1805Y-573D01*
X-1805Y-573D01*
X-1805Y-573D01*
X-1804Y-573D01*
X-1803Y-574D01*
X-1802Y-574D01*
X-1802Y-575D01*
X-1801Y-575D01*
X-1801Y-576D01*
X-1801Y-576D01*
X-1801Y-576D01*
Y-563D01*
X-1796D01*
X-1795Y-563D01*
D02*
G37*
G36*
X-1710Y-572D02*
X-1709Y-572D01*
X-1709Y-572D01*
X-1708Y-572D01*
X-1706Y-573D01*
X-1705Y-573D01*
X-1704Y-574D01*
X-1704Y-574D01*
X-1704Y-575D01*
X-1704Y-575D01*
X-1703Y-575D01*
X-1703Y-575D01*
X-1703Y-575D01*
X-1703Y-576D01*
X-1702Y-576D01*
X-1702Y-577D01*
X-1701Y-578D01*
X-1701Y-579D01*
X-1700Y-580D01*
X-1700Y-582D01*
X-1700Y-582D01*
X-1700Y-582D01*
X-1700Y-583D01*
Y-583D01*
Y-583D01*
Y-583D01*
X-1700Y-584D01*
X-1700Y-585D01*
X-1701Y-586D01*
X-1701Y-588D01*
X-1702Y-589D01*
X-1702Y-589D01*
X-1702Y-590D01*
X-1702Y-590D01*
X-1703Y-591D01*
X-1703Y-591D01*
X-1703Y-591D01*
X-1703Y-591D01*
X-1703Y-591D01*
X-1704Y-592D01*
X-1704Y-592D01*
X-1705Y-593D01*
X-1706Y-593D01*
X-1707Y-594D01*
X-1708Y-594D01*
X-1709Y-594D01*
X-1710Y-594D01*
X-1710Y-594D01*
X-1711Y-594D01*
X-1711D01*
X-1712Y-594D01*
X-1713Y-594D01*
X-1714Y-594D01*
X-1715Y-594D01*
X-1715Y-593D01*
X-1716Y-593D01*
X-1717Y-593D01*
X-1717Y-592D01*
X-1718Y-592D01*
X-1719Y-591D01*
X-1719Y-591D01*
X-1719Y-590D01*
X-1720Y-590D01*
X-1720Y-590D01*
X-1720Y-590D01*
X-1720Y-590D01*
Y-596D01*
Y-597D01*
X-1720Y-597D01*
X-1720Y-598D01*
X-1720Y-598D01*
X-1720Y-599D01*
X-1719Y-599D01*
X-1719Y-599D01*
Y-599D01*
X-1719Y-600D01*
X-1719Y-600D01*
X-1718Y-601D01*
X-1718Y-601D01*
X-1717Y-601D01*
X-1717Y-602D01*
X-1717Y-602D01*
X-1717Y-602D01*
X-1716Y-602D01*
X-1716Y-602D01*
X-1715Y-603D01*
X-1715Y-603D01*
X-1714Y-603D01*
X-1714Y-603D01*
X-1707D01*
X-1707Y-603D01*
X-1706Y-603D01*
X-1706Y-603D01*
X-1706Y-603D01*
X-1706Y-603D01*
X-1706Y-604D01*
X-1706Y-604D01*
Y-604D01*
X-1706Y-604D01*
X-1706Y-604D01*
X-1706Y-605D01*
X-1706Y-605D01*
X-1706Y-605D01*
X-1707Y-605D01*
X-1707Y-605D01*
X-1714D01*
X-1715Y-605D01*
X-1715Y-605D01*
X-1716Y-605D01*
X-1716Y-605D01*
X-1716Y-604D01*
X-1716Y-604D01*
X-1716D01*
X-1717Y-604D01*
X-1717Y-604D01*
X-1718Y-603D01*
X-1719Y-603D01*
X-1719Y-603D01*
X-1719Y-603D01*
X-1719Y-603D01*
X-1720Y-602D01*
X-1720Y-602D01*
X-1720Y-601D01*
X-1721Y-601D01*
X-1721Y-601D01*
X-1721Y-600D01*
X-1721Y-600D01*
Y-600D01*
X-1721Y-600D01*
X-1722Y-599D01*
X-1722Y-598D01*
X-1722Y-598D01*
X-1722Y-597D01*
X-1722Y-597D01*
Y-597D01*
Y-596D01*
Y-575D01*
X-1725D01*
X-1726Y-575D01*
X-1726Y-575D01*
X-1726Y-575D01*
X-1726Y-574D01*
X-1726Y-574D01*
X-1726Y-574D01*
X-1727Y-574D01*
Y-574D01*
X-1726Y-573D01*
X-1726Y-573D01*
X-1726Y-573D01*
X-1726Y-573D01*
X-1726Y-573D01*
X-1725Y-573D01*
X-1725Y-573D01*
X-1720D01*
Y-577D01*
X-1719Y-576D01*
X-1719Y-575D01*
X-1718Y-574D01*
X-1717Y-574D01*
X-1716Y-573D01*
X-1716Y-573D01*
X-1715Y-573D01*
X-1714Y-572D01*
X-1713Y-572D01*
X-1713Y-572D01*
X-1712Y-572D01*
X-1712Y-572D01*
X-1711D01*
X-1711Y-572D01*
X-1711D01*
X-1710Y-572D01*
D02*
G37*
G36*
X-2270Y-573D02*
X-2269Y-573D01*
X-2269Y-573D01*
X-2269Y-573D01*
X-2269Y-573D01*
X-2269Y-573D01*
X-2269Y-574D01*
Y-574D01*
X-2269Y-574D01*
X-2269Y-574D01*
X-2269Y-574D01*
X-2269Y-574D01*
X-2269Y-575D01*
X-2270Y-575D01*
X-2270Y-575D01*
X-2273D01*
X-2281Y-595D01*
X-2285D01*
X-2294Y-575D01*
X-2296D01*
X-2297Y-575D01*
X-2297Y-575D01*
X-2298Y-575D01*
X-2298Y-574D01*
X-2298Y-574D01*
X-2298Y-574D01*
X-2298Y-574D01*
Y-574D01*
X-2298Y-573D01*
X-2298Y-573D01*
X-2298Y-573D01*
X-2298Y-573D01*
X-2297Y-573D01*
X-2297Y-573D01*
X-2297Y-573D01*
X-2288D01*
X-2287Y-573D01*
X-2287Y-573D01*
X-2287Y-573D01*
X-2287Y-573D01*
X-2286Y-573D01*
X-2286Y-573D01*
X-2286Y-574D01*
Y-574D01*
X-2286Y-574D01*
X-2286Y-574D01*
X-2286Y-574D01*
X-2287Y-574D01*
X-2287Y-575D01*
X-2287Y-575D01*
X-2288Y-575D01*
X-2292D01*
X-2284Y-593D01*
X-2283D01*
X-2275Y-575D01*
X-2279D01*
X-2279Y-575D01*
X-2280Y-575D01*
X-2280Y-575D01*
X-2280Y-574D01*
X-2280Y-574D01*
X-2280Y-574D01*
X-2280Y-574D01*
Y-574D01*
X-2280Y-573D01*
X-2280Y-573D01*
X-2280Y-573D01*
X-2280Y-573D01*
X-2280Y-573D01*
X-2279Y-573D01*
X-2279Y-573D01*
X-2270D01*
X-2270Y-573D01*
D02*
G37*
G36*
X-2250Y-572D02*
X-2249Y-572D01*
X-2249Y-572D01*
X-2248Y-572D01*
X-2246Y-573D01*
X-2246Y-573D01*
X-2245Y-574D01*
X-2244Y-574D01*
X-2244Y-574D01*
X-2244Y-574D01*
X-2243Y-575D01*
X-2243Y-575D01*
X-2243Y-575D01*
X-2243Y-575D01*
X-2243Y-575D01*
X-2242Y-576D01*
X-2241Y-577D01*
X-2241Y-577D01*
X-2241Y-578D01*
X-2240Y-579D01*
X-2240Y-579D01*
X-2240Y-581D01*
X-2239Y-582D01*
X-2239Y-582D01*
X-2239Y-583D01*
X-2239Y-583D01*
Y-583D01*
Y-583D01*
Y-583D01*
X-2239Y-584D01*
X-2239Y-585D01*
X-2239Y-586D01*
X-2240Y-587D01*
X-2240Y-588D01*
X-2241Y-589D01*
X-2241Y-590D01*
X-2241Y-590D01*
X-2242Y-591D01*
X-2242Y-591D01*
X-2242Y-592D01*
X-2242Y-592D01*
X-2243Y-592D01*
X-2243Y-592D01*
X-2243Y-592D01*
X-2244Y-593D01*
X-2244Y-593D01*
X-2245Y-594D01*
X-2246Y-594D01*
X-2247Y-595D01*
X-2247Y-595D01*
X-2249Y-595D01*
X-2249Y-596D01*
X-2250Y-596D01*
X-2251Y-596D01*
X-2251Y-596D01*
X-2252Y-596D01*
X-2252D01*
X-2253Y-596D01*
X-2254Y-596D01*
X-2256Y-595D01*
X-2257Y-595D01*
X-2257Y-595D01*
X-2258Y-595D01*
X-2258Y-595D01*
X-2258Y-595D01*
X-2258Y-595D01*
X-2258D01*
X-2260Y-594D01*
X-2261Y-594D01*
X-2261Y-593D01*
X-2262Y-593D01*
X-2262Y-593D01*
X-2263Y-592D01*
X-2263Y-592D01*
X-2263Y-592D01*
X-2263Y-592D01*
X-2263Y-592D01*
X-2263Y-591D01*
Y-591D01*
X-2263Y-591D01*
X-2263Y-591D01*
X-2263Y-591D01*
X-2263Y-591D01*
X-2263Y-590D01*
X-2263Y-590D01*
X-2262Y-590D01*
X-2262D01*
X-2262Y-590D01*
X-2262Y-590D01*
X-2262Y-591D01*
X-2261Y-591D01*
X-2261Y-591D01*
X-2260Y-592D01*
X-2259Y-592D01*
X-2259Y-592D01*
X-2258Y-592D01*
X-2258Y-593D01*
X-2257Y-593D01*
X-2257Y-593D01*
X-2257D01*
X-2256Y-593D01*
X-2255Y-593D01*
X-2254Y-593D01*
X-2254Y-594D01*
X-2253Y-594D01*
X-2252Y-594D01*
X-2252D01*
X-2251Y-594D01*
X-2250Y-594D01*
X-2249Y-593D01*
X-2248Y-593D01*
X-2247Y-592D01*
X-2246Y-592D01*
X-2246Y-592D01*
X-2245Y-592D01*
X-2245Y-591D01*
X-2245Y-591D01*
X-2245Y-591D01*
X-2245D01*
X-2244Y-590D01*
X-2243Y-589D01*
X-2242Y-588D01*
X-2242Y-587D01*
X-2242Y-586D01*
X-2242Y-585D01*
X-2241Y-585D01*
X-2241Y-585D01*
Y-584D01*
X-2241Y-584D01*
Y-584D01*
X-2263D01*
X-2263Y-583D01*
X-2263Y-582D01*
X-2263Y-581D01*
X-2263Y-581D01*
X-2263Y-580D01*
X-2262Y-579D01*
X-2262Y-578D01*
X-2262Y-578D01*
X-2261Y-577D01*
X-2261Y-577D01*
X-2261Y-576D01*
X-2260Y-576D01*
X-2260Y-576D01*
X-2260Y-576D01*
X-2260Y-575D01*
X-2260Y-575D01*
X-2259Y-575D01*
X-2259Y-574D01*
X-2258Y-574D01*
X-2257Y-573D01*
X-2256Y-573D01*
X-2256Y-573D01*
X-2254Y-572D01*
X-2254Y-572D01*
X-2253Y-572D01*
X-2253Y-572D01*
X-2252Y-572D01*
X-2252Y-572D01*
X-2251D01*
X-2250Y-572D01*
D02*
G37*
G36*
X-1736Y-573D02*
X-1736Y-573D01*
X-1736Y-573D01*
X-1736Y-573D01*
X-1736Y-573D01*
X-1736Y-573D01*
X-1736Y-574D01*
Y-574D01*
X-1736Y-574D01*
X-1736Y-574D01*
X-1736Y-574D01*
X-1736Y-574D01*
X-1736Y-575D01*
X-1737Y-575D01*
X-1737Y-575D01*
X-1743D01*
Y-593D01*
X-1735D01*
X-1734Y-593D01*
X-1734Y-593D01*
X-1734Y-593D01*
X-1734Y-593D01*
X-1733Y-593D01*
X-1733Y-594D01*
X-1733Y-594D01*
Y-594D01*
X-1733Y-594D01*
X-1733Y-594D01*
X-1734Y-595D01*
X-1734Y-595D01*
X-1734Y-595D01*
X-1734Y-595D01*
X-1735Y-595D01*
X-1754D01*
X-1754Y-595D01*
X-1755Y-595D01*
X-1755Y-595D01*
X-1755Y-595D01*
X-1755Y-594D01*
X-1755Y-594D01*
X-1755Y-594D01*
Y-594D01*
X-1755Y-594D01*
X-1755Y-593D01*
X-1755Y-593D01*
X-1755Y-593D01*
X-1755Y-593D01*
X-1754Y-593D01*
X-1754Y-593D01*
X-1745D01*
Y-573D01*
X-1737D01*
X-1736Y-573D01*
D02*
G37*
G36*
X-1770Y-565D02*
X-1770Y-565D01*
X-1770Y-565D01*
X-1770Y-565D01*
X-1770Y-565D01*
X-1769Y-566D01*
X-1769Y-566D01*
Y-566D01*
Y-566D01*
Y-573D01*
X-1765D01*
X-1765Y-573D01*
X-1765Y-573D01*
X-1764Y-573D01*
X-1764Y-573D01*
X-1764Y-573D01*
X-1764Y-573D01*
X-1764Y-574D01*
Y-574D01*
X-1764Y-574D01*
X-1764Y-574D01*
X-1764Y-574D01*
X-1764Y-574D01*
X-1765Y-575D01*
X-1765Y-575D01*
X-1765Y-575D01*
X-1769D01*
Y-589D01*
X-1770Y-590D01*
X-1770Y-591D01*
X-1770Y-592D01*
X-1771Y-593D01*
X-1771Y-593D01*
X-1771Y-594D01*
X-1772Y-594D01*
X-1772Y-594D01*
X-1773Y-595D01*
X-1774Y-595D01*
X-1775Y-595D01*
X-1776Y-596D01*
X-1776Y-596D01*
X-1777Y-596D01*
X-1777Y-596D01*
X-1778D01*
X-1779Y-596D01*
X-1780Y-596D01*
X-1781Y-596D01*
X-1782Y-595D01*
X-1783Y-595D01*
X-1783Y-595D01*
X-1783Y-595D01*
X-1784D01*
X-1784Y-595D01*
X-1784D01*
X-1785Y-595D01*
X-1786Y-594D01*
X-1786Y-594D01*
X-1787Y-594D01*
X-1787Y-593D01*
X-1788Y-593D01*
X-1788Y-593D01*
X-1788Y-593D01*
X-1788Y-593D01*
X-1788Y-593D01*
X-1788Y-592D01*
Y-592D01*
X-1788Y-592D01*
X-1788Y-592D01*
X-1788Y-592D01*
X-1788Y-592D01*
X-1788Y-591D01*
X-1787Y-591D01*
X-1787Y-591D01*
X-1787D01*
X-1787Y-591D01*
X-1787Y-591D01*
X-1786Y-591D01*
X-1786Y-592D01*
X-1786Y-592D01*
X-1785Y-592D01*
X-1784Y-592D01*
X-1784Y-593D01*
X-1783Y-593D01*
X-1783Y-593D01*
X-1782Y-593D01*
X-1782Y-593D01*
X-1782D01*
X-1781Y-593D01*
X-1780Y-593D01*
X-1780Y-593D01*
X-1779Y-594D01*
X-1778D01*
X-1778Y-594D01*
X-1778D01*
X-1776Y-594D01*
X-1776Y-593D01*
X-1775Y-593D01*
X-1774Y-593D01*
X-1774Y-593D01*
X-1773Y-593D01*
X-1773Y-592D01*
X-1773Y-592D01*
X-1773Y-592D01*
X-1772Y-591D01*
X-1772Y-591D01*
X-1772Y-590D01*
X-1772Y-590D01*
X-1772Y-590D01*
Y-589D01*
Y-589D01*
Y-575D01*
X-1783D01*
X-1784Y-575D01*
X-1784Y-575D01*
X-1784Y-575D01*
X-1784Y-574D01*
X-1785Y-574D01*
X-1785Y-574D01*
X-1785Y-574D01*
Y-574D01*
X-1785Y-573D01*
X-1785Y-573D01*
X-1785Y-573D01*
X-1784Y-573D01*
X-1784Y-573D01*
X-1784Y-573D01*
X-1783Y-573D01*
X-1772D01*
Y-566D01*
X-1772Y-566D01*
X-1771Y-565D01*
X-1771Y-565D01*
X-1771Y-565D01*
X-1771Y-565D01*
X-1771Y-565D01*
X-1771Y-565D01*
X-1770D01*
X-1770Y-565D01*
D02*
G37*
G36*
X-1827Y-573D02*
X-1827Y-573D01*
X-1826Y-573D01*
X-1826Y-573D01*
X-1826Y-573D01*
X-1826Y-573D01*
X-1826Y-574D01*
Y-574D01*
X-1826Y-574D01*
X-1826Y-574D01*
X-1826Y-574D01*
X-1826Y-574D01*
X-1827Y-575D01*
X-1827Y-575D01*
X-1827Y-575D01*
X-1830D01*
Y-589D01*
X-1830Y-590D01*
X-1831Y-591D01*
X-1831Y-592D01*
X-1831Y-593D01*
X-1832Y-593D01*
X-1832Y-594D01*
X-1832Y-594D01*
X-1832Y-594D01*
X-1833Y-595D01*
X-1834Y-595D01*
X-1835Y-595D01*
X-1835Y-596D01*
X-1836Y-596D01*
X-1837Y-596D01*
X-1837D01*
X-1838Y-596D01*
X-1839Y-596D01*
X-1840Y-595D01*
X-1841Y-595D01*
X-1843Y-595D01*
X-1843Y-594D01*
X-1844Y-594D01*
X-1845Y-593D01*
X-1845Y-593D01*
X-1846Y-593D01*
X-1846Y-592D01*
X-1846Y-592D01*
X-1847Y-592D01*
X-1847Y-592D01*
X-1847Y-592D01*
Y-595D01*
X-1851D01*
X-1851Y-595D01*
X-1852Y-595D01*
X-1852Y-595D01*
X-1852Y-595D01*
X-1852Y-594D01*
X-1852Y-594D01*
X-1852Y-594D01*
Y-594D01*
X-1852Y-594D01*
X-1852Y-593D01*
X-1852Y-593D01*
X-1852Y-593D01*
X-1852Y-593D01*
X-1851Y-593D01*
X-1851Y-593D01*
X-1849D01*
Y-573D01*
X-1843D01*
X-1842Y-573D01*
X-1842Y-573D01*
X-1842Y-573D01*
X-1842Y-573D01*
X-1842Y-573D01*
X-1841Y-573D01*
X-1841Y-574D01*
Y-574D01*
X-1841Y-574D01*
X-1842Y-574D01*
X-1842Y-574D01*
X-1842Y-574D01*
X-1842Y-575D01*
X-1842Y-575D01*
X-1843Y-575D01*
X-1847D01*
Y-589D01*
X-1846Y-590D01*
X-1845Y-590D01*
X-1844Y-591D01*
X-1843Y-592D01*
X-1843Y-592D01*
X-1842Y-592D01*
X-1841Y-593D01*
X-1840Y-593D01*
X-1840Y-593D01*
X-1839Y-593D01*
X-1838Y-593D01*
X-1838Y-594D01*
X-1838D01*
X-1837Y-594D01*
X-1837D01*
X-1836Y-594D01*
X-1836Y-593D01*
X-1835Y-593D01*
X-1835Y-593D01*
X-1834Y-593D01*
X-1834Y-593D01*
X-1834Y-592D01*
X-1834Y-592D01*
X-1833Y-592D01*
X-1833Y-591D01*
X-1833Y-591D01*
X-1833Y-590D01*
X-1833Y-590D01*
X-1833Y-589D01*
Y-589D01*
Y-589D01*
Y-573D01*
X-1827D01*
X-1827Y-573D01*
D02*
G37*
G36*
X-1742Y-567D02*
X-1745D01*
Y-562D01*
X-1742D01*
Y-567D01*
D02*
G37*
G36*
X-2059D02*
X-2062D01*
Y-562D01*
X-2059D01*
Y-567D01*
D02*
G37*
G36*
X-2189Y-512D02*
X-2189Y-512D01*
X-2188Y-512D01*
X-2187Y-512D01*
X-2185Y-513D01*
X-2185Y-513D01*
X-2184Y-514D01*
X-2184Y-514D01*
X-2183Y-514D01*
X-2183Y-515D01*
X-2182Y-515D01*
X-2182Y-515D01*
X-2182Y-515D01*
X-2182Y-515D01*
X-2182Y-515D01*
X-2181Y-516D01*
X-2181Y-517D01*
X-2180Y-518D01*
X-2180Y-518D01*
X-2179Y-519D01*
X-2179Y-520D01*
X-2179Y-521D01*
X-2179Y-522D01*
X-2178Y-522D01*
X-2178Y-523D01*
X-2178Y-523D01*
X-2178Y-523D01*
Y-524D01*
Y-524D01*
Y-524D01*
X-2178Y-525D01*
X-2178Y-526D01*
X-2179Y-526D01*
X-2179Y-527D01*
X-2179Y-529D01*
X-2180Y-530D01*
X-2180Y-530D01*
X-2181Y-531D01*
X-2181Y-531D01*
X-2181Y-532D01*
X-2181Y-532D01*
X-2182Y-532D01*
X-2182Y-532D01*
X-2182Y-532D01*
X-2182Y-533D01*
X-2183Y-533D01*
X-2184Y-534D01*
X-2185Y-534D01*
X-2185Y-535D01*
X-2186Y-535D01*
X-2187Y-535D01*
X-2188Y-536D01*
X-2189Y-536D01*
X-2189Y-536D01*
X-2190Y-536D01*
X-2190Y-536D01*
X-2190D01*
X-2191Y-536D01*
X-2192Y-536D01*
X-2193Y-535D01*
X-2194Y-535D01*
X-2195Y-535D01*
X-2197Y-534D01*
X-2197Y-534D01*
X-2198Y-533D01*
X-2198Y-533D01*
X-2198Y-533D01*
X-2199Y-533D01*
X-2199Y-532D01*
X-2199Y-532D01*
X-2199Y-532D01*
X-2200Y-532D01*
X-2200Y-531D01*
X-2201Y-530D01*
X-2201Y-530D01*
X-2201Y-529D01*
X-2202Y-528D01*
X-2202Y-527D01*
X-2202Y-526D01*
X-2202Y-526D01*
X-2202Y-525D01*
X-2202Y-525D01*
X-2202Y-524D01*
Y-524D01*
Y-524D01*
Y-524D01*
X-2202Y-523D01*
X-2202Y-522D01*
X-2202Y-521D01*
X-2202Y-520D01*
X-2201Y-519D01*
X-2201Y-518D01*
X-2200Y-517D01*
X-2200Y-517D01*
X-2200Y-516D01*
X-2199Y-516D01*
X-2199Y-516D01*
X-2199Y-516D01*
X-2199Y-515D01*
X-2199Y-515D01*
X-2198Y-515D01*
X-2198Y-514D01*
X-2197Y-514D01*
X-2196Y-513D01*
X-2195Y-513D01*
X-2195Y-513D01*
X-2193Y-512D01*
X-2193Y-512D01*
X-2192Y-512D01*
X-2192Y-512D01*
X-2191Y-512D01*
X-2191Y-512D01*
X-2190D01*
X-2189Y-512D01*
D02*
G37*
G36*
X-1873D02*
X-1872Y-512D01*
X-1872Y-512D01*
X-1871Y-512D01*
X-1870Y-513D01*
X-1870Y-513D01*
X-1869Y-513D01*
X-1869Y-513D01*
X-1868Y-514D01*
X-1868Y-514D01*
X-1867Y-515D01*
X-1866Y-515D01*
X-1866Y-516D01*
X-1866Y-516D01*
X-1865Y-516D01*
X-1865Y-517D01*
Y-513D01*
X-1860D01*
X-1860Y-513D01*
X-1859Y-513D01*
X-1859Y-513D01*
X-1859Y-513D01*
X-1859Y-513D01*
X-1859Y-513D01*
X-1859Y-514D01*
Y-514D01*
X-1859Y-514D01*
X-1859Y-514D01*
X-1859Y-514D01*
X-1859Y-514D01*
X-1859Y-515D01*
X-1860Y-515D01*
X-1860Y-515D01*
X-1863D01*
Y-543D01*
X-1860D01*
X-1860Y-543D01*
X-1859Y-543D01*
X-1859Y-543D01*
X-1859Y-543D01*
X-1859Y-543D01*
X-1859Y-544D01*
X-1859Y-544D01*
Y-544D01*
X-1859Y-544D01*
X-1859Y-544D01*
X-1859Y-545D01*
X-1859Y-545D01*
X-1859Y-545D01*
X-1860Y-545D01*
X-1860Y-545D01*
X-1870D01*
X-1871Y-545D01*
X-1871Y-545D01*
X-1871Y-545D01*
X-1871Y-545D01*
X-1872Y-544D01*
X-1872Y-544D01*
X-1872Y-544D01*
Y-544D01*
X-1872Y-544D01*
X-1872Y-543D01*
X-1872Y-543D01*
X-1871Y-543D01*
X-1871Y-543D01*
X-1871Y-543D01*
X-1870Y-543D01*
X-1865D01*
Y-530D01*
X-1866Y-531D01*
X-1867Y-531D01*
X-1867Y-532D01*
X-1868Y-532D01*
X-1869Y-533D01*
X-1870Y-533D01*
X-1870Y-534D01*
X-1871Y-534D01*
X-1872Y-534D01*
X-1872Y-534D01*
X-1873Y-534D01*
X-1874Y-534D01*
X-1874D01*
X-1874Y-534D01*
X-1875D01*
X-1875Y-534D01*
X-1876Y-534D01*
X-1878Y-534D01*
X-1879Y-533D01*
X-1880Y-533D01*
X-1881Y-533D01*
X-1881Y-532D01*
X-1882Y-532D01*
X-1882Y-532D01*
X-1882Y-531D01*
X-1883Y-531D01*
X-1883Y-531D01*
X-1883Y-531D01*
X-1883Y-531D01*
X-1884Y-530D01*
X-1884Y-529D01*
X-1885Y-529D01*
X-1885Y-528D01*
X-1885Y-527D01*
X-1886Y-526D01*
X-1886Y-525D01*
X-1886Y-524D01*
X-1886Y-524D01*
X-1886Y-524D01*
Y-523D01*
Y-523D01*
Y-523D01*
X-1886Y-522D01*
X-1886Y-521D01*
X-1886Y-520D01*
X-1885Y-519D01*
X-1885Y-519D01*
X-1885Y-518D01*
X-1885Y-518D01*
X-1885Y-518D01*
X-1884Y-517D01*
X-1883Y-516D01*
X-1883Y-515D01*
X-1882Y-514D01*
X-1881Y-514D01*
X-1881Y-514D01*
X-1880Y-513D01*
X-1880Y-513D01*
X-1880D01*
X-1879Y-513D01*
X-1878Y-512D01*
X-1877Y-512D01*
X-1876Y-512D01*
X-1876Y-512D01*
X-1875Y-512D01*
X-1875D01*
X-1873Y-512D01*
D02*
G37*
G36*
X-2186Y-567D02*
X-2189D01*
Y-562D01*
X-2186D01*
Y-567D01*
D02*
G37*
G36*
X-1993Y-572D02*
X-1993Y-572D01*
X-1992Y-572D01*
X-1991Y-573D01*
X-1990Y-573D01*
X-1989Y-574D01*
X-1989Y-574D01*
X-1988Y-575D01*
X-1988Y-575D01*
X-1988Y-575D01*
Y-573D01*
X-1984D01*
X-1984Y-573D01*
X-1983Y-573D01*
X-1983Y-573D01*
X-1983Y-573D01*
X-1983Y-573D01*
X-1983Y-573D01*
X-1983Y-574D01*
Y-574D01*
X-1983Y-574D01*
X-1983Y-574D01*
X-1983Y-574D01*
X-1983Y-574D01*
X-1983Y-575D01*
X-1984Y-575D01*
X-1984Y-575D01*
X-1986D01*
Y-593D01*
X-1984D01*
X-1984Y-593D01*
X-1983Y-593D01*
X-1983Y-593D01*
X-1983Y-593D01*
X-1983Y-593D01*
X-1983Y-594D01*
X-1983Y-594D01*
Y-594D01*
X-1983Y-594D01*
X-1983Y-594D01*
X-1983Y-595D01*
X-1983Y-595D01*
X-1983Y-595D01*
X-1984Y-595D01*
X-1984Y-595D01*
X-1990D01*
X-1990Y-595D01*
X-1991Y-595D01*
X-1991Y-595D01*
X-1991Y-595D01*
X-1991Y-594D01*
X-1991Y-594D01*
X-1991Y-594D01*
Y-594D01*
X-1991Y-594D01*
X-1991Y-593D01*
X-1991Y-593D01*
X-1991Y-593D01*
X-1991Y-593D01*
X-1990Y-593D01*
X-1990Y-593D01*
X-1988D01*
Y-578D01*
X-1989Y-578D01*
X-1989Y-577D01*
X-1990Y-576D01*
X-1990Y-576D01*
X-1991Y-575D01*
X-1991Y-575D01*
X-1991Y-575D01*
X-1991Y-575D01*
X-1992Y-575D01*
X-1992Y-574D01*
X-1993Y-574D01*
X-1993Y-574D01*
X-1993Y-574D01*
X-1994D01*
X-1994Y-574D01*
X-1995Y-574D01*
X-1995Y-574D01*
X-1995Y-575D01*
X-1996Y-575D01*
X-1996Y-575D01*
X-1996Y-575D01*
X-1996Y-575D01*
X-1996Y-576D01*
X-1997Y-576D01*
X-1997Y-577D01*
X-1997Y-577D01*
X-1997Y-577D01*
X-1997Y-578D01*
Y-578D01*
Y-578D01*
Y-595D01*
X-2001D01*
X-2001Y-595D01*
X-2002Y-595D01*
X-2002Y-595D01*
X-2002Y-595D01*
X-2002Y-594D01*
X-2002Y-594D01*
X-2002Y-594D01*
Y-594D01*
X-2002Y-594D01*
X-2002Y-593D01*
X-2002Y-593D01*
X-2002Y-593D01*
X-2002Y-593D01*
X-2001Y-593D01*
X-2001Y-593D01*
X-1999D01*
Y-578D01*
X-2000Y-578D01*
X-2000Y-577D01*
X-2001Y-576D01*
X-2001Y-576D01*
X-2002Y-575D01*
X-2002Y-575D01*
X-2002Y-575D01*
X-2002Y-575D01*
X-2003Y-575D01*
X-2003Y-574D01*
X-2004Y-574D01*
X-2004Y-574D01*
X-2004Y-574D01*
X-2004Y-574D01*
X-2005D01*
X-2005Y-574D01*
X-2006Y-574D01*
X-2006Y-574D01*
X-2006Y-575D01*
X-2007Y-575D01*
X-2007Y-575D01*
X-2007Y-575D01*
X-2007Y-575D01*
X-2007Y-576D01*
X-2008Y-576D01*
X-2008Y-576D01*
X-2008Y-577D01*
X-2008Y-577D01*
X-2008Y-578D01*
Y-578D01*
Y-578D01*
Y-595D01*
X-2012D01*
X-2013Y-595D01*
X-2013Y-595D01*
X-2013Y-595D01*
X-2013Y-595D01*
X-2013Y-594D01*
X-2013Y-594D01*
X-2014Y-594D01*
Y-594D01*
X-2013Y-594D01*
X-2013Y-593D01*
X-2013Y-593D01*
X-2013Y-593D01*
X-2013Y-593D01*
X-2012Y-593D01*
X-2012Y-593D01*
X-2010D01*
Y-578D01*
X-2010Y-577D01*
X-2010Y-576D01*
X-2010Y-575D01*
X-2009Y-575D01*
X-2009Y-574D01*
X-2009Y-574D01*
X-2008Y-573D01*
X-2008Y-573D01*
X-2008Y-573D01*
X-2007Y-572D01*
X-2007Y-572D01*
X-2006Y-572D01*
X-2005Y-572D01*
X-2005Y-572D01*
X-2005D01*
X-2004Y-572D01*
X-2003Y-572D01*
X-2003Y-572D01*
X-2003Y-572D01*
X-2002Y-572D01*
X-2002Y-573D01*
X-2002Y-573D01*
X-2002Y-573D01*
X-2001Y-573D01*
X-2001Y-574D01*
X-2000Y-574D01*
X-2000Y-574D01*
X-1999Y-575D01*
X-1999Y-575D01*
X-1999Y-575D01*
X-1999Y-575D01*
X-1998Y-575D01*
X-1998Y-574D01*
X-1998Y-574D01*
X-1997Y-573D01*
X-1997Y-573D01*
X-1997Y-573D01*
X-1997Y-573D01*
X-1997Y-573D01*
X-1996Y-572D01*
X-1996Y-572D01*
X-1995Y-572D01*
X-1995Y-572D01*
X-1994Y-572D01*
X-1994Y-572D01*
X-1994D01*
X-1993Y-572D01*
D02*
G37*
G36*
X-2124D02*
X-2123Y-572D01*
X-2122Y-572D01*
X-2121Y-572D01*
X-2120Y-573D01*
X-2119Y-573D01*
X-2119Y-573D01*
X-2119Y-573D01*
X-2119Y-573D01*
X-2119Y-573D01*
X-2118D01*
X-2118Y-573D01*
X-2117Y-573D01*
X-2116Y-574D01*
X-2116Y-574D01*
X-2116Y-574D01*
X-2116Y-574D01*
X-2116Y-574D01*
X-2115Y-574D01*
X-2115Y-574D01*
X-2115Y-575D01*
Y-575D01*
X-2115Y-575D01*
X-2115Y-575D01*
X-2116Y-575D01*
X-2116Y-575D01*
X-2116Y-576D01*
X-2116Y-576D01*
X-2116Y-576D01*
X-2116D01*
X-2117Y-576D01*
X-2117Y-576D01*
X-2117Y-576D01*
X-2117Y-576D01*
X-2117D01*
X-2119Y-575D01*
X-2120Y-575D01*
X-2122Y-574D01*
X-2123Y-574D01*
X-2123Y-574D01*
X-2124Y-574D01*
X-2124D01*
X-2126Y-574D01*
X-2127Y-574D01*
X-2127Y-574D01*
X-2128Y-575D01*
X-2129Y-575D01*
X-2129Y-575D01*
X-2129Y-575D01*
X-2129Y-575D01*
X-2130Y-576D01*
X-2130Y-576D01*
X-2131Y-577D01*
X-2131Y-577D01*
X-2131Y-578D01*
X-2131Y-578D01*
Y-578D01*
Y-579D01*
Y-582D01*
X-2130Y-582D01*
X-2130Y-582D01*
X-2129Y-582D01*
X-2128Y-582D01*
X-2128Y-581D01*
X-2128D01*
X-2127Y-581D01*
X-2127D01*
X-2126Y-581D01*
X-2125Y-581D01*
X-2125Y-581D01*
X-2123D01*
X-2122Y-581D01*
X-2121Y-581D01*
X-2120Y-582D01*
X-2120Y-582D01*
X-2119Y-582D01*
X-2118Y-582D01*
X-2118Y-582D01*
X-2117Y-583D01*
X-2117Y-583D01*
X-2116Y-583D01*
X-2116Y-583D01*
X-2116Y-583D01*
X-2116Y-583D01*
X-2116Y-584D01*
X-2116D01*
X-2115Y-584D01*
X-2115Y-584D01*
X-2114Y-585D01*
X-2114Y-585D01*
X-2113Y-586D01*
X-2113Y-587D01*
X-2113Y-588D01*
X-2113Y-589D01*
X-2113Y-589D01*
Y-589D01*
Y-589D01*
Y-589D01*
X-2113Y-590D01*
X-2113Y-591D01*
X-2113Y-592D01*
X-2114Y-593D01*
X-2114Y-593D01*
X-2114Y-594D01*
X-2115Y-594D01*
X-2115Y-594D01*
X-2116Y-595D01*
X-2117Y-595D01*
X-2118Y-595D01*
X-2119Y-596D01*
X-2120Y-596D01*
X-2120Y-596D01*
X-2120D01*
X-2121Y-596D01*
X-2121D01*
X-2122Y-596D01*
X-2123Y-596D01*
X-2124Y-595D01*
X-2125Y-595D01*
X-2127Y-595D01*
X-2127Y-594D01*
X-2128Y-594D01*
X-2129Y-593D01*
X-2129Y-593D01*
X-2130Y-593D01*
X-2130Y-592D01*
X-2131Y-592D01*
X-2131Y-592D01*
X-2131Y-592D01*
X-2131Y-592D01*
Y-595D01*
X-2136D01*
X-2137Y-595D01*
X-2137Y-595D01*
X-2137Y-595D01*
X-2137Y-595D01*
X-2138Y-594D01*
X-2138Y-594D01*
X-2138Y-594D01*
Y-594D01*
X-2138Y-594D01*
X-2137Y-593D01*
X-2137Y-593D01*
X-2137Y-593D01*
X-2137Y-593D01*
X-2137Y-593D01*
X-2136Y-593D01*
X-2133D01*
Y-579D01*
X-2133Y-578D01*
X-2133Y-577D01*
X-2132Y-576D01*
X-2132Y-575D01*
X-2132Y-575D01*
X-2131Y-574D01*
X-2131Y-574D01*
X-2131Y-574D01*
X-2130Y-573D01*
X-2129Y-573D01*
X-2128Y-572D01*
X-2127Y-572D01*
X-2126Y-572D01*
X-2126Y-572D01*
X-2125D01*
X-2125Y-572D01*
X-2125D01*
X-2124Y-572D01*
D02*
G37*
G36*
X-2155D02*
X-2154Y-572D01*
X-2153Y-572D01*
X-2152Y-573D01*
X-2151Y-573D01*
X-2150Y-573D01*
X-2150Y-573D01*
X-2150Y-573D01*
X-2150Y-574D01*
X-2150D01*
X-2149Y-574D01*
X-2149Y-574D01*
X-2148Y-575D01*
X-2148Y-576D01*
X-2148Y-576D01*
X-2147Y-577D01*
X-2147Y-577D01*
X-2147Y-578D01*
Y-578D01*
Y-578D01*
X-2147Y-579D01*
X-2147Y-579D01*
X-2147Y-580D01*
X-2148Y-580D01*
X-2148Y-580D01*
X-2148Y-581D01*
X-2148Y-581D01*
X-2148Y-581D01*
X-2149Y-581D01*
X-2149Y-582D01*
X-2149Y-582D01*
X-2150Y-582D01*
X-2150Y-583D01*
X-2151Y-583D01*
X-2151Y-583D01*
X-2151Y-583D01*
X-2152Y-583D01*
X-2152Y-583D01*
X-2153Y-583D01*
X-2154Y-584D01*
X-2155Y-584D01*
X-2156Y-584D01*
X-2156D01*
X-2156Y-584D01*
X-2157D01*
X-2158Y-584D01*
X-2159Y-584D01*
X-2160Y-585D01*
X-2161Y-585D01*
X-2162Y-585D01*
X-2162Y-585D01*
X-2163Y-585D01*
X-2163Y-586D01*
X-2163Y-586D01*
X-2164Y-587D01*
X-2164Y-587D01*
X-2165Y-588D01*
X-2165Y-588D01*
X-2165Y-588D01*
X-2165Y-589D01*
Y-589D01*
X-2165Y-589D01*
X-2164Y-590D01*
X-2164Y-591D01*
X-2164Y-591D01*
X-2163Y-592D01*
X-2163Y-592D01*
X-2163Y-592D01*
X-2163Y-592D01*
X-2162Y-593D01*
X-2161Y-593D01*
X-2160Y-593D01*
X-2159Y-593D01*
X-2158Y-594D01*
X-2158D01*
X-2157Y-594D01*
X-2156D01*
X-2155Y-594D01*
X-2154Y-594D01*
X-2154Y-593D01*
X-2153Y-593D01*
X-2152Y-593D01*
X-2152Y-593D01*
X-2152Y-593D01*
X-2152Y-593D01*
X-2151Y-593D01*
X-2150Y-592D01*
X-2150Y-592D01*
X-2149Y-592D01*
X-2149Y-591D01*
X-2149Y-591D01*
X-2149Y-591D01*
X-2149Y-591D01*
X-2148Y-590D01*
X-2148Y-590D01*
Y-589D01*
X-2148Y-589D01*
Y-589D01*
Y-589D01*
X-2148Y-588D01*
X-2148Y-588D01*
X-2148Y-588D01*
X-2148Y-588D01*
X-2148Y-588D01*
X-2147Y-588D01*
X-2147Y-588D01*
X-2147D01*
X-2147Y-588D01*
X-2147Y-588D01*
X-2146Y-588D01*
X-2146Y-588D01*
X-2146Y-588D01*
X-2146Y-589D01*
X-2146Y-589D01*
Y-589D01*
Y-589D01*
Y-594D01*
X-2146Y-594D01*
X-2146Y-594D01*
X-2146Y-595D01*
X-2146Y-595D01*
X-2147Y-595D01*
X-2147Y-595D01*
X-2147Y-595D01*
X-2147D01*
X-2147Y-595D01*
X-2147Y-595D01*
X-2148Y-595D01*
X-2148D01*
X-2148Y-595D01*
X-2148Y-595D01*
X-2148Y-594D01*
Y-594D01*
X-2148Y-594D01*
X-2148Y-594D01*
Y-593D01*
Y-593D01*
Y-593D01*
X-2149Y-594D01*
X-2149Y-594D01*
X-2151Y-595D01*
X-2152Y-595D01*
X-2154Y-595D01*
X-2154Y-596D01*
X-2155Y-596D01*
X-2155Y-596D01*
X-2156D01*
X-2156Y-596D01*
X-2157D01*
X-2158Y-596D01*
X-2159Y-596D01*
X-2160Y-595D01*
X-2161Y-595D01*
X-2161Y-595D01*
X-2162Y-595D01*
X-2162Y-595D01*
X-2163Y-595D01*
X-2163Y-594D01*
X-2164Y-594D01*
X-2164Y-594D01*
X-2164Y-594D01*
X-2164Y-594D01*
X-2164Y-594D01*
X-2165Y-593D01*
X-2165Y-593D01*
X-2166Y-592D01*
X-2166Y-591D01*
X-2167Y-590D01*
X-2167Y-590D01*
X-2167Y-589D01*
X-2167Y-589D01*
Y-589D01*
Y-589D01*
X-2167Y-588D01*
X-2167Y-587D01*
X-2167Y-587D01*
X-2166Y-586D01*
X-2166Y-586D01*
X-2166Y-586D01*
X-2166Y-585D01*
X-2166Y-585D01*
X-2165Y-585D01*
X-2165Y-584D01*
X-2164Y-584D01*
X-2163Y-583D01*
X-2163Y-583D01*
X-2162Y-583D01*
X-2162Y-583D01*
X-2162Y-583D01*
X-2162D01*
X-2162Y-583D01*
X-2161Y-583D01*
X-2160Y-582D01*
X-2159Y-582D01*
X-2158Y-582D01*
X-2157Y-582D01*
X-2157Y-582D01*
X-2157D01*
X-2156Y-582D01*
X-2156Y-582D01*
X-2156D01*
X-2155Y-581D01*
X-2154Y-581D01*
X-2153Y-581D01*
X-2152Y-581D01*
X-2152Y-581D01*
X-2151Y-581D01*
X-2151Y-581D01*
X-2151Y-581D01*
X-2151Y-580D01*
X-2150Y-580D01*
X-2150Y-579D01*
X-2150Y-579D01*
X-2149Y-579D01*
X-2149Y-578D01*
X-2149Y-578D01*
Y-578D01*
X-2149Y-578D01*
X-2150Y-577D01*
X-2150Y-577D01*
X-2150Y-576D01*
X-2150Y-576D01*
X-2151Y-576D01*
X-2151Y-576D01*
X-2151Y-576D01*
X-2152Y-575D01*
X-2153Y-575D01*
X-2153Y-574D01*
X-2154Y-574D01*
X-2155Y-574D01*
X-2156Y-574D01*
X-2156D01*
X-2158Y-574D01*
X-2159Y-574D01*
X-2160Y-574D01*
X-2161Y-575D01*
X-2161Y-575D01*
X-2162Y-575D01*
X-2162Y-575D01*
X-2162Y-575D01*
X-2163Y-576D01*
X-2163Y-576D01*
X-2163Y-577D01*
X-2163Y-577D01*
X-2164Y-578D01*
X-2164Y-578D01*
X-2164Y-578D01*
Y-578D01*
X-2164Y-578D01*
X-2164Y-579D01*
X-2164Y-579D01*
X-2164Y-579D01*
X-2164Y-579D01*
X-2164Y-579D01*
X-2165Y-579D01*
X-2165D01*
X-2165Y-579D01*
X-2165Y-579D01*
X-2165Y-579D01*
X-2165Y-579D01*
X-2166Y-579D01*
X-2166Y-578D01*
X-2166Y-578D01*
Y-578D01*
Y-578D01*
Y-574D01*
X-2166Y-574D01*
X-2166Y-573D01*
X-2166Y-573D01*
X-2165Y-573D01*
X-2165Y-573D01*
X-2165Y-573D01*
X-2165Y-573D01*
X-2165D01*
X-2164Y-573D01*
X-2164Y-573D01*
X-2164Y-573D01*
X-2164Y-573D01*
X-2164Y-573D01*
X-2164Y-574D01*
X-2164Y-574D01*
Y-574D01*
Y-574D01*
X-2163Y-573D01*
X-2161Y-573D01*
X-2160Y-572D01*
X-2159Y-572D01*
X-2158Y-572D01*
X-2157Y-572D01*
X-2157D01*
X-2157Y-572D01*
X-2156D01*
X-2155Y-572D01*
D02*
G37*
G36*
X-1934D02*
X-1933Y-572D01*
X-1932Y-572D01*
X-1932Y-572D01*
X-1930Y-573D01*
X-1930Y-573D01*
X-1929Y-574D01*
X-1928Y-574D01*
X-1928Y-574D01*
X-1928Y-575D01*
X-1927Y-575D01*
X-1927Y-575D01*
X-1927Y-575D01*
X-1927Y-575D01*
X-1927Y-575D01*
X-1926Y-576D01*
X-1925Y-577D01*
X-1925Y-577D01*
X-1925Y-578D01*
X-1924Y-579D01*
X-1924Y-580D01*
X-1924Y-581D01*
X-1923Y-582D01*
X-1923Y-582D01*
X-1923Y-583D01*
X-1923Y-583D01*
X-1923Y-583D01*
Y-584D01*
Y-584D01*
Y-584D01*
X-1923Y-585D01*
X-1923Y-586D01*
X-1923Y-587D01*
X-1924Y-588D01*
X-1924Y-589D01*
X-1924Y-590D01*
X-1925Y-590D01*
X-1925Y-591D01*
X-1925Y-591D01*
X-1926Y-592D01*
X-1926Y-592D01*
X-1926Y-592D01*
X-1926Y-592D01*
X-1926Y-592D01*
X-1926Y-592D01*
X-1927Y-593D01*
X-1928Y-594D01*
X-1929Y-594D01*
X-1929Y-594D01*
X-1930Y-595D01*
X-1931Y-595D01*
X-1932Y-595D01*
X-1933Y-596D01*
X-1933Y-596D01*
X-1934Y-596D01*
X-1934Y-596D01*
X-1935Y-596D01*
X-1935D01*
X-1936Y-596D01*
X-1937Y-596D01*
X-1939Y-595D01*
X-1940Y-595D01*
X-1941Y-595D01*
X-1942Y-594D01*
X-1942Y-594D01*
X-1943Y-594D01*
X-1943Y-594D01*
X-1944Y-593D01*
X-1944Y-593D01*
X-1944Y-593D01*
X-1944Y-593D01*
X-1944D01*
X-1945Y-593D01*
X-1945Y-592D01*
X-1946Y-592D01*
X-1946Y-591D01*
X-1947Y-591D01*
X-1947Y-591D01*
X-1947Y-590D01*
X-1947Y-590D01*
Y-590D01*
X-1947Y-590D01*
X-1947Y-590D01*
X-1947Y-590D01*
X-1947Y-590D01*
X-1947Y-589D01*
X-1946Y-589D01*
X-1946Y-589D01*
X-1946D01*
X-1946Y-589D01*
X-1945Y-589D01*
X-1945Y-590D01*
X-1945Y-590D01*
X-1944Y-590D01*
X-1943Y-591D01*
X-1943Y-592D01*
X-1942Y-592D01*
X-1941Y-592D01*
X-1941Y-593D01*
X-1940Y-593D01*
X-1940Y-593D01*
X-1940D01*
X-1939Y-593D01*
X-1938Y-593D01*
X-1938Y-593D01*
X-1937Y-594D01*
X-1936Y-594D01*
X-1936Y-594D01*
X-1934D01*
X-1934Y-594D01*
X-1932Y-593D01*
X-1931Y-593D01*
X-1930Y-592D01*
X-1929Y-592D01*
X-1929Y-591D01*
X-1928Y-591D01*
X-1928Y-591D01*
X-1928Y-591D01*
X-1928D01*
X-1928Y-590D01*
X-1927Y-590D01*
X-1926Y-589D01*
X-1926Y-588D01*
X-1926Y-586D01*
X-1925Y-585D01*
X-1925Y-585D01*
Y-585D01*
X-1925Y-584D01*
Y-584D01*
Y-584D01*
Y-584D01*
X-1925Y-583D01*
X-1926Y-581D01*
X-1926Y-580D01*
X-1927Y-579D01*
X-1927Y-578D01*
X-1927Y-578D01*
X-1927Y-578D01*
X-1928Y-577D01*
X-1928Y-577D01*
X-1928Y-577D01*
Y-577D01*
X-1928Y-577D01*
X-1929Y-576D01*
X-1929Y-576D01*
X-1930Y-575D01*
X-1931Y-575D01*
X-1932Y-574D01*
X-1933Y-574D01*
X-1934Y-574D01*
X-1934Y-574D01*
X-1935Y-574D01*
X-1935D01*
X-1936Y-574D01*
X-1938Y-574D01*
X-1939Y-575D01*
X-1940Y-575D01*
X-1940Y-575D01*
X-1941Y-575D01*
X-1941Y-576D01*
X-1941Y-576D01*
X-1942Y-576D01*
X-1943Y-577D01*
X-1943Y-578D01*
X-1943Y-578D01*
X-1943Y-579D01*
X-1944Y-579D01*
X-1944Y-579D01*
Y-579D01*
X-1944Y-580D01*
X-1944Y-580D01*
X-1944Y-580D01*
X-1944Y-580D01*
X-1944Y-580D01*
X-1944Y-580D01*
X-1945Y-580D01*
X-1945D01*
X-1945Y-580D01*
X-1945Y-580D01*
X-1945Y-580D01*
X-1945Y-580D01*
X-1946Y-580D01*
X-1946Y-579D01*
X-1946Y-579D01*
Y-579D01*
Y-579D01*
Y-574D01*
X-1946Y-574D01*
X-1946Y-573D01*
X-1946Y-573D01*
X-1945Y-573D01*
X-1945Y-573D01*
X-1945Y-573D01*
X-1945Y-573D01*
X-1945D01*
X-1944Y-573D01*
X-1944Y-573D01*
X-1944Y-573D01*
X-1944Y-573D01*
X-1944Y-573D01*
X-1944Y-574D01*
X-1944Y-574D01*
Y-574D01*
Y-574D01*
Y-575D01*
X-1943Y-574D01*
X-1942Y-574D01*
X-1942Y-573D01*
X-1941Y-573D01*
X-1939Y-573D01*
X-1938Y-572D01*
X-1938Y-572D01*
X-1937Y-572D01*
X-1937Y-572D01*
X-1936Y-572D01*
X-1936Y-572D01*
X-1935D01*
X-1934Y-572D01*
D02*
G37*
G36*
X-2054Y-573D02*
X-2053Y-573D01*
X-2053Y-573D01*
X-2053Y-573D01*
X-2053Y-573D01*
X-2053Y-573D01*
X-2053Y-574D01*
Y-574D01*
X-2053Y-574D01*
X-2053Y-574D01*
X-2053Y-574D01*
X-2053Y-574D01*
X-2053Y-575D01*
X-2054Y-575D01*
X-2054Y-575D01*
X-2060D01*
Y-593D01*
X-2052D01*
X-2051Y-593D01*
X-2051Y-593D01*
X-2051Y-593D01*
X-2051Y-593D01*
X-2050Y-593D01*
X-2050Y-594D01*
X-2050Y-594D01*
Y-594D01*
X-2050Y-594D01*
X-2051Y-594D01*
X-2051Y-595D01*
X-2051Y-595D01*
X-2051Y-595D01*
X-2051Y-595D01*
X-2052Y-595D01*
X-2071D01*
X-2071Y-595D01*
X-2072Y-595D01*
X-2072Y-595D01*
X-2072Y-595D01*
X-2072Y-594D01*
X-2072Y-594D01*
X-2072Y-594D01*
Y-594D01*
X-2072Y-594D01*
X-2072Y-593D01*
X-2072Y-593D01*
X-2072Y-593D01*
X-2072Y-593D01*
X-2071Y-593D01*
X-2071Y-593D01*
X-2062D01*
Y-573D01*
X-2054D01*
X-2054Y-573D01*
D02*
G37*
G36*
X-2044Y-217D02*
X-2043Y-217D01*
X-2043Y-218D01*
Y-218D01*
X-2043Y-219D01*
X-2044Y-220D01*
X-2045Y-221D01*
X-2045Y-221D01*
X-2047Y-222D01*
X-2049D01*
X-2050Y-221D01*
X-2050Y-221D01*
X-2052Y-220D01*
X-2054D01*
X-2055Y-221D01*
X-2055Y-221D01*
X-2057Y-222D01*
X-2057Y-222D01*
X-2058D01*
X-2055Y-220D01*
X-2054Y-219D01*
X-2052Y-218D01*
X-2051Y-217D01*
X-2050D01*
X-2048Y-217D01*
X-2045D01*
X-2044Y-217D01*
D02*
G37*
G36*
X-2137Y-234D02*
X-2136Y-235D01*
X-2136Y-236D01*
X-2135Y-236D01*
X-2135Y-237D01*
X-2134Y-239D01*
X-2135Y-239D01*
Y-239D01*
X-2135Y-240D01*
X-2136Y-240D01*
X-2139Y-240D01*
X-2141Y-241D01*
X-2141Y-241D01*
X-2142D01*
X-2143Y-241D01*
X-2146D01*
X-2146Y-241D01*
X-2147Y-241D01*
Y-240D01*
X-2147Y-240D01*
X-2146Y-239D01*
X-2146Y-239D01*
X-2146D01*
X-2145Y-239D01*
X-2145Y-238D01*
X-2144Y-238D01*
Y-238D01*
X-2145Y-237D01*
X-2146Y-237D01*
X-2146Y-237D01*
X-2147D01*
X-2148Y-237D01*
X-2149D01*
X-2148Y-237D01*
X-2148Y-237D01*
X-2147Y-236D01*
X-2147D01*
X-2146Y-236D01*
X-2146Y-236D01*
X-2144D01*
X-2143Y-236D01*
X-2143Y-236D01*
X-2142Y-237D01*
X-2141D01*
Y-236D01*
X-2141Y-235D01*
X-2140Y-234D01*
X-2139Y-234D01*
X-2139D01*
X-2137Y-234D01*
D02*
G37*
G36*
X-2056Y-211D02*
X-2055Y-211D01*
X-2054Y-212D01*
X-2054Y-212D01*
X-2053Y-213D01*
X-2052Y-214D01*
Y-214D01*
Y-214D01*
X-2053Y-215D01*
X-2054Y-216D01*
X-2056Y-216D01*
X-2058Y-216D01*
X-2059D01*
X-2061Y-215D01*
X-2062Y-215D01*
X-2062Y-215D01*
Y-214D01*
X-2061Y-213D01*
X-2061Y-213D01*
X-2060Y-213D01*
X-2059Y-212D01*
X-2058Y-211D01*
X-2057Y-211D01*
X-2057D01*
X-2056Y-211D01*
D02*
G37*
G36*
X-2024Y-212D02*
X-2023Y-213D01*
X-2023Y-213D01*
X-2023Y-214D01*
Y-215D01*
X-2023Y-215D01*
Y-216D01*
X-2024Y-216D01*
X-2024Y-216D01*
X-2025Y-217D01*
X-2025D01*
X-2026Y-216D01*
X-2027Y-216D01*
X-2027Y-215D01*
X-2027Y-214D01*
Y-214D01*
Y-213D01*
X-2027Y-213D01*
X-2026Y-212D01*
X-2024D01*
X-2024Y-212D01*
D02*
G37*
G36*
X-2114Y-236D02*
X-2113Y-237D01*
X-2114Y-237D01*
Y-238D01*
X-2114Y-238D01*
X-2115Y-239D01*
X-2115Y-239D01*
X-2116Y-239D01*
X-2116Y-238D01*
Y-238D01*
Y-238D01*
X-2116Y-237D01*
X-2115Y-236D01*
X-2114Y-236D01*
X-2114D01*
X-2114Y-236D01*
D02*
G37*
G36*
X-2127Y-244D02*
X-2127Y-245D01*
Y-246D01*
Y-246D01*
X-2127Y-248D01*
X-2128Y-249D01*
X-2128Y-250D01*
X-2128D01*
Y-250D01*
X-2129Y-248D01*
X-2129Y-248D01*
Y-247D01*
Y-246D01*
Y-245D01*
X-2129Y-244D01*
X-2128Y-243D01*
X-2128D01*
X-2127Y-244D01*
D02*
G37*
G36*
X-2088Y-247D02*
X-2088Y-247D01*
X-2087Y-248D01*
Y-248D01*
X-2087Y-249D01*
X-2087Y-250D01*
Y-251D01*
X-2087Y-251D01*
X-2088Y-252D01*
X-2089Y-251D01*
X-2090D01*
X-2090Y-251D01*
X-2091Y-250D01*
X-2091Y-249D01*
X-2091Y-248D01*
Y-248D01*
X-2091Y-247D01*
X-2090Y-247D01*
X-2089D01*
X-2088Y-247D01*
D02*
G37*
G36*
X-2097Y-239D02*
X-2096Y-240D01*
X-2096Y-240D01*
X-2096Y-241D01*
Y-241D01*
X-2096Y-242D01*
Y-242D01*
X-2097Y-243D01*
X-2098Y-243D01*
X-2099D01*
X-2100Y-243D01*
X-2101Y-242D01*
X-2101Y-242D01*
Y-241D01*
X-2101Y-240D01*
X-2100Y-240D01*
X-2099Y-239D01*
X-2099D01*
X-2098Y-239D01*
X-2097Y-239D01*
D02*
G37*
G36*
X-2133Y-245D02*
X-2133Y-246D01*
Y-246D01*
Y-248D01*
Y-248D01*
Y-248D01*
Y-249D01*
X-2133Y-249D01*
X-2134Y-249D01*
X-2135Y-248D01*
X-2136Y-248D01*
X-2136Y-248D01*
X-2137Y-247D01*
X-2137Y-246D01*
Y-245D01*
X-2136Y-245D01*
X-2136Y-244D01*
X-2135Y-244D01*
X-2134D01*
X-2133Y-245D01*
D02*
G37*
G36*
X-1902Y-589D02*
X-1901Y-589D01*
X-1901Y-589D01*
X-1901Y-589D01*
X-1900Y-590D01*
X-1900Y-590D01*
X-1900Y-590D01*
X-1900Y-590D01*
X-1900Y-590D01*
X-1899Y-591D01*
X-1899Y-591D01*
X-1899Y-591D01*
X-1899Y-592D01*
X-1899Y-592D01*
Y-592D01*
Y-592D01*
X-1899Y-593D01*
X-1899Y-593D01*
X-1899Y-594D01*
X-1899Y-594D01*
X-1900Y-594D01*
X-1900Y-595D01*
X-1900Y-595D01*
X-1900Y-595D01*
X-1900Y-595D01*
X-1901Y-595D01*
X-1901Y-596D01*
X-1902Y-596D01*
X-1902Y-596D01*
X-1902Y-596D01*
X-1903D01*
X-1904Y-596D01*
X-1904Y-596D01*
X-1905Y-596D01*
X-1905Y-595D01*
X-1905Y-595D01*
X-1906Y-595D01*
X-1906Y-595D01*
X-1906Y-595D01*
X-1906Y-594D01*
X-1906Y-594D01*
X-1907Y-594D01*
X-1907Y-593D01*
X-1907Y-593D01*
X-1907Y-593D01*
Y-592D01*
Y-592D01*
X-1907Y-592D01*
X-1907Y-591D01*
X-1907Y-591D01*
X-1906Y-591D01*
X-1906Y-590D01*
X-1906Y-590D01*
X-1906Y-590D01*
X-1906Y-590D01*
X-1905Y-590D01*
X-1905Y-589D01*
X-1905Y-589D01*
X-1904Y-589D01*
X-1904Y-589D01*
X-1904Y-589D01*
X-1902D01*
X-1902Y-589D01*
D02*
G37*
G36*
X-1965Y-572D02*
X-1964Y-572D01*
X-1964Y-572D01*
X-1963Y-572D01*
X-1961Y-573D01*
X-1961Y-573D01*
X-1960Y-574D01*
X-1960Y-574D01*
X-1959Y-574D01*
X-1959Y-575D01*
X-1958Y-575D01*
X-1958Y-575D01*
X-1958Y-575D01*
X-1958Y-575D01*
X-1958Y-575D01*
X-1957Y-576D01*
X-1956Y-577D01*
X-1956Y-578D01*
X-1956Y-578D01*
X-1955Y-579D01*
X-1955Y-580D01*
X-1955Y-581D01*
X-1954Y-582D01*
X-1954Y-582D01*
X-1954Y-583D01*
X-1954Y-583D01*
X-1954Y-583D01*
Y-584D01*
Y-584D01*
Y-584D01*
X-1954Y-585D01*
X-1954Y-586D01*
X-1954Y-586D01*
X-1955Y-587D01*
X-1955Y-589D01*
X-1956Y-590D01*
X-1956Y-590D01*
X-1957Y-591D01*
X-1957Y-591D01*
X-1957Y-592D01*
X-1957Y-592D01*
X-1957Y-592D01*
X-1958Y-592D01*
X-1958Y-592D01*
X-1958Y-593D01*
X-1959Y-593D01*
X-1960Y-594D01*
X-1960Y-594D01*
X-1961Y-595D01*
X-1962Y-595D01*
X-1963Y-595D01*
X-1964Y-596D01*
X-1964Y-596D01*
X-1965Y-596D01*
X-1965Y-596D01*
X-1966Y-596D01*
X-1966D01*
X-1967Y-596D01*
X-1968Y-596D01*
X-1969Y-595D01*
X-1970Y-595D01*
X-1971Y-595D01*
X-1972Y-594D01*
X-1973Y-594D01*
X-1973Y-593D01*
X-1974Y-593D01*
X-1974Y-593D01*
X-1974Y-593D01*
X-1975Y-592D01*
X-1975Y-592D01*
X-1975Y-592D01*
X-1975Y-592D01*
X-1976Y-591D01*
X-1976Y-590D01*
X-1977Y-590D01*
X-1977Y-589D01*
X-1977Y-588D01*
X-1978Y-587D01*
X-1978Y-586D01*
X-1978Y-586D01*
X-1978Y-585D01*
X-1978Y-585D01*
X-1978Y-584D01*
Y-584D01*
Y-584D01*
Y-584D01*
X-1978Y-583D01*
X-1978Y-582D01*
X-1978Y-581D01*
X-1978Y-580D01*
X-1977Y-579D01*
X-1977Y-578D01*
X-1976Y-577D01*
X-1976Y-577D01*
X-1976Y-576D01*
X-1975Y-576D01*
X-1975Y-576D01*
X-1975Y-576D01*
X-1975Y-575D01*
X-1975Y-575D01*
X-1974Y-575D01*
X-1973Y-574D01*
X-1973Y-574D01*
X-1972Y-573D01*
X-1971Y-573D01*
X-1971Y-573D01*
X-1969Y-572D01*
X-1969Y-572D01*
X-1968Y-572D01*
X-1968Y-572D01*
X-1967Y-572D01*
X-1967Y-572D01*
X-1966D01*
X-1965Y-572D01*
D02*
G37*
G36*
X-2180Y-573D02*
X-2180Y-573D01*
X-2180Y-573D01*
X-2180Y-573D01*
X-2180Y-573D01*
X-2179Y-573D01*
X-2179Y-574D01*
Y-574D01*
X-2179Y-574D01*
X-2180Y-574D01*
X-2180Y-574D01*
X-2180Y-574D01*
X-2180Y-575D01*
X-2180Y-575D01*
X-2181Y-575D01*
X-2187D01*
Y-593D01*
X-2179D01*
X-2178Y-593D01*
X-2178Y-593D01*
X-2178Y-593D01*
X-2177Y-593D01*
X-2177Y-593D01*
X-2177Y-594D01*
X-2177Y-594D01*
Y-594D01*
X-2177Y-594D01*
X-2177Y-594D01*
X-2177Y-595D01*
X-2177Y-595D01*
X-2178Y-595D01*
X-2178Y-595D01*
X-2179Y-595D01*
X-2198D01*
X-2198Y-595D01*
X-2199Y-595D01*
X-2199Y-595D01*
X-2199Y-595D01*
X-2199Y-594D01*
X-2199Y-594D01*
X-2199Y-594D01*
Y-594D01*
X-2199Y-594D01*
X-2199Y-593D01*
X-2199Y-593D01*
X-2199Y-593D01*
X-2199Y-593D01*
X-2198Y-593D01*
X-2198Y-593D01*
X-2189D01*
Y-573D01*
X-2181D01*
X-2180Y-573D01*
D02*
G37*
G36*
X-2212Y-563D02*
X-2212Y-563D01*
X-2211Y-563D01*
X-2211Y-563D01*
X-2211Y-563D01*
X-2211Y-563D01*
X-2211Y-564D01*
Y-564D01*
X-2211Y-564D01*
X-2211Y-564D01*
X-2211Y-564D01*
X-2211Y-564D01*
X-2212Y-565D01*
X-2212Y-565D01*
X-2212Y-565D01*
X-2219D01*
Y-593D01*
X-2210D01*
X-2210Y-593D01*
X-2209Y-593D01*
X-2209Y-593D01*
X-2209Y-593D01*
X-2209Y-593D01*
X-2209Y-594D01*
X-2209Y-594D01*
Y-594D01*
X-2209Y-594D01*
X-2209Y-594D01*
X-2209Y-595D01*
X-2209Y-595D01*
X-2210Y-595D01*
X-2210Y-595D01*
X-2210Y-595D01*
X-2229D01*
X-2230Y-595D01*
X-2230Y-595D01*
X-2231Y-595D01*
X-2231Y-595D01*
X-2231Y-594D01*
X-2231Y-594D01*
X-2231Y-594D01*
Y-594D01*
X-2231Y-594D01*
X-2231Y-593D01*
X-2231Y-593D01*
X-2231Y-593D01*
X-2230Y-593D01*
X-2230Y-593D01*
X-2230Y-593D01*
X-2221D01*
Y-563D01*
X-2213D01*
X-2212Y-563D01*
D02*
G37*
G36*
X-2038Y-559D02*
X-2038Y-559D01*
X-2038Y-559D01*
X-2038Y-559D01*
X-2038Y-560D01*
X-2038Y-560D01*
X-2038Y-560D01*
X-2037Y-560D01*
X-2020Y-597D01*
X-2020Y-598D01*
X-2020Y-598D01*
X-2020Y-598D01*
Y-598D01*
X-2020Y-599D01*
X-2020Y-599D01*
X-2020Y-599D01*
X-2020Y-599D01*
X-2020Y-599D01*
X-2021Y-599D01*
X-2021Y-599D01*
X-2021D01*
X-2021Y-599D01*
X-2021Y-599D01*
X-2022Y-599D01*
X-2022Y-599D01*
X-2022Y-598D01*
Y-598D01*
X-2039Y-561D01*
X-2040Y-561D01*
X-2040Y-560D01*
Y-560D01*
Y-560D01*
X-2040Y-560D01*
X-2040Y-560D01*
X-2039Y-560D01*
X-2039Y-559D01*
X-2039Y-559D01*
X-2039Y-559D01*
X-2039Y-559D01*
X-2039D01*
X-2038Y-559D01*
D02*
G37*
G36*
X-1948Y-187D02*
X-1947Y-188D01*
X-1947Y-188D01*
Y-188D01*
X-1947Y-189D01*
X-1948Y-190D01*
X-1948Y-190D01*
X-1950D01*
X-1952Y-190D01*
X-1952Y-189D01*
X-1952Y-189D01*
X-1953Y-188D01*
Y-188D01*
Y-187D01*
X-1952Y-187D01*
X-1949D01*
X-1948Y-187D01*
D02*
G37*
G36*
X-2164Y-205D02*
X-2164Y-206D01*
Y-207D01*
Y-207D01*
Y-208D01*
Y-208D01*
X-2164Y-209D01*
X-2164Y-208D01*
X-2165Y-208D01*
X-2165Y-207D01*
X-2165Y-206D01*
X-2165Y-205D01*
Y-205D01*
X-2164Y-205D01*
D02*
G37*
G36*
X-2205Y-97D02*
X-2203Y-97D01*
X-2198Y-98D01*
X-2196Y-99D01*
X-2195Y-100D01*
X-2194Y-100D01*
X-2193Y-101D01*
X-2191Y-101D01*
X-2189Y-102D01*
X-2184Y-105D01*
X-2178Y-108D01*
X-2172Y-110D01*
X-2167Y-113D01*
X-2164Y-114D01*
X-2162Y-115D01*
X-2161Y-116D01*
X-2159Y-117D01*
X-2158Y-117D01*
X-2158Y-117D01*
X-2151Y-121D01*
X-2144Y-125D01*
X-2139Y-127D01*
X-2134Y-130D01*
X-2130Y-132D01*
X-2126Y-134D01*
X-2124Y-135D01*
X-2122Y-137D01*
X-2120Y-138D01*
X-2119Y-138D01*
X-2118Y-139D01*
X-2117Y-140D01*
X-2117Y-140D01*
X-2116Y-141D01*
X-2116Y-141D01*
X-2115Y-142D01*
X-2113Y-143D01*
X-2113Y-143D01*
X-2113D01*
X-2111Y-144D01*
X-2108Y-145D01*
X-2106Y-147D01*
X-2103Y-148D01*
X-2100Y-150D01*
X-2098Y-151D01*
X-2096Y-152D01*
X-2096Y-152D01*
X-2091Y-155D01*
X-2085Y-157D01*
X-2080Y-160D01*
X-2075Y-163D01*
X-2070Y-165D01*
X-2068Y-166D01*
X-2066Y-167D01*
X-2065Y-168D01*
X-2064Y-168D01*
X-2063Y-169D01*
X-2063D01*
X-2059Y-171D01*
X-2055Y-173D01*
X-2046Y-178D01*
X-2036Y-183D01*
X-2027Y-187D01*
X-2023Y-189D01*
X-2019Y-191D01*
X-2016Y-193D01*
X-2013Y-194D01*
X-2010Y-196D01*
X-2008Y-196D01*
X-2007Y-197D01*
X-2007Y-197D01*
X-2003Y-199D01*
X-2001Y-200D01*
X-1999Y-201D01*
X-1997Y-201D01*
X-1996Y-202D01*
X-1995Y-201D01*
X-1995D01*
X-1995Y-201D01*
X-1995Y-200D01*
X-1996Y-200D01*
X-1997Y-199D01*
X-1997D01*
X-1999Y-199D01*
X-2000Y-198D01*
X-2001Y-197D01*
Y-197D01*
X-2002Y-196D01*
X-2003Y-195D01*
X-2004Y-196D01*
X-2006D01*
X-2007Y-195D01*
X-2008Y-195D01*
X-2008Y-194D01*
X-2009Y-194D01*
Y-193D01*
X-2008D01*
X-2008Y-193D01*
X-2007D01*
X-2007Y-194D01*
X-2006D01*
X-2004Y-193D01*
X-2003Y-192D01*
X-2002Y-192D01*
X-2002D01*
X-2001Y-191D01*
X-1999Y-191D01*
X-1998Y-190D01*
X-1998Y-191D01*
X-1997Y-191D01*
X-1997Y-192D01*
X-1996Y-192D01*
X-1995D01*
X-1995Y-192D01*
X-1995Y-192D01*
X-1993Y-193D01*
X-1992Y-194D01*
X-1992Y-194D01*
X-1991Y-195D01*
X-1991Y-196D01*
X-1990Y-196D01*
X-1987D01*
X-1985Y-197D01*
X-1984Y-197D01*
X-1983Y-198D01*
X-1983D01*
X-1981Y-199D01*
X-1980Y-199D01*
X-1979Y-199D01*
X-1979D01*
X-1978Y-198D01*
X-1978Y-197D01*
Y-196D01*
X-1979Y-195D01*
Y-194D01*
Y-194D01*
Y-193D01*
X-1978Y-193D01*
X-1977D01*
X-1976Y-193D01*
X-1975Y-192D01*
X-1975Y-191D01*
X-1974Y-190D01*
X-1973Y-188D01*
X-1971Y-186D01*
X-1969Y-185D01*
X-1968Y-185D01*
X-1968D01*
X-1967Y-184D01*
X-1965Y-184D01*
X-1964Y-183D01*
X-1963Y-184D01*
X-1963Y-184D01*
X-1962Y-184D01*
X-1962D01*
X-1960Y-183D01*
X-1959Y-182D01*
X-1959Y-182D01*
X-1958D01*
X-1958Y-181D01*
X-1957Y-180D01*
X-1956Y-179D01*
X-1956Y-180D01*
X-1957Y-180D01*
X-1957Y-181D01*
X-1958Y-183D01*
X-1958Y-184D01*
X-1958Y-185D01*
Y-185D01*
X-1957Y-186D01*
X-1956Y-187D01*
X-1954Y-190D01*
X-1953Y-191D01*
X-1952Y-192D01*
X-1952Y-192D01*
X-1951Y-193D01*
X-1950Y-194D01*
X-1948Y-196D01*
X-1947Y-196D01*
X-1946Y-197D01*
X-1945Y-198D01*
X-1945D01*
Y-198D01*
X-1946Y-196D01*
X-1946Y-195D01*
Y-194D01*
Y-194D01*
X-1945Y-193D01*
X-1944Y-192D01*
X-1943Y-191D01*
X-1943Y-191D01*
X-1942D01*
X-1940Y-188D01*
X-1941D01*
X-1943Y-188D01*
X-1944Y-187D01*
X-1947Y-185D01*
X-1949Y-183D01*
X-1949Y-183D01*
X-1949Y-182D01*
X-1951Y-180D01*
X-1952Y-179D01*
X-1952Y-177D01*
X-1952Y-176D01*
Y-174D01*
Y-174D01*
X-1952Y-172D01*
X-1951Y-171D01*
X-1950Y-171D01*
X-1949D01*
X-1948Y-171D01*
Y-172D01*
X-1949Y-172D01*
X-1949Y-172D01*
X-1950Y-173D01*
X-1950Y-174D01*
X-1950Y-175D01*
X-1949Y-175D01*
X-1949Y-176D01*
X-1948D01*
X-1947Y-175D01*
X-1947Y-174D01*
Y-174D01*
X-1946Y-172D01*
X-1946Y-172D01*
X-1944Y-170D01*
X-1943Y-169D01*
X-1942Y-168D01*
X-1942D01*
X-1938Y-167D01*
X-1935Y-167D01*
X-1931D01*
X-1927Y-167D01*
X-1924Y-168D01*
X-1923Y-169D01*
X-1922Y-169D01*
X-1922D01*
X-1921Y-170D01*
X-1920Y-171D01*
X-1919Y-172D01*
X-1919Y-174D01*
Y-174D01*
X-1919Y-175D01*
X-1919D01*
X-1920Y-175D01*
X-1922Y-174D01*
X-1922Y-173D01*
X-1925Y-172D01*
X-1928Y-171D01*
X-1929D01*
X-1930Y-171D01*
X-1935D01*
X-1937Y-171D01*
X-1939Y-172D01*
X-1939Y-172D01*
X-1940Y-173D01*
X-1940Y-173D01*
Y-173D01*
Y-173D01*
X-1940Y-172D01*
Y-172D01*
X-1939Y-171D01*
Y-171D01*
X-1940Y-170D01*
X-1940D01*
X-1941Y-171D01*
X-1942Y-172D01*
X-1944Y-174D01*
X-1944Y-174D01*
X-1944Y-175D01*
X-1945Y-176D01*
X-1946Y-177D01*
X-1946Y-178D01*
X-1947Y-179D01*
X-1946Y-179D01*
X-1946Y-180D01*
X-1945Y-180D01*
X-1944D01*
X-1943Y-180D01*
X-1942Y-179D01*
X-1941Y-179D01*
X-1939D01*
X-1939Y-179D01*
X-1937Y-179D01*
X-1936Y-180D01*
X-1935Y-180D01*
X-1928D01*
X-1927Y-180D01*
X-1926Y-180D01*
X-1926Y-179D01*
X-1925Y-178D01*
X-1924D01*
X-1923Y-179D01*
X-1922Y-178D01*
X-1920Y-178D01*
X-1919Y-177D01*
X-1918Y-177D01*
X-1918D01*
X-1916Y-175D01*
X-1915Y-173D01*
X-1915Y-172D01*
Y-172D01*
X-1915Y-170D01*
X-1914Y-170D01*
X-1913Y-169D01*
X-1912Y-170D01*
X-1911Y-171D01*
X-1910Y-172D01*
X-1910Y-172D01*
X-1907Y-176D01*
X-1905Y-178D01*
X-1904Y-181D01*
X-1903Y-184D01*
X-1902Y-186D01*
X-1902Y-187D01*
Y-188D01*
Y-188D01*
X-1902Y-192D01*
X-1903Y-195D01*
X-1903Y-197D01*
X-1904Y-199D01*
X-1905Y-200D01*
X-1906Y-200D01*
X-1906Y-200D01*
X-1907D01*
X-1908Y-201D01*
X-1909Y-201D01*
X-1909Y-201D01*
Y-202D01*
X-1908Y-202D01*
X-1908Y-203D01*
X-1908Y-203D01*
X-1907Y-204D01*
X-1906Y-205D01*
X-1906Y-207D01*
X-1906Y-208D01*
Y-208D01*
Y-209D01*
X-1907Y-210D01*
X-1908Y-211D01*
X-1908Y-212D01*
X-1909Y-212D01*
X-1910D01*
Y-212D01*
Y-213D01*
Y-213D01*
Y-214D01*
X-1911Y-215D01*
X-1911Y-216D01*
X-1911Y-216D01*
X-1912Y-217D01*
X-1914Y-219D01*
X-1915Y-220D01*
X-1916Y-220D01*
X-1918Y-222D01*
X-1920Y-223D01*
X-1921Y-224D01*
X-1921Y-224D01*
X-1925Y-226D01*
X-1929Y-227D01*
X-1930D01*
X-1931Y-227D01*
X-1934D01*
X-1936Y-227D01*
X-1936Y-228D01*
X-1936D01*
X-1937Y-228D01*
X-1938Y-229D01*
Y-230D01*
Y-230D01*
X-1937Y-232D01*
X-1937Y-233D01*
X-1936Y-233D01*
X-1936D01*
X-1935Y-233D01*
X-1934Y-234D01*
X-1933Y-234D01*
X-1930Y-236D01*
X-1925Y-238D01*
X-1920Y-240D01*
X-1915Y-243D01*
X-1909Y-246D01*
X-1903Y-249D01*
X-1896Y-252D01*
X-1890Y-255D01*
X-1885Y-258D01*
X-1880Y-260D01*
X-1876Y-262D01*
X-1872Y-264D01*
X-1871Y-264D01*
X-1870Y-265D01*
X-1870Y-265D01*
X-1870D01*
X-1864Y-268D01*
X-1858Y-271D01*
X-1853Y-273D01*
X-1848Y-276D01*
X-1844Y-278D01*
X-1840Y-280D01*
X-1832Y-283D01*
X-1825Y-287D01*
X-1820Y-289D01*
X-1816Y-291D01*
X-1812Y-293D01*
X-1809Y-294D01*
X-1807Y-295D01*
X-1805Y-295D01*
X-1804Y-296D01*
X-1803D01*
X-1803Y-296D01*
X-1802D01*
X-1801Y-297D01*
X-1798Y-298D01*
X-1796Y-299D01*
X-1793Y-300D01*
X-1790Y-301D01*
X-1783Y-304D01*
X-1776Y-307D01*
X-1773Y-309D01*
X-1770Y-310D01*
X-1768Y-311D01*
X-1766Y-312D01*
X-1765Y-313D01*
X-1765Y-313D01*
X-1758Y-316D01*
X-1752Y-319D01*
X-1746Y-322D01*
X-1741Y-325D01*
X-1736Y-328D01*
X-1731Y-330D01*
X-1727Y-332D01*
X-1723Y-334D01*
X-1719Y-336D01*
X-1716Y-338D01*
X-1713Y-339D01*
X-1711Y-340D01*
X-1709Y-341D01*
X-1708Y-342D01*
X-1707Y-342D01*
X-1707D01*
X-1704Y-343D01*
X-1701Y-345D01*
X-1699Y-346D01*
X-1697Y-347D01*
X-1696Y-347D01*
X-1694Y-348D01*
X-1694Y-348D01*
X-1694D01*
X-1691Y-350D01*
X-1689Y-351D01*
X-1688Y-352D01*
X-1686Y-353D01*
X-1686Y-354D01*
X-1685Y-354D01*
X-1685Y-355D01*
X-1685Y-356D01*
X-1685Y-356D01*
X-1686D01*
X-1687Y-356D01*
X-1689Y-357D01*
X-1690Y-358D01*
X-1690Y-358D01*
X-1691Y-359D01*
X-1693Y-360D01*
X-1695Y-363D01*
X-1697Y-363D01*
X-1698Y-364D01*
X-1699Y-365D01*
X-1699Y-365D01*
X-1701Y-366D01*
X-1702Y-367D01*
X-1703Y-368D01*
X-1704Y-369D01*
X-1705Y-371D01*
Y-371D01*
X-1704Y-372D01*
X-1704Y-372D01*
X-1703Y-373D01*
X-1701D01*
Y-373D01*
X-1702Y-373D01*
X-1703Y-374D01*
X-1703Y-374D01*
X-1704Y-375D01*
X-1705Y-375D01*
X-1706Y-375D01*
X-1706D01*
X-1707Y-375D01*
X-1707Y-375D01*
X-1708Y-374D01*
Y-373D01*
X-1708Y-372D01*
X-1709Y-373D01*
X-1710Y-373D01*
X-1711Y-374D01*
X-1714Y-376D01*
X-1716Y-377D01*
X-1722Y-380D01*
X-1727Y-384D01*
X-1729Y-386D01*
X-1732Y-387D01*
X-1734Y-388D01*
X-1735Y-389D01*
X-1736Y-390D01*
X-1736Y-390D01*
X-1740Y-392D01*
X-1737Y-394D01*
X-1733Y-395D01*
X-1739D01*
X-1742Y-395D01*
X-1743Y-395D01*
X-1744Y-395D01*
X-1747D01*
X-1750Y-395D01*
X-1752Y-394D01*
X-1753Y-394D01*
X-1753Y-393D01*
X-1754D01*
X-1756Y-392D01*
X-1758Y-391D01*
X-1761Y-389D01*
X-1765Y-387D01*
X-1769Y-385D01*
X-1773Y-383D01*
X-1783Y-378D01*
X-1787Y-376D01*
X-1792Y-373D01*
X-1796Y-371D01*
X-1799Y-369D01*
X-1802Y-368D01*
X-1805Y-367D01*
X-1806Y-366D01*
X-1806Y-366D01*
X-1812Y-363D01*
X-1817Y-360D01*
X-1821Y-358D01*
X-1825Y-356D01*
X-1829Y-354D01*
X-1833Y-352D01*
X-1836Y-351D01*
X-1839Y-349D01*
X-1841Y-348D01*
X-1844Y-347D01*
X-1845Y-346D01*
X-1847Y-345D01*
X-1848Y-344D01*
X-1849Y-344D01*
X-1849Y-344D01*
X-1850D01*
X-1854Y-342D01*
X-1857Y-340D01*
X-1860Y-339D01*
X-1861Y-338D01*
X-1862Y-337D01*
X-1863Y-337D01*
X-1864Y-336D01*
X-1864Y-336D01*
X-1864Y-335D01*
X-1864Y-335D01*
X-1864Y-334D01*
X-1863D01*
Y-334D01*
X-1864Y-334D01*
X-1864Y-333D01*
X-1865Y-332D01*
X-1868Y-331D01*
X-1871Y-329D01*
X-1874Y-327D01*
X-1877Y-325D01*
X-1878Y-325D01*
X-1879Y-324D01*
X-1879Y-324D01*
X-1880D01*
X-1886Y-320D01*
X-1891Y-318D01*
X-1896Y-315D01*
X-1900Y-313D01*
X-1902Y-312D01*
X-1904Y-311D01*
X-1905Y-311D01*
X-1905Y-310D01*
X-1914Y-306D01*
X-1923Y-301D01*
X-1931Y-297D01*
X-1939Y-293D01*
X-1943Y-291D01*
X-1946Y-289D01*
X-1949Y-287D01*
X-1952Y-286D01*
X-1954Y-285D01*
X-1955Y-284D01*
X-1956Y-284D01*
X-1956Y-284D01*
X-1962Y-281D01*
X-1966Y-279D01*
X-1970Y-277D01*
X-1974Y-276D01*
X-1977Y-274D01*
X-1979Y-273D01*
X-1981Y-272D01*
X-1983Y-271D01*
X-1984Y-271D01*
X-1985Y-271D01*
X-1987Y-270D01*
X-1987D01*
X-1988Y-270D01*
X-1989Y-271D01*
X-1991Y-271D01*
X-1995D01*
X-1996Y-271D01*
X-1996Y-272D01*
X-1997D01*
X-1997Y-272D01*
X-1998Y-273D01*
Y-275D01*
Y-275D01*
X-1998Y-276D01*
X-1999Y-278D01*
X-1999Y-279D01*
X-1999Y-280D01*
X-2001Y-282D01*
X-2002Y-283D01*
X-2003Y-284D01*
X-2003Y-284D01*
X-2005Y-285D01*
X-2006Y-285D01*
X-2007Y-285D01*
X-2007D01*
Y-286D01*
Y-286D01*
Y-287D01*
X-2007Y-288D01*
X-2008Y-290D01*
X-2009Y-291D01*
X-2010Y-292D01*
X-2010Y-293D01*
X-2011Y-293D01*
X-2012Y-295D01*
X-2014Y-297D01*
X-2016Y-300D01*
X-2017Y-301D01*
X-2017Y-302D01*
X-2018Y-303D01*
X-2020Y-305D01*
X-2023Y-307D01*
X-2026Y-308D01*
X-2028Y-310D01*
X-2031Y-312D01*
X-2032Y-313D01*
X-2033Y-313D01*
X-2038Y-316D01*
X-2042Y-318D01*
X-2045Y-320D01*
X-2048Y-321D01*
X-2050Y-323D01*
X-2051Y-323D01*
X-2052Y-324D01*
X-2052D01*
X-2057Y-327D01*
X-2053Y-323D01*
X-2048Y-319D01*
X-2055Y-323D01*
X-2057Y-324D01*
X-2059Y-325D01*
X-2060Y-326D01*
X-2061Y-327D01*
X-2061Y-327D01*
X-2061Y-327D01*
Y-328D01*
X-2062Y-329D01*
X-2063Y-330D01*
X-2064Y-331D01*
X-2066Y-332D01*
X-2068Y-334D01*
X-2070Y-335D01*
X-2071Y-335D01*
X-2071Y-336D01*
X-2075Y-338D01*
X-2078Y-339D01*
X-2079Y-341D01*
X-2081Y-342D01*
X-2081Y-343D01*
X-2082Y-343D01*
Y-343D01*
Y-344D01*
X-2082Y-344D01*
X-2083Y-344D01*
X-2084Y-344D01*
X-2085Y-344D01*
X-2086Y-344D01*
X-2087Y-345D01*
X-2088Y-346D01*
X-2089Y-347D01*
X-2089Y-347D01*
Y-348D01*
X-2090Y-349D01*
X-2091Y-351D01*
X-2091Y-351D01*
X-2091Y-352D01*
X-2092Y-352D01*
X-2094D01*
X-2094Y-352D01*
Y-352D01*
X-2095Y-351D01*
X-2095Y-351D01*
X-2096Y-351D01*
X-2097D01*
X-2099Y-352D01*
X-2101Y-352D01*
X-2104D01*
X-2105Y-353D01*
Y-353D01*
Y-353D01*
Y-354D01*
X-2105D01*
X-2106Y-353D01*
X-2106Y-353D01*
X-2107Y-352D01*
X-2107Y-351D01*
X-2108Y-350D01*
Y-350D01*
Y-350D01*
X-2107Y-349D01*
X-2107Y-348D01*
X-2107Y-348D01*
X-2106Y-347D01*
X-2105Y-347D01*
X-2105Y-347D01*
X-2104Y-346D01*
X-2105Y-346D01*
X-2106Y-346D01*
X-2107Y-347D01*
X-2108Y-348D01*
X-2109Y-348D01*
X-2111Y-350D01*
X-2113Y-351D01*
X-2115Y-351D01*
X-2115Y-351D01*
X-2116D01*
X-2117Y-352D01*
X-2118Y-352D01*
X-2120Y-352D01*
X-2121D01*
X-2121Y-351D01*
X-2122Y-351D01*
X-2123Y-351D01*
X-2124Y-351D01*
X-2126D01*
X-2128Y-350D01*
X-2130Y-349D01*
X-2131Y-349D01*
X-2131D01*
X-2133Y-348D01*
X-2135Y-347D01*
X-2136Y-347D01*
X-2137Y-347D01*
X-2138Y-346D01*
X-2138Y-346D01*
X-2138Y-345D01*
X-2139Y-345D01*
X-2141Y-344D01*
X-2143Y-343D01*
X-2143Y-343D01*
X-2144D01*
X-2145Y-342D01*
X-2147Y-342D01*
X-2147Y-341D01*
X-2148Y-341D01*
X-2149Y-339D01*
X-2150Y-338D01*
X-2150Y-336D01*
X-2151Y-336D01*
X-2153Y-332D01*
X-2155Y-328D01*
X-2158Y-325D01*
X-2160Y-322D01*
X-2162Y-320D01*
X-2163Y-319D01*
X-2164Y-317D01*
X-2165Y-317D01*
X-2166Y-315D01*
X-2166Y-314D01*
X-2167Y-312D01*
X-2168Y-310D01*
Y-310D01*
Y-309D01*
Y-307D01*
Y-305D01*
X-2168Y-299D01*
X-2169Y-297D01*
X-2169Y-295D01*
X-2169Y-293D01*
Y-292D01*
X-2170Y-288D01*
X-2170Y-284D01*
Y-282D01*
Y-280D01*
Y-278D01*
X-2170Y-277D01*
X-2170Y-276D01*
Y-276D01*
X-2169Y-275D01*
X-2169Y-274D01*
Y-273D01*
Y-273D01*
X-2169Y-272D01*
X-2170Y-271D01*
X-2170Y-270D01*
Y-270D01*
X-2171Y-269D01*
X-2172D01*
X-2173Y-270D01*
X-2173Y-270D01*
X-2174Y-270D01*
Y-271D01*
X-2173Y-272D01*
X-2172Y-272D01*
X-2172Y-273D01*
X-2171Y-273D01*
X-2170Y-274D01*
X-2170Y-274D01*
X-2170Y-275D01*
X-2172Y-274D01*
X-2173Y-274D01*
X-2174Y-273D01*
X-2175Y-273D01*
X-2176Y-272D01*
X-2176Y-271D01*
X-2176Y-271D01*
X-2176Y-270D01*
X-2176Y-269D01*
X-2175Y-269D01*
X-2175Y-268D01*
X-2174Y-267D01*
X-2174Y-266D01*
Y-265D01*
Y-265D01*
X-2173Y-265D01*
X-2173Y-264D01*
X-2173Y-264D01*
X-2172D01*
Y-264D01*
Y-264D01*
X-2172Y-263D01*
X-2172Y-263D01*
X-2173Y-262D01*
X-2174Y-262D01*
X-2174Y-262D01*
X-2174Y-261D01*
X-2172D01*
X-2171Y-262D01*
X-2170Y-263D01*
Y-264D01*
Y-264D01*
X-2170Y-266D01*
X-2170Y-268D01*
X-2169Y-268D01*
X-2169Y-269D01*
X-2168Y-269D01*
X-2167Y-269D01*
X-2167D01*
X-2167Y-269D01*
Y-269D01*
Y-268D01*
X-2167Y-267D01*
Y-266D01*
X-2167Y-263D01*
X-2167Y-261D01*
X-2167Y-260D01*
X-2166Y-260D01*
X-2166Y-260D01*
X-2166D01*
Y-260D01*
Y-261D01*
X-2166Y-261D01*
Y-261D01*
X-2166Y-262D01*
Y-263D01*
X-2166Y-263D01*
Y-264D01*
X-2165Y-264D01*
X-2165Y-264D01*
X-2164Y-265D01*
X-2164D01*
X-2163Y-264D01*
X-2162Y-264D01*
X-2162Y-264D01*
X-2161D01*
X-2161Y-263D01*
X-2160Y-262D01*
X-2160Y-260D01*
X-2160Y-258D01*
Y-257D01*
Y-257D01*
X-2160Y-255D01*
Y-253D01*
Y-252D01*
X-2160Y-252D01*
X-2159Y-251D01*
X-2158D01*
X-2158Y-251D01*
X-2158Y-250D01*
X-2158Y-250D01*
X-2158Y-250D01*
X-2160Y-248D01*
X-2161Y-247D01*
X-2161Y-246D01*
Y-245D01*
X-2162Y-242D01*
X-2161Y-240D01*
X-2161Y-239D01*
X-2161Y-239D01*
X-2160Y-237D01*
Y-236D01*
X-2160Y-235D01*
Y-235D01*
X-2161Y-234D01*
X-2162Y-233D01*
X-2164D01*
X-2165Y-233D01*
X-2167Y-232D01*
X-2168Y-230D01*
X-2168Y-230D01*
Y-230D01*
X-2170Y-227D01*
X-2171Y-224D01*
X-2172Y-222D01*
Y-222D01*
X-2172Y-221D01*
Y-221D01*
Y-219D01*
Y-217D01*
Y-216D01*
Y-216D01*
X-2172Y-215D01*
X-2171Y-214D01*
X-2170Y-214D01*
X-2170Y-214D01*
X-2169Y-213D01*
X-2167D01*
X-2164Y-214D01*
X-2163Y-215D01*
X-2162Y-215D01*
X-2161Y-216D01*
X-2161D01*
X-2158Y-217D01*
X-2156Y-217D01*
X-2155Y-218D01*
X-2155D01*
X-2154Y-217D01*
X-2153Y-217D01*
X-2152Y-216D01*
X-2151Y-216D01*
X-2150Y-214D01*
X-2149Y-213D01*
X-2149Y-212D01*
Y-212D01*
X-2149Y-210D01*
X-2150Y-209D01*
X-2151Y-208D01*
X-2152Y-208D01*
X-2154Y-207D01*
X-2156Y-207D01*
X-2157Y-207D01*
X-2157D01*
X-2158Y-208D01*
X-2158Y-208D01*
X-2159D01*
Y-208D01*
X-2158Y-206D01*
X-2158Y-205D01*
X-2157Y-205D01*
X-2156Y-204D01*
X-2155Y-204D01*
X-2154D01*
X-2153Y-204D01*
X-2153Y-205D01*
X-2152Y-205D01*
X-2152Y-206D01*
X-2152Y-206D01*
X-2151Y-206D01*
Y-205D01*
Y-205D01*
X-2151Y-205D01*
X-2151Y-205D01*
X-2150Y-206D01*
X-2150Y-207D01*
X-2149Y-208D01*
X-2147Y-209D01*
X-2146Y-209D01*
X-2146D01*
X-2145Y-209D01*
X-2144Y-210D01*
X-2142Y-212D01*
X-2141Y-214D01*
X-2140Y-214D01*
X-2140Y-215D01*
X-2138Y-218D01*
X-2137Y-221D01*
Y-223D01*
X-2137Y-224D01*
Y-224D01*
Y-224D01*
X-2137Y-226D01*
X-2138Y-228D01*
X-2138Y-230D01*
X-2138Y-230D01*
X-2140Y-232D01*
X-2141Y-233D01*
X-2142Y-233D01*
X-2142D01*
X-2144Y-233D01*
X-2146Y-234D01*
X-2147Y-234D01*
X-2148Y-235D01*
X-2149Y-235D01*
X-2150Y-236D01*
X-2150Y-237D01*
Y-237D01*
X-2151Y-238D01*
Y-240D01*
Y-241D01*
Y-241D01*
Y-242D01*
X-2150Y-244D01*
X-2150Y-247D01*
X-2150Y-249D01*
X-2150Y-250D01*
X-2149Y-251D01*
Y-252D01*
X-2149Y-252D01*
X-2148Y-253D01*
X-2147Y-253D01*
X-2146D01*
X-2145Y-253D01*
X-2144D01*
X-2142Y-253D01*
X-2142Y-254D01*
X-2142Y-255D01*
X-2141Y-255D01*
X-2140Y-256D01*
X-2138Y-256D01*
X-2137Y-256D01*
X-2136Y-255D01*
X-2136D01*
X-2134Y-255D01*
X-2132Y-254D01*
X-2131Y-255D01*
X-2130D01*
X-2129Y-254D01*
X-2128Y-254D01*
X-2128Y-253D01*
X-2126Y-252D01*
X-2124Y-251D01*
X-2122Y-251D01*
X-2122D01*
X-2120Y-251D01*
X-2118Y-252D01*
X-2117Y-253D01*
X-2117Y-253D01*
X-2116Y-254D01*
Y-255D01*
Y-256D01*
Y-256D01*
X-2118Y-257D01*
X-2119Y-258D01*
X-2121Y-259D01*
X-2121Y-259D01*
X-2121D01*
X-2122Y-259D01*
Y-260D01*
X-2121Y-261D01*
X-2120Y-262D01*
X-2119Y-262D01*
X-2117Y-264D01*
X-2114Y-266D01*
X-2113Y-268D01*
X-2112Y-268D01*
X-2112Y-268D01*
X-2111Y-270D01*
X-2110Y-271D01*
X-2109Y-272D01*
X-2108Y-273D01*
Y-273D01*
X-2109Y-274D01*
X-2110Y-274D01*
X-2111Y-275D01*
X-2111D01*
X-2112Y-275D01*
X-2113Y-276D01*
Y-277D01*
X-2112Y-278D01*
X-2111Y-280D01*
X-2111Y-281D01*
X-2110Y-281D01*
X-2109Y-282D01*
X-2108Y-283D01*
X-2107Y-284D01*
X-2105Y-284D01*
X-2104D01*
X-2103Y-284D01*
X-2102Y-286D01*
X-2100Y-288D01*
X-2100Y-288D01*
Y-289D01*
X-2098Y-291D01*
X-2097Y-292D01*
X-2097Y-292D01*
X-2096Y-293D01*
X-2096Y-293D01*
X-2095Y-293D01*
X-2094Y-292D01*
X-2094D01*
X-2092Y-291D01*
X-2091Y-291D01*
X-2091Y-290D01*
Y-290D01*
X-2090Y-289D01*
X-2090Y-290D01*
X-2089Y-290D01*
X-2089Y-290D01*
X-2087Y-291D01*
X-2086Y-292D01*
X-2085Y-294D01*
X-2084Y-294D01*
X-2082Y-296D01*
X-2080Y-298D01*
X-2079Y-299D01*
X-2079Y-299D01*
X-2075Y-303D01*
X-2072Y-306D01*
X-2070Y-308D01*
X-2069Y-310D01*
X-2068Y-311D01*
X-2067Y-311D01*
Y-312D01*
X-2068Y-312D01*
X-2069Y-313D01*
X-2071Y-314D01*
X-2072Y-315D01*
X-2072Y-315D01*
X-2073D01*
X-2074Y-315D01*
X-2075Y-316D01*
X-2076Y-317D01*
X-2077Y-318D01*
X-2077Y-319D01*
Y-319D01*
Y-321D01*
X-2077Y-322D01*
X-2077Y-322D01*
X-2076Y-322D01*
X-2074Y-321D01*
X-2071Y-319D01*
X-2069Y-319D01*
X-2068Y-318D01*
X-2067Y-317D01*
X-2066Y-317D01*
X-2063Y-315D01*
X-2061Y-313D01*
X-2059Y-312D01*
X-2058Y-311D01*
X-2057Y-310D01*
X-2057Y-310D01*
X-2056Y-309D01*
X-2056Y-308D01*
X-2055Y-308D01*
X-2058Y-310D01*
X-2059Y-311D01*
X-2060Y-311D01*
X-2061Y-311D01*
X-2062Y-311D01*
X-2062Y-311D01*
X-2063Y-310D01*
X-2064Y-309D01*
X-2065D01*
X-2065Y-309D01*
X-2066Y-308D01*
X-2067Y-307D01*
X-2067Y-305D01*
Y-305D01*
Y-304D01*
X-2068Y-303D01*
X-2069Y-301D01*
X-2071Y-297D01*
X-2072Y-296D01*
X-2073Y-295D01*
X-2074Y-294D01*
X-2074Y-294D01*
X-2076Y-292D01*
X-2078Y-291D01*
X-2080Y-290D01*
X-2081Y-289D01*
X-2082Y-288D01*
X-2083Y-288D01*
X-2084D01*
X-2087Y-287D01*
X-2087Y-287D01*
X-2086Y-287D01*
X-2084Y-286D01*
X-2082Y-285D01*
X-2081Y-284D01*
X-2081D01*
X-2079Y-283D01*
X-2076Y-282D01*
X-2075Y-281D01*
X-2074Y-280D01*
X-2073Y-280D01*
X-2072Y-280D01*
X-2072Y-279D01*
X-2071Y-278D01*
X-2071Y-278D01*
X-2070Y-277D01*
X-2069D01*
Y-278D01*
X-2070Y-279D01*
X-2071Y-280D01*
X-2071Y-280D01*
X-2072Y-282D01*
X-2073Y-283D01*
X-2074Y-284D01*
X-2074Y-286D01*
Y-286D01*
Y-287D01*
X-2073Y-288D01*
X-2072Y-290D01*
X-2071Y-291D01*
X-2071Y-291D01*
X-2071Y-292D01*
X-2068Y-294D01*
X-2066Y-295D01*
X-2065Y-295D01*
X-2065D01*
X-2063Y-295D01*
X-2061Y-294D01*
X-2060Y-293D01*
X-2059Y-292D01*
X-2059Y-291D01*
X-2058Y-290D01*
X-2057Y-288D01*
X-2057Y-286D01*
Y-286D01*
Y-286D01*
X-2057Y-283D01*
X-2059Y-281D01*
X-2060Y-280D01*
X-2060Y-280D01*
X-2062Y-278D01*
X-2063Y-277D01*
X-2063Y-276D01*
Y-276D01*
Y-275D01*
Y-275D01*
X-2063Y-274D01*
X-2062D01*
X-2062Y-275D01*
X-2061Y-275D01*
X-2060Y-276D01*
X-2060Y-276D01*
Y-277D01*
X-2059Y-279D01*
X-2058Y-280D01*
X-2056Y-280D01*
X-2055D01*
X-2053Y-280D01*
X-2053Y-279D01*
X-2053D01*
X-2052Y-279D01*
X-2051D01*
X-2050Y-279D01*
X-2049Y-280D01*
X-2048Y-280D01*
X-2047Y-282D01*
X-2047Y-283D01*
X-2046Y-284D01*
Y-284D01*
Y-286D01*
X-2047Y-288D01*
X-2047Y-289D01*
X-2047Y-290D01*
Y-290D01*
X-2047Y-291D01*
Y-292D01*
X-2048Y-293D01*
Y-293D01*
X-2047Y-296D01*
X-2047D01*
X-2046Y-296D01*
X-2046Y-297D01*
Y-297D01*
X-2045Y-298D01*
X-2045Y-298D01*
X-2045Y-297D01*
Y-297D01*
X-2044Y-295D01*
X-2044Y-294D01*
X-2043Y-294D01*
X-2042D01*
Y-294D01*
Y-293D01*
X-2043Y-293D01*
X-2043Y-293D01*
X-2044Y-291D01*
X-2044Y-289D01*
X-2044Y-288D01*
Y-287D01*
Y-287D01*
Y-284D01*
X-2044Y-282D01*
X-2045Y-281D01*
X-2045Y-280D01*
X-2046Y-280D01*
X-2047Y-279D01*
Y-278D01*
X-2046Y-277D01*
X-2045Y-275D01*
X-2043Y-274D01*
X-2040Y-272D01*
X-2038Y-271D01*
X-2037Y-271D01*
X-2036Y-270D01*
X-2036D01*
X-2033Y-269D01*
X-2031Y-268D01*
X-2029Y-267D01*
X-2027Y-266D01*
X-2027Y-265D01*
X-2026Y-265D01*
X-2025Y-264D01*
X-2023Y-263D01*
X-2021Y-261D01*
X-2019Y-260D01*
X-2019Y-260D01*
X-2018D01*
X-2017Y-259D01*
X-2015Y-259D01*
X-2015Y-258D01*
X-2014Y-258D01*
X-2013Y-257D01*
Y-257D01*
Y-256D01*
X-2013Y-255D01*
X-2013Y-254D01*
X-2012Y-253D01*
X-2012Y-252D01*
X-2012Y-252D01*
X-2013Y-250D01*
X-2014Y-248D01*
X-2015Y-248D01*
X-2018Y-245D01*
X-2027Y-250D01*
X-2030Y-252D01*
X-2033Y-253D01*
X-2036Y-255D01*
X-2040Y-257D01*
X-2043Y-259D01*
X-2045Y-260D01*
X-2046Y-260D01*
X-2047Y-261D01*
X-2051Y-263D01*
X-2053Y-264D01*
X-2055Y-265D01*
X-2057Y-266D01*
X-2058Y-266D01*
X-2059Y-267D01*
X-2059D01*
Y-266D01*
X-2058Y-266D01*
X-2057Y-265D01*
X-2057Y-265D01*
X-2055Y-264D01*
X-2053Y-263D01*
X-2051Y-261D01*
X-2051Y-261D01*
X-2050D01*
X-2047Y-259D01*
X-2044Y-257D01*
X-2043Y-257D01*
X-2042Y-256D01*
X-2042Y-256D01*
X-2041D01*
X-2037Y-253D01*
X-2034Y-252D01*
X-2033Y-251D01*
X-2032Y-251D01*
X-2032Y-250D01*
X-2031D01*
X-2029Y-249D01*
X-2027Y-248D01*
X-2027Y-247D01*
X-2026Y-246D01*
X-2026Y-245D01*
Y-245D01*
X-2026Y-245D01*
X-2027Y-244D01*
X-2029Y-245D01*
X-2031Y-245D01*
X-2033Y-246D01*
X-2035Y-247D01*
X-2036Y-248D01*
X-2037Y-248D01*
X-2038Y-248D01*
X-2042Y-251D01*
X-2047Y-253D01*
X-2050Y-255D01*
X-2053Y-257D01*
X-2056Y-258D01*
X-2058Y-259D01*
X-2060Y-260D01*
X-2061Y-261D01*
X-2062Y-261D01*
X-2063Y-262D01*
X-2064Y-262D01*
X-2064Y-262D01*
X-2063Y-261D01*
X-2063Y-261D01*
X-2061Y-260D01*
X-2059Y-258D01*
X-2057Y-257D01*
X-2056Y-257D01*
X-2056D01*
X-2053Y-255D01*
X-2050Y-253D01*
X-2049Y-253D01*
X-2048Y-252D01*
X-2047Y-252D01*
X-2047D01*
X-2044Y-250D01*
X-2041Y-248D01*
X-2039Y-247D01*
X-2036Y-246D01*
X-2032Y-244D01*
X-2030Y-242D01*
X-2028Y-240D01*
X-2027Y-240D01*
X-2026Y-239D01*
X-2026D01*
X-2024Y-238D01*
X-2024Y-237D01*
X-2023Y-237D01*
X-2023Y-237D01*
X-2022Y-237D01*
Y-237D01*
X-2022Y-238D01*
X-2022Y-239D01*
X-2021Y-239D01*
X-2021D01*
X-2020Y-239D01*
Y-238D01*
Y-237D01*
Y-237D01*
X-2021Y-235D01*
X-2022Y-235D01*
X-2023Y-234D01*
X-2024D01*
X-2026Y-234D01*
X-2027Y-233D01*
X-2027Y-233D01*
Y-233D01*
X-2027Y-230D01*
Y-228D01*
X-2027Y-226D01*
Y-225D01*
X-2027Y-224D01*
Y-224D01*
X-2026Y-223D01*
X-2027Y-223D01*
X-2029D01*
X-2031Y-222D01*
X-2033Y-221D01*
X-2033Y-220D01*
X-2033D01*
X-2035Y-219D01*
X-2036Y-218D01*
X-2036Y-217D01*
X-2035D01*
X-2034Y-218D01*
X-2033D01*
Y-217D01*
Y-217D01*
Y-216D01*
Y-216D01*
X-2033Y-215D01*
Y-215D01*
Y-214D01*
X-2033D01*
X-2031Y-215D01*
X-2030Y-216D01*
X-2029Y-216D01*
X-2029D01*
X-2027Y-217D01*
X-2026Y-218D01*
X-2025Y-218D01*
X-2024D01*
Y-218D01*
Y-218D01*
X-2023Y-217D01*
X-2023Y-218D01*
X-2022Y-218D01*
X-2022Y-218D01*
X-2020Y-220D01*
X-2020Y-220D01*
Y-221D01*
Y-222D01*
Y-222D01*
X-2020Y-223D01*
X-2019Y-225D01*
X-2017Y-226D01*
X-2017Y-227D01*
X-2017Y-227D01*
X-2012Y-231D01*
X-2016Y-227D01*
X-2017Y-225D01*
X-2018Y-224D01*
X-2019Y-223D01*
Y-222D01*
Y-222D01*
X-2019Y-222D01*
X-2018Y-222D01*
X-2016Y-223D01*
X-2015Y-224D01*
X-2014Y-225D01*
X-2014Y-225D01*
X-2012Y-227D01*
X-2011Y-228D01*
X-2010Y-230D01*
X-2010Y-231D01*
Y-232D01*
Y-232D01*
X-2012D01*
Y-233D01*
Y-233D01*
X-2011Y-234D01*
X-2009D01*
X-2007Y-234D01*
X-2006Y-234D01*
X-2006Y-234D01*
Y-235D01*
X-2005Y-236D01*
X-2004Y-238D01*
X-2003Y-239D01*
X-2003Y-240D01*
X-2002Y-240D01*
X-2000Y-242D01*
X-1998Y-243D01*
X-1997Y-243D01*
X-1997D01*
X-1995Y-243D01*
X-1994Y-242D01*
X-1994Y-242D01*
X-1994Y-241D01*
X-1992Y-240D01*
X-1991Y-240D01*
X-1989Y-239D01*
X-1987Y-239D01*
X-1986Y-238D01*
X-1985Y-238D01*
X-1984D01*
X-1981Y-237D01*
X-1979Y-236D01*
X-1977Y-235D01*
X-1977Y-235D01*
X-1977D01*
X-1973Y-233D01*
X-1976Y-229D01*
X-1978Y-227D01*
X-1978Y-225D01*
Y-225D01*
Y-224D01*
X-1978Y-224D01*
X-1977Y-224D01*
X-1976Y-223D01*
X-1975Y-222D01*
X-1974Y-222D01*
X-1972D01*
X-1971Y-222D01*
X-1971D01*
X-1971Y-223D01*
X-1972Y-224D01*
Y-225D01*
X-1971Y-226D01*
Y-227D01*
X-1971Y-228D01*
X-1970Y-229D01*
X-1969Y-229D01*
X-1969Y-230D01*
X-1968Y-230D01*
X-1967D01*
X-1966Y-229D01*
X-1966Y-228D01*
Y-228D01*
X-1965Y-227D01*
X-1965Y-227D01*
X-1964Y-225D01*
X-1962Y-224D01*
X-1962Y-224D01*
X-1961D01*
X-1960Y-224D01*
X-1959Y-223D01*
X-1959Y-222D01*
X-1958D01*
X-1958Y-222D01*
Y-221D01*
Y-221D01*
X-1957Y-220D01*
X-1954D01*
X-1953Y-220D01*
X-1952Y-220D01*
X-1952Y-219D01*
X-1952Y-218D01*
X-1952Y-216D01*
X-1952Y-215D01*
Y-214D01*
Y-214D01*
X-1953Y-211D01*
X-1955Y-208D01*
X-1956Y-206D01*
X-1956Y-205D01*
Y-205D01*
X-1960Y-201D01*
X-1967Y-205D01*
X-1970Y-207D01*
X-1973Y-207D01*
X-1975Y-208D01*
X-1976Y-208D01*
X-1978D01*
X-1979Y-208D01*
X-1980D01*
X-1980Y-207D01*
X-1981Y-206D01*
Y-206D01*
Y-204D01*
Y-203D01*
Y-203D01*
X-1982Y-202D01*
X-1983Y-201D01*
X-1984Y-200D01*
X-1985D01*
X-1984Y-201D01*
X-1984Y-201D01*
X-1984D01*
X-1983Y-202D01*
X-1983Y-202D01*
Y-203D01*
X-1983Y-203D01*
X-1983D01*
X-1985Y-204D01*
X-1987Y-204D01*
X-1988Y-205D01*
X-1989Y-205D01*
X-1990Y-207D01*
X-1991Y-208D01*
X-1991Y-208D01*
Y-208D01*
Y-209D01*
X-1991Y-210D01*
X-1991Y-211D01*
Y-211D01*
X-1990Y-212D01*
X-1990Y-213D01*
X-1991Y-212D01*
X-1992Y-212D01*
X-1992Y-212D01*
X-1994Y-210D01*
X-1995Y-210D01*
X-1995Y-209D01*
X-1996D01*
X-1996Y-210D01*
X-1997Y-210D01*
Y-211D01*
X-1996Y-211D01*
X-1995Y-213D01*
X-1995Y-213D01*
X-1995Y-213D01*
X-1994Y-216D01*
X-1993Y-217D01*
Y-218D01*
Y-218D01*
X-1994Y-219D01*
X-1995Y-220D01*
X-1997Y-221D01*
X-1999Y-222D01*
X-1999Y-223D01*
X-1999D01*
X-2007Y-227D01*
X-2015Y-219D01*
X-2016Y-217D01*
X-2018Y-216D01*
X-2019Y-214D01*
X-2019Y-213D01*
X-2020Y-212D01*
X-2020Y-212D01*
X-2020Y-212D01*
X-2018Y-213D01*
X-2016Y-214D01*
X-2015Y-216D01*
X-2015Y-216D01*
X-2013Y-217D01*
X-2012Y-218D01*
X-2012Y-218D01*
X-2011D01*
X-2011Y-217D01*
Y-216D01*
Y-215D01*
Y-214D01*
X-2011Y-211D01*
X-2010Y-212D01*
X-2009Y-211D01*
X-2008Y-211D01*
X-2008Y-210D01*
X-2007Y-209D01*
X-2006Y-208D01*
X-2006Y-207D01*
Y-207D01*
X-2006Y-206D01*
X-2007Y-205D01*
X-2008Y-206D01*
X-2008D01*
X-2009Y-206D01*
X-2010D01*
Y-206D01*
X-2009Y-205D01*
X-2008Y-204D01*
X-2008Y-204D01*
X-2007Y-203D01*
X-2006Y-202D01*
Y-202D01*
X-2010D01*
X-2012Y-202D01*
X-2014D01*
X-2014Y-202D01*
X-2014Y-201D01*
X-2013Y-200D01*
Y-200D01*
X-2013Y-199D01*
X-2012Y-198D01*
Y-198D01*
X-2013D01*
X-2014Y-198D01*
X-2016Y-199D01*
X-2019Y-200D01*
X-2021Y-201D01*
X-2023Y-202D01*
X-2024Y-203D01*
X-2024Y-203D01*
X-2035Y-209D01*
X-2042Y-207D01*
X-2044Y-206D01*
X-2046Y-205D01*
X-2047Y-205D01*
X-2049D01*
X-2049Y-205D01*
X-2050Y-205D01*
X-2050D01*
X-2050Y-205D01*
Y-206D01*
Y-206D01*
X-2050Y-207D01*
X-2049Y-208D01*
X-2048Y-208D01*
X-2047Y-209D01*
X-2045D01*
X-2044Y-209D01*
X-2043D01*
X-2040Y-209D01*
X-2039Y-210D01*
X-2038Y-210D01*
X-2038Y-211D01*
Y-211D01*
X-2039Y-211D01*
X-2039Y-212D01*
X-2040D01*
X-2043Y-211D01*
X-2043D01*
X-2046Y-211D01*
X-2048Y-211D01*
X-2052Y-210D01*
X-2066D01*
X-2068Y-210D01*
X-2069D01*
X-2070Y-211D01*
X-2071D01*
X-2073Y-212D01*
X-2076Y-213D01*
X-2077Y-213D01*
X-2078Y-214D01*
X-2079Y-214D01*
X-2079D01*
X-2081Y-215D01*
X-2083Y-216D01*
X-2086Y-216D01*
X-2087D01*
X-2088Y-216D01*
X-2089Y-215D01*
X-2091Y-214D01*
X-2094Y-212D01*
X-2097Y-211D01*
X-2100Y-209D01*
X-2104Y-207D01*
X-2112Y-203D01*
X-2120Y-199D01*
X-2123Y-197D01*
X-2126Y-196D01*
X-2129Y-194D01*
X-2131Y-193D01*
X-2133Y-192D01*
X-2133Y-192D01*
X-2140Y-188D01*
X-2147Y-185D01*
X-2153Y-182D01*
X-2158Y-180D01*
X-2162Y-178D01*
X-2166Y-176D01*
X-2168Y-174D01*
X-2171Y-173D01*
X-2173Y-172D01*
X-2174Y-172D01*
X-2176Y-171D01*
X-2177Y-171D01*
X-2178Y-171D01*
X-2178D01*
X-2179Y-170D01*
X-2181Y-170D01*
X-2182Y-169D01*
X-2186Y-167D01*
X-2192Y-165D01*
X-2198Y-162D01*
X-2204Y-159D01*
X-2211Y-156D01*
X-2218Y-152D01*
X-2225Y-149D01*
X-2231Y-145D01*
X-2237Y-142D01*
X-2243Y-139D01*
X-2247Y-136D01*
X-2249Y-135D01*
X-2251Y-134D01*
X-2252Y-134D01*
X-2253Y-133D01*
X-2254Y-133D01*
X-2254D01*
X-2255Y-133D01*
X-2256Y-132D01*
X-2258Y-131D01*
X-2260Y-130D01*
X-2261Y-129D01*
X-2261D01*
X-2263Y-128D01*
X-2264Y-128D01*
X-2264Y-127D01*
X-2265Y-127D01*
X-2265Y-126D01*
X-2266Y-125D01*
Y-125D01*
X-2265Y-125D01*
X-2265Y-124D01*
X-2264Y-123D01*
X-2264Y-123D01*
X-2262Y-122D01*
X-2261Y-121D01*
X-2260Y-121D01*
X-2260D01*
X-2258Y-120D01*
X-2256Y-119D01*
X-2254Y-118D01*
X-2253Y-118D01*
X-2253D01*
X-2252Y-117D01*
X-2252Y-117D01*
X-2251D01*
X-2247Y-116D01*
X-2244Y-114D01*
X-2241Y-114D01*
X-2240Y-113D01*
X-2238Y-113D01*
X-2234D01*
Y-113D01*
Y-112D01*
Y-112D01*
Y-111D01*
X-2235Y-111D01*
Y-110D01*
Y-110D01*
X-2234Y-110D01*
X-2234D01*
X-2233Y-110D01*
X-2233D01*
X-2232Y-110D01*
Y-110D01*
X-2232Y-109D01*
X-2231Y-108D01*
X-2229Y-107D01*
X-2227Y-106D01*
X-2226Y-105D01*
X-2224Y-105D01*
X-2223Y-104D01*
X-2222Y-104D01*
X-2219Y-102D01*
X-2217Y-101D01*
X-2215Y-100D01*
X-2214Y-99D01*
X-2213Y-99D01*
X-2213Y-98D01*
X-2213Y-98D01*
X-2212Y-97D01*
X-2212Y-97D01*
X-2210Y-97D01*
X-2207Y-97D01*
X-2206D01*
X-2205Y-97D01*
D02*
G37*
G36*
X-1984Y-177D02*
X-1983Y-178D01*
X-1982Y-178D01*
X-1982D01*
X-1980Y-179D01*
X-1980Y-179D01*
X-1980Y-179D01*
X-1979Y-180D01*
X-1979Y-180D01*
Y-180D01*
Y-181D01*
X-1978Y-181D01*
X-1977Y-181D01*
X-1976Y-180D01*
X-1976Y-180D01*
X-1974Y-179D01*
X-1973Y-179D01*
X-1972D01*
X-1972Y-179D01*
X-1971Y-180D01*
X-1970Y-181D01*
X-1969Y-181D01*
X-1968Y-182D01*
X-1968Y-183D01*
Y-184D01*
X-1968Y-184D01*
X-1970D01*
X-1971Y-184D01*
X-1978D01*
X-1980Y-184D01*
X-1982D01*
X-1984Y-184D01*
X-1985D01*
X-1986Y-183D01*
X-1987D01*
X-1989Y-183D01*
X-1990Y-182D01*
X-1991Y-181D01*
X-1992Y-181D01*
X-1993Y-180D01*
Y-179D01*
Y-179D01*
X-1992Y-178D01*
X-1991Y-178D01*
X-1990Y-177D01*
X-1989D01*
X-1986Y-177D01*
X-1984Y-177D01*
D02*
G37*
G36*
X-2229Y-512D02*
X-2228Y-512D01*
X-2228Y-512D01*
X-2227Y-513D01*
X-2227Y-513D01*
X-2226Y-513D01*
X-2226Y-513D01*
X-2226Y-513D01*
X-2225Y-513D01*
X-2225Y-514D01*
X-2224Y-514D01*
X-2223Y-515D01*
X-2222Y-516D01*
X-2221Y-517D01*
X-2221Y-517D01*
X-2220Y-518D01*
X-2220Y-518D01*
X-2220Y-518D01*
X-2220Y-518D01*
X-2220Y-518D01*
Y-513D01*
X-2213D01*
X-2213Y-513D01*
X-2212Y-513D01*
X-2212Y-513D01*
X-2212Y-513D01*
X-2212Y-513D01*
X-2212Y-513D01*
X-2212Y-514D01*
Y-514D01*
X-2212Y-514D01*
X-2212Y-514D01*
X-2212Y-514D01*
X-2212Y-514D01*
X-2213Y-515D01*
X-2213Y-515D01*
X-2213Y-515D01*
X-2217D01*
Y-533D01*
X-2212D01*
X-2212Y-533D01*
X-2211Y-533D01*
X-2211Y-533D01*
X-2211Y-533D01*
X-2211Y-533D01*
X-2211Y-534D01*
X-2211Y-534D01*
Y-534D01*
X-2211Y-534D01*
X-2211Y-534D01*
X-2211Y-535D01*
X-2211Y-535D01*
X-2211Y-535D01*
X-2212Y-535D01*
X-2212Y-535D01*
X-2229D01*
X-2230Y-535D01*
X-2230Y-535D01*
X-2230Y-535D01*
X-2230Y-535D01*
X-2230Y-534D01*
X-2231Y-534D01*
X-2231Y-534D01*
Y-534D01*
X-2231Y-534D01*
X-2230Y-533D01*
X-2230Y-533D01*
X-2230Y-533D01*
X-2230Y-533D01*
X-2230Y-533D01*
X-2229Y-533D01*
X-2220D01*
Y-521D01*
X-2220Y-520D01*
X-2221Y-519D01*
X-2222Y-519D01*
X-2223Y-518D01*
X-2223Y-518D01*
X-2224Y-517D01*
X-2224Y-517D01*
X-2225Y-517D01*
X-2226Y-516D01*
X-2226Y-516D01*
X-2226Y-515D01*
X-2226Y-515D01*
X-2227Y-515D01*
X-2228Y-515D01*
X-2228Y-515D01*
X-2229Y-514D01*
X-2229Y-514D01*
X-2230Y-514D01*
X-2230D01*
X-2230Y-514D01*
X-2231Y-514D01*
X-2231Y-515D01*
X-2231Y-515D01*
X-2232Y-515D01*
X-2232Y-515D01*
X-2233Y-516D01*
X-2233Y-516D01*
X-2233Y-516D01*
X-2233Y-516D01*
X-2233Y-516D01*
X-2233Y-516D01*
X-2233D01*
X-2234Y-517D01*
X-2234D01*
X-2234Y-516D01*
X-2234Y-516D01*
X-2235Y-516D01*
X-2235Y-516D01*
X-2235Y-516D01*
X-2235Y-516D01*
X-2235Y-515D01*
Y-515D01*
X-2235Y-515D01*
X-2235Y-515D01*
X-2234Y-514D01*
X-2234Y-514D01*
X-2234Y-514D01*
X-2234Y-514D01*
X-2233Y-513D01*
X-2233Y-513D01*
X-2233Y-513D01*
X-2232Y-513D01*
X-2231Y-512D01*
X-2231Y-512D01*
X-2230Y-512D01*
X-2230Y-512D01*
X-2230D01*
X-2229Y-512D01*
D02*
G37*
G36*
X-1973Y-417D02*
X-1972Y-418D01*
X-1971Y-418D01*
X-1970Y-418D01*
X-1970Y-418D01*
X-1969Y-419D01*
X-1969Y-419D01*
X-1969Y-419D01*
X-1968Y-420D01*
X-1967Y-421D01*
X-1967Y-422D01*
X-1966Y-422D01*
X-1966Y-423D01*
X-1966Y-423D01*
Y-424D01*
Y-424D01*
Y-425D01*
X-1966Y-425D01*
X-1966Y-426D01*
X-1967Y-426D01*
X-1967Y-427D01*
X-1967Y-427D01*
X-1968Y-427D01*
X-1969Y-428D01*
X-1970Y-428D01*
X-1971Y-428D01*
X-1977D01*
X-1968Y-469D01*
X-1966D01*
X-1965Y-470D01*
X-1963Y-470D01*
X-1962Y-470D01*
X-1962Y-470D01*
X-1961Y-471D01*
X-1960Y-471D01*
X-1960Y-471D01*
X-1960Y-471D01*
X-1959Y-472D01*
X-1958Y-473D01*
X-1958Y-474D01*
X-1957Y-474D01*
X-1957Y-475D01*
X-1957Y-476D01*
Y-476D01*
Y-476D01*
Y-477D01*
X-1957Y-477D01*
X-1958Y-478D01*
X-1958Y-479D01*
X-1958Y-479D01*
X-1959Y-479D01*
X-1960Y-480D01*
X-1962Y-480D01*
X-1962Y-480D01*
X-2014D01*
X-2017Y-464D01*
X-2017Y-462D01*
X-2018Y-461D01*
X-2018Y-461D01*
Y-460D01*
Y-460D01*
X-2017Y-459D01*
X-2017Y-458D01*
X-2017Y-458D01*
X-2016Y-458D01*
X-2016D01*
X-2015Y-457D01*
X-2014Y-457D01*
X-2014Y-456D01*
X-2013D01*
X-2012Y-457D01*
X-2012Y-457D01*
X-2010Y-457D01*
X-2010Y-458D01*
X-2009Y-458D01*
X-2009Y-458D01*
X-2009Y-458D01*
X-2009Y-459D01*
X-2008Y-460D01*
X-2007Y-462D01*
X-2007Y-462D01*
X-2007Y-463D01*
X-2007Y-464D01*
Y-464D01*
X-2005Y-469D01*
X-1978D01*
X-1982Y-454D01*
X-1990D01*
X-1989Y-455D01*
X-1989Y-456D01*
X-1989Y-456D01*
Y-457D01*
X-1989Y-457D01*
Y-458D01*
Y-458D01*
Y-458D01*
X-1989Y-459D01*
X-1990Y-460D01*
X-1990Y-460D01*
X-1990Y-461D01*
X-1991Y-461D01*
X-1992Y-462D01*
X-1993Y-462D01*
X-1993D01*
X-1994Y-462D01*
X-1995Y-461D01*
X-1996Y-461D01*
X-1997Y-461D01*
X-1998Y-460D01*
X-1998Y-460D01*
X-1998Y-460D01*
X-1998Y-460D01*
X-1999Y-459D01*
X-1999Y-458D01*
X-2000Y-457D01*
X-2000Y-456D01*
X-2000Y-455D01*
X-2000Y-455D01*
Y-455D01*
X-2003Y-443D01*
X-2003Y-441D01*
X-2003Y-440D01*
Y-440D01*
Y-439D01*
Y-439D01*
X-2003Y-438D01*
X-2003Y-437D01*
X-2002Y-437D01*
X-2002Y-437D01*
X-2002D01*
X-2001Y-436D01*
X-2000Y-436D01*
X-1999Y-436D01*
X-1999D01*
X-1998Y-436D01*
X-1997Y-436D01*
X-1996Y-436D01*
X-1995Y-437D01*
X-1995Y-437D01*
X-1994Y-438D01*
X-1994Y-438D01*
X-1994Y-438D01*
X-1993Y-439D01*
X-1993Y-439D01*
X-1992Y-441D01*
X-1992Y-442D01*
X-1992Y-443D01*
X-1992Y-443D01*
Y-443D01*
X-1984D01*
X-1987Y-428D01*
X-2012D01*
X-2010Y-434D01*
X-2010Y-435D01*
X-2010Y-436D01*
Y-436D01*
Y-437D01*
X-2010Y-438D01*
X-2011Y-439D01*
X-2011Y-439D01*
X-2011Y-439D01*
X-2012Y-440D01*
X-2013Y-440D01*
X-2014Y-441D01*
X-2014D01*
X-2015Y-440D01*
X-2016Y-440D01*
X-2017Y-440D01*
X-2018Y-439D01*
X-2018Y-439D01*
X-2018Y-439D01*
X-2018Y-439D01*
X-2019Y-438D01*
X-2020Y-437D01*
X-2021Y-436D01*
X-2021Y-435D01*
X-2021Y-434D01*
X-2021Y-434D01*
Y-434D01*
X-2025Y-417D01*
X-1975D01*
X-1973Y-417D01*
D02*
G37*
G36*
X-2112Y-356D02*
X-2111Y-356D01*
X-2111Y-357D01*
X-2111Y-357D01*
X-2110Y-357D01*
X-2111Y-358D01*
X-2111Y-358D01*
X-2112D01*
X-2114Y-358D01*
X-2114Y-357D01*
X-2114Y-356D01*
Y-356D01*
X-2114Y-355D01*
X-2113D01*
X-2112Y-356D01*
D02*
G37*
G36*
X-2044Y-413D02*
X-2043Y-413D01*
X-2042Y-413D01*
X-2042Y-413D01*
X-2042Y-414D01*
X-2041Y-414D01*
X-2041Y-414D01*
X-2041Y-414D01*
X-2041Y-415D01*
X-2040Y-416D01*
X-2040Y-417D01*
X-2040Y-418D01*
X-2040Y-419D01*
X-2039Y-419D01*
Y-419D01*
X-2039Y-422D01*
X-2038Y-425D01*
X-2038Y-427D01*
X-2037Y-429D01*
X-2036Y-431D01*
X-2036Y-432D01*
X-2036Y-433D01*
X-2035Y-433D01*
X-2035Y-434D01*
X-2035Y-434D01*
Y-434D01*
X-2034Y-435D01*
X-2034Y-436D01*
X-2033Y-437D01*
X-2033Y-438D01*
X-2033Y-439D01*
X-2033Y-439D01*
Y-439D01*
Y-439D01*
X-2033Y-440D01*
X-2033Y-441D01*
X-2034Y-442D01*
X-2034Y-442D01*
X-2034Y-442D01*
Y-443D01*
X-2035Y-443D01*
X-2035Y-443D01*
X-2036Y-444D01*
X-2037D01*
X-2037Y-444D01*
X-2037D01*
X-2039Y-444D01*
X-2040Y-443D01*
X-2040Y-443D01*
X-2040Y-443D01*
X-2041Y-442D01*
X-2041Y-442D01*
X-2042Y-440D01*
X-2043Y-439D01*
X-2043Y-439D01*
X-2044Y-438D01*
X-2044Y-438D01*
X-2045Y-436D01*
X-2046Y-434D01*
X-2048Y-433D01*
X-2049Y-431D01*
X-2051Y-430D01*
X-2052Y-429D01*
X-2054Y-428D01*
X-2055Y-428D01*
X-2057Y-427D01*
X-2058Y-427D01*
X-2059Y-427D01*
X-2060Y-426D01*
X-2061Y-426D01*
X-2062Y-426D01*
X-2062D01*
X-2064Y-426D01*
X-2066Y-426D01*
X-2067Y-427D01*
X-2068Y-427D01*
X-2069Y-428D01*
X-2070Y-428D01*
X-2070Y-428D01*
X-2070Y-428D01*
X-2071Y-429D01*
X-2072Y-430D01*
X-2072Y-430D01*
X-2072Y-431D01*
X-2073Y-431D01*
X-2073Y-432D01*
Y-432D01*
Y-432D01*
X-2073Y-434D01*
X-2072Y-435D01*
X-2071Y-436D01*
X-2071Y-437D01*
X-2070Y-438D01*
X-2069Y-439D01*
X-2069Y-439D01*
X-2068Y-439D01*
X-2067Y-440D01*
X-2065Y-441D01*
X-2063Y-442D01*
X-2061Y-442D01*
X-2060Y-442D01*
X-2059Y-442D01*
X-2052D01*
X-2051Y-443D01*
X-2050Y-443D01*
X-2049Y-443D01*
X-2048Y-443D01*
X-2048Y-443D01*
X-2048Y-443D01*
X-2048Y-444D01*
X-2047Y-444D01*
X-2047Y-445D01*
X-2046Y-445D01*
X-2046Y-446D01*
X-2046Y-447D01*
X-2046Y-447D01*
Y-448D01*
Y-448D01*
X-2046Y-449D01*
X-2046Y-450D01*
X-2047Y-451D01*
X-2047Y-451D01*
Y-451D01*
X-2048Y-452D01*
X-2049Y-452D01*
X-2049Y-453D01*
X-2050Y-453D01*
X-2050D01*
X-2050Y-453D01*
X-2051D01*
X-2053Y-453D01*
X-2056D01*
X-2058Y-453D01*
X-2060Y-453D01*
X-2062Y-454D01*
X-2064Y-454D01*
X-2065Y-454D01*
X-2066Y-455D01*
X-2067Y-456D01*
X-2068Y-456D01*
X-2068Y-457D01*
X-2069Y-457D01*
X-2069Y-458D01*
X-2069Y-458D01*
X-2069Y-459D01*
Y-459D01*
Y-459D01*
X-2069Y-461D01*
X-2069Y-462D01*
X-2068Y-464D01*
X-2067Y-465D01*
X-2066Y-466D01*
X-2066Y-467D01*
X-2065Y-467D01*
X-2065Y-467D01*
X-2064Y-468D01*
X-2063Y-468D01*
X-2061Y-469D01*
X-2059Y-470D01*
X-2056Y-470D01*
X-2054Y-471D01*
X-2053Y-471D01*
X-2053D01*
X-2052Y-471D01*
X-2051D01*
X-2049Y-471D01*
X-2047Y-471D01*
X-2043Y-470D01*
X-2040Y-469D01*
X-2039Y-468D01*
X-2037Y-468D01*
X-2036Y-467D01*
X-2035Y-467D01*
X-2034Y-466D01*
X-2033Y-466D01*
X-2032Y-465D01*
X-2032Y-465D01*
X-2032Y-465D01*
X-2032Y-465D01*
X-2030Y-464D01*
X-2029Y-463D01*
X-2028Y-462D01*
X-2027Y-462D01*
X-2026Y-462D01*
X-2026Y-462D01*
X-2025D01*
X-2025Y-462D01*
X-2024Y-462D01*
X-2023Y-462D01*
X-2022Y-463D01*
X-2022Y-463D01*
X-2022Y-463D01*
X-2022Y-463D01*
X-2021Y-464D01*
X-2021Y-465D01*
X-2020Y-465D01*
X-2020Y-466D01*
X-2020Y-467D01*
X-2020Y-467D01*
Y-467D01*
Y-468D01*
X-2020Y-469D01*
X-2021Y-470D01*
X-2021Y-471D01*
X-2022Y-472D01*
X-2023Y-472D01*
X-2023Y-473D01*
X-2024Y-473D01*
X-2024Y-473D01*
X-2025Y-475D01*
X-2027Y-476D01*
X-2029Y-477D01*
X-2030Y-478D01*
X-2032Y-478D01*
X-2033Y-479D01*
X-2033Y-479D01*
X-2034Y-479D01*
X-2034Y-479D01*
X-2034D01*
X-2036Y-480D01*
X-2039Y-481D01*
X-2042Y-481D01*
X-2044Y-481D01*
X-2047Y-482D01*
X-2048D01*
X-2049Y-482D01*
X-2050D01*
X-2053Y-482D01*
X-2056Y-481D01*
X-2058Y-481D01*
X-2060Y-481D01*
X-2062Y-480D01*
X-2064Y-479D01*
X-2066Y-479D01*
X-2067Y-478D01*
X-2069Y-477D01*
X-2070Y-477D01*
X-2071Y-476D01*
X-2072Y-476D01*
X-2072Y-475D01*
X-2073Y-475D01*
X-2073Y-475D01*
X-2073Y-475D01*
X-2074Y-473D01*
X-2075Y-472D01*
X-2076Y-471D01*
X-2077Y-469D01*
X-2078Y-468D01*
X-2079Y-467D01*
X-2079Y-464D01*
X-2080Y-462D01*
X-2080Y-461D01*
X-2080Y-461D01*
X-2080Y-460D01*
Y-460D01*
Y-459D01*
Y-459D01*
X-2080Y-458D01*
X-2080Y-456D01*
X-2079Y-454D01*
X-2079Y-452D01*
X-2078Y-450D01*
X-2077Y-449D01*
X-2076Y-448D01*
X-2075Y-447D01*
X-2075Y-447D01*
X-2075D01*
X-2076Y-446D01*
X-2078Y-445D01*
X-2079Y-443D01*
X-2080Y-442D01*
X-2081Y-441D01*
X-2082Y-440D01*
X-2083Y-438D01*
X-2083Y-437D01*
X-2084Y-435D01*
X-2084Y-434D01*
X-2084Y-433D01*
Y-433D01*
X-2084Y-432D01*
Y-432D01*
Y-432D01*
Y-430D01*
X-2084Y-429D01*
X-2083Y-427D01*
X-2082Y-425D01*
X-2081Y-423D01*
X-2081Y-422D01*
X-2080Y-421D01*
X-2079Y-420D01*
X-2079Y-420D01*
X-2079D01*
X-2077Y-419D01*
X-2074Y-418D01*
X-2072Y-417D01*
X-2070Y-416D01*
X-2068Y-416D01*
X-2067Y-416D01*
X-2066D01*
X-2065Y-416D01*
X-2064D01*
X-2061Y-416D01*
X-2058Y-416D01*
X-2056Y-417D01*
X-2053Y-418D01*
X-2052Y-419D01*
X-2051Y-419D01*
X-2051Y-420D01*
X-2050Y-420D01*
X-2050Y-420D01*
X-2050Y-420D01*
X-2050D01*
X-2050Y-419D01*
X-2050Y-418D01*
Y-418D01*
Y-417D01*
X-2050Y-417D01*
X-2050Y-416D01*
X-2049Y-415D01*
X-2048Y-414D01*
X-2048Y-414D01*
X-2048D01*
X-2048Y-413D01*
X-2047Y-413D01*
X-2046Y-413D01*
X-2046D01*
X-2045Y-413D01*
X-2045D01*
X-2044Y-413D01*
D02*
G37*
G36*
X-2107Y-418D02*
X-2106Y-418D01*
X-2105Y-418D01*
X-2104Y-418D01*
X-2103Y-418D01*
X-2103Y-419D01*
X-2103Y-419D01*
X-2103Y-419D01*
X-2102Y-420D01*
X-2102Y-420D01*
X-2102Y-421D01*
X-2101Y-422D01*
X-2101Y-422D01*
Y-423D01*
Y-423D01*
X-2101Y-424D01*
X-2102Y-424D01*
X-2102Y-425D01*
X-2103Y-426D01*
X-2104Y-427D01*
X-2105Y-427D01*
X-2106Y-428D01*
X-2107Y-428D01*
X-2108Y-428D01*
X-2109D01*
X-2110Y-428D01*
X-2110D01*
X-2105Y-449D01*
X-2105Y-451D01*
X-2104Y-453D01*
X-2104Y-455D01*
X-2103Y-457D01*
X-2103Y-458D01*
X-2102Y-459D01*
X-2101Y-461D01*
X-2101Y-462D01*
X-2100Y-463D01*
X-2100Y-463D01*
X-2099Y-464D01*
X-2099Y-465D01*
X-2099Y-465D01*
X-2098Y-465D01*
X-2098Y-465D01*
X-2096Y-467D01*
X-2095Y-468D01*
X-2093Y-469D01*
X-2092Y-469D01*
X-2090Y-469D01*
X-2089Y-469D01*
X-2086D01*
X-2083Y-484D01*
X-2083Y-485D01*
X-2083Y-486D01*
X-2082Y-487D01*
Y-488D01*
X-2082Y-488D01*
Y-489D01*
Y-489D01*
Y-489D01*
X-2082Y-489D01*
X-2082Y-490D01*
X-2083Y-491D01*
X-2083Y-492D01*
X-2084Y-492D01*
Y-492D01*
X-2084Y-493D01*
X-2085Y-493D01*
X-2086Y-493D01*
X-2086Y-494D01*
X-2087Y-494D01*
X-2087D01*
X-2088Y-494D01*
X-2089Y-493D01*
X-2090Y-493D01*
X-2090Y-493D01*
X-2090Y-492D01*
X-2091Y-492D01*
X-2091Y-491D01*
X-2092Y-489D01*
X-2092Y-488D01*
X-2093Y-487D01*
X-2093Y-487D01*
Y-487D01*
X-2095Y-480D01*
X-2131D01*
X-2131Y-485D01*
X-2130Y-486D01*
X-2130Y-486D01*
Y-487D01*
X-2130Y-488D01*
Y-488D01*
Y-488D01*
Y-489D01*
X-2130Y-489D01*
X-2130Y-490D01*
X-2131Y-491D01*
X-2131Y-492D01*
X-2131Y-492D01*
X-2132Y-492D01*
Y-492D01*
X-2132Y-493D01*
X-2133Y-493D01*
X-2134Y-493D01*
X-2134Y-494D01*
X-2135Y-494D01*
X-2135D01*
X-2136Y-494D01*
X-2137Y-493D01*
X-2137Y-493D01*
X-2138Y-493D01*
X-2138Y-492D01*
X-2139Y-492D01*
Y-492D01*
X-2139Y-491D01*
X-2140Y-491D01*
X-2140Y-489D01*
X-2140Y-488D01*
X-2141Y-487D01*
X-2141Y-487D01*
Y-486D01*
X-2142Y-479D01*
X-2143Y-478D01*
X-2143Y-477D01*
X-2143Y-476D01*
Y-476D01*
X-2143Y-475D01*
Y-475D01*
Y-475D01*
X-2143Y-474D01*
X-2143Y-473D01*
X-2142Y-472D01*
X-2141Y-471D01*
X-2140Y-470D01*
X-2139Y-470D01*
X-2138Y-470D01*
X-2137Y-469D01*
X-2137D01*
X-2146Y-428D01*
X-2147D01*
X-2149Y-428D01*
X-2150Y-428D01*
X-2151Y-427D01*
X-2151Y-427D01*
X-2152Y-427D01*
X-2152Y-427D01*
X-2152D01*
X-2153Y-426D01*
X-2153Y-426D01*
X-2153Y-425D01*
X-2154Y-424D01*
X-2154Y-424D01*
X-2154Y-423D01*
Y-423D01*
Y-423D01*
X-2154Y-422D01*
X-2154Y-421D01*
X-2153Y-420D01*
X-2153Y-420D01*
X-2153Y-419D01*
X-2152Y-419D01*
X-2152Y-419D01*
X-2152D01*
X-2151Y-418D01*
X-2150Y-418D01*
X-2148Y-417D01*
X-2147D01*
X-2146Y-417D01*
X-2108D01*
X-2107Y-418D01*
D02*
G37*
G36*
X-2234Y-441D02*
X-2234Y-442D01*
Y-442D01*
Y-443D01*
X-2234Y-443D01*
X-2235Y-444D01*
X-2235Y-444D01*
X-2235Y-444D01*
X-2235Y-445D01*
X-2236Y-445D01*
X-2237Y-445D01*
X-2237D01*
X-2238Y-445D01*
X-2238Y-445D01*
X-2239Y-444D01*
X-2239Y-444D01*
X-2240Y-443D01*
X-2240Y-443D01*
X-2241Y-442D01*
X-2241Y-442D01*
Y-441D01*
X-2250Y-416D01*
X-2236D01*
X-2234Y-441D01*
D02*
G37*
G36*
X-2257D02*
X-2256Y-442D01*
Y-442D01*
Y-443D01*
X-2257Y-443D01*
X-2257Y-444D01*
X-2257Y-444D01*
X-2257Y-444D01*
X-2258Y-445D01*
X-2258Y-445D01*
X-2259Y-445D01*
X-2259D01*
X-2260Y-445D01*
X-2261Y-445D01*
X-2261Y-444D01*
X-2261Y-444D01*
X-2262Y-443D01*
X-2263Y-443D01*
X-2263Y-442D01*
X-2263Y-442D01*
Y-441D01*
X-2272Y-416D01*
X-2258D01*
X-2257Y-441D01*
D02*
G37*
G36*
X-1790D02*
X-1790Y-442D01*
Y-442D01*
Y-443D01*
X-1790Y-443D01*
X-1790Y-444D01*
X-1790Y-444D01*
X-1791Y-444D01*
X-1791Y-445D01*
X-1792Y-445D01*
X-1792Y-445D01*
X-1793D01*
X-1794Y-445D01*
X-1794Y-445D01*
X-1795Y-444D01*
X-1795Y-444D01*
X-1796Y-443D01*
X-1796Y-443D01*
X-1797Y-442D01*
X-1797Y-442D01*
Y-441D01*
X-1806Y-416D01*
X-1792D01*
X-1790Y-441D01*
D02*
G37*
G36*
X-1812D02*
X-1812Y-442D01*
Y-442D01*
Y-443D01*
X-1812Y-443D01*
X-1812Y-444D01*
X-1813Y-444D01*
X-1813Y-444D01*
X-1813Y-445D01*
X-1814Y-445D01*
X-1814Y-445D01*
X-1815D01*
X-1816Y-445D01*
X-1816Y-445D01*
X-1817Y-444D01*
X-1817Y-444D01*
X-1818Y-443D01*
X-1818Y-443D01*
X-1819Y-442D01*
X-1819Y-442D01*
Y-441D01*
X-1828Y-416D01*
X-1814D01*
X-1812Y-441D01*
D02*
G37*
G36*
X-1853Y-413D02*
X-1853Y-413D01*
X-1852Y-413D01*
X-1852Y-413D01*
X-1851Y-414D01*
X-1851Y-414D01*
X-1851Y-414D01*
X-1851Y-414D01*
X-1850Y-415D01*
X-1850Y-416D01*
X-1849Y-417D01*
X-1849Y-418D01*
X-1849Y-419D01*
X-1849Y-419D01*
Y-419D01*
X-1849Y-422D01*
X-1848Y-425D01*
X-1847Y-427D01*
X-1846Y-429D01*
X-1846Y-431D01*
X-1845Y-432D01*
X-1845Y-433D01*
X-1845Y-433D01*
X-1845Y-434D01*
X-1845Y-434D01*
Y-434D01*
X-1844Y-435D01*
X-1843Y-436D01*
X-1843Y-437D01*
X-1843Y-438D01*
X-1843Y-439D01*
X-1843Y-439D01*
Y-439D01*
Y-439D01*
X-1843Y-440D01*
X-1843Y-441D01*
X-1843Y-442D01*
X-1844Y-442D01*
X-1844Y-442D01*
Y-443D01*
X-1844Y-443D01*
X-1845Y-443D01*
X-1846Y-444D01*
X-1846D01*
X-1847Y-444D01*
X-1847D01*
X-1848Y-444D01*
X-1849Y-443D01*
X-1850Y-443D01*
X-1850Y-443D01*
X-1851Y-442D01*
X-1851Y-442D01*
X-1852Y-440D01*
X-1853Y-439D01*
X-1853Y-439D01*
X-1853Y-438D01*
X-1853Y-438D01*
X-1855Y-436D01*
X-1856Y-434D01*
X-1857Y-433D01*
X-1859Y-431D01*
X-1860Y-430D01*
X-1862Y-429D01*
X-1864Y-428D01*
X-1865Y-428D01*
X-1866Y-427D01*
X-1868Y-427D01*
X-1869Y-427D01*
X-1870Y-426D01*
X-1871Y-426D01*
X-1871Y-426D01*
X-1872D01*
X-1874Y-426D01*
X-1875Y-426D01*
X-1877Y-427D01*
X-1878Y-427D01*
X-1879Y-428D01*
X-1879Y-428D01*
X-1880Y-428D01*
X-1880Y-428D01*
X-1881Y-429D01*
X-1881Y-430D01*
X-1882Y-430D01*
X-1882Y-431D01*
X-1882Y-431D01*
X-1882Y-432D01*
Y-432D01*
Y-432D01*
X-1882Y-434D01*
X-1882Y-435D01*
X-1881Y-436D01*
X-1880Y-437D01*
X-1879Y-438D01*
X-1879Y-439D01*
X-1878Y-439D01*
X-1878Y-439D01*
X-1876Y-440D01*
X-1874Y-441D01*
X-1873Y-442D01*
X-1871Y-442D01*
X-1870Y-442D01*
X-1868Y-442D01*
X-1862D01*
X-1860Y-443D01*
X-1859Y-443D01*
X-1859Y-443D01*
X-1858Y-443D01*
X-1858Y-443D01*
X-1857Y-443D01*
X-1857Y-444D01*
X-1857Y-444D01*
X-1856Y-445D01*
X-1856Y-445D01*
X-1856Y-446D01*
X-1856Y-447D01*
X-1855Y-447D01*
Y-448D01*
Y-448D01*
X-1856Y-449D01*
X-1856Y-450D01*
X-1856Y-451D01*
X-1857Y-451D01*
Y-451D01*
X-1858Y-452D01*
X-1859Y-452D01*
X-1859Y-453D01*
X-1859Y-453D01*
X-1859D01*
X-1860Y-453D01*
X-1861D01*
X-1863Y-453D01*
X-1865D01*
X-1868Y-453D01*
X-1870Y-453D01*
X-1872Y-454D01*
X-1873Y-454D01*
X-1874Y-454D01*
X-1876Y-455D01*
X-1876Y-456D01*
X-1877Y-456D01*
X-1878Y-457D01*
X-1878Y-457D01*
X-1878Y-458D01*
X-1879Y-458D01*
X-1879Y-459D01*
Y-459D01*
Y-459D01*
X-1879Y-461D01*
X-1878Y-462D01*
X-1877Y-464D01*
X-1877Y-465D01*
X-1876Y-466D01*
X-1875Y-467D01*
X-1875Y-467D01*
X-1874Y-467D01*
X-1874Y-468D01*
X-1873Y-468D01*
X-1870Y-469D01*
X-1868Y-470D01*
X-1866Y-470D01*
X-1864Y-471D01*
X-1863Y-471D01*
X-1862D01*
X-1862Y-471D01*
X-1861D01*
X-1859Y-471D01*
X-1857Y-471D01*
X-1853Y-470D01*
X-1850Y-469D01*
X-1848Y-468D01*
X-1847Y-468D01*
X-1846Y-467D01*
X-1844Y-467D01*
X-1844Y-466D01*
X-1843Y-466D01*
X-1842Y-465D01*
X-1842Y-465D01*
X-1841Y-465D01*
X-1841Y-465D01*
X-1840Y-464D01*
X-1838Y-463D01*
X-1837Y-462D01*
X-1836Y-462D01*
X-1836Y-462D01*
X-1835Y-462D01*
X-1835D01*
X-1834Y-462D01*
X-1834Y-462D01*
X-1833Y-462D01*
X-1832Y-463D01*
X-1832Y-463D01*
X-1831Y-463D01*
X-1831Y-463D01*
X-1831Y-464D01*
X-1830Y-465D01*
X-1830Y-465D01*
X-1830Y-466D01*
X-1830Y-467D01*
X-1830Y-467D01*
Y-467D01*
Y-468D01*
X-1830Y-469D01*
X-1830Y-470D01*
X-1831Y-471D01*
X-1832Y-472D01*
X-1832Y-472D01*
X-1833Y-473D01*
X-1833Y-473D01*
X-1833Y-473D01*
X-1835Y-475D01*
X-1837Y-476D01*
X-1838Y-477D01*
X-1840Y-478D01*
X-1841Y-478D01*
X-1842Y-479D01*
X-1843Y-479D01*
X-1843Y-479D01*
X-1843Y-479D01*
X-1844D01*
X-1846Y-480D01*
X-1849Y-481D01*
X-1851Y-481D01*
X-1854Y-481D01*
X-1856Y-482D01*
X-1857D01*
X-1858Y-482D01*
X-1860D01*
X-1863Y-482D01*
X-1865Y-481D01*
X-1868Y-481D01*
X-1870Y-481D01*
X-1872Y-480D01*
X-1874Y-479D01*
X-1875Y-479D01*
X-1877Y-478D01*
X-1878Y-477D01*
X-1879Y-477D01*
X-1880Y-476D01*
X-1881Y-476D01*
X-1882Y-475D01*
X-1882Y-475D01*
X-1882Y-475D01*
X-1883Y-475D01*
X-1884Y-473D01*
X-1885Y-472D01*
X-1886Y-471D01*
X-1887Y-469D01*
X-1888Y-468D01*
X-1888Y-467D01*
X-1889Y-464D01*
X-1890Y-462D01*
X-1890Y-461D01*
X-1890Y-461D01*
X-1890Y-460D01*
Y-460D01*
Y-459D01*
Y-459D01*
X-1890Y-458D01*
X-1890Y-456D01*
X-1889Y-454D01*
X-1888Y-452D01*
X-1887Y-450D01*
X-1886Y-449D01*
X-1885Y-448D01*
X-1885Y-447D01*
X-1884Y-447D01*
X-1884D01*
X-1886Y-446D01*
X-1887Y-445D01*
X-1889Y-443D01*
X-1890Y-442D01*
X-1891Y-441D01*
X-1891Y-440D01*
X-1892Y-438D01*
X-1893Y-437D01*
X-1893Y-435D01*
X-1894Y-434D01*
X-1894Y-433D01*
Y-433D01*
X-1894Y-432D01*
Y-432D01*
Y-432D01*
Y-430D01*
X-1894Y-429D01*
X-1893Y-427D01*
X-1892Y-425D01*
X-1891Y-423D01*
X-1890Y-422D01*
X-1889Y-421D01*
X-1889Y-420D01*
X-1888Y-420D01*
X-1888D01*
X-1886Y-419D01*
X-1884Y-418D01*
X-1882Y-417D01*
X-1879Y-416D01*
X-1877Y-416D01*
X-1876Y-416D01*
X-1876D01*
X-1875Y-416D01*
X-1874D01*
X-1871Y-416D01*
X-1868Y-416D01*
X-1865Y-417D01*
X-1863Y-418D01*
X-1861Y-419D01*
X-1861Y-419D01*
X-1860Y-420D01*
X-1860Y-420D01*
X-1859Y-420D01*
X-1859Y-420D01*
X-1859D01*
X-1859Y-419D01*
X-1859Y-418D01*
Y-418D01*
Y-417D01*
X-1859Y-417D01*
X-1859Y-416D01*
X-1859Y-415D01*
X-1858Y-414D01*
X-1858Y-414D01*
X-1858D01*
X-1857Y-413D01*
X-1857Y-413D01*
X-1856Y-413D01*
X-1855D01*
X-1855Y-413D01*
X-1854D01*
X-1853Y-413D01*
D02*
G37*
G36*
X-1685Y-358D02*
X-1684Y-359D01*
Y-359D01*
Y-359D01*
X-1685Y-360D01*
X-1685Y-360D01*
X-1686Y-361D01*
X-1686D01*
X-1687Y-360D01*
X-1687Y-360D01*
X-1687Y-359D01*
Y-359D01*
X-1686Y-359D01*
X-1686Y-358D01*
X-1685D01*
X-1685Y-358D01*
D02*
G37*
G36*
X-1910Y-632D02*
X-1909Y-632D01*
X-1909Y-632D01*
X-1908Y-632D01*
X-1906Y-633D01*
X-1906Y-633D01*
X-1905Y-634D01*
X-1905Y-634D01*
X-1904Y-634D01*
X-1904Y-634D01*
X-1903Y-635D01*
X-1903Y-635D01*
X-1903Y-635D01*
X-1903Y-635D01*
X-1903Y-635D01*
X-1902Y-636D01*
X-1902Y-637D01*
X-1901Y-637D01*
X-1901Y-638D01*
X-1900Y-639D01*
X-1900Y-639D01*
X-1900Y-641D01*
X-1899Y-642D01*
X-1899Y-642D01*
X-1899Y-643D01*
X-1899Y-643D01*
Y-643D01*
Y-643D01*
Y-643D01*
X-1899Y-644D01*
X-1899Y-645D01*
X-1900Y-646D01*
X-1900Y-647D01*
X-1900Y-648D01*
X-1901Y-649D01*
X-1901Y-650D01*
X-1901Y-650D01*
X-1902Y-651D01*
X-1902Y-651D01*
X-1902Y-652D01*
X-1903Y-652D01*
X-1903Y-652D01*
X-1903Y-652D01*
X-1903Y-652D01*
X-1904Y-653D01*
X-1904Y-653D01*
X-1905Y-654D01*
X-1906Y-654D01*
X-1907Y-655D01*
X-1907Y-655D01*
X-1909Y-655D01*
X-1910Y-656D01*
X-1910Y-656D01*
X-1911Y-656D01*
X-1911Y-656D01*
X-1912Y-656D01*
X-1912D01*
X-1913Y-656D01*
X-1915Y-656D01*
X-1916Y-655D01*
X-1917Y-655D01*
X-1917Y-655D01*
X-1918Y-655D01*
X-1918Y-655D01*
X-1918Y-655D01*
X-1919Y-655D01*
X-1919D01*
X-1920Y-654D01*
X-1921Y-654D01*
X-1921Y-653D01*
X-1922Y-653D01*
X-1922Y-653D01*
X-1923Y-652D01*
X-1923Y-652D01*
X-1923Y-652D01*
X-1923Y-652D01*
X-1923Y-652D01*
X-1923Y-651D01*
Y-651D01*
X-1923Y-651D01*
X-1923Y-651D01*
X-1923Y-651D01*
X-1923Y-651D01*
X-1923Y-650D01*
X-1923Y-650D01*
X-1922Y-650D01*
X-1922D01*
X-1922Y-650D01*
X-1922Y-650D01*
X-1922Y-651D01*
X-1922Y-651D01*
X-1921Y-651D01*
X-1920Y-652D01*
X-1919Y-652D01*
X-1919Y-652D01*
X-1918Y-652D01*
X-1918Y-653D01*
X-1917Y-653D01*
X-1917Y-653D01*
X-1917D01*
X-1916Y-653D01*
X-1915Y-653D01*
X-1914Y-653D01*
X-1914Y-654D01*
X-1913Y-654D01*
X-1913Y-654D01*
X-1912D01*
X-1911Y-654D01*
X-1911Y-654D01*
X-1909Y-653D01*
X-1908Y-653D01*
X-1907Y-652D01*
X-1906Y-652D01*
X-1906Y-652D01*
X-1905Y-652D01*
X-1905Y-651D01*
X-1905Y-651D01*
X-1905Y-651D01*
X-1905D01*
X-1904Y-650D01*
X-1903Y-649D01*
X-1902Y-648D01*
X-1902Y-647D01*
X-1902Y-646D01*
X-1902Y-645D01*
X-1902Y-645D01*
X-1901Y-645D01*
Y-644D01*
X-1901Y-644D01*
Y-644D01*
X-1923D01*
X-1923Y-643D01*
X-1923Y-642D01*
X-1923Y-641D01*
X-1923Y-641D01*
X-1923Y-640D01*
X-1922Y-639D01*
X-1922Y-638D01*
X-1922Y-638D01*
X-1921Y-637D01*
X-1921Y-637D01*
X-1921Y-636D01*
X-1921Y-636D01*
X-1920Y-636D01*
X-1920Y-636D01*
X-1920Y-635D01*
X-1920Y-635D01*
X-1919Y-635D01*
X-1919Y-634D01*
X-1918Y-634D01*
X-1917Y-633D01*
X-1916Y-633D01*
X-1916Y-633D01*
X-1914Y-632D01*
X-1914Y-632D01*
X-1913Y-632D01*
X-1913Y-632D01*
X-1912Y-632D01*
X-1912Y-632D01*
X-1911D01*
X-1910Y-632D01*
D02*
G37*
G36*
X-2037Y-622D02*
X-2036Y-622D01*
X-2035Y-622D01*
X-2035Y-622D01*
X-2034Y-623D01*
X-2034Y-623D01*
X-2033Y-623D01*
X-2033Y-623D01*
X-2032Y-624D01*
X-2032Y-624D01*
X-2031Y-625D01*
X-2030Y-625D01*
X-2030Y-626D01*
X-2030Y-626D01*
X-2030Y-626D01*
X-2030Y-626D01*
X-2029Y-627D01*
X-2029Y-628D01*
X-2029Y-628D01*
X-2028Y-629D01*
X-2028Y-629D01*
X-2028Y-629D01*
Y-630D01*
Y-630D01*
X-2028Y-630D01*
X-2028Y-630D01*
X-2028Y-630D01*
X-2028Y-630D01*
X-2029Y-631D01*
X-2029Y-631D01*
X-2029Y-631D01*
X-2029D01*
X-2029Y-631D01*
X-2030Y-631D01*
X-2030Y-631D01*
X-2030Y-630D01*
X-2030Y-630D01*
X-2030Y-630D01*
X-2030Y-630D01*
Y-630D01*
X-2031Y-629D01*
X-2031Y-628D01*
X-2031Y-627D01*
X-2032Y-627D01*
X-2032Y-626D01*
X-2033Y-626D01*
X-2033Y-626D01*
X-2033Y-626D01*
X-2034Y-625D01*
X-2035Y-625D01*
X-2036Y-624D01*
X-2036Y-624D01*
X-2037Y-624D01*
X-2038Y-624D01*
X-2038D01*
X-2039Y-624D01*
X-2040Y-624D01*
X-2041Y-625D01*
X-2042Y-625D01*
X-2043Y-625D01*
X-2043Y-626D01*
X-2043Y-626D01*
X-2044Y-626D01*
X-2044Y-627D01*
X-2045Y-628D01*
X-2045Y-629D01*
X-2046Y-629D01*
X-2046Y-630D01*
X-2046Y-631D01*
X-2046Y-631D01*
Y-631D01*
Y-631D01*
X-2046Y-632D01*
X-2046Y-633D01*
X-2046Y-633D01*
X-2046Y-633D01*
X-2045Y-633D01*
Y-633D01*
X-2045Y-634D01*
X-2045Y-634D01*
X-2045Y-635D01*
X-2044Y-635D01*
X-2044Y-635D01*
X-2044Y-635D01*
X-2044Y-636D01*
X-2043Y-636D01*
X-2043Y-637D01*
X-2042Y-637D01*
X-2042Y-638D01*
X-2041Y-639D01*
X-2040Y-639D01*
X-2040Y-640D01*
X-2040Y-640D01*
X-2040Y-640D01*
X-2038Y-642D01*
X-2035Y-644D01*
X-2033Y-646D01*
X-2032Y-647D01*
X-2031Y-648D01*
X-2030Y-649D01*
X-2030Y-650D01*
X-2029Y-650D01*
X-2028Y-651D01*
X-2028Y-651D01*
X-2027Y-652D01*
X-2027Y-652D01*
X-2027Y-652D01*
Y-655D01*
X-2048D01*
Y-652D01*
X-2048Y-652D01*
X-2048Y-651D01*
X-2048Y-651D01*
X-2048Y-651D01*
X-2048Y-651D01*
X-2047Y-651D01*
X-2047Y-651D01*
X-2047D01*
X-2047Y-651D01*
X-2047Y-651D01*
X-2046Y-651D01*
X-2046Y-651D01*
X-2046Y-651D01*
X-2046Y-652D01*
X-2046Y-652D01*
Y-652D01*
Y-652D01*
Y-653D01*
X-2029D01*
Y-653D01*
X-2030Y-652D01*
X-2031Y-651D01*
X-2033Y-649D01*
X-2035Y-647D01*
X-2037Y-645D01*
X-2038Y-644D01*
X-2039Y-644D01*
X-2040Y-643D01*
X-2040Y-642D01*
X-2041Y-642D01*
X-2041Y-641D01*
X-2042Y-641D01*
X-2042Y-641D01*
X-2043Y-640D01*
X-2044Y-639D01*
X-2044Y-638D01*
X-2045Y-638D01*
X-2045Y-637D01*
X-2046Y-637D01*
X-2046Y-637D01*
X-2046Y-637D01*
X-2046Y-636D01*
X-2047Y-635D01*
X-2047Y-635D01*
X-2047Y-635D01*
X-2047Y-634D01*
X-2047Y-634D01*
X-2048Y-634D01*
Y-634D01*
X-2048Y-633D01*
X-2048Y-632D01*
X-2048Y-632D01*
X-2048Y-632D01*
Y-631D01*
Y-631D01*
Y-631D01*
X-2048Y-630D01*
X-2048Y-630D01*
X-2048Y-629D01*
X-2047Y-628D01*
X-2047Y-627D01*
X-2046Y-626D01*
X-2046Y-625D01*
X-2045Y-625D01*
X-2045Y-625D01*
X-2045Y-625D01*
X-2045Y-625D01*
X-2045Y-624D01*
X-2044Y-624D01*
X-2043Y-623D01*
X-2043Y-623D01*
X-2042Y-623D01*
X-2040Y-622D01*
X-2040Y-622D01*
X-2039Y-622D01*
X-2039D01*
X-2039Y-622D01*
X-2038D01*
X-2037Y-622D01*
D02*
G37*
G36*
X-1866Y-625D02*
X-1866Y-625D01*
X-1866D01*
X-1865Y-625D01*
X-1865Y-625D01*
X-1865Y-625D01*
X-1865Y-625D01*
X-1865Y-626D01*
Y-626D01*
Y-626D01*
X-1865Y-626D01*
X-1865Y-626D01*
Y-627D01*
X-1865Y-627D01*
X-1865Y-627D01*
X-1865Y-627D01*
X-1866D01*
X-1866Y-627D01*
X-1868D01*
X-1879Y-655D01*
X-1882D01*
X-1892Y-627D01*
X-1894D01*
X-1894Y-627D01*
X-1894D01*
X-1895Y-627D01*
X-1895Y-627D01*
X-1895Y-627D01*
Y-627D01*
X-1895Y-626D01*
X-1895Y-626D01*
Y-626D01*
Y-626D01*
Y-626D01*
X-1895Y-626D01*
X-1895Y-625D01*
X-1895Y-625D01*
X-1895Y-625D01*
X-1895Y-625D01*
X-1895Y-625D01*
X-1894D01*
X-1894Y-625D01*
X-1894Y-625D01*
X-1886D01*
X-1885Y-625D01*
X-1885Y-625D01*
X-1885D01*
X-1885Y-625D01*
X-1885Y-625D01*
X-1885Y-625D01*
X-1885Y-625D01*
X-1885Y-626D01*
X-1885Y-626D01*
Y-626D01*
Y-626D01*
X-1885Y-626D01*
X-1885Y-626D01*
Y-627D01*
X-1885Y-627D01*
X-1885Y-627D01*
X-1885Y-627D01*
X-1885D01*
X-1885Y-627D01*
X-1890D01*
X-1880Y-653D01*
X-1880D01*
X-1870Y-627D01*
X-1874D01*
X-1875Y-627D01*
X-1875D01*
X-1875Y-627D01*
X-1875Y-627D01*
X-1875Y-627D01*
Y-627D01*
X-1875Y-626D01*
X-1876Y-626D01*
Y-626D01*
Y-626D01*
Y-626D01*
X-1876Y-626D01*
X-1875Y-625D01*
X-1875Y-625D01*
X-1875Y-625D01*
X-1875Y-625D01*
X-1875Y-625D01*
X-1875D01*
X-1875Y-625D01*
X-1874Y-625D01*
X-1866D01*
X-1866Y-625D01*
D02*
G37*
G36*
X-1974Y-649D02*
X-1974Y-649D01*
X-1973Y-649D01*
X-1973Y-649D01*
X-1973Y-650D01*
X-1972Y-650D01*
X-1972Y-650D01*
X-1972Y-650D01*
X-1972Y-650D01*
X-1972Y-651D01*
X-1971Y-651D01*
X-1971Y-651D01*
X-1971Y-652D01*
X-1971Y-652D01*
Y-652D01*
Y-652D01*
X-1971Y-653D01*
X-1971Y-653D01*
X-1971Y-654D01*
X-1972Y-654D01*
X-1972Y-654D01*
X-1972Y-655D01*
X-1972Y-655D01*
X-1972Y-655D01*
X-1973Y-655D01*
X-1973Y-655D01*
X-1973Y-656D01*
X-1974Y-656D01*
X-1974Y-656D01*
X-1974Y-656D01*
X-1976D01*
X-1976Y-656D01*
X-1977Y-656D01*
X-1977Y-656D01*
X-1977Y-655D01*
X-1978Y-655D01*
X-1978Y-655D01*
X-1978Y-655D01*
X-1978Y-655D01*
X-1978Y-654D01*
X-1979Y-654D01*
X-1979Y-654D01*
X-1979Y-653D01*
X-1979Y-653D01*
X-1979Y-653D01*
Y-652D01*
Y-652D01*
X-1979Y-652D01*
X-1979Y-651D01*
X-1979Y-651D01*
X-1979Y-651D01*
X-1978Y-650D01*
X-1978Y-650D01*
X-1978Y-650D01*
X-1978Y-650D01*
X-1978Y-650D01*
X-1977Y-649D01*
X-1977Y-649D01*
X-1976Y-649D01*
X-1976Y-649D01*
X-1976Y-649D01*
X-1975D01*
X-1974Y-649D01*
D02*
G37*
G36*
X-2069D02*
X-2069Y-649D01*
X-2068Y-649D01*
X-2068Y-649D01*
X-2068Y-650D01*
X-2067Y-650D01*
X-2067Y-650D01*
X-2067Y-650D01*
X-2067Y-650D01*
X-2067Y-651D01*
X-2067Y-651D01*
X-2066Y-651D01*
X-2066Y-652D01*
X-2066Y-652D01*
Y-652D01*
Y-652D01*
X-2066Y-653D01*
X-2066Y-653D01*
X-2067Y-654D01*
X-2067Y-654D01*
X-2067Y-654D01*
X-2067Y-655D01*
X-2067Y-655D01*
X-2067Y-655D01*
X-2068Y-655D01*
X-2068Y-655D01*
X-2069Y-656D01*
X-2069Y-656D01*
X-2069Y-656D01*
X-2070Y-656D01*
X-2071D01*
X-2071Y-656D01*
X-2072Y-656D01*
X-2072Y-656D01*
X-2072Y-655D01*
X-2073Y-655D01*
X-2073Y-655D01*
X-2073Y-655D01*
X-2073Y-655D01*
X-2074Y-654D01*
X-2074Y-654D01*
X-2074Y-654D01*
X-2074Y-653D01*
X-2074Y-653D01*
X-2074Y-653D01*
Y-652D01*
Y-652D01*
X-2074Y-652D01*
X-2074Y-651D01*
X-2074Y-651D01*
X-2074Y-651D01*
X-2074Y-650D01*
X-2073Y-650D01*
X-2073Y-650D01*
X-2073Y-650D01*
X-2073Y-650D01*
X-2072Y-649D01*
X-2072Y-649D01*
X-2072Y-649D01*
X-2071Y-649D01*
X-2071Y-649D01*
X-2070D01*
X-2069Y-649D01*
D02*
G37*
G36*
X-1950Y-632D02*
X-1950Y-632D01*
X-1949Y-632D01*
X-1948Y-633D01*
X-1948Y-633D01*
X-1947Y-633D01*
X-1947Y-633D01*
X-1947Y-633D01*
X-1947Y-633D01*
X-1946Y-634D01*
X-1945Y-634D01*
X-1944Y-635D01*
X-1943Y-636D01*
X-1942Y-637D01*
X-1942Y-637D01*
X-1942Y-638D01*
X-1941Y-638D01*
X-1941Y-638D01*
X-1941Y-638D01*
X-1941Y-638D01*
Y-633D01*
X-1935D01*
X-1934Y-633D01*
X-1934Y-633D01*
X-1934Y-633D01*
X-1934Y-633D01*
X-1933Y-633D01*
X-1933Y-633D01*
X-1933Y-634D01*
Y-634D01*
X-1933Y-634D01*
X-1933Y-634D01*
X-1933Y-634D01*
X-1934Y-634D01*
X-1934Y-635D01*
X-1934Y-635D01*
X-1935Y-635D01*
X-1939D01*
Y-653D01*
X-1933D01*
X-1933Y-653D01*
X-1933Y-653D01*
X-1932Y-653D01*
X-1932Y-653D01*
X-1932Y-653D01*
X-1932Y-654D01*
X-1932Y-654D01*
Y-654D01*
X-1932Y-654D01*
X-1932Y-654D01*
X-1932Y-655D01*
X-1932Y-655D01*
X-1933Y-655D01*
X-1933Y-655D01*
X-1933Y-655D01*
X-1950D01*
X-1951Y-655D01*
X-1951Y-655D01*
X-1951Y-655D01*
X-1952Y-655D01*
X-1952Y-654D01*
X-1952Y-654D01*
X-1952Y-654D01*
Y-654D01*
X-1952Y-654D01*
X-1952Y-653D01*
X-1952Y-653D01*
X-1952Y-653D01*
X-1951Y-653D01*
X-1951Y-653D01*
X-1951Y-653D01*
X-1941D01*
Y-641D01*
X-1942Y-640D01*
X-1943Y-639D01*
X-1943Y-639D01*
X-1944Y-638D01*
X-1945Y-638D01*
X-1945Y-637D01*
X-1946Y-637D01*
X-1946Y-637D01*
X-1947Y-636D01*
X-1947Y-636D01*
X-1948Y-635D01*
X-1948Y-635D01*
X-1948Y-635D01*
X-1949Y-635D01*
X-1950Y-635D01*
X-1950Y-634D01*
X-1951Y-634D01*
X-1951Y-634D01*
X-1951D01*
X-1952Y-634D01*
X-1952Y-634D01*
X-1952Y-635D01*
X-1952Y-635D01*
X-1953Y-635D01*
X-1954Y-635D01*
X-1954Y-636D01*
X-1954Y-636D01*
X-1954Y-636D01*
X-1954Y-636D01*
X-1955Y-636D01*
X-1955Y-636D01*
X-1955D01*
X-1955Y-637D01*
X-1955D01*
X-1955Y-636D01*
X-1956Y-636D01*
X-1956Y-636D01*
X-1956Y-636D01*
X-1956Y-636D01*
X-1956Y-636D01*
X-1956Y-635D01*
Y-635D01*
X-1956Y-635D01*
X-1956Y-635D01*
X-1956Y-634D01*
X-1955Y-634D01*
X-1955Y-634D01*
X-1955Y-634D01*
X-1955Y-633D01*
X-1955Y-633D01*
X-1954Y-633D01*
X-1953Y-633D01*
X-1953Y-632D01*
X-1952Y-632D01*
X-1952Y-632D01*
X-1951Y-632D01*
X-1951D01*
X-1950Y-632D01*
D02*
G37*
G36*
X-2101Y-622D02*
X-2101Y-622D01*
X-2099Y-622D01*
X-2098Y-623D01*
X-2097Y-623D01*
X-2096Y-624D01*
X-2096Y-625D01*
X-2095Y-625D01*
X-2095Y-625D01*
X-2095Y-625D01*
X-2095Y-626D01*
X-2094Y-627D01*
X-2094Y-628D01*
X-2093Y-628D01*
X-2093Y-630D01*
X-2092Y-632D01*
X-2092Y-633D01*
X-2092Y-634D01*
X-2092Y-634D01*
X-2092Y-635D01*
X-2092Y-635D01*
Y-636D01*
Y-636D01*
Y-636D01*
Y-642D01*
Y-643D01*
X-2092Y-644D01*
X-2092Y-644D01*
X-2092Y-645D01*
X-2092Y-646D01*
X-2093Y-646D01*
X-2093Y-647D01*
Y-647D01*
X-2093Y-648D01*
X-2093Y-649D01*
X-2093Y-649D01*
X-2094Y-650D01*
X-2094Y-650D01*
X-2094Y-650D01*
X-2094Y-650D01*
X-2094Y-651D01*
X-2094Y-651D01*
X-2095Y-652D01*
X-2095Y-652D01*
X-2095Y-653D01*
X-2095Y-653D01*
X-2095Y-653D01*
X-2096Y-653D01*
X-2096Y-653D01*
X-2096Y-654D01*
X-2097Y-654D01*
X-2097Y-654D01*
X-2098Y-655D01*
X-2098Y-655D01*
X-2098Y-655D01*
X-2098Y-655D01*
X-2099Y-655D01*
X-2100Y-655D01*
X-2100Y-656D01*
X-2101Y-656D01*
X-2101Y-656D01*
X-2102Y-656D01*
X-2102D01*
X-2103Y-656D01*
X-2103Y-656D01*
X-2105Y-655D01*
X-2106Y-655D01*
X-2107Y-654D01*
X-2108Y-654D01*
X-2108Y-653D01*
X-2108Y-653D01*
X-2109Y-653D01*
Y-653D01*
X-2109Y-652D01*
X-2110Y-651D01*
X-2110Y-650D01*
X-2111Y-649D01*
X-2111Y-648D01*
X-2111Y-647D01*
X-2112Y-646D01*
X-2112Y-645D01*
X-2112Y-644D01*
X-2112Y-643D01*
X-2112Y-643D01*
X-2112Y-642D01*
Y-642D01*
Y-642D01*
Y-642D01*
Y-636D01*
Y-635D01*
X-2112Y-634D01*
X-2112Y-633D01*
X-2112Y-632D01*
X-2112Y-632D01*
X-2111Y-631D01*
X-2111Y-631D01*
Y-631D01*
X-2111Y-630D01*
X-2111Y-629D01*
X-2111Y-629D01*
X-2110Y-628D01*
X-2110Y-628D01*
X-2110Y-628D01*
X-2110Y-628D01*
X-2110Y-627D01*
X-2109Y-626D01*
X-2109Y-626D01*
X-2109Y-625D01*
X-2109Y-625D01*
X-2108Y-625D01*
X-2108Y-625D01*
X-2108Y-625D01*
X-2108Y-624D01*
X-2107Y-624D01*
X-2107Y-623D01*
X-2106Y-623D01*
X-2106Y-623D01*
X-2106Y-623D01*
X-2106Y-623D01*
X-2105Y-623D01*
X-2105Y-622D01*
X-2104Y-622D01*
X-2104Y-622D01*
X-2103Y-622D01*
X-2103Y-622D01*
X-2102Y-622D01*
X-2102D01*
X-2101Y-622D01*
D02*
G37*
G36*
X-1910Y-417D02*
X-1909Y-418D01*
X-1908Y-418D01*
X-1907Y-418D01*
X-1906Y-418D01*
X-1906Y-419D01*
X-1905Y-419D01*
X-1905Y-419D01*
X-1904Y-420D01*
X-1904Y-421D01*
X-1903Y-422D01*
X-1903Y-422D01*
X-1902Y-423D01*
X-1902Y-423D01*
Y-424D01*
Y-424D01*
Y-425D01*
X-1903Y-425D01*
X-1903Y-426D01*
X-1903Y-426D01*
X-1903Y-427D01*
X-1903Y-427D01*
X-1904Y-427D01*
X-1905Y-428D01*
X-1907Y-428D01*
X-1908Y-428D01*
X-1913D01*
X-1904Y-469D01*
X-1902D01*
X-1901Y-470D01*
X-1900Y-470D01*
X-1899Y-470D01*
X-1898Y-470D01*
X-1897Y-471D01*
X-1897Y-471D01*
X-1897Y-471D01*
X-1896Y-471D01*
X-1895Y-472D01*
X-1895Y-473D01*
X-1894Y-474D01*
X-1894Y-474D01*
X-1894Y-475D01*
X-1893Y-476D01*
Y-476D01*
Y-476D01*
Y-477D01*
X-1894Y-477D01*
X-1894Y-478D01*
X-1894Y-479D01*
X-1895Y-479D01*
X-1895Y-479D01*
X-1896Y-480D01*
X-1898Y-480D01*
X-1899Y-480D01*
X-1931D01*
X-1933Y-480D01*
X-1935Y-480D01*
X-1937Y-480D01*
X-1939Y-479D01*
X-1940Y-479D01*
X-1941Y-479D01*
X-1941Y-479D01*
X-1942Y-478D01*
X-1943Y-478D01*
X-1945Y-477D01*
X-1946Y-477D01*
X-1947Y-476D01*
X-1948Y-476D01*
X-1948Y-475D01*
X-1949Y-475D01*
X-1949Y-475D01*
X-1950Y-474D01*
X-1951Y-473D01*
X-1952Y-472D01*
X-1952Y-471D01*
X-1953Y-470D01*
X-1953Y-469D01*
X-1954Y-469D01*
X-1954Y-469D01*
X-1955Y-467D01*
X-1955Y-466D01*
X-1956Y-464D01*
X-1956Y-463D01*
X-1956Y-462D01*
X-1956Y-461D01*
Y-460D01*
Y-460D01*
X-1956Y-459D01*
X-1956Y-457D01*
X-1956Y-456D01*
X-1955Y-455D01*
X-1955Y-454D01*
X-1955Y-454D01*
X-1954Y-453D01*
X-1954Y-453D01*
X-1953Y-452D01*
X-1953Y-451D01*
X-1952Y-450D01*
X-1951Y-449D01*
X-1950Y-448D01*
X-1949Y-448D01*
X-1949Y-448D01*
X-1949Y-447D01*
X-1950Y-446D01*
X-1952Y-445D01*
X-1953Y-444D01*
X-1954Y-443D01*
X-1954Y-442D01*
X-1955Y-441D01*
X-1955Y-440D01*
X-1955Y-440D01*
X-1956Y-439D01*
X-1957Y-437D01*
X-1957Y-436D01*
X-1957Y-435D01*
X-1957Y-433D01*
X-1958Y-433D01*
Y-432D01*
Y-432D01*
X-1957Y-430D01*
X-1957Y-428D01*
X-1956Y-426D01*
X-1955Y-424D01*
X-1954Y-423D01*
X-1953Y-422D01*
X-1953Y-422D01*
X-1953Y-422D01*
X-1951Y-420D01*
X-1949Y-419D01*
X-1946Y-418D01*
X-1944Y-418D01*
X-1942Y-418D01*
X-1941Y-417D01*
X-1940D01*
X-1940Y-417D01*
X-1911D01*
X-1910Y-417D01*
D02*
G37*
G36*
X-1931Y-505D02*
X-1931Y-505D01*
X-1931Y-505D01*
X-1930Y-505D01*
X-1930Y-505D01*
X-1930Y-506D01*
X-1930Y-506D01*
Y-506D01*
Y-506D01*
Y-513D01*
X-1926D01*
X-1926Y-513D01*
X-1925Y-513D01*
X-1925Y-513D01*
X-1925Y-513D01*
X-1925Y-513D01*
X-1925Y-513D01*
X-1925Y-514D01*
Y-514D01*
X-1925Y-514D01*
X-1925Y-514D01*
X-1925Y-514D01*
X-1925Y-514D01*
X-1925Y-515D01*
X-1926Y-515D01*
X-1926Y-515D01*
X-1930D01*
Y-529D01*
X-1930Y-530D01*
X-1931Y-531D01*
X-1931Y-532D01*
X-1931Y-533D01*
X-1932Y-533D01*
X-1932Y-534D01*
X-1932Y-534D01*
X-1932Y-534D01*
X-1933Y-535D01*
X-1934Y-535D01*
X-1935Y-535D01*
X-1936Y-536D01*
X-1937Y-536D01*
X-1938Y-536D01*
X-1938Y-536D01*
X-1938D01*
X-1940Y-536D01*
X-1941Y-536D01*
X-1942Y-536D01*
X-1943Y-535D01*
X-1943Y-535D01*
X-1944Y-535D01*
X-1944Y-535D01*
X-1944D01*
X-1944Y-535D01*
X-1944D01*
X-1946Y-535D01*
X-1946Y-534D01*
X-1947Y-534D01*
X-1948Y-534D01*
X-1948Y-533D01*
X-1948Y-533D01*
X-1948Y-533D01*
X-1949Y-533D01*
X-1949Y-533D01*
X-1949Y-533D01*
X-1949Y-532D01*
Y-532D01*
X-1949Y-532D01*
X-1949Y-532D01*
X-1949Y-532D01*
X-1949Y-532D01*
X-1948Y-531D01*
X-1948Y-531D01*
X-1948Y-531D01*
X-1948D01*
X-1948Y-531D01*
X-1947Y-531D01*
X-1947Y-531D01*
X-1947Y-532D01*
X-1946Y-532D01*
X-1946Y-532D01*
X-1945Y-532D01*
X-1944Y-533D01*
X-1944Y-533D01*
X-1943Y-533D01*
X-1943Y-533D01*
X-1943Y-533D01*
X-1943D01*
X-1942Y-533D01*
X-1941Y-533D01*
X-1940Y-533D01*
X-1940Y-534D01*
X-1939D01*
X-1939Y-534D01*
X-1938D01*
X-1937Y-534D01*
X-1936Y-533D01*
X-1936Y-533D01*
X-1935Y-533D01*
X-1934Y-533D01*
X-1934Y-533D01*
X-1934Y-532D01*
X-1934Y-532D01*
X-1933Y-532D01*
X-1933Y-531D01*
X-1933Y-531D01*
X-1933Y-530D01*
X-1932Y-530D01*
X-1932Y-530D01*
Y-529D01*
Y-529D01*
Y-515D01*
X-1944D01*
X-1945Y-515D01*
X-1945Y-515D01*
X-1945Y-515D01*
X-1945Y-514D01*
X-1945Y-514D01*
X-1945Y-514D01*
X-1946Y-514D01*
Y-514D01*
X-1945Y-513D01*
X-1945Y-513D01*
X-1945Y-513D01*
X-1945Y-513D01*
X-1945Y-513D01*
X-1944Y-513D01*
X-1944Y-513D01*
X-1932D01*
Y-506D01*
X-1932Y-506D01*
X-1932Y-505D01*
X-1932Y-505D01*
X-1932Y-505D01*
X-1932Y-505D01*
X-1932Y-505D01*
X-1931Y-505D01*
X-1931D01*
X-1931Y-505D01*
D02*
G37*
G36*
X-2127Y-512D02*
X-2126Y-512D01*
X-2125Y-512D01*
X-2124Y-512D01*
X-2123Y-513D01*
X-2122Y-513D01*
X-2121Y-514D01*
X-2121Y-514D01*
X-2120Y-514D01*
X-2120Y-515D01*
X-2120Y-515D01*
X-2119Y-515D01*
X-2119Y-515D01*
X-2119Y-515D01*
X-2119Y-515D01*
X-2118Y-516D01*
X-2118Y-517D01*
X-2117Y-517D01*
X-2117Y-518D01*
X-2117Y-519D01*
X-2116Y-520D01*
X-2116Y-521D01*
X-2116Y-522D01*
X-2116Y-522D01*
X-2116Y-523D01*
X-2116Y-523D01*
X-2116Y-523D01*
Y-524D01*
Y-524D01*
Y-524D01*
X-2116Y-525D01*
X-2116Y-526D01*
X-2116Y-527D01*
X-2116Y-528D01*
X-2117Y-529D01*
X-2117Y-530D01*
X-2117Y-530D01*
X-2118Y-531D01*
X-2118Y-531D01*
X-2118Y-532D01*
X-2118Y-532D01*
X-2119Y-532D01*
X-2119Y-532D01*
X-2119Y-532D01*
X-2119Y-532D01*
X-2120Y-533D01*
X-2120Y-534D01*
X-2121Y-534D01*
X-2122Y-534D01*
X-2122Y-535D01*
X-2123Y-535D01*
X-2124Y-535D01*
X-2125Y-536D01*
X-2126Y-536D01*
X-2126Y-536D01*
X-2127Y-536D01*
X-2127Y-536D01*
X-2128D01*
X-2128Y-536D01*
X-2129Y-536D01*
X-2131Y-535D01*
X-2133Y-535D01*
X-2134Y-535D01*
X-2134Y-534D01*
X-2135Y-534D01*
X-2135Y-534D01*
X-2136Y-534D01*
X-2136Y-533D01*
X-2136Y-533D01*
X-2137Y-533D01*
X-2137Y-533D01*
X-2137D01*
X-2137Y-533D01*
X-2138Y-532D01*
X-2138Y-532D01*
X-2139Y-531D01*
X-2139Y-531D01*
X-2139Y-531D01*
X-2139Y-530D01*
X-2140Y-530D01*
Y-530D01*
X-2139Y-530D01*
X-2139Y-530D01*
X-2139Y-530D01*
X-2139Y-530D01*
X-2139Y-529D01*
X-2139Y-529D01*
X-2139Y-529D01*
X-2138D01*
X-2138Y-529D01*
X-2138Y-529D01*
X-2138Y-530D01*
X-2137Y-530D01*
X-2137Y-530D01*
X-2136Y-531D01*
X-2135Y-532D01*
X-2134Y-532D01*
X-2134Y-532D01*
X-2133Y-533D01*
X-2133Y-533D01*
X-2133Y-533D01*
X-2133D01*
X-2132Y-533D01*
X-2131Y-533D01*
X-2130Y-533D01*
X-2129Y-534D01*
X-2129Y-534D01*
X-2128Y-534D01*
X-2127D01*
X-2126Y-534D01*
X-2125Y-533D01*
X-2123Y-533D01*
X-2122Y-532D01*
X-2122Y-532D01*
X-2121Y-531D01*
X-2121Y-531D01*
X-2121Y-531D01*
X-2121Y-531D01*
X-2120D01*
X-2120Y-530D01*
X-2120Y-530D01*
X-2119Y-529D01*
X-2118Y-528D01*
X-2118Y-526D01*
X-2118Y-525D01*
X-2118Y-525D01*
Y-525D01*
X-2118Y-524D01*
Y-524D01*
Y-524D01*
Y-524D01*
X-2118Y-523D01*
X-2118Y-521D01*
X-2118Y-520D01*
X-2119Y-519D01*
X-2119Y-518D01*
X-2120Y-518D01*
X-2120Y-518D01*
X-2120Y-517D01*
X-2120Y-517D01*
X-2120Y-517D01*
Y-517D01*
X-2121Y-517D01*
X-2121Y-516D01*
X-2122Y-516D01*
X-2122Y-515D01*
X-2124Y-515D01*
X-2125Y-514D01*
X-2126Y-514D01*
X-2126Y-514D01*
X-2127Y-514D01*
X-2127Y-514D01*
X-2128D01*
X-2129Y-514D01*
X-2130Y-514D01*
X-2131Y-515D01*
X-2132Y-515D01*
X-2133Y-515D01*
X-2133Y-515D01*
X-2134Y-516D01*
X-2134Y-516D01*
X-2134Y-516D01*
X-2135Y-517D01*
X-2135Y-518D01*
X-2136Y-518D01*
X-2136Y-519D01*
X-2136Y-519D01*
X-2136Y-519D01*
Y-519D01*
X-2136Y-520D01*
X-2136Y-520D01*
X-2136Y-520D01*
X-2136Y-520D01*
X-2137Y-520D01*
X-2137Y-520D01*
X-2137Y-520D01*
X-2137D01*
X-2137Y-520D01*
X-2138Y-520D01*
X-2138Y-520D01*
X-2138Y-520D01*
X-2138Y-520D01*
X-2138Y-519D01*
X-2138Y-519D01*
Y-519D01*
Y-519D01*
Y-514D01*
X-2138Y-514D01*
X-2138Y-513D01*
X-2138Y-513D01*
X-2138Y-513D01*
X-2138Y-513D01*
X-2137Y-513D01*
X-2137Y-513D01*
X-2137D01*
X-2137Y-513D01*
X-2137Y-513D01*
X-2136Y-513D01*
X-2136Y-513D01*
X-2136Y-513D01*
X-2136Y-514D01*
X-2136Y-514D01*
Y-514D01*
Y-514D01*
Y-515D01*
X-2135Y-514D01*
X-2135Y-514D01*
X-2134Y-513D01*
X-2133Y-513D01*
X-2132Y-513D01*
X-2131Y-512D01*
X-2130Y-512D01*
X-2129Y-512D01*
X-2129Y-512D01*
X-2128Y-512D01*
X-2128Y-512D01*
X-2128D01*
X-2127Y-512D01*
D02*
G37*
G36*
X-1999Y-504D02*
X-1997Y-505D01*
X-1996Y-505D01*
X-1995Y-505D01*
X-1994Y-506D01*
X-1994Y-506D01*
X-1993Y-506D01*
X-1993Y-506D01*
X-1993Y-506D01*
X-1993Y-507D01*
X-1993Y-507D01*
X-1992Y-507D01*
X-1992Y-508D01*
X-1991Y-508D01*
X-1991Y-509D01*
X-1991Y-510D01*
X-1990Y-511D01*
X-1990Y-512D01*
X-1990Y-512D01*
Y-512D01*
Y-512D01*
Y-512D01*
X-1990Y-514D01*
X-1991Y-515D01*
X-1991Y-516D01*
X-1991Y-516D01*
X-1992Y-517D01*
X-1992Y-517D01*
X-1992Y-518D01*
X-1993Y-518D01*
X-1993Y-518D01*
X-1994Y-518D01*
X-1995Y-519D01*
X-1996Y-519D01*
X-1997Y-520D01*
X-1998Y-520D01*
X-1999Y-520D01*
X-1999Y-520D01*
X-2000Y-520D01*
X-2000Y-520D01*
X-2000Y-520D01*
X-2000D01*
X-2001Y-521D01*
X-2002Y-521D01*
X-2002Y-521D01*
X-2003Y-521D01*
X-2004Y-521D01*
X-2004Y-521D01*
X-2005Y-521D01*
X-2005Y-522D01*
X-2005Y-522D01*
X-2006D01*
X-2006Y-522D01*
X-2007Y-522D01*
X-2007Y-523D01*
X-2007Y-523D01*
X-2008Y-523D01*
X-2008Y-524D01*
X-2008Y-524D01*
X-2008Y-524D01*
X-2008Y-524D01*
X-2009Y-525D01*
X-2009Y-525D01*
X-2009Y-526D01*
X-2009Y-526D01*
X-2009Y-527D01*
Y-527D01*
Y-527D01*
X-2009Y-528D01*
X-2009Y-529D01*
X-2008Y-530D01*
X-2008Y-530D01*
X-2007Y-531D01*
X-2007Y-531D01*
X-2007Y-532D01*
X-2007Y-532D01*
X-2006Y-532D01*
X-2005Y-533D01*
X-2004Y-533D01*
X-2003Y-533D01*
X-2002Y-534D01*
X-2001Y-534D01*
X-2001D01*
X-2001Y-534D01*
X-2000D01*
X-1999Y-534D01*
X-1997Y-533D01*
X-1996Y-533D01*
X-1995Y-533D01*
X-1995Y-532D01*
X-1994Y-532D01*
X-1994Y-532D01*
X-1994Y-532D01*
X-1993Y-531D01*
X-1992Y-530D01*
X-1992Y-530D01*
X-1992Y-529D01*
X-1991Y-528D01*
X-1991Y-528D01*
X-1991Y-528D01*
Y-527D01*
X-1991Y-527D01*
X-1991Y-527D01*
X-1991Y-527D01*
X-1991Y-526D01*
X-1991Y-526D01*
X-1990Y-526D01*
X-1990Y-526D01*
X-1990D01*
X-1990Y-526D01*
X-1990Y-526D01*
X-1989Y-526D01*
X-1989Y-526D01*
X-1989Y-527D01*
X-1989Y-527D01*
X-1989Y-528D01*
Y-528D01*
Y-528D01*
Y-534D01*
X-1989Y-534D01*
X-1989Y-534D01*
X-1989Y-535D01*
X-1989Y-535D01*
X-1990Y-535D01*
X-1990Y-535D01*
X-1990Y-535D01*
X-1990D01*
X-1990Y-535D01*
X-1991Y-535D01*
X-1991Y-535D01*
X-1991Y-535D01*
X-1991Y-534D01*
X-1991Y-534D01*
X-1991Y-534D01*
Y-534D01*
Y-534D01*
Y-532D01*
X-1992Y-533D01*
X-1993Y-533D01*
X-1993Y-534D01*
X-1994Y-534D01*
X-1995Y-535D01*
X-1996Y-535D01*
X-1997Y-535D01*
X-1998Y-536D01*
X-1998Y-536D01*
X-1999Y-536D01*
X-1999Y-536D01*
X-2000Y-536D01*
X-2000D01*
X-2001Y-536D01*
X-2002Y-536D01*
X-2004Y-535D01*
X-2005Y-535D01*
X-2006Y-535D01*
X-2006Y-535D01*
X-2007Y-534D01*
X-2007Y-534D01*
X-2007Y-534D01*
X-2008Y-534D01*
X-2008Y-533D01*
X-2008Y-533D01*
X-2008Y-533D01*
X-2008D01*
X-2009Y-533D01*
X-2009Y-532D01*
X-2010Y-532D01*
X-2010Y-531D01*
X-2011Y-530D01*
X-2011Y-529D01*
X-2011Y-528D01*
X-2011Y-528D01*
X-2011Y-528D01*
X-2011Y-527D01*
Y-527D01*
Y-527D01*
Y-527D01*
X-2011Y-526D01*
X-2011Y-525D01*
X-2011Y-524D01*
X-2011Y-524D01*
X-2010Y-523D01*
X-2010Y-523D01*
X-2010Y-523D01*
X-2010Y-523D01*
X-2010Y-522D01*
X-2009Y-521D01*
X-2009Y-521D01*
X-2008Y-521D01*
X-2007Y-520D01*
X-2007Y-520D01*
X-2007Y-520D01*
X-2007Y-520D01*
X-2006Y-520D01*
X-2006Y-520D01*
X-2005Y-519D01*
X-2004Y-519D01*
X-2003Y-519D01*
X-2002Y-519D01*
X-2002Y-519D01*
X-2001Y-519D01*
X-2001Y-518D01*
X-2001D01*
X-2001Y-518D01*
X-2001D01*
X-2000Y-518D01*
X-1999Y-518D01*
X-1998Y-518D01*
X-1998Y-518D01*
X-1997Y-518D01*
X-1997Y-518D01*
X-1997Y-518D01*
X-1997D01*
X-1996Y-517D01*
X-1995Y-517D01*
X-1995Y-517D01*
X-1995Y-517D01*
X-1995Y-517D01*
X-1995D01*
X-1994Y-516D01*
X-1993Y-515D01*
X-1993Y-515D01*
X-1993Y-515D01*
X-1993Y-515D01*
Y-515D01*
X-1993Y-514D01*
X-1992Y-513D01*
Y-513D01*
X-1992Y-513D01*
Y-513D01*
Y-512D01*
X-1992Y-512D01*
X-1993Y-511D01*
X-1993Y-510D01*
X-1993Y-509D01*
X-1994Y-509D01*
X-1994Y-508D01*
X-1994Y-508D01*
X-1994Y-508D01*
X-1995Y-508D01*
X-1996Y-507D01*
X-1997Y-507D01*
X-1998Y-507D01*
X-1999Y-506D01*
X-2000Y-506D01*
X-2000D01*
X-2001Y-506D01*
X-2003Y-507D01*
X-2003Y-507D01*
X-2004Y-507D01*
X-2005Y-507D01*
X-2005Y-508D01*
X-2006Y-508D01*
X-2006Y-508D01*
X-2006Y-509D01*
X-2007Y-509D01*
X-2007Y-510D01*
X-2008Y-511D01*
X-2008Y-511D01*
X-2008Y-512D01*
X-2008Y-512D01*
Y-512D01*
X-2008Y-512D01*
X-2008Y-513D01*
X-2008Y-513D01*
X-2008Y-513D01*
X-2009Y-513D01*
X-2009Y-513D01*
X-2009Y-513D01*
X-2009D01*
X-2009Y-513D01*
X-2010Y-513D01*
X-2010Y-513D01*
X-2010Y-513D01*
X-2010Y-513D01*
X-2010Y-512D01*
X-2010Y-512D01*
Y-512D01*
Y-512D01*
Y-506D01*
X-2010Y-506D01*
X-2010Y-505D01*
X-2010Y-505D01*
X-2010Y-505D01*
X-2010Y-505D01*
X-2009Y-505D01*
X-2009Y-505D01*
X-2009D01*
X-2009Y-505D01*
X-2009Y-505D01*
X-2008Y-505D01*
X-2008Y-505D01*
X-2008Y-505D01*
X-2008Y-506D01*
X-2008Y-506D01*
Y-506D01*
Y-506D01*
Y-507D01*
X-2007Y-506D01*
X-2007Y-506D01*
X-2006Y-506D01*
X-2005Y-505D01*
X-2004Y-505D01*
X-2003Y-504D01*
X-2002Y-504D01*
X-2001Y-504D01*
X-2001D01*
X-2001Y-504D01*
X-2000D01*
X-1999Y-504D01*
D02*
G37*
G36*
X-2094Y-512D02*
X-2093Y-512D01*
X-2092Y-512D01*
X-2091Y-512D01*
X-2090Y-513D01*
X-2089Y-513D01*
X-2089Y-514D01*
X-2088Y-514D01*
X-2088Y-514D01*
X-2087Y-514D01*
X-2087Y-515D01*
X-2087Y-515D01*
X-2086Y-515D01*
X-2086Y-515D01*
X-2086Y-515D01*
X-2086Y-516D01*
X-2085Y-517D01*
X-2085Y-517D01*
X-2084Y-518D01*
X-2084Y-519D01*
X-2084Y-519D01*
X-2083Y-521D01*
X-2083Y-522D01*
X-2083Y-522D01*
X-2083Y-523D01*
X-2083Y-523D01*
Y-523D01*
Y-523D01*
Y-523D01*
X-2083Y-524D01*
X-2083Y-525D01*
X-2083Y-526D01*
X-2083Y-527D01*
X-2084Y-528D01*
X-2084Y-529D01*
X-2085Y-530D01*
X-2085Y-530D01*
X-2085Y-531D01*
X-2086Y-531D01*
X-2086Y-532D01*
X-2086Y-532D01*
X-2086Y-532D01*
X-2086Y-532D01*
X-2086Y-532D01*
X-2087Y-533D01*
X-2088Y-533D01*
X-2089Y-534D01*
X-2089Y-534D01*
X-2090Y-535D01*
X-2091Y-535D01*
X-2092Y-535D01*
X-2093Y-536D01*
X-2094Y-536D01*
X-2094Y-536D01*
X-2095Y-536D01*
X-2095Y-536D01*
X-2096D01*
X-2097Y-536D01*
X-2098Y-536D01*
X-2099Y-535D01*
X-2100Y-535D01*
X-2101Y-535D01*
X-2102Y-535D01*
X-2102Y-535D01*
X-2102Y-535D01*
X-2102Y-535D01*
X-2102D01*
X-2103Y-534D01*
X-2104Y-534D01*
X-2105Y-533D01*
X-2106Y-533D01*
X-2106Y-533D01*
X-2106Y-532D01*
X-2106Y-532D01*
X-2107Y-532D01*
X-2107Y-532D01*
X-2107Y-532D01*
X-2107Y-531D01*
Y-531D01*
X-2107Y-531D01*
X-2107Y-531D01*
X-2107Y-531D01*
X-2107Y-531D01*
X-2106Y-530D01*
X-2106Y-530D01*
X-2106Y-530D01*
X-2106D01*
X-2106Y-530D01*
X-2105Y-530D01*
X-2105Y-531D01*
X-2105Y-531D01*
X-2104Y-531D01*
X-2104Y-532D01*
X-2103Y-532D01*
X-2102Y-532D01*
X-2102Y-532D01*
X-2101Y-533D01*
X-2101Y-533D01*
X-2101Y-533D01*
X-2101D01*
X-2100Y-533D01*
X-2099Y-533D01*
X-2098Y-533D01*
X-2097Y-534D01*
X-2097Y-534D01*
X-2096Y-534D01*
X-2096D01*
X-2095Y-534D01*
X-2094Y-534D01*
X-2093Y-533D01*
X-2092Y-533D01*
X-2090Y-532D01*
X-2090Y-532D01*
X-2089Y-532D01*
X-2089Y-532D01*
X-2089Y-531D01*
X-2089Y-531D01*
X-2088Y-531D01*
X-2088D01*
X-2087Y-530D01*
X-2087Y-529D01*
X-2086Y-528D01*
X-2086Y-527D01*
X-2085Y-526D01*
X-2085Y-525D01*
X-2085Y-525D01*
X-2085Y-525D01*
Y-524D01*
X-2085Y-524D01*
Y-524D01*
X-2107D01*
X-2107Y-523D01*
X-2107Y-522D01*
X-2107Y-521D01*
X-2106Y-521D01*
X-2106Y-520D01*
X-2106Y-519D01*
X-2106Y-518D01*
X-2105Y-518D01*
X-2105Y-517D01*
X-2105Y-517D01*
X-2104Y-516D01*
X-2104Y-516D01*
X-2104Y-516D01*
X-2104Y-516D01*
X-2104Y-515D01*
X-2104Y-515D01*
X-2103Y-515D01*
X-2102Y-514D01*
X-2102Y-514D01*
X-2101Y-513D01*
X-2100Y-513D01*
X-2099Y-513D01*
X-2098Y-512D01*
X-2097Y-512D01*
X-2097Y-512D01*
X-2096Y-512D01*
X-2096Y-512D01*
X-2095Y-512D01*
X-2095D01*
X-2094Y-512D01*
D02*
G37*
G36*
X-2031D02*
X-2030Y-512D01*
X-2029Y-512D01*
X-2028Y-512D01*
X-2027Y-513D01*
X-2026Y-513D01*
X-2025Y-514D01*
X-2025Y-514D01*
X-2024Y-514D01*
X-2024Y-514D01*
X-2023Y-515D01*
X-2023Y-515D01*
X-2023Y-515D01*
X-2023Y-515D01*
X-2023Y-515D01*
X-2022Y-516D01*
X-2022Y-517D01*
X-2021Y-517D01*
X-2021Y-518D01*
X-2020Y-519D01*
X-2020Y-519D01*
X-2020Y-521D01*
X-2020Y-522D01*
X-2019Y-522D01*
X-2019Y-523D01*
X-2019Y-523D01*
Y-523D01*
Y-523D01*
Y-523D01*
X-2019Y-524D01*
X-2020Y-525D01*
X-2020Y-526D01*
X-2020Y-527D01*
X-2021Y-528D01*
X-2021Y-529D01*
X-2021Y-530D01*
X-2022Y-530D01*
X-2022Y-531D01*
X-2022Y-531D01*
X-2022Y-532D01*
X-2023Y-532D01*
X-2023Y-532D01*
X-2023Y-532D01*
X-2023Y-532D01*
X-2024Y-533D01*
X-2025Y-533D01*
X-2025Y-534D01*
X-2026Y-534D01*
X-2027Y-535D01*
X-2028Y-535D01*
X-2029Y-535D01*
X-2030Y-536D01*
X-2030Y-536D01*
X-2031Y-536D01*
X-2031Y-536D01*
X-2032Y-536D01*
X-2032D01*
X-2034Y-536D01*
X-2035Y-536D01*
X-2036Y-535D01*
X-2037Y-535D01*
X-2038Y-535D01*
X-2038Y-535D01*
X-2038Y-535D01*
X-2039Y-535D01*
X-2039Y-535D01*
X-2039D01*
X-2040Y-534D01*
X-2041Y-534D01*
X-2041Y-533D01*
X-2042Y-533D01*
X-2043Y-533D01*
X-2043Y-532D01*
X-2043Y-532D01*
X-2043Y-532D01*
X-2043Y-532D01*
X-2044Y-532D01*
X-2044Y-531D01*
Y-531D01*
X-2044Y-531D01*
X-2043Y-531D01*
X-2043Y-531D01*
X-2043Y-531D01*
X-2043Y-530D01*
X-2043Y-530D01*
X-2043Y-530D01*
X-2043D01*
X-2042Y-530D01*
X-2042Y-530D01*
X-2042Y-531D01*
X-2042Y-531D01*
X-2041Y-531D01*
X-2040Y-532D01*
X-2040Y-532D01*
X-2039Y-532D01*
X-2038Y-532D01*
X-2038Y-533D01*
X-2037Y-533D01*
X-2037Y-533D01*
X-2037D01*
X-2036Y-533D01*
X-2035Y-533D01*
X-2035Y-533D01*
X-2034Y-534D01*
X-2033Y-534D01*
X-2033Y-534D01*
X-2032D01*
X-2031Y-534D01*
X-2031Y-534D01*
X-2029Y-533D01*
X-2028Y-533D01*
X-2027Y-532D01*
X-2026Y-532D01*
X-2026Y-532D01*
X-2026Y-532D01*
X-2025Y-531D01*
X-2025Y-531D01*
X-2025Y-531D01*
X-2025D01*
X-2024Y-530D01*
X-2023Y-529D01*
X-2023Y-528D01*
X-2022Y-527D01*
X-2022Y-526D01*
X-2022Y-525D01*
X-2022Y-525D01*
X-2022Y-525D01*
Y-524D01*
X-2022Y-524D01*
Y-524D01*
X-2044D01*
X-2044Y-523D01*
X-2043Y-522D01*
X-2043Y-521D01*
X-2043Y-521D01*
X-2043Y-520D01*
X-2042Y-519D01*
X-2042Y-518D01*
X-2042Y-518D01*
X-2042Y-517D01*
X-2041Y-517D01*
X-2041Y-516D01*
X-2041Y-516D01*
X-2040Y-516D01*
X-2040Y-516D01*
X-2040Y-515D01*
X-2040Y-515D01*
X-2039Y-515D01*
X-2039Y-514D01*
X-2038Y-514D01*
X-2037Y-513D01*
X-2037Y-513D01*
X-2036Y-513D01*
X-2035Y-512D01*
X-2034Y-512D01*
X-2033Y-512D01*
X-2033Y-512D01*
X-2032Y-512D01*
X-2032Y-512D01*
X-2031D01*
X-2031Y-512D01*
D02*
G37*
G36*
X-2153Y-505D02*
X-2153Y-505D01*
X-2152Y-505D01*
X-2152Y-505D01*
X-2152Y-505D01*
X-2152Y-506D01*
X-2152Y-506D01*
Y-506D01*
Y-506D01*
Y-513D01*
X-2148D01*
X-2148Y-513D01*
X-2147Y-513D01*
X-2147Y-513D01*
X-2147Y-513D01*
X-2147Y-513D01*
X-2147Y-513D01*
X-2147Y-514D01*
Y-514D01*
X-2147Y-514D01*
X-2147Y-514D01*
X-2147Y-514D01*
X-2147Y-514D01*
X-2147Y-515D01*
X-2148Y-515D01*
X-2148Y-515D01*
X-2152D01*
Y-529D01*
X-2152Y-530D01*
X-2152Y-531D01*
X-2153Y-532D01*
X-2153Y-533D01*
X-2154Y-533D01*
X-2154Y-534D01*
X-2154Y-534D01*
X-2154Y-534D01*
X-2155Y-535D01*
X-2156Y-535D01*
X-2157Y-535D01*
X-2158Y-536D01*
X-2159Y-536D01*
X-2160Y-536D01*
X-2160Y-536D01*
X-2160D01*
X-2161Y-536D01*
X-2163Y-536D01*
X-2164Y-536D01*
X-2165Y-535D01*
X-2165Y-535D01*
X-2166Y-535D01*
X-2166Y-535D01*
X-2166D01*
X-2166Y-535D01*
X-2166D01*
X-2168Y-535D01*
X-2168Y-534D01*
X-2169Y-534D01*
X-2170Y-534D01*
X-2170Y-533D01*
X-2170Y-533D01*
X-2170Y-533D01*
X-2170Y-533D01*
X-2171Y-533D01*
X-2171Y-533D01*
X-2171Y-532D01*
Y-532D01*
X-2171Y-532D01*
X-2171Y-532D01*
X-2171Y-532D01*
X-2170Y-532D01*
X-2170Y-531D01*
X-2170Y-531D01*
X-2170Y-531D01*
X-2170D01*
X-2169Y-531D01*
X-2169Y-531D01*
X-2169Y-531D01*
X-2169Y-532D01*
X-2168Y-532D01*
X-2168Y-532D01*
X-2167Y-532D01*
X-2166Y-533D01*
X-2166Y-533D01*
X-2165Y-533D01*
X-2165Y-533D01*
X-2165Y-533D01*
X-2165D01*
X-2164Y-533D01*
X-2163Y-533D01*
X-2162Y-533D01*
X-2162Y-534D01*
X-2161D01*
X-2161Y-534D01*
X-2160D01*
X-2159Y-534D01*
X-2158Y-533D01*
X-2157Y-533D01*
X-2157Y-533D01*
X-2156Y-533D01*
X-2156Y-533D01*
X-2156Y-532D01*
X-2156Y-532D01*
X-2155Y-532D01*
X-2155Y-531D01*
X-2155Y-531D01*
X-2154Y-530D01*
X-2154Y-530D01*
X-2154Y-530D01*
Y-529D01*
Y-529D01*
Y-515D01*
X-2166D01*
X-2167Y-515D01*
X-2167Y-515D01*
X-2167Y-515D01*
X-2167Y-514D01*
X-2167Y-514D01*
X-2167Y-514D01*
X-2167Y-514D01*
Y-514D01*
X-2167Y-513D01*
X-2167Y-513D01*
X-2167Y-513D01*
X-2167Y-513D01*
X-2167Y-513D01*
X-2166Y-513D01*
X-2166Y-513D01*
X-2154D01*
Y-506D01*
X-2154Y-506D01*
X-2154Y-505D01*
X-2154Y-505D01*
X-2154Y-505D01*
X-2154Y-505D01*
X-2153Y-505D01*
X-2153Y-505D01*
X-2153D01*
X-2153Y-505D01*
D02*
G37*
G36*
X-2170Y-417D02*
X-2169Y-418D01*
X-2168Y-418D01*
X-2168Y-418D01*
X-2167Y-418D01*
X-2167Y-419D01*
X-2166Y-419D01*
X-2166Y-419D01*
X-2165Y-420D01*
X-2165Y-421D01*
X-2164Y-422D01*
X-2164Y-422D01*
X-2163Y-423D01*
X-2163Y-423D01*
Y-424D01*
Y-424D01*
Y-425D01*
X-2164Y-425D01*
X-2164Y-426D01*
X-2164Y-426D01*
X-2164Y-427D01*
X-2164Y-427D01*
X-2165Y-427D01*
X-2166Y-428D01*
X-2167Y-428D01*
X-2168Y-428D01*
X-2178D01*
X-2153Y-469D01*
X-2152Y-470D01*
X-2151Y-470D01*
X-2150Y-470D01*
X-2149Y-471D01*
X-2148Y-471D01*
X-2148Y-471D01*
X-2147Y-471D01*
X-2147Y-472D01*
X-2146Y-472D01*
X-2146Y-473D01*
X-2145Y-474D01*
X-2145Y-474D01*
X-2145Y-475D01*
X-2145Y-476D01*
Y-476D01*
Y-476D01*
Y-477D01*
X-2145Y-477D01*
X-2145Y-478D01*
X-2146Y-479D01*
X-2146Y-479D01*
X-2147Y-479D01*
X-2147Y-480D01*
X-2149Y-480D01*
X-2149Y-480D01*
X-2167D01*
X-2168Y-480D01*
X-2169Y-480D01*
X-2170Y-480D01*
X-2170Y-479D01*
X-2171Y-479D01*
X-2171Y-479D01*
X-2172Y-479D01*
X-2172D01*
X-2173Y-478D01*
X-2174Y-477D01*
X-2174Y-476D01*
X-2174Y-475D01*
X-2175Y-474D01*
X-2175Y-474D01*
Y-474D01*
Y-474D01*
Y-473D01*
X-2175Y-472D01*
X-2174Y-471D01*
X-2174Y-471D01*
X-2174Y-471D01*
X-2174D01*
X-2173Y-470D01*
X-2172Y-470D01*
X-2171Y-470D01*
X-2170Y-469D01*
X-2164D01*
X-2168Y-463D01*
X-2194D01*
X-2195Y-469D01*
X-2192D01*
X-2191Y-470D01*
X-2190Y-470D01*
X-2189Y-470D01*
X-2189Y-470D01*
X-2188Y-471D01*
X-2188Y-471D01*
X-2188Y-471D01*
X-2188Y-471D01*
X-2187Y-472D01*
X-2186Y-473D01*
X-2185Y-474D01*
X-2185Y-474D01*
X-2185Y-475D01*
X-2185Y-476D01*
Y-476D01*
Y-476D01*
Y-477D01*
X-2185Y-477D01*
X-2185Y-478D01*
X-2185Y-479D01*
X-2186Y-479D01*
X-2186Y-479D01*
X-2187Y-480D01*
X-2188Y-480D01*
X-2189Y-480D01*
X-2207D01*
X-2208Y-480D01*
X-2209Y-480D01*
X-2209Y-480D01*
X-2210Y-479D01*
X-2211Y-479D01*
X-2211Y-479D01*
X-2211Y-479D01*
X-2211D01*
X-2212Y-478D01*
X-2213Y-477D01*
X-2214Y-476D01*
X-2214Y-475D01*
X-2214Y-474D01*
X-2214Y-474D01*
Y-474D01*
Y-474D01*
Y-473D01*
X-2214Y-472D01*
X-2214Y-471D01*
X-2213Y-471D01*
X-2213Y-471D01*
X-2213D01*
X-2212Y-470D01*
X-2212Y-470D01*
X-2211Y-470D01*
X-2209Y-470D01*
X-2208Y-469D01*
X-2207D01*
X-2196Y-417D01*
X-2171D01*
X-2170Y-417D01*
D02*
G37*
G36*
X-1892Y-513D02*
X-1892Y-513D01*
X-1892Y-513D01*
X-1892Y-513D01*
X-1892Y-513D01*
X-1892Y-513D01*
X-1892Y-514D01*
Y-514D01*
X-1892Y-514D01*
X-1892Y-514D01*
X-1892Y-514D01*
X-1892Y-514D01*
X-1892Y-515D01*
X-1893Y-515D01*
X-1893Y-515D01*
X-1896D01*
Y-529D01*
X-1896Y-530D01*
X-1896Y-531D01*
X-1897Y-532D01*
X-1897Y-533D01*
X-1897Y-533D01*
X-1898Y-534D01*
X-1898Y-534D01*
X-1898Y-534D01*
X-1899Y-535D01*
X-1900Y-535D01*
X-1900Y-535D01*
X-1901Y-536D01*
X-1902Y-536D01*
X-1902Y-536D01*
X-1903D01*
X-1904Y-536D01*
X-1905Y-536D01*
X-1906Y-535D01*
X-1907Y-535D01*
X-1908Y-535D01*
X-1909Y-534D01*
X-1910Y-534D01*
X-1910Y-533D01*
X-1911Y-533D01*
X-1911Y-533D01*
X-1912Y-532D01*
X-1912Y-532D01*
X-1912Y-532D01*
X-1912Y-532D01*
X-1912Y-532D01*
Y-535D01*
X-1916D01*
X-1917Y-535D01*
X-1917Y-535D01*
X-1917Y-535D01*
X-1918Y-535D01*
X-1918Y-534D01*
X-1918Y-534D01*
X-1918Y-534D01*
Y-534D01*
X-1918Y-534D01*
X-1918Y-533D01*
X-1918Y-533D01*
X-1918Y-533D01*
X-1917Y-533D01*
X-1917Y-533D01*
X-1917Y-533D01*
X-1915D01*
Y-513D01*
X-1908D01*
X-1908Y-513D01*
X-1908Y-513D01*
X-1907Y-513D01*
X-1907Y-513D01*
X-1907Y-513D01*
X-1907Y-513D01*
X-1907Y-514D01*
Y-514D01*
X-1907Y-514D01*
X-1907Y-514D01*
X-1907Y-514D01*
X-1907Y-514D01*
X-1908Y-515D01*
X-1908Y-515D01*
X-1908Y-515D01*
X-1912D01*
Y-529D01*
X-1912Y-530D01*
X-1911Y-530D01*
X-1910Y-531D01*
X-1909Y-532D01*
X-1908Y-532D01*
X-1907Y-532D01*
X-1907Y-533D01*
X-1906Y-533D01*
X-1905Y-533D01*
X-1905Y-533D01*
X-1904Y-533D01*
X-1904Y-534D01*
X-1903D01*
X-1903Y-534D01*
X-1903D01*
X-1902Y-534D01*
X-1901Y-533D01*
X-1901Y-533D01*
X-1900Y-533D01*
X-1900Y-533D01*
X-1900Y-533D01*
X-1899Y-532D01*
X-1899Y-532D01*
X-1899Y-532D01*
X-1899Y-531D01*
X-1898Y-531D01*
X-1898Y-530D01*
X-1898Y-530D01*
X-1898Y-529D01*
Y-529D01*
Y-529D01*
Y-513D01*
X-1893D01*
X-1892Y-513D01*
D02*
G37*
G36*
X-2056Y-503D02*
X-2055Y-503D01*
X-2055Y-503D01*
X-2055Y-503D01*
X-2055Y-503D01*
X-2055Y-503D01*
X-2055Y-504D01*
Y-504D01*
X-2055Y-504D01*
X-2055Y-504D01*
X-2055Y-504D01*
X-2055Y-504D01*
X-2055Y-505D01*
X-2056Y-505D01*
X-2056Y-505D01*
X-2062D01*
Y-533D01*
X-2054D01*
X-2053Y-533D01*
X-2053Y-533D01*
X-2053Y-533D01*
X-2053Y-533D01*
X-2053Y-533D01*
X-2053Y-534D01*
X-2053Y-534D01*
Y-534D01*
X-2053Y-534D01*
X-2053Y-534D01*
X-2053Y-535D01*
X-2053Y-535D01*
X-2053Y-535D01*
X-2054Y-535D01*
X-2054Y-535D01*
X-2073D01*
X-2074Y-535D01*
X-2074Y-535D01*
X-2074Y-535D01*
X-2074Y-535D01*
X-2074Y-534D01*
X-2075Y-534D01*
X-2075Y-534D01*
Y-534D01*
X-2075Y-534D01*
X-2074Y-533D01*
X-2074Y-533D01*
X-2074Y-533D01*
X-2074Y-533D01*
X-2074Y-533D01*
X-2073Y-533D01*
X-2065D01*
Y-503D01*
X-2056D01*
X-2056Y-503D01*
D02*
G37*
G36*
X-1801Y-505D02*
X-1801Y-505D01*
X-1800Y-505D01*
X-1800Y-505D01*
X-1800Y-505D01*
X-1800Y-506D01*
X-1800Y-506D01*
Y-506D01*
X-1800Y-506D01*
X-1800Y-506D01*
X-1800Y-507D01*
X-1800Y-507D01*
X-1801Y-507D01*
X-1801Y-507D01*
X-1801Y-507D01*
X-1809D01*
Y-533D01*
X-1801D01*
X-1801Y-533D01*
X-1801Y-533D01*
X-1800Y-533D01*
X-1800Y-533D01*
X-1800Y-533D01*
X-1800Y-534D01*
X-1800Y-534D01*
Y-534D01*
X-1800Y-534D01*
X-1800Y-534D01*
X-1800Y-535D01*
X-1800Y-535D01*
X-1801Y-535D01*
X-1801Y-535D01*
X-1801Y-535D01*
X-1818D01*
X-1819Y-535D01*
X-1819Y-535D01*
X-1820Y-535D01*
X-1820Y-535D01*
X-1820Y-534D01*
X-1820Y-534D01*
X-1820Y-534D01*
Y-534D01*
X-1820Y-534D01*
X-1820Y-533D01*
X-1820Y-533D01*
X-1820Y-533D01*
X-1819Y-533D01*
X-1819Y-533D01*
X-1819Y-533D01*
X-1811D01*
Y-507D01*
X-1818D01*
X-1819Y-507D01*
X-1819Y-507D01*
X-1820Y-507D01*
X-1820Y-507D01*
X-1820Y-506D01*
X-1820Y-506D01*
X-1820Y-506D01*
Y-506D01*
X-1820Y-506D01*
X-1820Y-505D01*
X-1820Y-505D01*
X-1820Y-505D01*
X-1819Y-505D01*
X-1819Y-505D01*
X-1819Y-505D01*
X-1801D01*
X-1801Y-505D01*
D02*
G37*
G36*
X-1842Y-512D02*
X-1841Y-512D01*
X-1840Y-512D01*
X-1840Y-512D01*
X-1839Y-512D01*
X-1839Y-513D01*
X-1839Y-513D01*
X-1839Y-513D01*
X-1838Y-513D01*
X-1837Y-514D01*
X-1837Y-514D01*
X-1836Y-515D01*
X-1835Y-515D01*
X-1835Y-515D01*
X-1835Y-516D01*
X-1835Y-516D01*
Y-513D01*
X-1831D01*
X-1830Y-513D01*
X-1830Y-513D01*
X-1830Y-513D01*
X-1829Y-513D01*
X-1829Y-513D01*
X-1829Y-513D01*
X-1829Y-514D01*
Y-514D01*
X-1829Y-514D01*
X-1829Y-514D01*
X-1829Y-514D01*
X-1829Y-514D01*
X-1830Y-515D01*
X-1830Y-515D01*
X-1831Y-515D01*
X-1832D01*
Y-533D01*
X-1830D01*
X-1830Y-533D01*
X-1829Y-533D01*
X-1829Y-533D01*
X-1829Y-533D01*
X-1829Y-533D01*
X-1829Y-534D01*
X-1829Y-534D01*
Y-534D01*
X-1829Y-534D01*
X-1829Y-534D01*
X-1829Y-535D01*
X-1829Y-535D01*
X-1829Y-535D01*
X-1830Y-535D01*
X-1830Y-535D01*
X-1837D01*
X-1837Y-535D01*
X-1838Y-535D01*
X-1838Y-535D01*
X-1838Y-535D01*
X-1838Y-534D01*
X-1838Y-534D01*
X-1838Y-534D01*
Y-534D01*
X-1838Y-534D01*
X-1838Y-533D01*
X-1838Y-533D01*
X-1838Y-533D01*
X-1838Y-533D01*
X-1837Y-533D01*
X-1837Y-533D01*
X-1835D01*
Y-519D01*
X-1836Y-518D01*
X-1837Y-517D01*
X-1837Y-516D01*
X-1838Y-516D01*
X-1838Y-515D01*
X-1839Y-515D01*
X-1839Y-515D01*
X-1839Y-515D01*
X-1840Y-515D01*
X-1840Y-514D01*
X-1841Y-514D01*
X-1842Y-514D01*
X-1842Y-514D01*
X-1842Y-514D01*
X-1843D01*
X-1844Y-514D01*
X-1845Y-514D01*
X-1845Y-515D01*
X-1846Y-515D01*
X-1847Y-515D01*
X-1847Y-515D01*
X-1847Y-516D01*
X-1847Y-516D01*
X-1848Y-516D01*
X-1848Y-517D01*
X-1849Y-518D01*
X-1849Y-518D01*
X-1849Y-519D01*
X-1849Y-519D01*
Y-519D01*
Y-519D01*
Y-533D01*
X-1847D01*
X-1847Y-533D01*
X-1846Y-533D01*
X-1846Y-533D01*
X-1846Y-533D01*
X-1846Y-533D01*
X-1846Y-534D01*
X-1846Y-534D01*
Y-534D01*
X-1846Y-534D01*
X-1846Y-534D01*
X-1846Y-535D01*
X-1846Y-535D01*
X-1846Y-535D01*
X-1847Y-535D01*
X-1847Y-535D01*
X-1853D01*
X-1853Y-535D01*
X-1854Y-535D01*
X-1854Y-535D01*
X-1854Y-535D01*
X-1854Y-534D01*
X-1854Y-534D01*
X-1854Y-534D01*
Y-534D01*
X-1854Y-534D01*
X-1854Y-533D01*
X-1854Y-533D01*
X-1854Y-533D01*
X-1854Y-533D01*
X-1853Y-533D01*
X-1853Y-533D01*
X-1851D01*
Y-519D01*
X-1851Y-519D01*
X-1851Y-518D01*
X-1851Y-517D01*
X-1851Y-517D01*
X-1850Y-516D01*
X-1850Y-516D01*
X-1850Y-516D01*
X-1850Y-516D01*
X-1849Y-515D01*
X-1849Y-514D01*
X-1849Y-514D01*
X-1848Y-514D01*
X-1848Y-513D01*
X-1848Y-513D01*
X-1847Y-513D01*
X-1847Y-513D01*
X-1847Y-513D01*
X-1846Y-512D01*
X-1845Y-512D01*
X-1844Y-512D01*
X-1844Y-512D01*
X-1843Y-512D01*
X-1843D01*
X-1842Y-512D01*
D02*
G37*
%LPC*%
G36*
X-1886Y-285D02*
X-1887Y-285D01*
X-1887Y-286D01*
X-1888Y-286D01*
Y-287D01*
X-1888Y-287D01*
X-1888Y-288D01*
X-1887Y-288D01*
X-1887D01*
X-1886Y-288D01*
X-1886Y-287D01*
X-1885Y-287D01*
Y-287D01*
Y-286D01*
X-1886Y-285D01*
X-1886Y-285D01*
D02*
G37*
G36*
X-1889Y-283D02*
X-1890Y-283D01*
X-1890Y-283D01*
X-1891Y-284D01*
X-1892Y-284D01*
X-1892Y-285D01*
X-1893Y-286D01*
Y-286D01*
Y-287D01*
X-1892D01*
X-1892Y-286D01*
X-1890Y-285D01*
X-1890Y-284D01*
X-1889Y-283D01*
X-1889Y-283D01*
D02*
G37*
G36*
X-1713Y-371D02*
X-1714D01*
X-1714Y-372D01*
X-1715Y-372D01*
X-1716Y-372D01*
X-1717Y-373D01*
X-1717Y-374D01*
X-1718Y-375D01*
Y-375D01*
X-1718Y-375D01*
X-1717Y-375D01*
X-1716Y-375D01*
X-1715Y-374D01*
X-1714Y-373D01*
X-1714Y-372D01*
X-1713Y-372D01*
X-1713Y-371D01*
D02*
G37*
G36*
X-1941Y-260D02*
X-1943D01*
X-1943Y-260D01*
Y-260D01*
X-1943Y-261D01*
X-1943Y-261D01*
X-1942Y-262D01*
X-1940Y-263D01*
X-1938Y-264D01*
X-1936Y-265D01*
X-1934Y-266D01*
X-1933Y-267D01*
X-1932Y-268D01*
X-1931Y-268D01*
X-1928Y-269D01*
X-1925Y-271D01*
X-1923Y-272D01*
X-1921Y-272D01*
X-1919D01*
X-1918Y-272D01*
X-1918Y-271D01*
Y-271D01*
X-1918Y-270D01*
X-1919Y-269D01*
X-1920Y-268D01*
X-1922Y-268D01*
X-1924Y-267D01*
X-1925Y-266D01*
X-1926Y-265D01*
X-1926Y-265D01*
X-1930Y-263D01*
X-1933Y-262D01*
X-1936Y-261D01*
X-1938Y-260D01*
X-1940Y-260D01*
X-1941Y-260D01*
D02*
G37*
G36*
X-2159Y-269D02*
X-2161D01*
X-2162Y-269D01*
X-2163Y-269D01*
X-2163Y-270D01*
Y-270D01*
X-2163Y-271D01*
X-2162Y-271D01*
X-2162Y-272D01*
X-2161D01*
X-2160Y-271D01*
X-2159Y-271D01*
X-2158Y-271D01*
Y-270D01*
Y-269D01*
Y-269D01*
X-2159Y-269D01*
D02*
G37*
G36*
X-2018Y-279D02*
X-2019D01*
X-2020Y-280D01*
X-2021Y-280D01*
X-2021Y-280D01*
X-2022Y-280D01*
X-2021Y-281D01*
X-2021Y-281D01*
X-2020D01*
X-2019Y-280D01*
X-2019Y-280D01*
X-2018Y-280D01*
Y-280D01*
X-2018Y-279D01*
D02*
G37*
G36*
X-2008Y-270D02*
X-2008D01*
Y-270D01*
X-2009Y-271D01*
Y-273D01*
X-2008Y-274D01*
Y-274D01*
X-2008Y-275D01*
X-2007Y-272D01*
Y-272D01*
X-2008Y-271D01*
Y-270D01*
Y-270D01*
D02*
G37*
G36*
X-2025Y-306D02*
X-2026D01*
X-2026Y-306D01*
X-2026D01*
X-2027Y-307D01*
X-2029Y-307D01*
X-2031Y-308D01*
X-2031Y-309D01*
X-2031D01*
X-2033Y-309D01*
X-2034Y-310D01*
X-2035Y-311D01*
X-2036Y-312D01*
Y-312D01*
X-2035Y-312D01*
X-2035D01*
X-2033Y-311D01*
X-2031Y-311D01*
X-2031Y-310D01*
X-2030D01*
X-2028Y-309D01*
X-2027Y-308D01*
X-2026Y-307D01*
X-2026Y-307D01*
X-2025Y-306D01*
X-2025Y-306D01*
D02*
G37*
G36*
X-2069Y-331D02*
X-2070D01*
X-2071Y-331D01*
X-2073Y-332D01*
X-2074Y-332D01*
X-2074D01*
X-2076Y-334D01*
X-2078Y-335D01*
X-2079Y-335D01*
X-2079Y-336D01*
X-2080Y-337D01*
Y-337D01*
X-2080Y-338D01*
Y-338D01*
X-2082D01*
X-2083Y-339D01*
X-2085Y-339D01*
X-2087Y-340D01*
X-2088Y-341D01*
X-2088D01*
X-2090Y-342D01*
X-2091Y-343D01*
X-2093Y-343D01*
X-2094Y-344D01*
X-2095Y-345D01*
X-2095Y-345D01*
X-2095Y-346D01*
X-2096Y-347D01*
Y-347D01*
X-2096Y-347D01*
X-2095D01*
X-2093Y-347D01*
X-2092Y-347D01*
X-2092Y-346D01*
Y-346D01*
X-2092Y-345D01*
X-2091Y-344D01*
X-2090Y-344D01*
X-2089D01*
X-2088Y-343D01*
X-2087Y-343D01*
X-2083Y-341D01*
X-2081Y-340D01*
X-2080Y-339D01*
X-2079Y-338D01*
X-2078Y-338D01*
X-2075Y-336D01*
X-2072Y-334D01*
X-2071Y-333D01*
X-2070Y-332D01*
X-2069Y-331D01*
X-2069Y-331D01*
Y-331D01*
D02*
G37*
G36*
X-1767Y-339D02*
X-1769Y-340D01*
X-1770Y-341D01*
X-1771Y-342D01*
X-1772Y-342D01*
X-1773Y-342D01*
X-1773D01*
X-1773Y-343D01*
Y-343D01*
X-1773Y-344D01*
X-1773Y-344D01*
X-1773Y-344D01*
X-1774D01*
X-1775Y-344D01*
X-1775Y-344D01*
X-1775Y-343D01*
Y-343D01*
X-1776Y-343D01*
X-1777D01*
X-1777Y-343D01*
X-1778Y-343D01*
X-1778Y-343D01*
X-1778Y-344D01*
X-1777Y-344D01*
X-1777D01*
X-1776Y-345D01*
X-1776Y-345D01*
Y-345D01*
Y-346D01*
Y-346D01*
Y-346D01*
X-1776Y-347D01*
X-1775Y-347D01*
X-1775D01*
X-1773Y-347D01*
X-1772Y-346D01*
X-1772Y-345D01*
Y-345D01*
X-1771Y-344D01*
X-1770Y-343D01*
X-1769Y-344D01*
X-1769D01*
X-1768Y-344D01*
X-1768D01*
Y-344D01*
X-1768Y-344D01*
X-1769Y-343D01*
X-1768Y-341D01*
X-1768Y-340D01*
X-1767Y-340D01*
X-1767Y-339D01*
X-1767Y-339D01*
D02*
G37*
G36*
X-2159Y-306D02*
X-2161D01*
X-2162Y-306D01*
X-2164Y-307D01*
X-2164Y-307D01*
X-2165Y-307D01*
X-2165Y-308D01*
Y-308D01*
X-2165Y-309D01*
X-2164D01*
X-2163Y-308D01*
X-2161Y-307D01*
X-2161Y-307D01*
X-2161D01*
X-2160Y-307D01*
X-2159Y-306D01*
X-2159D01*
X-2159Y-306D01*
D02*
G37*
G36*
X-2050Y-303D02*
X-2051D01*
X-2051Y-303D01*
X-2052Y-303D01*
X-2053Y-304D01*
Y-304D01*
X-2053Y-305D01*
X-2053Y-306D01*
X-2052Y-306D01*
X-2052D01*
X-2051Y-306D01*
X-2050Y-305D01*
X-2050Y-305D01*
X-2050Y-304D01*
Y-303D01*
X-2050Y-303D01*
X-2050Y-303D01*
D02*
G37*
G36*
X-2115Y-300D02*
X-2117D01*
X-2117Y-300D01*
Y-301D01*
X-2117Y-301D01*
X-2116Y-301D01*
X-2115Y-302D01*
X-2114Y-302D01*
X-2112D01*
Y-302D01*
Y-301D01*
X-2113Y-301D01*
X-2113Y-301D01*
X-2114Y-300D01*
X-2114D01*
X-2115Y-300D01*
D02*
G37*
G36*
X-2144Y-295D02*
X-2145Y-295D01*
X-2145D01*
X-2146Y-295D01*
X-2146Y-296D01*
X-2147Y-298D01*
X-2147Y-300D01*
Y-300D01*
Y-301D01*
Y-304D01*
X-2146Y-306D01*
X-2146Y-308D01*
X-2146Y-309D01*
X-2145Y-310D01*
X-2145Y-310D01*
X-2144Y-310D01*
X-2143Y-310D01*
Y-309D01*
Y-309D01*
X-2144Y-309D01*
X-2144Y-306D01*
X-2145Y-305D01*
Y-305D01*
X-2145Y-303D01*
Y-302D01*
Y-301D01*
Y-300D01*
Y-299D01*
Y-299D01*
X-2145Y-298D01*
X-2144Y-299D01*
X-2142Y-299D01*
X-2141Y-300D01*
X-2141Y-301D01*
X-2139Y-302D01*
X-2138Y-302D01*
X-2138Y-303D01*
X-2138Y-303D01*
X-2141D01*
X-2142Y-303D01*
X-2142Y-303D01*
Y-304D01*
X-2142Y-304D01*
X-2139D01*
X-2137Y-304D01*
X-2136Y-303D01*
X-2134D01*
X-2133Y-303D01*
X-2132Y-303D01*
X-2132Y-302D01*
Y-302D01*
X-2133Y-301D01*
X-2133D01*
X-2135Y-300D01*
X-2136Y-299D01*
X-2136Y-299D01*
Y-299D01*
X-2136Y-297D01*
X-2137Y-296D01*
X-2138Y-296D01*
X-2139D01*
X-2140Y-296D01*
X-2140Y-296D01*
Y-297D01*
X-2140Y-298D01*
X-2141Y-298D01*
X-2141Y-298D01*
X-2141D01*
X-2142Y-298D01*
X-2142Y-297D01*
X-2143Y-296D01*
Y-296D01*
X-2143Y-295D01*
X-2144Y-295D01*
D02*
G37*
G36*
X-2100Y-327D02*
X-2100Y-327D01*
X-2101Y-328D01*
X-2101Y-331D01*
X-2102Y-333D01*
Y-333D01*
Y-334D01*
X-2102Y-335D01*
Y-337D01*
Y-338D01*
Y-338D01*
X-2102Y-339D01*
X-2101Y-339D01*
X-2101D01*
X-2101Y-339D01*
X-2100Y-338D01*
X-2100Y-335D01*
X-2100Y-334D01*
Y-333D01*
Y-332D01*
Y-332D01*
Y-331D01*
X-2100Y-327D01*
D02*
G37*
G36*
X-2115Y-277D02*
X-2116D01*
X-2116Y-278D01*
X-2116Y-278D01*
X-2117Y-280D01*
Y-281D01*
Y-282D01*
Y-282D01*
X-2116Y-285D01*
X-2115Y-287D01*
X-2114Y-288D01*
X-2114Y-289D01*
X-2113Y-291D01*
X-2111Y-294D01*
X-2111Y-295D01*
X-2110Y-296D01*
Y-296D01*
X-2110Y-297D01*
X-2109Y-298D01*
X-2108Y-299D01*
X-2108Y-299D01*
X-2107D01*
X-2107Y-299D01*
X-2106Y-298D01*
Y-296D01*
X-2106Y-295D01*
X-2107Y-295D01*
X-2107Y-294D01*
X-2108Y-292D01*
Y-291D01*
Y-290D01*
X-2107Y-289D01*
Y-289D01*
Y-289D01*
X-2109D01*
X-2111Y-289D01*
X-2111D01*
X-2111Y-289D01*
Y-288D01*
X-2111Y-287D01*
X-2111Y-287D01*
X-2110Y-287D01*
X-2110D01*
X-2110Y-286D01*
Y-285D01*
X-2110Y-284D01*
X-2110Y-284D01*
X-2111Y-282D01*
X-2112Y-281D01*
X-2113Y-280D01*
X-2113Y-280D01*
X-2114Y-278D01*
X-2115Y-278D01*
X-2115Y-277D01*
D02*
G37*
G36*
X-2125Y-289D02*
X-2126D01*
X-2126Y-289D01*
X-2127Y-290D01*
X-2127Y-290D01*
Y-291D01*
Y-291D01*
Y-292D01*
X-2126D01*
X-2126Y-291D01*
X-2125Y-290D01*
X-2125Y-290D01*
Y-289D01*
X-2125Y-289D01*
D02*
G37*
G36*
X-1887Y-289D02*
X-1887D01*
X-1888Y-290D01*
X-1888Y-290D01*
X-1888Y-291D01*
Y-291D01*
X-1888Y-292D01*
X-1888Y-292D01*
X-1887Y-292D01*
X-1887D01*
X-1886Y-292D01*
X-1886Y-291D01*
X-1885Y-291D01*
Y-291D01*
X-1886Y-290D01*
X-1886Y-290D01*
X-1887Y-289D01*
D02*
G37*
G36*
X-2024Y-283D02*
X-2025Y-283D01*
X-2027Y-283D01*
X-2029Y-284D01*
X-2029Y-285D01*
X-2030D01*
X-2032Y-286D01*
X-2033Y-287D01*
X-2034Y-287D01*
X-2035Y-288D01*
X-2036Y-288D01*
Y-289D01*
X-2035D01*
X-2033Y-288D01*
X-2031Y-287D01*
X-2030Y-287D01*
X-2030D01*
X-2028Y-286D01*
X-2026Y-285D01*
X-2025Y-284D01*
X-2024Y-283D01*
X-2024Y-283D01*
X-2024Y-283D01*
D02*
G37*
G36*
X-2105Y-287D02*
X-2105Y-287D01*
X-2105Y-287D01*
Y-288D01*
Y-288D01*
X-2105Y-289D01*
X-2105Y-289D01*
X-2104Y-289D01*
X-2104D01*
X-2103Y-289D01*
Y-289D01*
Y-288D01*
Y-288D01*
X-2104Y-287D01*
X-2104Y-287D01*
X-2105Y-287D01*
D02*
G37*
G36*
X-2100Y-291D02*
X-2101D01*
X-2102Y-292D01*
X-2102Y-292D01*
X-2102Y-293D01*
Y-294D01*
X-2102Y-294D01*
X-2102Y-295D01*
X-2101Y-294D01*
X-2100D01*
X-2100Y-294D01*
Y-293D01*
Y-292D01*
X-2100Y-291D01*
D02*
G37*
G36*
X-2104Y-307D02*
X-2104D01*
X-2104Y-307D01*
Y-308D01*
Y-309D01*
Y-309D01*
Y-309D01*
Y-311D01*
X-2104Y-311D01*
Y-311D01*
X-2103Y-314D01*
X-2103Y-317D01*
X-2102Y-319D01*
X-2102Y-319D01*
Y-320D01*
X-2102Y-321D01*
X-2101Y-322D01*
X-2101Y-322D01*
Y-323D01*
X-2101Y-323D01*
X-2100D01*
Y-323D01*
Y-322D01*
Y-320D01*
X-2100Y-319D01*
X-2101Y-317D01*
X-2101Y-316D01*
X-2101Y-315D01*
Y-315D01*
X-2102Y-312D01*
X-2103Y-311D01*
X-2103Y-309D01*
X-2103Y-308D01*
X-2104Y-307D01*
Y-307D01*
D02*
G37*
G36*
X-1833Y-312D02*
X-1834D01*
X-1835Y-313D01*
X-1835D01*
X-1836Y-313D01*
X-1837Y-313D01*
X-1837Y-314D01*
Y-314D01*
Y-315D01*
X-1836D01*
X-1835Y-314D01*
X-1835Y-314D01*
X-1834Y-314D01*
X-1834Y-313D01*
X-1833Y-312D01*
D02*
G37*
G36*
X-2130Y-304D02*
X-2132D01*
X-2132Y-305D01*
X-2133Y-306D01*
Y-306D01*
X-2133Y-306D01*
X-2133Y-307D01*
X-2135Y-307D01*
X-2136Y-308D01*
X-2137Y-308D01*
X-2138Y-309D01*
X-2140Y-310D01*
X-2141Y-310D01*
X-2141Y-311D01*
X-2142Y-312D01*
X-2142Y-313D01*
X-2142Y-314D01*
Y-314D01*
Y-314D01*
Y-315D01*
X-2142Y-314D01*
X-2142Y-314D01*
X-2142Y-314D01*
X-2141Y-313D01*
X-2141Y-313D01*
X-2140Y-313D01*
X-2139Y-313D01*
X-2139Y-314D01*
X-2138Y-314D01*
X-2138Y-315D01*
X-2138Y-315D01*
X-2138Y-316D01*
X-2138Y-316D01*
X-2139Y-317D01*
Y-317D01*
X-2138Y-318D01*
X-2138Y-319D01*
X-2138Y-319D01*
X-2137Y-320D01*
X-2136D01*
X-2135Y-319D01*
Y-319D01*
X-2135Y-317D01*
X-2135Y-317D01*
X-2134Y-316D01*
X-2134D01*
X-2133Y-317D01*
X-2133Y-317D01*
X-2132Y-318D01*
Y-319D01*
X-2132Y-320D01*
X-2132Y-320D01*
Y-321D01*
X-2131Y-321D01*
X-2130Y-321D01*
X-2129Y-319D01*
X-2128Y-318D01*
X-2128Y-318D01*
Y-317D01*
X-2128Y-316D01*
Y-315D01*
X-2128Y-313D01*
X-2129Y-311D01*
X-2129Y-311D01*
X-2130Y-309D01*
X-2130Y-309D01*
Y-308D01*
X-2130D01*
X-2129Y-308D01*
Y-307D01*
Y-307D01*
Y-307D01*
X-2130Y-305D01*
X-2130Y-305D01*
X-2130Y-304D01*
D02*
G37*
G36*
X-2012Y-261D02*
X-2016Y-264D01*
X-2018Y-264D01*
X-2019Y-265D01*
X-2020Y-267D01*
X-2021Y-267D01*
Y-268D01*
X-2020Y-268D01*
X-2020D01*
X-2019Y-267D01*
X-2018Y-267D01*
X-2017Y-265D01*
X-2016Y-265D01*
X-2016Y-265D01*
X-2012Y-261D01*
D02*
G37*
G36*
X-2190Y-514D02*
X-2190D01*
X-2191Y-514D01*
X-2192Y-514D01*
X-2193Y-514D01*
X-2194Y-515D01*
X-2195Y-515D01*
X-2196Y-516D01*
X-2197Y-516D01*
X-2197Y-517D01*
X-2197Y-517D01*
X-2197Y-517D01*
X-2197Y-517D01*
X-2198Y-517D01*
X-2198Y-518D01*
X-2199Y-519D01*
X-2199Y-519D01*
X-2200Y-520D01*
X-2200Y-521D01*
X-2200Y-522D01*
X-2200Y-523D01*
Y-523D01*
X-2200Y-523D01*
Y-524D01*
Y-524D01*
Y-524D01*
X-2200Y-525D01*
X-2200Y-525D01*
X-2200Y-527D01*
X-2199Y-528D01*
X-2199Y-529D01*
X-2198Y-530D01*
X-2198Y-530D01*
X-2198Y-530D01*
X-2198Y-531D01*
X-2197Y-531D01*
X-2197Y-531D01*
X-2197Y-531D01*
X-2196Y-532D01*
X-2196Y-532D01*
X-2195Y-532D01*
X-2194Y-533D01*
X-2193Y-533D01*
X-2192Y-533D01*
X-2191Y-534D01*
X-2191Y-534D01*
X-2191Y-534D01*
X-2190D01*
X-2190Y-534D01*
X-2189Y-534D01*
X-2188Y-533D01*
X-2186Y-533D01*
X-2185Y-532D01*
X-2184Y-532D01*
X-2184Y-531D01*
X-2184Y-531D01*
X-2184Y-531D01*
X-2183Y-531D01*
X-2183Y-531D01*
X-2183Y-531D01*
X-2183Y-530D01*
X-2182Y-530D01*
X-2182Y-529D01*
X-2182Y-528D01*
X-2181Y-527D01*
X-2181Y-526D01*
X-2181Y-525D01*
X-2181Y-525D01*
X-2180Y-525D01*
X-2180Y-524D01*
Y-524D01*
Y-524D01*
Y-524D01*
X-2180Y-523D01*
X-2181Y-522D01*
X-2181Y-521D01*
X-2181Y-520D01*
X-2182Y-519D01*
X-2182Y-518D01*
X-2183Y-517D01*
X-2183Y-517D01*
X-2183Y-517D01*
X-2183Y-517D01*
X-2183Y-517D01*
X-2184Y-516D01*
X-2184Y-516D01*
X-2185Y-516D01*
X-2186Y-515D01*
X-2187Y-515D01*
X-2188Y-514D01*
X-2189Y-514D01*
X-2189Y-514D01*
X-2190D01*
X-2190Y-514D01*
D02*
G37*
G36*
X-1874D02*
X-1875D01*
X-1876Y-514D01*
X-1877Y-514D01*
X-1878Y-515D01*
X-1879Y-515D01*
X-1880Y-516D01*
X-1881Y-516D01*
X-1881Y-516D01*
X-1881Y-517D01*
X-1881Y-517D01*
X-1881Y-517D01*
X-1882Y-517D01*
X-1882Y-518D01*
X-1883Y-519D01*
X-1883Y-520D01*
X-1884Y-521D01*
X-1884Y-522D01*
X-1884Y-522D01*
Y-523D01*
X-1884Y-523D01*
Y-523D01*
Y-523D01*
Y-523D01*
Y-524D01*
X-1884Y-525D01*
X-1884Y-526D01*
X-1883Y-527D01*
X-1883Y-528D01*
X-1882Y-529D01*
X-1882Y-529D01*
X-1881Y-530D01*
X-1881Y-530D01*
X-1881Y-530D01*
X-1881Y-530D01*
X-1880Y-531D01*
X-1879Y-531D01*
X-1878Y-532D01*
X-1877Y-532D01*
X-1876Y-532D01*
X-1876Y-532D01*
X-1875D01*
X-1875Y-532D01*
X-1875D01*
X-1874Y-532D01*
X-1873Y-532D01*
X-1872Y-532D01*
X-1871Y-531D01*
X-1870Y-531D01*
X-1869Y-530D01*
X-1868Y-530D01*
X-1868Y-530D01*
X-1868Y-530D01*
X-1868Y-530D01*
X-1868D01*
X-1867Y-529D01*
X-1867Y-529D01*
X-1866Y-527D01*
X-1866Y-526D01*
X-1866Y-525D01*
X-1865Y-525D01*
X-1865Y-524D01*
Y-524D01*
X-1865Y-524D01*
Y-523D01*
Y-523D01*
Y-523D01*
X-1865Y-522D01*
X-1865Y-522D01*
X-1866Y-521D01*
X-1866Y-519D01*
X-1867Y-519D01*
X-1867Y-518D01*
X-1867Y-517D01*
X-1868Y-517D01*
X-1868Y-517D01*
Y-517D01*
X-1868Y-516D01*
X-1869Y-516D01*
X-1870Y-515D01*
X-1871Y-515D01*
X-1872Y-514D01*
X-1873Y-514D01*
X-1874Y-514D01*
X-1874D01*
X-1874Y-514D01*
D02*
G37*
G36*
X-2095D02*
X-2095D01*
X-2096Y-514D01*
X-2097Y-514D01*
X-2099Y-515D01*
X-2100Y-515D01*
X-2100Y-516D01*
X-2101Y-516D01*
X-2101Y-516D01*
X-2101Y-516D01*
X-2101Y-516D01*
X-2101D01*
X-2102Y-517D01*
X-2103Y-518D01*
X-2104Y-519D01*
X-2104Y-520D01*
X-2104Y-521D01*
X-2105Y-522D01*
X-2105Y-522D01*
Y-522D01*
X-2105Y-522D01*
Y-522D01*
X-2085D01*
X-2085Y-521D01*
X-2086Y-520D01*
X-2086Y-519D01*
X-2087Y-518D01*
X-2087Y-517D01*
X-2088Y-517D01*
X-2088Y-516D01*
X-2088Y-516D01*
X-2089Y-516D01*
X-2091Y-515D01*
X-2092Y-515D01*
X-2093Y-514D01*
X-2094Y-514D01*
X-2094Y-514D01*
X-2094D01*
X-2095Y-514D01*
D02*
G37*
G36*
X-1872Y-574D02*
X-1872D01*
X-1873Y-574D01*
X-1874Y-574D01*
X-1875Y-574D01*
X-1876Y-575D01*
X-1877Y-575D01*
X-1878Y-576D01*
X-1878Y-576D01*
X-1879Y-577D01*
X-1879Y-577D01*
X-1879Y-577D01*
X-1879Y-577D01*
X-1879Y-577D01*
X-1880Y-578D01*
X-1880Y-579D01*
X-1881Y-579D01*
X-1881Y-580D01*
X-1881Y-581D01*
X-1882Y-582D01*
X-1882Y-583D01*
Y-583D01*
X-1882Y-583D01*
Y-584D01*
Y-584D01*
Y-584D01*
X-1882Y-585D01*
X-1882Y-585D01*
X-1881Y-587D01*
X-1881Y-588D01*
X-1880Y-589D01*
X-1880Y-590D01*
X-1879Y-590D01*
X-1879Y-591D01*
X-1879Y-591D01*
X-1879Y-591D01*
X-1879Y-591D01*
X-1878Y-591D01*
X-1878Y-592D01*
X-1877Y-592D01*
X-1876Y-593D01*
X-1875Y-593D01*
X-1874Y-593D01*
X-1873Y-594D01*
X-1873D01*
X-1873Y-594D01*
X-1872D01*
X-1872Y-594D01*
X-1871Y-594D01*
X-1870Y-593D01*
X-1869Y-593D01*
X-1868Y-592D01*
X-1867Y-592D01*
X-1866Y-591D01*
X-1866Y-591D01*
X-1866Y-591D01*
X-1866Y-591D01*
X-1866Y-591D01*
X-1865Y-590D01*
X-1865Y-590D01*
X-1864Y-589D01*
X-1864Y-587D01*
X-1863Y-586D01*
X-1863Y-585D01*
X-1863Y-585D01*
Y-585D01*
X-1863Y-584D01*
Y-584D01*
Y-584D01*
Y-584D01*
X-1863Y-583D01*
X-1863Y-582D01*
X-1863Y-581D01*
X-1864Y-580D01*
X-1864Y-579D01*
X-1865Y-578D01*
X-1865Y-577D01*
X-1866Y-577D01*
X-1866Y-577D01*
X-1866Y-577D01*
X-1866Y-577D01*
X-1866Y-576D01*
X-1867Y-576D01*
X-1867Y-576D01*
X-1868Y-575D01*
X-1869Y-575D01*
X-1870Y-574D01*
X-1871Y-574D01*
X-1871Y-574D01*
X-1872D01*
X-1872Y-574D01*
D02*
G37*
G36*
X-1711D02*
X-1712D01*
X-1712Y-574D01*
X-1714Y-574D01*
X-1715Y-575D01*
X-1716Y-575D01*
X-1716Y-576D01*
X-1717Y-576D01*
X-1717Y-577D01*
X-1717Y-577D01*
Y-577D01*
X-1718Y-577D01*
X-1718Y-578D01*
X-1719Y-579D01*
X-1719Y-580D01*
X-1720Y-581D01*
X-1720Y-582D01*
X-1720Y-582D01*
Y-583D01*
X-1720Y-583D01*
Y-583D01*
Y-583D01*
Y-583D01*
Y-584D01*
X-1720Y-585D01*
X-1720Y-586D01*
X-1719Y-587D01*
X-1719Y-588D01*
X-1718Y-589D01*
X-1718Y-589D01*
X-1717Y-590D01*
X-1717Y-590D01*
X-1717Y-590D01*
X-1717Y-590D01*
X-1716Y-591D01*
X-1715Y-591D01*
X-1714Y-592D01*
X-1713Y-592D01*
X-1712Y-592D01*
X-1712Y-592D01*
X-1712D01*
X-1711Y-592D01*
X-1711D01*
X-1710Y-592D01*
X-1710Y-592D01*
X-1708Y-592D01*
X-1707Y-591D01*
X-1706Y-591D01*
X-1706Y-590D01*
X-1705Y-590D01*
X-1705Y-590D01*
X-1705Y-590D01*
X-1705D01*
X-1704Y-589D01*
X-1704Y-589D01*
X-1703Y-588D01*
X-1703Y-586D01*
X-1703Y-585D01*
X-1702Y-585D01*
X-1702Y-584D01*
Y-584D01*
X-1702Y-584D01*
Y-583D01*
Y-583D01*
Y-583D01*
X-1702Y-582D01*
X-1702Y-582D01*
X-1703Y-581D01*
X-1703Y-579D01*
X-1703Y-579D01*
X-1704Y-578D01*
X-1704Y-577D01*
X-1705Y-577D01*
X-1705Y-577D01*
Y-577D01*
X-1705Y-576D01*
X-1706Y-576D01*
X-1707Y-575D01*
X-1708Y-575D01*
X-1709Y-574D01*
X-1710Y-574D01*
X-1710Y-574D01*
X-1711Y-574D01*
D02*
G37*
G36*
X-2251D02*
X-2251D01*
X-2253Y-574D01*
X-2254Y-574D01*
X-2255Y-575D01*
X-2256Y-575D01*
X-2257Y-576D01*
X-2257Y-576D01*
X-2257Y-576D01*
X-2258Y-576D01*
X-2258Y-576D01*
X-2258D01*
X-2259Y-577D01*
X-2259Y-578D01*
X-2260Y-579D01*
X-2260Y-580D01*
X-2261Y-581D01*
X-2261Y-582D01*
X-2261Y-582D01*
Y-582D01*
X-2261Y-582D01*
Y-582D01*
X-2241D01*
X-2242Y-581D01*
X-2242Y-580D01*
X-2243Y-579D01*
X-2243Y-578D01*
X-2244Y-577D01*
X-2244Y-577D01*
X-2245Y-576D01*
X-2245Y-576D01*
X-2246Y-576D01*
X-2247Y-575D01*
X-2248Y-575D01*
X-2249Y-574D01*
X-2250Y-574D01*
X-2250Y-574D01*
X-2251D01*
X-2251Y-574D01*
D02*
G37*
G36*
X-2031Y-514D02*
X-2031D01*
X-2033Y-514D01*
X-2034Y-514D01*
X-2035Y-515D01*
X-2036Y-515D01*
X-2037Y-516D01*
X-2038Y-516D01*
X-2038Y-516D01*
X-2038Y-516D01*
X-2038Y-516D01*
X-2038D01*
X-2039Y-517D01*
X-2040Y-518D01*
X-2040Y-519D01*
X-2041Y-520D01*
X-2041Y-521D01*
X-2041Y-522D01*
X-2041Y-522D01*
Y-522D01*
X-2041Y-522D01*
Y-522D01*
X-2022D01*
X-2022Y-521D01*
X-2022Y-520D01*
X-2023Y-519D01*
X-2023Y-518D01*
X-2024Y-517D01*
X-2025Y-517D01*
X-2025Y-516D01*
X-2025Y-516D01*
X-2026Y-516D01*
X-2027Y-515D01*
X-2028Y-515D01*
X-2029Y-514D01*
X-2030Y-514D01*
X-2031Y-514D01*
X-2031D01*
X-2031Y-514D01*
D02*
G37*
G36*
X-1923Y-428D02*
X-1937D01*
X-1939Y-428D01*
X-1940Y-428D01*
X-1942Y-429D01*
X-1943Y-429D01*
X-1944Y-429D01*
X-1944Y-430D01*
X-1944Y-430D01*
X-1945Y-430D01*
X-1945Y-430D01*
X-1946Y-431D01*
X-1946Y-432D01*
X-1947Y-433D01*
X-1947Y-433D01*
X-1947Y-434D01*
Y-434D01*
Y-434D01*
X-1947Y-435D01*
X-1946Y-436D01*
X-1946Y-438D01*
X-1945Y-439D01*
X-1944Y-439D01*
X-1943Y-440D01*
X-1943Y-440D01*
X-1943Y-441D01*
X-1941Y-441D01*
X-1939Y-442D01*
X-1937Y-443D01*
X-1936Y-443D01*
X-1934Y-443D01*
X-1933Y-443D01*
X-1920D01*
X-1923Y-428D01*
D02*
G37*
G36*
X-2102Y-624D02*
X-2102D01*
X-2103Y-624D01*
X-2103Y-624D01*
X-2104Y-624D01*
X-2104Y-624D01*
X-2105Y-625D01*
X-2105Y-625D01*
X-2105Y-625D01*
X-2105Y-625D01*
X-2106Y-625D01*
X-2106Y-626D01*
X-2107Y-626D01*
X-2107Y-626D01*
X-2107Y-626D01*
Y-627D01*
X-2107Y-627D01*
X-2108Y-628D01*
X-2108Y-629D01*
X-2108Y-629D01*
X-2109Y-630D01*
X-2109Y-630D01*
X-2109Y-631D01*
X-2109Y-631D01*
Y-631D01*
X-2109Y-632D01*
X-2109Y-633D01*
X-2110Y-634D01*
X-2110Y-635D01*
X-2110Y-635D01*
X-2110Y-636D01*
Y-636D01*
Y-636D01*
Y-636D01*
Y-636D01*
Y-641D01*
X-2110Y-643D01*
X-2109Y-645D01*
X-2109Y-646D01*
X-2109Y-647D01*
X-2109Y-648D01*
X-2108Y-648D01*
X-2108Y-649D01*
X-2108Y-649D01*
X-2108Y-650D01*
X-2108Y-650D01*
X-2108Y-650D01*
Y-650D01*
X-2107Y-651D01*
X-2107Y-651D01*
X-2106Y-652D01*
X-2106Y-652D01*
X-2105Y-652D01*
X-2105Y-653D01*
X-2104Y-653D01*
X-2103Y-653D01*
X-2103Y-654D01*
X-2102Y-654D01*
X-2102D01*
X-2101Y-654D01*
X-2101Y-653D01*
X-2100Y-653D01*
X-2100Y-653D01*
X-2099Y-653D01*
X-2099Y-653D01*
X-2099Y-653D01*
X-2099Y-653D01*
X-2098Y-652D01*
X-2097Y-652D01*
X-2097Y-651D01*
X-2097Y-651D01*
Y-651D01*
X-2097Y-651D01*
X-2096Y-650D01*
X-2096Y-649D01*
X-2096Y-649D01*
X-2095Y-648D01*
X-2095Y-647D01*
X-2095Y-647D01*
X-2095Y-647D01*
X-2095Y-646D01*
X-2095Y-645D01*
X-2094Y-644D01*
X-2094Y-643D01*
X-2094Y-642D01*
X-2094Y-642D01*
Y-641D01*
Y-641D01*
Y-641D01*
Y-641D01*
Y-636D01*
X-2094Y-635D01*
X-2094Y-633D01*
X-2095Y-632D01*
X-2095Y-630D01*
X-2095Y-630D01*
X-2096Y-629D01*
X-2096Y-629D01*
X-2096Y-628D01*
X-2096Y-628D01*
X-2096Y-628D01*
X-2096Y-628D01*
Y-628D01*
X-2097Y-627D01*
X-2097Y-627D01*
X-2097Y-626D01*
X-2098Y-626D01*
X-2098Y-625D01*
X-2099Y-625D01*
X-2100Y-624D01*
X-2101Y-624D01*
X-2101Y-624D01*
X-2102Y-624D01*
D02*
G37*
G36*
X-1911Y-634D02*
X-1911D01*
X-1913Y-634D01*
X-1914Y-634D01*
X-1915Y-635D01*
X-1916Y-635D01*
X-1917Y-636D01*
X-1917Y-636D01*
X-1918Y-636D01*
X-1918Y-636D01*
X-1918Y-636D01*
X-1918D01*
X-1919Y-637D01*
X-1920Y-638D01*
X-1920Y-639D01*
X-1921Y-640D01*
X-1921Y-641D01*
X-1921Y-642D01*
X-1921Y-642D01*
Y-642D01*
X-1921Y-642D01*
Y-642D01*
X-1901D01*
X-1902Y-641D01*
X-1902Y-640D01*
X-1903Y-639D01*
X-1903Y-638D01*
X-1904Y-637D01*
X-1904Y-637D01*
X-1905Y-636D01*
X-1905Y-636D01*
X-1906Y-636D01*
X-1907Y-635D01*
X-1908Y-635D01*
X-1909Y-634D01*
X-1910Y-634D01*
X-1910Y-634D01*
X-1911D01*
X-1911Y-634D01*
D02*
G37*
G36*
X-2121Y-428D02*
X-2135D01*
X-2126Y-469D01*
X-2107D01*
X-2108Y-468D01*
X-2109Y-467D01*
X-2110Y-466D01*
X-2111Y-464D01*
X-2112Y-461D01*
X-2114Y-458D01*
X-2114Y-457D01*
X-2114Y-455D01*
X-2115Y-454D01*
X-2115Y-453D01*
X-2115Y-452D01*
X-2116Y-452D01*
X-2116Y-451D01*
Y-451D01*
X-2121Y-428D01*
D02*
G37*
G36*
X-1918Y-454D02*
X-1932D01*
X-1934Y-454D01*
X-1936Y-454D01*
X-1938Y-455D01*
X-1939Y-455D01*
X-1940Y-456D01*
X-1941Y-456D01*
X-1942Y-457D01*
X-1942Y-457D01*
X-1943Y-458D01*
X-1944Y-459D01*
X-1944Y-460D01*
X-1945Y-461D01*
X-1945Y-461D01*
X-1945Y-462D01*
Y-462D01*
Y-462D01*
X-1945Y-463D01*
X-1945Y-464D01*
X-1944Y-465D01*
X-1944Y-466D01*
X-1943Y-467D01*
X-1943Y-467D01*
X-1943Y-467D01*
X-1942Y-467D01*
X-1941Y-468D01*
X-1940Y-469D01*
X-1938Y-469D01*
X-1937Y-469D01*
X-1935Y-469D01*
X-1934Y-469D01*
X-1915D01*
X-1918Y-454D01*
D02*
G37*
G36*
X-2188Y-432D02*
X-2192Y-452D01*
X-2175D01*
X-2188Y-432D01*
D02*
G37*
G36*
X-1939Y-220D02*
X-1940D01*
X-1940Y-220D01*
X-1940Y-220D01*
X-1941Y-221D01*
Y-221D01*
X-1941Y-222D01*
Y-222D01*
X-1941Y-222D01*
X-1940D01*
X-1940Y-222D01*
X-1939Y-222D01*
X-1939Y-221D01*
Y-221D01*
Y-220D01*
X-1939Y-220D01*
D02*
G37*
G36*
X-2002Y-211D02*
X-2003Y-211D01*
X-2003Y-212D01*
X-2003D01*
X-2004Y-212D01*
X-2005Y-212D01*
X-2005Y-213D01*
Y-213D01*
Y-213D01*
X-2004D01*
X-2003Y-213D01*
X-2003Y-213D01*
X-2003Y-212D01*
X-2002Y-212D01*
X-2002Y-212D01*
Y-211D01*
X-2002Y-211D01*
D02*
G37*
G36*
X-1937Y-204D02*
X-1937Y-204D01*
X-1937D01*
X-1938Y-205D01*
X-1939Y-205D01*
X-1939Y-206D01*
Y-206D01*
X-1939Y-207D01*
X-1938Y-207D01*
X-1938Y-207D01*
X-1937D01*
X-1936Y-206D01*
X-1936Y-205D01*
X-1936Y-205D01*
Y-205D01*
X-1936Y-204D01*
X-1937Y-204D01*
D02*
G37*
G36*
X-2144Y-254D02*
X-2144D01*
X-2145Y-254D01*
X-2146Y-255D01*
X-2147Y-256D01*
X-2147Y-256D01*
X-2148Y-258D01*
Y-259D01*
Y-260D01*
X-2147Y-260D01*
X-2147Y-261D01*
X-2146Y-261D01*
X-2144Y-262D01*
X-2142Y-263D01*
X-2142Y-264D01*
X-2142D01*
X-2139Y-264D01*
X-2138Y-265D01*
X-2137Y-265D01*
X-2136D01*
Y-265D01*
Y-264D01*
X-2136Y-264D01*
X-2138Y-263D01*
X-2138Y-263D01*
X-2138D01*
X-2139Y-262D01*
X-2140Y-262D01*
X-2141Y-261D01*
X-2140Y-260D01*
Y-260D01*
X-2140Y-259D01*
Y-259D01*
X-2141D01*
X-2141Y-259D01*
X-2142D01*
X-2142Y-258D01*
X-2143Y-258D01*
Y-257D01*
Y-257D01*
X-2143Y-255D01*
X-2143Y-254D01*
X-2144Y-254D01*
D02*
G37*
G36*
X-1957Y-250D02*
X-1959D01*
X-1960Y-250D01*
X-1961Y-251D01*
X-1961D01*
X-1961Y-251D01*
X-1961Y-252D01*
X-1960Y-252D01*
X-1960Y-253D01*
X-1959Y-254D01*
X-1956Y-255D01*
X-1953Y-256D01*
X-1951Y-257D01*
X-1949Y-258D01*
X-1948Y-258D01*
X-1945D01*
X-1944Y-258D01*
Y-257D01*
X-1945Y-257D01*
X-1945Y-256D01*
X-1946Y-256D01*
X-1947Y-255D01*
X-1949Y-254D01*
X-1950Y-254D01*
X-1950D01*
X-1952Y-252D01*
X-1954Y-252D01*
X-1955Y-251D01*
X-1956Y-251D01*
X-1957Y-250D01*
D02*
G37*
G36*
X-2000Y-215D02*
X-2001D01*
X-2002Y-215D01*
X-2003Y-216D01*
X-2005Y-217D01*
X-2005Y-217D01*
X-2006Y-217D01*
X-2007Y-218D01*
X-2007Y-219D01*
Y-219D01*
X-2008Y-220D01*
X-2009Y-221D01*
X-2009Y-222D01*
X-2009Y-222D01*
X-2008Y-222D01*
X-2008D01*
X-2007Y-222D01*
X-2007Y-222D01*
X-2005Y-220D01*
X-2003Y-219D01*
X-2003Y-219D01*
X-2002D01*
X-2001Y-218D01*
X-2000Y-217D01*
X-2000Y-216D01*
X-1999Y-216D01*
Y-216D01*
X-2000Y-215D01*
D02*
G37*
G36*
X-2073Y-192D02*
X-2074Y-192D01*
X-2075Y-192D01*
X-2075Y-193D01*
Y-193D01*
X-2074Y-194D01*
X-2074Y-195D01*
X-2073Y-195D01*
X-2071Y-196D01*
X-2070Y-197D01*
X-2069Y-198D01*
X-2068Y-198D01*
X-2066Y-200D01*
X-2063Y-200D01*
X-2062Y-201D01*
X-2062Y-201D01*
X-2061D01*
X-2059Y-202D01*
X-2057Y-203D01*
X-2056Y-204D01*
X-2055Y-204D01*
X-2054Y-204D01*
X-2053D01*
X-2052Y-204D01*
Y-203D01*
X-2053Y-202D01*
X-2055Y-201D01*
X-2056Y-200D01*
X-2058Y-199D01*
X-2059Y-198D01*
X-2060Y-197D01*
X-2061Y-197D01*
X-2063Y-195D01*
X-2066Y-194D01*
X-2068Y-193D01*
X-2069Y-193D01*
X-2070Y-192D01*
X-2071Y-192D01*
X-2071D01*
X-2073Y-192D01*
D02*
G37*
G36*
X-2194Y-130D02*
X-2194D01*
X-2194Y-131D01*
Y-132D01*
X-2194Y-133D01*
Y-133D01*
X-2193Y-134D01*
X-2193Y-134D01*
X-2192D01*
X-2192Y-133D01*
X-2192Y-133D01*
X-2193Y-132D01*
Y-132D01*
X-2194Y-131D01*
X-2194Y-130D01*
D02*
G37*
G36*
X-2124Y-583D02*
X-2124D01*
X-2126Y-583D01*
X-2126D01*
X-2127Y-583D01*
X-2127Y-584D01*
X-2128D01*
X-2128Y-584D01*
X-2128D01*
X-2129Y-584D01*
X-2130Y-584D01*
X-2130Y-584D01*
X-2131Y-584D01*
X-2131Y-584D01*
X-2131Y-584D01*
X-2131D01*
Y-589D01*
X-2130Y-590D01*
X-2129Y-591D01*
X-2128Y-591D01*
X-2128Y-592D01*
X-2127Y-592D01*
X-2126Y-592D01*
X-2126Y-592D01*
X-2126Y-593D01*
X-2125Y-593D01*
X-2124Y-593D01*
X-2123Y-593D01*
X-2123Y-594D01*
X-2122Y-594D01*
X-2121Y-594D01*
X-2121D01*
X-2120Y-594D01*
X-2119Y-593D01*
X-2118Y-593D01*
X-2117Y-593D01*
X-2117Y-593D01*
X-2117Y-593D01*
X-2116Y-592D01*
X-2116Y-592D01*
X-2116Y-592D01*
X-2115Y-591D01*
X-2115Y-591D01*
X-2115Y-590D01*
X-2115Y-590D01*
X-2115Y-589D01*
Y-589D01*
Y-589D01*
X-2115Y-588D01*
X-2115Y-588D01*
X-2115Y-587D01*
X-2116Y-586D01*
X-2116Y-586D01*
X-2117Y-586D01*
X-2117Y-585D01*
X-2117Y-585D01*
X-2118Y-585D01*
X-2119Y-584D01*
X-2120Y-584D01*
X-2122Y-584D01*
X-2123Y-583D01*
X-2123Y-583D01*
X-2123D01*
X-2124Y-583D01*
D02*
G37*
G36*
X-1966Y-574D02*
X-1966D01*
X-1967Y-574D01*
X-1968Y-574D01*
X-1969Y-574D01*
X-1970Y-575D01*
X-1971Y-575D01*
X-1972Y-576D01*
X-1973Y-576D01*
X-1973Y-577D01*
X-1973Y-577D01*
X-1973Y-577D01*
X-1973Y-577D01*
X-1974Y-577D01*
X-1974Y-578D01*
X-1975Y-579D01*
X-1975Y-579D01*
X-1975Y-580D01*
X-1976Y-581D01*
X-1976Y-582D01*
X-1976Y-583D01*
Y-583D01*
X-1976Y-583D01*
Y-584D01*
Y-584D01*
Y-584D01*
X-1976Y-585D01*
X-1976Y-585D01*
X-1976Y-587D01*
X-1975Y-588D01*
X-1975Y-589D01*
X-1974Y-590D01*
X-1974Y-590D01*
X-1974Y-590D01*
X-1973Y-591D01*
X-1973Y-591D01*
X-1973Y-591D01*
X-1973Y-591D01*
X-1972Y-592D01*
X-1971Y-592D01*
X-1971Y-592D01*
X-1970Y-593D01*
X-1969Y-593D01*
X-1968Y-593D01*
X-1967Y-594D01*
X-1967Y-594D01*
X-1967Y-594D01*
X-1966D01*
X-1965Y-594D01*
X-1965Y-594D01*
X-1963Y-593D01*
X-1962Y-593D01*
X-1961Y-592D01*
X-1960Y-592D01*
X-1960Y-591D01*
X-1960Y-591D01*
X-1959Y-591D01*
X-1959Y-591D01*
X-1959Y-591D01*
X-1959Y-591D01*
X-1959Y-590D01*
X-1958Y-590D01*
X-1958Y-589D01*
X-1958Y-588D01*
X-1957Y-587D01*
X-1957Y-586D01*
X-1956Y-585D01*
X-1956Y-585D01*
X-1956Y-585D01*
X-1956Y-584D01*
Y-584D01*
Y-584D01*
Y-584D01*
X-1956Y-583D01*
X-1956Y-582D01*
X-1957Y-581D01*
X-1957Y-580D01*
X-1958Y-579D01*
X-1958Y-578D01*
X-1959Y-577D01*
X-1959Y-577D01*
X-1959Y-577D01*
X-1959Y-577D01*
X-1959Y-577D01*
X-1960Y-576D01*
X-1960Y-576D01*
X-1961Y-576D01*
X-1961Y-575D01*
X-1963Y-575D01*
X-1964Y-574D01*
X-1965Y-574D01*
X-1965Y-574D01*
X-1966D01*
X-1966Y-574D01*
D02*
G37*
G36*
X-1966Y-197D02*
X-1967Y-197D01*
X-1968Y-198D01*
X-1969Y-198D01*
X-1971Y-199D01*
X-1972Y-199D01*
X-1972Y-200D01*
X-1973D01*
X-1975Y-200D01*
X-1976Y-201D01*
X-1976Y-202D01*
X-1977Y-202D01*
Y-203D01*
X-1976Y-204D01*
X-1976Y-204D01*
X-1975Y-204D01*
X-1974Y-204D01*
X-1973Y-204D01*
X-1973Y-203D01*
X-1972Y-202D01*
X-1970Y-201D01*
X-1969Y-200D01*
X-1968Y-200D01*
X-1967Y-198D01*
X-1966Y-198D01*
X-1966Y-197D01*
X-1966Y-197D01*
D02*
G37*
G36*
X-1969Y-190D02*
X-1969Y-191D01*
X-1970Y-192D01*
Y-192D01*
X-1970Y-193D01*
X-1971Y-194D01*
X-1971Y-194D01*
X-1972D01*
X-1972Y-195D01*
X-1973Y-195D01*
X-1973Y-196D01*
Y-196D01*
Y-196D01*
X-1972D01*
X-1972Y-196D01*
X-1971Y-195D01*
X-1970Y-195D01*
X-1969Y-194D01*
X-1968Y-193D01*
X-1968Y-192D01*
Y-191D01*
Y-191D01*
X-1968Y-190D01*
X-1969Y-190D01*
D02*
G37*
G36*
X-1932Y-187D02*
X-1932D01*
Y-188D01*
Y-189D01*
Y-189D01*
X-1932Y-190D01*
X-1932Y-191D01*
X-1932Y-191D01*
X-1931D01*
X-1930Y-191D01*
X-1930Y-190D01*
X-1929Y-190D01*
X-1929Y-189D01*
X-1929Y-188D01*
X-1930Y-188D01*
X-1930D01*
X-1932Y-188D01*
X-1932Y-187D01*
D02*
G37*
%LPD*%
D43*
X145Y-50D02*
Y-17D01*
Y-33D01*
X95D01*
Y-0D02*
X145D01*
Y25D01*
X137Y33D01*
X120D01*
X112Y25D01*
Y-0D01*
X95Y50D02*
Y67D01*
Y58D01*
X145D01*
X137Y50D01*
X-70Y-135D02*
Y-102D01*
Y-118D01*
X-120D01*
Y-85D02*
X-70D01*
Y-60D01*
X-78Y-52D01*
X-95D01*
X-103Y-60D01*
Y-85D01*
X-120Y-2D02*
Y-35D01*
X-87Y-2D01*
X-78D01*
X-70Y-10D01*
Y-27D01*
X-78Y-35D01*
X-174Y-136D02*
Y-103D01*
Y-119D01*
X-224D01*
Y-86D02*
X-174D01*
Y-61D01*
X-182Y-53D01*
X-199D01*
X-207Y-61D01*
Y-86D01*
X-182Y-36D02*
X-174Y-28D01*
Y-11D01*
X-182Y-3D01*
X-191D01*
X-199Y-11D01*
Y-19D01*
Y-11D01*
X-207Y-3D01*
X-216D01*
X-224Y-11D01*
Y-28D01*
X-216Y-36D01*
X255Y860D02*
X240D01*
X248D01*
Y905D01*
X255Y897D01*
X188Y860D02*
X218D01*
X188Y890D01*
Y897D01*
X195Y905D01*
X210D01*
X218Y897D01*
X173Y882D02*
X143D01*
X98Y860D02*
X128D01*
X98Y890D01*
Y897D01*
X105Y905D01*
X120D01*
X128Y897D01*
X60Y860D02*
Y905D01*
X83Y882D01*
X53D01*
X38Y905D02*
Y875D01*
X23Y860D01*
X8Y875D01*
Y905D01*
X-7D02*
Y860D01*
X-30D01*
X-37Y867D01*
Y897D01*
X-30Y905D01*
X-7D01*
X-82Y897D02*
X-75Y905D01*
X-60D01*
X-52Y897D01*
Y867D01*
X-60Y860D01*
X-75D01*
X-82Y867D01*
X245Y657D02*
X238Y650D01*
X223D01*
X215Y657D01*
Y687D01*
X223Y695D01*
X238D01*
X245Y687D01*
Y680D01*
X238Y672D01*
X215D01*
X200D02*
X170D01*
X155Y650D02*
X140D01*
X148D01*
Y695D01*
X155Y687D01*
X118D02*
X110Y695D01*
X95D01*
X88Y687D01*
Y680D01*
X95Y672D01*
X88Y665D01*
Y657D01*
X95Y650D01*
X110D01*
X118Y657D01*
Y665D01*
X110Y672D01*
X118Y680D01*
Y687D01*
X110Y672D02*
X95D01*
X73Y695D02*
Y665D01*
X58Y650D01*
X43Y665D01*
Y695D01*
X28Y650D02*
Y680D01*
X13Y695D01*
X-2Y680D01*
Y650D01*
Y672D01*
X28D01*
X-47Y687D02*
X-40Y695D01*
X-25D01*
X-17Y687D01*
Y657D01*
X-25Y650D01*
X-40D01*
X-47Y657D01*
M02*
