%FSLAX23Y23*%
%MOIN*%
G70*
G01*
G75*
G04 Layer_Physical_Order=2*
G04 Layer_Color=16711680*
%ADD10R,0.050X0.054*%
%ADD11R,0.054X0.050*%
%ADD12R,0.025X0.075*%
%ADD13R,0.070X0.025*%
%ADD14R,0.079X0.114*%
%ADD15C,0.050*%
%ADD16C,0.030*%
%ADD17C,0.025*%
%ADD18C,0.015*%
%ADD19C,0.020*%
%ADD20C,0.050*%
%ADD21R,0.098X0.098*%
%ADD22C,0.098*%
%ADD23C,0.059*%
%ADD24R,0.059X0.059*%
%ADD25C,0.059*%
%ADD26C,0.065*%
%ADD27R,0.065X0.065*%
%ADD28P,0.070X8X112.5*%
%ADD29R,0.065X0.065*%
%ADD30R,0.059X0.059*%
%ADD31P,0.060X8X112.5*%
%ADD32C,0.080*%
%ADD33P,0.070X8X22.5*%
%ADD34C,0.118*%
%ADD35C,0.063*%
%ADD36R,0.063X0.063*%
%ADD37C,0.217*%
%ADD38C,0.020*%
%ADD39C,0.035*%
G36*
X1385Y459D02*
X1380Y459D01*
X1380Y461D01*
X1376Y471D01*
X1369Y479D01*
X1361Y486D01*
X1351Y490D01*
X1345Y491D01*
Y450D01*
Y409D01*
X1351Y410D01*
X1361Y414D01*
X1369Y421D01*
X1376Y429D01*
X1380Y439D01*
X1380Y441D01*
X1385Y441D01*
Y159D01*
X1380Y159D01*
X1380Y161D01*
X1376Y171D01*
X1369Y179D01*
X1361Y186D01*
X1351Y190D01*
X1345Y191D01*
Y150D01*
Y109D01*
X1351Y110D01*
X1361Y114D01*
X1369Y121D01*
X1376Y129D01*
X1380Y139D01*
X1380Y141D01*
X1385Y141D01*
Y-141D01*
X1380Y-141D01*
X1380Y-139D01*
X1376Y-129D01*
X1369Y-121D01*
X1361Y-114D01*
X1351Y-110D01*
X1345Y-109D01*
Y-150D01*
Y-191D01*
X1351Y-190D01*
X1361Y-186D01*
X1369Y-179D01*
X1376Y-171D01*
X1380Y-161D01*
X1380Y-159D01*
X1385Y-159D01*
Y-441D01*
X1380Y-441D01*
X1380Y-439D01*
X1376Y-429D01*
X1369Y-421D01*
X1361Y-414D01*
X1351Y-410D01*
X1345Y-409D01*
Y-450D01*
Y-491D01*
X1351Y-490D01*
X1361Y-486D01*
X1369Y-479D01*
X1376Y-471D01*
X1380Y-461D01*
X1380Y-459D01*
X1385Y-459D01*
Y-935D01*
X800D01*
Y935D01*
X1385D01*
Y459D01*
D02*
G37*
G36*
X750Y-935D02*
X-975D01*
Y-425D01*
X-925Y-375D01*
X-800Y-250D01*
Y-75D01*
Y250D01*
X-863Y313D01*
Y325D01*
X-863D01*
Y325D01*
Y325D01*
Y325D01*
X-863D01*
X-863Y325D01*
X-864Y334D01*
X-869Y341D01*
X-958Y430D01*
X-958Y432D01*
X-961Y439D01*
X-966Y444D01*
X-971Y449D01*
X-975Y450D01*
Y935D01*
X750D01*
Y-935D01*
D02*
G37*
G36*
X-1000Y448D02*
X-1004Y444D01*
X-1009Y439D01*
X-1012Y432D01*
X-1012Y425D01*
X-1012Y418D01*
X-1009Y411D01*
X-1004Y406D01*
X-1000Y402D01*
Y400D01*
X-925Y325D01*
Y-25D01*
Y-325D01*
X-1000Y-400D01*
Y-935D01*
X-2485D01*
Y935D01*
X-1000D01*
Y448D01*
D02*
G37*
%LPC*%
G36*
X932Y-327D02*
X923Y-328D01*
X914Y-331D01*
X907Y-337D01*
X902Y-344D01*
X898Y-352D01*
X897Y-361D01*
X898Y-370D01*
X902Y-379D01*
X907Y-386D01*
X914Y-392D01*
X923Y-395D01*
X932Y-396D01*
X941Y-395D01*
X949Y-392D01*
X956Y-386D01*
X962Y-379D01*
X966Y-370D01*
X967Y-361D01*
X966Y-352D01*
X962Y-344D01*
X956Y-337D01*
X949Y-331D01*
X941Y-328D01*
X932Y-327D01*
D02*
G37*
G36*
X1168D02*
X1159Y-328D01*
X1151Y-331D01*
X1144Y-337D01*
X1138Y-344D01*
X1134Y-352D01*
X1133Y-361D01*
X1134Y-370D01*
X1138Y-379D01*
X1144Y-386D01*
X1151Y-392D01*
X1159Y-395D01*
X1168Y-396D01*
X1177Y-395D01*
X1186Y-392D01*
X1193Y-386D01*
X1198Y-379D01*
X1202Y-370D01*
X1203Y-361D01*
X1202Y-352D01*
X1198Y-344D01*
X1193Y-337D01*
X1186Y-331D01*
X1177Y-328D01*
X1168Y-327D01*
D02*
G37*
G36*
X-895Y-436D02*
Y-470D01*
X-861D01*
X-862Y-465D01*
X-866Y-455D01*
X-872Y-447D01*
X-880Y-441D01*
X-890Y-437D01*
X-895Y-436D01*
D02*
G37*
G36*
X1301Y-409D02*
X1219D01*
Y-491D01*
X1301D01*
Y-474D01*
X1306Y-473D01*
X1311Y-479D01*
X1319Y-486D01*
X1329Y-490D01*
X1335Y-491D01*
Y-450D01*
Y-409D01*
X1329Y-410D01*
X1319Y-414D01*
X1311Y-421D01*
X1306Y-427D01*
X1301Y-426D01*
Y-409D01*
D02*
G37*
G36*
X-905Y-436D02*
X-910Y-437D01*
X-920Y-441D01*
X-928Y-447D01*
X-934Y-455D01*
X-938Y-465D01*
X-939Y-470D01*
X-905D01*
Y-436D01*
D02*
G37*
G36*
X700Y-208D02*
X689Y-209D01*
X679Y-213D01*
X670Y-220D01*
X663Y-229D01*
X659Y-239D01*
X658Y-250D01*
X659Y-261D01*
X663Y-271D01*
X670Y-280D01*
X679Y-287D01*
X689Y-291D01*
X700Y-292D01*
X711Y-291D01*
X721Y-287D01*
X730Y-280D01*
X737Y-271D01*
X741Y-261D01*
X742Y-250D01*
X741Y-239D01*
X737Y-229D01*
X730Y-220D01*
X721Y-213D01*
X711Y-209D01*
X700Y-208D01*
D02*
G37*
G36*
X850D02*
X839Y-209D01*
X829Y-213D01*
X820Y-220D01*
X813Y-229D01*
X809Y-239D01*
X808Y-250D01*
X809Y-261D01*
X813Y-271D01*
X820Y-280D01*
X829Y-287D01*
X839Y-291D01*
X850Y-292D01*
X861Y-291D01*
X871Y-287D01*
X880Y-280D01*
X887Y-271D01*
X891Y-261D01*
X892Y-250D01*
X891Y-239D01*
X887Y-229D01*
X880Y-220D01*
X871Y-213D01*
X861Y-209D01*
X850Y-208D01*
D02*
G37*
G36*
X927Y-244D02*
X898D01*
X898Y-248D01*
X902Y-256D01*
X907Y-263D01*
X914Y-269D01*
X923Y-272D01*
X927Y-273D01*
Y-244D01*
D02*
G37*
G36*
X700Y-308D02*
X689Y-309D01*
X679Y-313D01*
X670Y-320D01*
X663Y-329D01*
X659Y-339D01*
X658Y-350D01*
X659Y-361D01*
X663Y-371D01*
X670Y-380D01*
X679Y-387D01*
X689Y-391D01*
X700Y-392D01*
X711Y-391D01*
X721Y-387D01*
X730Y-380D01*
X737Y-371D01*
X741Y-361D01*
X742Y-350D01*
X741Y-339D01*
X737Y-329D01*
X730Y-320D01*
X721Y-313D01*
X711Y-309D01*
X700Y-308D01*
D02*
G37*
G36*
X850D02*
X839Y-309D01*
X829Y-313D01*
X820Y-320D01*
X813Y-329D01*
X809Y-339D01*
X808Y-350D01*
X809Y-361D01*
X813Y-371D01*
X820Y-380D01*
X829Y-387D01*
X839Y-391D01*
X850Y-392D01*
X861Y-391D01*
X871Y-387D01*
X880Y-380D01*
X887Y-371D01*
X891Y-361D01*
X892Y-350D01*
X891Y-339D01*
X887Y-329D01*
X880Y-320D01*
X871Y-313D01*
X861Y-309D01*
X850Y-308D01*
D02*
G37*
G36*
X-1350Y-215D02*
X-1359Y-216D01*
X-1367Y-220D01*
X-1375Y-225D01*
X-1380Y-233D01*
X-1384Y-241D01*
X-1385Y-250D01*
Y-365D01*
X-1476D01*
X-1479Y-363D01*
X-1489Y-359D01*
X-1500Y-358D01*
X-1511Y-359D01*
X-1521Y-363D01*
X-1530Y-370D01*
X-1537Y-379D01*
X-1541Y-389D01*
X-1542Y-400D01*
X-1541Y-411D01*
X-1537Y-421D01*
X-1530Y-430D01*
X-1521Y-437D01*
X-1511Y-441D01*
X-1500Y-442D01*
X-1489Y-441D01*
X-1479Y-437D01*
X-1476Y-435D01*
X-1385D01*
Y-770D01*
X-1384Y-775D01*
X-1388Y-778D01*
X-1390Y-778D01*
X-1464D01*
X-1470Y-770D01*
X-1479Y-763D01*
X-1489Y-759D01*
X-1500Y-758D01*
X-1511Y-759D01*
X-1521Y-763D01*
X-1530Y-770D01*
X-1537Y-779D01*
X-1541Y-789D01*
X-1542Y-800D01*
X-1541Y-811D01*
X-1537Y-821D01*
X-1530Y-830D01*
X-1521Y-837D01*
X-1511Y-841D01*
X-1500Y-842D01*
X-1489Y-841D01*
X-1479Y-837D01*
X-1470Y-830D01*
X-1464Y-822D01*
X-1399D01*
X-1376Y-846D01*
X-1376Y-846D01*
X-1376D01*
X-1376Y-846D01*
X-1376D01*
X-1376Y-846D01*
Y-846D01*
Y-846D01*
D01*
D01*
X-1376D01*
Y-846D01*
X-1369Y-851D01*
X-1360Y-852D01*
X-1310D01*
X-1309Y-854D01*
X-1302Y-857D01*
X-1295Y-857D01*
X-1288Y-857D01*
X-1281Y-854D01*
X-1276Y-849D01*
X-1271Y-844D01*
X-1268Y-837D01*
X-1268Y-830D01*
X-1268Y-823D01*
X-1271Y-816D01*
X-1276Y-811D01*
X-1281Y-806D01*
X-1288Y-803D01*
X-1295Y-803D01*
X-1302Y-803D01*
X-1309Y-806D01*
X-1310Y-808D01*
X-1338D01*
X-1339Y-803D01*
X-1333Y-800D01*
X-1325Y-795D01*
X-1320Y-787D01*
X-1316Y-779D01*
X-1315Y-770D01*
Y-435D01*
X-1224D01*
X-1221Y-437D01*
X-1211Y-441D01*
X-1200Y-442D01*
X-1189Y-441D01*
X-1179Y-437D01*
X-1170Y-430D01*
X-1163Y-421D01*
X-1159Y-411D01*
X-1158Y-400D01*
X-1159Y-389D01*
X-1163Y-379D01*
X-1170Y-370D01*
X-1179Y-363D01*
X-1189Y-359D01*
X-1200Y-358D01*
X-1211Y-359D01*
X-1221Y-363D01*
X-1224Y-365D01*
X-1315D01*
Y-250D01*
X-1316Y-241D01*
X-1320Y-233D01*
X-1325Y-225D01*
X-1333Y-220D01*
X-1341Y-216D01*
X-1350Y-215D01*
D02*
G37*
G36*
X892Y-408D02*
X808D01*
Y-492D01*
X892D01*
Y-408D01*
D02*
G37*
G36*
X927Y-504D02*
X923Y-505D01*
X914Y-508D01*
X907Y-514D01*
X902Y-521D01*
X898Y-530D01*
X898Y-534D01*
X927D01*
Y-504D01*
D02*
G37*
G36*
X937D02*
Y-534D01*
X966D01*
X966Y-530D01*
X962Y-521D01*
X956Y-514D01*
X949Y-508D01*
X941Y-505D01*
X937Y-504D01*
D02*
G37*
G36*
X-645Y-511D02*
Y-545D01*
X-611D01*
X-612Y-540D01*
X-616Y-530D01*
X-622Y-522D01*
X-630Y-516D01*
X-640Y-512D01*
X-645Y-511D01*
D02*
G37*
G36*
X1202Y-544D02*
X1173D01*
Y-573D01*
X1177Y-572D01*
X1186Y-569D01*
X1193Y-563D01*
X1198Y-556D01*
X1202Y-548D01*
X1202Y-544D01*
D02*
G37*
G36*
X-655Y-511D02*
X-660Y-512D01*
X-670Y-516D01*
X-678Y-522D01*
X-684Y-530D01*
X-688Y-540D01*
X-689Y-545D01*
X-655D01*
Y-511D01*
D02*
G37*
G36*
X1163Y-504D02*
X1159Y-505D01*
X1151Y-508D01*
X1144Y-514D01*
X1138Y-521D01*
X1134Y-530D01*
X1134Y-534D01*
X1163D01*
Y-504D01*
D02*
G37*
G36*
X-333Y-208D02*
X-417D01*
Y-292D01*
X-392D01*
Y-444D01*
X-394Y-446D01*
X-399Y-451D01*
X-402Y-458D01*
X-402Y-465D01*
X-402Y-472D01*
X-399Y-479D01*
X-394Y-484D01*
X-389Y-489D01*
X-382Y-492D01*
X-375Y-492D01*
X-368Y-492D01*
X-361Y-489D01*
X-356Y-484D01*
X-351Y-479D01*
X-348Y-472D01*
X-348Y-465D01*
X-348Y-458D01*
X-351Y-451D01*
X-356Y-446D01*
X-358Y-444D01*
Y-292D01*
X-333D01*
Y-208D01*
D02*
G37*
G36*
X742Y-408D02*
X658D01*
Y-492D01*
X742D01*
Y-408D01*
D02*
G37*
G36*
X-861Y-480D02*
X-895D01*
Y-514D01*
X-890Y-513D01*
X-880Y-509D01*
X-872Y-503D01*
X-866Y-495D01*
X-862Y-485D01*
X-861Y-480D01*
D02*
G37*
G36*
X1173Y-504D02*
Y-534D01*
X1202D01*
X1202Y-530D01*
X1198Y-521D01*
X1193Y-514D01*
X1186Y-508D01*
X1177Y-505D01*
X1173Y-504D01*
D02*
G37*
G36*
X-905Y-480D02*
X-939D01*
X-938Y-485D01*
X-934Y-495D01*
X-928Y-503D01*
X-920Y-509D01*
X-910Y-513D01*
X-905Y-514D01*
Y-480D01*
D02*
G37*
G36*
X-1200Y-58D02*
X-1211Y-59D01*
X-1221Y-63D01*
X-1230Y-70D01*
X-1237Y-79D01*
X-1241Y-89D01*
X-1242Y-100D01*
X-1241Y-111D01*
X-1237Y-121D01*
X-1230Y-130D01*
X-1221Y-137D01*
X-1211Y-141D01*
X-1200Y-142D01*
X-1189Y-141D01*
X-1179Y-137D01*
X-1176Y-135D01*
X-1164D01*
X-1135Y-164D01*
Y-436D01*
X-1164Y-465D01*
X-1176D01*
X-1179Y-463D01*
X-1189Y-459D01*
X-1200Y-458D01*
X-1211Y-459D01*
X-1221Y-463D01*
X-1230Y-470D01*
X-1237Y-479D01*
X-1241Y-489D01*
X-1242Y-500D01*
X-1241Y-511D01*
X-1237Y-521D01*
X-1230Y-530D01*
X-1221Y-537D01*
X-1211Y-541D01*
X-1200Y-542D01*
X-1189Y-541D01*
X-1179Y-537D01*
X-1176Y-535D01*
X-1150D01*
X-1141Y-534D01*
X-1133Y-530D01*
X-1125Y-525D01*
X-1075Y-475D01*
X-1070Y-467D01*
X-1066Y-459D01*
X-1065Y-450D01*
D01*
D01*
D01*
D01*
D01*
X-1065D01*
D01*
D01*
D01*
D01*
Y-450D01*
X-1065D01*
D01*
Y-450D01*
D01*
D01*
D01*
D01*
D01*
D01*
D01*
D01*
D01*
D01*
D01*
D01*
Y-450D01*
D01*
X-1065D01*
D01*
D01*
D01*
D01*
X-1065Y-450D01*
Y-224D01*
X-1060Y-223D01*
X-1055Y-230D01*
X-1046Y-237D01*
X-1036Y-241D01*
X-1030Y-242D01*
Y-200D01*
Y-158D01*
X-1036Y-159D01*
X-1046Y-163D01*
X-1055Y-170D01*
X-1060Y-177D01*
X-1065Y-176D01*
Y-150D01*
X-1065Y-150D01*
Y-150D01*
X-1065D01*
X-1065Y-150D01*
D01*
D01*
D01*
D01*
X-1065Y-150D01*
D01*
X-1066Y-141D01*
X-1070Y-133D01*
X-1075Y-125D01*
X-1125Y-75D01*
X-1133Y-70D01*
X-1141Y-66D01*
X-1150Y-65D01*
X-1176D01*
X-1179Y-63D01*
X-1189Y-59D01*
X-1200Y-58D01*
D02*
G37*
G36*
X-1500D02*
X-1511Y-59D01*
X-1521Y-63D01*
X-1524Y-65D01*
X-1550D01*
X-1559Y-66D01*
X-1567Y-70D01*
X-1575Y-75D01*
X-1625Y-125D01*
X-1630Y-133D01*
X-1634Y-141D01*
X-1635Y-150D01*
Y-450D01*
X-1635Y-450D01*
X-1635D01*
X-1634Y-459D01*
X-1630Y-467D01*
X-1625Y-475D01*
X-1575Y-525D01*
X-1567Y-530D01*
X-1559Y-534D01*
X-1550Y-535D01*
X-1524D01*
X-1521Y-537D01*
X-1511Y-541D01*
X-1500Y-542D01*
X-1489Y-541D01*
X-1479Y-537D01*
X-1470Y-530D01*
X-1463Y-521D01*
X-1459Y-511D01*
X-1458Y-500D01*
X-1459Y-489D01*
X-1463Y-479D01*
X-1470Y-470D01*
X-1479Y-463D01*
X-1489Y-459D01*
X-1500Y-458D01*
X-1511Y-459D01*
X-1521Y-463D01*
X-1524Y-465D01*
X-1536D01*
X-1565Y-436D01*
Y-164D01*
X-1536Y-135D01*
X-1524D01*
X-1521Y-137D01*
X-1511Y-141D01*
X-1500Y-142D01*
X-1489Y-141D01*
X-1479Y-137D01*
X-1470Y-130D01*
X-1463Y-121D01*
X-1459Y-111D01*
X-1458Y-100D01*
X-1459Y-89D01*
X-1463Y-79D01*
X-1470Y-70D01*
X-1479Y-63D01*
X-1489Y-59D01*
X-1500Y-58D01*
D02*
G37*
G36*
X125D02*
X114Y-59D01*
X104Y-63D01*
X95Y-70D01*
X88Y-79D01*
X84Y-89D01*
X83Y-100D01*
X84Y-111D01*
X88Y-121D01*
X95Y-130D01*
X104Y-137D01*
X114Y-141D01*
X125Y-142D01*
X136Y-141D01*
X146Y-137D01*
X155Y-130D01*
X162Y-121D01*
X166Y-111D01*
X167Y-100D01*
X166Y-89D01*
X162Y-79D01*
X155Y-70D01*
X146Y-63D01*
X136Y-59D01*
X125Y-58D01*
D02*
G37*
G36*
X700Y-108D02*
X689Y-109D01*
X679Y-113D01*
X670Y-120D01*
X663Y-129D01*
X659Y-139D01*
X658Y-150D01*
X659Y-161D01*
X663Y-171D01*
X670Y-180D01*
X679Y-187D01*
X689Y-191D01*
X700Y-192D01*
X711Y-191D01*
X721Y-187D01*
X730Y-180D01*
X737Y-171D01*
X741Y-161D01*
X742Y-150D01*
X741Y-139D01*
X737Y-129D01*
X730Y-120D01*
X721Y-113D01*
X711Y-109D01*
X700Y-108D01*
D02*
G37*
G36*
X850D02*
X839Y-109D01*
X829Y-113D01*
X820Y-120D01*
X813Y-129D01*
X809Y-139D01*
X808Y-150D01*
X809Y-161D01*
X813Y-171D01*
X820Y-180D01*
X829Y-187D01*
X839Y-191D01*
X850Y-192D01*
X861Y-191D01*
X871Y-187D01*
X880Y-180D01*
X887Y-171D01*
X891Y-161D01*
X892Y-150D01*
X891Y-139D01*
X887Y-129D01*
X880Y-120D01*
X871Y-113D01*
X861Y-109D01*
X850Y-108D01*
D02*
G37*
G36*
X1301Y-109D02*
X1219D01*
Y-191D01*
X1301D01*
Y-174D01*
X1306Y-173D01*
X1311Y-179D01*
X1319Y-186D01*
X1329Y-190D01*
X1335Y-191D01*
Y-150D01*
Y-109D01*
X1329Y-110D01*
X1319Y-114D01*
X1311Y-121D01*
X1306Y-127D01*
X1301Y-126D01*
Y-109D01*
D02*
G37*
G36*
X-380Y-55D02*
X-417D01*
X-416Y-61D01*
X-412Y-71D01*
X-405Y-80D01*
X-396Y-87D01*
X-386Y-91D01*
X-380Y-92D01*
Y-55D01*
D02*
G37*
G36*
X-333D02*
X-370D01*
Y-92D01*
X-364Y-91D01*
X-354Y-87D01*
X-345Y-80D01*
X-338Y-71D01*
X-334Y-61D01*
X-333Y-55D01*
D02*
G37*
G36*
X-2090Y55D02*
X-2103Y53D01*
X-2116Y49D01*
X-2128Y43D01*
X-2139Y34D01*
X-2147Y24D01*
X-2154Y12D01*
X-2158Y-1D01*
X-2159Y-14D01*
X-2158Y-28D01*
X-2154Y-41D01*
X-2147Y-53D01*
X-2139Y-63D01*
X-2128Y-72D01*
X-2116Y-78D01*
X-2103Y-82D01*
X-2090Y-83D01*
X-2077Y-82D01*
X-2064Y-78D01*
X-2052Y-72D01*
X-2041Y-63D01*
X-2033Y-53D01*
X-2026Y-41D01*
X-2022Y-28D01*
X-2021Y-14D01*
X-2022Y-1D01*
X-2026Y12D01*
X-2033Y24D01*
X-2041Y34D01*
X-2052Y43D01*
X-2064Y49D01*
X-2077Y53D01*
X-2090Y55D01*
D02*
G37*
G36*
X-1004Y-58D02*
X-1046D01*
X-1067Y-79D01*
Y-121D01*
X-1046Y-142D01*
X-1004D01*
X-983Y-121D01*
Y-79D01*
X-1004Y-58D01*
D02*
G37*
G36*
X1168Y-27D02*
X1159Y-28D01*
X1151Y-31D01*
X1144Y-37D01*
X1138Y-44D01*
X1134Y-52D01*
X1133Y-61D01*
X1134Y-70D01*
X1138Y-79D01*
X1144Y-86D01*
X1151Y-92D01*
X1159Y-95D01*
X1168Y-96D01*
X1177Y-95D01*
X1186Y-92D01*
X1193Y-86D01*
X1198Y-79D01*
X1202Y-70D01*
X1203Y-61D01*
X1202Y-52D01*
X1198Y-44D01*
X1193Y-37D01*
X1186Y-31D01*
X1177Y-28D01*
X1168Y-27D01*
D02*
G37*
G36*
X700Y-8D02*
X689Y-9D01*
X679Y-13D01*
X670Y-20D01*
X663Y-29D01*
X659Y-39D01*
X658Y-50D01*
X659Y-61D01*
X663Y-71D01*
X670Y-80D01*
X679Y-87D01*
X689Y-91D01*
X700Y-92D01*
X711Y-91D01*
X721Y-87D01*
X730Y-80D01*
X737Y-71D01*
X741Y-61D01*
X742Y-50D01*
X741Y-39D01*
X737Y-29D01*
X730Y-20D01*
X721Y-13D01*
X711Y-9D01*
X700Y-8D01*
D02*
G37*
G36*
X-1500Y-158D02*
X-1511Y-159D01*
X-1521Y-163D01*
X-1530Y-170D01*
X-1537Y-179D01*
X-1541Y-189D01*
X-1542Y-200D01*
X-1541Y-211D01*
X-1537Y-221D01*
X-1530Y-230D01*
X-1521Y-237D01*
X-1511Y-241D01*
X-1500Y-242D01*
X-1489Y-241D01*
X-1479Y-237D01*
X-1470Y-230D01*
X-1463Y-221D01*
X-1459Y-211D01*
X-1458Y-200D01*
X-1459Y-189D01*
X-1463Y-179D01*
X-1470Y-170D01*
X-1479Y-163D01*
X-1489Y-159D01*
X-1500Y-158D01*
D02*
G37*
G36*
X-1200D02*
X-1211Y-159D01*
X-1221Y-163D01*
X-1230Y-170D01*
X-1237Y-179D01*
X-1241Y-189D01*
X-1242Y-200D01*
X-1241Y-211D01*
X-1237Y-221D01*
X-1230Y-230D01*
X-1221Y-237D01*
X-1211Y-241D01*
X-1200Y-242D01*
X-1189Y-241D01*
X-1179Y-237D01*
X-1170Y-230D01*
X-1163Y-221D01*
X-1159Y-211D01*
X-1158Y-200D01*
X-1159Y-189D01*
X-1163Y-179D01*
X-1170Y-170D01*
X-1179Y-163D01*
X-1189Y-159D01*
X-1200Y-158D01*
D02*
G37*
G36*
X-983Y-205D02*
X-1020D01*
Y-242D01*
X-1014Y-241D01*
X-1004Y-237D01*
X-995Y-230D01*
X-988Y-221D01*
X-984Y-211D01*
X-983Y-205D01*
D02*
G37*
G36*
X966Y-244D02*
X937D01*
Y-273D01*
X941Y-272D01*
X949Y-269D01*
X956Y-263D01*
X962Y-256D01*
X966Y-248D01*
X966Y-244D01*
D02*
G37*
G36*
X1163D02*
X1134D01*
X1134Y-248D01*
X1138Y-256D01*
X1144Y-263D01*
X1151Y-269D01*
X1159Y-272D01*
X1163Y-273D01*
Y-244D01*
D02*
G37*
G36*
X1202D02*
X1173D01*
Y-273D01*
X1177Y-272D01*
X1186Y-269D01*
X1193Y-263D01*
X1198Y-256D01*
X1202Y-248D01*
X1202Y-244D01*
D02*
G37*
G36*
X1173Y-204D02*
Y-234D01*
X1202D01*
X1202Y-230D01*
X1198Y-221D01*
X1193Y-214D01*
X1186Y-208D01*
X1177Y-205D01*
X1173Y-204D01*
D02*
G37*
G36*
X-1020Y-158D02*
Y-195D01*
X-983D01*
X-984Y-189D01*
X-988Y-179D01*
X-995Y-170D01*
X-1004Y-163D01*
X-1014Y-159D01*
X-1020Y-158D01*
D02*
G37*
G36*
X-375Y-108D02*
X-386Y-109D01*
X-396Y-113D01*
X-405Y-120D01*
X-409Y-125D01*
X-450D01*
X-460Y-127D01*
X-468Y-132D01*
X-568Y-232D01*
X-573Y-240D01*
X-575Y-250D01*
Y-511D01*
X-589D01*
Y-589D01*
X-511D01*
Y-511D01*
X-525D01*
Y-260D01*
X-440Y-175D01*
X-409D01*
X-405Y-180D01*
X-396Y-187D01*
X-386Y-191D01*
X-375Y-192D01*
X-364Y-191D01*
X-354Y-187D01*
X-345Y-180D01*
X-338Y-171D01*
X-334Y-161D01*
X-333Y-150D01*
X-334Y-139D01*
X-338Y-129D01*
X-345Y-120D01*
X-354Y-113D01*
X-364Y-109D01*
X-375Y-108D01*
D02*
G37*
G36*
X927Y-204D02*
X923Y-205D01*
X914Y-208D01*
X907Y-214D01*
X902Y-221D01*
X898Y-230D01*
X898Y-234D01*
X927D01*
Y-204D01*
D02*
G37*
G36*
X937D02*
Y-234D01*
X966D01*
X966Y-230D01*
X962Y-221D01*
X956Y-214D01*
X949Y-208D01*
X941Y-205D01*
X937Y-204D01*
D02*
G37*
G36*
X1163D02*
X1159Y-205D01*
X1151Y-208D01*
X1144Y-214D01*
X1138Y-221D01*
X1134Y-230D01*
X1134Y-234D01*
X1163D01*
Y-204D01*
D02*
G37*
G36*
Y-544D02*
X1134D01*
X1134Y-548D01*
X1138Y-556D01*
X1144Y-563D01*
X1151Y-569D01*
X1159Y-572D01*
X1163Y-573D01*
Y-544D01*
D02*
G37*
G36*
X-1658Y-755D02*
X-1695D01*
Y-792D01*
X-1689Y-791D01*
X-1679Y-787D01*
X-1670Y-780D01*
X-1663Y-771D01*
X-1659Y-761D01*
X-1658Y-755D01*
D02*
G37*
G36*
X195D02*
X158D01*
X159Y-761D01*
X163Y-771D01*
X170Y-780D01*
X179Y-787D01*
X189Y-791D01*
X195Y-792D01*
Y-755D01*
D02*
G37*
G36*
X-1705D02*
X-1742D01*
X-1741Y-761D01*
X-1737Y-771D01*
X-1730Y-780D01*
X-1721Y-787D01*
X-1711Y-791D01*
X-1705Y-792D01*
Y-755D01*
D02*
G37*
G36*
X-1779Y-708D02*
X-1821D01*
X-1842Y-729D01*
Y-771D01*
X-1821Y-792D01*
X-1779D01*
X-1758Y-771D01*
Y-729D01*
X-1779Y-708D01*
D02*
G37*
G36*
X-158D02*
X-242D01*
Y-792D01*
X-158D01*
Y-708D01*
D02*
G37*
G36*
X242Y-755D02*
X205D01*
Y-792D01*
X211Y-791D01*
X221Y-787D01*
X230Y-780D01*
X237Y-771D01*
X241Y-761D01*
X242Y-755D01*
D02*
G37*
G36*
X-540Y-751D02*
X-545Y-752D01*
X-555Y-756D01*
X-563Y-762D01*
X-569Y-770D01*
X-573Y-780D01*
X-574Y-785D01*
X-540D01*
Y-751D01*
D02*
G37*
G36*
X-530D02*
Y-785D01*
X-496D01*
X-497Y-780D01*
X-501Y-770D01*
X-507Y-762D01*
X-515Y-756D01*
X-525Y-752D01*
X-530Y-751D01*
D02*
G37*
G36*
X-700Y-750D02*
X-713Y-752D01*
X-725Y-757D01*
X-735Y-765D01*
X-743Y-775D01*
X-748Y-785D01*
X-752D01*
X-757Y-775D01*
X-765Y-765D01*
X-775Y-757D01*
X-787Y-752D01*
X-795Y-751D01*
Y-800D01*
Y-849D01*
X-787Y-848D01*
X-775Y-843D01*
X-765Y-835D01*
X-757Y-825D01*
X-752Y-815D01*
X-748D01*
X-743Y-825D01*
X-735Y-835D01*
X-725Y-843D01*
X-713Y-848D01*
X-700Y-850D01*
X-687Y-848D01*
X-675Y-843D01*
X-665Y-835D01*
X-657Y-825D01*
X-652Y-813D01*
X-650Y-800D01*
X-652Y-787D01*
X-657Y-775D01*
X-665Y-765D01*
X-675Y-757D01*
X-687Y-752D01*
X-700Y-750D01*
D02*
G37*
G36*
X-2105Y-755D02*
X-2142D01*
X-2141Y-761D01*
X-2137Y-771D01*
X-2130Y-780D01*
X-2121Y-787D01*
X-2111Y-791D01*
X-2105Y-792D01*
Y-755D01*
D02*
G37*
G36*
X-2058D02*
X-2095D01*
Y-792D01*
X-2089Y-791D01*
X-2079Y-787D01*
X-2070Y-780D01*
X-2063Y-771D01*
X-2059Y-761D01*
X-2058Y-755D01*
D02*
G37*
G36*
X-1979Y-708D02*
X-2021D01*
X-2042Y-729D01*
Y-771D01*
X-2021Y-792D01*
X-1979D01*
X-1958Y-771D01*
Y-729D01*
X-1979Y-708D01*
D02*
G37*
G36*
X-456Y-813D02*
X-494D01*
X-512Y-831D01*
Y-869D01*
X-494Y-887D01*
X-456D01*
X-438Y-869D01*
Y-831D01*
X-456Y-813D01*
D02*
G37*
G36*
X-900Y-750D02*
X-913Y-752D01*
X-925Y-757D01*
X-935Y-765D01*
X-943Y-775D01*
X-948Y-787D01*
X-950Y-800D01*
X-948Y-813D01*
X-943Y-825D01*
X-935Y-835D01*
X-925Y-843D01*
X-913Y-848D01*
X-900Y-850D01*
X-887Y-848D01*
X-875Y-843D01*
X-865Y-835D01*
X-857Y-825D01*
X-853Y-815D01*
X-848D01*
X-843Y-825D01*
X-835Y-835D01*
X-825Y-843D01*
X-813Y-848D01*
X-805Y-849D01*
Y-800D01*
Y-751D01*
X-813Y-752D01*
X-825Y-757D01*
X-835Y-765D01*
X-843Y-775D01*
X-848Y-785D01*
X-853D01*
X-857Y-775D01*
X-865Y-765D01*
X-875Y-757D01*
X-887Y-752D01*
X-900Y-750D01*
D02*
G37*
G36*
X1100Y-690D02*
X1082Y-691D01*
X1063Y-696D01*
X1046Y-703D01*
X1031Y-712D01*
X1016Y-725D01*
X1004Y-739D01*
X995Y-754D01*
X988Y-772D01*
X983Y-790D01*
X982Y-808D01*
X983Y-827D01*
X988Y-845D01*
X995Y-862D01*
X1004Y-878D01*
X1016Y-892D01*
X1031Y-904D01*
X1046Y-913D01*
X1063Y-920D01*
X1082Y-925D01*
X1100Y-926D01*
X1118Y-925D01*
X1137Y-920D01*
X1154Y-913D01*
X1169Y-904D01*
X1184Y-892D01*
X1196Y-878D01*
X1205Y-862D01*
X1212Y-845D01*
X1217Y-827D01*
X1218Y-808D01*
X1217Y-790D01*
X1212Y-772D01*
X1205Y-754D01*
X1196Y-739D01*
X1184Y-725D01*
X1169Y-712D01*
X1154Y-703D01*
X1137Y-696D01*
X1118Y-691D01*
X1100Y-690D01*
D02*
G37*
G36*
X-2361D02*
X-2380Y-691D01*
X-2398Y-696D01*
X-2415Y-703D01*
X-2430Y-712D01*
X-2445Y-725D01*
X-2457Y-739D01*
X-2466Y-754D01*
X-2473Y-772D01*
X-2478Y-790D01*
X-2479Y-808D01*
X-2478Y-827D01*
X-2473Y-845D01*
X-2466Y-862D01*
X-2457Y-878D01*
X-2445Y-892D01*
X-2430Y-904D01*
X-2415Y-913D01*
X-2398Y-920D01*
X-2380Y-925D01*
X-2361Y-926D01*
X-2343Y-925D01*
X-2325Y-920D01*
X-2307Y-913D01*
X-2292Y-904D01*
X-2277Y-892D01*
X-2265Y-878D01*
X-2256Y-862D01*
X-2249Y-845D01*
X-2244Y-827D01*
X-2243Y-808D01*
X-2244Y-790D01*
X-2249Y-772D01*
X-2256Y-754D01*
X-2265Y-739D01*
X-2277Y-725D01*
X-2292Y-712D01*
X-2307Y-703D01*
X-2325Y-696D01*
X-2343Y-691D01*
X-2361Y-690D01*
D02*
G37*
G36*
X536D02*
X518Y-691D01*
X500Y-696D01*
X482Y-703D01*
X467Y-712D01*
X452Y-725D01*
X440Y-739D01*
X431Y-754D01*
X424Y-772D01*
X419Y-790D01*
X418Y-808D01*
X419Y-827D01*
X424Y-845D01*
X431Y-862D01*
X440Y-878D01*
X452Y-892D01*
X467Y-904D01*
X482Y-913D01*
X500Y-920D01*
X518Y-925D01*
X536Y-926D01*
X555Y-925D01*
X573Y-920D01*
X590Y-913D01*
X605Y-904D01*
X620Y-892D01*
X632Y-878D01*
X641Y-862D01*
X648Y-845D01*
X653Y-827D01*
X654Y-808D01*
X653Y-790D01*
X648Y-772D01*
X641Y-754D01*
X632Y-739D01*
X620Y-725D01*
X605Y-712D01*
X590Y-703D01*
X573Y-696D01*
X555Y-691D01*
X536Y-690D01*
D02*
G37*
G36*
X-1200Y-758D02*
X-1211Y-759D01*
X-1221Y-763D01*
X-1230Y-770D01*
X-1237Y-779D01*
X-1241Y-789D01*
X-1242Y-800D01*
X-1241Y-811D01*
X-1237Y-821D01*
X-1230Y-830D01*
X-1221Y-837D01*
X-1211Y-841D01*
X-1200Y-842D01*
X-1189Y-841D01*
X-1179Y-837D01*
X-1170Y-830D01*
X-1163Y-821D01*
X-1159Y-811D01*
X-1158Y-800D01*
X-1159Y-789D01*
X-1163Y-779D01*
X-1170Y-770D01*
X-1179Y-763D01*
X-1189Y-759D01*
X-1200Y-758D01*
D02*
G37*
G36*
X0Y-708D02*
X-11Y-709D01*
X-21Y-713D01*
X-30Y-720D01*
X-37Y-729D01*
X-41Y-739D01*
X-42Y-750D01*
X-41Y-761D01*
X-37Y-771D01*
X-30Y-780D01*
X-21Y-787D01*
X-11Y-791D01*
X0Y-792D01*
X11Y-791D01*
X21Y-787D01*
X30Y-780D01*
X37Y-771D01*
X41Y-761D01*
X42Y-750D01*
X41Y-739D01*
X37Y-729D01*
X30Y-720D01*
X21Y-713D01*
X11Y-709D01*
X0Y-708D01*
D02*
G37*
G36*
X100D02*
X89Y-709D01*
X79Y-713D01*
X70Y-720D01*
X63Y-729D01*
X59Y-739D01*
X58Y-750D01*
X59Y-761D01*
X63Y-771D01*
X70Y-780D01*
X79Y-787D01*
X89Y-791D01*
X100Y-792D01*
X111Y-791D01*
X121Y-787D01*
X130Y-780D01*
X137Y-771D01*
X141Y-761D01*
X142Y-750D01*
X141Y-739D01*
X137Y-729D01*
X130Y-720D01*
X121Y-713D01*
X111Y-709D01*
X100Y-708D01*
D02*
G37*
G36*
X-100D02*
X-111Y-709D01*
X-121Y-713D01*
X-130Y-720D01*
X-137Y-729D01*
X-141Y-739D01*
X-142Y-750D01*
X-141Y-761D01*
X-137Y-771D01*
X-130Y-780D01*
X-121Y-787D01*
X-111Y-791D01*
X-100Y-792D01*
X-89Y-791D01*
X-79Y-787D01*
X-70Y-780D01*
X-63Y-771D01*
X-59Y-761D01*
X-58Y-750D01*
X-59Y-739D01*
X-63Y-729D01*
X-70Y-720D01*
X-79Y-713D01*
X-89Y-709D01*
X-100Y-708D01*
D02*
G37*
G36*
X-540Y-795D02*
X-574D01*
X-573Y-800D01*
X-569Y-810D01*
X-563Y-818D01*
X-555Y-824D01*
X-545Y-828D01*
X-540Y-829D01*
Y-795D01*
D02*
G37*
G36*
X-496D02*
X-530D01*
Y-829D01*
X-525Y-828D01*
X-515Y-824D01*
X-507Y-818D01*
X-501Y-810D01*
X-497Y-800D01*
X-496Y-795D01*
D02*
G37*
G36*
X-475Y-691D02*
X-485Y-692D01*
X-495Y-696D01*
X-503Y-702D01*
X-509Y-710D01*
X-513Y-720D01*
X-514Y-730D01*
X-513Y-740D01*
X-509Y-750D01*
X-503Y-758D01*
X-495Y-764D01*
X-485Y-768D01*
X-475Y-769D01*
X-465Y-768D01*
X-455Y-764D01*
X-447Y-758D01*
X-441Y-750D01*
X-437Y-740D01*
X-436Y-730D01*
X-437Y-720D01*
X-441Y-710D01*
X-447Y-702D01*
X-455Y-696D01*
X-465Y-692D01*
X-475Y-691D01*
D02*
G37*
G36*
X195Y-608D02*
X189Y-609D01*
X179Y-613D01*
X170Y-620D01*
X163Y-629D01*
X159Y-639D01*
X158Y-645D01*
X195D01*
Y-608D01*
D02*
G37*
G36*
X205D02*
Y-645D01*
X242D01*
X241Y-639D01*
X237Y-629D01*
X230Y-620D01*
X221Y-613D01*
X211Y-609D01*
X205Y-608D01*
D02*
G37*
G36*
X-861Y-586D02*
X-939D01*
Y-664D01*
X-861D01*
Y-586D01*
D02*
G37*
G36*
X195Y-655D02*
X158D01*
X159Y-661D01*
X163Y-671D01*
X170Y-680D01*
X179Y-687D01*
X189Y-691D01*
X195Y-692D01*
Y-655D01*
D02*
G37*
G36*
X242D02*
X205D01*
Y-692D01*
X211Y-691D01*
X221Y-687D01*
X230Y-680D01*
X237Y-671D01*
X241Y-661D01*
X242Y-655D01*
D02*
G37*
G36*
X-1500Y-558D02*
X-1511Y-559D01*
X-1521Y-563D01*
X-1530Y-570D01*
X-1537Y-579D01*
X-1541Y-589D01*
X-1542Y-600D01*
X-1541Y-611D01*
X-1537Y-621D01*
X-1530Y-630D01*
X-1521Y-637D01*
X-1511Y-641D01*
X-1500Y-642D01*
X-1489Y-641D01*
X-1479Y-637D01*
X-1470Y-630D01*
X-1463Y-621D01*
X-1459Y-611D01*
X-1458Y-600D01*
X-1459Y-589D01*
X-1463Y-579D01*
X-1470Y-570D01*
X-1479Y-563D01*
X-1489Y-559D01*
X-1500Y-558D01*
D02*
G37*
G36*
X927Y-544D02*
X898D01*
X898Y-548D01*
X902Y-556D01*
X907Y-563D01*
X914Y-569D01*
X923Y-572D01*
X927Y-573D01*
Y-544D01*
D02*
G37*
G36*
X966D02*
X937D01*
Y-573D01*
X941Y-572D01*
X949Y-569D01*
X956Y-563D01*
X962Y-556D01*
X966Y-548D01*
X966Y-544D01*
D02*
G37*
G36*
X-611Y-555D02*
X-645D01*
Y-589D01*
X-640Y-588D01*
X-630Y-584D01*
X-622Y-578D01*
X-616Y-570D01*
X-612Y-560D01*
X-611Y-555D01*
D02*
G37*
G36*
X-1200Y-558D02*
X-1211Y-559D01*
X-1221Y-563D01*
X-1230Y-570D01*
X-1237Y-579D01*
X-1241Y-589D01*
X-1242Y-600D01*
X-1241Y-611D01*
X-1237Y-621D01*
X-1230Y-630D01*
X-1221Y-637D01*
X-1211Y-641D01*
X-1200Y-642D01*
X-1189Y-641D01*
X-1179Y-637D01*
X-1170Y-630D01*
X-1163Y-621D01*
X-1159Y-611D01*
X-1158Y-600D01*
X-1159Y-589D01*
X-1163Y-579D01*
X-1170Y-570D01*
X-1179Y-563D01*
X-1189Y-559D01*
X-1200Y-558D01*
D02*
G37*
G36*
X-655Y-555D02*
X-689D01*
X-688Y-560D01*
X-684Y-570D01*
X-678Y-578D01*
X-670Y-584D01*
X-660Y-588D01*
X-655Y-589D01*
Y-555D01*
D02*
G37*
G36*
X100Y-608D02*
X89Y-609D01*
X79Y-613D01*
X70Y-620D01*
X63Y-629D01*
X59Y-639D01*
X58Y-650D01*
X59Y-661D01*
X63Y-671D01*
X70Y-680D01*
X79Y-687D01*
X89Y-691D01*
X100Y-692D01*
X111Y-691D01*
X121Y-687D01*
X130Y-680D01*
X137Y-671D01*
X141Y-661D01*
X142Y-650D01*
X141Y-639D01*
X137Y-629D01*
X130Y-620D01*
X121Y-613D01*
X111Y-609D01*
X100Y-608D01*
D02*
G37*
G36*
X-1695Y-708D02*
Y-745D01*
X-1658D01*
X-1659Y-739D01*
X-1663Y-729D01*
X-1670Y-720D01*
X-1679Y-713D01*
X-1689Y-709D01*
X-1695Y-708D01*
D02*
G37*
G36*
X195D02*
X189Y-709D01*
X179Y-713D01*
X170Y-720D01*
X163Y-729D01*
X159Y-739D01*
X158Y-745D01*
X195D01*
Y-708D01*
D02*
G37*
G36*
X-1705D02*
X-1711Y-709D01*
X-1721Y-713D01*
X-1730Y-720D01*
X-1737Y-729D01*
X-1741Y-739D01*
X-1742Y-745D01*
X-1705D01*
Y-708D01*
D02*
G37*
G36*
X-2105D02*
X-2111Y-709D01*
X-2121Y-713D01*
X-2130Y-720D01*
X-2137Y-729D01*
X-2141Y-739D01*
X-2142Y-745D01*
X-2105D01*
Y-708D01*
D02*
G37*
G36*
X-2095D02*
Y-745D01*
X-2058D01*
X-2059Y-739D01*
X-2063Y-729D01*
X-2070Y-720D01*
X-2079Y-713D01*
X-2089Y-709D01*
X-2095Y-708D01*
D02*
G37*
G36*
X205D02*
Y-745D01*
X242D01*
X241Y-739D01*
X237Y-729D01*
X230Y-720D01*
X221Y-713D01*
X211Y-709D01*
X205Y-708D01*
D02*
G37*
G36*
X-100Y-608D02*
X-111Y-609D01*
X-121Y-613D01*
X-130Y-620D01*
X-137Y-629D01*
X-141Y-639D01*
X-142Y-650D01*
X-141Y-661D01*
X-137Y-671D01*
X-130Y-680D01*
X-121Y-687D01*
X-111Y-691D01*
X-100Y-692D01*
X-89Y-691D01*
X-79Y-687D01*
X-70Y-680D01*
X-63Y-671D01*
X-59Y-661D01*
X-58Y-650D01*
X-59Y-639D01*
X-63Y-629D01*
X-70Y-620D01*
X-79Y-613D01*
X-89Y-609D01*
X-100Y-608D01*
D02*
G37*
G36*
X0D02*
X-11Y-609D01*
X-21Y-613D01*
X-30Y-620D01*
X-37Y-629D01*
X-41Y-639D01*
X-42Y-650D01*
X-41Y-661D01*
X-37Y-671D01*
X-30Y-680D01*
X-21Y-687D01*
X-11Y-691D01*
X0Y-692D01*
X11Y-691D01*
X21Y-687D01*
X30Y-680D01*
X37Y-671D01*
X41Y-661D01*
X42Y-650D01*
X41Y-639D01*
X37Y-629D01*
X30Y-620D01*
X21Y-613D01*
X11Y-609D01*
X0Y-608D01*
D02*
G37*
G36*
X-200D02*
X-211Y-609D01*
X-221Y-613D01*
X-230Y-620D01*
X-237Y-629D01*
X-241Y-639D01*
X-242Y-650D01*
X-241Y-661D01*
X-237Y-671D01*
X-230Y-680D01*
X-221Y-687D01*
X-211Y-691D01*
X-200Y-692D01*
X-189Y-691D01*
X-179Y-687D01*
X-170Y-680D01*
X-163Y-671D01*
X-159Y-661D01*
X-158Y-650D01*
X-159Y-639D01*
X-163Y-629D01*
X-170Y-620D01*
X-179Y-613D01*
X-189Y-609D01*
X-200Y-608D01*
D02*
G37*
G36*
X-1500Y-658D02*
X-1511Y-659D01*
X-1521Y-663D01*
X-1530Y-670D01*
X-1537Y-679D01*
X-1541Y-689D01*
X-1542Y-700D01*
X-1541Y-711D01*
X-1537Y-721D01*
X-1530Y-730D01*
X-1521Y-737D01*
X-1511Y-741D01*
X-1500Y-742D01*
X-1489Y-741D01*
X-1479Y-737D01*
X-1470Y-730D01*
X-1463Y-721D01*
X-1459Y-711D01*
X-1458Y-700D01*
X-1459Y-689D01*
X-1463Y-679D01*
X-1470Y-670D01*
X-1479Y-663D01*
X-1489Y-659D01*
X-1500Y-658D01*
D02*
G37*
G36*
X-1200D02*
X-1211Y-659D01*
X-1221Y-663D01*
X-1230Y-670D01*
X-1237Y-679D01*
X-1241Y-689D01*
X-1242Y-700D01*
X-1241Y-711D01*
X-1237Y-721D01*
X-1230Y-730D01*
X-1221Y-737D01*
X-1211Y-741D01*
X-1200Y-742D01*
X-1189Y-741D01*
X-1179Y-737D01*
X-1170Y-730D01*
X-1163Y-721D01*
X-1159Y-711D01*
X-1158Y-700D01*
X-1159Y-689D01*
X-1163Y-679D01*
X-1170Y-670D01*
X-1179Y-663D01*
X-1189Y-659D01*
X-1200Y-658D01*
D02*
G37*
G36*
X-855Y545D02*
X-889D01*
X-888Y540D01*
X-884Y530D01*
X-878Y522D01*
X-870Y516D01*
X-860Y512D01*
X-855Y511D01*
Y545D01*
D02*
G37*
G36*
X-811D02*
X-845D01*
Y511D01*
X-840Y512D01*
X-830Y516D01*
X-822Y522D01*
X-816Y530D01*
X-812Y540D01*
X-811Y545D01*
D02*
G37*
G36*
X-855Y589D02*
X-860Y588D01*
X-870Y584D01*
X-878Y578D01*
X-884Y570D01*
X-888Y560D01*
X-889Y555D01*
X-855D01*
Y589D01*
D02*
G37*
G36*
X-2274Y559D02*
X-2337D01*
Y496D01*
X-2329Y497D01*
X-2316Y501D01*
X-2304Y507D01*
X-2293Y516D01*
X-2285Y526D01*
X-2278Y538D01*
X-2274Y551D01*
X-2274Y559D01*
D02*
G37*
G36*
X932Y573D02*
X923Y572D01*
X914Y569D01*
X907Y563D01*
X902Y556D01*
X898Y548D01*
X897Y539D01*
X898Y530D01*
X902Y521D01*
X907Y514D01*
X914Y508D01*
X923Y505D01*
X932Y504D01*
X941Y505D01*
X949Y508D01*
X956Y514D01*
X962Y521D01*
X966Y530D01*
X967Y539D01*
X966Y548D01*
X962Y556D01*
X956Y563D01*
X949Y569D01*
X941Y572D01*
X932Y573D01*
D02*
G37*
G36*
X1168D02*
X1159Y572D01*
X1151Y569D01*
X1144Y563D01*
X1138Y556D01*
X1134Y548D01*
X1133Y539D01*
X1134Y530D01*
X1138Y521D01*
X1144Y514D01*
X1151Y508D01*
X1159Y505D01*
X1168Y504D01*
X1177Y505D01*
X1186Y508D01*
X1193Y514D01*
X1198Y521D01*
X1202Y530D01*
X1203Y539D01*
X1202Y548D01*
X1198Y556D01*
X1193Y563D01*
X1186Y569D01*
X1177Y572D01*
X1168Y573D01*
D02*
G37*
G36*
X-2347Y633D02*
X-2355Y632D01*
X-2368Y628D01*
X-2380Y622D01*
X-2391Y613D01*
X-2399Y603D01*
X-2406Y591D01*
X-2410Y578D01*
X-2410Y569D01*
X-2347D01*
Y633D01*
D02*
G37*
G36*
X-2337D02*
Y569D01*
X-2274D01*
X-2274Y578D01*
X-2278Y591D01*
X-2285Y603D01*
X-2293Y613D01*
X-2304Y622D01*
X-2316Y628D01*
X-2329Y632D01*
X-2337Y633D01*
D02*
G37*
G36*
X-250Y689D02*
X-260Y688D01*
X-270Y684D01*
X-278Y678D01*
X-284Y670D01*
X-288Y660D01*
X-289Y650D01*
X-288Y640D01*
X-284Y630D01*
X-278Y622D01*
X-270Y616D01*
X-260Y612D01*
X-250Y611D01*
X-240Y612D01*
X-230Y616D01*
X-222Y622D01*
X-216Y630D01*
X-212Y640D01*
X-211Y650D01*
X-212Y660D01*
X-216Y670D01*
X-222Y678D01*
X-230Y684D01*
X-240Y688D01*
X-250Y689D01*
D02*
G37*
G36*
X-845Y589D02*
Y555D01*
X-811D01*
X-812Y560D01*
X-816Y570D01*
X-822Y578D01*
X-830Y584D01*
X-840Y588D01*
X-845Y589D01*
D02*
G37*
G36*
X-1500Y642D02*
X-1511Y641D01*
X-1521Y637D01*
X-1530Y630D01*
X-1537Y621D01*
X-1541Y611D01*
X-1542Y600D01*
X-1541Y589D01*
X-1537Y579D01*
X-1530Y570D01*
X-1521Y563D01*
X-1511Y559D01*
X-1500Y558D01*
X-1489Y559D01*
X-1479Y563D01*
X-1470Y570D01*
X-1463Y579D01*
X-1459Y589D01*
X-1458Y600D01*
X-1459Y611D01*
X-1463Y621D01*
X-1470Y630D01*
X-1479Y637D01*
X-1489Y641D01*
X-1500Y642D01*
D02*
G37*
G36*
X-1200D02*
X-1211Y641D01*
X-1221Y637D01*
X-1230Y630D01*
X-1237Y621D01*
X-1241Y611D01*
X-1242Y600D01*
X-1241Y589D01*
X-1237Y579D01*
X-1230Y570D01*
X-1221Y563D01*
X-1211Y559D01*
X-1200Y558D01*
X-1189Y559D01*
X-1179Y563D01*
X-1170Y570D01*
X-1163Y579D01*
X-1159Y589D01*
X-1158Y600D01*
X-1159Y611D01*
X-1163Y621D01*
X-1170Y630D01*
X-1179Y637D01*
X-1189Y641D01*
X-1200Y642D01*
D02*
G37*
G36*
X695Y492D02*
X689Y491D01*
X679Y487D01*
X670Y480D01*
X663Y471D01*
X659Y461D01*
X658Y455D01*
X695D01*
Y492D01*
D02*
G37*
G36*
X705D02*
Y455D01*
X742D01*
X741Y461D01*
X737Y471D01*
X730Y480D01*
X721Y487D01*
X711Y491D01*
X705Y492D01*
D02*
G37*
G36*
X845D02*
X839Y491D01*
X829Y487D01*
X820Y480D01*
X813Y471D01*
X809Y461D01*
X808Y455D01*
X845D01*
Y492D01*
D02*
G37*
G36*
X892Y445D02*
X855D01*
Y408D01*
X861Y409D01*
X871Y413D01*
X880Y420D01*
X887Y429D01*
X891Y439D01*
X892Y445D01*
D02*
G37*
G36*
X1301Y491D02*
X1219D01*
Y409D01*
X1301D01*
Y426D01*
X1306Y427D01*
X1311Y421D01*
X1319Y414D01*
X1329Y410D01*
X1335Y409D01*
Y450D01*
Y491D01*
X1329Y490D01*
X1319Y486D01*
X1311Y479D01*
X1306Y473D01*
X1301Y474D01*
Y491D01*
D02*
G37*
G36*
X-1425Y485D02*
X-1434Y484D01*
X-1442Y480D01*
X-1450Y475D01*
X-1455Y467D01*
X-1459Y459D01*
X-1460Y450D01*
Y424D01*
X-1465Y423D01*
X-1470Y430D01*
X-1479Y437D01*
X-1489Y441D01*
X-1500Y442D01*
X-1511Y441D01*
X-1521Y437D01*
X-1530Y430D01*
X-1537Y421D01*
X-1541Y411D01*
X-1542Y400D01*
X-1541Y389D01*
X-1537Y379D01*
X-1530Y370D01*
X-1521Y363D01*
X-1511Y359D01*
X-1500Y358D01*
X-1489Y359D01*
X-1479Y363D01*
X-1470Y370D01*
X-1465Y377D01*
X-1460Y376D01*
Y235D01*
X-1476D01*
X-1479Y237D01*
X-1489Y241D01*
X-1500Y242D01*
X-1511Y241D01*
X-1521Y237D01*
X-1530Y230D01*
X-1537Y221D01*
X-1541Y211D01*
X-1542Y200D01*
X-1541Y189D01*
X-1537Y179D01*
X-1530Y170D01*
X-1521Y163D01*
X-1511Y159D01*
X-1500Y158D01*
X-1489Y159D01*
X-1479Y163D01*
X-1476Y165D01*
X-1224D01*
X-1221Y163D01*
X-1211Y159D01*
X-1200Y158D01*
X-1189Y159D01*
X-1179Y163D01*
X-1170Y170D01*
X-1163Y179D01*
X-1159Y189D01*
X-1158Y200D01*
X-1159Y211D01*
X-1163Y221D01*
X-1170Y230D01*
X-1179Y237D01*
X-1189Y241D01*
X-1200Y242D01*
X-1211Y241D01*
X-1221Y237D01*
X-1224Y235D01*
X-1390D01*
Y450D01*
X-1391Y459D01*
X-1395Y467D01*
X-1400Y475D01*
X-1408Y480D01*
X-1416Y484D01*
X-1425Y485D01*
D02*
G37*
G36*
X-2090Y633D02*
X-2103Y632D01*
X-2116Y628D01*
X-2128Y622D01*
X-2139Y613D01*
X-2147Y603D01*
X-2154Y591D01*
X-2158Y578D01*
X-2159Y564D01*
X-2158Y551D01*
X-2154Y538D01*
X-2147Y526D01*
X-2139Y516D01*
X-2128Y507D01*
X-2116Y501D01*
X-2103Y497D01*
X-2090Y495D01*
X-2077Y497D01*
X-2064Y501D01*
X-2052Y507D01*
X-2041Y516D01*
X-2033Y526D01*
X-2026Y538D01*
X-2022Y551D01*
X-2021Y564D01*
X-2022Y578D01*
X-2026Y591D01*
X-2033Y603D01*
X-2041Y613D01*
X-2052Y622D01*
X-2064Y628D01*
X-2077Y632D01*
X-2090Y633D01*
D02*
G37*
G36*
X-1838D02*
X-1851Y632D01*
X-1864Y628D01*
X-1876Y622D01*
X-1887Y613D01*
X-1895Y603D01*
X-1902Y591D01*
X-1906Y578D01*
X-1907Y564D01*
X-1906Y551D01*
X-1902Y538D01*
X-1895Y526D01*
X-1887Y516D01*
X-1876Y507D01*
X-1864Y501D01*
X-1851Y497D01*
X-1838Y495D01*
X-1825Y497D01*
X-1812Y501D01*
X-1800Y507D01*
X-1789Y516D01*
X-1781Y526D01*
X-1774Y538D01*
X-1770Y551D01*
X-1769Y564D01*
X-1770Y578D01*
X-1774Y591D01*
X-1781Y603D01*
X-1789Y613D01*
X-1800Y622D01*
X-1812Y628D01*
X-1825Y632D01*
X-1838Y633D01*
D02*
G37*
G36*
X-2347Y559D02*
X-2410D01*
X-2410Y551D01*
X-2406Y538D01*
X-2399Y526D01*
X-2391Y516D01*
X-2380Y507D01*
X-2368Y501D01*
X-2355Y497D01*
X-2347Y496D01*
Y559D01*
D02*
G37*
G36*
X855Y492D02*
Y455D01*
X892D01*
X891Y461D01*
X887Y471D01*
X880Y480D01*
X871Y487D01*
X861Y491D01*
X855Y492D01*
D02*
G37*
G36*
X-1500Y542D02*
X-1511Y541D01*
X-1521Y537D01*
X-1530Y530D01*
X-1537Y521D01*
X-1541Y511D01*
X-1542Y500D01*
X-1541Y489D01*
X-1537Y479D01*
X-1530Y470D01*
X-1521Y463D01*
X-1511Y459D01*
X-1500Y458D01*
X-1489Y459D01*
X-1479Y463D01*
X-1470Y470D01*
X-1463Y479D01*
X-1459Y489D01*
X-1458Y500D01*
X-1459Y511D01*
X-1463Y521D01*
X-1470Y530D01*
X-1479Y537D01*
X-1489Y541D01*
X-1500Y542D01*
D02*
G37*
G36*
X-1200D02*
X-1211Y541D01*
X-1221Y537D01*
X-1230Y530D01*
X-1237Y521D01*
X-1241Y511D01*
X-1242Y500D01*
X-1241Y489D01*
X-1237Y479D01*
X-1230Y470D01*
X-1221Y463D01*
X-1211Y459D01*
X-1200Y458D01*
X-1189Y459D01*
X-1179Y463D01*
X-1170Y470D01*
X-1163Y479D01*
X-1159Y489D01*
X-1158Y500D01*
X-1159Y511D01*
X-1163Y521D01*
X-1170Y530D01*
X-1179Y537D01*
X-1189Y541D01*
X-1200Y542D01*
D02*
G37*
G36*
X200Y834D02*
X185Y832D01*
X170Y826D01*
X158Y817D01*
X149Y805D01*
X143Y790D01*
X141Y775D01*
X143Y760D01*
X149Y745D01*
X158Y733D01*
X170Y724D01*
X185Y718D01*
X200Y716D01*
X215Y718D01*
X230Y724D01*
X242Y733D01*
X251Y745D01*
X257Y760D01*
X259Y775D01*
X257Y790D01*
X251Y805D01*
X242Y817D01*
X230Y826D01*
X215Y832D01*
X200Y834D01*
D02*
G37*
G36*
X59Y834D02*
X-59D01*
Y716D01*
X59D01*
Y834D01*
D02*
G37*
G36*
X-2105Y792D02*
X-2111Y791D01*
X-2121Y787D01*
X-2130Y780D01*
X-2137Y771D01*
X-2141Y761D01*
X-2142Y755D01*
X-2105D01*
Y792D01*
D02*
G37*
G36*
X-1705Y745D02*
X-1742D01*
X-1741Y739D01*
X-1737Y729D01*
X-1730Y720D01*
X-1721Y713D01*
X-1711Y709D01*
X-1705Y708D01*
Y745D01*
D02*
G37*
G36*
X-1658D02*
X-1695D01*
Y708D01*
X-1689Y709D01*
X-1679Y713D01*
X-1670Y720D01*
X-1663Y729D01*
X-1659Y739D01*
X-1658Y745D01*
D02*
G37*
G36*
X-811Y789D02*
X-889D01*
Y711D01*
X-811D01*
Y789D01*
D02*
G37*
G36*
X-550Y889D02*
X-560Y888D01*
X-570Y884D01*
X-578Y878D01*
X-584Y870D01*
X-588Y860D01*
X-589Y850D01*
X-588Y840D01*
X-584Y830D01*
X-578Y822D01*
X-570Y816D01*
X-560Y812D01*
X-550Y811D01*
X-540Y812D01*
X-530Y816D01*
X-522Y822D01*
X-516Y830D01*
X-512Y840D01*
X-511Y850D01*
X-512Y860D01*
X-516Y870D01*
X-522Y878D01*
X-530Y884D01*
X-540Y888D01*
X-550Y889D01*
D02*
G37*
G36*
X-250D02*
X-260Y888D01*
X-270Y884D01*
X-278Y878D01*
X-284Y870D01*
X-288Y860D01*
X-289Y850D01*
X-288Y840D01*
X-284Y830D01*
X-278Y822D01*
X-270Y816D01*
X-260Y812D01*
X-250Y811D01*
X-240Y812D01*
X-230Y816D01*
X-222Y822D01*
X-216Y830D01*
X-212Y840D01*
X-211Y850D01*
X-212Y860D01*
X-216Y870D01*
X-222Y878D01*
X-230Y884D01*
X-240Y888D01*
X-250Y889D01*
D02*
G37*
G36*
X-1200Y842D02*
X-1211Y841D01*
X-1221Y837D01*
X-1224Y835D01*
X-1476D01*
X-1479Y837D01*
X-1489Y841D01*
X-1500Y842D01*
X-1511Y841D01*
X-1521Y837D01*
X-1530Y830D01*
X-1537Y821D01*
X-1541Y811D01*
X-1542Y800D01*
X-1541Y789D01*
X-1537Y779D01*
X-1530Y770D01*
X-1521Y763D01*
X-1511Y759D01*
X-1500Y758D01*
X-1489Y759D01*
X-1479Y763D01*
X-1476Y765D01*
X-1224D01*
X-1221Y763D01*
X-1211Y759D01*
X-1200Y758D01*
X-1189Y759D01*
X-1179Y763D01*
X-1170Y770D01*
X-1163Y779D01*
X-1159Y789D01*
X-1158Y800D01*
X-1159Y811D01*
X-1163Y821D01*
X-1170Y830D01*
X-1179Y837D01*
X-1189Y841D01*
X-1200Y842D01*
D02*
G37*
G36*
X-2095Y792D02*
Y755D01*
X-2058D01*
X-2059Y761D01*
X-2063Y771D01*
X-2070Y780D01*
X-2079Y787D01*
X-2089Y791D01*
X-2095Y792D01*
D02*
G37*
G36*
X-1705D02*
X-1711Y791D01*
X-1721Y787D01*
X-1730Y780D01*
X-1737Y771D01*
X-1741Y761D01*
X-1742Y755D01*
X-1705D01*
Y792D01*
D02*
G37*
G36*
X-1695D02*
Y755D01*
X-1658D01*
X-1659Y761D01*
X-1663Y771D01*
X-1670Y780D01*
X-1679Y787D01*
X-1689Y791D01*
X-1695Y792D01*
D02*
G37*
G36*
X-545Y689D02*
Y655D01*
X-511D01*
X-512Y660D01*
X-516Y670D01*
X-522Y678D01*
X-530Y684D01*
X-540Y688D01*
X-545Y689D01*
D02*
G37*
G36*
X-1500Y742D02*
X-1511Y741D01*
X-1521Y737D01*
X-1524Y735D01*
X-1550D01*
X-1559Y734D01*
X-1567Y730D01*
X-1575Y725D01*
X-1625Y675D01*
X-1630Y667D01*
X-1634Y659D01*
X-1635Y650D01*
Y50D01*
X-1635Y50D01*
X-1635D01*
X-1634Y41D01*
X-1630Y33D01*
X-1625Y25D01*
X-1575Y-25D01*
X-1567Y-30D01*
X-1559Y-34D01*
X-1550Y-35D01*
X-1524D01*
X-1521Y-37D01*
X-1511Y-41D01*
X-1500Y-42D01*
X-1489Y-41D01*
X-1479Y-37D01*
X-1470Y-30D01*
X-1463Y-21D01*
X-1459Y-11D01*
X-1458Y0D01*
X-1459Y11D01*
X-1463Y21D01*
X-1470Y30D01*
X-1479Y37D01*
X-1489Y41D01*
X-1500Y42D01*
X-1511Y41D01*
X-1521Y37D01*
X-1524Y35D01*
X-1536D01*
X-1565Y64D01*
Y636D01*
X-1536Y665D01*
X-1524D01*
X-1521Y663D01*
X-1511Y659D01*
X-1500Y658D01*
X-1489Y659D01*
X-1479Y663D01*
X-1470Y670D01*
X-1463Y679D01*
X-1459Y689D01*
X-1458Y700D01*
X-1459Y711D01*
X-1463Y721D01*
X-1470Y730D01*
X-1479Y737D01*
X-1489Y741D01*
X-1500Y742D01*
D02*
G37*
G36*
X-2361Y924D02*
X-2380Y923D01*
X-2398Y918D01*
X-2415Y911D01*
X-2430Y902D01*
X-2445Y890D01*
X-2457Y876D01*
X-2466Y860D01*
X-2473Y843D01*
X-2478Y825D01*
X-2479Y806D01*
X-2478Y788D01*
X-2473Y770D01*
X-2466Y752D01*
X-2457Y737D01*
X-2445Y723D01*
X-2430Y711D01*
X-2415Y701D01*
X-2398Y694D01*
X-2380Y689D01*
X-2361Y688D01*
X-2343Y689D01*
X-2325Y694D01*
X-2307Y701D01*
X-2292Y711D01*
X-2277Y723D01*
X-2265Y737D01*
X-2256Y752D01*
X-2249Y770D01*
X-2244Y788D01*
X-2243Y806D01*
X-2244Y825D01*
X-2249Y843D01*
X-2256Y860D01*
X-2265Y876D01*
X-2277Y890D01*
X-2292Y902D01*
X-2307Y911D01*
X-2325Y918D01*
X-2343Y923D01*
X-2361Y924D01*
D02*
G37*
G36*
X-555Y645D02*
X-589D01*
X-588Y640D01*
X-584Y630D01*
X-578Y622D01*
X-570Y616D01*
X-560Y612D01*
X-555Y611D01*
Y645D01*
D02*
G37*
G36*
X-511D02*
X-545D01*
Y611D01*
X-540Y612D01*
X-530Y616D01*
X-522Y622D01*
X-516Y630D01*
X-512Y640D01*
X-511Y645D01*
D02*
G37*
G36*
X-555Y689D02*
X-560Y688D01*
X-570Y684D01*
X-578Y678D01*
X-584Y670D01*
X-588Y660D01*
X-589Y655D01*
X-555D01*
Y689D01*
D02*
G37*
G36*
X-1779Y792D02*
X-1821D01*
X-1842Y771D01*
Y729D01*
X-1821Y708D01*
X-1779D01*
X-1758Y729D01*
Y771D01*
X-1779Y792D01*
D02*
G37*
G36*
X-2105Y745D02*
X-2142D01*
X-2141Y739D01*
X-2137Y729D01*
X-2130Y720D01*
X-2121Y713D01*
X-2111Y709D01*
X-2105Y708D01*
Y745D01*
D02*
G37*
G36*
X-2058D02*
X-2095D01*
Y708D01*
X-2089Y709D01*
X-2079Y713D01*
X-2070Y720D01*
X-2063Y729D01*
X-2059Y739D01*
X-2058Y745D01*
D02*
G37*
G36*
X536Y924D02*
X518Y923D01*
X500Y918D01*
X482Y911D01*
X467Y902D01*
X452Y890D01*
X440Y876D01*
X431Y860D01*
X424Y843D01*
X419Y825D01*
X418Y806D01*
X419Y788D01*
X424Y770D01*
X431Y752D01*
X440Y737D01*
X452Y723D01*
X467Y711D01*
X482Y701D01*
X500Y694D01*
X518Y689D01*
X536Y688D01*
X555Y689D01*
X573Y694D01*
X590Y701D01*
X605Y711D01*
X620Y723D01*
X632Y737D01*
X641Y752D01*
X648Y770D01*
X653Y788D01*
X654Y806D01*
X653Y825D01*
X648Y843D01*
X641Y860D01*
X632Y876D01*
X620Y890D01*
X605Y902D01*
X590Y911D01*
X573Y918D01*
X555Y923D01*
X536Y924D01*
D02*
G37*
G36*
X1100D02*
X1082Y923D01*
X1063Y918D01*
X1046Y911D01*
X1031Y902D01*
X1016Y890D01*
X1004Y876D01*
X995Y860D01*
X988Y843D01*
X983Y825D01*
X982Y806D01*
X983Y788D01*
X988Y770D01*
X995Y752D01*
X1004Y737D01*
X1016Y723D01*
X1031Y711D01*
X1046Y701D01*
X1063Y694D01*
X1082Y689D01*
X1100Y688D01*
X1118Y689D01*
X1137Y694D01*
X1154Y701D01*
X1169Y711D01*
X1184Y723D01*
X1196Y737D01*
X1205Y752D01*
X1212Y770D01*
X1217Y788D01*
X1218Y806D01*
X1217Y825D01*
X1212Y843D01*
X1205Y860D01*
X1196Y876D01*
X1184Y890D01*
X1169Y902D01*
X1154Y911D01*
X1137Y918D01*
X1118Y923D01*
X1100Y924D01*
D02*
G37*
G36*
X-1979Y792D02*
X-2021D01*
X-2042Y771D01*
Y729D01*
X-2021Y708D01*
X-1979D01*
X-1958Y729D01*
Y771D01*
X-1979Y792D01*
D02*
G37*
G36*
X845Y445D02*
X808D01*
X809Y439D01*
X813Y429D01*
X820Y420D01*
X829Y413D01*
X839Y409D01*
X845Y408D01*
Y445D01*
D02*
G37*
G36*
X-1500Y142D02*
X-1511Y141D01*
X-1521Y137D01*
X-1530Y130D01*
X-1537Y121D01*
X-1541Y111D01*
X-1542Y100D01*
X-1541Y89D01*
X-1537Y79D01*
X-1530Y70D01*
X-1521Y63D01*
X-1511Y59D01*
X-1500Y58D01*
X-1489Y59D01*
X-1479Y63D01*
X-1470Y70D01*
X-1463Y79D01*
X-1459Y89D01*
X-1458Y100D01*
X-1459Y111D01*
X-1463Y121D01*
X-1470Y130D01*
X-1479Y137D01*
X-1489Y141D01*
X-1500Y142D01*
D02*
G37*
G36*
X-1200D02*
X-1211Y141D01*
X-1221Y137D01*
X-1230Y130D01*
X-1237Y121D01*
X-1241Y111D01*
X-1242Y100D01*
X-1241Y89D01*
X-1237Y79D01*
X-1230Y70D01*
X-1221Y63D01*
X-1211Y59D01*
X-1200Y58D01*
X-1189Y59D01*
X-1179Y63D01*
X-1170Y70D01*
X-1163Y79D01*
X-1159Y89D01*
X-1158Y100D01*
X-1159Y111D01*
X-1163Y121D01*
X-1170Y130D01*
X-1179Y137D01*
X-1189Y141D01*
X-1200Y142D01*
D02*
G37*
G36*
X927Y96D02*
X923Y95D01*
X914Y92D01*
X907Y86D01*
X902Y79D01*
X898Y70D01*
X898Y66D01*
X927D01*
Y96D01*
D02*
G37*
G36*
X1163Y56D02*
X1134D01*
X1134Y52D01*
X1138Y44D01*
X1144Y37D01*
X1151Y31D01*
X1159Y28D01*
X1163Y27D01*
Y56D01*
D02*
G37*
G36*
X1202D02*
X1173D01*
Y27D01*
X1177Y28D01*
X1186Y31D01*
X1193Y37D01*
X1198Y44D01*
X1202Y52D01*
X1202Y56D01*
D02*
G37*
G36*
X1070Y172D02*
X1063Y172D01*
X1056Y169D01*
X1051Y164D01*
X1046Y159D01*
X1045Y155D01*
X990Y100D01*
X986Y99D01*
X981Y94D01*
X976Y89D01*
X973Y82D01*
X973Y75D01*
X973Y68D01*
X976Y61D01*
X981Y56D01*
X986Y51D01*
X993Y48D01*
X1000Y48D01*
X1007Y48D01*
X1014Y51D01*
X1019Y56D01*
X1024Y61D01*
X1025Y65D01*
X1080Y120D01*
X1084Y121D01*
X1089Y126D01*
X1094Y131D01*
X1097Y138D01*
X1097Y145D01*
X1097Y152D01*
X1094Y159D01*
X1089Y164D01*
X1084Y169D01*
X1077Y172D01*
X1070Y172D01*
D02*
G37*
G36*
X-375Y192D02*
X-386Y191D01*
X-396Y187D01*
X-405Y180D01*
X-412Y171D01*
X-416Y161D01*
X-417Y150D01*
X-416Y139D01*
X-412Y129D01*
X-405Y120D01*
X-396Y113D01*
X-386Y109D01*
X-375Y108D01*
X-364Y109D01*
X-354Y113D01*
X-345Y120D01*
X-338Y129D01*
X-334Y139D01*
X-333Y150D01*
X-334Y161D01*
X-338Y171D01*
X-345Y180D01*
X-354Y187D01*
X-364Y191D01*
X-375Y192D01*
D02*
G37*
G36*
X700D02*
X689Y191D01*
X679Y187D01*
X670Y180D01*
X663Y171D01*
X659Y161D01*
X658Y150D01*
X659Y139D01*
X663Y129D01*
X670Y120D01*
X679Y113D01*
X689Y109D01*
X700Y108D01*
X711Y109D01*
X721Y113D01*
X730Y120D01*
X737Y129D01*
X741Y139D01*
X742Y150D01*
X741Y161D01*
X737Y171D01*
X730Y180D01*
X721Y187D01*
X711Y191D01*
X700Y192D01*
D02*
G37*
G36*
X850D02*
X839Y191D01*
X829Y187D01*
X820Y180D01*
X813Y171D01*
X809Y161D01*
X808Y150D01*
X809Y139D01*
X813Y129D01*
X820Y120D01*
X829Y113D01*
X839Y109D01*
X850Y108D01*
X861Y109D01*
X871Y113D01*
X880Y120D01*
X887Y129D01*
X891Y139D01*
X892Y150D01*
X891Y161D01*
X887Y171D01*
X880Y180D01*
X871Y187D01*
X861Y191D01*
X850Y192D01*
D02*
G37*
G36*
X937Y96D02*
Y66D01*
X966D01*
X966Y70D01*
X962Y79D01*
X956Y86D01*
X949Y92D01*
X941Y95D01*
X937Y96D01*
D02*
G37*
G36*
X1163D02*
X1159Y95D01*
X1151Y92D01*
X1144Y86D01*
X1138Y79D01*
X1134Y70D01*
X1134Y66D01*
X1163D01*
Y96D01*
D02*
G37*
G36*
X1173D02*
Y66D01*
X1202D01*
X1202Y70D01*
X1198Y79D01*
X1193Y86D01*
X1186Y92D01*
X1177Y95D01*
X1173Y96D01*
D02*
G37*
G36*
X-380Y-8D02*
X-386Y-9D01*
X-396Y-13D01*
X-405Y-20D01*
X-412Y-29D01*
X-416Y-39D01*
X-417Y-45D01*
X-380D01*
Y-8D01*
D02*
G37*
G36*
X-370D02*
Y-45D01*
X-333D01*
X-334Y-39D01*
X-338Y-29D01*
X-345Y-20D01*
X-354Y-13D01*
X-364Y-9D01*
X-370Y-8D01*
D02*
G37*
G36*
X850Y92D02*
X839Y91D01*
X829Y87D01*
X820Y80D01*
X813Y71D01*
X809Y61D01*
X808Y50D01*
X809Y39D01*
X813Y29D01*
X820Y20D01*
X829Y13D01*
X839Y9D01*
X850Y8D01*
X856Y8D01*
X874Y-9D01*
X871Y-13D01*
X861Y-9D01*
X850Y-8D01*
X839Y-9D01*
X829Y-13D01*
X820Y-20D01*
X813Y-29D01*
X809Y-39D01*
X808Y-50D01*
X809Y-61D01*
X813Y-71D01*
X820Y-80D01*
X829Y-87D01*
X839Y-91D01*
X850Y-92D01*
X861Y-91D01*
X871Y-87D01*
X880Y-80D01*
X887Y-71D01*
X891Y-61D01*
X892Y-50D01*
X891Y-39D01*
X887Y-29D01*
X883Y-24D01*
X886Y-20D01*
X890Y-23D01*
X900Y-25D01*
X917D01*
X918Y-30D01*
X914Y-31D01*
X907Y-37D01*
X902Y-44D01*
X898Y-52D01*
X897Y-61D01*
X898Y-70D01*
X902Y-79D01*
X907Y-86D01*
X914Y-92D01*
X923Y-95D01*
X932Y-96D01*
X941Y-95D01*
X949Y-92D01*
X956Y-86D01*
X962Y-79D01*
X966Y-70D01*
X967Y-61D01*
X966Y-52D01*
X962Y-44D01*
X956Y-37D01*
X949Y-31D01*
X941Y-28D01*
X932Y-27D01*
X934Y-25D01*
X965D01*
X975Y-35D01*
Y-209D01*
X973Y-213D01*
X973Y-220D01*
X973Y-227D01*
X976Y-234D01*
X981Y-239D01*
X986Y-244D01*
X993Y-247D01*
X1000Y-247D01*
X1007Y-247D01*
X1014Y-244D01*
X1019Y-239D01*
X1024Y-234D01*
X1027Y-227D01*
X1027Y-220D01*
X1027Y-213D01*
X1025Y-209D01*
Y-25D01*
X1023Y-17D01*
X1023Y-15D01*
X1018Y-7D01*
X993Y18D01*
X985Y23D01*
X975Y25D01*
X947D01*
X946Y30D01*
X949Y31D01*
X956Y37D01*
X962Y44D01*
X966Y52D01*
X966Y56D01*
X898D01*
X898Y52D01*
X902Y44D01*
X907Y37D01*
X914Y31D01*
X918Y30D01*
X917Y25D01*
X910D01*
X892Y44D01*
X892Y50D01*
X891Y61D01*
X887Y71D01*
X880Y80D01*
X871Y87D01*
X861Y91D01*
X850Y92D01*
D02*
G37*
G36*
X-1838Y55D02*
X-1851Y53D01*
X-1864Y49D01*
X-1876Y43D01*
X-1887Y34D01*
X-1895Y24D01*
X-1902Y12D01*
X-1906Y-1D01*
X-1907Y-14D01*
X-1906Y-28D01*
X-1902Y-41D01*
X-1895Y-53D01*
X-1887Y-63D01*
X-1876Y-72D01*
X-1864Y-78D01*
X-1851Y-82D01*
X-1838Y-83D01*
X-1825Y-82D01*
X-1812Y-78D01*
X-1800Y-72D01*
X-1789Y-63D01*
X-1781Y-53D01*
X-1774Y-41D01*
X-1770Y-28D01*
X-1769Y-14D01*
X-1770Y-1D01*
X-1774Y12D01*
X-1781Y24D01*
X-1789Y34D01*
X-1800Y43D01*
X-1812Y49D01*
X-1825Y53D01*
X-1838Y55D01*
D02*
G37*
G36*
X-2347Y-19D02*
X-2410D01*
X-2410Y-28D01*
X-2406Y-41D01*
X-2399Y-53D01*
X-2391Y-63D01*
X-2380Y-72D01*
X-2368Y-78D01*
X-2355Y-82D01*
X-2347Y-83D01*
Y-19D01*
D02*
G37*
G36*
X-2274D02*
X-2337D01*
Y-83D01*
X-2329Y-82D01*
X-2316Y-78D01*
X-2304Y-72D01*
X-2293Y-63D01*
X-2285Y-53D01*
X-2278Y-41D01*
X-2274Y-28D01*
X-2274Y-19D01*
D02*
G37*
G36*
X-200Y92D02*
X-211Y91D01*
X-221Y87D01*
X-230Y80D01*
X-237Y71D01*
X-241Y61D01*
X-242Y50D01*
X-241Y39D01*
X-237Y29D01*
X-230Y20D01*
X-221Y13D01*
X-211Y9D01*
X-200Y8D01*
X-189Y9D01*
X-179Y13D01*
X-170Y20D01*
X-163Y29D01*
X-159Y39D01*
X-158Y50D01*
X-159Y61D01*
X-163Y71D01*
X-170Y80D01*
X-179Y87D01*
X-189Y91D01*
X-200Y92D01*
D02*
G37*
G36*
X-100D02*
X-111Y91D01*
X-121Y87D01*
X-130Y80D01*
X-137Y71D01*
X-141Y61D01*
X-142Y50D01*
X-141Y39D01*
X-137Y29D01*
X-130Y20D01*
X-121Y13D01*
X-111Y9D01*
X-100Y8D01*
X-89Y9D01*
X-79Y13D01*
X-70Y20D01*
X-63Y29D01*
X-59Y39D01*
X-58Y50D01*
X-59Y61D01*
X-63Y71D01*
X-70Y80D01*
X-79Y87D01*
X-89Y91D01*
X-100Y92D01*
D02*
G37*
G36*
X700D02*
X689Y91D01*
X679Y87D01*
X670Y80D01*
X663Y71D01*
X659Y61D01*
X658Y50D01*
X659Y39D01*
X663Y29D01*
X670Y20D01*
X679Y13D01*
X689Y9D01*
X700Y8D01*
X711Y9D01*
X721Y13D01*
X730Y20D01*
X737Y29D01*
X741Y39D01*
X742Y50D01*
X741Y61D01*
X737Y71D01*
X730Y80D01*
X721Y87D01*
X711Y91D01*
X700Y92D01*
D02*
G37*
G36*
X-2347Y54D02*
X-2355Y53D01*
X-2368Y49D01*
X-2380Y43D01*
X-2391Y34D01*
X-2399Y24D01*
X-2406Y12D01*
X-2410Y-1D01*
X-2410Y-9D01*
X-2347D01*
Y54D01*
D02*
G37*
G36*
X-2337D02*
Y-9D01*
X-2274D01*
X-2274Y-1D01*
X-2278Y12D01*
X-2285Y24D01*
X-2293Y34D01*
X-2304Y43D01*
X-2316Y49D01*
X-2329Y53D01*
X-2337Y54D01*
D02*
G37*
G36*
X-375Y92D02*
X-386Y91D01*
X-396Y87D01*
X-405Y80D01*
X-412Y71D01*
X-416Y61D01*
X-417Y50D01*
X-416Y39D01*
X-412Y29D01*
X-405Y20D01*
X-396Y13D01*
X-386Y9D01*
X-375Y8D01*
X-364Y9D01*
X-354Y13D01*
X-345Y20D01*
X-338Y29D01*
X-334Y39D01*
X-333Y50D01*
X-334Y61D01*
X-338Y71D01*
X-345Y80D01*
X-354Y87D01*
X-364Y91D01*
X-375Y92D01*
D02*
G37*
G36*
X1163Y356D02*
X1134D01*
X1134Y352D01*
X1138Y344D01*
X1144Y337D01*
X1151Y331D01*
X1159Y328D01*
X1163Y327D01*
Y356D01*
D02*
G37*
G36*
X1202D02*
X1173D01*
Y327D01*
X1177Y328D01*
X1186Y331D01*
X1193Y337D01*
X1198Y344D01*
X1202Y352D01*
X1202Y356D01*
D02*
G37*
G36*
X-1200Y442D02*
X-1211Y441D01*
X-1221Y437D01*
X-1230Y430D01*
X-1237Y421D01*
X-1241Y411D01*
X-1242Y400D01*
X-1241Y389D01*
X-1237Y379D01*
X-1230Y370D01*
X-1221Y363D01*
X-1211Y359D01*
X-1200Y358D01*
X-1189Y359D01*
X-1179Y363D01*
X-1170Y370D01*
X-1163Y379D01*
X-1159Y389D01*
X-1158Y400D01*
X-1159Y411D01*
X-1163Y421D01*
X-1170Y430D01*
X-1179Y437D01*
X-1189Y441D01*
X-1200Y442D01*
D02*
G37*
G36*
X-1350Y485D02*
X-1359Y484D01*
X-1367Y480D01*
X-1375Y475D01*
X-1380Y467D01*
X-1384Y459D01*
X-1385Y450D01*
Y350D01*
X-1384Y341D01*
X-1380Y333D01*
X-1375Y325D01*
X-1367Y320D01*
X-1359Y316D01*
X-1350Y315D01*
X-1341Y316D01*
X-1333Y320D01*
X-1325Y325D01*
X-1320Y333D01*
X-1316Y341D01*
X-1315Y350D01*
Y450D01*
X-1316Y459D01*
X-1320Y467D01*
X-1325Y475D01*
X-1333Y480D01*
X-1341Y484D01*
X-1350Y485D01*
D02*
G37*
G36*
X927Y356D02*
X898D01*
X898Y352D01*
X902Y344D01*
X907Y337D01*
X914Y331D01*
X923Y328D01*
X927Y327D01*
Y356D01*
D02*
G37*
G36*
X966D02*
X937D01*
Y327D01*
X941Y328D01*
X949Y331D01*
X956Y337D01*
X962Y344D01*
X966Y352D01*
X966Y356D01*
D02*
G37*
G36*
X1173Y396D02*
Y366D01*
X1202D01*
X1202Y370D01*
X1198Y379D01*
X1193Y386D01*
X1186Y392D01*
X1177Y395D01*
X1173Y396D01*
D02*
G37*
G36*
X695Y445D02*
X658D01*
X659Y439D01*
X663Y429D01*
X670Y420D01*
X679Y413D01*
X689Y409D01*
X695Y408D01*
Y445D01*
D02*
G37*
G36*
X742D02*
X705D01*
Y408D01*
X711Y409D01*
X721Y413D01*
X730Y420D01*
X737Y429D01*
X741Y439D01*
X742Y445D01*
D02*
G37*
G36*
X927Y396D02*
X923Y395D01*
X914Y392D01*
X907Y386D01*
X902Y379D01*
X898Y370D01*
X898Y366D01*
X927D01*
Y396D01*
D02*
G37*
G36*
X937D02*
Y366D01*
X966D01*
X966Y370D01*
X962Y379D01*
X956Y386D01*
X949Y392D01*
X941Y395D01*
X937Y396D01*
D02*
G37*
G36*
X1163D02*
X1159Y395D01*
X1151Y392D01*
X1144Y386D01*
X1138Y379D01*
X1134Y370D01*
X1134Y366D01*
X1163D01*
Y396D01*
D02*
G37*
G36*
X932Y273D02*
X923Y272D01*
X914Y269D01*
X907Y263D01*
X902Y256D01*
X898Y248D01*
X897Y239D01*
X898Y230D01*
X902Y221D01*
X907Y214D01*
X914Y208D01*
X923Y205D01*
X932Y204D01*
X941Y205D01*
X949Y208D01*
X956Y214D01*
X962Y221D01*
X966Y230D01*
X967Y239D01*
X966Y248D01*
X962Y256D01*
X956Y263D01*
X949Y269D01*
X941Y272D01*
X932Y273D01*
D02*
G37*
G36*
X1168D02*
X1159Y272D01*
X1151Y269D01*
X1144Y263D01*
X1138Y256D01*
X1134Y248D01*
X1133Y239D01*
X1134Y230D01*
X1138Y221D01*
X1144Y214D01*
X1151Y208D01*
X1159Y205D01*
X1168Y204D01*
X1177Y205D01*
X1186Y208D01*
X1193Y214D01*
X1198Y221D01*
X1202Y230D01*
X1203Y239D01*
X1202Y248D01*
X1198Y256D01*
X1193Y263D01*
X1186Y269D01*
X1177Y272D01*
X1168Y273D01*
D02*
G37*
G36*
X-1020Y242D02*
Y205D01*
X-983D01*
X-984Y211D01*
X-988Y221D01*
X-995Y230D01*
X-1004Y237D01*
X-1014Y241D01*
X-1020Y242D01*
D02*
G37*
G36*
X1301Y191D02*
X1219D01*
Y109D01*
X1301D01*
Y126D01*
X1306Y127D01*
X1311Y121D01*
X1319Y114D01*
X1329Y110D01*
X1335Y109D01*
Y150D01*
Y191D01*
X1329Y190D01*
X1319Y186D01*
X1311Y179D01*
X1306Y173D01*
X1301Y174D01*
Y191D01*
D02*
G37*
G36*
X-1200Y742D02*
X-1211Y741D01*
X-1221Y737D01*
X-1230Y730D01*
X-1237Y721D01*
X-1241Y711D01*
X-1242Y700D01*
X-1241Y689D01*
X-1237Y679D01*
X-1230Y670D01*
X-1221Y663D01*
X-1211Y659D01*
X-1200Y658D01*
X-1189Y659D01*
X-1179Y663D01*
X-1176Y665D01*
X-1164D01*
X-1135Y636D01*
Y64D01*
X-1164Y35D01*
X-1176D01*
X-1179Y37D01*
X-1189Y41D01*
X-1200Y42D01*
X-1211Y41D01*
X-1221Y37D01*
X-1230Y30D01*
X-1237Y21D01*
X-1241Y11D01*
X-1242Y0D01*
X-1241Y-11D01*
X-1237Y-21D01*
X-1230Y-30D01*
X-1221Y-37D01*
X-1211Y-41D01*
X-1200Y-42D01*
X-1189Y-41D01*
X-1179Y-37D01*
X-1176Y-35D01*
X-1150D01*
X-1141Y-34D01*
X-1133Y-30D01*
X-1125Y-25D01*
X-1075Y25D01*
X-1070Y33D01*
X-1066Y41D01*
X-1065Y50D01*
Y71D01*
X-1061Y73D01*
X-1046Y58D01*
X-1004D01*
X-983Y79D01*
Y121D01*
X-1004Y142D01*
X-1046D01*
X-1061Y127D01*
X-1065Y129D01*
Y176D01*
X-1060Y177D01*
X-1055Y170D01*
X-1046Y163D01*
X-1036Y159D01*
X-1030Y158D01*
Y200D01*
Y242D01*
X-1036Y241D01*
X-1046Y237D01*
X-1055Y230D01*
X-1060Y223D01*
X-1065Y224D01*
Y650D01*
X-1066Y659D01*
X-1070Y667D01*
X-1075Y675D01*
X-1125Y725D01*
X-1133Y730D01*
X-1141Y734D01*
X-1150Y735D01*
X-1176D01*
X-1179Y737D01*
X-1189Y741D01*
X-1200Y742D01*
D02*
G37*
G36*
X-983Y195D02*
X-1020D01*
Y158D01*
X-1014Y159D01*
X-1004Y163D01*
X-995Y170D01*
X-988Y179D01*
X-984Y189D01*
X-983Y195D01*
D02*
G37*
G36*
X355Y282D02*
X348Y282D01*
X341Y279D01*
X336Y274D01*
X331Y269D01*
X328Y262D01*
X328Y255D01*
X328Y248D01*
X331Y241D01*
X336Y236D01*
X336Y236D01*
X336Y231D01*
X297Y191D01*
X292Y193D01*
Y198D01*
X307Y213D01*
X311Y218D01*
X312Y225D01*
D01*
D01*
D01*
D01*
D01*
X312D01*
D01*
D01*
D01*
D01*
Y225D01*
X312D01*
D01*
Y225D01*
D01*
D01*
D01*
D01*
D01*
D01*
D01*
D01*
D01*
D01*
D01*
D01*
Y225D01*
D01*
X312D01*
D01*
D01*
D01*
D01*
X312Y225D01*
Y234D01*
X314Y236D01*
X319Y241D01*
X322Y248D01*
X322Y255D01*
X322Y262D01*
X319Y269D01*
X314Y274D01*
X309Y279D01*
X302Y282D01*
X295Y282D01*
X288Y282D01*
X281Y279D01*
X276Y274D01*
X273Y270D01*
X268D01*
X264Y274D01*
X259Y279D01*
X252Y282D01*
X245Y282D01*
X238Y282D01*
X231Y279D01*
X226Y274D01*
X221Y269D01*
X218Y262D01*
X218Y255D01*
X218Y248D01*
X221Y241D01*
X226Y236D01*
X228Y234D01*
Y-439D01*
X226Y-441D01*
X221Y-446D01*
X218Y-453D01*
X218Y-460D01*
X218Y-467D01*
X221Y-474D01*
X226Y-479D01*
X231Y-484D01*
X238Y-487D01*
X245Y-487D01*
X252Y-487D01*
X259Y-484D01*
X264Y-479D01*
X265Y-479D01*
X270D01*
X271Y-479D01*
X276Y-484D01*
X283Y-487D01*
X290Y-487D01*
X297Y-487D01*
X304Y-484D01*
X309Y-479D01*
X310Y-479D01*
X315D01*
X316Y-479D01*
X321Y-484D01*
X328Y-487D01*
X335Y-487D01*
X342Y-487D01*
X349Y-484D01*
X354Y-479D01*
X359Y-474D01*
X362Y-467D01*
X362Y-460D01*
X362Y-453D01*
X359Y-446D01*
X354Y-441D01*
X352Y-439D01*
Y-425D01*
X351Y-418D01*
X347Y-413D01*
X322Y-388D01*
Y168D01*
X367Y213D01*
X371Y218D01*
X372Y225D01*
D01*
D01*
D01*
D01*
D01*
X372D01*
D01*
D01*
D01*
D01*
Y225D01*
X372D01*
D01*
Y225D01*
D01*
D01*
D01*
D01*
D01*
D01*
D01*
D01*
D01*
D01*
D01*
D01*
Y225D01*
D01*
X372D01*
D01*
D01*
D01*
D01*
X372Y225D01*
Y234D01*
X374Y236D01*
X379Y241D01*
X382Y248D01*
X382Y255D01*
X382Y262D01*
X379Y269D01*
X374Y274D01*
X369Y279D01*
X362Y282D01*
X355Y282D01*
D02*
G37*
G36*
X700Y392D02*
X689Y391D01*
X679Y387D01*
X670Y380D01*
X663Y371D01*
X659Y361D01*
X658Y350D01*
X659Y339D01*
X663Y329D01*
X670Y320D01*
X679Y313D01*
X689Y309D01*
X700Y308D01*
X711Y309D01*
X721Y313D01*
X730Y320D01*
X737Y329D01*
X741Y339D01*
X742Y350D01*
X741Y361D01*
X737Y371D01*
X730Y380D01*
X721Y387D01*
X711Y391D01*
X700Y392D01*
D02*
G37*
G36*
X850D02*
X839Y391D01*
X829Y387D01*
X820Y380D01*
X813Y371D01*
X809Y361D01*
X808Y350D01*
X809Y339D01*
X813Y329D01*
X820Y320D01*
X829Y313D01*
X839Y309D01*
X850Y308D01*
X861Y309D01*
X871Y313D01*
X880Y320D01*
X887Y329D01*
X891Y339D01*
X892Y350D01*
X891Y361D01*
X887Y371D01*
X880Y380D01*
X871Y387D01*
X861Y391D01*
X850Y392D01*
D02*
G37*
G36*
X-375Y292D02*
X-386Y291D01*
X-396Y287D01*
X-405Y280D01*
X-412Y271D01*
X-416Y261D01*
X-417Y250D01*
X-416Y239D01*
X-412Y229D01*
X-405Y220D01*
X-396Y213D01*
X-386Y209D01*
X-375Y208D01*
X-364Y209D01*
X-354Y213D01*
X-345Y220D01*
X-338Y229D01*
X-334Y239D01*
X-333Y250D01*
X-334Y261D01*
X-338Y271D01*
X-345Y280D01*
X-354Y287D01*
X-364Y291D01*
X-375Y292D01*
D02*
G37*
G36*
X700D02*
X689Y291D01*
X679Y287D01*
X670Y280D01*
X663Y271D01*
X659Y261D01*
X658Y250D01*
X659Y239D01*
X663Y229D01*
X670Y220D01*
X679Y213D01*
X689Y209D01*
X700Y208D01*
X711Y209D01*
X721Y213D01*
X730Y220D01*
X737Y229D01*
X741Y239D01*
X742Y250D01*
X741Y261D01*
X737Y271D01*
X730Y280D01*
X721Y287D01*
X711Y291D01*
X700Y292D01*
D02*
G37*
G36*
X850D02*
X839Y291D01*
X829Y287D01*
X820Y280D01*
X813Y271D01*
X809Y261D01*
X808Y250D01*
X809Y239D01*
X813Y229D01*
X820Y220D01*
X829Y213D01*
X839Y209D01*
X850Y208D01*
X861Y209D01*
X871Y213D01*
X880Y220D01*
X887Y229D01*
X891Y239D01*
X892Y250D01*
X891Y261D01*
X887Y271D01*
X880Y280D01*
X871Y287D01*
X861Y291D01*
X850Y292D01*
D02*
G37*
%LPD*%
D15*
X-1350Y350D02*
Y450D01*
X-1100Y50D02*
Y650D01*
X-1200Y0D02*
X-1150D01*
X-1100Y50D01*
X-1600D02*
Y650D01*
X-1200Y700D02*
X-1150D01*
X-1100Y650D01*
X-1550Y700D02*
X-1500D01*
X-1600Y650D02*
X-1550Y700D01*
Y0D02*
X-1500D01*
X-1600Y50D02*
X-1550Y0D01*
X-1200Y-500D02*
X-1150D01*
X-1100Y-450D01*
X-1150Y-100D02*
X-1100Y-150D01*
X-1200Y-100D02*
X-1150D01*
X-1100Y-450D02*
Y-150D01*
X-1600Y-450D02*
Y-150D01*
X-1550Y-100D02*
X-1500D01*
X-1600Y-150D02*
X-1550Y-100D01*
X-1600Y-450D02*
X-1550Y-500D01*
X-1500D01*
Y800D02*
X-1200D01*
X-1425Y200D02*
Y450D01*
X-1500Y200D02*
X-1200D01*
X-1500Y-400D02*
X-1200D01*
X-1350Y-770D02*
Y-250D01*
D16*
X1000Y75D02*
X1070Y145D01*
X850Y50D02*
X900Y0D01*
X975D01*
X1000Y-25D01*
Y-220D02*
Y-25D01*
X-550Y-550D02*
Y-250D01*
X-450Y-150D01*
X-375D01*
D17*
X-1500Y-800D02*
X-1390D01*
X-1360Y-830D02*
X-1295D01*
X-1390Y-800D02*
X-1360Y-830D01*
X-985Y425D02*
X-885Y325D01*
Y240D02*
Y325D01*
D18*
X-375Y-465D02*
Y-250D01*
X245Y-460D02*
Y255D01*
X290Y-460D02*
Y-430D01*
X275Y-415D02*
X290Y-430D01*
X275Y-415D02*
Y205D01*
X295Y225D02*
Y255D01*
X275Y205D02*
X295Y225D01*
X355D02*
Y255D01*
X305Y-395D02*
X335Y-425D01*
Y-460D02*
Y-425D01*
X305Y175D02*
X355Y225D01*
X305Y-395D02*
Y175D01*
D20*
X1168Y-539D02*
D03*
Y-361D02*
D03*
X932D02*
D03*
Y-539D02*
D03*
X1168Y-239D02*
D03*
Y-61D02*
D03*
X932D02*
D03*
Y-239D02*
D03*
X1168Y61D02*
D03*
Y239D02*
D03*
X932D02*
D03*
Y61D02*
D03*
X1168Y361D02*
D03*
Y539D02*
D03*
X932D02*
D03*
Y361D02*
D03*
D21*
X0Y775D02*
D03*
D22*
X200D02*
D03*
D23*
X-550Y650D02*
D03*
X-250Y850D02*
D03*
Y650D02*
D03*
X-550Y850D02*
D03*
X-535Y-790D02*
D03*
X-475Y-730D02*
D03*
D24*
X-850Y750D02*
D03*
X-900Y-625D02*
D03*
D25*
X-850Y550D02*
D03*
X-650Y-550D02*
D03*
X-900Y-475D02*
D03*
D26*
X-200Y50D02*
D03*
X-100D02*
D03*
X125Y-100D02*
D03*
X-375Y250D02*
D03*
Y150D02*
D03*
Y50D02*
D03*
Y-150D02*
D03*
Y-50D02*
D03*
X-1025Y200D02*
D03*
Y-200D02*
D03*
X-200Y-650D02*
D03*
X-100Y-750D02*
D03*
Y-650D02*
D03*
X0Y-750D02*
D03*
Y-650D02*
D03*
X100Y-750D02*
D03*
Y-650D02*
D03*
X200Y-750D02*
D03*
Y-650D02*
D03*
X-1500Y800D02*
D03*
Y700D02*
D03*
Y600D02*
D03*
Y500D02*
D03*
Y400D02*
D03*
X-1200D02*
D03*
Y500D02*
D03*
Y600D02*
D03*
Y700D02*
D03*
Y800D02*
D03*
X-1500Y200D02*
D03*
Y100D02*
D03*
X-1200D02*
D03*
Y200D02*
D03*
X-1500Y-200D02*
D03*
X-1200D02*
D03*
X-1500Y0D02*
D03*
X-1200D02*
D03*
X-1500Y-100D02*
D03*
X-1200D02*
D03*
Y-600D02*
D03*
Y-700D02*
D03*
X-1500D02*
D03*
Y-600D02*
D03*
Y-400D02*
D03*
X-1200D02*
D03*
X-1500Y-800D02*
D03*
X-1200D02*
D03*
X-1500Y-500D02*
D03*
X-1200D02*
D03*
X-1700Y-750D02*
D03*
X-2100D02*
D03*
X-1700Y750D02*
D03*
X-2100D02*
D03*
X700Y-250D02*
D03*
Y-350D02*
D03*
Y-150D02*
D03*
Y-50D02*
D03*
Y50D02*
D03*
Y450D02*
D03*
Y350D02*
D03*
Y250D02*
D03*
Y150D02*
D03*
X850Y-250D02*
D03*
Y-350D02*
D03*
Y-150D02*
D03*
Y-50D02*
D03*
Y50D02*
D03*
Y450D02*
D03*
Y350D02*
D03*
Y250D02*
D03*
Y150D02*
D03*
D27*
X-375Y-250D02*
D03*
X700Y-450D02*
D03*
X850D02*
D03*
D28*
X-1025Y100D02*
D03*
Y-100D02*
D03*
D29*
X-200Y-750D02*
D03*
D30*
X-550Y-550D02*
D03*
D31*
X-475Y-850D02*
D03*
D32*
X-800Y-800D02*
D03*
X-700D02*
D03*
X-900D02*
D03*
D33*
X-1800Y-750D02*
D03*
X-2000D02*
D03*
X-1800Y750D02*
D03*
X-2000D02*
D03*
D34*
X-2090Y564D02*
D03*
Y-14D02*
D03*
X-1838Y564D02*
D03*
Y-14D02*
D03*
X-2342D02*
D03*
Y564D02*
D03*
D35*
X1340Y-450D02*
D03*
Y-150D02*
D03*
Y150D02*
D03*
Y450D02*
D03*
D36*
X1260Y-150D02*
D03*
Y150D02*
D03*
Y450D02*
D03*
Y-450D02*
D03*
D37*
X536Y-808D02*
D03*
Y806D02*
D03*
X-2361Y-808D02*
D03*
Y806D02*
D03*
X1100D02*
D03*
Y-808D02*
D03*
D38*
X775Y870D02*
D03*
Y835D02*
D03*
Y730D02*
D03*
Y765D02*
D03*
Y800D02*
D03*
Y625D02*
D03*
Y660D02*
D03*
Y695D02*
D03*
Y520D02*
D03*
Y555D02*
D03*
Y590D02*
D03*
Y485D02*
D03*
Y-485D02*
D03*
Y385D02*
D03*
Y415D02*
D03*
Y285D02*
D03*
Y315D02*
D03*
Y185D02*
D03*
Y215D02*
D03*
Y85D02*
D03*
Y115D02*
D03*
Y-15D02*
D03*
Y15D02*
D03*
Y-115D02*
D03*
Y-85D02*
D03*
Y-215D02*
D03*
Y-185D02*
D03*
Y-315D02*
D03*
Y-285D02*
D03*
Y-385D02*
D03*
Y-415D02*
D03*
Y-590D02*
D03*
Y-555D02*
D03*
Y-520D02*
D03*
Y-695D02*
D03*
Y-660D02*
D03*
Y-625D02*
D03*
Y-800D02*
D03*
Y-765D02*
D03*
Y-730D02*
D03*
Y-835D02*
D03*
Y-870D02*
D03*
D39*
X-1350Y350D02*
D03*
Y450D02*
D03*
X50Y465D02*
D03*
X-100D02*
D03*
X-250D02*
D03*
X355Y255D02*
D03*
X295D02*
D03*
X245D02*
D03*
X290Y310D02*
D03*
X-375Y-465D02*
D03*
X75Y-255D02*
D03*
Y-390D02*
D03*
X335Y-460D02*
D03*
X245D02*
D03*
X290D02*
D03*
X-2429Y-670D02*
D03*
Y-219D02*
D03*
X1000Y75D02*
D03*
X1070Y145D02*
D03*
X1000Y-220D02*
D03*
X-550Y200D02*
D03*
X-1425Y450D02*
D03*
X-1350Y-250D02*
D03*
X-1295Y-830D02*
D03*
X-1350Y-770D02*
D03*
X-885Y240D02*
D03*
X-985Y425D02*
D03*
X-2429Y-450D02*
D03*
M02*
