%FSLAX23Y23*%
%MOIN*%
G70*
G01*
G75*
G04 Layer_Physical_Order=2*
G04 Layer_Color=16711680*
%ADD10R,0.079X0.114*%
%ADD11R,0.025X0.075*%
%ADD12R,0.050X0.054*%
%ADD13R,0.054X0.050*%
%ADD14R,0.070X0.025*%
%ADD15C,0.020*%
%ADD16C,0.015*%
%ADD17C,0.025*%
%ADD18C,0.050*%
%ADD19C,0.030*%
%ADD20C,0.058*%
%ADD21C,0.058*%
%ADD22R,0.050X0.050*%
%ADD23C,0.065*%
%ADD24C,0.063*%
%ADD25P,0.068X8X112.5*%
%ADD26R,0.063X0.063*%
%ADD27R,0.063X0.063*%
%ADD28C,0.217*%
%ADD29C,0.217*%
%ADD30R,0.065X0.065*%
%ADD31C,0.118*%
%ADD32C,0.080*%
%ADD33R,0.059X0.059*%
%ADD34C,0.059*%
%ADD35R,0.059X0.059*%
%ADD36R,0.065X0.065*%
%ADD37C,0.059*%
%ADD38C,0.098*%
%ADD39R,0.098X0.098*%
%ADD40C,0.040*%
%ADD41C,0.035*%
%ADD42C,0.020*%
G36*
X-1000Y448D02*
X-1004Y444D01*
X-1009Y439D01*
X-1012Y432D01*
X-1012Y425D01*
X-1012Y418D01*
X-1009Y411D01*
X-1004Y406D01*
X-1000Y402D01*
Y400D01*
X-925Y325D01*
Y-25D01*
Y-325D01*
X-1000Y-400D01*
Y-935D01*
X-2485D01*
Y-809D01*
X-2480Y-809D01*
X-2480Y-809D01*
X-2479Y-826D01*
X-2475Y-844D01*
X-2467Y-861D01*
X-2458Y-877D01*
X-2446Y-891D01*
X-2432Y-903D01*
X-2416Y-912D01*
X-2399Y-919D01*
X-2381Y-924D01*
X-2362Y-925D01*
X-2344Y-924D01*
X-2326Y-919D01*
X-2309Y-912D01*
X-2293Y-903D01*
X-2279Y-891D01*
X-2267Y-877D01*
X-2257Y-861D01*
X-2250Y-844D01*
X-2246Y-826D01*
X-2244Y-807D01*
X-2246Y-789D01*
X-2250Y-771D01*
X-2257Y-753D01*
X-2267Y-738D01*
X-2279Y-724D01*
X-2293Y-712D01*
X-2309Y-702D01*
X-2326Y-695D01*
X-2344Y-690D01*
X-2362Y-689D01*
X-2381Y-690D01*
X-2399Y-695D01*
X-2416Y-702D01*
X-2432Y-712D01*
X-2446Y-724D01*
X-2458Y-738D01*
X-2467Y-753D01*
X-2475Y-771D01*
X-2479Y-789D01*
X-2480Y-806D01*
X-2485Y-805D01*
X-2485Y-805D01*
Y805D01*
X-2480Y806D01*
X-2480Y806D01*
X-2479Y789D01*
X-2475Y771D01*
X-2467Y753D01*
X-2458Y738D01*
X-2446Y724D01*
X-2432Y712D01*
X-2416Y702D01*
X-2399Y695D01*
X-2381Y690D01*
X-2362Y689D01*
X-2344Y690D01*
X-2326Y695D01*
X-2309Y702D01*
X-2293Y712D01*
X-2279Y724D01*
X-2267Y738D01*
X-2257Y753D01*
X-2250Y771D01*
X-2246Y789D01*
X-2244Y807D01*
X-2246Y826D01*
X-2250Y844D01*
X-2257Y861D01*
X-2267Y877D01*
X-2279Y891D01*
X-2293Y903D01*
X-2309Y912D01*
X-2326Y919D01*
X-2344Y924D01*
X-2362Y925D01*
X-2381Y924D01*
X-2399Y919D01*
X-2416Y912D01*
X-2432Y903D01*
X-2446Y891D01*
X-2458Y877D01*
X-2467Y861D01*
X-2475Y844D01*
X-2479Y826D01*
X-2480Y809D01*
X-2485Y809D01*
X-2485Y809D01*
Y935D01*
X-1000D01*
Y448D01*
D02*
G37*
G36*
X1385Y-935D02*
X800D01*
Y935D01*
X1385D01*
Y-935D01*
D02*
G37*
G36*
X750D02*
X-975D01*
Y-425D01*
X-925Y-375D01*
X-800Y-250D01*
Y-75D01*
Y250D01*
X-863Y313D01*
Y325D01*
X-863D01*
Y325D01*
Y325D01*
Y325D01*
X-863D01*
X-863Y325D01*
X-864Y334D01*
X-869Y341D01*
X-958Y430D01*
X-958Y432D01*
X-961Y439D01*
X-966Y444D01*
X-971Y449D01*
X-975Y450D01*
Y935D01*
X750D01*
Y-935D01*
D02*
G37*
%LPC*%
G36*
X1178Y-320D02*
X1167Y-321D01*
X1157Y-326D01*
X1149Y-332D01*
X1142Y-341D01*
X1138Y-351D01*
X1137Y-361D01*
X1138Y-372D01*
X1142Y-382D01*
X1149Y-391D01*
X1157Y-397D01*
X1167Y-401D01*
X1178Y-403D01*
X1189Y-401D01*
X1199Y-397D01*
X1207Y-391D01*
X1214Y-382D01*
X1218Y-372D01*
X1219Y-361D01*
X1218Y-351D01*
X1214Y-341D01*
X1207Y-332D01*
X1199Y-326D01*
X1189Y-321D01*
X1178Y-320D01*
D02*
G37*
G36*
X700Y-308D02*
X689Y-309D01*
X679Y-313D01*
X670Y-320D01*
X663Y-329D01*
X659Y-339D01*
X658Y-350D01*
X659Y-361D01*
X663Y-371D01*
X670Y-380D01*
X679Y-387D01*
X689Y-391D01*
X700Y-392D01*
X711Y-391D01*
X721Y-387D01*
X730Y-380D01*
X737Y-371D01*
X741Y-361D01*
X742Y-350D01*
X741Y-339D01*
X737Y-329D01*
X730Y-320D01*
X721Y-313D01*
X711Y-309D01*
X700Y-308D01*
D02*
G37*
G36*
X1330Y-369D02*
Y-405D01*
X1366D01*
X1365Y-399D01*
X1361Y-389D01*
X1354Y-381D01*
X1346Y-374D01*
X1336Y-370D01*
X1330Y-369D01*
D02*
G37*
G36*
X-895Y-436D02*
Y-470D01*
X-861D01*
X-862Y-465D01*
X-866Y-455D01*
X-872Y-447D01*
X-880Y-441D01*
X-890Y-437D01*
X-895Y-436D01*
D02*
G37*
G36*
X1320Y-369D02*
X1314Y-370D01*
X1304Y-374D01*
X1296Y-381D01*
X1289Y-389D01*
X1285Y-399D01*
X1284Y-405D01*
X1320D01*
Y-369D01*
D02*
G37*
G36*
X850Y-208D02*
X839Y-209D01*
X829Y-213D01*
X820Y-220D01*
X813Y-229D01*
X809Y-239D01*
X808Y-250D01*
X809Y-261D01*
X813Y-271D01*
X820Y-280D01*
X829Y-287D01*
X839Y-291D01*
X850Y-292D01*
X861Y-291D01*
X871Y-287D01*
X880Y-280D01*
X887Y-271D01*
X891Y-261D01*
X892Y-250D01*
X891Y-239D01*
X887Y-229D01*
X880Y-220D01*
X871Y-213D01*
X861Y-209D01*
X850Y-208D01*
D02*
G37*
G36*
X937Y-244D02*
X901D01*
X902Y-249D01*
X906Y-259D01*
X913Y-268D01*
X921Y-274D01*
X931Y-279D01*
X937Y-279D01*
Y-244D01*
D02*
G37*
G36*
X983D02*
X947D01*
Y-279D01*
X953Y-279D01*
X963Y-274D01*
X971Y-268D01*
X978Y-259D01*
X982Y-249D01*
X983Y-244D01*
D02*
G37*
G36*
X850Y-308D02*
X839Y-309D01*
X829Y-313D01*
X820Y-320D01*
X813Y-329D01*
X809Y-339D01*
X808Y-350D01*
X809Y-361D01*
X813Y-371D01*
X820Y-380D01*
X829Y-387D01*
X839Y-391D01*
X850Y-392D01*
X861Y-391D01*
X871Y-387D01*
X880Y-380D01*
X887Y-371D01*
X891Y-361D01*
X892Y-350D01*
X891Y-339D01*
X887Y-329D01*
X880Y-320D01*
X871Y-313D01*
X861Y-309D01*
X850Y-308D01*
D02*
G37*
G36*
X-1350Y-215D02*
X-1359Y-216D01*
X-1367Y-220D01*
X-1375Y-225D01*
X-1380Y-233D01*
X-1384Y-241D01*
X-1385Y-250D01*
Y-365D01*
X-1476D01*
X-1479Y-363D01*
X-1489Y-359D01*
X-1500Y-358D01*
X-1511Y-359D01*
X-1521Y-363D01*
X-1530Y-370D01*
X-1537Y-379D01*
X-1541Y-389D01*
X-1542Y-400D01*
X-1541Y-411D01*
X-1537Y-421D01*
X-1530Y-430D01*
X-1521Y-437D01*
X-1511Y-441D01*
X-1500Y-442D01*
X-1489Y-441D01*
X-1479Y-437D01*
X-1476Y-435D01*
X-1385D01*
Y-770D01*
X-1384Y-775D01*
X-1388Y-778D01*
X-1390Y-778D01*
X-1464D01*
X-1470Y-770D01*
X-1479Y-763D01*
X-1489Y-759D01*
X-1500Y-758D01*
X-1511Y-759D01*
X-1521Y-763D01*
X-1530Y-770D01*
X-1537Y-779D01*
X-1541Y-789D01*
X-1542Y-800D01*
X-1541Y-811D01*
X-1537Y-821D01*
X-1530Y-830D01*
X-1521Y-837D01*
X-1511Y-841D01*
X-1500Y-842D01*
X-1489Y-841D01*
X-1479Y-837D01*
X-1470Y-830D01*
X-1464Y-822D01*
X-1399D01*
X-1376Y-846D01*
X-1376Y-846D01*
X-1376D01*
X-1376Y-846D01*
X-1376D01*
X-1376Y-846D01*
Y-846D01*
Y-846D01*
D01*
D01*
X-1376D01*
Y-846D01*
X-1369Y-851D01*
X-1360Y-852D01*
X-1310D01*
X-1309Y-854D01*
X-1302Y-857D01*
X-1295Y-857D01*
X-1288Y-857D01*
X-1281Y-854D01*
X-1276Y-849D01*
X-1271Y-844D01*
X-1268Y-837D01*
X-1268Y-830D01*
X-1268Y-823D01*
X-1271Y-816D01*
X-1276Y-811D01*
X-1281Y-806D01*
X-1288Y-803D01*
X-1295Y-803D01*
X-1302Y-803D01*
X-1309Y-806D01*
X-1310Y-808D01*
X-1338D01*
X-1339Y-803D01*
X-1333Y-800D01*
X-1325Y-795D01*
X-1320Y-787D01*
X-1316Y-779D01*
X-1315Y-770D01*
Y-435D01*
X-1224D01*
X-1221Y-437D01*
X-1211Y-441D01*
X-1200Y-442D01*
X-1189Y-441D01*
X-1179Y-437D01*
X-1170Y-430D01*
X-1163Y-421D01*
X-1159Y-411D01*
X-1158Y-400D01*
X-1159Y-389D01*
X-1163Y-379D01*
X-1170Y-370D01*
X-1179Y-363D01*
X-1189Y-359D01*
X-1200Y-358D01*
X-1211Y-359D01*
X-1221Y-363D01*
X-1224Y-365D01*
X-1315D01*
Y-250D01*
X-1316Y-241D01*
X-1320Y-233D01*
X-1325Y-225D01*
X-1333Y-220D01*
X-1341Y-216D01*
X-1350Y-215D01*
D02*
G37*
G36*
X700Y-208D02*
X689Y-209D01*
X679Y-213D01*
X670Y-220D01*
X663Y-229D01*
X659Y-239D01*
X658Y-250D01*
X659Y-261D01*
X663Y-271D01*
X670Y-280D01*
X679Y-287D01*
X689Y-291D01*
X700Y-292D01*
X711Y-291D01*
X721Y-287D01*
X730Y-280D01*
X737Y-271D01*
X741Y-261D01*
X742Y-250D01*
X741Y-239D01*
X737Y-229D01*
X730Y-220D01*
X721Y-213D01*
X711Y-209D01*
X700Y-208D01*
D02*
G37*
G36*
X-905Y-436D02*
X-910Y-437D01*
X-920Y-441D01*
X-928Y-447D01*
X-934Y-455D01*
X-938Y-465D01*
X-939Y-470D01*
X-905D01*
Y-436D01*
D02*
G37*
G36*
X1173Y-498D02*
X1167Y-499D01*
X1157Y-503D01*
X1149Y-509D01*
X1142Y-518D01*
X1138Y-528D01*
X1137Y-534D01*
X1173D01*
Y-498D01*
D02*
G37*
G36*
X1183D02*
Y-534D01*
X1219D01*
X1218Y-528D01*
X1214Y-518D01*
X1207Y-509D01*
X1199Y-503D01*
X1189Y-499D01*
X1183Y-498D01*
D02*
G37*
G36*
X947D02*
Y-534D01*
X983D01*
X982Y-528D01*
X978Y-518D01*
X971Y-509D01*
X963Y-503D01*
X953Y-499D01*
X947Y-498D01*
D02*
G37*
G36*
X-1200Y-458D02*
X-1211Y-459D01*
X-1221Y-463D01*
X-1230Y-470D01*
X-1237Y-479D01*
X-1241Y-489D01*
X-1242Y-500D01*
X-1241Y-511D01*
X-1237Y-521D01*
X-1230Y-530D01*
X-1221Y-537D01*
X-1211Y-541D01*
X-1200Y-542D01*
X-1189Y-541D01*
X-1179Y-537D01*
X-1170Y-530D01*
X-1163Y-521D01*
X-1159Y-511D01*
X-1158Y-500D01*
X-1159Y-489D01*
X-1163Y-479D01*
X-1170Y-470D01*
X-1179Y-463D01*
X-1189Y-459D01*
X-1200Y-458D01*
D02*
G37*
G36*
X937Y-498D02*
X931Y-499D01*
X921Y-503D01*
X913Y-509D01*
X906Y-518D01*
X902Y-528D01*
X901Y-534D01*
X937D01*
Y-498D01*
D02*
G37*
G36*
X1366Y-415D02*
X1284D01*
X1285Y-421D01*
X1289Y-431D01*
X1296Y-439D01*
X1303Y-445D01*
X1304Y-450D01*
X1284Y-470D01*
Y-510D01*
X1305Y-531D01*
X1345D01*
X1366Y-510D01*
Y-470D01*
X1345Y-449D01*
X1345D01*
X1345D01*
Y-449D01*
D01*
D01*
D01*
D01*
X1345Y-446D01*
X1346Y-446D01*
X1354Y-439D01*
X1361Y-431D01*
X1365Y-421D01*
X1366Y-415D01*
D02*
G37*
G36*
X742Y-408D02*
X658D01*
Y-492D01*
X742D01*
Y-408D01*
D02*
G37*
G36*
X892D02*
X808D01*
Y-492D01*
X892D01*
Y-408D01*
D02*
G37*
G36*
X-333Y-208D02*
X-417D01*
Y-292D01*
X-392D01*
Y-444D01*
X-394Y-446D01*
X-399Y-451D01*
X-402Y-458D01*
X-402Y-465D01*
X-402Y-472D01*
X-399Y-479D01*
X-394Y-484D01*
X-389Y-489D01*
X-382Y-492D01*
X-375Y-492D01*
X-368Y-492D01*
X-361Y-489D01*
X-356Y-484D01*
X-351Y-479D01*
X-348Y-472D01*
X-348Y-465D01*
X-348Y-458D01*
X-351Y-451D01*
X-356Y-446D01*
X-358Y-444D01*
Y-292D01*
X-333D01*
Y-208D01*
D02*
G37*
G36*
X-905Y-480D02*
X-939D01*
X-938Y-485D01*
X-934Y-495D01*
X-928Y-503D01*
X-920Y-509D01*
X-910Y-513D01*
X-905Y-514D01*
Y-480D01*
D02*
G37*
G36*
X-861D02*
X-895D01*
Y-514D01*
X-890Y-513D01*
X-880Y-509D01*
X-872Y-503D01*
X-866Y-495D01*
X-862Y-485D01*
X-861Y-480D01*
D02*
G37*
G36*
X1173Y-244D02*
X1137D01*
X1138Y-249D01*
X1142Y-259D01*
X1149Y-268D01*
X1157Y-274D01*
X1167Y-279D01*
X1173Y-279D01*
Y-244D01*
D02*
G37*
G36*
X1320Y-69D02*
X1314Y-70D01*
X1304Y-74D01*
X1296Y-81D01*
X1289Y-89D01*
X1285Y-99D01*
X1284Y-105D01*
X1320D01*
Y-69D01*
D02*
G37*
G36*
X1330D02*
Y-105D01*
X1366D01*
X1365Y-99D01*
X1361Y-89D01*
X1354Y-81D01*
X1346Y-74D01*
X1336Y-70D01*
X1330Y-69D01*
D02*
G37*
G36*
X-1015Y-59D02*
X-1026Y-60D01*
X-1036Y-64D01*
X-1044Y-71D01*
X-1051Y-79D01*
X-1055Y-89D01*
X-1056Y-100D01*
X-1055Y-111D01*
X-1051Y-121D01*
X-1044Y-129D01*
X-1036Y-136D01*
X-1026Y-140D01*
X-1015Y-141D01*
X-1004Y-140D01*
X-994Y-136D01*
X-986Y-129D01*
X-979Y-121D01*
X-975Y-111D01*
X-974Y-100D01*
X-975Y-89D01*
X-979Y-79D01*
X-986Y-71D01*
X-994Y-64D01*
X-1004Y-60D01*
X-1015Y-59D01*
D02*
G37*
G36*
X-1500Y-58D02*
X-1511Y-59D01*
X-1521Y-63D01*
X-1524Y-65D01*
X-1550D01*
X-1559Y-66D01*
X-1567Y-70D01*
X-1575Y-75D01*
X-1625Y-125D01*
X-1630Y-133D01*
X-1634Y-141D01*
X-1635Y-150D01*
Y-550D01*
X-1635Y-550D01*
X-1635D01*
X-1634Y-559D01*
X-1630Y-567D01*
X-1625Y-575D01*
X-1575Y-625D01*
X-1567Y-630D01*
X-1559Y-634D01*
X-1550Y-635D01*
X-1524D01*
X-1521Y-637D01*
X-1511Y-641D01*
X-1500Y-642D01*
X-1489Y-641D01*
X-1479Y-637D01*
X-1470Y-630D01*
X-1463Y-621D01*
X-1459Y-611D01*
X-1458Y-600D01*
X-1459Y-589D01*
X-1463Y-579D01*
X-1470Y-570D01*
X-1479Y-563D01*
X-1489Y-559D01*
X-1500Y-558D01*
X-1511Y-559D01*
X-1521Y-563D01*
X-1524Y-565D01*
X-1536D01*
X-1565Y-536D01*
Y-164D01*
X-1536Y-135D01*
X-1524D01*
X-1521Y-137D01*
X-1511Y-141D01*
X-1500Y-142D01*
X-1489Y-141D01*
X-1479Y-137D01*
X-1470Y-130D01*
X-1463Y-121D01*
X-1459Y-111D01*
X-1458Y-100D01*
X-1459Y-89D01*
X-1463Y-79D01*
X-1470Y-70D01*
X-1479Y-63D01*
X-1489Y-59D01*
X-1500Y-58D01*
D02*
G37*
G36*
X125D02*
X114Y-59D01*
X104Y-63D01*
X95Y-70D01*
X88Y-79D01*
X84Y-89D01*
X83Y-100D01*
X84Y-111D01*
X88Y-121D01*
X95Y-130D01*
X104Y-137D01*
X114Y-141D01*
X125Y-142D01*
X136Y-141D01*
X146Y-137D01*
X155Y-130D01*
X162Y-121D01*
X166Y-111D01*
X167Y-100D01*
X166Y-89D01*
X162Y-79D01*
X155Y-70D01*
X146Y-63D01*
X136Y-59D01*
X125Y-58D01*
D02*
G37*
G36*
X1178Y-20D02*
X1167Y-21D01*
X1157Y-26D01*
X1149Y-32D01*
X1142Y-41D01*
X1138Y-51D01*
X1137Y-61D01*
X1138Y-72D01*
X1142Y-82D01*
X1149Y-91D01*
X1157Y-97D01*
X1167Y-101D01*
X1178Y-103D01*
X1189Y-101D01*
X1199Y-97D01*
X1207Y-91D01*
X1214Y-82D01*
X1218Y-72D01*
X1219Y-61D01*
X1218Y-51D01*
X1214Y-41D01*
X1207Y-32D01*
X1199Y-26D01*
X1189Y-21D01*
X1178Y-20D01*
D02*
G37*
G36*
X-333Y-55D02*
X-370D01*
Y-92D01*
X-364Y-91D01*
X-354Y-87D01*
X-345Y-80D01*
X-338Y-71D01*
X-334Y-61D01*
X-333Y-55D01*
D02*
G37*
G36*
X-2090Y55D02*
X-2103Y53D01*
X-2116Y49D01*
X-2128Y43D01*
X-2139Y34D01*
X-2147Y24D01*
X-2154Y12D01*
X-2158Y-1D01*
X-2159Y-14D01*
X-2158Y-28D01*
X-2154Y-41D01*
X-2147Y-53D01*
X-2139Y-63D01*
X-2128Y-72D01*
X-2116Y-78D01*
X-2103Y-82D01*
X-2090Y-83D01*
X-2077Y-82D01*
X-2064Y-78D01*
X-2052Y-72D01*
X-2041Y-63D01*
X-2033Y-53D01*
X-2026Y-41D01*
X-2022Y-28D01*
X-2021Y-14D01*
X-2022Y-1D01*
X-2026Y12D01*
X-2033Y24D01*
X-2041Y34D01*
X-2052Y43D01*
X-2064Y49D01*
X-2077Y53D01*
X-2090Y55D01*
D02*
G37*
G36*
X-380Y-55D02*
X-417D01*
X-416Y-61D01*
X-412Y-71D01*
X-405Y-80D01*
X-396Y-87D01*
X-386Y-91D01*
X-380Y-92D01*
Y-55D01*
D02*
G37*
G36*
X700Y-8D02*
X689Y-9D01*
X679Y-13D01*
X670Y-20D01*
X663Y-29D01*
X659Y-39D01*
X658Y-50D01*
X659Y-61D01*
X663Y-71D01*
X670Y-80D01*
X679Y-87D01*
X689Y-91D01*
X700Y-92D01*
X711Y-91D01*
X721Y-87D01*
X730Y-80D01*
X737Y-71D01*
X741Y-61D01*
X742Y-50D01*
X741Y-39D01*
X737Y-29D01*
X730Y-20D01*
X721Y-13D01*
X711Y-9D01*
X700Y-8D01*
D02*
G37*
G36*
X850D02*
X839Y-9D01*
X829Y-13D01*
X820Y-20D01*
X813Y-29D01*
X809Y-39D01*
X808Y-50D01*
X809Y-61D01*
X813Y-71D01*
X820Y-80D01*
X829Y-87D01*
X839Y-91D01*
X850Y-92D01*
X861Y-91D01*
X871Y-87D01*
X880Y-80D01*
X887Y-71D01*
X891Y-61D01*
X892Y-50D01*
X891Y-39D01*
X887Y-29D01*
X880Y-20D01*
X871Y-13D01*
X861Y-9D01*
X850Y-8D01*
D02*
G37*
G36*
X-1200Y-58D02*
X-1211Y-59D01*
X-1221Y-63D01*
X-1230Y-70D01*
X-1237Y-79D01*
X-1241Y-89D01*
X-1242Y-100D01*
X-1241Y-111D01*
X-1237Y-121D01*
X-1230Y-130D01*
X-1221Y-137D01*
X-1211Y-141D01*
X-1200Y-142D01*
X-1189Y-141D01*
X-1179Y-137D01*
X-1176Y-135D01*
X-1164D01*
X-1135Y-164D01*
Y-536D01*
X-1164Y-565D01*
X-1176D01*
X-1179Y-563D01*
X-1189Y-559D01*
X-1200Y-558D01*
X-1211Y-559D01*
X-1221Y-563D01*
X-1230Y-570D01*
X-1237Y-579D01*
X-1241Y-589D01*
X-1242Y-600D01*
X-1241Y-611D01*
X-1237Y-621D01*
X-1230Y-630D01*
X-1221Y-637D01*
X-1211Y-641D01*
X-1200Y-642D01*
X-1189Y-641D01*
X-1179Y-637D01*
X-1176Y-635D01*
X-1150D01*
X-1141Y-634D01*
X-1133Y-630D01*
X-1125Y-625D01*
X-1075Y-575D01*
X-1070Y-567D01*
X-1066Y-559D01*
X-1065Y-550D01*
D01*
D01*
D01*
D01*
D01*
X-1065D01*
D01*
D01*
D01*
D01*
Y-550D01*
X-1065D01*
D01*
Y-550D01*
D01*
D01*
D01*
D01*
D01*
D01*
D01*
D01*
D01*
D01*
D01*
D01*
Y-550D01*
D01*
X-1065D01*
D01*
D01*
D01*
D01*
X-1065Y-550D01*
Y-150D01*
X-1065Y-150D01*
Y-150D01*
X-1065D01*
X-1065Y-150D01*
D01*
D01*
D01*
D01*
X-1065Y-150D01*
D01*
X-1066Y-141D01*
X-1070Y-133D01*
X-1075Y-125D01*
X-1125Y-75D01*
X-1133Y-70D01*
X-1141Y-66D01*
X-1150Y-65D01*
X-1176D01*
X-1179Y-63D01*
X-1189Y-59D01*
X-1200Y-58D01*
D02*
G37*
G36*
X937Y-198D02*
X931Y-199D01*
X921Y-203D01*
X913Y-209D01*
X906Y-218D01*
X902Y-228D01*
X901Y-234D01*
X937D01*
Y-198D01*
D02*
G37*
G36*
X947D02*
Y-234D01*
X983D01*
X982Y-228D01*
X978Y-218D01*
X971Y-209D01*
X963Y-203D01*
X953Y-199D01*
X947Y-198D01*
D02*
G37*
G36*
X-1200Y-158D02*
X-1211Y-159D01*
X-1221Y-163D01*
X-1230Y-170D01*
X-1237Y-179D01*
X-1241Y-189D01*
X-1242Y-200D01*
X-1241Y-211D01*
X-1237Y-221D01*
X-1230Y-230D01*
X-1221Y-237D01*
X-1211Y-241D01*
X-1200Y-242D01*
X-1189Y-241D01*
X-1179Y-237D01*
X-1170Y-230D01*
X-1163Y-221D01*
X-1159Y-211D01*
X-1158Y-200D01*
X-1159Y-189D01*
X-1163Y-179D01*
X-1170Y-170D01*
X-1179Y-163D01*
X-1189Y-159D01*
X-1200Y-158D01*
D02*
G37*
G36*
X1219Y-244D02*
X1183D01*
Y-279D01*
X1189Y-279D01*
X1199Y-274D01*
X1207Y-268D01*
X1214Y-259D01*
X1218Y-249D01*
X1219Y-244D01*
D02*
G37*
G36*
X-1500Y-158D02*
X-1511Y-159D01*
X-1521Y-163D01*
X-1530Y-170D01*
X-1537Y-179D01*
X-1541Y-189D01*
X-1542Y-200D01*
X-1541Y-211D01*
X-1537Y-221D01*
X-1530Y-230D01*
X-1521Y-237D01*
X-1511Y-241D01*
X-1500Y-242D01*
X-1489Y-241D01*
X-1479Y-237D01*
X-1470Y-230D01*
X-1463Y-221D01*
X-1459Y-211D01*
X-1458Y-200D01*
X-1459Y-189D01*
X-1463Y-179D01*
X-1470Y-170D01*
X-1479Y-163D01*
X-1489Y-159D01*
X-1500Y-158D01*
D02*
G37*
G36*
X1173Y-198D02*
X1167Y-199D01*
X1157Y-203D01*
X1149Y-209D01*
X1142Y-218D01*
X1138Y-228D01*
X1137Y-234D01*
X1173D01*
Y-198D01*
D02*
G37*
G36*
X700Y-108D02*
X689Y-109D01*
X679Y-113D01*
X670Y-120D01*
X663Y-129D01*
X659Y-139D01*
X658Y-150D01*
X659Y-161D01*
X663Y-171D01*
X670Y-180D01*
X679Y-187D01*
X689Y-191D01*
X700Y-192D01*
X711Y-191D01*
X721Y-187D01*
X730Y-180D01*
X737Y-171D01*
X741Y-161D01*
X742Y-150D01*
X741Y-139D01*
X737Y-129D01*
X730Y-120D01*
X721Y-113D01*
X711Y-109D01*
X700Y-108D01*
D02*
G37*
G36*
X850D02*
X839Y-109D01*
X829Y-113D01*
X820Y-120D01*
X813Y-129D01*
X809Y-139D01*
X808Y-150D01*
X809Y-161D01*
X813Y-171D01*
X820Y-180D01*
X829Y-187D01*
X839Y-191D01*
X850Y-192D01*
X861Y-191D01*
X871Y-187D01*
X880Y-180D01*
X887Y-171D01*
X891Y-161D01*
X892Y-150D01*
X891Y-139D01*
X887Y-129D01*
X880Y-120D01*
X871Y-113D01*
X861Y-109D01*
X850Y-108D01*
D02*
G37*
G36*
X-375D02*
X-386Y-109D01*
X-396Y-113D01*
X-405Y-120D01*
X-409Y-125D01*
X-450D01*
X-460Y-127D01*
X-468Y-132D01*
X-568Y-232D01*
X-573Y-240D01*
X-575Y-250D01*
Y-511D01*
X-589D01*
Y-589D01*
X-511D01*
Y-511D01*
X-525D01*
Y-260D01*
X-440Y-175D01*
X-409D01*
X-405Y-180D01*
X-396Y-187D01*
X-386Y-191D01*
X-375Y-192D01*
X-364Y-191D01*
X-354Y-187D01*
X-345Y-180D01*
X-338Y-171D01*
X-334Y-161D01*
X-333Y-150D01*
X-334Y-139D01*
X-338Y-129D01*
X-345Y-120D01*
X-354Y-113D01*
X-364Y-109D01*
X-375Y-108D01*
D02*
G37*
G36*
X1183Y-198D02*
Y-234D01*
X1219D01*
X1218Y-228D01*
X1214Y-218D01*
X1207Y-209D01*
X1199Y-203D01*
X1189Y-199D01*
X1183Y-198D01*
D02*
G37*
G36*
X1366Y-115D02*
X1284D01*
X1285Y-121D01*
X1289Y-131D01*
X1296Y-139D01*
X1303Y-145D01*
X1304Y-150D01*
X1284Y-170D01*
Y-210D01*
X1305Y-231D01*
X1345D01*
X1366Y-210D01*
Y-170D01*
X1345Y-149D01*
X1345D01*
X1345D01*
Y-149D01*
D01*
D01*
D01*
D01*
X1345Y-146D01*
X1346Y-146D01*
X1354Y-139D01*
X1361Y-131D01*
X1365Y-121D01*
X1366Y-115D01*
D02*
G37*
G36*
X-1500Y-458D02*
X-1511Y-459D01*
X-1521Y-463D01*
X-1530Y-470D01*
X-1537Y-479D01*
X-1541Y-489D01*
X-1542Y-500D01*
X-1541Y-511D01*
X-1537Y-521D01*
X-1530Y-530D01*
X-1521Y-537D01*
X-1511Y-541D01*
X-1500Y-542D01*
X-1489Y-541D01*
X-1479Y-537D01*
X-1470Y-530D01*
X-1463Y-521D01*
X-1459Y-511D01*
X-1458Y-500D01*
X-1459Y-489D01*
X-1463Y-479D01*
X-1470Y-470D01*
X-1479Y-463D01*
X-1489Y-459D01*
X-1500Y-458D01*
D02*
G37*
G36*
X-158Y-708D02*
X-242D01*
Y-792D01*
X-158D01*
Y-708D01*
D02*
G37*
G36*
X195Y-755D02*
X158D01*
X159Y-761D01*
X163Y-771D01*
X170Y-780D01*
X179Y-787D01*
X189Y-791D01*
X195Y-792D01*
Y-755D01*
D02*
G37*
G36*
X100Y-708D02*
X89Y-709D01*
X79Y-713D01*
X70Y-720D01*
X63Y-729D01*
X59Y-739D01*
X58Y-750D01*
X59Y-761D01*
X63Y-771D01*
X70Y-780D01*
X79Y-787D01*
X89Y-791D01*
X100Y-792D01*
X111Y-791D01*
X121Y-787D01*
X130Y-780D01*
X137Y-771D01*
X141Y-761D01*
X142Y-750D01*
X141Y-739D01*
X137Y-729D01*
X130Y-720D01*
X121Y-713D01*
X111Y-709D01*
X100Y-708D01*
D02*
G37*
G36*
X-100D02*
X-111Y-709D01*
X-121Y-713D01*
X-130Y-720D01*
X-137Y-729D01*
X-141Y-739D01*
X-142Y-750D01*
X-141Y-761D01*
X-137Y-771D01*
X-130Y-780D01*
X-121Y-787D01*
X-111Y-791D01*
X-100Y-792D01*
X-89Y-791D01*
X-79Y-787D01*
X-70Y-780D01*
X-63Y-771D01*
X-59Y-761D01*
X-58Y-750D01*
X-59Y-739D01*
X-63Y-729D01*
X-70Y-720D01*
X-79Y-713D01*
X-89Y-709D01*
X-100Y-708D01*
D02*
G37*
G36*
X0D02*
X-11Y-709D01*
X-21Y-713D01*
X-30Y-720D01*
X-37Y-729D01*
X-41Y-739D01*
X-42Y-750D01*
X-41Y-761D01*
X-37Y-771D01*
X-30Y-780D01*
X-21Y-787D01*
X-11Y-791D01*
X0Y-792D01*
X11Y-791D01*
X21Y-787D01*
X30Y-780D01*
X37Y-771D01*
X41Y-761D01*
X42Y-750D01*
X41Y-739D01*
X37Y-729D01*
X30Y-720D01*
X21Y-713D01*
X11Y-709D01*
X0Y-708D01*
D02*
G37*
G36*
X242Y-755D02*
X205D01*
Y-792D01*
X211Y-791D01*
X221Y-787D01*
X230Y-780D01*
X237Y-771D01*
X241Y-761D01*
X242Y-755D01*
D02*
G37*
G36*
X-1995Y-734D02*
Y-770D01*
X-1959D01*
X-1960Y-764D01*
X-1964Y-754D01*
X-1971Y-746D01*
X-1979Y-739D01*
X-1989Y-735D01*
X-1995Y-734D01*
D02*
G37*
G36*
X195Y-708D02*
X189Y-709D01*
X179Y-713D01*
X170Y-720D01*
X163Y-729D01*
X159Y-739D01*
X158Y-745D01*
X195D01*
Y-708D01*
D02*
G37*
G36*
X-2005Y-734D02*
X-2011Y-735D01*
X-2021Y-739D01*
X-2029Y-746D01*
X-2036Y-754D01*
X-2040Y-764D01*
X-2041Y-770D01*
X-2005D01*
Y-734D01*
D02*
G37*
G36*
X-700Y-750D02*
X-713Y-752D01*
X-725Y-757D01*
X-735Y-765D01*
X-743Y-775D01*
X-748Y-785D01*
X-752D01*
X-757Y-775D01*
X-765Y-765D01*
X-775Y-757D01*
X-787Y-752D01*
X-795Y-751D01*
Y-800D01*
Y-849D01*
X-787Y-848D01*
X-775Y-843D01*
X-765Y-835D01*
X-757Y-825D01*
X-752Y-815D01*
X-748D01*
X-743Y-825D01*
X-735Y-835D01*
X-725Y-843D01*
X-713Y-848D01*
X-700Y-850D01*
X-687Y-848D01*
X-675Y-843D01*
X-665Y-835D01*
X-657Y-825D01*
X-652Y-813D01*
X-650Y-800D01*
X-652Y-787D01*
X-657Y-775D01*
X-665Y-765D01*
X-675Y-757D01*
X-687Y-752D01*
X-700Y-750D01*
D02*
G37*
G36*
X-525Y-701D02*
X-535Y-702D01*
X-544Y-706D01*
X-552Y-713D01*
X-559Y-721D01*
X-563Y-730D01*
X-564Y-740D01*
X-563Y-750D01*
X-559Y-759D01*
X-552Y-767D01*
X-544Y-774D01*
X-535Y-778D01*
X-525Y-779D01*
X-515Y-778D01*
X-506Y-774D01*
X-498Y-767D01*
X-491Y-759D01*
X-487Y-750D01*
X-486Y-740D01*
X-487Y-730D01*
X-491Y-721D01*
X-498Y-713D01*
X-506Y-706D01*
X-515Y-702D01*
X-525Y-701D01*
D02*
G37*
G36*
X-460Y-762D02*
Y-795D01*
X-427D01*
X-427Y-790D01*
X-431Y-781D01*
X-438Y-773D01*
X-446Y-766D01*
X-455Y-762D01*
X-460Y-762D01*
D02*
G37*
G36*
X-1200Y-758D02*
X-1211Y-759D01*
X-1221Y-763D01*
X-1230Y-770D01*
X-1237Y-779D01*
X-1241Y-789D01*
X-1242Y-800D01*
X-1241Y-811D01*
X-1237Y-821D01*
X-1230Y-830D01*
X-1221Y-837D01*
X-1211Y-841D01*
X-1200Y-842D01*
X-1189Y-841D01*
X-1179Y-837D01*
X-1170Y-830D01*
X-1163Y-821D01*
X-1159Y-811D01*
X-1158Y-800D01*
X-1159Y-789D01*
X-1163Y-779D01*
X-1170Y-770D01*
X-1179Y-763D01*
X-1189Y-759D01*
X-1200Y-758D01*
D02*
G37*
G36*
X-470Y-805D02*
X-503D01*
X-503Y-810D01*
X-499Y-819D01*
X-497Y-821D01*
X-500Y-826D01*
X-559D01*
Y-895D01*
X-491D01*
Y-835D01*
X-486Y-832D01*
X-484Y-834D01*
X-475Y-838D01*
X-470Y-838D01*
Y-805D01*
D02*
G37*
G36*
X-900Y-750D02*
X-913Y-752D01*
X-925Y-757D01*
X-935Y-765D01*
X-943Y-775D01*
X-948Y-787D01*
X-950Y-800D01*
X-948Y-813D01*
X-943Y-825D01*
X-935Y-835D01*
X-925Y-843D01*
X-913Y-848D01*
X-900Y-850D01*
X-887Y-848D01*
X-875Y-843D01*
X-865Y-835D01*
X-857Y-825D01*
X-853Y-815D01*
X-848D01*
X-843Y-825D01*
X-835Y-835D01*
X-825Y-843D01*
X-813Y-848D01*
X-805Y-849D01*
Y-800D01*
Y-751D01*
X-813Y-752D01*
X-825Y-757D01*
X-835Y-765D01*
X-843Y-775D01*
X-848Y-785D01*
X-853D01*
X-857Y-775D01*
X-865Y-765D01*
X-875Y-757D01*
X-887Y-752D01*
X-900Y-750D01*
D02*
G37*
G36*
X536Y-690D02*
X518Y-691D01*
X500Y-696D01*
X482Y-703D01*
X467Y-712D01*
X452Y-725D01*
X440Y-739D01*
X431Y-754D01*
X424Y-772D01*
X419Y-790D01*
X418Y-808D01*
X419Y-827D01*
X424Y-845D01*
X431Y-862D01*
X440Y-878D01*
X452Y-892D01*
X467Y-904D01*
X482Y-913D01*
X500Y-920D01*
X518Y-925D01*
X536Y-926D01*
X555Y-925D01*
X573Y-920D01*
X590Y-913D01*
X605Y-904D01*
X620Y-892D01*
X632Y-878D01*
X641Y-862D01*
X648Y-845D01*
X653Y-827D01*
X654Y-808D01*
X653Y-790D01*
X648Y-772D01*
X641Y-754D01*
X632Y-739D01*
X620Y-725D01*
X605Y-712D01*
X590Y-703D01*
X573Y-696D01*
X555Y-691D01*
X536Y-690D01*
D02*
G37*
G36*
X1260Y-689D02*
X1241Y-690D01*
X1223Y-695D01*
X1206Y-702D01*
X1190Y-712D01*
X1176Y-724D01*
X1164Y-738D01*
X1155Y-753D01*
X1147Y-771D01*
X1143Y-789D01*
X1142Y-807D01*
X1143Y-826D01*
X1147Y-844D01*
X1155Y-861D01*
X1164Y-877D01*
X1176Y-891D01*
X1190Y-903D01*
X1206Y-912D01*
X1223Y-919D01*
X1241Y-924D01*
X1260Y-925D01*
X1278Y-924D01*
X1296Y-919D01*
X1313Y-912D01*
X1329Y-903D01*
X1343Y-891D01*
X1355Y-877D01*
X1365Y-861D01*
X1372Y-844D01*
X1377Y-826D01*
X1378Y-807D01*
X1377Y-789D01*
X1372Y-771D01*
X1365Y-753D01*
X1355Y-738D01*
X1343Y-724D01*
X1329Y-712D01*
X1313Y-702D01*
X1296Y-695D01*
X1278Y-690D01*
X1260Y-689D01*
D02*
G37*
G36*
X-427Y-805D02*
X-460D01*
Y-838D01*
X-455Y-838D01*
X-446Y-834D01*
X-438Y-827D01*
X-431Y-819D01*
X-427Y-810D01*
X-427Y-805D01*
D02*
G37*
G36*
X-1959Y-780D02*
X-1995D01*
Y-816D01*
X-1989Y-815D01*
X-1979Y-811D01*
X-1971Y-804D01*
X-1964Y-796D01*
X-1960Y-786D01*
X-1959Y-780D01*
D02*
G37*
G36*
X-470Y-762D02*
X-475Y-762D01*
X-484Y-766D01*
X-492Y-773D01*
X-499Y-781D01*
X-503Y-790D01*
X-503Y-795D01*
X-470D01*
Y-762D01*
D02*
G37*
G36*
X-2005Y-780D02*
X-2041D01*
X-2040Y-786D01*
X-2036Y-796D01*
X-2029Y-804D01*
X-2021Y-811D01*
X-2011Y-815D01*
X-2005Y-816D01*
Y-780D01*
D02*
G37*
G36*
X-1900Y-734D02*
X-1911Y-735D01*
X-1921Y-739D01*
X-1929Y-746D01*
X-1936Y-754D01*
X-1940Y-764D01*
X-1941Y-775D01*
X-1940Y-786D01*
X-1936Y-796D01*
X-1929Y-804D01*
X-1921Y-811D01*
X-1911Y-815D01*
X-1900Y-816D01*
X-1889Y-815D01*
X-1879Y-811D01*
X-1871Y-804D01*
X-1864Y-796D01*
X-1860Y-786D01*
X-1859Y-775D01*
X-1860Y-764D01*
X-1864Y-754D01*
X-1871Y-746D01*
X-1879Y-739D01*
X-1889Y-735D01*
X-1900Y-734D01*
D02*
G37*
G36*
X-2059Y-734D02*
X-2141D01*
Y-816D01*
X-2059D01*
Y-734D01*
D02*
G37*
G36*
X205Y-708D02*
Y-745D01*
X242D01*
X241Y-739D01*
X237Y-729D01*
X230Y-720D01*
X221Y-713D01*
X211Y-709D01*
X205Y-708D01*
D02*
G37*
G36*
X-655Y-555D02*
X-689D01*
X-688Y-560D01*
X-684Y-570D01*
X-678Y-578D01*
X-670Y-584D01*
X-660Y-588D01*
X-655Y-589D01*
Y-555D01*
D02*
G37*
G36*
X-611D02*
X-645D01*
Y-589D01*
X-640Y-588D01*
X-630Y-584D01*
X-622Y-578D01*
X-616Y-570D01*
X-612Y-560D01*
X-611Y-555D01*
D02*
G37*
G36*
X680Y-608D02*
Y-645D01*
X717D01*
X716Y-639D01*
X712Y-629D01*
X705Y-620D01*
X696Y-613D01*
X686Y-609D01*
X680Y-608D01*
D02*
G37*
G36*
X205D02*
Y-645D01*
X242D01*
X241Y-639D01*
X237Y-629D01*
X230Y-620D01*
X221Y-613D01*
X211Y-609D01*
X205Y-608D01*
D02*
G37*
G36*
X670D02*
X664Y-609D01*
X654Y-613D01*
X645Y-620D01*
X638Y-629D01*
X634Y-639D01*
X633Y-645D01*
X670D01*
Y-608D01*
D02*
G37*
G36*
X937Y-544D02*
X901D01*
X902Y-549D01*
X906Y-559D01*
X913Y-568D01*
X921Y-574D01*
X931Y-579D01*
X937Y-579D01*
Y-544D01*
D02*
G37*
G36*
X-655Y-511D02*
X-660Y-512D01*
X-670Y-516D01*
X-678Y-522D01*
X-684Y-530D01*
X-688Y-540D01*
X-689Y-545D01*
X-655D01*
Y-511D01*
D02*
G37*
G36*
X-645D02*
Y-545D01*
X-611D01*
X-612Y-540D01*
X-616Y-530D01*
X-622Y-522D01*
X-630Y-516D01*
X-640Y-512D01*
X-645Y-511D01*
D02*
G37*
G36*
X1219Y-544D02*
X1183D01*
Y-579D01*
X1189Y-579D01*
X1199Y-574D01*
X1207Y-568D01*
X1214Y-559D01*
X1218Y-549D01*
X1219Y-544D01*
D02*
G37*
G36*
X983D02*
X947D01*
Y-579D01*
X953Y-579D01*
X963Y-574D01*
X971Y-568D01*
X978Y-559D01*
X982Y-549D01*
X983Y-544D01*
D02*
G37*
G36*
X1173D02*
X1137D01*
X1138Y-549D01*
X1142Y-559D01*
X1149Y-568D01*
X1157Y-574D01*
X1167Y-579D01*
X1173Y-579D01*
Y-544D01*
D02*
G37*
G36*
X195Y-608D02*
X189Y-609D01*
X179Y-613D01*
X170Y-620D01*
X163Y-629D01*
X159Y-639D01*
X158Y-645D01*
X195D01*
Y-608D01*
D02*
G37*
G36*
X-100Y-608D02*
X-111Y-609D01*
X-121Y-613D01*
X-130Y-620D01*
X-137Y-629D01*
X-141Y-639D01*
X-142Y-650D01*
X-141Y-661D01*
X-137Y-671D01*
X-130Y-680D01*
X-121Y-687D01*
X-111Y-691D01*
X-100Y-692D01*
X-89Y-691D01*
X-79Y-687D01*
X-70Y-680D01*
X-63Y-671D01*
X-59Y-661D01*
X-58Y-650D01*
X-59Y-639D01*
X-63Y-629D01*
X-70Y-620D01*
X-79Y-613D01*
X-89Y-609D01*
X-100Y-608D01*
D02*
G37*
G36*
X0D02*
X-11Y-609D01*
X-21Y-613D01*
X-30Y-620D01*
X-37Y-629D01*
X-41Y-639D01*
X-42Y-650D01*
X-41Y-661D01*
X-37Y-671D01*
X-30Y-680D01*
X-21Y-687D01*
X-11Y-691D01*
X0Y-692D01*
X11Y-691D01*
X21Y-687D01*
X30Y-680D01*
X37Y-671D01*
X41Y-661D01*
X42Y-650D01*
X41Y-639D01*
X37Y-629D01*
X30Y-620D01*
X21Y-613D01*
X11Y-609D01*
X0Y-608D01*
D02*
G37*
G36*
X-200D02*
X-211Y-609D01*
X-221Y-613D01*
X-230Y-620D01*
X-237Y-629D01*
X-241Y-639D01*
X-242Y-650D01*
X-241Y-661D01*
X-237Y-671D01*
X-230Y-680D01*
X-221Y-687D01*
X-211Y-691D01*
X-200Y-692D01*
X-189Y-691D01*
X-179Y-687D01*
X-170Y-680D01*
X-163Y-671D01*
X-159Y-661D01*
X-158Y-650D01*
X-159Y-639D01*
X-163Y-629D01*
X-170Y-620D01*
X-179Y-613D01*
X-189Y-609D01*
X-200Y-608D01*
D02*
G37*
G36*
X-1500Y-658D02*
X-1511Y-659D01*
X-1521Y-663D01*
X-1530Y-670D01*
X-1537Y-679D01*
X-1541Y-689D01*
X-1542Y-700D01*
X-1541Y-711D01*
X-1537Y-721D01*
X-1530Y-730D01*
X-1521Y-737D01*
X-1511Y-741D01*
X-1500Y-742D01*
X-1489Y-741D01*
X-1479Y-737D01*
X-1470Y-730D01*
X-1463Y-721D01*
X-1459Y-711D01*
X-1458Y-700D01*
X-1459Y-689D01*
X-1463Y-679D01*
X-1470Y-670D01*
X-1479Y-663D01*
X-1489Y-659D01*
X-1500Y-658D01*
D02*
G37*
G36*
X-1200D02*
X-1211Y-659D01*
X-1221Y-663D01*
X-1230Y-670D01*
X-1237Y-679D01*
X-1241Y-689D01*
X-1242Y-700D01*
X-1241Y-711D01*
X-1237Y-721D01*
X-1230Y-730D01*
X-1221Y-737D01*
X-1211Y-741D01*
X-1200Y-742D01*
X-1189Y-741D01*
X-1179Y-737D01*
X-1170Y-730D01*
X-1163Y-721D01*
X-1159Y-711D01*
X-1158Y-700D01*
X-1159Y-689D01*
X-1163Y-679D01*
X-1170Y-670D01*
X-1179Y-663D01*
X-1189Y-659D01*
X-1200Y-658D01*
D02*
G37*
G36*
X100Y-608D02*
X89Y-609D01*
X79Y-613D01*
X70Y-620D01*
X63Y-629D01*
X59Y-639D01*
X58Y-650D01*
X59Y-661D01*
X63Y-671D01*
X70Y-680D01*
X79Y-687D01*
X89Y-691D01*
X100Y-692D01*
X111Y-691D01*
X121Y-687D01*
X130Y-680D01*
X137Y-671D01*
X141Y-661D01*
X142Y-650D01*
X141Y-639D01*
X137Y-629D01*
X130Y-620D01*
X121Y-613D01*
X111Y-609D01*
X100Y-608D01*
D02*
G37*
G36*
X717Y-655D02*
X680D01*
Y-692D01*
X686Y-691D01*
X696Y-687D01*
X705Y-680D01*
X712Y-671D01*
X716Y-661D01*
X717Y-655D01*
D02*
G37*
G36*
X-861Y-586D02*
X-939D01*
Y-664D01*
X-861D01*
Y-586D01*
D02*
G37*
G36*
X670Y-655D02*
X633D01*
X634Y-661D01*
X638Y-671D01*
X645Y-680D01*
X654Y-687D01*
X664Y-691D01*
X670Y-692D01*
Y-655D01*
D02*
G37*
G36*
X195D02*
X158D01*
X159Y-661D01*
X163Y-671D01*
X170Y-680D01*
X179Y-687D01*
X189Y-691D01*
X195Y-692D01*
Y-655D01*
D02*
G37*
G36*
X242D02*
X205D01*
Y-692D01*
X211Y-691D01*
X221Y-687D01*
X230Y-680D01*
X237Y-671D01*
X241Y-661D01*
X242Y-655D01*
D02*
G37*
G36*
X-2347Y559D02*
X-2410D01*
X-2410Y551D01*
X-2406Y538D01*
X-2399Y526D01*
X-2391Y516D01*
X-2380Y507D01*
X-2368Y501D01*
X-2355Y497D01*
X-2347Y496D01*
Y559D01*
D02*
G37*
G36*
X-2274D02*
X-2337D01*
Y496D01*
X-2329Y497D01*
X-2316Y501D01*
X-2304Y507D01*
X-2293Y516D01*
X-2285Y526D01*
X-2278Y538D01*
X-2274Y551D01*
X-2274Y559D01*
D02*
G37*
G36*
X942Y580D02*
X931Y579D01*
X921Y574D01*
X913Y568D01*
X906Y559D01*
X902Y549D01*
X901Y539D01*
X902Y528D01*
X906Y518D01*
X913Y509D01*
X921Y503D01*
X931Y499D01*
X942Y497D01*
X953Y499D01*
X963Y503D01*
X971Y509D01*
X978Y518D01*
X982Y528D01*
X983Y539D01*
X982Y549D01*
X978Y559D01*
X971Y568D01*
X963Y574D01*
X953Y579D01*
X942Y580D01*
D02*
G37*
G36*
X1330Y531D02*
Y495D01*
X1366D01*
X1365Y501D01*
X1361Y511D01*
X1354Y519D01*
X1346Y526D01*
X1336Y530D01*
X1330Y531D01*
D02*
G37*
G36*
X-2090Y633D02*
X-2103Y632D01*
X-2116Y628D01*
X-2128Y622D01*
X-2139Y613D01*
X-2147Y603D01*
X-2154Y591D01*
X-2158Y578D01*
X-2159Y564D01*
X-2158Y551D01*
X-2154Y538D01*
X-2147Y526D01*
X-2139Y516D01*
X-2128Y507D01*
X-2116Y501D01*
X-2103Y497D01*
X-2090Y495D01*
X-2077Y497D01*
X-2064Y501D01*
X-2052Y507D01*
X-2041Y516D01*
X-2033Y526D01*
X-2026Y538D01*
X-2022Y551D01*
X-2021Y564D01*
X-2022Y578D01*
X-2026Y591D01*
X-2033Y603D01*
X-2041Y613D01*
X-2052Y622D01*
X-2064Y628D01*
X-2077Y632D01*
X-2090Y633D01*
D02*
G37*
G36*
X-1838D02*
X-1851Y632D01*
X-1864Y628D01*
X-1876Y622D01*
X-1887Y613D01*
X-1895Y603D01*
X-1902Y591D01*
X-1906Y578D01*
X-1907Y564D01*
X-1906Y551D01*
X-1902Y538D01*
X-1895Y526D01*
X-1887Y516D01*
X-1876Y507D01*
X-1864Y501D01*
X-1851Y497D01*
X-1838Y495D01*
X-1825Y497D01*
X-1812Y501D01*
X-1800Y507D01*
X-1789Y516D01*
X-1781Y526D01*
X-1774Y538D01*
X-1770Y551D01*
X-1769Y564D01*
X-1770Y578D01*
X-1774Y591D01*
X-1781Y603D01*
X-1789Y613D01*
X-1800Y622D01*
X-1812Y628D01*
X-1825Y632D01*
X-1838Y633D01*
D02*
G37*
G36*
X-1200Y642D02*
X-1211Y641D01*
X-1221Y637D01*
X-1230Y630D01*
X-1237Y621D01*
X-1241Y611D01*
X-1242Y600D01*
X-1241Y589D01*
X-1237Y579D01*
X-1230Y570D01*
X-1221Y563D01*
X-1211Y559D01*
X-1200Y558D01*
X-1189Y559D01*
X-1179Y563D01*
X-1176Y565D01*
X-1164D01*
X-1135Y536D01*
Y164D01*
X-1164Y135D01*
X-1176D01*
X-1179Y137D01*
X-1189Y141D01*
X-1200Y142D01*
X-1211Y141D01*
X-1221Y137D01*
X-1230Y130D01*
X-1237Y121D01*
X-1241Y111D01*
X-1242Y100D01*
X-1241Y89D01*
X-1237Y79D01*
X-1230Y70D01*
X-1221Y63D01*
X-1211Y59D01*
X-1200Y58D01*
X-1189Y59D01*
X-1179Y63D01*
X-1176Y65D01*
X-1150D01*
X-1141Y66D01*
X-1133Y70D01*
X-1125Y75D01*
X-1075Y125D01*
X-1070Y133D01*
X-1066Y141D01*
X-1065Y150D01*
Y550D01*
X-1065Y550D01*
Y550D01*
X-1065D01*
X-1065Y550D01*
D01*
D01*
D01*
D01*
X-1065Y550D01*
D01*
X-1066Y559D01*
X-1070Y567D01*
X-1075Y575D01*
X-1125Y625D01*
X-1133Y630D01*
X-1141Y634D01*
X-1150Y635D01*
X-1176D01*
X-1179Y637D01*
X-1189Y641D01*
X-1200Y642D01*
D02*
G37*
G36*
X-855Y589D02*
X-860Y588D01*
X-870Y584D01*
X-878Y578D01*
X-884Y570D01*
X-888Y560D01*
X-889Y555D01*
X-855D01*
Y589D01*
D02*
G37*
G36*
X-845D02*
Y555D01*
X-811D01*
X-812Y560D01*
X-816Y570D01*
X-822Y578D01*
X-830Y584D01*
X-840Y588D01*
X-845Y589D01*
D02*
G37*
G36*
X1178Y580D02*
X1167Y579D01*
X1157Y574D01*
X1149Y568D01*
X1142Y559D01*
X1138Y549D01*
X1137Y539D01*
X1138Y528D01*
X1142Y518D01*
X1149Y509D01*
X1157Y503D01*
X1167Y499D01*
X1178Y497D01*
X1189Y499D01*
X1199Y503D01*
X1207Y509D01*
X1214Y518D01*
X1218Y528D01*
X1219Y539D01*
X1218Y549D01*
X1214Y559D01*
X1207Y568D01*
X1199Y574D01*
X1189Y579D01*
X1178Y580D01*
D02*
G37*
G36*
X-855Y545D02*
X-889D01*
X-888Y540D01*
X-884Y530D01*
X-878Y522D01*
X-870Y516D01*
X-860Y512D01*
X-855Y511D01*
Y545D01*
D02*
G37*
G36*
X-811D02*
X-845D01*
Y511D01*
X-840Y512D01*
X-830Y516D01*
X-822Y522D01*
X-816Y530D01*
X-812Y540D01*
X-811Y545D01*
D02*
G37*
G36*
X892Y445D02*
X855D01*
Y408D01*
X861Y409D01*
X871Y413D01*
X880Y420D01*
X887Y429D01*
X891Y439D01*
X892Y445D01*
D02*
G37*
G36*
X-1425Y485D02*
X-1434Y484D01*
X-1442Y480D01*
X-1450Y475D01*
X-1455Y467D01*
X-1459Y459D01*
X-1460Y450D01*
Y424D01*
X-1465Y423D01*
X-1470Y430D01*
X-1479Y437D01*
X-1489Y441D01*
X-1500Y442D01*
X-1511Y441D01*
X-1521Y437D01*
X-1530Y430D01*
X-1537Y421D01*
X-1541Y411D01*
X-1542Y400D01*
X-1541Y389D01*
X-1537Y379D01*
X-1530Y370D01*
X-1521Y363D01*
X-1511Y359D01*
X-1500Y358D01*
X-1489Y359D01*
X-1479Y363D01*
X-1470Y370D01*
X-1465Y377D01*
X-1460Y376D01*
Y235D01*
X-1476D01*
X-1479Y237D01*
X-1489Y241D01*
X-1500Y242D01*
X-1511Y241D01*
X-1521Y237D01*
X-1530Y230D01*
X-1537Y221D01*
X-1541Y211D01*
X-1542Y200D01*
X-1541Y189D01*
X-1537Y179D01*
X-1530Y170D01*
X-1521Y163D01*
X-1511Y159D01*
X-1500Y158D01*
X-1489Y159D01*
X-1479Y163D01*
X-1476Y165D01*
X-1224D01*
X-1221Y163D01*
X-1211Y159D01*
X-1200Y158D01*
X-1189Y159D01*
X-1179Y163D01*
X-1170Y170D01*
X-1163Y179D01*
X-1159Y189D01*
X-1158Y200D01*
X-1159Y211D01*
X-1163Y221D01*
X-1170Y230D01*
X-1179Y237D01*
X-1189Y241D01*
X-1200Y242D01*
X-1211Y241D01*
X-1221Y237D01*
X-1224Y235D01*
X-1390D01*
Y450D01*
X-1391Y459D01*
X-1395Y467D01*
X-1400Y475D01*
X-1408Y480D01*
X-1416Y484D01*
X-1425Y485D01*
D02*
G37*
G36*
X695Y492D02*
X689Y491D01*
X679Y487D01*
X670Y480D01*
X663Y471D01*
X659Y461D01*
X658Y455D01*
X695D01*
Y492D01*
D02*
G37*
G36*
Y445D02*
X658D01*
X659Y439D01*
X663Y429D01*
X670Y420D01*
X679Y413D01*
X689Y409D01*
X695Y408D01*
Y445D01*
D02*
G37*
G36*
X742D02*
X705D01*
Y408D01*
X711Y409D01*
X721Y413D01*
X730Y420D01*
X737Y429D01*
X741Y439D01*
X742Y445D01*
D02*
G37*
G36*
X845D02*
X808D01*
X809Y439D01*
X813Y429D01*
X820Y420D01*
X829Y413D01*
X839Y409D01*
X845Y408D01*
Y445D01*
D02*
G37*
G36*
X-1500Y542D02*
X-1511Y541D01*
X-1521Y537D01*
X-1530Y530D01*
X-1537Y521D01*
X-1541Y511D01*
X-1542Y500D01*
X-1541Y489D01*
X-1537Y479D01*
X-1530Y470D01*
X-1521Y463D01*
X-1511Y459D01*
X-1500Y458D01*
X-1489Y459D01*
X-1479Y463D01*
X-1470Y470D01*
X-1463Y479D01*
X-1459Y489D01*
X-1458Y500D01*
X-1459Y511D01*
X-1463Y521D01*
X-1470Y530D01*
X-1479Y537D01*
X-1489Y541D01*
X-1500Y542D01*
D02*
G37*
G36*
X-1200D02*
X-1211Y541D01*
X-1221Y537D01*
X-1230Y530D01*
X-1237Y521D01*
X-1241Y511D01*
X-1242Y500D01*
X-1241Y489D01*
X-1237Y479D01*
X-1230Y470D01*
X-1221Y463D01*
X-1211Y459D01*
X-1200Y458D01*
X-1189Y459D01*
X-1179Y463D01*
X-1170Y470D01*
X-1163Y479D01*
X-1159Y489D01*
X-1158Y500D01*
X-1159Y511D01*
X-1163Y521D01*
X-1170Y530D01*
X-1179Y537D01*
X-1189Y541D01*
X-1200Y542D01*
D02*
G37*
G36*
X1320Y531D02*
X1314Y530D01*
X1304Y526D01*
X1296Y519D01*
X1289Y511D01*
X1285Y501D01*
X1284Y495D01*
X1320D01*
Y531D01*
D02*
G37*
G36*
X705Y492D02*
Y455D01*
X742D01*
X741Y461D01*
X737Y471D01*
X730Y480D01*
X721Y487D01*
X711Y491D01*
X705Y492D01*
D02*
G37*
G36*
X845D02*
X839Y491D01*
X829Y487D01*
X820Y480D01*
X813Y471D01*
X809Y461D01*
X808Y455D01*
X845D01*
Y492D01*
D02*
G37*
G36*
X855D02*
Y455D01*
X892D01*
X891Y461D01*
X887Y471D01*
X880Y480D01*
X871Y487D01*
X861Y491D01*
X855Y492D01*
D02*
G37*
G36*
X-1900Y866D02*
X-1911Y865D01*
X-1921Y861D01*
X-1929Y854D01*
X-1936Y846D01*
X-1940Y836D01*
X-1941Y825D01*
X-1940Y814D01*
X-1936Y804D01*
X-1929Y796D01*
X-1921Y789D01*
X-1911Y785D01*
X-1900Y784D01*
X-1889Y785D01*
X-1879Y789D01*
X-1871Y796D01*
X-1864Y804D01*
X-1860Y814D01*
X-1859Y825D01*
X-1860Y836D01*
X-1864Y846D01*
X-1871Y854D01*
X-1879Y861D01*
X-1889Y865D01*
X-1900Y866D01*
D02*
G37*
G36*
X-2059Y866D02*
X-2141D01*
Y784D01*
X-2059D01*
Y866D01*
D02*
G37*
G36*
X-2005Y820D02*
X-2041D01*
X-2040Y814D01*
X-2036Y804D01*
X-2029Y796D01*
X-2021Y789D01*
X-2011Y785D01*
X-2005Y784D01*
Y820D01*
D02*
G37*
G36*
X-811Y789D02*
X-889D01*
Y711D01*
X-811D01*
Y789D01*
D02*
G37*
G36*
X200Y834D02*
X185Y832D01*
X170Y826D01*
X158Y817D01*
X149Y805D01*
X143Y790D01*
X141Y775D01*
X143Y760D01*
X149Y745D01*
X158Y733D01*
X170Y724D01*
X185Y718D01*
X200Y716D01*
X215Y718D01*
X230Y724D01*
X242Y733D01*
X251Y745D01*
X257Y760D01*
X259Y775D01*
X257Y790D01*
X251Y805D01*
X242Y817D01*
X230Y826D01*
X215Y832D01*
X200Y834D01*
D02*
G37*
G36*
X59Y834D02*
X-59D01*
Y716D01*
X59D01*
Y834D01*
D02*
G37*
G36*
X-2005Y866D02*
X-2011Y865D01*
X-2021Y861D01*
X-2029Y854D01*
X-2036Y846D01*
X-2040Y836D01*
X-2041Y830D01*
X-2005D01*
Y866D01*
D02*
G37*
G36*
X-1995D02*
Y830D01*
X-1959D01*
X-1960Y836D01*
X-1964Y846D01*
X-1971Y854D01*
X-1979Y861D01*
X-1989Y865D01*
X-1995Y866D01*
D02*
G37*
G36*
X-1200Y842D02*
X-1211Y841D01*
X-1221Y837D01*
X-1224Y835D01*
X-1476D01*
X-1479Y837D01*
X-1489Y841D01*
X-1500Y842D01*
X-1511Y841D01*
X-1521Y837D01*
X-1530Y830D01*
X-1537Y821D01*
X-1541Y811D01*
X-1542Y800D01*
X-1541Y789D01*
X-1537Y779D01*
X-1530Y770D01*
X-1521Y763D01*
X-1511Y759D01*
X-1500Y758D01*
X-1489Y759D01*
X-1479Y763D01*
X-1476Y765D01*
X-1224D01*
X-1221Y763D01*
X-1211Y759D01*
X-1200Y758D01*
X-1189Y759D01*
X-1179Y763D01*
X-1170Y770D01*
X-1163Y779D01*
X-1159Y789D01*
X-1158Y800D01*
X-1159Y811D01*
X-1163Y821D01*
X-1170Y830D01*
X-1179Y837D01*
X-1189Y841D01*
X-1200Y842D01*
D02*
G37*
G36*
X-1959Y820D02*
X-1995D01*
Y784D01*
X-1989Y785D01*
X-1979Y789D01*
X-1971Y796D01*
X-1964Y804D01*
X-1960Y814D01*
X-1959Y820D01*
D02*
G37*
G36*
X-550Y889D02*
X-560Y888D01*
X-570Y884D01*
X-578Y878D01*
X-584Y870D01*
X-588Y860D01*
X-589Y850D01*
X-588Y840D01*
X-584Y830D01*
X-578Y822D01*
X-570Y816D01*
X-560Y812D01*
X-550Y811D01*
X-540Y812D01*
X-530Y816D01*
X-522Y822D01*
X-516Y830D01*
X-512Y840D01*
X-511Y850D01*
X-512Y860D01*
X-516Y870D01*
X-522Y878D01*
X-530Y884D01*
X-540Y888D01*
X-550Y889D01*
D02*
G37*
G36*
X-250D02*
X-260Y888D01*
X-270Y884D01*
X-278Y878D01*
X-284Y870D01*
X-288Y860D01*
X-289Y850D01*
X-288Y840D01*
X-284Y830D01*
X-278Y822D01*
X-270Y816D01*
X-260Y812D01*
X-250Y811D01*
X-240Y812D01*
X-230Y816D01*
X-222Y822D01*
X-216Y830D01*
X-212Y840D01*
X-211Y850D01*
X-212Y860D01*
X-216Y870D01*
X-222Y878D01*
X-230Y884D01*
X-240Y888D01*
X-250Y889D01*
D02*
G37*
G36*
Y689D02*
X-260Y688D01*
X-270Y684D01*
X-278Y678D01*
X-284Y670D01*
X-288Y660D01*
X-289Y650D01*
X-288Y640D01*
X-284Y630D01*
X-278Y622D01*
X-270Y616D01*
X-260Y612D01*
X-250Y611D01*
X-240Y612D01*
X-230Y616D01*
X-222Y622D01*
X-216Y630D01*
X-212Y640D01*
X-211Y650D01*
X-212Y660D01*
X-216Y670D01*
X-222Y678D01*
X-230Y684D01*
X-240Y688D01*
X-250Y689D01*
D02*
G37*
G36*
X-555Y645D02*
X-589D01*
X-588Y640D01*
X-584Y630D01*
X-578Y622D01*
X-570Y616D01*
X-560Y612D01*
X-555Y611D01*
Y645D01*
D02*
G37*
G36*
X-511D02*
X-545D01*
Y611D01*
X-540Y612D01*
X-530Y616D01*
X-522Y622D01*
X-516Y630D01*
X-512Y640D01*
X-511Y645D01*
D02*
G37*
G36*
X-1500Y642D02*
X-1511Y641D01*
X-1521Y637D01*
X-1524Y635D01*
X-1550D01*
X-1559Y634D01*
X-1567Y630D01*
X-1575Y625D01*
X-1625Y575D01*
X-1630Y567D01*
X-1634Y559D01*
X-1635Y550D01*
Y150D01*
X-1635Y150D01*
X-1635D01*
X-1634Y141D01*
X-1630Y133D01*
X-1625Y125D01*
X-1575Y75D01*
X-1567Y70D01*
X-1559Y66D01*
X-1550Y65D01*
X-1524D01*
X-1521Y63D01*
X-1511Y59D01*
X-1500Y58D01*
X-1489Y59D01*
X-1479Y63D01*
X-1470Y70D01*
X-1463Y79D01*
X-1459Y89D01*
X-1458Y100D01*
X-1459Y111D01*
X-1463Y121D01*
X-1470Y130D01*
X-1479Y137D01*
X-1489Y141D01*
X-1500Y142D01*
X-1511Y141D01*
X-1521Y137D01*
X-1524Y135D01*
X-1536D01*
X-1565Y164D01*
Y536D01*
X-1536Y565D01*
X-1524D01*
X-1521Y563D01*
X-1511Y559D01*
X-1500Y558D01*
X-1489Y559D01*
X-1479Y563D01*
X-1470Y570D01*
X-1463Y579D01*
X-1459Y589D01*
X-1458Y600D01*
X-1459Y611D01*
X-1463Y621D01*
X-1470Y630D01*
X-1479Y637D01*
X-1489Y641D01*
X-1500Y642D01*
D02*
G37*
G36*
X-2347Y633D02*
X-2355Y632D01*
X-2368Y628D01*
X-2380Y622D01*
X-2391Y613D01*
X-2399Y603D01*
X-2406Y591D01*
X-2410Y578D01*
X-2410Y569D01*
X-2347D01*
Y633D01*
D02*
G37*
G36*
X-2337D02*
Y569D01*
X-2274D01*
X-2274Y578D01*
X-2278Y591D01*
X-2285Y603D01*
X-2293Y613D01*
X-2304Y622D01*
X-2316Y628D01*
X-2329Y632D01*
X-2337Y633D01*
D02*
G37*
G36*
X-1200Y742D02*
X-1211Y741D01*
X-1221Y737D01*
X-1230Y730D01*
X-1237Y721D01*
X-1241Y711D01*
X-1242Y700D01*
X-1241Y689D01*
X-1237Y679D01*
X-1230Y670D01*
X-1221Y663D01*
X-1211Y659D01*
X-1200Y658D01*
X-1189Y659D01*
X-1179Y663D01*
X-1170Y670D01*
X-1163Y679D01*
X-1159Y689D01*
X-1158Y700D01*
X-1159Y711D01*
X-1163Y721D01*
X-1170Y730D01*
X-1179Y737D01*
X-1189Y741D01*
X-1200Y742D01*
D02*
G37*
G36*
X536Y924D02*
X518Y923D01*
X500Y918D01*
X482Y911D01*
X467Y902D01*
X452Y890D01*
X440Y876D01*
X431Y860D01*
X424Y843D01*
X419Y825D01*
X418Y806D01*
X419Y788D01*
X424Y770D01*
X431Y752D01*
X440Y737D01*
X452Y723D01*
X467Y711D01*
X482Y701D01*
X500Y694D01*
X518Y689D01*
X536Y688D01*
X555Y689D01*
X573Y694D01*
X590Y701D01*
X605Y711D01*
X620Y723D01*
X632Y737D01*
X641Y752D01*
X648Y770D01*
X653Y788D01*
X654Y806D01*
X653Y825D01*
X648Y843D01*
X641Y860D01*
X632Y876D01*
X620Y890D01*
X605Y902D01*
X590Y911D01*
X573Y918D01*
X555Y923D01*
X536Y924D01*
D02*
G37*
G36*
X1260Y925D02*
X1241Y924D01*
X1223Y919D01*
X1206Y912D01*
X1190Y903D01*
X1176Y891D01*
X1164Y877D01*
X1155Y861D01*
X1147Y844D01*
X1143Y826D01*
X1142Y807D01*
X1143Y789D01*
X1147Y771D01*
X1155Y753D01*
X1164Y738D01*
X1176Y724D01*
X1190Y712D01*
X1206Y702D01*
X1223Y695D01*
X1241Y690D01*
X1260Y689D01*
X1278Y690D01*
X1296Y695D01*
X1313Y702D01*
X1329Y712D01*
X1343Y724D01*
X1355Y738D01*
X1365Y753D01*
X1372Y771D01*
X1377Y789D01*
X1378Y807D01*
X1377Y826D01*
X1372Y844D01*
X1365Y861D01*
X1355Y877D01*
X1343Y891D01*
X1329Y903D01*
X1313Y912D01*
X1296Y919D01*
X1278Y924D01*
X1260Y925D01*
D02*
G37*
G36*
X-555Y689D02*
X-560Y688D01*
X-570Y684D01*
X-578Y678D01*
X-584Y670D01*
X-588Y660D01*
X-589Y655D01*
X-555D01*
Y689D01*
D02*
G37*
G36*
X-545D02*
Y655D01*
X-511D01*
X-512Y660D01*
X-516Y670D01*
X-522Y678D01*
X-530Y684D01*
X-540Y688D01*
X-545Y689D01*
D02*
G37*
G36*
X-1500Y742D02*
X-1511Y741D01*
X-1521Y737D01*
X-1530Y730D01*
X-1537Y721D01*
X-1541Y711D01*
X-1542Y700D01*
X-1541Y689D01*
X-1537Y679D01*
X-1530Y670D01*
X-1521Y663D01*
X-1511Y659D01*
X-1500Y658D01*
X-1489Y659D01*
X-1479Y663D01*
X-1470Y670D01*
X-1463Y679D01*
X-1459Y689D01*
X-1458Y700D01*
X-1459Y711D01*
X-1463Y721D01*
X-1470Y730D01*
X-1479Y737D01*
X-1489Y741D01*
X-1500Y742D01*
D02*
G37*
G36*
X1366Y485D02*
X1284D01*
X1285Y479D01*
X1289Y469D01*
X1296Y461D01*
X1303Y455D01*
X1304Y450D01*
X1284Y430D01*
Y390D01*
X1305Y369D01*
X1345D01*
X1366Y390D01*
Y430D01*
X1345Y451D01*
X1345D01*
X1345D01*
Y451D01*
D01*
D01*
D01*
D01*
X1345Y454D01*
X1346Y454D01*
X1354Y461D01*
X1361Y469D01*
X1365Y479D01*
X1366Y485D01*
D02*
G37*
G36*
X-100Y92D02*
X-111Y91D01*
X-121Y87D01*
X-130Y80D01*
X-137Y71D01*
X-141Y61D01*
X-142Y50D01*
X-141Y39D01*
X-137Y29D01*
X-130Y20D01*
X-121Y13D01*
X-111Y9D01*
X-100Y8D01*
X-89Y9D01*
X-79Y13D01*
X-70Y20D01*
X-63Y29D01*
X-59Y39D01*
X-58Y50D01*
X-59Y61D01*
X-63Y71D01*
X-70Y80D01*
X-79Y87D01*
X-89Y91D01*
X-100Y92D01*
D02*
G37*
G36*
X700D02*
X689Y91D01*
X679Y87D01*
X670Y80D01*
X663Y71D01*
X659Y61D01*
X658Y50D01*
X659Y39D01*
X663Y29D01*
X670Y20D01*
X679Y13D01*
X689Y9D01*
X700Y8D01*
X711Y9D01*
X721Y13D01*
X730Y20D01*
X737Y29D01*
X741Y39D01*
X742Y50D01*
X741Y61D01*
X737Y71D01*
X730Y80D01*
X721Y87D01*
X711Y91D01*
X700Y92D01*
D02*
G37*
G36*
X947Y102D02*
Y61D01*
X942D01*
Y56D01*
X901D01*
X902Y51D01*
X906Y41D01*
X913Y32D01*
X921Y26D01*
X923Y25D01*
X922Y20D01*
X908D01*
X890Y38D01*
X891Y39D01*
X892Y50D01*
X891Y61D01*
X887Y71D01*
X880Y80D01*
X871Y87D01*
X861Y91D01*
X850Y92D01*
X839Y91D01*
X829Y87D01*
X820Y80D01*
X813Y71D01*
X809Y61D01*
X808Y50D01*
X809Y39D01*
X813Y29D01*
X820Y20D01*
X829Y13D01*
X839Y9D01*
X850Y8D01*
X861Y9D01*
X862Y10D01*
X886Y-14D01*
X892Y-18D01*
X900Y-20D01*
X922D01*
X923Y-25D01*
X921Y-26D01*
X913Y-32D01*
X906Y-41D01*
X902Y-51D01*
X901Y-61D01*
X902Y-72D01*
X906Y-82D01*
X913Y-91D01*
X921Y-97D01*
X931Y-101D01*
X942Y-103D01*
X953Y-101D01*
X963Y-97D01*
X971Y-91D01*
X978Y-82D01*
X982Y-72D01*
X983Y-61D01*
X982Y-51D01*
X978Y-41D01*
X971Y-32D01*
X963Y-26D01*
X953Y-21D01*
X943Y-20D01*
Y-20D01*
X943Y-20D01*
X942Y-20D01*
Y-20D01*
X942Y-20D01*
X982D01*
X990Y-28D01*
Y-285D01*
X953Y-322D01*
X953Y-321D01*
X942Y-320D01*
X931Y-321D01*
X921Y-326D01*
X913Y-332D01*
X906Y-341D01*
X902Y-351D01*
X901Y-361D01*
X902Y-372D01*
X906Y-382D01*
X913Y-391D01*
X921Y-397D01*
X931Y-401D01*
X942Y-403D01*
X953Y-401D01*
X963Y-397D01*
X971Y-391D01*
X978Y-382D01*
X982Y-372D01*
X983Y-361D01*
X982Y-351D01*
X982Y-350D01*
X1024Y-307D01*
X1028Y-301D01*
X1030Y-293D01*
Y-20D01*
X1028Y-12D01*
X1024Y-6D01*
X1024Y-6D01*
D01*
D01*
D01*
D01*
X1024Y-6D01*
D01*
D01*
X1024D01*
X1004Y14D01*
X998Y18D01*
X990Y20D01*
X962D01*
X961Y25D01*
X963Y26D01*
X971Y32D01*
X978Y41D01*
X982Y51D01*
X988Y50D01*
X989Y49D01*
X995Y44D01*
X1002Y41D01*
X1010Y40D01*
X1018Y41D01*
X1025Y44D01*
X1031Y49D01*
X1032Y50D01*
X1078D01*
X1079Y49D01*
X1085Y44D01*
X1092Y41D01*
X1100Y40D01*
X1108Y41D01*
X1115Y44D01*
X1121Y49D01*
X1126Y55D01*
X1129Y62D01*
X1130Y70D01*
X1129Y78D01*
X1126Y85D01*
X1121Y91D01*
X1115Y96D01*
X1108Y99D01*
X1100Y100D01*
X1092Y99D01*
X1085Y96D01*
X1079Y91D01*
X1078Y90D01*
X1032D01*
X1031Y91D01*
X1025Y96D01*
X1018Y99D01*
X1010Y100D01*
X1002Y99D01*
X995Y96D01*
X989Y91D01*
X984Y85D01*
X983Y82D01*
X978D01*
X978Y82D01*
X971Y91D01*
X963Y97D01*
X953Y101D01*
X947Y102D01*
D02*
G37*
G36*
X-1010Y41D02*
Y5D01*
X-974D01*
X-975Y11D01*
X-979Y21D01*
X-986Y29D01*
X-994Y36D01*
X-1004Y40D01*
X-1010Y41D01*
D02*
G37*
G36*
X-375Y92D02*
X-386Y91D01*
X-396Y87D01*
X-405Y80D01*
X-412Y71D01*
X-416Y61D01*
X-417Y50D01*
X-416Y39D01*
X-412Y29D01*
X-405Y20D01*
X-396Y13D01*
X-386Y9D01*
X-375Y8D01*
X-364Y9D01*
X-354Y13D01*
X-345Y20D01*
X-338Y29D01*
X-334Y39D01*
X-333Y50D01*
X-334Y61D01*
X-338Y71D01*
X-345Y80D01*
X-354Y87D01*
X-364Y91D01*
X-375Y92D01*
D02*
G37*
G36*
X-200D02*
X-211Y91D01*
X-221Y87D01*
X-230Y80D01*
X-237Y71D01*
X-241Y61D01*
X-242Y50D01*
X-241Y39D01*
X-237Y29D01*
X-230Y20D01*
X-221Y13D01*
X-211Y9D01*
X-200Y8D01*
X-189Y9D01*
X-179Y13D01*
X-170Y20D01*
X-163Y29D01*
X-159Y39D01*
X-158Y50D01*
X-159Y61D01*
X-163Y71D01*
X-170Y80D01*
X-179Y87D01*
X-189Y91D01*
X-200Y92D01*
D02*
G37*
G36*
X937Y102D02*
X931Y101D01*
X921Y97D01*
X913Y91D01*
X906Y82D01*
X902Y72D01*
X901Y66D01*
X937D01*
Y102D01*
D02*
G37*
G36*
X1173D02*
X1167Y101D01*
X1157Y97D01*
X1149Y91D01*
X1142Y82D01*
X1138Y72D01*
X1137Y66D01*
X1173D01*
Y102D01*
D02*
G37*
G36*
X1183D02*
Y66D01*
X1219D01*
X1218Y72D01*
X1214Y82D01*
X1207Y91D01*
X1199Y97D01*
X1189Y101D01*
X1183Y102D01*
D02*
G37*
G36*
X1173Y56D02*
X1137D01*
X1138Y51D01*
X1142Y41D01*
X1149Y32D01*
X1157Y26D01*
X1167Y21D01*
X1173Y21D01*
Y56D01*
D02*
G37*
G36*
X1219D02*
X1183D01*
Y21D01*
X1189Y21D01*
X1199Y26D01*
X1207Y32D01*
X1214Y41D01*
X1218Y51D01*
X1219Y56D01*
D02*
G37*
G36*
X-974Y141D02*
X-1056D01*
Y59D01*
X-974D01*
Y141D01*
D02*
G37*
G36*
X-380Y-8D02*
X-386Y-9D01*
X-396Y-13D01*
X-405Y-20D01*
X-412Y-29D01*
X-416Y-39D01*
X-417Y-45D01*
X-380D01*
Y-8D01*
D02*
G37*
G36*
X-370D02*
Y-45D01*
X-333D01*
X-334Y-39D01*
X-338Y-29D01*
X-345Y-20D01*
X-354Y-13D01*
X-364Y-9D01*
X-370Y-8D01*
D02*
G37*
G36*
X-1500Y42D02*
X-1511Y41D01*
X-1521Y37D01*
X-1530Y30D01*
X-1537Y21D01*
X-1541Y11D01*
X-1542Y0D01*
X-1541Y-11D01*
X-1537Y-21D01*
X-1530Y-30D01*
X-1521Y-37D01*
X-1511Y-41D01*
X-1500Y-42D01*
X-1489Y-41D01*
X-1479Y-37D01*
X-1470Y-30D01*
X-1463Y-21D01*
X-1459Y-11D01*
X-1458Y0D01*
X-1459Y11D01*
X-1463Y21D01*
X-1470Y30D01*
X-1479Y37D01*
X-1489Y41D01*
X-1500Y42D01*
D02*
G37*
G36*
X-1838Y55D02*
X-1851Y53D01*
X-1864Y49D01*
X-1876Y43D01*
X-1887Y34D01*
X-1895Y24D01*
X-1902Y12D01*
X-1906Y-1D01*
X-1907Y-14D01*
X-1906Y-28D01*
X-1902Y-41D01*
X-1895Y-53D01*
X-1887Y-63D01*
X-1876Y-72D01*
X-1864Y-78D01*
X-1851Y-82D01*
X-1838Y-83D01*
X-1825Y-82D01*
X-1812Y-78D01*
X-1800Y-72D01*
X-1789Y-63D01*
X-1781Y-53D01*
X-1774Y-41D01*
X-1770Y-28D01*
X-1769Y-14D01*
X-1770Y-1D01*
X-1774Y12D01*
X-1781Y24D01*
X-1789Y34D01*
X-1800Y43D01*
X-1812Y49D01*
X-1825Y53D01*
X-1838Y55D01*
D02*
G37*
G36*
X-2347Y-19D02*
X-2410D01*
X-2410Y-28D01*
X-2406Y-41D01*
X-2399Y-53D01*
X-2391Y-63D01*
X-2380Y-72D01*
X-2368Y-78D01*
X-2355Y-82D01*
X-2347Y-83D01*
Y-19D01*
D02*
G37*
G36*
X-2274D02*
X-2337D01*
Y-83D01*
X-2329Y-82D01*
X-2316Y-78D01*
X-2304Y-72D01*
X-2293Y-63D01*
X-2285Y-53D01*
X-2278Y-41D01*
X-2274Y-28D01*
X-2274Y-19D01*
D02*
G37*
G36*
X-2347Y54D02*
X-2355Y53D01*
X-2368Y49D01*
X-2380Y43D01*
X-2391Y34D01*
X-2399Y24D01*
X-2406Y12D01*
X-2410Y-1D01*
X-2410Y-9D01*
X-2347D01*
Y54D01*
D02*
G37*
G36*
X-2337D02*
Y-9D01*
X-2274D01*
X-2274Y-1D01*
X-2278Y12D01*
X-2285Y24D01*
X-2293Y34D01*
X-2304Y43D01*
X-2316Y49D01*
X-2329Y53D01*
X-2337Y54D01*
D02*
G37*
G36*
X-1020Y41D02*
X-1026Y40D01*
X-1036Y36D01*
X-1044Y29D01*
X-1051Y21D01*
X-1055Y11D01*
X-1056Y5D01*
X-1020D01*
Y41D01*
D02*
G37*
G36*
X-1200Y42D02*
X-1211Y41D01*
X-1221Y37D01*
X-1230Y30D01*
X-1237Y21D01*
X-1241Y11D01*
X-1242Y0D01*
X-1241Y-11D01*
X-1237Y-21D01*
X-1230Y-30D01*
X-1221Y-37D01*
X-1211Y-41D01*
X-1200Y-42D01*
X-1189Y-41D01*
X-1179Y-37D01*
X-1170Y-30D01*
X-1163Y-21D01*
X-1159Y-11D01*
X-1158Y0D01*
X-1159Y11D01*
X-1163Y21D01*
X-1170Y30D01*
X-1179Y37D01*
X-1189Y41D01*
X-1200Y42D01*
D02*
G37*
G36*
X-1020Y-5D02*
X-1056D01*
X-1055Y-11D01*
X-1051Y-21D01*
X-1044Y-29D01*
X-1036Y-36D01*
X-1026Y-40D01*
X-1020Y-41D01*
Y-5D01*
D02*
G37*
G36*
X-974D02*
X-1010D01*
Y-41D01*
X-1004Y-40D01*
X-994Y-36D01*
X-986Y-29D01*
X-979Y-21D01*
X-975Y-11D01*
X-974Y-5D01*
D02*
G37*
G36*
X937Y356D02*
X901D01*
X902Y351D01*
X906Y341D01*
X913Y332D01*
X921Y326D01*
X931Y321D01*
X937Y321D01*
Y356D01*
D02*
G37*
G36*
X983D02*
X947D01*
Y321D01*
X953Y321D01*
X963Y326D01*
X971Y332D01*
X978Y341D01*
X982Y351D01*
X983Y356D01*
D02*
G37*
G36*
X1173D02*
X1137D01*
X1138Y351D01*
X1142Y341D01*
X1149Y332D01*
X1157Y326D01*
X1167Y321D01*
X1173Y321D01*
Y356D01*
D02*
G37*
G36*
X700Y392D02*
X689Y391D01*
X679Y387D01*
X670Y380D01*
X663Y371D01*
X659Y361D01*
X658Y350D01*
X659Y339D01*
X663Y329D01*
X670Y320D01*
X679Y313D01*
X689Y309D01*
X700Y308D01*
X711Y309D01*
X721Y313D01*
X730Y320D01*
X737Y329D01*
X741Y339D01*
X742Y350D01*
X741Y361D01*
X737Y371D01*
X730Y380D01*
X721Y387D01*
X711Y391D01*
X700Y392D01*
D02*
G37*
G36*
X850D02*
X839Y391D01*
X829Y387D01*
X820Y380D01*
X813Y371D01*
X809Y361D01*
X808Y350D01*
X809Y339D01*
X813Y329D01*
X820Y320D01*
X829Y313D01*
X839Y309D01*
X850Y308D01*
X861Y309D01*
X871Y313D01*
X880Y320D01*
X887Y329D01*
X891Y339D01*
X892Y350D01*
X891Y361D01*
X887Y371D01*
X880Y380D01*
X871Y387D01*
X861Y391D01*
X850Y392D01*
D02*
G37*
G36*
X-1350Y485D02*
X-1359Y484D01*
X-1367Y480D01*
X-1375Y475D01*
X-1380Y467D01*
X-1384Y459D01*
X-1385Y450D01*
Y350D01*
X-1384Y341D01*
X-1380Y333D01*
X-1375Y325D01*
X-1367Y320D01*
X-1359Y316D01*
X-1350Y315D01*
X-1341Y316D01*
X-1333Y320D01*
X-1325Y325D01*
X-1320Y333D01*
X-1316Y341D01*
X-1315Y350D01*
Y450D01*
X-1316Y459D01*
X-1320Y467D01*
X-1325Y475D01*
X-1333Y480D01*
X-1341Y484D01*
X-1350Y485D01*
D02*
G37*
G36*
X947Y402D02*
Y366D01*
X983D01*
X982Y372D01*
X978Y382D01*
X971Y391D01*
X963Y397D01*
X953Y401D01*
X947Y402D01*
D02*
G37*
G36*
X1173D02*
X1167Y401D01*
X1157Y397D01*
X1149Y391D01*
X1142Y382D01*
X1138Y372D01*
X1137Y366D01*
X1173D01*
Y402D01*
D02*
G37*
G36*
X1183D02*
Y366D01*
X1219D01*
X1218Y372D01*
X1214Y382D01*
X1207Y391D01*
X1199Y397D01*
X1189Y401D01*
X1183Y402D01*
D02*
G37*
G36*
X1219Y356D02*
X1183D01*
Y321D01*
X1189Y321D01*
X1199Y326D01*
X1207Y332D01*
X1214Y341D01*
X1218Y351D01*
X1219Y356D01*
D02*
G37*
G36*
X-1200Y442D02*
X-1211Y441D01*
X-1221Y437D01*
X-1230Y430D01*
X-1237Y421D01*
X-1241Y411D01*
X-1242Y400D01*
X-1241Y389D01*
X-1237Y379D01*
X-1230Y370D01*
X-1221Y363D01*
X-1211Y359D01*
X-1200Y358D01*
X-1189Y359D01*
X-1179Y363D01*
X-1170Y370D01*
X-1163Y379D01*
X-1159Y389D01*
X-1158Y400D01*
X-1159Y411D01*
X-1163Y421D01*
X-1170Y430D01*
X-1179Y437D01*
X-1189Y441D01*
X-1200Y442D01*
D02*
G37*
G36*
X937Y402D02*
X931Y401D01*
X921Y397D01*
X913Y391D01*
X906Y382D01*
X902Y372D01*
X901Y366D01*
X937D01*
Y402D01*
D02*
G37*
G36*
X850Y192D02*
X839Y191D01*
X829Y187D01*
X820Y180D01*
X813Y171D01*
X809Y161D01*
X808Y150D01*
X809Y139D01*
X813Y129D01*
X820Y120D01*
X829Y113D01*
X839Y109D01*
X850Y108D01*
X861Y109D01*
X871Y113D01*
X880Y120D01*
X887Y129D01*
X891Y139D01*
X892Y150D01*
X891Y161D01*
X887Y171D01*
X880Y180D01*
X871Y187D01*
X861Y191D01*
X850Y192D01*
D02*
G37*
G36*
X1320Y231D02*
X1314Y230D01*
X1304Y226D01*
X1296Y219D01*
X1289Y211D01*
X1285Y201D01*
X1284Y195D01*
X1320D01*
Y231D01*
D02*
G37*
G36*
X1330D02*
Y195D01*
X1366D01*
X1365Y201D01*
X1361Y211D01*
X1354Y219D01*
X1346Y226D01*
X1336Y230D01*
X1330Y231D01*
D02*
G37*
G36*
X1366Y185D02*
X1284D01*
X1285Y179D01*
X1289Y169D01*
X1296Y161D01*
X1303Y155D01*
X1304Y150D01*
X1284Y130D01*
Y90D01*
X1305Y69D01*
X1345D01*
X1366Y90D01*
Y130D01*
X1345Y151D01*
X1345D01*
X1345D01*
Y151D01*
D01*
D01*
D01*
D01*
X1345Y154D01*
X1346Y154D01*
X1354Y161D01*
X1361Y169D01*
X1365Y179D01*
X1366Y185D01*
D02*
G37*
G36*
X-375Y192D02*
X-386Y191D01*
X-396Y187D01*
X-405Y180D01*
X-412Y171D01*
X-416Y161D01*
X-417Y150D01*
X-416Y139D01*
X-412Y129D01*
X-405Y120D01*
X-396Y113D01*
X-386Y109D01*
X-375Y108D01*
X-364Y109D01*
X-354Y113D01*
X-345Y120D01*
X-338Y129D01*
X-334Y139D01*
X-333Y150D01*
X-334Y161D01*
X-338Y171D01*
X-345Y180D01*
X-354Y187D01*
X-364Y191D01*
X-375Y192D01*
D02*
G37*
G36*
X700D02*
X689Y191D01*
X679Y187D01*
X670Y180D01*
X663Y171D01*
X659Y161D01*
X658Y150D01*
X659Y139D01*
X663Y129D01*
X670Y120D01*
X679Y113D01*
X689Y109D01*
X700Y108D01*
X711Y109D01*
X721Y113D01*
X730Y120D01*
X737Y129D01*
X741Y139D01*
X742Y150D01*
X741Y161D01*
X737Y171D01*
X730Y180D01*
X721Y187D01*
X711Y191D01*
X700Y192D01*
D02*
G37*
G36*
Y292D02*
X689Y291D01*
X679Y287D01*
X670Y280D01*
X663Y271D01*
X659Y261D01*
X658Y250D01*
X659Y239D01*
X663Y229D01*
X670Y220D01*
X679Y213D01*
X689Y209D01*
X700Y208D01*
X711Y209D01*
X721Y213D01*
X730Y220D01*
X737Y229D01*
X741Y239D01*
X742Y250D01*
X741Y261D01*
X737Y271D01*
X730Y280D01*
X721Y287D01*
X711Y291D01*
X700Y292D01*
D02*
G37*
G36*
X850D02*
X839Y291D01*
X829Y287D01*
X820Y280D01*
X813Y271D01*
X809Y261D01*
X808Y250D01*
X809Y239D01*
X813Y229D01*
X820Y220D01*
X829Y213D01*
X839Y209D01*
X850Y208D01*
X861Y209D01*
X871Y213D01*
X880Y220D01*
X887Y229D01*
X891Y239D01*
X892Y250D01*
X891Y261D01*
X887Y271D01*
X880Y280D01*
X871Y287D01*
X861Y291D01*
X850Y292D01*
D02*
G37*
G36*
X355Y282D02*
X348Y282D01*
X341Y279D01*
X336Y274D01*
X331Y269D01*
X328Y262D01*
X328Y255D01*
X328Y248D01*
X331Y241D01*
X336Y236D01*
X336Y236D01*
X336Y231D01*
X297Y191D01*
X292Y193D01*
Y198D01*
X307Y213D01*
X311Y218D01*
X312Y225D01*
D01*
D01*
D01*
D01*
D01*
X312D01*
D01*
D01*
D01*
D01*
Y225D01*
X312D01*
D01*
Y225D01*
D01*
D01*
D01*
D01*
D01*
D01*
D01*
D01*
D01*
D01*
D01*
D01*
Y225D01*
D01*
X312D01*
D01*
D01*
D01*
D01*
X312Y225D01*
Y234D01*
X314Y236D01*
X319Y241D01*
X322Y248D01*
X322Y255D01*
X322Y262D01*
X319Y269D01*
X314Y274D01*
X309Y279D01*
X302Y282D01*
X295Y282D01*
X288Y282D01*
X281Y279D01*
X276Y274D01*
X273Y270D01*
X268D01*
X264Y274D01*
X259Y279D01*
X252Y282D01*
X245Y282D01*
X238Y282D01*
X231Y279D01*
X226Y274D01*
X221Y269D01*
X218Y262D01*
X218Y255D01*
X218Y248D01*
X221Y241D01*
X226Y236D01*
X228Y234D01*
Y-439D01*
X226Y-441D01*
X221Y-446D01*
X218Y-453D01*
X218Y-460D01*
X218Y-467D01*
X221Y-474D01*
X226Y-479D01*
X231Y-484D01*
X238Y-487D01*
X245Y-487D01*
X252Y-487D01*
X259Y-484D01*
X264Y-479D01*
X265Y-479D01*
X270D01*
X271Y-479D01*
X276Y-484D01*
X283Y-487D01*
X290Y-487D01*
X297Y-487D01*
X304Y-484D01*
X309Y-479D01*
X310Y-479D01*
X315D01*
X316Y-479D01*
X321Y-484D01*
X328Y-487D01*
X335Y-487D01*
X342Y-487D01*
X349Y-484D01*
X354Y-479D01*
X359Y-474D01*
X362Y-467D01*
X362Y-460D01*
X362Y-453D01*
X359Y-446D01*
X354Y-441D01*
X352Y-439D01*
Y-425D01*
X351Y-418D01*
X347Y-413D01*
X347Y-413D01*
D01*
D01*
D01*
D01*
X347Y-413D01*
D01*
D01*
X347D01*
X322Y-388D01*
Y168D01*
X367Y213D01*
X371Y218D01*
X372Y225D01*
D01*
D01*
D01*
D01*
D01*
X372D01*
D01*
D01*
D01*
D01*
Y225D01*
X372D01*
D01*
Y225D01*
D01*
D01*
D01*
D01*
D01*
D01*
D01*
D01*
D01*
D01*
D01*
D01*
Y225D01*
D01*
X372D01*
D01*
D01*
D01*
D01*
X372Y225D01*
Y234D01*
X374Y236D01*
X379Y241D01*
X382Y248D01*
X382Y255D01*
X382Y262D01*
X379Y269D01*
X374Y274D01*
X369Y279D01*
X362Y282D01*
X355Y282D01*
D02*
G37*
G36*
X942Y280D02*
X931Y279D01*
X921Y274D01*
X913Y268D01*
X906Y259D01*
X902Y249D01*
X901Y239D01*
X902Y228D01*
X906Y218D01*
X913Y209D01*
X921Y203D01*
X931Y199D01*
X942Y197D01*
X953Y199D01*
X963Y203D01*
X971Y209D01*
X978Y218D01*
X982Y228D01*
X983Y239D01*
X982Y249D01*
X978Y259D01*
X971Y268D01*
X963Y274D01*
X953Y279D01*
X942Y280D01*
D02*
G37*
G36*
X1178D02*
X1167Y279D01*
X1157Y274D01*
X1149Y268D01*
X1142Y259D01*
X1138Y249D01*
X1137Y239D01*
X1138Y228D01*
X1142Y218D01*
X1149Y209D01*
X1157Y203D01*
X1167Y199D01*
X1178Y197D01*
X1189Y199D01*
X1199Y203D01*
X1207Y209D01*
X1214Y218D01*
X1218Y228D01*
X1219Y239D01*
X1218Y249D01*
X1214Y259D01*
X1207Y268D01*
X1199Y274D01*
X1189Y279D01*
X1178Y280D01*
D02*
G37*
G36*
X-375Y292D02*
X-386Y291D01*
X-396Y287D01*
X-405Y280D01*
X-412Y271D01*
X-416Y261D01*
X-417Y250D01*
X-416Y239D01*
X-412Y229D01*
X-405Y220D01*
X-396Y213D01*
X-386Y209D01*
X-375Y208D01*
X-364Y209D01*
X-354Y213D01*
X-345Y220D01*
X-338Y229D01*
X-334Y239D01*
X-333Y250D01*
X-334Y261D01*
X-338Y271D01*
X-345Y280D01*
X-354Y287D01*
X-364Y291D01*
X-375Y292D01*
D02*
G37*
%LPD*%
D15*
X900Y0D02*
X990D01*
X942Y-361D02*
X1010Y-293D01*
Y-20D01*
X990Y0D02*
X1010Y-20D01*
X850Y50D02*
X900Y0D01*
X1010Y70D02*
X1100D01*
D16*
X305Y-395D02*
Y175D01*
X355Y225D01*
X335Y-460D02*
Y-425D01*
X305Y-395D02*
X335Y-425D01*
X355Y225D02*
Y255D01*
X275Y205D02*
X295Y225D01*
Y255D01*
X275Y-415D02*
Y205D01*
Y-415D02*
X290Y-430D01*
Y-460D02*
Y-430D01*
X245Y-460D02*
Y255D01*
X-375Y-465D02*
Y-250D01*
D17*
X-885Y240D02*
Y325D01*
X-985Y425D02*
X-885Y325D01*
X-1500Y-800D02*
X-1390D01*
X-1360Y-830D01*
X-1295D01*
D18*
X-1600Y-150D02*
X-1550Y-100D01*
X-1500D01*
X-1600Y-550D02*
Y-150D01*
X-1100Y-550D02*
Y-150D01*
X-1200Y-100D02*
X-1150D01*
X-1100Y-150D01*
X-1350Y350D02*
Y450D01*
X-1600Y150D02*
Y550D01*
X-1100Y150D02*
Y550D01*
X-1150Y-600D02*
X-1100Y-550D01*
X-1200Y-600D02*
X-1150D01*
X-1600Y-550D02*
X-1550Y-600D01*
X-1500D01*
X-1600Y550D02*
X-1550Y600D01*
X-1500D01*
X-1600Y150D02*
X-1550Y100D01*
X-1500D01*
X-1150D02*
X-1100Y150D01*
X-1200Y100D02*
X-1150D01*
Y600D02*
X-1100Y550D01*
X-1200Y600D02*
X-1150D01*
X-1500Y800D02*
X-1200D01*
X-1500Y-400D02*
X-1200D01*
X-1350Y-770D02*
Y-250D01*
X-1425Y200D02*
Y450D01*
X-1500Y200D02*
X-1200D01*
D19*
X-450Y-150D02*
X-375D01*
X-550Y-250D02*
X-450Y-150D01*
X-550Y-550D02*
Y-250D01*
D20*
X-525Y-740D02*
D03*
D21*
X-465Y-800D02*
D03*
D22*
X-525Y-860D02*
D03*
D23*
X675Y-650D02*
D03*
X-1200Y0D02*
D03*
X-1500D02*
D03*
X-1200Y-700D02*
D03*
X-1500D02*
D03*
X-1200Y700D02*
D03*
X-1500D02*
D03*
X850Y150D02*
D03*
Y250D02*
D03*
Y350D02*
D03*
Y450D02*
D03*
Y50D02*
D03*
Y-50D02*
D03*
Y-150D02*
D03*
Y-350D02*
D03*
Y-250D02*
D03*
X700Y150D02*
D03*
Y250D02*
D03*
Y350D02*
D03*
Y450D02*
D03*
Y50D02*
D03*
Y-50D02*
D03*
Y-150D02*
D03*
Y-350D02*
D03*
Y-250D02*
D03*
X-1200Y-500D02*
D03*
X-1500D02*
D03*
Y-400D02*
D03*
Y-600D02*
D03*
X-1200D02*
D03*
Y-100D02*
D03*
X-1500D02*
D03*
Y200D02*
D03*
X-1200Y500D02*
D03*
X-1500D02*
D03*
Y800D02*
D03*
X200Y-650D02*
D03*
Y-750D02*
D03*
X100Y-650D02*
D03*
Y-750D02*
D03*
X0Y-650D02*
D03*
Y-750D02*
D03*
X-100Y-650D02*
D03*
Y-750D02*
D03*
X-200Y-650D02*
D03*
X-375Y-50D02*
D03*
Y-150D02*
D03*
Y50D02*
D03*
Y150D02*
D03*
Y250D02*
D03*
X125Y-100D02*
D03*
X-100Y50D02*
D03*
X-200D02*
D03*
X-1500Y600D02*
D03*
X-1200D02*
D03*
Y800D02*
D03*
X-1500Y100D02*
D03*
X-1200D02*
D03*
Y200D02*
D03*
Y-400D02*
D03*
X-1500Y400D02*
D03*
X-1200D02*
D03*
X-1500Y-200D02*
D03*
X-1200D02*
D03*
X-1500Y-800D02*
D03*
X-1200D02*
D03*
D24*
X1325Y490D02*
D03*
Y190D02*
D03*
Y-110D02*
D03*
Y-410D02*
D03*
X942Y361D02*
D03*
Y539D02*
D03*
X1178D02*
D03*
Y361D02*
D03*
Y61D02*
D03*
Y239D02*
D03*
X942D02*
D03*
Y61D02*
D03*
Y-239D02*
D03*
Y-61D02*
D03*
X1178D02*
D03*
Y-239D02*
D03*
Y-539D02*
D03*
Y-361D02*
D03*
X942D02*
D03*
Y-539D02*
D03*
X-1900Y-775D02*
D03*
X-2000D02*
D03*
X-1900Y825D02*
D03*
X-2000D02*
D03*
X-1015Y-100D02*
D03*
Y0D02*
D03*
D25*
X1325Y410D02*
D03*
Y110D02*
D03*
Y-190D02*
D03*
Y-490D02*
D03*
D26*
X-2100Y-775D02*
D03*
Y825D02*
D03*
D27*
X-1015Y100D02*
D03*
D28*
X1260Y-807D02*
D03*
Y807D02*
D03*
X-2362D02*
D03*
Y-807D02*
D03*
D29*
X536Y806D02*
D03*
Y-808D02*
D03*
D30*
X850Y-450D02*
D03*
X700D02*
D03*
X-375Y-250D02*
D03*
D31*
X-2342Y564D02*
D03*
Y-14D02*
D03*
X-1838D02*
D03*
Y564D02*
D03*
X-2090Y-14D02*
D03*
Y564D02*
D03*
D32*
X-900Y-800D02*
D03*
X-700D02*
D03*
X-800D02*
D03*
D33*
X-900Y-625D02*
D03*
X-850Y750D02*
D03*
D34*
X-900Y-475D02*
D03*
X-650Y-550D02*
D03*
X-850Y550D02*
D03*
D35*
X-550Y-550D02*
D03*
D36*
X-200Y-750D02*
D03*
D37*
X-550Y850D02*
D03*
X-250Y650D02*
D03*
Y850D02*
D03*
X-550Y650D02*
D03*
D38*
X200Y775D02*
D03*
D39*
X0D02*
D03*
D40*
X1100Y70D02*
D03*
X1010D02*
D03*
D41*
X-2429Y-450D02*
D03*
X-985Y425D02*
D03*
X-885Y240D02*
D03*
X-1350Y-770D02*
D03*
Y-250D02*
D03*
X-1425Y450D02*
D03*
X-550Y200D02*
D03*
X-2429Y-219D02*
D03*
Y-670D02*
D03*
X290Y-460D02*
D03*
X245D02*
D03*
X335D02*
D03*
X75Y-390D02*
D03*
Y-255D02*
D03*
X-375Y-465D02*
D03*
X290Y310D02*
D03*
X245Y255D02*
D03*
X295D02*
D03*
X355D02*
D03*
X-250Y465D02*
D03*
X-100D02*
D03*
X50D02*
D03*
X-1350Y450D02*
D03*
Y350D02*
D03*
X-1295Y-830D02*
D03*
D42*
X775Y-870D02*
D03*
Y-835D02*
D03*
Y-730D02*
D03*
Y-765D02*
D03*
Y-800D02*
D03*
Y-625D02*
D03*
Y-660D02*
D03*
Y-695D02*
D03*
Y-520D02*
D03*
Y-555D02*
D03*
Y-590D02*
D03*
Y-415D02*
D03*
Y-385D02*
D03*
Y-285D02*
D03*
Y-315D02*
D03*
Y-185D02*
D03*
Y-215D02*
D03*
Y-85D02*
D03*
Y-115D02*
D03*
Y15D02*
D03*
Y-15D02*
D03*
Y115D02*
D03*
Y85D02*
D03*
Y215D02*
D03*
Y185D02*
D03*
Y315D02*
D03*
Y285D02*
D03*
Y415D02*
D03*
Y385D02*
D03*
Y-485D02*
D03*
Y485D02*
D03*
Y590D02*
D03*
Y555D02*
D03*
Y520D02*
D03*
Y695D02*
D03*
Y660D02*
D03*
Y625D02*
D03*
Y800D02*
D03*
Y765D02*
D03*
Y730D02*
D03*
Y835D02*
D03*
Y870D02*
D03*
M02*
