%FSLAX23Y23*%
%MOIN*%
G70*
G01*
G75*
G04 Layer_Physical_Order=1*
G04 Layer_Color=255*
%ADD10R,0.079X0.114*%
%ADD11R,0.025X0.075*%
%ADD12R,0.050X0.054*%
%ADD13R,0.054X0.050*%
%ADD14R,0.070X0.025*%
%ADD15C,0.020*%
%ADD16C,0.015*%
%ADD17C,0.025*%
%ADD18C,0.050*%
%ADD19C,0.030*%
%ADD20C,0.058*%
%ADD21C,0.058*%
%ADD22R,0.050X0.050*%
%ADD23C,0.065*%
%ADD24C,0.063*%
%ADD25P,0.068X8X112.5*%
%ADD26R,0.063X0.063*%
%ADD27R,0.063X0.063*%
%ADD28C,0.217*%
%ADD29C,0.217*%
%ADD30R,0.065X0.065*%
%ADD31C,0.118*%
%ADD32C,0.080*%
%ADD33R,0.059X0.059*%
%ADD34C,0.059*%
%ADD35R,0.059X0.059*%
%ADD36R,0.065X0.065*%
%ADD37C,0.059*%
%ADD38C,0.098*%
%ADD39R,0.098X0.098*%
%ADD40C,0.040*%
%ADD41C,0.035*%
%ADD42C,0.020*%
D10*
X-2165Y-580D02*
D03*
Y-320D02*
D03*
X-2303D02*
D03*
Y-580D02*
D03*
X-2429Y-320D02*
D03*
Y-580D02*
D03*
D11*
X25Y-190D02*
D03*
X-25D02*
D03*
X-75D02*
D03*
X-125D02*
D03*
X-175D02*
D03*
X-225D02*
D03*
X-75Y190D02*
D03*
X-25D02*
D03*
X25D02*
D03*
X75D02*
D03*
X175Y-190D02*
D03*
X225D02*
D03*
X275D02*
D03*
X325D02*
D03*
X-275D02*
D03*
X75D02*
D03*
X375D02*
D03*
Y190D02*
D03*
X325D02*
D03*
X275D02*
D03*
X225D02*
D03*
X175D02*
D03*
X125D02*
D03*
X-225D02*
D03*
X-275D02*
D03*
X125Y-190D02*
D03*
X-125Y190D02*
D03*
X-175D02*
D03*
D12*
X-440Y400D02*
D03*
X-360D02*
D03*
Y500D02*
D03*
X-440D02*
D03*
X590Y-350D02*
D03*
X510D02*
D03*
Y-250D02*
D03*
X590D02*
D03*
X510Y-150D02*
D03*
X590D02*
D03*
X510Y-50D02*
D03*
X590D02*
D03*
Y50D02*
D03*
X510D02*
D03*
Y350D02*
D03*
X590D02*
D03*
X510Y250D02*
D03*
X590D02*
D03*
X510Y150D02*
D03*
X590D02*
D03*
X240Y500D02*
D03*
X160D02*
D03*
X240Y400D02*
D03*
X160D02*
D03*
Y310D02*
D03*
X240D02*
D03*
D13*
X-250Y415D02*
D03*
Y335D02*
D03*
X-150Y415D02*
D03*
Y335D02*
D03*
X-50D02*
D03*
Y415D02*
D03*
X50Y335D02*
D03*
Y415D02*
D03*
X350Y320D02*
D03*
Y400D02*
D03*
X125Y-310D02*
D03*
Y-390D02*
D03*
X225Y-310D02*
D03*
Y-390D02*
D03*
X325Y-310D02*
D03*
Y-390D02*
D03*
D14*
X-485Y-200D02*
D03*
Y-150D02*
D03*
Y-100D02*
D03*
Y-50D02*
D03*
Y0D02*
D03*
Y50D02*
D03*
Y100D02*
D03*
Y150D02*
D03*
Y200D02*
D03*
X-865D02*
D03*
Y50D02*
D03*
Y0D02*
D03*
Y150D02*
D03*
Y100D02*
D03*
Y-100D02*
D03*
Y-50D02*
D03*
Y-150D02*
D03*
Y-200D02*
D03*
D15*
X900Y0D02*
X980D01*
X1010Y30D01*
Y70D01*
X942Y-61D02*
X1193D01*
X1055D02*
Y95D01*
X901Y239D02*
X1193D01*
X850Y250D02*
X895D01*
X890D02*
X901Y239D01*
X942Y539D02*
X1193D01*
X942Y442D02*
Y539D01*
X850Y350D02*
X942Y442D01*
X1100Y70D02*
X1325Y295D01*
Y410D01*
X1179Y-150D02*
X1325Y-4D01*
Y110D01*
X900Y-300D02*
X1215D01*
X1325Y-190D01*
X850Y-250D02*
X900Y-300D01*
X942Y-361D02*
X1193D01*
X950Y-450D02*
X1225D01*
X1265Y-490D01*
X1325D01*
X850Y-150D02*
X1179D01*
X850Y-50D02*
X900Y0D01*
X1000Y150D02*
X1055Y95D01*
X850Y150D02*
X1000D01*
X850Y-350D02*
X950Y-450D01*
X-440Y400D02*
Y565D01*
D16*
X590Y350D02*
X850D01*
X590Y-250D02*
X850D01*
X590Y-150D02*
X850D01*
X590Y-50D02*
X850D01*
X590Y150D02*
X850D01*
X590Y250D02*
X850D01*
X590Y-350D02*
X850D01*
X-615Y-330D02*
Y-135D01*
X-530Y-50D01*
X-485D01*
X-590Y-315D02*
Y-160D01*
X-530Y-100D01*
X-485D01*
X-665Y-360D02*
Y15D01*
X-530Y150D01*
X-665Y-360D02*
X-595Y-430D01*
X-640Y-345D02*
Y-10D01*
X-530Y100D01*
X-640Y-345D02*
X-580Y-405D01*
X-615Y-330D02*
X-565Y-380D01*
X-590Y-315D02*
X-550Y-355D01*
X-565Y-300D02*
Y-185D01*
X-530Y-150D01*
X-565Y-300D02*
X-535Y-330D01*
X-540Y-285D02*
Y-210D01*
Y-285D02*
X-520Y-305D01*
X-540Y-210D02*
X-530Y-200D01*
X65Y-485D02*
X190D01*
X215Y-460D02*
X245D01*
X190Y-485D02*
X215Y-460D01*
X125Y-190D02*
Y-100D01*
X-100Y50D02*
Y100D01*
X-125Y125D02*
X-100Y100D01*
X-125Y125D02*
Y190D01*
X-200Y50D02*
Y100D01*
X-175Y125D01*
Y190D01*
X375Y-525D02*
Y-190D01*
X325Y-310D02*
X375D01*
X335Y-510D02*
Y-460D01*
X105Y-545D02*
X300D01*
X335Y-510D01*
X-50Y-600D02*
X65Y-485D01*
X125Y-575D02*
X325D01*
X375Y-525D01*
X85Y-515D02*
X265D01*
X290Y-490D02*
Y-460D01*
X265Y-515D02*
X290Y-490D01*
X50Y-700D02*
Y-600D01*
X105Y-545D01*
X-50Y-700D02*
Y-600D01*
Y-700D02*
X0Y-750D01*
Y-600D02*
X85Y-515D01*
X0Y-650D02*
Y-600D01*
X100D02*
X125Y-575D01*
X100Y-650D02*
Y-600D01*
X50Y-700D02*
X100Y-750D01*
X75Y-390D02*
X125D01*
X15Y-310D02*
X225D01*
X75Y-255D02*
Y-190D01*
X-140Y-465D02*
X15Y-310D01*
X-375Y-465D02*
X-140D01*
X240Y310D02*
X290D01*
X450Y350D02*
X510D01*
X410Y310D02*
X450Y350D01*
X410Y145D02*
Y310D01*
X390Y125D02*
X410Y145D01*
X90Y125D02*
X390D01*
X460Y250D02*
X510D01*
X435Y225D02*
X460Y250D01*
X435Y125D02*
Y225D01*
X410Y100D02*
X435Y125D01*
X65Y100D02*
X410D01*
X470Y150D02*
X510D01*
X460Y140D02*
X470Y150D01*
X460Y110D02*
Y140D01*
X425Y75D02*
X460Y110D01*
X40Y75D02*
X425D01*
X15Y50D02*
X510D01*
X425Y-75D02*
X460Y-110D01*
Y-140D02*
Y-110D01*
Y-140D02*
X470Y-150D01*
X510D01*
X410Y-100D02*
X435Y-125D01*
Y-225D02*
Y-125D01*
Y-225D02*
X460Y-250D01*
X510D01*
X390Y-125D02*
X410Y-145D01*
Y-310D02*
Y-145D01*
Y-310D02*
X450Y-350D01*
X510D01*
X325Y-190D02*
Y-140D01*
X340Y-125D01*
X390D01*
X275Y-190D02*
Y-140D01*
X315Y-100D01*
X410D01*
X225Y-190D02*
Y-140D01*
X290Y-75D01*
X425D01*
X175Y-190D02*
Y-140D01*
X265Y-50D01*
X510D01*
X-75Y140D02*
X15Y50D01*
X-25Y140D02*
X40Y75D01*
X25Y140D02*
X65Y100D01*
X75Y140D02*
X90Y125D01*
X-85Y245D02*
X-75Y235D01*
X-150Y295D02*
X-125Y270D01*
X-150Y295D02*
Y335D01*
X-60Y270D02*
X-25Y235D01*
X-125Y270D02*
X-60D01*
X-25Y140D02*
Y235D01*
X-50Y300D02*
Y335D01*
X50Y275D02*
X75Y250D01*
X50Y275D02*
Y335D01*
X5Y270D02*
X25Y250D01*
X-50Y300D02*
X-20Y270D01*
X5D01*
X590Y50D02*
X850D01*
X-250Y295D02*
X-200Y245D01*
X-250Y295D02*
Y335D01*
X-200Y245D02*
X-85D01*
X-75Y140D02*
Y235D01*
X-225Y190D02*
Y225D01*
X-250Y250D02*
X-225Y225D01*
X-300Y250D02*
X-250D01*
X-375Y150D02*
X-320Y205D01*
Y230D01*
X-300Y250D01*
X-375Y50D02*
X-325D01*
X-275Y100D01*
Y190D01*
X-285Y-250D02*
X-275Y-240D01*
X-375Y-250D02*
X-285D01*
X-275Y-240D02*
Y-190D01*
X-225Y-250D02*
Y-190D01*
X-280Y-305D02*
X-225Y-250D01*
X-520Y-305D02*
X-280D01*
X-530Y-200D02*
X-485D01*
X-175Y-250D02*
Y-190D01*
X-255Y-330D02*
X-175Y-250D01*
X-530Y-150D02*
X-485D01*
X-535Y-330D02*
X-255D01*
X-125Y-250D02*
Y-190D01*
X-230Y-355D02*
X-125Y-250D01*
X-550Y-355D02*
X-230D01*
X-75Y-250D02*
Y-190D01*
X-205Y-380D02*
X-75Y-250D01*
X-565Y-380D02*
X-205D01*
X-25Y-250D02*
Y-190D01*
X-180Y-405D02*
X-25Y-250D01*
X-530Y100D02*
X-485D01*
X-580Y-405D02*
X-180D01*
X25Y-250D02*
Y-190D01*
X-155Y-430D02*
X25Y-250D01*
X-530Y150D02*
X-485D01*
X-595Y-430D02*
X-155D01*
X50Y335D02*
X95D01*
X160Y400D01*
X75Y140D02*
Y250D01*
X-50Y335D02*
X-15D01*
X0Y350D01*
Y475D01*
X25Y500D01*
X160D01*
X25Y140D02*
Y250D01*
X-360Y500D02*
X-225D01*
X-200Y475D01*
Y350D02*
Y475D01*
Y350D02*
X-185Y335D01*
X-150D01*
X-360Y400D02*
X-295Y335D01*
X-250D01*
Y415D02*
Y465D01*
X-100Y415D02*
Y465D01*
X-150Y415D02*
X-50D01*
X50D02*
Y465D01*
X175Y190D02*
Y245D01*
X240Y310D01*
X225Y190D02*
Y235D01*
X245Y255D01*
X275Y190D02*
Y235D01*
X295Y255D01*
X375Y190D02*
Y235D01*
X355Y255D02*
X375Y235D01*
X355Y255D02*
Y315D01*
D17*
X-1000Y-265D02*
X-960Y-225D01*
X-1135Y-265D02*
X-1000D01*
X-960Y-225D02*
Y-79D01*
X-930Y-50D01*
X-550Y200D02*
X-485D01*
X240Y395D02*
Y500D01*
X-200Y-600D02*
X-185Y-585D01*
X-95D01*
X40Y-450D01*
X165D01*
X225Y-390D01*
X325D01*
X125Y275D02*
X160Y310D01*
X125Y190D02*
Y275D01*
X240Y400D02*
X350D01*
X160Y310D02*
Y315D01*
X240Y395D01*
X-1200Y-800D02*
X-1150D01*
X-1125Y-775D01*
Y-420D01*
X-1055Y-350D01*
X-965D01*
X-865Y-250D01*
Y-200D01*
X-1295Y-830D02*
X-1270Y-855D01*
X-1135D01*
X-1075Y-795D01*
Y-435D01*
X-1030Y-390D01*
X-945D01*
X-805Y-250D01*
Y-165D01*
X-820Y-150D02*
X-805Y-165D01*
X-865Y-150D02*
X-820D01*
X-1200Y-200D02*
X-1135Y-265D01*
X-930Y-50D02*
X-865D01*
X-1500Y-200D02*
X-1390Y-310D01*
X-985D01*
X-925Y-250D01*
Y-115D01*
X-910Y-100D01*
X-865D01*
Y100D02*
X-790D01*
X-750Y140D01*
Y260D01*
X-850Y360D02*
X-750Y260D01*
X-865Y150D02*
X-810D01*
X-790Y170D01*
Y240D01*
X-870Y320D02*
X-790Y240D01*
X-1220Y320D02*
X-870D01*
X-1300Y400D02*
X-1220Y320D01*
X-1500Y400D02*
X-1300D01*
X-1200D02*
X-1160Y360D01*
X-850D01*
X-885Y200D02*
Y240D01*
X-200Y-750D02*
Y-600D01*
D18*
X-1775Y875D02*
X-1350D01*
X-1900Y825D02*
X-1825D01*
X-1775Y875D01*
X-2025Y675D02*
X-1600D01*
X-2100Y750D02*
Y825D01*
Y750D02*
X-2025Y675D01*
X-2060Y-660D02*
X-1590D01*
X-2100Y-775D02*
Y-700D01*
X-2060Y-660D01*
X-1870Y-880D02*
X-1455D01*
X-1900Y-850D02*
Y-775D01*
Y-850D02*
X-1870Y-880D01*
X-1075Y100D02*
X-1015D01*
X-1125Y150D02*
X-1075Y100D01*
X-1160Y270D02*
X-1125Y235D01*
Y150D02*
Y235D01*
X-1360Y270D02*
X-1160D01*
X-1400Y230D02*
X-1360Y270D01*
X-1400Y50D02*
Y230D01*
X-1450Y0D02*
X-1400Y50D01*
X-1500Y0D02*
X-1450D01*
X-1600Y675D02*
X-1575Y700D01*
X-1500D01*
X-1075Y-100D02*
X-1015D01*
X-1100Y-75D02*
Y-50D01*
Y-75D02*
X-1075Y-100D01*
X-1150Y0D02*
X-1100Y-50D01*
X-1200Y0D02*
X-1150D01*
X-1350Y875D02*
X-1300Y825D01*
Y750D02*
Y825D01*
X-1250Y700D02*
X-1200D01*
X-1300Y750D02*
X-1250Y700D01*
X-1590Y-660D02*
X-1550Y-700D01*
X-1500D01*
X-1455Y-880D02*
X-1425Y-850D01*
Y-750D01*
X-1375Y-700D01*
X-1200D01*
X-2429Y-670D02*
Y-219D01*
X-1200Y195D02*
Y200D01*
X-1300Y-905D02*
X-1095D01*
X-1350Y-855D02*
Y-770D01*
Y-855D02*
X-1300Y-905D01*
X-1095D02*
X-1000Y-810D01*
Y-650D01*
X-975Y-625D01*
X-900D01*
X-2000Y-300D02*
X-1500D01*
X-2100Y-200D02*
X-2000Y-300D01*
X-1350Y-250D02*
Y0D01*
X-1500Y800D02*
X-1450D01*
X-1425Y775D01*
Y450D02*
Y775D01*
X-675Y135D02*
Y270D01*
X-755Y-645D02*
Y55D01*
X-925Y675D02*
X-750Y850D01*
X-755Y55D02*
X-675Y135D01*
X-755Y-645D02*
X-700Y-700D01*
X-925Y520D02*
Y675D01*
Y520D02*
X-675Y270D01*
X-2165Y-580D02*
Y-320D01*
X-2275Y-200D02*
X-2100D01*
X-2303Y-228D02*
X-2275Y-200D01*
X0Y700D02*
Y775D01*
X-50Y650D02*
X0Y700D01*
X-250Y650D02*
X-50D01*
X-250Y850D02*
X-225Y875D01*
X165D02*
X200Y840D01*
X-225Y875D02*
X165D01*
X200Y775D02*
Y840D01*
X-750Y850D02*
X-550D01*
X-850Y550D02*
X-750Y650D01*
X-550D01*
X-900Y-800D02*
Y-625D01*
X-700Y-800D02*
Y-700D01*
X-1600Y500D02*
X-1500D01*
X-1300D02*
X-1200D01*
X-1350Y450D02*
X-1300Y500D01*
X-1400Y350D02*
X-1350D01*
X-1450Y300D02*
X-1400Y350D01*
X-1650Y225D02*
X-1575Y300D01*
X-1450D01*
X-1664Y564D02*
X-1600Y500D01*
X-1838Y564D02*
X-1664D01*
X-1838Y-14D02*
Y564D01*
X-2090Y-14D02*
Y564D01*
Y-14D02*
X-1954Y-150D01*
X-1750D02*
X-1650Y-50D01*
X-1954Y-150D02*
X-1750D01*
X-1650Y-50D02*
Y225D01*
X-1300Y-500D02*
X-1200D01*
X-2303Y-580D02*
Y-228D01*
X-1500Y-300D02*
X-1300Y-500D01*
X-1550D02*
X-1500D01*
X-1630Y-580D02*
X-1550Y-500D01*
X-2165Y-580D02*
X-1630D01*
X-1350Y0D02*
X-1300Y50D01*
X-1250Y200D02*
X-1200D01*
X-1300Y150D02*
X-1250Y200D01*
X-1300Y50D02*
Y150D01*
D19*
X-1100Y800D02*
X-985Y685D01*
Y425D02*
Y685D01*
X700Y450D02*
X850D01*
X-600D02*
X-485Y565D01*
X240Y500D02*
Y550D01*
X225Y565D02*
X240Y550D01*
X-600Y130D02*
Y450D01*
X-700Y-400D02*
Y30D01*
X-600Y130D01*
X-700Y-400D02*
X-550Y-550D01*
X250Y-850D02*
X650Y-450D01*
X850Y-250D02*
Y-245D01*
X-900Y-860D02*
X-885Y-875D01*
X-900Y-860D02*
Y-800D01*
X-1200Y800D02*
X-1100D01*
X-575Y-860D02*
X-525D01*
X-590Y-875D02*
X-575Y-860D01*
X-885Y-875D02*
X-590D01*
X-525Y-740D02*
Y-640D01*
X-550Y-615D02*
X-525Y-640D01*
X-550Y-615D02*
Y-550D01*
X-485Y565D02*
X225D01*
X-300Y-750D02*
X-200D01*
X-310Y-740D02*
X-300Y-750D01*
X-525Y-740D02*
X-310D01*
X-300Y-800D02*
X-250Y-850D01*
X-300Y-800D02*
Y-750D01*
X-250Y-850D02*
X250D01*
X650Y-450D02*
X850D01*
D20*
X-525Y-740D02*
D03*
D21*
X-465Y-800D02*
D03*
D22*
X-525Y-860D02*
D03*
D23*
X675Y-650D02*
D03*
X-1200Y0D02*
D03*
X-1500D02*
D03*
X-1200Y-700D02*
D03*
X-1500D02*
D03*
X-1200Y700D02*
D03*
X-1500D02*
D03*
X850Y150D02*
D03*
Y250D02*
D03*
Y350D02*
D03*
Y450D02*
D03*
Y50D02*
D03*
Y-50D02*
D03*
Y-150D02*
D03*
Y-350D02*
D03*
Y-250D02*
D03*
X700Y150D02*
D03*
Y250D02*
D03*
Y350D02*
D03*
Y450D02*
D03*
Y50D02*
D03*
Y-50D02*
D03*
Y-150D02*
D03*
Y-350D02*
D03*
Y-250D02*
D03*
X-1200Y-500D02*
D03*
X-1500D02*
D03*
Y-400D02*
D03*
Y-600D02*
D03*
X-1200D02*
D03*
Y-100D02*
D03*
X-1500D02*
D03*
Y200D02*
D03*
X-1200Y500D02*
D03*
X-1500D02*
D03*
Y800D02*
D03*
X200Y-650D02*
D03*
Y-750D02*
D03*
X100Y-650D02*
D03*
Y-750D02*
D03*
X0Y-650D02*
D03*
Y-750D02*
D03*
X-100Y-650D02*
D03*
Y-750D02*
D03*
X-200Y-650D02*
D03*
X-375Y-50D02*
D03*
Y-150D02*
D03*
Y50D02*
D03*
Y150D02*
D03*
Y250D02*
D03*
X125Y-100D02*
D03*
X-100Y50D02*
D03*
X-200D02*
D03*
X-1500Y600D02*
D03*
X-1200D02*
D03*
Y800D02*
D03*
X-1500Y100D02*
D03*
X-1200D02*
D03*
Y200D02*
D03*
Y-400D02*
D03*
X-1500Y400D02*
D03*
X-1200D02*
D03*
X-1500Y-200D02*
D03*
X-1200D02*
D03*
X-1500Y-800D02*
D03*
X-1200D02*
D03*
D24*
X1325Y490D02*
D03*
Y190D02*
D03*
Y-110D02*
D03*
Y-410D02*
D03*
X942Y361D02*
D03*
Y539D02*
D03*
X1178D02*
D03*
Y361D02*
D03*
Y61D02*
D03*
Y239D02*
D03*
X942D02*
D03*
Y61D02*
D03*
Y-239D02*
D03*
Y-61D02*
D03*
X1178D02*
D03*
Y-239D02*
D03*
Y-539D02*
D03*
Y-361D02*
D03*
X942D02*
D03*
Y-539D02*
D03*
X-1900Y-775D02*
D03*
X-2000D02*
D03*
X-1900Y825D02*
D03*
X-2000D02*
D03*
X-1015Y-100D02*
D03*
Y0D02*
D03*
D25*
X1325Y410D02*
D03*
Y110D02*
D03*
Y-190D02*
D03*
Y-490D02*
D03*
D26*
X-2100Y-775D02*
D03*
Y825D02*
D03*
D27*
X-1015Y100D02*
D03*
D28*
X1260Y-807D02*
D03*
Y807D02*
D03*
X-2362D02*
D03*
Y-807D02*
D03*
D29*
X536Y806D02*
D03*
Y-808D02*
D03*
D30*
X850Y-450D02*
D03*
X700D02*
D03*
X-375Y-250D02*
D03*
D31*
X-2342Y564D02*
D03*
Y-14D02*
D03*
X-1838D02*
D03*
Y564D02*
D03*
X-2090Y-14D02*
D03*
Y564D02*
D03*
D32*
X-900Y-800D02*
D03*
X-700D02*
D03*
X-800D02*
D03*
D33*
X-900Y-625D02*
D03*
X-850Y750D02*
D03*
D34*
X-900Y-475D02*
D03*
X-650Y-550D02*
D03*
X-850Y550D02*
D03*
D35*
X-550Y-550D02*
D03*
D36*
X-200Y-750D02*
D03*
D37*
X-550Y850D02*
D03*
X-250Y650D02*
D03*
Y850D02*
D03*
X-550Y650D02*
D03*
D38*
X200Y775D02*
D03*
D39*
X0D02*
D03*
D40*
X1100Y70D02*
D03*
X1010D02*
D03*
D41*
X-2429Y-450D02*
D03*
X-985Y425D02*
D03*
X-885Y240D02*
D03*
X-1350Y-770D02*
D03*
Y-250D02*
D03*
X-1425Y450D02*
D03*
X-550Y200D02*
D03*
X-2429Y-219D02*
D03*
Y-670D02*
D03*
X290Y-460D02*
D03*
X245D02*
D03*
X335D02*
D03*
X75Y-390D02*
D03*
Y-255D02*
D03*
X-375Y-465D02*
D03*
X290Y310D02*
D03*
X245Y255D02*
D03*
X295D02*
D03*
X355D02*
D03*
X-250Y465D02*
D03*
X-100D02*
D03*
X50D02*
D03*
X-1350Y450D02*
D03*
Y350D02*
D03*
X-1295Y-830D02*
D03*
D42*
X775Y-870D02*
D03*
Y-835D02*
D03*
Y-730D02*
D03*
Y-765D02*
D03*
Y-800D02*
D03*
Y-625D02*
D03*
Y-660D02*
D03*
Y-695D02*
D03*
Y-520D02*
D03*
Y-555D02*
D03*
Y-590D02*
D03*
Y-415D02*
D03*
Y-385D02*
D03*
Y-285D02*
D03*
Y-315D02*
D03*
Y-185D02*
D03*
Y-215D02*
D03*
Y-85D02*
D03*
Y-115D02*
D03*
Y15D02*
D03*
Y-15D02*
D03*
Y115D02*
D03*
Y85D02*
D03*
Y215D02*
D03*
Y185D02*
D03*
Y315D02*
D03*
Y285D02*
D03*
Y415D02*
D03*
Y385D02*
D03*
Y-485D02*
D03*
Y485D02*
D03*
Y590D02*
D03*
Y555D02*
D03*
Y520D02*
D03*
Y695D02*
D03*
Y660D02*
D03*
Y625D02*
D03*
Y800D02*
D03*
Y765D02*
D03*
Y730D02*
D03*
Y835D02*
D03*
Y870D02*
D03*
M02*
